<svg id="Layer_1" data-name="Layer 1" xmlns="http://www.w3.org/2000/svg" viewBox="0 0 1500 1500"><defs><style>.cls-1{fill:#fff;}.cls-2{fill:#cce70b;opacity:0.6;}.cls-3{fill:#ff0;}.cls-3,.cls-4{opacity:0.5;}.cls-4{fill:#ff8000;}.cls-5{fill:#f0047f;}.cls-5,.cls-6{opacity:0.4;}</style></defs><title>1</title><rect class="cls-1" width="1500" height="1500"/><polygon class="cls-2" points="86.73 284.96 513.53 177.63 419.96 738.73 86.73 284.96"/><polygon class="cls-3" points="679.89 511.55 342.65 371.17 12.99 757.67 346.44 1150.45 679.89 904.15 679.89 511.55"/><polygon class="cls-4" points="346.44 874.38 793.57 1462.46 1210.38 857.9 346.44 874.38"/><polygon class="cls-5" points="1286.17 1089.84 1487 656 1070.19 611.15 979.25 1348.61 1286.17 1089.84"/><polygon class="cls-6" points="1357.23 539.66 1274.06 284.96 1080.97 491.54 920 506.87 1347.31 776.85 1357.23 539.66"/><path class="cls-1" d="M277.65,313.22a6.53,6.53,0,0,1-2.46,5.39,10.7,10.7,0,0,1-6.85,2,16.16,16.16,0,0,1-7.15-1.52v-5a29.71,29.71,0,0,0,4.33,1.61,12.86,12.86,0,0,0,3.24.47,4.6,4.6,0,0,0,2.7-.68,2.29,2.29,0,0,0,.94-2,2.22,2.22,0,0,0-.41-1.32,4.63,4.63,0,0,0-1.22-1.12,34.37,34.37,0,0,0-3.27-1.71,15.65,15.65,0,0,1-3.47-2.08,7.88,7.88,0,0,1-1.85-2.34,6.62,6.62,0,0,1-.69-3.1,6.54,6.54,0,0,1,2.27-5.27,9.43,9.43,0,0,1,6.28-1.92,14.82,14.82,0,0,1,3.75.47,26.23,26.23,0,0,1,3.74,1.31l-1.73,4.16a25.6,25.6,0,0,0-3.34-1.16,11.14,11.14,0,0,0-2.6-.32,3.45,3.45,0,0,0-2.33.7,2.35,2.35,0,0,0-.81,1.85,2.3,2.3,0,0,0,.33,1.24,3.75,3.75,0,0,0,1,1,36,36,0,0,0,3.4,1.77,13.48,13.48,0,0,1,4.85,3.39A6.63,6.63,0,0,1,277.65,313.22Z" transform="translate(0)"/><path class="cls-1" d="M295.49,320.23l-.71-2.47h-.27a5.61,5.61,0,0,1-2.4,2.08,8.21,8.21,0,0,1-3.54.74,6.72,6.72,0,0,1-5.13-1.83,7.33,7.33,0,0,1-1.73-5.24V300.92H287V312.2a5.49,5.49,0,0,0,.74,3.14,2.72,2.72,0,0,0,2.37,1,3.53,3.53,0,0,0,3.19-1.48,9.08,9.08,0,0,0,1-4.89v-9.09h5.26v19.31Z" transform="translate(0)"/><path class="cls-1" d="M315.66,320.58a6.41,6.41,0,0,1-5.33-2.47h-.28c.18,1.61.28,2.54.28,2.79v7.83h-5.27V300.92h4.28l.74,2.51h.25a6.09,6.09,0,0,1,5.47-2.87,6.26,6.26,0,0,1,5.35,2.64,12.24,12.24,0,0,1,1.94,7.34,14.38,14.38,0,0,1-.91,5.37,7.53,7.53,0,0,1-2.58,3.48A6.66,6.66,0,0,1,315.66,320.58Zm-1.55-15.8a3.33,3.33,0,0,0-2.85,1.2,6.85,6.85,0,0,0-.93,4v.57a8.07,8.07,0,0,0,.92,4.45,3.3,3.3,0,0,0,2.93,1.35c2.36,0,3.54-1.94,3.54-5.84a8.33,8.33,0,0,0-.87-4.27A3,3,0,0,0,314.11,304.78Z" transform="translate(0)"/><path class="cls-1" d="M336.18,320.58a10,10,0,0,1-7.29-2.58q-2.62-2.56-2.62-7.28c0-3.24.8-5.74,2.42-7.51a8.68,8.68,0,0,1,6.71-2.65,8.51,8.51,0,0,1,6.37,2.33,8.82,8.82,0,0,1,2.28,6.44v2.56H331.6a5.08,5.08,0,0,0,1.33,3.51,4.68,4.68,0,0,0,3.49,1.26,14.08,14.08,0,0,0,3.3-.37,16.52,16.52,0,0,0,3.25-1.15v4.07a12.35,12.35,0,0,1-3,1A18.88,18.88,0,0,1,336.18,320.58Zm-.74-16.27a3.33,3.33,0,0,0-2.63,1.06,4.92,4.92,0,0,0-1.09,3h7.39a4.4,4.4,0,0,0-1-3A3.46,3.46,0,0,0,335.44,304.31Z" transform="translate(0)"/><path class="cls-1" d="M359.11,300.56a8,8,0,0,1,1.78.16l-.4,4.94a5.74,5.74,0,0,0-1.55-.18,5.61,5.61,0,0,0-3.93,1.3,4.67,4.67,0,0,0-1.41,3.63v9.82h-5.26V300.92h4l.77,3.25h.26a7.36,7.36,0,0,1,2.43-2.62A6,6,0,0,1,359.11,300.56Z" transform="translate(0)"/><path class="cls-1" d="M372.34,306.33v-3.78h17.15v3.78Zm0,6.68v-3.78h17.15V313Z" transform="translate(0)"/><path class="cls-1" d="M401.58,310.54a26.15,26.15,0,0,1-1.34,8.47,20.3,20.3,0,0,1-3.86,6.82H392.1a25.32,25.32,0,0,0,3.61-7.13,26.46,26.46,0,0,0,1.27-8.19,27.35,27.35,0,0,0-1.24-8.2,24.87,24.87,0,0,0-3.68-7.33h4.32a21.4,21.4,0,0,1,3.87,7A27.13,27.13,0,0,1,401.58,310.54Z" transform="translate(0)"/><path class="cls-1" d="M722.65,1067.57h10v13.09a27.81,27.81,0,0,1-4.58,1.11,30.38,30.38,0,0,1-4.4.32q-5.71,0-8.73-3.36t-3-9.64q0-6.12,3.5-9.54t9.69-3.42a18.74,18.74,0,0,1,7.5,1.56l-1.78,4.28a12.71,12.71,0,0,0-5.75-1.38,7.1,7.1,0,0,0-5.56,2.33,9,9,0,0,0-2.09,6.27,10.1,10.1,0,0,0,1.68,6.28,5.85,5.85,0,0,0,4.9,2.17,17.37,17.37,0,0,0,3.4-.35V1072h-4.78Z" transform="translate(0)"/><path class="cls-1" d="M747,1082.09a10,10,0,0,1-7.29-2.57q-2.62-2.58-2.63-7.29,0-4.86,2.43-7.5a8.63,8.63,0,0,1,6.71-2.65,8.47,8.47,0,0,1,6.37,2.33,8.81,8.81,0,0,1,2.28,6.44v2.55H742.42a5.08,5.08,0,0,0,1.33,3.51,4.68,4.68,0,0,0,3.49,1.26,14.64,14.64,0,0,0,3.3-.36,16.51,16.51,0,0,0,3.24-1.16v4.08a12.11,12.11,0,0,1-2.95,1A18.25,18.25,0,0,1,747,1082.09Zm-.75-16.27a3.33,3.33,0,0,0-2.62,1.07,4.9,4.9,0,0,0-1.09,3h7.39a4.34,4.34,0,0,0-1-3A3.44,3.44,0,0,0,746.25,1065.82Z" transform="translate(0)"/><path class="cls-1" d="M777,1081.75h-5.27v-11.28q0-4.18-3.11-4.18a3.53,3.53,0,0,0-3.19,1.5,9.14,9.14,0,0,0-1,4.87v9.09h-5.27v-26.88h5.27v5.48c0,.42,0,1.43-.12,3l-.12,1.56h.28a6.08,6.08,0,0,1,5.59-2.83,6.82,6.82,0,0,1,5.16,1.83,7.25,7.25,0,0,1,1.77,5.25Z" transform="translate(0)"/><path class="cls-1" d="M790.53,1077.89a11.53,11.53,0,0,0,3.32-.6v3.92a11.83,11.83,0,0,1-4.84.88q-3.16,0-4.6-1.6a6.94,6.94,0,0,1-1.44-4.79v-9.31h-2.52v-2.22l2.9-1.77,1.52-4.07h3.36v4.11h5.41v4h-5.41v9.31a2.06,2.06,0,0,0,.63,1.66A2.5,2.5,0,0,0,790.53,1077.89Z" transform="translate(0)"/><path class="cls-1" d="M820.41,1076a5.32,5.32,0,0,1-2.07,4.53q-2.05,1.55-6.17,1.55a19.44,19.44,0,0,1-3.59-.28,13.43,13.43,0,0,1-2.78-.84v-4.35a18.31,18.31,0,0,0,3.31,1.15,13.37,13.37,0,0,0,3.23.47c1.91,0,2.87-.55,2.87-1.66a1.41,1.41,0,0,0-.38-1,5.48,5.48,0,0,0-1.31-.88c-.62-.33-1.45-.71-2.49-1.15a16.25,16.25,0,0,1-3.27-1.72,4.85,4.85,0,0,1-1.52-1.83,5.92,5.92,0,0,1-.48-2.53,4.6,4.6,0,0,1,2-4,9.76,9.76,0,0,1,5.65-1.4,16,16,0,0,1,6.79,1.52l-1.59,3.79a28.23,28.23,0,0,0-2.71-1,8.36,8.36,0,0,0-2.57-.4c-1.56,0-2.33.42-2.33,1.26a1.5,1.5,0,0,0,.75,1.23A21.27,21.27,0,0,0,815,1070a15.09,15.09,0,0,1,3.31,1.71,5.07,5.07,0,0,1,1.56,1.83A5.7,5.7,0,0,1,820.41,1076Z" transform="translate(0)"/><path class="cls-1" d="M842.06,1072.06a10.4,10.4,0,0,1-2.48,7.37,9,9,0,0,1-6.93,2.66,9.58,9.58,0,0,1-4.9-1.22,8.06,8.06,0,0,1-3.27-3.49,11.77,11.77,0,0,1-1.14-5.32c0-3.16.83-5.61,2.47-7.36a9.08,9.08,0,0,1,7-2.62,9.8,9.8,0,0,1,4.9,1.2,8.07,8.07,0,0,1,3.26,3.48A11.6,11.6,0,0,1,842.06,1072.06Zm-13.35,0a8.06,8.06,0,0,0,.95,4.33,3.34,3.34,0,0,0,3.06,1.47,3.31,3.31,0,0,0,3-1.46,8.16,8.16,0,0,0,.93-4.34,8,8,0,0,0-.94-4.3,3.95,3.95,0,0,0-6.09,0A8,8,0,0,0,828.71,1072.06Z" transform="translate(0)"/><path class="cls-1" d="M845.67,1079.28a2.91,2.91,0,0,1,.78-2.2,3.17,3.17,0,0,1,2.26-.74,3,3,0,0,1,2.22.76,2.87,2.87,0,0,1,.79,2.18,2.91,2.91,0,0,1-.8,2.15,3,3,0,0,1-2.21.78,3.06,3.06,0,0,1-2.24-.77A2.86,2.86,0,0,1,845.67,1079.28Z" transform="translate(0)"/><path d="M212.61,771.68h10v13.09a29.05,29.05,0,0,1-4.59,1.12,30.24,30.24,0,0,1-4.39.32q-5.72,0-8.73-3.36t-3-9.65q0-6.11,3.5-9.53t9.7-3.42a18.82,18.82,0,0,1,7.49,1.55l-1.78,4.29a12.69,12.69,0,0,0-5.75-1.39A7.1,7.1,0,0,0,209.5,767a9,9,0,0,0-2.09,6.27,10.05,10.05,0,0,0,1.69,6.27,5.8,5.8,0,0,0,4.89,2.17,17.47,17.47,0,0,0,3.41-.35v-5.26h-4.79Z" transform="translate(0)"/><path d="M240.48,785.86l-1-2.63h-.14a7.78,7.78,0,0,1-2.74,2.33,8.87,8.87,0,0,1-3.67.65,6,6,0,0,1-4.38-1.59,6.13,6.13,0,0,1-1.59-4.53,5.07,5.07,0,0,1,2.15-4.53q2.15-1.45,6.48-1.62l3.35-.1V773c0-2-1-2.93-3-2.93a13.53,13.53,0,0,0-5.44,1.4l-1.75-3.56a15.73,15.73,0,0,1,7.39-1.74,9.2,9.2,0,0,1,6,1.69,6.25,6.25,0,0,1,2.07,5.14v12.87Zm-1.55-9-2,.07a6.64,6.64,0,0,0-3.42.83,2.61,2.61,0,0,0-1.12,2.32c0,1.48.85,2.22,2.56,2.22a4,4,0,0,0,2.92-1.05,3.7,3.7,0,0,0,1.1-2.8Z" transform="translate(0)"/><path d="M267.41,785.86h-5.27V774.58a5.46,5.46,0,0,0-.74-3.13A2.71,2.71,0,0,0,259,770.4a3.56,3.56,0,0,0-3.19,1.48,9.12,9.12,0,0,0-1,4.9v9.08h-5.26V766.55h4l.71,2.47h.29a5.55,5.55,0,0,1,2.43-2.11,8.22,8.22,0,0,1,3.51-.72,6.75,6.75,0,0,1,5.11,1.82,7.3,7.3,0,0,1,1.75,5.26Z" transform="translate(0)"/><path d="M286.27,785.86H271v-3.11L280,770.58h-8.41v-4H286V770l-8.7,11.87h9Z" transform="translate(0)"/><path d="M316.81,776.17a10.39,10.39,0,0,1-2.48,7.38,9,9,0,0,1-6.93,2.66,9.68,9.68,0,0,1-4.9-1.22,8.09,8.09,0,0,1-3.27-3.5,11.88,11.88,0,0,1-1.13-5.32q0-4.73,2.46-7.35a9,9,0,0,1,6.95-2.63,9.68,9.68,0,0,1,4.9,1.21,8,8,0,0,1,3.27,3.47A11.79,11.79,0,0,1,316.81,776.17Zm-13.34,0a8.11,8.11,0,0,0,.94,4.34,3.35,3.35,0,0,0,3.06,1.46,3.3,3.3,0,0,0,3-1.45,8.23,8.23,0,0,0,.93-4.35,7.91,7.91,0,0,0-.94-4.3,4,4,0,0,0-6.09,0A8,8,0,0,0,303.47,776.17Z" transform="translate(0)"/><path d="M326.23,775.36l2.29-2.94,5.41-5.87h5.94l-7.67,8.38,8.14,10.93h-6.08L328.7,778l-2.27,1.81v6h-5.26V759h5.26v12l-.27,4.39Z" transform="translate(0)"/><path d="M355.36,785.86l-1-2.63h-.14a7.75,7.75,0,0,1-2.73,2.33,8.9,8.9,0,0,1-3.67.65,5.92,5.92,0,0,1-4.38-1.59,6.09,6.09,0,0,1-1.6-4.53,5.09,5.09,0,0,1,2.15-4.53c1.43-1,3.6-1.51,6.49-1.62l3.35-.1V773c0-2-1-2.93-3-2.93a13.61,13.61,0,0,0-5.44,1.4l-1.74-3.56a15.7,15.7,0,0,1,7.39-1.74,9.22,9.22,0,0,1,6,1.69A6.25,6.25,0,0,1,359,773v12.87Zm-1.55-9-2,.07a6.64,6.64,0,0,0-3.42.83,2.61,2.61,0,0,0-1.12,2.32q0,2.22,2.55,2.22a4.06,4.06,0,0,0,2.93-1.05,3.7,3.7,0,0,0,1.1-2.8Z" transform="translate(0)"/><path d="M361.7,766.55h5.77l3.64,10.87a15.35,15.35,0,0,1,.64,3.35h.1a15.31,15.31,0,0,1,.74-3.35l3.58-10.87h5.65l-8.17,21.78a9.43,9.43,0,0,1-3.21,4.52,8,8,0,0,1-4.86,1.51,11.88,11.88,0,0,1-2.67-.3v-4.18a8.93,8.93,0,0,0,2.07.23,3.73,3.73,0,0,0,2.44-.86,5.5,5.5,0,0,0,1.63-2.58l.32-.95Z" transform="translate(0)"/><path d="M383.84,783.39a2.9,2.9,0,0,1,.77-2.19,3.16,3.16,0,0,1,2.27-.75,3.11,3.11,0,0,1,2.22.76,2.92,2.92,0,0,1,.78,2.18,2.88,2.88,0,0,1-.79,2.15,3,3,0,0,1-2.21.79,3.12,3.12,0,0,1-2.25-.77A2.88,2.88,0,0,1,383.84,783.39Zm5.16-5.91h-4.21l-.88-16.87h6Z" transform="translate(0)"/><path class="cls-1" d="M1163.47,803.66h-6.8l-11-19.11h-.16c.22,3.38.33,5.78.33,7.22v11.89h-4.78V778.41h6.75l11,18.91h.13c-.18-3.28-.26-5.6-.26-7v-12h4.81Z" transform="translate(0)"/><path class="cls-1" d="M1169.19,779.36c0-1.72,1-2.58,2.87-2.58s2.86.86,2.86,2.58a2.52,2.52,0,0,1-.71,1.91,3,3,0,0,1-2.15.68C1170.15,782,1169.19,781.08,1169.19,779.36Zm5.49,24.3h-5.26V784.35h5.26Z" transform="translate(0)"/><path class="cls-1" d="M1188.05,804q-9,0-9-9.89c0-3.29.82-5.79,2.46-7.53s4-2.59,7-2.59a13.36,13.36,0,0,1,6,1.31l-1.56,4.07c-.83-.33-1.6-.6-2.31-.82a7.61,7.61,0,0,0-2.14-.32c-2.75,0-4.11,1.95-4.11,5.84s1.36,5.67,4.11,5.67a9.35,9.35,0,0,0,2.81-.41,10,10,0,0,0,2.59-1.27v4.51a8.54,8.54,0,0,1-2.58,1.12A14.4,14.4,0,0,1,1188.05,804Z" transform="translate(0)"/><path class="cls-1" d="M1216.22,803.66H1211V792.38q0-4.18-3.11-4.18a3.53,3.53,0,0,0-3.19,1.5,9.14,9.14,0,0,0-1,4.87v9.09h-5.27V776.78h5.27v5.48c0,.42,0,1.43-.12,3l-.12,1.56h.28a6.08,6.08,0,0,1,5.59-2.83,6.82,6.82,0,0,1,5.16,1.83,7.25,7.25,0,0,1,1.77,5.25Z" transform="translate(0)"/><path class="cls-1" d="M1229.77,799.8a11.53,11.53,0,0,0,3.32-.6v3.92a11.83,11.83,0,0,1-4.84.88q-3.16,0-4.6-1.6a6.94,6.94,0,0,1-1.44-4.79V788.3h-2.52v-2.23l2.9-1.76,1.52-4.07h3.36v4.11h5.41v3.95h-5.41v9.31a2.06,2.06,0,0,0,.63,1.66A2.5,2.5,0,0,0,1229.77,799.8Z" transform="translate(0)"/><path class="cls-1" d="M1259.65,797.92a5.32,5.32,0,0,1-2.07,4.53q-2.05,1.54-6.17,1.55a19.44,19.44,0,0,1-3.59-.28,13.43,13.43,0,0,1-2.78-.84v-4.35a18.31,18.31,0,0,0,3.31,1.15,13.37,13.37,0,0,0,3.23.47c1.91,0,2.87-.55,2.87-1.66a1.41,1.41,0,0,0-.38-1,5.48,5.48,0,0,0-1.31-.88c-.62-.33-1.45-.71-2.49-1.15a16.25,16.25,0,0,1-3.27-1.72,4.85,4.85,0,0,1-1.52-1.83,6,6,0,0,1-.48-2.53,4.6,4.6,0,0,1,2-4,9.69,9.69,0,0,1,5.65-1.4,16.09,16.09,0,0,1,6.79,1.51l-1.59,3.8a28.23,28.23,0,0,0-2.71-1,8.36,8.36,0,0,0-2.57-.4c-1.56,0-2.33.42-2.33,1.26a1.47,1.47,0,0,0,.75,1.22,20.08,20.08,0,0,0,3.29,1.54,15.09,15.09,0,0,1,3.31,1.71,5.07,5.07,0,0,1,1.56,1.83A5.7,5.7,0,0,1,1259.65,797.92Z" transform="translate(0)"/><path class="cls-1" d="M1281.3,794a10.4,10.4,0,0,1-2.48,7.37,9,9,0,0,1-6.93,2.66,9.68,9.68,0,0,1-4.9-1.22,8.06,8.06,0,0,1-3.27-3.49,11.77,11.77,0,0,1-1.14-5.32c0-3.16.83-5.61,2.47-7.36a9.08,9.08,0,0,1,7-2.62,9.8,9.8,0,0,1,4.9,1.2,8.07,8.07,0,0,1,3.26,3.48A11.6,11.6,0,0,1,1281.3,794ZM1268,794a8.06,8.06,0,0,0,1,4.33,3.34,3.34,0,0,0,3.06,1.47,3.31,3.31,0,0,0,3-1.46,8.16,8.16,0,0,0,.93-4.34,8,8,0,0,0-.94-4.3,3.95,3.95,0,0,0-6.09,0A8,8,0,0,0,1268,794Z" transform="translate(0)"/><path class="cls-1" d="M1284.91,801.19a2.91,2.91,0,0,1,.78-2.2,3.17,3.17,0,0,1,2.26-.74,3,3,0,0,1,2.22.76,3.35,3.35,0,0,1,0,4.33,3,3,0,0,1-2.21.78,3.11,3.11,0,0,1-2.24-.77A2.86,2.86,0,0,1,1284.91,801.19Z" transform="translate(0)"/><path class="cls-1" d="M1115.18,561.51a6.51,6.51,0,0,1-2.47,5.39,10.69,10.69,0,0,1-6.84,2,16.1,16.1,0,0,1-7.15-1.52v-5A29.23,29.23,0,0,0,1103,564a12.86,12.86,0,0,0,3.24.47,4.56,4.56,0,0,0,2.7-.68,2.29,2.29,0,0,0,1-2,2.21,2.21,0,0,0-.42-1.32,4.45,4.45,0,0,0-1.22-1.11,29.15,29.15,0,0,0-3.27-1.71,16,16,0,0,1-3.47-2.09,8,8,0,0,1-1.85-2.33,6.69,6.69,0,0,1-.69-3.11,6.54,6.54,0,0,1,2.27-5.27,9.45,9.45,0,0,1,6.28-1.92,15,15,0,0,1,3.76.47,26.13,26.13,0,0,1,3.73,1.31l-1.72,4.16a24.38,24.38,0,0,0-3.34-1.15,10.71,10.71,0,0,0-2.6-.33,3.38,3.38,0,0,0-2.33.71,2.48,2.48,0,0,0-.49,3.08,3.66,3.66,0,0,0,1,1A31,31,0,0,0,1109,554a13.51,13.51,0,0,1,4.85,3.39A6.62,6.62,0,0,1,1115.18,561.51Z" transform="translate(0)"/><path class="cls-1" d="M1127.18,568.87q-9,0-9-9.9,0-4.92,2.46-7.52t7-2.6a13.31,13.31,0,0,1,6,1.32l-1.55,4.07c-.83-.33-1.6-.61-2.31-.82a7.62,7.62,0,0,0-2.15-.32q-4.11,0-4.11,5.84,0,5.65,4.11,5.66a9.38,9.38,0,0,0,2.82-.4,10.34,10.34,0,0,0,2.59-1.27v4.5a8.33,8.33,0,0,1-2.58,1.13A15,15,0,0,1,1127.18,568.87Z" transform="translate(0)"/><path class="cls-1" d="M1155.34,568.52h-5.26V557.25q0-4.18-3.11-4.18a3.54,3.54,0,0,0-3.2,1.5,9.23,9.23,0,0,0-1,4.87v9.08h-5.27V541.65h5.27v5.48q0,.63-.12,3l-.12,1.56h.27a6.11,6.11,0,0,1,5.6-2.84,6.82,6.82,0,0,1,5.16,1.83,7.25,7.25,0,0,1,1.76,5.25Z" transform="translate(0)"/><path class="cls-1" d="M1166,568.52h-5.26V541.65H1166Z" transform="translate(0)"/><path class="cls-1" d="M1180.3,568.87a10,10,0,0,1-7.29-2.57q-2.62-2.58-2.63-7.29t2.43-7.51a8.68,8.68,0,0,1,6.71-2.65,8.51,8.51,0,0,1,6.37,2.33,8.85,8.85,0,0,1,2.28,6.45v2.55h-12.45a5.08,5.08,0,0,0,1.33,3.51,4.68,4.68,0,0,0,3.49,1.26,14.64,14.64,0,0,0,3.3-.36,16.94,16.94,0,0,0,3.24-1.16v4.07a12.13,12.13,0,0,1-2.95,1A18.19,18.19,0,0,1,1180.3,568.87Zm-.75-16.27a3.33,3.33,0,0,0-2.62,1.06,5,5,0,0,0-1.09,3h7.39a4.38,4.38,0,0,0-1-3A3.43,3.43,0,0,0,1179.55,552.6Z" transform="translate(0)"/><path class="cls-1" d="M1200.3,568.87q-9,0-9-9.9,0-4.92,2.45-7.52t7-2.6a13.31,13.31,0,0,1,6,1.32l-1.55,4.07c-.83-.33-1.6-.61-2.32-.82a7.5,7.5,0,0,0-2.14-.32q-4.11,0-4.11,5.84,0,5.65,4.11,5.66a9.47,9.47,0,0,0,2.82-.4,10.5,10.5,0,0,0,2.59-1.27v4.5a8.54,8.54,0,0,1-2.58,1.13A15,15,0,0,1,1200.3,568.87Z" transform="translate(0)"/><path class="cls-1" d="M1228.46,568.52h-5.27V557.25q0-4.18-3.1-4.18a3.54,3.54,0,0,0-3.2,1.5,9.13,9.13,0,0,0-1,4.87v9.08h-5.27V541.65h5.27v5.48q0,.63-.12,3l-.13,1.56h.28a6.11,6.11,0,0,1,5.6-2.84,6.84,6.84,0,0,1,5.16,1.83,7.29,7.29,0,0,1,1.76,5.25Z" transform="translate(0)"/><path class="cls-1" d="M1242,564.67a11.47,11.47,0,0,0,3.31-.6V568a11.91,11.91,0,0,1-4.83.88q-3.16,0-4.6-1.6a6.9,6.9,0,0,1-1.45-4.79v-9.31h-2.52v-2.23l2.9-1.76,1.52-4.07h3.37v4.11h5.41v3.95h-5.41v9.31a2.06,2.06,0,0,0,.63,1.66A2.53,2.53,0,0,0,1242,564.67Z" transform="translate(0)"/><path class="cls-1" d="M1257.18,554.62v-3.78h17.15v3.78Zm0,6.68v-3.78h17.15v3.78Z" transform="translate(0)"/><path class="cls-1" d="M1277.27,558.83a26.79,26.79,0,0,1,1.33-8.56,21.39,21.39,0,0,1,3.86-7h4.32a24.94,24.94,0,0,0-3.68,7.32,27.35,27.35,0,0,0-1.24,8.2,26.44,26.44,0,0,0,1.27,8.18,24.51,24.51,0,0,0,3.62,7.14h-4.29a20.25,20.25,0,0,1-3.86-6.86A26,26,0,0,1,1277.27,558.83Z" transform="translate(0)"/></svg>