<svg xmlns="http://www.w3.org/2000/svg" viewBox="0 0 1500 1500"><defs><style>.cls-1{fill:#fff;}.cls-2{fill:#cce70b;opacity:0.6;}.cls-3{fill:#ff0;}.cls-3,.cls-4{opacity:0.5;}.cls-4{fill:#ff8000;}.cls-5{fill:#f0047f;}.cls-5,.cls-6{opacity:0.4;}</style></defs><title>1_en</title><g id="Layer_4" data-name="Layer 4"><rect class="cls-1" width="1500" height="1500"/></g><g id="Layer_11_copy_2" data-name="Layer 11 copy 2"><polygon class="cls-2" points="85.86 287.85 510.75 181 417.61 739.59 85.86 287.85"/><polygon class="cls-3" points="676.37 513.42 340.64 373.68 12.45 758.45 344.41 1149.48 676.37 904.28 676.37 513.42"/><polygon class="cls-4" points="344.41 874.64 789.54 1460.1 1204.49 858.23 344.41 874.64"/><polygon class="cls-5" points="1279.95 1089.13 1479.88 657.23 1064.93 612.59 974.39 1346.75 1279.95 1089.13"/><polygon class="cls-6" points="1350.69 541.41 1267.89 287.85 1075.66 493.5 915.41 508.77 1340.81 777.54 1350.69 541.41"/><path class="cls-1" d="M223.9,323l-1.82-6h-9.17l-1.82,6h-5.74l8.87-25.24h6.52l8.9,25.24Zm-3.1-10.45q-2.52-8.13-2.84-9.2c-.21-.71-.36-1.27-.46-1.68q-.56,2.19-3.25,10.88Z" transform="translate(0)"/><path class="cls-1" d="M248.19,323l-1.48-6.72-2-8.49h-.12L241.09,323h-5.64L230,303.74h5.22l2.22,8.51c.35,1.52.72,3.63,1.08,6.31h.11a33,33,0,0,1,.6-4.14l.27-1.46,2.38-9.22h5.77l2.25,9.22c.05.25.12.62.22,1.11s.19,1,.28,1.58.18,1.1.25,1.63a11.22,11.22,0,0,1,.13,1.28h.1c.11-.83.29-2,.55-3.4s.46-2.41.57-2.91l2.31-8.51h5.14L253.9,323Z" transform="translate(0)"/><path class="cls-1" d="M271.23,323.31a10,10,0,0,1-7.26-2.57q-2.61-2.55-2.61-7.25t2.42-7.47a8.59,8.59,0,0,1,6.68-2.64,8.45,8.45,0,0,1,6.34,2.32,8.8,8.8,0,0,1,2.27,6.41v2.55h-12.4a5,5,0,0,0,1.33,3.49,4.67,4.67,0,0,0,3.47,1.25,14.4,14.4,0,0,0,3.28-.36,16.22,16.22,0,0,0,3.24-1.15V322a12.18,12.18,0,0,1-2.94,1A18.84,18.84,0,0,1,271.23,323.31Zm-.74-16.2a3.31,3.31,0,0,0-2.61,1.06,4.93,4.93,0,0,0-1.09,3h7.36a4.35,4.35,0,0,0-1-3A3.44,3.44,0,0,0,270.49,307.11Z" transform="translate(0)"/><path class="cls-1" d="M296.74,317.25a5.29,5.29,0,0,1-2.05,4.51q-2.06,1.55-6.15,1.55A19,19,0,0,1,285,323a14,14,0,0,1-2.77-.83v-4.33a18.87,18.87,0,0,0,3.29,1.15,13.3,13.3,0,0,0,3.22.46c1.91,0,2.86-.55,2.86-1.65a1.41,1.41,0,0,0-.38-1,5.83,5.83,0,0,0-1.31-.87c-.62-.33-1.44-.71-2.47-1.15a15.42,15.42,0,0,1-3.26-1.71,4.87,4.87,0,0,1-1.51-1.82,5.9,5.9,0,0,1-.48-2.52,4.58,4.58,0,0,1,2-4,9.69,9.69,0,0,1,5.63-1.4,16,16,0,0,1,6.76,1.51L295,308.67c-1-.41-1.87-.75-2.7-1a8.62,8.62,0,0,0-2.57-.4c-1.54,0-2.32.42-2.32,1.26a1.47,1.47,0,0,0,.75,1.22,21,21,0,0,0,3.28,1.53,15.73,15.73,0,0,1,3.3,1.7,5.06,5.06,0,0,1,1.54,1.82A5.51,5.51,0,0,1,296.74,317.25Z" transform="translate(0)"/><path class="cls-1" d="M318.3,313.32a10.33,10.33,0,0,1-2.47,7.34,9,9,0,0,1-6.9,2.65,9.63,9.63,0,0,1-4.88-1.22,8.05,8.05,0,0,1-3.25-3.48,11.64,11.64,0,0,1-1.13-5.29c0-3.14.82-5.59,2.45-7.33a9.05,9.05,0,0,1,6.92-2.61,9.73,9.73,0,0,1,4.88,1.2,8.12,8.12,0,0,1,3.25,3.46A11.67,11.67,0,0,1,318.3,313.32Zm-13.29,0a8.08,8.08,0,0,0,.94,4.31,3.33,3.33,0,0,0,3.05,1.46,3.29,3.29,0,0,0,3-1.45,8.21,8.21,0,0,0,.92-4.32A7.9,7.9,0,0,0,312,309a3.94,3.94,0,0,0-6.07,0A7.9,7.9,0,0,0,305,313.32Z" transform="translate(0)"/><path class="cls-1" d="M339.84,323H334.6V311.73a5.63,5.63,0,0,0-.7-3.12,2.44,2.44,0,0,0-2.19-1,3.19,3.19,0,0,0-2.92,1.48,9.7,9.7,0,0,0-.91,4.87v9h-5.24V303.74h4l.71,2.46h.29a5.33,5.33,0,0,1,2.23-2.07,7.26,7.26,0,0,1,3.36-.75q4.31,0,5.84,2.82h.47a5.11,5.11,0,0,1,2.27-2.08,7.68,7.68,0,0,1,3.4-.74,6.69,6.69,0,0,1,4.94,1.68q1.68,1.67,1.68,5.37V323h-5.26V311.73a5.72,5.72,0,0,0-.7-3.12,2.44,2.44,0,0,0-2.19-1A3.26,3.26,0,0,0,340.8,309a7.77,7.77,0,0,0-1,4.37Z" transform="translate(0)"/><path class="cls-1" d="M365.91,323.31a9.93,9.93,0,0,1-7.26-2.57q-2.61-2.55-2.61-7.25c0-3.22.8-5.71,2.42-7.47a8.58,8.58,0,0,1,6.67-2.64,8.46,8.46,0,0,1,6.35,2.32,8.8,8.8,0,0,1,2.27,6.41v2.55h-12.4a5,5,0,0,0,1.33,3.49,4.67,4.67,0,0,0,3.47,1.25,14.4,14.4,0,0,0,3.28-.36,16.14,16.14,0,0,0,3.23-1.15V322a11.89,11.89,0,0,1-2.94,1A18.67,18.67,0,0,1,365.91,323.31Zm-.74-16.2a3.31,3.31,0,0,0-2.61,1.06,4.86,4.86,0,0,0-1.09,3h7.36a4.35,4.35,0,0,0-1-3A3.44,3.44,0,0,0,365.17,307.11Z" transform="translate(0)"/><path class="cls-1" d="M376.77,309.12v-3.76h17.08v3.76Zm0,6.65V312h17.08v3.76Z" transform="translate(0)"/><path class="cls-1" d="M405.88,313.32a25.85,25.85,0,0,1-1.33,8.42,20.19,20.19,0,0,1-3.84,6.79h-4.27a24.53,24.53,0,0,0,3.59-7.09,26.28,26.28,0,0,0,1.28-8.16,27.41,27.41,0,0,0-1.24-8.16,25,25,0,0,0-3.66-7.29h4.3a21.24,21.24,0,0,1,3.85,7A26.9,26.9,0,0,1,405.88,313.32Z" transform="translate(0)"/><path class="cls-1" d="M736.35,1081.08l-1.83-6h-9.16l-1.82,6h-5.75l8.88-25.24h6.51l8.91,25.24Zm-3.1-10.46q-2.52-8.13-2.84-9.19c-.22-.71-.37-1.27-.46-1.69q-.57,2.21-3.25,10.88Z" transform="translate(0)"/><path class="cls-1" d="M750.08,1081.08h-5.24v-26.75h5.24Z" transform="translate(0)"/><path class="cls-1" d="M766.31,1061.5a8.71,8.71,0,0,1,1.77.15l-.39,4.92a5.82,5.82,0,0,0-1.55-.17,5.55,5.55,0,0,0-3.91,1.29,4.62,4.62,0,0,0-1.4,3.61v9.78h-5.25v-19.22h4l.78,3.23h.26a7.2,7.2,0,0,1,2.41-2.61A6,6,0,0,1,766.31,1061.5Z" transform="translate(0)"/><path class="cls-1" d="M771.35,1056.89c0-1.71.95-2.56,2.85-2.56s2.86.85,2.86,2.56a2.49,2.49,0,0,1-.72,1.9,3,3,0,0,1-2.14.68Q771.35,1059.47,771.35,1056.89Zm5.47,24.19h-5.25v-19.22h5.25Z" transform="translate(0)"/><path class="cls-1" d="M799.05,1061.86v2.66l-3,.78a5.23,5.23,0,0,1,.82,2.88,5.87,5.87,0,0,1-2.15,4.83,9.38,9.38,0,0,1-6,1.72l-.94,0-.78-.08a1.75,1.75,0,0,0-.8,1.37c0,.76,1,1.14,2.89,1.14h3.26a7.46,7.46,0,0,1,4.82,1.35,4.86,4.86,0,0,1,1.66,4,5.91,5.91,0,0,1-2.81,5.23q-2.81,1.86-8.07,1.86a11.24,11.24,0,0,1-6.15-1.4,4.47,4.47,0,0,1-2.12-3.93,4.13,4.13,0,0,1,1.08-2.91,6.27,6.27,0,0,1,3.18-1.67,3.54,3.54,0,0,1-1.41-1.12,2.69,2.69,0,0,1-.6-1.66,2.65,2.65,0,0,1,.64-1.83,7.27,7.27,0,0,1,1.84-1.44,5.09,5.09,0,0,1-2.4-2.1,6.36,6.36,0,0,1-.89-3.4,6,6,0,0,1,2-4.87,8.87,8.87,0,0,1,5.85-1.71,14.4,14.4,0,0,1,1.91.14c.74.1,1.21.17,1.42.22Zm-14.84,21.93a1.92,1.92,0,0,0,1,1.71,5.72,5.72,0,0,0,2.91.62,10.24,10.24,0,0,0,4.42-.78,2.35,2.35,0,0,0,1.6-2.11,1.5,1.5,0,0,0-.94-1.5,7.93,7.93,0,0,0-2.93-.41H787.6a4.07,4.07,0,0,0-2.42.68A2.08,2.08,0,0,0,784.21,1083.79Zm1.91-15.64a3.92,3.92,0,0,0,.71,2.47,2.6,2.6,0,0,0,2.18.92,2.53,2.53,0,0,0,2.16-.92,4,4,0,0,0,.69-2.47c0-2.32-1-3.47-2.85-3.47S786.12,1065.83,786.12,1068.15Z" transform="translate(0)"/><path class="cls-1" d="M820,1081.08h-5.24v-11.23q0-4.15-3.1-4.16a3.53,3.53,0,0,0-3.18,1.5,9.14,9.14,0,0,0-1,4.85v9h-5.24v-26.75h5.24v5.45c0,.42,0,1.42-.12,3l-.12,1.55h.28a6.07,6.07,0,0,1,5.57-2.82,6.79,6.79,0,0,1,5.14,1.82,7.23,7.23,0,0,1,1.75,5.22Z" transform="translate(0)"/><path class="cls-1" d="M833.45,1077.24a11.41,11.41,0,0,0,3.3-.6v3.9a11.69,11.69,0,0,1-4.82.88,5.9,5.9,0,0,1-4.58-1.59,7,7,0,0,1-1.43-4.77v-9.27h-2.51v-2.21l2.89-1.76,1.51-4h3.35v4.09h5.38v3.93h-5.38v9.27a2,2,0,0,0,.63,1.65A2.45,2.45,0,0,0,833.45,1077.24Z" transform="translate(0)"/><path d="M218.57,773.91a15.88,15.88,0,0,1-1.57,7.44,9.6,9.6,0,0,1-4.62,4.39l6.05,6.76h-6.82L207,786.86h-.39q-5.78,0-8.87-3.36t-3.1-9.62q0-6.28,3.1-9.59t8.9-3.31q5.79,0,8.86,3.34T218.57,773.91Zm-18.34,0q0,4.22,1.6,6.34a5.57,5.57,0,0,0,4.78,2.14q6.38,0,6.37-8.48t-6.34-8.49a5.63,5.63,0,0,0-4.8,2.14Q200.24,769.69,200.23,773.91Z" transform="translate(0)"/><path d="M237,786.51l-.71-2.46H236a5.5,5.5,0,0,1-2.39,2.07,8.16,8.16,0,0,1-3.53.74A6.72,6.72,0,0,1,225,785a7.33,7.33,0,0,1-1.71-5.22V767.29h5.24v11.23a5.42,5.42,0,0,0,.74,3.12,2.69,2.69,0,0,0,2.35,1,3.53,3.53,0,0,0,3.18-1.47,9.08,9.08,0,0,0,1-4.88v-9H241v19.22Z" transform="translate(0)"/><path d="M246.29,762.32c0-1.7,1-2.56,2.85-2.56s2.85.86,2.85,2.56a2.47,2.47,0,0,1-.71,1.9,3,3,0,0,1-2.14.68Q246.29,764.9,246.29,762.32Zm5.46,24.19h-5.24V767.29h5.24Z" transform="translate(0)"/><path d="M265.35,782.68a11.35,11.35,0,0,0,3.3-.6V786a11.81,11.81,0,0,1-4.81.88q-3.15,0-4.58-1.59a6.91,6.91,0,0,1-1.44-4.77v-9.27h-2.51V769l2.89-1.75,1.51-4.06h3.36v4.09h5.38v3.94h-5.38v9.27a2.05,2.05,0,0,0,.62,1.65A2.5,2.5,0,0,0,265.35,782.68Z" transform="translate(0)"/><path d="M281.24,786.86a9.93,9.93,0,0,1-7.26-2.57q-2.61-2.55-2.61-7.25c0-3.22.8-5.71,2.42-7.47a8.58,8.58,0,0,1,6.67-2.64,8.46,8.46,0,0,1,6.35,2.32,8.8,8.8,0,0,1,2.27,6.41v2.55h-12.4A5,5,0,0,0,278,781.7a4.63,4.63,0,0,0,3.47,1.25,14.4,14.4,0,0,0,3.28-.36,16.14,16.14,0,0,0,3.23-1.15v4.06a11.89,11.89,0,0,1-2.94,1A18.67,18.67,0,0,1,281.24,786.86Zm-.74-16.2a3.31,3.31,0,0,0-2.61,1.06,4.86,4.86,0,0,0-1.09,3h7.36a4.35,4.35,0,0,0-1-3A3.44,3.44,0,0,0,280.5,770.66Z" transform="translate(0)"/><path d="M319.22,767.29V770l-3,.77a5.24,5.24,0,0,1,.82,2.89,5.85,5.85,0,0,1-2.15,4.82,9.38,9.38,0,0,1-6,1.73l-.94,0-.78-.09a1.75,1.75,0,0,0-.8,1.38c0,.75,1,1.13,2.88,1.13h3.27a7.4,7.4,0,0,1,4.82,1.36,4.83,4.83,0,0,1,1.66,4,5.89,5.89,0,0,1-2.81,5.22q-2.81,1.86-8.07,1.86a11.24,11.24,0,0,1-6.15-1.4,4.46,4.46,0,0,1-2.12-3.93,4.1,4.1,0,0,1,1.08-2.9,6.19,6.19,0,0,1,3.18-1.67,3.66,3.66,0,0,1-1.41-1.13,2.76,2.76,0,0,1,0-3.49,7.26,7.26,0,0,1,1.84-1.43,5.2,5.2,0,0,1-2.4-2.1,6.39,6.39,0,0,1-.89-3.41,6,6,0,0,1,2.05-4.86,8.82,8.82,0,0,1,5.85-1.72,14.61,14.61,0,0,1,1.91.15c.74.09,1.21.17,1.42.21Zm-14.84,21.94a1.9,1.9,0,0,0,1,1.7,5.72,5.72,0,0,0,2.91.62,10.41,10.41,0,0,0,4.42-.77,2.37,2.37,0,0,0,1.6-2.12,1.48,1.48,0,0,0-.94-1.49,7.69,7.69,0,0,0-2.93-.42h-2.71a4.14,4.14,0,0,0-2.42.68A2.08,2.08,0,0,0,304.38,789.23Zm1.91-15.65a4,4,0,0,0,.71,2.48,2.59,2.59,0,0,0,2.18.91,2.53,2.53,0,0,0,2.16-.91,4,4,0,0,0,.69-2.48q0-3.47-2.85-3.47T306.29,773.58Z" transform="translate(0)"/><path d="M339.85,776.87a10.34,10.34,0,0,1-2.48,7.34,9,9,0,0,1-6.89,2.65,9.64,9.64,0,0,1-4.89-1.22,8,8,0,0,1-3.24-3.48,11.64,11.64,0,0,1-1.14-5.29q0-4.71,2.46-7.33a9,9,0,0,1,6.91-2.61,9.7,9.7,0,0,1,4.88,1.2,8.06,8.06,0,0,1,3.25,3.46A11.54,11.54,0,0,1,339.85,776.87Zm-13.29,0a8.09,8.09,0,0,0,.93,4.31,3.36,3.36,0,0,0,3.06,1.46,3.29,3.29,0,0,0,3-1.45,8.12,8.12,0,0,0,.92-4.32,7.9,7.9,0,0,0-.93-4.28,3.93,3.93,0,0,0-6.06,0A7.9,7.9,0,0,0,326.56,776.87Z" transform="translate(0)"/><path d="M361.65,776.87a10.34,10.34,0,0,1-2.48,7.34,9,9,0,0,1-6.89,2.65,9.64,9.64,0,0,1-4.89-1.22,7.92,7.92,0,0,1-3.24-3.48,11.64,11.64,0,0,1-1.14-5.29q0-4.71,2.46-7.33a9,9,0,0,1,6.91-2.61,9.7,9.7,0,0,1,4.88,1.2,8.06,8.06,0,0,1,3.25,3.46A11.54,11.54,0,0,1,361.65,776.87Zm-13.29,0a8.09,8.09,0,0,0,.93,4.31,3.36,3.36,0,0,0,3.06,1.46,3.29,3.29,0,0,0,3-1.45,8.12,8.12,0,0,0,.92-4.32,7.9,7.9,0,0,0-.93-4.28,3.93,3.93,0,0,0-6.06,0A7.9,7.9,0,0,0,348.36,776.87Z" transform="translate(0)"/><path d="M372.07,786.86a6.27,6.27,0,0,1-5.33-2.63,12.19,12.19,0,0,1-1.93-7.29c0-3.16.66-5.61,2-7.37a6.39,6.39,0,0,1,5.42-2.64,6.27,6.27,0,0,1,5.54,2.82h.17a21.69,21.69,0,0,1-.39-3.83v-6.16h5.26v26.75h-4l-1-2.49h-.22A6,6,0,0,1,372.07,786.86Zm1.83-4.18a3.54,3.54,0,0,0,3-1.17,6.77,6.77,0,0,0,1-4V777a7.8,7.8,0,0,0-1-4.43,3.52,3.52,0,0,0-3.1-1.35,3.09,3.09,0,0,0-2.73,1.49,8,8,0,0,0-1,4.32,7.55,7.55,0,0,0,1,4.26A3.2,3.2,0,0,0,373.9,782.68Z" transform="translate(0)"/><path d="M387.52,784.05a2.89,2.89,0,0,1,.77-2.18,3.17,3.17,0,0,1,2.26-.74,3,3,0,0,1,2.21.76,2.86,2.86,0,0,1,.78,2.16,2.89,2.89,0,0,1-.79,2.14,3,3,0,0,1-2.2.79,3.09,3.09,0,0,1-2.24-.77A2.85,2.85,0,0,1,387.52,784.05Zm5.14-5.88h-4.19l-.88-16.79h6Z" transform="translate(0)"/><path class="cls-1" d="M1151,804.23h-6.77l-10.94-19h-.15q.32,5,.32,7.19v11.83h-4.76V779.09h6.72l10.92,18.83h.12q-.26-4.9-.26-6.93v-11.9h4.8Z" transform="translate(0)"/><path class="cls-1" d="M1174.33,794.58a10.36,10.36,0,0,1-2.48,7.35,9,9,0,0,1-6.89,2.64,9.63,9.63,0,0,1-4.88-1.21,8.05,8.05,0,0,1-3.25-3.48,11.66,11.66,0,0,1-1.14-5.3q0-4.71,2.46-7.32a9,9,0,0,1,6.91-2.61,9.74,9.74,0,0,1,4.89,1.2,8,8,0,0,1,3.25,3.46A11.66,11.66,0,0,1,1174.33,794.58Zm-13.29,0a8,8,0,0,0,.94,4.32,3.35,3.35,0,0,0,3,1.46,3.3,3.3,0,0,0,3-1.45,8.23,8.23,0,0,0,.92-4.33,7.93,7.93,0,0,0-.93-4.28,4,4,0,0,0-6.07,0A7.94,7.94,0,0,0,1161,794.58Z" transform="translate(0)"/><path class="cls-1" d="M1186.76,800.39a11,11,0,0,0,3.3-.6v3.91a11.85,11.85,0,0,1-4.81.87q-3.15,0-4.58-1.59a6.91,6.91,0,0,1-1.44-4.77V789h-2.51v-2.22l2.89-1.76,1.51-4.05h3.35V785h5.39V789h-5.39v9.26a2,2,0,0,0,.63,1.65A2.45,2.45,0,0,0,1186.76,800.39Z" transform="translate(0)"/><path class="cls-1" d="M1219.82,785v2.66l-3,.78a5.24,5.24,0,0,1,.83,2.88,5.83,5.83,0,0,1-2.16,4.83,9.37,9.37,0,0,1-6,1.72l-1,0-.77-.08a1.74,1.74,0,0,0-.81,1.37c0,.76,1,1.14,2.89,1.14h3.27a7.42,7.42,0,0,1,4.82,1.36,4.85,4.85,0,0,1,1.66,4,5.93,5.93,0,0,1-2.81,5.23q-2.82,1.86-8.07,1.86a11.19,11.19,0,0,1-6.15-1.4,4.45,4.45,0,0,1-2.12-3.93,4.13,4.13,0,0,1,1.08-2.91,6.11,6.11,0,0,1,3.18-1.66,3.52,3.52,0,0,1-1.41-1.13,2.78,2.78,0,0,1,0-3.49,7.45,7.45,0,0,1,1.84-1.44,5.15,5.15,0,0,1-2.39-2.09,6.33,6.33,0,0,1-.89-3.41,6,6,0,0,1,2-4.86,8.81,8.81,0,0,1,5.84-1.72,16.33,16.33,0,0,1,1.92.14c.74.1,1.21.17,1.42.22ZM1205,807a1.91,1.91,0,0,0,1,1.7,5.79,5.79,0,0,0,2.92.62,10.27,10.27,0,0,0,4.42-.78,2.36,2.36,0,0,0,1.6-2.11,1.51,1.51,0,0,0-1-1.5,7.83,7.83,0,0,0-2.92-.41h-2.72a4.11,4.11,0,0,0-2.41.68A2.09,2.09,0,0,0,1205,807Zm1.91-15.65a3.91,3.91,0,0,0,.72,2.48,2.6,2.6,0,0,0,2.17.91,2.56,2.56,0,0,0,2.17-.91,4,4,0,0,0,.69-2.48c0-2.31-1-3.47-2.86-3.47S1206.89,789,1206.89,791.3Z" transform="translate(0)"/><path class="cls-1" d="M1233.71,784.65a8.71,8.71,0,0,1,1.77.15l-.39,4.92a5.82,5.82,0,0,0-1.55-.17,5.55,5.55,0,0,0-3.91,1.29,4.67,4.67,0,0,0-1.4,3.61v9.78H1223V785h4l.77,3.23h.26a7.09,7.09,0,0,1,2.41-2.6A6,6,0,0,1,1233.71,784.65Z" transform="translate(0)"/><path class="cls-1" d="M1247.67,804.57a9.9,9.9,0,0,1-7.25-2.56q-2.61-2.57-2.61-7.25c0-3.22.8-5.72,2.41-7.47a8.6,8.6,0,0,1,6.68-2.64,8.44,8.44,0,0,1,6.34,2.32,8.75,8.75,0,0,1,2.27,6.41v2.55h-12.39a5,5,0,0,0,1.32,3.49,4.68,4.68,0,0,0,3.47,1.25,14.49,14.49,0,0,0,3.29-.36,16.79,16.79,0,0,0,3.23-1.15v4.05a12.65,12.65,0,0,1-2.94,1A18.85,18.85,0,0,1,1247.67,804.57Zm-.74-16.19a3.31,3.31,0,0,0-2.61,1.06,4.86,4.86,0,0,0-1.08,3h7.36a4.36,4.36,0,0,0-1-3A3.41,3.41,0,0,0,1246.93,788.38Z" transform="translate(0)"/><path class="cls-1" d="M1272,804.23l-1-2.61h-.14a7.76,7.76,0,0,1-2.72,2.31,8.83,8.83,0,0,1-3.66.64,5.91,5.91,0,0,1-4.36-1.58,6.1,6.1,0,0,1-1.59-4.5,5.09,5.09,0,0,1,2.15-4.52,12.41,12.41,0,0,1,6.45-1.6l3.34-.11v-.84c0-1.95-1-2.92-3-2.92a13.58,13.58,0,0,0-5.42,1.39l-1.74-3.54a15.61,15.61,0,0,1,7.36-1.74,9.11,9.11,0,0,1,5.93,1.69,6.21,6.21,0,0,1,2.07,5.12v12.81Zm-1.54-8.91-2,.07a6.5,6.5,0,0,0-3.41.83,2.59,2.59,0,0,0-1.11,2.3c0,1.48.84,2.22,2.54,2.22a4,4,0,0,0,2.91-1,3.68,3.68,0,0,0,1.1-2.78Z" transform="translate(0)"/><path class="cls-1" d="M1289.14,800.39a11,11,0,0,0,3.3-.6v3.91a11.82,11.82,0,0,1-4.81.87q-3.15,0-4.58-1.59a6.91,6.91,0,0,1-1.44-4.77V789h-2.51v-2.22L1282,785l1.51-4.05h3.35V785h5.39V789h-5.39v9.26a2,2,0,0,0,.63,1.65A2.45,2.45,0,0,0,1289.14,800.39Z" transform="translate(0)"/><path class="cls-1" d="M1140.21,545H1148c3.57,0,6.15.51,7.76,1.52a5.31,5.31,0,0,1,2.42,4.84,6.09,6.09,0,0,1-1.06,3.7,4.19,4.19,0,0,1-2.81,1.73V557a5.56,5.56,0,0,1,3.45,2,6.52,6.52,0,0,1,1,3.89,6.38,6.38,0,0,1-2.48,5.36,10.77,10.77,0,0,1-6.75,1.93h-9.4Zm5.33,10h3.09a5.63,5.63,0,0,0,3.14-.67,2.47,2.47,0,0,0,1-2.21,2.22,2.22,0,0,0-1.06-2.08,6.89,6.89,0,0,0-3.34-.62h-2.8Zm0,4.23v6.55H1149a5.16,5.16,0,0,0,3.25-.84,3.1,3.1,0,0,0,1-2.58c0-2.08-1.49-3.13-4.47-3.13Z" transform="translate(0)"/><path class="cls-1" d="M1175.66,570.15l-1-2.62h-.13a7.78,7.78,0,0,1-2.73,2.31,8.77,8.77,0,0,1-3.65.65,5.92,5.92,0,0,1-4.36-1.58,6.09,6.09,0,0,1-1.59-4.51,5.06,5.06,0,0,1,2.14-4.51c1.43-1,3.58-1.5,6.46-1.61l3.33-.1v-.84c0-2-1-2.93-3-2.93a13.65,13.65,0,0,0-5.42,1.4l-1.73-3.54a15.58,15.58,0,0,1,7.36-1.74,9.19,9.19,0,0,1,5.93,1.68,6.25,6.25,0,0,1,2.06,5.13v12.81Zm-1.55-8.91-2,.07a6.47,6.47,0,0,0-3.4.82,2.6,2.6,0,0,0-1.12,2.31c0,1.48.85,2.21,2.55,2.21a4,4,0,0,0,2.91-1,3.68,3.68,0,0,0,1.09-2.79Z" transform="translate(0)"/><path class="cls-1" d="M1190.8,570.49a6.26,6.26,0,0,1-5.32-2.63,12.1,12.1,0,0,1-1.93-7.29q0-4.73,2-7.37a6.39,6.39,0,0,1,5.42-2.64,6.27,6.27,0,0,1,5.54,2.82h.17a21.78,21.78,0,0,1-.4-3.83v-6.16h5.27v26.76h-4l-1-2.5h-.23A6,6,0,0,1,1190.8,570.49Zm1.84-4.18a3.54,3.54,0,0,0,2.95-1.17,6.77,6.77,0,0,0,1-4v-.57a7.8,7.8,0,0,0-1-4.43,3.52,3.52,0,0,0-3.1-1.34,3.08,3.08,0,0,0-2.73,1.48,8,8,0,0,0-1,4.33,7.52,7.52,0,0,0,1,4.25A3.2,3.2,0,0,0,1192.64,566.31Z" transform="translate(0)"/><path class="cls-1" d="M1205.76,556.31v-3.77h17.07v3.77Zm0,6.65v-3.77h17.07V563Z" transform="translate(0)"/><path class="cls-1" d="M1225.76,560.5a26.61,26.61,0,0,1,1.33-8.53,21.31,21.31,0,0,1,3.84-7h4.3a24.48,24.48,0,0,0-3.66,7.29,27.16,27.16,0,0,0-1.24,8.17,26.53,26.53,0,0,0,1.26,8.14,25,25,0,0,0,3.61,7.11h-4.27a20.35,20.35,0,0,1-3.85-6.83A26,26,0,0,1,1225.76,560.5Z" transform="translate(0)"/></g></svg>