<svg id="Layer_2" data-name="Layer 2" xmlns="http://www.w3.org/2000/svg" viewBox="0 0 1457.49 884.83"><defs><style>.cls-1{fill:#ff0;}.cls-1,.cls-2,.cls-3{opacity:0.5;}.cls-2{fill:#38d7f2;}.cls-3{fill:#ff8000;}.cls-4{fill:#cce70b;opacity:0.6;}.cls-5{fill:#f0047f;opacity:0.3;}.cls-6{fill:none;stroke:#000;stroke-miterlimit:10;stroke-width:1.7px;}</style></defs><title>2beeinflusst</title><polygon class="cls-1" points="881.77 225.3 1003.07 422.13 755.76 531.73 601.96 369.23 654.36 153.9 881.77 225.3"/><path d="M1235.12,574.44V549.52h5.29v24.92Z" transform="translate(-26.29 -337.25)"/><path d="M1254,574.78q-8.9,0-8.9-9.77c0-3.23.81-5.71,2.42-7.42s3.93-2.56,6.94-2.56a13.28,13.28,0,0,1,5.93,1.29l-1.54,4c-.81-.32-1.58-.59-2.28-.81a7.33,7.33,0,0,0-2.11-.31q-4.07,0-4.06,5.76,0,5.6,4.06,5.59a9.2,9.2,0,0,0,2.78-.4,10.36,10.36,0,0,0,2.55-1.25v4.44a8.12,8.12,0,0,1-2.55,1.11A13.93,13.93,0,0,1,1254,574.78Z" transform="translate(-26.29 -337.25)"/><path d="M1281.8,574.44h-5.2V563.31q0-4.12-3.06-4.12a3.49,3.49,0,0,0-3.16,1.48,9.12,9.12,0,0,0-1,4.8v9h-5.2V547.92h5.2v5.4q0,.63-.12,3l-.12,1.53h.28A6,6,0,0,1,1275,555a6.74,6.74,0,0,1,5.09,1.8,7.18,7.18,0,0,1,1.74,5.18Z" transform="translate(-26.29 -337.25)"/><path d="M1306.82,555a6.14,6.14,0,0,1,5.28,2.63,12,12,0,0,1,1.91,7.22c0,3.14-.65,5.58-2,7.31a6.86,6.86,0,0,1-10.62.15h-.36l-.87,2.1h-4V547.92h5.2v6.17c0,.78-.07,2-.21,3.77h.21A6,6,0,0,1,1306.82,555Zm-1.67,4.16a3.28,3.28,0,0,0-2.81,1.18,6.78,6.78,0,0,0-.92,3.91v.56a8,8,0,0,0,.91,4.4,3.25,3.25,0,0,0,2.89,1.33,2.91,2.91,0,0,0,2.55-1.47,8,8,0,0,0,.94-4.29,7.62,7.62,0,0,0-1-4.22A3,3,0,0,0,1305.15,559.19Z" transform="translate(-26.29 -337.25)"/><path d="M1318.08,550.46c0-1.69,1-2.54,2.83-2.54s2.83.85,2.83,2.54a2.47,2.47,0,0,1-.7,1.88,3,3,0,0,1-2.13.68C1319,553,1318.08,552.16,1318.08,550.46Zm5.42,24h-5.19V555.39h5.19Z" transform="translate(-26.29 -337.25)"/><path d="M1346.54,574.44h-5.19V563.31a5.31,5.31,0,0,0-.74-3.09,2.65,2.65,0,0,0-2.33-1,3.49,3.49,0,0,0-3.15,1.45,9,9,0,0,0-1,4.83v9H1329V555.39h4l.7,2.43h.29a5.53,5.53,0,0,1,2.39-2.09,8.18,8.18,0,0,1,3.47-.7,6.64,6.64,0,0,1,5,1.8,7.17,7.17,0,0,1,1.72,5.18Z" transform="translate(-26.29 -337.25)"/><path d="M1378,574.44h-5.2V563.31a5.59,5.59,0,0,0-.69-3.09,2.41,2.41,0,0,0-2.17-1,3.15,3.15,0,0,0-2.9,1.46,9.66,9.66,0,0,0-.9,4.82v9H1361V555.39h4l.7,2.43h.29a5.26,5.26,0,0,1,2.22-2.05,7.09,7.09,0,0,1,3.32-.74q4.27,0,5.79,2.79h.46a5.26,5.26,0,0,1,2.26-2.06,7.55,7.55,0,0,1,3.37-.73,6.64,6.64,0,0,1,4.9,1.66q1.66,1.66,1.66,5.32v12.43h-5.22V563.31a5.59,5.59,0,0,0-.69-3.09,2.41,2.41,0,0,0-2.17-1,3.23,3.23,0,0,0-2.85,1.36,7.74,7.74,0,0,0-1,4.33Z" transform="translate(-26.29 -337.25)"/><path d="M1408.73,574.44,1408,572h-.27a5.47,5.47,0,0,1-2.37,2,8,8,0,0,1-3.49.73,6.63,6.63,0,0,1-5.06-1.8,7.21,7.21,0,0,1-1.71-5.17V555.39h5.2v11.12a5.35,5.35,0,0,0,.73,3.1,2.69,2.69,0,0,0,2.34,1,3.52,3.52,0,0,0,3.15-1.46,9,9,0,0,0,1-4.83v-9h5.2v19.05Zm-10.67-24a2.25,2.25,0,0,1,.64-1.7,2.8,2.8,0,0,1,3.5,0,2.26,2.26,0,0,1,.63,1.67,2.18,2.18,0,0,1-.64,1.65,2.47,2.47,0,0,1-1.76.62,2.43,2.43,0,0,1-1.73-.6A2.18,2.18,0,0,1,1398.06,550.49Zm6.87,0a2.1,2.1,0,0,1,.69-1.74,2.64,2.64,0,0,1,1.71-.56,2.5,2.5,0,0,1,1.77.62,2.21,2.21,0,0,1,.65,1.68,2.15,2.15,0,0,1-.66,1.66,2.48,2.48,0,0,1-1.76.61,2.64,2.64,0,0,1-1.71-.55A2.07,2.07,0,0,1,1404.93,550.49Z" transform="translate(-26.29 -337.25)"/><path d="M1424.21,574.78a6.2,6.2,0,0,1-5.28-2.61A12,12,0,0,1,1417,565c0-3.13.65-5.56,2-7.31a6.36,6.36,0,0,1,5.38-2.61,6.22,6.22,0,0,1,5.49,2.79h.17a21.29,21.29,0,0,1-.39-3.8v-6.1h5.21v26.52h-4l-1-2.47h-.22A6,6,0,0,1,1424.21,574.78Zm1.82-4.14a3.52,3.52,0,0,0,2.92-1.16,6.7,6.7,0,0,0,1-3.94V565a7.81,7.81,0,0,0-.94-4.4,3.54,3.54,0,0,0-3.08-1.33,3.06,3.06,0,0,0-2.7,1.48,7.87,7.87,0,0,0-1,4.28,7.44,7.44,0,0,0,1,4.22A3.17,3.17,0,0,0,1426,570.64Z" transform="translate(-26.29 -337.25)"/><path d="M1448.88,574.78a9.84,9.84,0,0,1-7.19-2.54q-2.6-2.54-2.59-7.19t2.39-7.41a8.55,8.55,0,0,1,6.62-2.61,8.36,8.36,0,0,1,6.29,2.3,8.69,8.69,0,0,1,2.25,6.35v2.53h-12.28a5,5,0,0,0,1.31,3.46,4.61,4.61,0,0,0,3.44,1.24,14.29,14.29,0,0,0,3.26-.36,16.72,16.72,0,0,0,3.2-1.14v4a11.88,11.88,0,0,1-2.92,1A18.43,18.43,0,0,1,1448.88,574.78Zm-.73-16a3.28,3.28,0,0,0-2.59,1,4.88,4.88,0,0,0-1.08,3h7.3a4.32,4.32,0,0,0-1-3A3.39,3.39,0,0,0,1448.15,558.73Z" transform="translate(-26.29 -337.25)"/><path d="M1460.15,572a2.86,2.86,0,0,1,.76-2.16,3.12,3.12,0,0,1,2.24-.74,3,3,0,0,1,2.19.75,2.88,2.88,0,0,1,.77,2.15,2.84,2.84,0,0,1-.78,2.12,3,3,0,0,1-2.18.78,3,3,0,0,1-2.22-.76A2.86,2.86,0,0,1,1460.15,572Z" transform="translate(-26.29 -337.25)"/><path d="M1139.73,432.07V407.15H1145v24.92Z" transform="translate(-26.29 -337.25)"/><path d="M1158.62,432.41q-8.89,0-8.9-9.77,0-4.86,2.42-7.42c1.61-1.71,3.93-2.57,6.94-2.57A13.28,13.28,0,0,1,1165,414l-1.54,4c-.81-.33-1.58-.6-2.28-.81a7.33,7.33,0,0,0-2.11-.31q-4.07,0-4.06,5.76c0,3.72,1.35,5.59,4.06,5.59a9.53,9.53,0,0,0,2.78-.4,10.06,10.06,0,0,0,2.55-1.26V431a8.12,8.12,0,0,1-2.55,1.11A14.5,14.5,0,0,1,1158.62,432.41Z" transform="translate(-26.29 -337.25)"/><path d="M1186.41,432.07h-5.2V420.94q0-4.12-3.06-4.13a3.5,3.5,0,0,0-3.16,1.49,9.1,9.1,0,0,0-1,4.8v9h-5.19V405.55H1174V411q0,.63-.12,3l-.12,1.53h.28a6,6,0,0,1,5.52-2.8,6.74,6.74,0,0,1,5.09,1.81,7.18,7.18,0,0,1,1.74,5.18Z" transform="translate(-26.29 -337.25)"/><path d="M1211.43,412.65a6.15,6.15,0,0,1,5.28,2.64,12,12,0,0,1,1.91,7.21c0,3.15-.65,5.59-2,7.32A6.86,6.86,0,0,1,1206,430h-.36l-.87,2.1h-4V405.55h5.2v6.17c0,.78-.07,2-.21,3.76h.21A6,6,0,0,1,1211.43,412.65Zm-1.67,4.16A3.28,3.28,0,0,0,1207,418a6.78,6.78,0,0,0-.92,3.91v.56a8,8,0,0,0,.91,4.4,3.27,3.27,0,0,0,2.89,1.33,2.89,2.89,0,0,0,2.55-1.48,8,8,0,0,0,.94-4.28,7.62,7.62,0,0,0-1-4.22A3,3,0,0,0,1209.76,416.81Z" transform="translate(-26.29 -337.25)"/><path d="M1222.69,408.09c0-1.7,1-2.54,2.83-2.54s2.83.84,2.83,2.54a2.48,2.48,0,0,1-.7,1.88,3,3,0,0,1-2.13.67C1223.64,410.64,1222.69,409.79,1222.69,408.09Zm5.42,24h-5.19V413h5.19Z" transform="translate(-26.29 -337.25)"/><path d="M1251.16,432.07H1246V420.94a5.35,5.35,0,0,0-.74-3.1,2.66,2.66,0,0,0-2.33-1,3.49,3.49,0,0,0-3.15,1.46,9,9,0,0,0-1,4.83v9h-5.2V413h4l.7,2.44h.29a5.46,5.46,0,0,1,2.39-2.09,8.18,8.18,0,0,1,3.47-.71,6.64,6.64,0,0,1,5,1.8,7.21,7.21,0,0,1,1.73,5.19Z" transform="translate(-26.29 -337.25)"/><path d="M1282.89,422.5a10.22,10.22,0,0,1-2.46,7.28,8.88,8.88,0,0,1-6.83,2.63,9.48,9.48,0,0,1-4.84-1.21,8,8,0,0,1-3.22-3.45,11.6,11.6,0,0,1-1.13-5.25,10.17,10.17,0,0,1,2.44-7.25,9,9,0,0,1,6.85-2.6,9.57,9.57,0,0,1,4.84,1.2,7.89,7.89,0,0,1,3.22,3.42A11.51,11.51,0,0,1,1282.89,422.5Zm-13.18,0a8,8,0,0,0,.93,4.28,3.32,3.32,0,0,0,3,1.45,3.28,3.28,0,0,0,3-1.44,8.1,8.1,0,0,0,.91-4.29,7.9,7.9,0,0,0-.92-4.24,3.93,3.93,0,0,0-6,0A7.91,7.91,0,0,0,1269.71,422.5Z" transform="translate(-26.29 -337.25)"/><path d="M1297.71,416.92h-4.5v15.15H1288V416.92h-2.87v-2.51L1288,413v-1.39q0-3.25,1.6-4.76t5.13-1.5a13.47,13.47,0,0,1,4.79.8l-1.33,3.82a9.71,9.71,0,0,0-2.9-.5,1.87,1.87,0,0,0-1.6.66,2.73,2.73,0,0,0-.5,1.68V413h4.5Z" transform="translate(-26.29 -337.25)"/><path d="M1308.72,428.27a11.29,11.29,0,0,0,3.28-.6v3.87a11.7,11.7,0,0,1-4.78.87,5.84,5.84,0,0,1-4.54-1.58,6.86,6.86,0,0,1-1.42-4.73v-9.18h-2.49v-2.2l2.86-1.74,1.5-4h3.33V413h5.33v3.91h-5.33v9.18a2,2,0,0,0,.62,1.64A2.45,2.45,0,0,0,1308.72,428.27Z" transform="translate(-26.29 -337.25)"/><path d="M1335.38,432.41a6.34,6.34,0,0,1-5.27-2.44h-.27q.27,2.38.27,2.76v7.72h-5.2V413h4.23l.73,2.47h.24a6,6,0,0,1,5.4-2.83,6.2,6.2,0,0,1,5.29,2.61,12.07,12.07,0,0,1,1.91,7.24,14.26,14.26,0,0,1-.9,5.31,7.49,7.49,0,0,1-2.55,3.42A6.53,6.53,0,0,1,1335.38,432.41Zm-1.54-15.6A3.28,3.28,0,0,0,1331,418a6.78,6.78,0,0,0-.92,3.91v.56a8.11,8.11,0,0,0,.91,4.4,3.27,3.27,0,0,0,2.89,1.33q3.49,0,3.5-5.76a8.15,8.15,0,0,0-.87-4.22A2.93,2.93,0,0,0,1333.84,416.81Z" transform="translate(-26.29 -337.25)"/><path d="M1359.1,432.07l-1-2.59H1358a7.83,7.83,0,0,1-2.7,2.29,8.88,8.88,0,0,1-3.63.64,5.91,5.91,0,0,1-4.32-1.57,6,6,0,0,1-1.57-4.47,5,5,0,0,1,2.12-4.47,12.27,12.27,0,0,1,6.4-1.59l3.31-.11v-.83c0-1.93-1-2.9-3-2.9a13.55,13.55,0,0,0-5.37,1.38l-1.72-3.51a15.43,15.43,0,0,1,7.29-1.72,9.09,9.09,0,0,1,5.88,1.67,6.16,6.16,0,0,1,2,5.08v12.7Zm-1.53-8.83-2,.07a6.38,6.38,0,0,0-3.37.81,2.57,2.57,0,0,0-1.11,2.29c0,1.46.84,2.2,2.52,2.2a4,4,0,0,0,2.89-1,3.68,3.68,0,0,0,1.09-2.76Z" transform="translate(-26.29 -337.25)"/><path d="M1381.37,426.41a5.25,5.25,0,0,1-2,4.46q-2,1.54-6.1,1.54a18.86,18.86,0,0,1-3.54-.29,13,13,0,0,1-2.74-.82V427a17.75,17.75,0,0,0,3.26,1.15,13.52,13.52,0,0,0,3.19.46c1.89,0,2.83-.55,2.83-1.64a1.37,1.37,0,0,0-.37-1,5.72,5.72,0,0,0-1.3-.87c-.61-.32-1.43-.7-2.45-1.13a15.36,15.36,0,0,1-3.23-1.7,4.86,4.86,0,0,1-1.5-1.8,6,6,0,0,1-.47-2.5,4.54,4.54,0,0,1,2-3.93,9.62,9.62,0,0,1,5.58-1.39,15.83,15.83,0,0,1,6.7,1.5l-1.57,3.75a27.63,27.63,0,0,0-2.68-1,8.35,8.35,0,0,0-2.53-.39c-1.54,0-2.31.41-2.31,1.24a1.45,1.45,0,0,0,.75,1.21,19.78,19.78,0,0,0,3.24,1.52,15,15,0,0,1,3.27,1.68,5,5,0,0,1,1.54,1.81A5.53,5.53,0,0,1,1381.37,426.41Z" transform="translate(-26.29 -337.25)"/><path d="M1398.72,426.41a5.23,5.23,0,0,1-2,4.46q-2,1.54-6.09,1.54a18.78,18.78,0,0,1-3.54-.29,13.31,13.31,0,0,1-2.75-.82V427a18.13,18.13,0,0,0,3.27,1.15,13.52,13.52,0,0,0,3.19.46c1.89,0,2.83-.55,2.83-1.64a1.37,1.37,0,0,0-.37-1,5.72,5.72,0,0,0-1.3-.87c-.61-.32-1.43-.7-2.45-1.13a15.36,15.36,0,0,1-3.23-1.7,4.86,4.86,0,0,1-1.5-1.8,6,6,0,0,1-.47-2.5,4.54,4.54,0,0,1,2-3.93,9.62,9.62,0,0,1,5.58-1.39,15.87,15.87,0,0,1,6.7,1.5L1397,417.9a27.63,27.63,0,0,0-2.68-1,8.42,8.42,0,0,0-2.54-.39c-1.53,0-2.3.41-2.3,1.24a1.46,1.46,0,0,0,.74,1.21,20.48,20.48,0,0,0,3.25,1.52,15,15,0,0,1,3.27,1.68,5,5,0,0,1,1.54,1.81A5.53,5.53,0,0,1,1398.72,426.41Z" transform="translate(-26.29 -337.25)"/><path d="M1402.56,408.09c0-1.7.94-2.54,2.82-2.54s2.83.84,2.83,2.54a2.48,2.48,0,0,1-.7,1.88,3,3,0,0,1-2.13.67Q1402.56,410.64,1402.56,408.09Zm5.42,24h-5.2V413h5.2Z" transform="translate(-26.29 -337.25)"/><path d="M1418,432.07,1410.7,413h5.44l3.68,10.86a19.74,19.74,0,0,1,.77,3.9h.1a16.85,16.85,0,0,1,.77-3.9l3.66-10.86h5.44l-7.26,19.06Z" transform="translate(-26.29 -337.25)"/><path d="M1432.55,429.63a2.87,2.87,0,0,1,.77-2.17,3.13,3.13,0,0,1,2.23-.73,3,3,0,0,1,2.19.75,3.33,3.33,0,0,1,0,4.27,3,3,0,0,1-2.18.78,3.1,3.1,0,0,1-2.22-.76A2.86,2.86,0,0,1,1432.55,429.63Z" transform="translate(-26.29 -337.25)"/><path d="M116.94,424.61V399.7h5.28v24.91Z" transform="translate(-26.29 -337.25)"/><path d="M135.82,425q-8.9,0-8.9-9.77,0-4.86,2.42-7.42a9.1,9.1,0,0,1,6.94-2.57,13.28,13.28,0,0,1,5.93,1.3l-1.53,4c-.82-.33-1.58-.6-2.29-.81a7.33,7.33,0,0,0-2.11-.31q-4.07,0-4.06,5.76c0,3.72,1.35,5.59,4.06,5.59a9.53,9.53,0,0,0,2.78-.4,10.06,10.06,0,0,0,2.55-1.26v4.45a8.66,8.66,0,0,1-2.54,1.11A14.66,14.66,0,0,1,135.82,425Z" transform="translate(-26.29 -337.25)"/><path d="M163.61,424.61h-5.19V413.49c0-2.75-1-4.13-3.07-4.13a3.49,3.49,0,0,0-3.15,1.48,9,9,0,0,0-1,4.81v9H146V398.1h5.19v5.4c0,.42,0,1.41-.11,3L151,408h.27a6,6,0,0,1,5.52-2.8,6.78,6.78,0,0,1,5.1,1.81,7.2,7.2,0,0,1,1.73,5.18Z" transform="translate(-26.29 -337.25)"/><path d="M188.56,409.46h-4.5v15.15h-5.19V409.46H176V407l2.87-1.4v-1.4q0-3.26,1.6-4.75t5.13-1.5a13.47,13.47,0,0,1,4.79.8l-1.33,3.82a9.71,9.71,0,0,0-2.9-.5,1.87,1.87,0,0,0-1.6.66,2.73,2.73,0,0,0-.5,1.68v1.19h4.5Z" transform="translate(-26.29 -337.25)"/><path d="M205,424.61l-.7-2.43h-.27a5.42,5.42,0,0,1-2.37,2.05,8.09,8.09,0,0,1-3.49.73,6.63,6.63,0,0,1-5.06-1.8,7.24,7.24,0,0,1-1.71-5.18V405.56h5.2v11.13a5.4,5.4,0,0,0,.73,3.09,2.67,2.67,0,0,0,2.34,1,3.51,3.51,0,0,0,3.15-1.45,9,9,0,0,0,1-4.83v-9H209v19.05Zm-10.66-23.94A2.21,2.21,0,0,1,195,399a2.8,2.8,0,0,1,3.5,0,2.27,2.27,0,0,1,.64,1.67,2.17,2.17,0,0,1-.65,1.64,2.42,2.42,0,0,1-1.76.63,2.44,2.44,0,0,1-1.73-.6A2.19,2.19,0,0,1,194.38,400.67Zm6.86,0a2.12,2.12,0,0,1,.69-1.75,2.65,2.65,0,0,1,1.72-.55,2.48,2.48,0,0,1,1.76.61,2.19,2.19,0,0,1,.66,1.69,2.15,2.15,0,0,1-.67,1.65,2.48,2.48,0,0,1-1.75.62,2.65,2.65,0,0,1-1.72-.56A2.06,2.06,0,0,1,201.24,400.67Z" transform="translate(-26.29 -337.25)"/><path d="M232.07,424.61h-5.2V413.49q0-4.12-3.06-4.13a3.51,3.51,0,0,0-3.16,1.48,9.14,9.14,0,0,0-1,4.81v9h-5.2V398.1h5.2v5.4c0,.42,0,1.41-.12,3l-.12,1.54h.28a6,6,0,0,1,5.52-2.8,6.75,6.75,0,0,1,5.09,1.81,7.16,7.16,0,0,1,1.74,5.18Z" transform="translate(-26.29 -337.25)"/><path d="M242.62,424.61h-5.2V398.1h5.2Z" transform="translate(-26.29 -337.25)"/><path d="M256.7,425a9.83,9.83,0,0,1-7.19-2.54c-1.73-1.7-2.59-4.09-2.59-7.2s.79-5.66,2.39-7.4a8.54,8.54,0,0,1,6.62-2.62,8.41,8.41,0,0,1,6.29,2.3,8.73,8.73,0,0,1,2.25,6.36v2.52H252.18a5.05,5.05,0,0,0,1.31,3.46,4.63,4.63,0,0,0,3.45,1.25,14.2,14.2,0,0,0,3.25-.36,16.8,16.8,0,0,0,3.21-1.14v4a12.45,12.45,0,0,1-2.92,1A18.35,18.35,0,0,1,256.7,425ZM256,408.9a3.3,3.3,0,0,0-2.59,1.05,4.87,4.87,0,0,0-1.07,3h7.29a4.3,4.3,0,0,0-1-3A3.41,3.41,0,0,0,256,408.9Z" transform="translate(-26.29 -337.25)"/><path d="M294.82,424.61h-5.2V413.49a5.63,5.63,0,0,0-.69-3.1,2.44,2.44,0,0,0-2.17-1,3.15,3.15,0,0,0-2.9,1.47,9.61,9.61,0,0,0-.9,4.82v9h-5.2V405.56h4l.7,2.44h.29a5.28,5.28,0,0,1,2.22-2.06,7.22,7.22,0,0,1,3.32-.74c2.85,0,4.78.94,5.79,2.8h.46a5.09,5.09,0,0,1,2.26-2.06,7.55,7.55,0,0,1,3.37-.74,6.64,6.64,0,0,1,4.9,1.67c1.1,1.1,1.66,2.88,1.66,5.32v12.42h-5.22V413.49a5.63,5.63,0,0,0-.69-3.1,2.44,2.44,0,0,0-2.17-1,3.24,3.24,0,0,0-2.85,1.37,7.7,7.7,0,0,0-.95,4.32Z" transform="translate(-26.29 -337.25)"/><path d="M311.81,400.64c0-1.7.94-2.54,2.83-2.54s2.83.84,2.83,2.54a2.49,2.49,0,0,1-.71,1.88,3,3,0,0,1-2.12.67C312.75,403.19,311.81,402.34,311.81,400.64Zm5.42,24H312V405.56h5.2Z" transform="translate(-26.29 -337.25)"/><path d="M330.42,425q-8.9,0-8.89-9.77c0-3.24.8-5.71,2.42-7.42s3.92-2.57,6.93-2.57a13.25,13.25,0,0,1,5.93,1.3l-1.53,4c-.82-.33-1.58-.6-2.29-.81a7.29,7.29,0,0,0-2.11-.31q-4,0-4.05,5.76c0,3.72,1.35,5.59,4.05,5.59a9.48,9.48,0,0,0,2.78-.4,10.29,10.29,0,0,0,2.56-1.26v4.45a8.72,8.72,0,0,1-2.55,1.11A14.6,14.6,0,0,1,330.42,425Z" transform="translate(-26.29 -337.25)"/><path d="M358.22,424.61H353V413.49q0-4.12-3.07-4.13a3.51,3.51,0,0,0-3.15,1.48,9,9,0,0,0-1,4.81v9h-5.2V398.1h5.2v5.4c0,.42,0,1.41-.12,3l-.12,1.54h.27a6,6,0,0,1,5.52-2.8,6.78,6.78,0,0,1,5.1,1.81,7.16,7.16,0,0,1,1.74,5.18Z" transform="translate(-26.29 -337.25)"/><path d="M388.3,424.61,386.83,418l-2-8.42h-.12l-3.47,15.08h-5.59l-5.42-19.05h5.18l2.2,8.44q.53,2.26,1.07,6.25h.1a37.1,37.1,0,0,1,.6-4.11l.27-1.44,2.35-9.14h5.73L390,414.7c0,.25.12.62.22,1.1s.19,1,.28,1.56.17,1.09.24,1.62a11.09,11.09,0,0,1,.13,1.27h.1c.11-.82.29-1.94.55-3.36s.45-2.39.56-2.89l2.29-8.44h5.09L394,424.61Z" transform="translate(-26.29 -337.25)"/><path d="M419.82,415.05a10.21,10.21,0,0,1-2.45,7.28,8.9,8.9,0,0,1-6.83,2.63,9.55,9.55,0,0,1-4.84-1.21,8,8,0,0,1-3.23-3.45,11.73,11.73,0,0,1-1.12-5.25q0-4.67,2.44-7.26a9,9,0,0,1,6.85-2.59,9.57,9.57,0,0,1,4.84,1.2,7.89,7.89,0,0,1,3.22,3.42A11.48,11.48,0,0,1,419.82,415.05Zm-13.17,0a8,8,0,0,0,.93,4.28,3.31,3.31,0,0,0,3,1.45,3.25,3.25,0,0,0,3-1.44,8.09,8.09,0,0,0,.92-4.29,7.9,7.9,0,0,0-.92-4.24,3.34,3.34,0,0,0-3-1.41,3.3,3.3,0,0,0-3,1.4A7.91,7.91,0,0,0,406.65,415.05Z" transform="translate(-26.29 -337.25)"/><path d="M441.71,424.61h-5.2V413.49q0-4.12-3.07-4.13a3.51,3.51,0,0,0-3.15,1.48,9,9,0,0,0-1,4.81v9h-5.2V398.1h5.2v5.4c0,.42,0,1.41-.12,3l-.12,1.54h.27a6,6,0,0,1,5.52-2.8A6.78,6.78,0,0,1,440,407a7.16,7.16,0,0,1,1.74,5.18Z" transform="translate(-26.29 -337.25)"/><path d="M452.25,424.61h-5.19V398.1h5.19Z" transform="translate(-26.29 -337.25)"/><path d="M457,422.18a2.87,2.87,0,0,1,.76-2.17,3.11,3.11,0,0,1,2.23-.73,3,3,0,0,1,2.19.75,3.31,3.31,0,0,1,0,4.27,3,3,0,0,1-2.19.77,3.07,3.07,0,0,1-2.21-.75A2.86,2.86,0,0,1,457,422.18Z" transform="translate(-26.29 -337.25)"/><path d="M165.26,598.91V574h5.28v24.92Z" transform="translate(-26.29 -337.25)"/><path d="M184.14,599.25q-8.89,0-8.89-9.76c0-3.24.8-5.72,2.42-7.43s3.92-2.56,6.93-2.56a13.25,13.25,0,0,1,5.93,1.29l-1.53,4q-1.23-.5-2.28-.81a7.42,7.42,0,0,0-2.12-.32q-4,0-4,5.76,0,5.59,4,5.59a9.16,9.16,0,0,0,2.78-.4,10.24,10.24,0,0,0,2.56-1.25v4.45a8.32,8.32,0,0,1-2.55,1.1A14,14,0,0,1,184.14,599.25Z" transform="translate(-26.29 -337.25)"/><path d="M211.94,598.91h-5.2V587.78q0-4.12-3.07-4.12a3.49,3.49,0,0,0-3.15,1.48,9,9,0,0,0-1,4.81v9h-5.2V572.39h5.2v5.41c0,.42,0,1.4-.12,3l-.12,1.53h.27a6,6,0,0,1,5.52-2.79,6.74,6.74,0,0,1,5.1,1.81,7.16,7.16,0,0,1,1.74,5.18Z" transform="translate(-26.29 -337.25)"/><path d="M237,579.5a6.16,6.16,0,0,1,5.28,2.63,12.11,12.11,0,0,1,1.91,7.22c0,3.15-.66,5.58-2,7.31a6.88,6.88,0,0,1-10.63.15h-.35l-.87,2.1h-4V572.39h5.19v6.17c0,.79-.06,2-.2,3.77h.2A6,6,0,0,1,237,579.5Zm-1.67,4.16a3.29,3.29,0,0,0-2.82,1.18,6.88,6.88,0,0,0-.92,3.91v.57a8,8,0,0,0,.92,4.39,3.23,3.23,0,0,0,2.88,1.33,2.9,2.9,0,0,0,2.55-1.47,8,8,0,0,0,.95-4.29,7.55,7.55,0,0,0-1-4.22A3,3,0,0,0,235.29,583.66Z" transform="translate(-26.29 -337.25)"/><path d="M248.22,574.93c0-1.69.94-2.54,2.83-2.54s2.83.85,2.83,2.54a2.5,2.5,0,0,1-.71,1.89,3,3,0,0,1-2.12.67C249.16,577.49,248.22,576.64,248.22,574.93Zm5.42,24h-5.2v-19h5.2Z" transform="translate(-26.29 -337.25)"/><path d="M276.68,598.91h-5.2V587.78a5.34,5.34,0,0,0-.73-3.09,2.66,2.66,0,0,0-2.33-1,3.52,3.52,0,0,0-3.16,1.45,9.17,9.17,0,0,0-1,4.84v9h-5.2v-19h4l.7,2.43h.29a5.47,5.47,0,0,1,2.4-2.08,8.15,8.15,0,0,1,3.47-.71,6.66,6.66,0,0,1,5,1.8,7.21,7.21,0,0,1,1.72,5.19Z" transform="translate(-26.29 -337.25)"/><path d="M303.2,598.91l-1-2.59h-.13a7.72,7.72,0,0,1-2.7,2.29,8.72,8.72,0,0,1-3.63.64,5.83,5.83,0,0,1-4.32-1.57,6,6,0,0,1-1.57-4.46,5,5,0,0,1,2.12-4.48,12.27,12.27,0,0,1,6.4-1.59l3.3-.1v-.84c0-1.93-1-2.89-3-2.89a13.55,13.55,0,0,0-5.37,1.38l-1.72-3.51a15.43,15.43,0,0,1,7.29-1.72,9,9,0,0,1,5.88,1.67,6.14,6.14,0,0,1,2.05,5.07v12.7Zm-1.54-8.83-2,.07a6.47,6.47,0,0,0-3.37.82,2.56,2.56,0,0,0-1.11,2.28c0,1.47.84,2.2,2.52,2.2a4,4,0,0,0,2.89-1,3.65,3.65,0,0,0,1.08-2.76Z" transform="translate(-26.29 -337.25)"/><path d="M317.17,588.55l2.27-2.9,5.33-5.79h5.87l-7.57,8.26,8,10.79h-6l-5.49-7.72L317.38,593v5.93h-5.2V572.39h5.2v11.83l-.28,4.33Z" transform="translate(-26.29 -337.25)"/><path d="M341.85,595.11a11.18,11.18,0,0,0,3.27-.6v3.87a11.62,11.62,0,0,1-4.77.87c-2.08,0-3.59-.52-4.54-1.58a6.83,6.83,0,0,1-1.42-4.72v-9.19H331.9v-2.2l2.86-1.74,1.5-4h3.32v4.06h5.34v3.9h-5.34V593a2,2,0,0,0,.63,1.63A2.45,2.45,0,0,0,341.85,595.11Z" transform="translate(-26.29 -337.25)"/><path d="M348.75,574.93c0-1.69.94-2.54,2.83-2.54s2.83.85,2.83,2.54a2.5,2.5,0,0,1-.71,1.89,3,3,0,0,1-2.12.67C349.69,577.49,348.75,576.64,348.75,574.93Zm5.42,24H349v-19h5.2Z" transform="translate(-26.29 -337.25)"/><path d="M364.16,598.91l-7.26-19h5.43L366,590.71a19.91,19.91,0,0,1,.76,3.91h.1a17.36,17.36,0,0,1,.77-3.91l3.67-10.85h5.43l-7.26,19Z" transform="translate(-26.29 -337.25)"/><path d="M378.75,596.47a2.86,2.86,0,0,1,.76-2.16,3.12,3.12,0,0,1,2.24-.73,3,3,0,0,1,2.19.75,3.31,3.31,0,0,1,0,4.26,3,3,0,0,1-2.18.78,3,3,0,0,1-2.22-.76A2.84,2.84,0,0,1,378.75,596.47Z" transform="translate(-26.29 -337.25)"/><path d="M26.29,851.41V826.49h5.29v24.92Z" transform="translate(-26.29 -337.25)"/><path d="M45.17,851.75q-8.89,0-8.89-9.77c0-3.23.8-5.71,2.42-7.42S42.62,832,45.63,832a13.22,13.22,0,0,1,5.93,1.29l-1.53,4q-1.23-.48-2.28-.81a7.4,7.4,0,0,0-2.12-.31q-4.05,0-4.05,5.76,0,5.59,4.05,5.59a9.16,9.16,0,0,0,2.78-.4A10.07,10.07,0,0,0,51,845.89v4.44a8.12,8.12,0,0,1-2.55,1.11A14,14,0,0,1,45.17,851.75Z" transform="translate(-26.29 -337.25)"/><path d="M73,851.41h-5.2V840.28q0-4.12-3.07-4.12a3.49,3.49,0,0,0-3.15,1.48,9,9,0,0,0-1,4.8v9h-5.2V824.89h5.2v5.4q0,.63-.12,3l-.12,1.53h.27A6,6,0,0,1,66.14,832a6.77,6.77,0,0,1,5.09,1.8A7.19,7.19,0,0,1,73,839Z" transform="translate(-26.29 -337.25)"/><path d="M98,832a6.16,6.16,0,0,1,5.28,2.63,12.11,12.11,0,0,1,1.91,7.22c0,3.15-.66,5.58-2,7.31a6.88,6.88,0,0,1-10.63.15h-.35l-.87,2.1h-4V824.89h5.19v6.17c0,.78-.06,2-.2,3.77h.2A6,6,0,0,1,98,832Zm-1.67,4.16a3.27,3.27,0,0,0-2.81,1.18,6.77,6.77,0,0,0-.93,3.91v.56a8,8,0,0,0,.92,4.4,3.24,3.24,0,0,0,2.89,1.33,2.9,2.9,0,0,0,2.54-1.47,8,8,0,0,0,.95-4.29,7.55,7.55,0,0,0-1-4.22A3,3,0,0,0,96.32,836.16Z" transform="translate(-26.29 -337.25)"/><path d="M109.25,827.43c0-1.69,1-2.54,2.83-2.54s2.83.85,2.83,2.54a2.47,2.47,0,0,1-.71,1.88,3,3,0,0,1-2.12.68C110.2,830,109.25,829.13,109.25,827.43Zm5.42,24h-5.2v-19h5.2Z" transform="translate(-26.29 -337.25)"/><path d="M137.71,851.41h-5.2V840.28a5.32,5.32,0,0,0-.73-3.09,2.66,2.66,0,0,0-2.33-1,3.52,3.52,0,0,0-3.16,1.45,9.1,9.1,0,0,0-1,4.83v9h-5.2v-19h4l.69,2.43h.29a5.47,5.47,0,0,1,2.4-2.08A8,8,0,0,1,131,832a6.69,6.69,0,0,1,5,1.79,7.21,7.21,0,0,1,1.72,5.19Z" transform="translate(-26.29 -337.25)"/><path d="M167.79,851.41l-1.46-6.66-2-8.42h-.12l-3.48,15.08h-5.59l-5.42-19h5.18l2.2,8.43c.36,1.51.71,3.6,1.08,6.26h.1a32.26,32.26,0,0,1,.6-4.11l.27-1.45,2.35-9.13h5.73l2.23,9.13c0,.25.12.62.21,1.11s.19,1,.28,1.56.18,1.09.25,1.62.12,1,.13,1.27h.1c.1-.82.28-1.94.55-3.37s.44-2.39.56-2.89l2.28-8.43h5.1l-5.49,19Z" transform="translate(-26.29 -337.25)"/><path d="M195.5,851.41l-.7-2.44h-.27a5.47,5.47,0,0,1-2.37,2,8,8,0,0,1-3.49.73,6.63,6.63,0,0,1-5.06-1.8,7.21,7.21,0,0,1-1.71-5.17V832.36h5.2v11.12a5.35,5.35,0,0,0,.73,3.1,2.69,2.69,0,0,0,2.34,1,3.52,3.52,0,0,0,3.15-1.46,9,9,0,0,0,1-4.83v-9h5.2v19Zm-10.67-23.95a2.25,2.25,0,0,1,.64-1.7,2.8,2.8,0,0,1,3.5,0,2.27,2.27,0,0,1,.64,1.67,2.19,2.19,0,0,1-.65,1.65,2.8,2.8,0,0,1-3.49,0A2.18,2.18,0,0,1,184.83,827.46Zm6.87,0a2.1,2.1,0,0,1,.69-1.74,2.64,2.64,0,0,1,1.71-.56,2.5,2.5,0,0,1,1.77.62,2.18,2.18,0,0,1,.65,1.68,2.15,2.15,0,0,1-.66,1.66,2.48,2.48,0,0,1-1.76.61,2.64,2.64,0,0,1-1.71-.55A2.07,2.07,0,0,1,191.7,827.46Z" transform="translate(-26.29 -337.25)"/><path d="M213,847.61a11.18,11.18,0,0,0,3.27-.6v3.87a11.62,11.62,0,0,1-4.77.87,5.84,5.84,0,0,1-4.54-1.58,6.84,6.84,0,0,1-1.42-4.73v-9.18H203v-2.2l2.86-1.74,1.5-4h3.32v4.06H216v3.9H210.7v9.18a2,2,0,0,0,.63,1.64A2.45,2.45,0,0,0,213,847.61Z" transform="translate(-26.29 -337.25)"/><path d="M228.72,851.75a9.87,9.87,0,0,1-7.2-2.54c-1.72-1.69-2.59-4.09-2.59-7.19s.8-5.66,2.4-7.41A8.52,8.52,0,0,1,228,832a8.38,8.38,0,0,1,6.29,2.3,8.69,8.69,0,0,1,2.25,6.35v2.53H224.2a5,5,0,0,0,1.31,3.46,4.63,4.63,0,0,0,3.45,1.24,14.2,14.2,0,0,0,3.25-.36,16.49,16.49,0,0,0,3.2-1.14v4a12,12,0,0,1-2.91,1A18.43,18.43,0,0,1,228.72,851.75Zm-.74-16a3.3,3.3,0,0,0-2.59,1,4.88,4.88,0,0,0-1.07,3h7.29a4.31,4.31,0,0,0-1-3A3.4,3.4,0,0,0,228,835.7Z" transform="translate(-26.29 -337.25)"/><path d="M258.3,851.41h-5.2V840.28a5.32,5.32,0,0,0-.73-3.09,2.66,2.66,0,0,0-2.33-1,3.52,3.52,0,0,0-3.16,1.45,9.1,9.1,0,0,0-1,4.83v9h-5.2v-19h4l.7,2.43h.29a5.47,5.47,0,0,1,2.4-2.08,8,8,0,0,1,3.47-.71,6.69,6.69,0,0,1,5,1.79A7.21,7.21,0,0,1,258.3,839Z" transform="translate(-26.29 -337.25)"/><path d="M269.69,851.75a6.2,6.2,0,0,1-5.28-2.61,12,12,0,0,1-1.92-7.22c0-3.13.65-5.56,1.95-7.31a6.36,6.36,0,0,1,5.38-2.61,6.22,6.22,0,0,1,5.49,2.79h.17a21.29,21.29,0,0,1-.39-3.8v-6.1h5.21v26.52h-4l-1-2.47h-.22A6,6,0,0,1,269.69,851.75Zm1.82-4.14a3.52,3.52,0,0,0,2.92-1.16,6.76,6.76,0,0,0,1-3.94V842a7.82,7.82,0,0,0-.95-4.4,3.54,3.54,0,0,0-3.08-1.33,3.06,3.06,0,0,0-2.7,1.48,7.87,7.87,0,0,0-1,4.28,7.44,7.44,0,0,0,1,4.22A3.17,3.17,0,0,0,271.51,847.61Z" transform="translate(-26.29 -337.25)"/><path d="M285,849a2.86,2.86,0,0,1,.76-2.16,3.12,3.12,0,0,1,2.24-.74,3,3,0,0,1,2.19.75A2.88,2.88,0,0,1,291,849a2.84,2.84,0,0,1-.78,2.12,3,3,0,0,1-2.18.78,3,3,0,0,1-2.22-.76A2.86,2.86,0,0,1,285,849Z" transform="translate(-26.29 -337.25)"/><path d="M547.85,364V339h5.28V364Z" transform="translate(-26.29 -337.25)"/><path d="M566.73,364.29q-8.9,0-8.9-9.76c0-3.24.81-5.71,2.42-7.43a9.13,9.13,0,0,1,6.94-2.56,13.15,13.15,0,0,1,5.93,1.3l-1.53,4c-.82-.33-1.58-.6-2.29-.81a7.35,7.35,0,0,0-2.11-.32q-4.07,0-4.06,5.76,0,5.6,4.06,5.59a9.2,9.2,0,0,0,2.78-.4,9.7,9.7,0,0,0,2.55-1.25v4.45A8.66,8.66,0,0,1,570,364,14.73,14.73,0,0,1,566.73,364.29Z" transform="translate(-26.29 -337.25)"/><path d="M594.52,364h-5.19V352.82c0-2.75-1-4.12-3.07-4.12a3.46,3.46,0,0,0-3.15,1.48,9,9,0,0,0-1,4.81v9h-5.19V337.43h5.19v5.41c0,.42,0,1.41-.11,3l-.12,1.54h.27a6,6,0,0,1,5.52-2.8,6.74,6.74,0,0,1,5.1,1.81,7.2,7.2,0,0,1,1.73,5.18Z" transform="translate(-26.29 -337.25)"/><path d="M619.47,348.8H615V364h-5.19V348.8h-2.87v-2.5l2.87-1.4v-1.4q0-3.25,1.6-4.75t5.13-1.5a13.26,13.26,0,0,1,4.79.8L620,341.86a10,10,0,0,0-2.9-.49,1.87,1.87,0,0,0-1.6.66,2.69,2.69,0,0,0-.5,1.68v1.19h4.5Z" transform="translate(-26.29 -337.25)"/><path d="M636,364l-.7-2.44H635a5.5,5.5,0,0,1-2.37,2.06,8.09,8.09,0,0,1-3.49.72,6.63,6.63,0,0,1-5.06-1.8,7.2,7.2,0,0,1-1.71-5.17V344.9h5.2V356a5.42,5.42,0,0,0,.73,3.09,2.67,2.67,0,0,0,2.34,1,3.5,3.5,0,0,0,3.15-1.46,9,9,0,0,0,1-4.83v-9h5.2V364ZM625.28,340a2.25,2.25,0,0,1,.64-1.71,2.49,2.49,0,0,1,1.73-.59,2.42,2.42,0,0,1,1.77.63,2.25,2.25,0,0,1,.64,1.67,2.17,2.17,0,0,1-.65,1.64,2.41,2.41,0,0,1-1.76.62,2.44,2.44,0,0,1-1.73-.59A2.21,2.21,0,0,1,625.28,340Zm6.87,0a2.11,2.11,0,0,1,.69-1.75,2.65,2.65,0,0,1,1.72-.55,2.48,2.48,0,0,1,1.76.61A2.19,2.19,0,0,1,637,340a2.15,2.15,0,0,1-.67,1.65,2.47,2.47,0,0,1-1.75.61,2.65,2.65,0,0,1-1.72-.55A2.06,2.06,0,0,1,632.15,340Z" transform="translate(-26.29 -337.25)"/><path d="M663,364h-5.2V352.82q0-4.12-3.06-4.12a3.49,3.49,0,0,0-3.16,1.48,9.14,9.14,0,0,0-1,4.81v9h-5.2V337.43h5.2v5.41c0,.42,0,1.41-.12,3l-.12,1.54h.28a6,6,0,0,1,5.52-2.8,6.72,6.72,0,0,1,5.09,1.81,7.16,7.16,0,0,1,1.74,5.18Z" transform="translate(-26.29 -337.25)"/><path d="M673.53,364h-5.2V337.43h5.2Z" transform="translate(-26.29 -337.25)"/><path d="M687.61,364.29a9.79,9.79,0,0,1-7.19-2.54q-2.59-2.53-2.59-7.19c0-3.19.79-5.66,2.39-7.4a8.51,8.51,0,0,1,6.62-2.62,8.41,8.41,0,0,1,6.29,2.3,8.71,8.71,0,0,1,2.25,6.36v2.52H683.09a5.05,5.05,0,0,0,1.31,3.46,4.63,4.63,0,0,0,3.45,1.24,14.78,14.78,0,0,0,3.25-.35,15.91,15.91,0,0,0,3.2-1.15v4a12.22,12.22,0,0,1-2.91,1A18.43,18.43,0,0,1,687.61,364.29Zm-.74-16.05a3.3,3.3,0,0,0-2.59,1.05,4.87,4.87,0,0,0-1.07,3h7.29a4.3,4.3,0,0,0-1-3A3.41,3.41,0,0,0,686.87,348.24Z" transform="translate(-26.29 -337.25)"/><path d="M725.73,364h-5.2V352.82a5.61,5.61,0,0,0-.69-3.09,2.41,2.41,0,0,0-2.17-1,3.16,3.16,0,0,0-2.9,1.46,9.68,9.68,0,0,0-.9,4.83v9h-5.2V344.9h4l.7,2.44h.29a5.28,5.28,0,0,1,2.22-2.06,7.22,7.22,0,0,1,3.32-.74q4.27,0,5.79,2.8h.46a5.17,5.17,0,0,1,2.26-2.07,7.55,7.55,0,0,1,3.37-.73,6.64,6.64,0,0,1,4.9,1.66c1.1,1.11,1.66,2.88,1.66,5.33V364h-5.22V352.82a5.61,5.61,0,0,0-.69-3.09,2.41,2.41,0,0,0-2.17-1,3.23,3.23,0,0,0-2.85,1.36,7.74,7.74,0,0,0-.95,4.33Z" transform="translate(-26.29 -337.25)"/><path d="M742.72,340c0-1.69.94-2.54,2.83-2.54s2.83.85,2.83,2.54a2.5,2.5,0,0,1-.71,1.89,3,3,0,0,1-2.12.67C743.66,342.53,742.72,341.68,742.72,340Zm5.42,24h-5.2V344.9h5.2Z" transform="translate(-26.29 -337.25)"/><path d="M761.33,364.29q-8.9,0-8.89-9.76c0-3.24.8-5.71,2.42-7.43s3.92-2.56,6.93-2.56a13.12,13.12,0,0,1,5.93,1.3l-1.53,4c-.82-.33-1.58-.6-2.29-.81a7.3,7.3,0,0,0-2.11-.32q-4,0-4,5.76,0,5.6,4,5.59a9.16,9.16,0,0,0,2.78-.4,9.7,9.7,0,0,0,2.55-1.25v4.45a8.55,8.55,0,0,1-2.54,1.11A14.67,14.67,0,0,1,761.33,364.29Z" transform="translate(-26.29 -337.25)"/><path d="M789.13,364h-5.2V352.82q0-4.12-3.07-4.12a3.49,3.49,0,0,0-3.15,1.48,9,9,0,0,0-1,4.81v9h-5.2V337.43h5.2v5.41c0,.42,0,1.41-.12,3l-.12,1.54h.27a6,6,0,0,1,5.52-2.8,6.74,6.74,0,0,1,5.1,1.81,7.16,7.16,0,0,1,1.74,5.18Z" transform="translate(-26.29 -337.25)"/><path d="M812.17,364.29a9.79,9.79,0,0,1-7.19-2.54q-2.6-2.53-2.6-7.19t2.4-7.4a8.51,8.51,0,0,1,6.62-2.62,8.41,8.41,0,0,1,6.29,2.3,8.71,8.71,0,0,1,2.25,6.36v2.52H807.65a5.05,5.05,0,0,0,1.31,3.46,4.63,4.63,0,0,0,3.45,1.24,14.78,14.78,0,0,0,3.25-.35,16.21,16.21,0,0,0,3.21-1.15v4a12.45,12.45,0,0,1-2.92,1A18.43,18.43,0,0,1,812.17,364.29Zm-.74-16.05a3.3,3.3,0,0,0-2.59,1.05,4.87,4.87,0,0,0-1.07,3h7.29a4.3,4.3,0,0,0-1-3A3.41,3.41,0,0,0,811.43,348.24Z" transform="translate(-26.29 -337.25)"/><path d="M841.75,364h-5.2V352.82a5.34,5.34,0,0,0-.73-3.09,2.66,2.66,0,0,0-2.33-1,3.5,3.5,0,0,0-3.16,1.46,9.1,9.1,0,0,0-1,4.83v9h-5.19V344.9h4l.69,2.44h.29a5.49,5.49,0,0,1,2.4-2.09,8.18,8.18,0,0,1,3.47-.71,6.66,6.66,0,0,1,5,1.8,7.21,7.21,0,0,1,1.72,5.19Z" transform="translate(-26.29 -337.25)"/><path d="M855.13,360.15a11.18,11.18,0,0,0,3.27-.6v3.87a11.62,11.62,0,0,1-4.77.87q-3.12,0-4.54-1.57a6.86,6.86,0,0,1-1.42-4.73V348.8h-2.49v-2.2l2.86-1.74,1.5-4h3.32v4.06h5.34v3.9h-5.34V358a2,2,0,0,0,.63,1.63A2.45,2.45,0,0,0,855.13,360.15Z" transform="translate(-26.29 -337.25)"/><path d="M875.55,358.29a5.24,5.24,0,0,1-2,4.47q-2,1.53-6.09,1.53a19,19,0,0,1-3.55-.28,13.23,13.23,0,0,1-2.74-.83v-4.29a18.53,18.53,0,0,0,3.26,1.14,13.09,13.09,0,0,0,3.2.46c1.88,0,2.83-.54,2.83-1.63a1.37,1.37,0,0,0-.38-1,5.22,5.22,0,0,0-1.29-.87c-.62-.32-1.43-.7-2.46-1.13a16.06,16.06,0,0,1-3.23-1.71,4.89,4.89,0,0,1-1.5-1.8,5.92,5.92,0,0,1-.47-2.49,4.53,4.53,0,0,1,2-3.93,9.59,9.59,0,0,1,5.58-1.39,15.83,15.83,0,0,1,6.7,1.5l-1.57,3.75c-.95-.41-1.84-.74-2.67-1a8.47,8.47,0,0,0-2.54-.39c-1.53,0-2.3.42-2.3,1.25a1.49,1.49,0,0,0,.74,1.21,20.29,20.29,0,0,0,3.25,1.51,15,15,0,0,1,3.27,1.69,4.93,4.93,0,0,1,1.53,1.81A5.52,5.52,0,0,1,875.55,358.29Z" transform="translate(-26.29 -337.25)"/><path d="M890.07,364.29a6.31,6.31,0,0,1-5.27-2.44h-.27c.18,1.6.27,2.52.27,2.77v7.72h-5.2V344.9h4.23l.73,2.47h.24a6,6,0,0,1,5.4-2.83,6.2,6.2,0,0,1,5.29,2.61,12.07,12.07,0,0,1,1.9,7.24,14.25,14.25,0,0,1-.89,5.3,7.52,7.52,0,0,1-2.55,3.43A6.55,6.55,0,0,1,890.07,364.29Zm-1.54-15.59a3.28,3.28,0,0,0-2.81,1.18,6.8,6.8,0,0,0-.92,3.91v.57a8,8,0,0,0,.91,4.39,3.25,3.25,0,0,0,2.89,1.33q3.49,0,3.49-5.76a8.19,8.19,0,0,0-.86-4.22A2.94,2.94,0,0,0,888.53,348.7Z" transform="translate(-26.29 -337.25)"/><path d="M913.79,364l-1-2.59h-.13a7.72,7.72,0,0,1-2.7,2.29,8.72,8.72,0,0,1-3.63.64,5.85,5.85,0,0,1-4.32-1.57,6,6,0,0,1-1.57-4.46,5,5,0,0,1,2.12-4.47,12.26,12.26,0,0,1,6.4-1.6l3.3-.1v-.84c0-1.93-1-2.89-3-2.89a13.55,13.55,0,0,0-5.37,1.38l-1.72-3.51a15.43,15.43,0,0,1,7.29-1.72,9,9,0,0,1,5.88,1.67,6.14,6.14,0,0,1,2,5.07V364Zm-1.54-8.83-2,.07a6.47,6.47,0,0,0-3.37.82,2.56,2.56,0,0,0-1.11,2.28c0,1.47.84,2.2,2.52,2.2a4,4,0,0,0,2.89-1,3.65,3.65,0,0,0,1.08-2.76Z" transform="translate(-26.29 -337.25)"/><path d="M940.36,364h-5.2V352.82a5.34,5.34,0,0,0-.73-3.09,2.67,2.67,0,0,0-2.34-1,3.5,3.5,0,0,0-3.15,1.46,9,9,0,0,0-1,4.83v9h-5.2V344.9h4l.7,2.44h.29a5.52,5.52,0,0,1,2.39-2.09,8.21,8.21,0,0,1,3.47-.71,6.67,6.67,0,0,1,5,1.8,7.25,7.25,0,0,1,1.72,5.19Z" transform="translate(-26.29 -337.25)"/><path d="M963.3,364h-5.2V352.82a5.42,5.42,0,0,0-.73-3.09,2.67,2.67,0,0,0-2.34-1,3.5,3.5,0,0,0-3.15,1.46,9,9,0,0,0-1,4.83v9h-5.2V344.9h4l.7,2.44h.29a5.46,5.46,0,0,1,2.39-2.09,8.18,8.18,0,0,1,3.47-.71,6.63,6.63,0,0,1,5,1.8,7.21,7.21,0,0,1,1.73,5.19Z" transform="translate(-26.29 -337.25)"/><path d="M976.67,360.15a11.29,11.29,0,0,0,3.28-.6v3.87a11.7,11.7,0,0,1-4.78.87q-3.12,0-4.54-1.57a6.86,6.86,0,0,1-1.42-4.73V348.8h-2.49v-2.2l2.86-1.74,1.5-4h3.33v4.06h5.33v3.9h-5.33V358a2,2,0,0,0,.62,1.63A2.45,2.45,0,0,0,976.67,360.15Z" transform="translate(-26.29 -337.25)"/><path d="M983.06,361.51a2.86,2.86,0,0,1,.77-2.16,3.11,3.11,0,0,1,2.23-.73,3,3,0,0,1,2.19.75,2.83,2.83,0,0,1,.78,2.14,2.88,2.88,0,0,1-.78,2.13,3.55,3.55,0,0,1-4.4,0A2.85,2.85,0,0,1,983.06,361.51Z" transform="translate(-26.29 -337.25)"/><path d="M152.11,1051v-24.92h5.29V1051Z" transform="translate(-26.29 -337.25)"/><path d="M171,1051.34q-8.91,0-8.9-9.77c0-3.23.81-5.71,2.42-7.42s3.92-2.56,6.94-2.56a13.28,13.28,0,0,1,5.93,1.29l-1.54,4q-1.23-.48-2.28-.81a7.39,7.39,0,0,0-2.11-.31q-4.07,0-4.06,5.76,0,5.6,4.06,5.59a9.14,9.14,0,0,0,2.77-.4,10.42,10.42,0,0,0,2.56-1.25v4.44a8.12,8.12,0,0,1-2.55,1.11A14,14,0,0,1,171,1051.34Z" transform="translate(-26.29 -337.25)"/><path d="M198.79,1051h-5.2v-11.13q0-4.12-3.06-4.12a3.49,3.49,0,0,0-3.16,1.48,9.12,9.12,0,0,0-1,4.8v9h-5.2v-26.52h5.2v5.4q0,.63-.12,3l-.12,1.53h.28a6,6,0,0,1,5.52-2.79,6.77,6.77,0,0,1,5.09,1.8,7.19,7.19,0,0,1,1.74,5.18Z" transform="translate(-26.29 -337.25)"/><path d="M223.81,1031.59a6.14,6.14,0,0,1,5.28,2.63,12.11,12.11,0,0,1,1.91,7.22q0,4.71-2,7.31a6.36,6.36,0,0,1-5.36,2.59,6.29,6.29,0,0,1-5.26-2.44h-.36l-.87,2.1h-4v-26.52h5.2v6.17c0,.78-.07,2-.21,3.77h.21A6,6,0,0,1,223.81,1031.59Zm-1.67,4.16a3.27,3.27,0,0,0-2.81,1.18,6.78,6.78,0,0,0-.92,3.91v.56a8,8,0,0,0,.91,4.4,3.25,3.25,0,0,0,2.89,1.33,2.9,2.9,0,0,0,2.54-1.47,8,8,0,0,0,.95-4.29,7.64,7.64,0,0,0-.95-4.22A3,3,0,0,0,222.14,1035.75Z" transform="translate(-26.29 -337.25)"/><path d="M235.07,1027c0-1.69,1-2.54,2.83-2.54s2.83.85,2.83,2.54a2.44,2.44,0,0,1-.71,1.88,3,3,0,0,1-2.12.68C236,1029.58,235.07,1028.72,235.07,1027Zm5.42,24h-5.2v-19h5.2Z" transform="translate(-26.29 -337.25)"/><path d="M263.53,1051h-5.19v-11.13a5.31,5.31,0,0,0-.74-3.09,2.65,2.65,0,0,0-2.33-1,3.49,3.49,0,0,0-3.15,1.45,9,9,0,0,0-1,4.83v9H246v-19h4l.7,2.43h.29a5.47,5.47,0,0,1,2.39-2.09,8.18,8.18,0,0,1,3.47-.7,6.69,6.69,0,0,1,5,1.79,7.21,7.21,0,0,1,1.72,5.19Z" transform="translate(-26.29 -337.25)"/><path d="M294.53,1032v2.64l-3,.76a5.2,5.2,0,0,1,.82,2.87,5.77,5.77,0,0,1-2.14,4.78,9.29,9.29,0,0,1-5.94,1.71l-.94,0-.76-.09a1.72,1.72,0,0,0-.8,1.37c0,.75.95,1.12,2.86,1.12h3.24a7.38,7.38,0,0,1,4.78,1.35,4.82,4.82,0,0,1,1.64,3.95,5.85,5.85,0,0,1-2.79,5.18q-2.77,1.85-8,1.84a11,11,0,0,1-6.09-1.39,4.4,4.4,0,0,1-2.1-3.89,4,4,0,0,1,1.07-2.88,6.15,6.15,0,0,1,3.15-1.65,3.44,3.44,0,0,1-1.39-1.12,2.74,2.74,0,0,1,0-3.46,7.28,7.28,0,0,1,1.82-1.42,5.09,5.09,0,0,1-2.37-2.08,6.31,6.31,0,0,1-.88-3.38,5.94,5.94,0,0,1,2-4.82,8.79,8.79,0,0,1,5.79-1.7,16,16,0,0,1,1.9.14c.73.1,1.2.17,1.41.22Zm-14.7,21.74a1.88,1.88,0,0,0,1,1.69,5.65,5.65,0,0,0,2.89.61,10,10,0,0,0,4.37-.77,2.34,2.34,0,0,0,1.59-2.09,1.47,1.47,0,0,0-.94-1.48,7.49,7.49,0,0,0-2.89-.41h-2.7a4.06,4.06,0,0,0-2.39.67A2.08,2.08,0,0,0,279.83,1053.69Zm1.89-15.51a3.91,3.91,0,0,0,.7,2.46,2.59,2.59,0,0,0,2.16.9,2.53,2.53,0,0,0,2.15-.9,4,4,0,0,0,.68-2.46q0-3.43-2.83-3.44T281.72,1038.18Z" transform="translate(-26.29 -337.25)"/><path d="M306.29,1051.34a9.84,9.84,0,0,1-7.19-2.54q-2.6-2.54-2.59-7.19t2.39-7.41a8.55,8.55,0,0,1,6.62-2.61,8.36,8.36,0,0,1,6.29,2.3,8.69,8.69,0,0,1,2.25,6.35v2.53H301.78a5,5,0,0,0,1.31,3.46,4.61,4.61,0,0,0,3.44,1.24,14.29,14.29,0,0,0,3.26-.36A16.49,16.49,0,0,0,313,1046v4a11.88,11.88,0,0,1-2.92,1A18.43,18.43,0,0,1,306.29,1051.34Zm-.73-16a3.28,3.28,0,0,0-2.59,1,4.88,4.88,0,0,0-1.08,3h7.3a4.32,4.32,0,0,0-1-3A3.38,3.38,0,0,0,305.56,1035.29Z" transform="translate(-26.29 -337.25)"/><path d="M328.92,1031.59a8.61,8.61,0,0,1,1.76.15l-.39,4.87a6.18,6.18,0,0,0-1.54-.17,5.49,5.49,0,0,0-3.87,1.28,4.61,4.61,0,0,0-1.39,3.58v9.7h-5.2v-19h3.94l.76,3.2h.26a7.14,7.14,0,0,1,2.39-2.58A5.86,5.86,0,0,1,328.92,1031.59Z" transform="translate(-26.29 -337.25)"/><path d="M342.76,1051.34a9.84,9.84,0,0,1-7.19-2.54q-2.6-2.54-2.59-7.19t2.39-7.41a8.55,8.55,0,0,1,6.62-2.61,8.36,8.36,0,0,1,6.29,2.3,8.69,8.69,0,0,1,2.25,6.35v2.53H338.25a5,5,0,0,0,1.31,3.46,4.61,4.61,0,0,0,3.44,1.24,14.13,14.13,0,0,0,3.25-.36,16.57,16.57,0,0,0,3.21-1.14v4a11.88,11.88,0,0,1-2.92,1A18.43,18.43,0,0,1,342.76,1051.34Zm-.73-16a3.28,3.28,0,0,0-2.59,1,4.88,4.88,0,0,0-1.08,3h7.3a4.32,4.32,0,0,0-1-3A3.39,3.39,0,0,0,342,1035.29Z" transform="translate(-26.29 -337.25)"/><path d="M354.54,1027c0-1.69.94-2.54,2.83-2.54s2.82.85,2.82,2.54a2.47,2.47,0,0,1-.7,1.88,3,3,0,0,1-2.12.68C355.48,1029.58,354.54,1028.72,354.54,1027Zm5.42,24h-5.2v-19H360Z" transform="translate(-26.29 -337.25)"/><path d="M378.67,1051H363.62v-3.07l8.83-12h-8.3v-4h14.21v3.37L369.77,1047h8.9Z" transform="translate(-26.29 -337.25)"/><path d="M390.46,1047.2a11.18,11.18,0,0,0,3.27-.6v3.87a11.62,11.62,0,0,1-4.77.87,5.84,5.84,0,0,1-4.54-1.58A6.84,6.84,0,0,1,383,1045v-9.18h-2.49v-2.2l2.86-1.74,1.5-4h3.32V1032h5.34v3.9h-5.34V1045a2,2,0,0,0,.63,1.64A2.45,2.45,0,0,0,390.46,1047.2Z" transform="translate(-26.29 -337.25)"/><path d="M396.85,1048.56a2.86,2.86,0,0,1,.77-2.16,3.09,3.09,0,0,1,2.23-.74,3,3,0,0,1,2.19.75,2.85,2.85,0,0,1,.78,2.15,2.81,2.81,0,0,1-.79,2.12,3,3,0,0,1-2.18.78,3,3,0,0,1-2.21-.76A2.82,2.82,0,0,1,396.85,1048.56Z" transform="translate(-26.29 -337.25)"/><path d="M517.93,1213.69v-24.91h5.29v24.91Z" transform="translate(-26.29 -337.25)"/><path d="M536.81,1214q-8.89,0-8.89-9.76,0-4.86,2.42-7.43t6.93-2.56a13.16,13.16,0,0,1,5.94,1.3l-1.54,4q-1.23-.49-2.28-.81a7.42,7.42,0,0,0-2.12-.32q-4,0-4,5.76,0,5.6,4,5.59a9.16,9.16,0,0,0,2.78-.4,10.07,10.07,0,0,0,2.56-1.25v4.45a8.32,8.32,0,0,1-2.55,1.1A14,14,0,0,1,536.81,1214Z" transform="translate(-26.29 -337.25)"/><path d="M564.61,1213.69h-5.2v-11.13q0-4.12-3.07-4.12a3.49,3.49,0,0,0-3.15,1.48,9,9,0,0,0-1,4.81v9H547v-26.52h5.2v5.41c0,.42,0,1.4-.12,3l-.12,1.53h.27a6,6,0,0,1,5.53-2.79,6.73,6.73,0,0,1,5.09,1.81,7.16,7.16,0,0,1,1.74,5.18Z" transform="translate(-26.29 -337.25)"/><path d="M589.63,1194.28a6.16,6.16,0,0,1,5.28,2.63,12.11,12.11,0,0,1,1.91,7.22c0,3.15-.66,5.58-2,7.31a6.36,6.36,0,0,1-5.36,2.59,6.29,6.29,0,0,1-5.26-2.44h-.36l-.87,2.1h-4v-26.52h5.2v6.17c0,.79-.07,2-.21,3.77h.21A6,6,0,0,1,589.63,1194.28Zm-1.67,4.16a3.27,3.27,0,0,0-2.81,1.18,6.72,6.72,0,0,0-.92,3.91v.57a8,8,0,0,0,.91,4.39,3.24,3.24,0,0,0,2.89,1.33,2.9,2.9,0,0,0,2.54-1.47,8,8,0,0,0,.95-4.29,7.55,7.55,0,0,0-1-4.22A3,3,0,0,0,588,1198.44Z" transform="translate(-26.29 -337.25)"/><path d="M600.89,1189.71c0-1.69,1-2.54,2.83-2.54s2.83.85,2.83,2.54a2.5,2.5,0,0,1-.71,1.89,3,3,0,0,1-2.12.67C601.84,1192.27,600.89,1191.42,600.89,1189.71Zm5.42,24h-5.2v-19h5.2Z" transform="translate(-26.29 -337.25)"/><path d="M629.35,1213.69h-5.2v-11.13a5.34,5.34,0,0,0-.73-3.09,2.66,2.66,0,0,0-2.33-1,3.52,3.52,0,0,0-3.16,1.45,9.17,9.17,0,0,0-1,4.84v9h-5.19v-19h4l.69,2.43h.29a5.47,5.47,0,0,1,2.4-2.08,8.18,8.18,0,0,1,3.47-.71,6.66,6.66,0,0,1,5,1.8,7.21,7.21,0,0,1,1.72,5.19Z" transform="translate(-26.29 -337.25)"/><path d="M660.35,1194.64v2.64l-3,.77a5.14,5.14,0,0,1,.82,2.86,5.8,5.8,0,0,1-2.14,4.78,9.29,9.29,0,0,1-5.94,1.71l-.94-.05-.76-.08a1.71,1.71,0,0,0-.81,1.36c0,.75,1,1.12,2.87,1.12h3.24a7.38,7.38,0,0,1,4.78,1.35,4.83,4.83,0,0,1,1.64,4,5.85,5.85,0,0,1-2.79,5.18q-2.77,1.85-8,1.85a11.11,11.11,0,0,1-6.09-1.39,4.43,4.43,0,0,1-2.1-3.9,4,4,0,0,1,1.07-2.88,6.15,6.15,0,0,1,3.15-1.65,3.54,3.54,0,0,1-1.4-1.12,2.76,2.76,0,0,1,0-3.46,7.52,7.52,0,0,1,1.82-1.42,5,5,0,0,1-2.37-2.08,6.27,6.27,0,0,1-.88-3.37,6,6,0,0,1,2-4.83,8.84,8.84,0,0,1,5.8-1.7,16,16,0,0,1,1.9.14c.73.1,1.2.17,1.41.22Zm-14.7,21.74a1.88,1.88,0,0,0,1,1.69,5.63,5.63,0,0,0,2.88.61,10.22,10.22,0,0,0,4.38-.76,2.34,2.34,0,0,0,1.59-2.1,1.47,1.47,0,0,0-.94-1.48,7.71,7.71,0,0,0-2.9-.41H649a4.06,4.06,0,0,0-2.39.67A2.08,2.08,0,0,0,645.65,1216.38Zm1.89-15.5a3.88,3.88,0,0,0,.7,2.45,2.57,2.57,0,0,0,2.16.9,2.53,2.53,0,0,0,2.15-.9,4,4,0,0,0,.68-2.45q0-3.45-2.83-3.45T647.54,1200.88Z" transform="translate(-26.29 -337.25)"/><path d="M672.11,1214a9.84,9.84,0,0,1-7.19-2.54q-2.59-2.54-2.59-7.19t2.39-7.4a8.52,8.52,0,0,1,6.62-2.62,8.4,8.4,0,0,1,6.29,2.3,8.7,8.7,0,0,1,2.25,6.36v2.52H667.59a5,5,0,0,0,1.32,3.46,4.59,4.59,0,0,0,3.44,1.24,14.13,14.13,0,0,0,3.25-.36,15.34,15.34,0,0,0,3.21-1.14v4a11.88,11.88,0,0,1-2.92,1A18.43,18.43,0,0,1,672.11,1214Zm-.73-16a3.29,3.29,0,0,0-2.59,1,4.79,4.79,0,0,0-1.08,3H675a4.34,4.34,0,0,0-1-3A3.4,3.4,0,0,0,671.38,1198Z" transform="translate(-26.29 -337.25)"/><path d="M701.7,1213.69h-5.2v-11.13a5.34,5.34,0,0,0-.74-3.09,2.64,2.64,0,0,0-2.33-1,3.5,3.5,0,0,0-3.15,1.45,9.07,9.07,0,0,0-1,4.84v9h-5.2v-19h4l.7,2.43h.29a5.44,5.44,0,0,1,2.39-2.08,8.18,8.18,0,0,1,3.47-.71,6.63,6.63,0,0,1,5,1.8,7.21,7.21,0,0,1,1.73,5.19Z" transform="translate(-26.29 -337.25)"/><path d="M715.67,1214a9.84,9.84,0,0,1-7.19-2.54q-2.6-2.54-2.59-7.19t2.39-7.4a8.51,8.51,0,0,1,6.62-2.62,8.4,8.4,0,0,1,6.29,2.3,8.7,8.7,0,0,1,2.25,6.36v2.52H711.15a5,5,0,0,0,1.32,3.46,4.59,4.59,0,0,0,3.44,1.24,14.13,14.13,0,0,0,3.25-.36,15.34,15.34,0,0,0,3.21-1.14v4a11.88,11.88,0,0,1-2.92,1A18.43,18.43,0,0,1,715.67,1214Zm-.73-16a3.27,3.27,0,0,0-2.59,1,4.79,4.79,0,0,0-1.08,3h7.3a4.34,4.34,0,0,0-1-3A3.4,3.4,0,0,0,714.94,1198Z" transform="translate(-26.29 -337.25)"/><path d="M738.3,1194.28a8.61,8.61,0,0,1,1.76.15l-.4,4.88a5.67,5.67,0,0,0-1.53-.17,5.49,5.49,0,0,0-3.88,1.28,4.62,4.62,0,0,0-1.39,3.57v9.7h-5.19v-19h3.93l.77,3.2h.26a7.14,7.14,0,0,1,2.39-2.58A5.94,5.94,0,0,1,738.3,1194.28Z" transform="translate(-26.29 -337.25)"/><path d="M748.05,1213.69l-7.26-19h5.44l3.68,10.85a19.21,19.21,0,0,1,.76,3.91h.11a16.84,16.84,0,0,1,.76-3.91l3.67-10.85h5.43l-7.26,19Z" transform="translate(-26.29 -337.25)"/><path d="M771.4,1209.89a11.18,11.18,0,0,0,3.27-.6v3.87a11.68,11.68,0,0,1-4.77.87c-2.08,0-3.6-.52-4.54-1.57a6.88,6.88,0,0,1-1.43-4.73v-9.19h-2.49v-2.2l2.87-1.74,1.5-4h3.32v4.06h5.33v3.9h-5.33v9.19a2,2,0,0,0,.62,1.63A2.49,2.49,0,0,0,771.4,1209.89Z" transform="translate(-26.29 -337.25)"/><path d="M777.79,1211.25a2.86,2.86,0,0,1,.76-2.16,3.13,3.13,0,0,1,2.24-.73,3,3,0,0,1,2.19.75,3.33,3.33,0,0,1,0,4.27,3,3,0,0,1-2.18.77,3,3,0,0,1-2.22-.76A2.84,2.84,0,0,1,777.79,1211.25Z" transform="translate(-26.29 -337.25)"/><path d="M1219.53,997.4V972.48h5.29V997.4Z" transform="translate(-26.29 -337.25)"/><path d="M1238.42,997.74q-8.91,0-8.9-9.77c0-3.23.81-5.71,2.42-7.42s3.92-2.56,6.94-2.56a13.28,13.28,0,0,1,5.93,1.29l-1.54,4c-.82-.32-1.58-.59-2.28-.8a7.4,7.4,0,0,0-2.11-.32q-4.07,0-4.06,5.76,0,5.59,4.06,5.59a9.09,9.09,0,0,0,2.77-.4,10.07,10.07,0,0,0,2.56-1.25v4.45a8.32,8.32,0,0,1-2.55,1.1A14,14,0,0,1,1238.42,997.74Z" transform="translate(-26.29 -337.25)"/><path d="M1266.21,997.4H1261V986.27q0-4.12-3.06-4.12a3.49,3.49,0,0,0-3.16,1.48,9,9,0,0,0-1,4.8v9h-5.2V970.88h5.2v5.4q0,.63-.12,3l-.12,1.53h.28a6,6,0,0,1,5.52-2.79,6.77,6.77,0,0,1,5.09,1.8,7.19,7.19,0,0,1,1.74,5.18Z" transform="translate(-26.29 -337.25)"/><path d="M1298.22,997.4H1293V986.27q0-4.12-3.07-4.12a3.49,3.49,0,0,0-3.15,1.48,9,9,0,0,0-1,4.8v9h-5.2V970.88h5.2v5.4q0,.63-.12,3l-.12,1.53h.27a6,6,0,0,1,5.52-2.79,6.77,6.77,0,0,1,5.1,1.8,7.19,7.19,0,0,1,1.74,5.18Z" transform="translate(-26.29 -337.25)"/><path d="M1315.67,997.4l-1-2.59h-.14a7.65,7.65,0,0,1-2.7,2.29,8.63,8.63,0,0,1-3.62.64,5.83,5.83,0,0,1-4.32-1.57,6,6,0,0,1-1.57-4.46,5,5,0,0,1,2.12-4.48q2.11-1.44,6.4-1.59l3.3-.1v-.84c0-1.93-1-2.9-3-2.9a13.54,13.54,0,0,0-5.37,1.39l-1.72-3.52a15.55,15.55,0,0,1,7.29-1.72,9.09,9.09,0,0,1,5.88,1.67,6.2,6.2,0,0,1,2,5.08v12.7Zm-1.54-8.83-2,.07a6.38,6.38,0,0,0-3.37.82,2.56,2.56,0,0,0-1.11,2.28c0,1.47.84,2.2,2.52,2.2a4,4,0,0,0,2.89-1,3.65,3.65,0,0,0,1.08-2.76Z" transform="translate(-26.29 -337.25)"/><path d="M1335.25,978a6.16,6.16,0,0,1,5.28,2.63,12.11,12.11,0,0,1,1.91,7.22c0,3.15-.66,5.58-2,7.31a6.36,6.36,0,0,1-5.36,2.59,6.29,6.29,0,0,1-5.26-2.44h-.36l-.87,2.1h-4V970.88h5.2v6.17c0,.78-.07,2-.21,3.77h.21A6,6,0,0,1,1335.25,978Zm-1.67,4.16a3.27,3.27,0,0,0-2.81,1.18,6.7,6.7,0,0,0-.92,3.91v.56a8,8,0,0,0,.91,4.4,3.25,3.25,0,0,0,2.89,1.33,2.9,2.9,0,0,0,2.54-1.47,8,8,0,0,0,1-4.29,7.55,7.55,0,0,0-1-4.22A3,3,0,0,0,1333.58,982.15Z" transform="translate(-26.29 -337.25)"/><path d="M1355.36,997.74a9.83,9.83,0,0,1-7.19-2.54q-2.6-2.54-2.6-7.19t2.4-7.41a8.54,8.54,0,0,1,6.62-2.61,8.38,8.38,0,0,1,6.29,2.3,8.69,8.69,0,0,1,2.25,6.35v2.53h-12.29a5,5,0,0,0,1.31,3.46,4.63,4.63,0,0,0,3.45,1.24,14.2,14.2,0,0,0,3.25-.36,16.49,16.49,0,0,0,3.2-1.14v4a11.81,11.81,0,0,1-2.91,1A18.49,18.49,0,0,1,1355.36,997.74Zm-.74-16a3.33,3.33,0,0,0-2.59,1,4.88,4.88,0,0,0-1.07,3h7.29a4.31,4.31,0,0,0-1-3A3.43,3.43,0,0,0,1354.62,981.69Z" transform="translate(-26.29 -337.25)"/><path d="M1392.08,997.4l-1.8-5.93h-9.09l-1.8,5.93h-5.7l8.8-25H1389l8.82,25ZM1389,987q-2.51-8.07-2.82-9.12c-.21-.71-.36-1.26-.45-1.67q-.56,2.18-3.22,10.79Z" transform="translate(-26.29 -337.25)"/><path d="M1418.09,997.4h-5.2V986.27a5.32,5.32,0,0,0-.73-3.09,2.67,2.67,0,0,0-2.34-1,3.51,3.51,0,0,0-3.15,1.45,9,9,0,0,0-1,4.83v9h-5.2v-19h4l.7,2.43h.29a5.5,5.5,0,0,1,2.39-2.08,8.06,8.06,0,0,1,3.47-.71,6.67,6.67,0,0,1,5,1.8,7.21,7.21,0,0,1,1.72,5.18Z" transform="translate(-26.29 -337.25)"/><path d="M1440,978.35V981l-3,.76a5.28,5.28,0,0,1,.82,2.87,5.8,5.8,0,0,1-2.14,4.78,9.29,9.29,0,0,1-5.94,1.71l-.94-.05-.76-.09a1.74,1.74,0,0,0-.81,1.37c0,.75,1,1.12,2.87,1.12h3.24a7.38,7.38,0,0,1,4.78,1.35,4.82,4.82,0,0,1,1.64,4,5.85,5.85,0,0,1-2.79,5.18q-2.77,1.84-8,1.84a11,11,0,0,1-6.09-1.39,4.4,4.4,0,0,1-2.1-3.89,4,4,0,0,1,1.07-2.88A6.11,6.11,0,0,1,1425,996a3.54,3.54,0,0,1-1.4-1.12,2.76,2.76,0,0,1,0-3.46,7.28,7.28,0,0,1,1.82-1.42,5.16,5.16,0,0,1-2.38-2.08,6.39,6.39,0,0,1-.87-3.38,6,6,0,0,1,2-4.82,8.84,8.84,0,0,1,5.8-1.7,16,16,0,0,1,1.9.14c.73.1,1.2.17,1.41.22Zm-14.71,21.74a1.89,1.89,0,0,0,1,1.69,5.63,5.63,0,0,0,2.88.61,10.06,10.06,0,0,0,4.38-.77,2.33,2.33,0,0,0,1.59-2.09,1.47,1.47,0,0,0-.94-1.48,7.51,7.51,0,0,0-2.9-.41h-2.69a4.06,4.06,0,0,0-2.39.67A2.06,2.06,0,0,0,1425.31,1000.09Zm1.9-15.51a3.91,3.91,0,0,0,.7,2.46,2.57,2.57,0,0,0,2.16.9,2.53,2.53,0,0,0,2.15-.9,4,4,0,0,0,.68-2.46q0-3.44-2.83-3.44T1427.21,984.58Z" transform="translate(-26.29 -337.25)"/><path d="M1456.45,991.74a5.27,5.27,0,0,1-2,4.47c-1.35,1-3.39,1.53-6.09,1.53a18.79,18.79,0,0,1-3.54-.28,13.14,13.14,0,0,1-2.75-.83v-4.29a18.94,18.94,0,0,0,3.27,1.14,13,13,0,0,0,3.19.46c1.89,0,2.83-.55,2.83-1.64a1.34,1.34,0,0,0-.37-1,5.32,5.32,0,0,0-1.3-.87c-.61-.33-1.43-.7-2.45-1.14a15.1,15.1,0,0,1-3.23-1.7,4.71,4.71,0,0,1-1.5-1.8,5.81,5.81,0,0,1-.47-2.5,4.49,4.49,0,0,1,2-3.92,9.55,9.55,0,0,1,5.58-1.39,15.87,15.87,0,0,1,6.7,1.5l-1.57,3.75c-1-.41-1.85-.75-2.68-1a8.42,8.42,0,0,0-2.54-.39c-1.53,0-2.3.41-2.3,1.24a1.46,1.46,0,0,0,.74,1.21,20.48,20.48,0,0,0,3.25,1.52,14.52,14.52,0,0,1,3.27,1.69,4.92,4.92,0,0,1,1.54,1.8A5.59,5.59,0,0,1,1456.45,991.74Z" transform="translate(-26.29 -337.25)"/><path d="M1468.53,993.6a11.18,11.18,0,0,0,3.27-.6v3.87a11.62,11.62,0,0,1-4.77.87,5.84,5.84,0,0,1-4.54-1.58,6.84,6.84,0,0,1-1.42-4.73v-9.18h-2.49v-2.2l2.86-1.74,1.5-4h3.33v4.06h5.33v3.9h-5.33v9.18a2,2,0,0,0,.62,1.64A2.45,2.45,0,0,0,1468.53,993.6Z" transform="translate(-26.29 -337.25)"/><path d="M1474.92,995a2.86,2.86,0,0,1,.77-2.16,3.11,3.11,0,0,1,2.23-.74,3,3,0,0,1,2.19.75,2.85,2.85,0,0,1,.78,2.15,2.81,2.81,0,0,1-.79,2.12,3,3,0,0,1-2.18.78,3,3,0,0,1-2.21-.76A2.82,2.82,0,0,1,1474.92,995Z" transform="translate(-26.29 -337.25)"/><path d="M824.68,1133.14v-24.92H830v24.92Z" transform="translate(-26.29 -337.25)"/><path d="M843.56,1133.48q-8.89,0-8.89-9.76c0-3.24.8-5.72,2.42-7.43s3.92-2.56,6.93-2.56A13.25,13.25,0,0,1,850,1115l-1.53,4q-1.23-.49-2.28-.81a7.42,7.42,0,0,0-2.12-.32q-4,0-4,5.76,0,5.6,4,5.59a9.16,9.16,0,0,0,2.78-.4,10.07,10.07,0,0,0,2.56-1.25v4.45a8.32,8.32,0,0,1-2.55,1.1A14,14,0,0,1,843.56,1133.48Z" transform="translate(-26.29 -337.25)"/><path d="M871.36,1133.14h-5.2V1122q0-4.12-3.07-4.12a3.49,3.49,0,0,0-3.15,1.48,9,9,0,0,0-1,4.81v9h-5.2v-26.52H859v5.4c0,.43,0,1.41-.12,3l-.12,1.53H859a6,6,0,0,1,5.53-2.79,6.73,6.73,0,0,1,5.09,1.81,7.16,7.16,0,0,1,1.74,5.18Z" transform="translate(-26.29 -337.25)"/><path d="M902.84,1133.14h-5.2V1122a5.61,5.61,0,0,0-.69-3.09,2.43,2.43,0,0,0-2.18-1,3.15,3.15,0,0,0-2.89,1.46,9.66,9.66,0,0,0-.91,4.83v9h-5.19v-19.05h4l.7,2.43h.29a5.29,5.29,0,0,1,2.21-2,7.24,7.24,0,0,1,3.32-.74q4.29,0,5.8,2.79h.46a5.15,5.15,0,0,1,2.26-2.06,7.47,7.47,0,0,1,3.36-.73,6.64,6.64,0,0,1,4.9,1.66c1.11,1.11,1.66,2.88,1.66,5.33v12.42H909.5V1122a5.61,5.61,0,0,0-.69-3.09,2.43,2.43,0,0,0-2.17-1,3.24,3.24,0,0,0-2.86,1.36,7.75,7.75,0,0,0-.94,4.33Z" transform="translate(-26.29 -337.25)"/><path d="M932.15,1133.14l-1-2.59H931a7.66,7.66,0,0,1-2.71,2.29,8.63,8.63,0,0,1-3.62.64,5.83,5.83,0,0,1-4.32-1.57,6,6,0,0,1-1.57-4.46,5,5,0,0,1,2.12-4.48,12.27,12.27,0,0,1,6.4-1.59l3.3-.1v-.84c0-1.93-1-2.89-3-2.89a13.55,13.55,0,0,0-5.37,1.38l-1.72-3.51a15.44,15.44,0,0,1,7.29-1.73,9,9,0,0,1,5.88,1.68,6.14,6.14,0,0,1,2,5.07v12.7Zm-1.54-8.83-2,.07a6.47,6.47,0,0,0-3.37.82,2.56,2.56,0,0,0-1.11,2.28c0,1.47.84,2.2,2.52,2.2a4,4,0,0,0,2.89-1,3.65,3.65,0,0,0,1.08-2.76Z" transform="translate(-26.29 -337.25)"/><path d="M948.87,1133.48q-8.89,0-8.9-9.76,0-4.86,2.42-7.43c1.61-1.71,3.93-2.56,6.94-2.56a13.28,13.28,0,0,1,5.93,1.29l-1.54,4c-.81-.33-1.58-.6-2.28-.81a7.4,7.4,0,0,0-2.11-.32q-4.07,0-4.06,5.76,0,5.6,4.06,5.59a9.09,9.09,0,0,0,2.77-.4,9.92,9.92,0,0,0,2.56-1.25v4.45a8.32,8.32,0,0,1-2.55,1.1A14,14,0,0,1,948.87,1133.48Z" transform="translate(-26.29 -337.25)"/><path d="M976.66,1133.14h-5.2V1122q0-4.12-3.06-4.12a3.49,3.49,0,0,0-3.16,1.48,9.14,9.14,0,0,0-1,4.81v9h-5.2v-26.52h5.2v5.4c0,.43,0,1.41-.12,3l-.12,1.53h.28a6,6,0,0,1,5.52-2.79,6.72,6.72,0,0,1,5.09,1.81,7.16,7.16,0,0,1,1.74,5.18Z" transform="translate(-26.29 -337.25)"/><path d="M990.64,1133.48a9.87,9.87,0,0,1-7.2-2.54c-1.72-1.69-2.59-4.09-2.59-7.19s.8-5.66,2.4-7.41a8.52,8.52,0,0,1,6.62-2.61,8.41,8.41,0,0,1,6.29,2.3,8.7,8.7,0,0,1,2.25,6.36v2.52H986.12a5,5,0,0,0,1.31,3.46,4.63,4.63,0,0,0,3.45,1.24,14.2,14.2,0,0,0,3.25-.36,15.85,15.85,0,0,0,3.2-1.14v4a12,12,0,0,1-2.91,1A18.49,18.49,0,0,1,990.64,1133.48Zm-.74-16a3.33,3.33,0,0,0-2.59,1,4.91,4.91,0,0,0-1.07,3h7.29a4.33,4.33,0,0,0-1-3A3.45,3.45,0,0,0,989.9,1117.43Z" transform="translate(-26.29 -337.25)"/><path d="M1028.76,1133.14h-5.2V1122a5.61,5.61,0,0,0-.69-3.09,2.41,2.41,0,0,0-2.17-1,3.16,3.16,0,0,0-2.9,1.46,9.68,9.68,0,0,0-.9,4.83v9h-5.2v-19.05h4l.7,2.43h.29a5.26,5.26,0,0,1,2.22-2,7.22,7.22,0,0,1,3.32-.74q4.27,0,5.79,2.79h.46a5.21,5.21,0,0,1,2.26-2.06,7.55,7.55,0,0,1,3.37-.73,6.64,6.64,0,0,1,4.9,1.66c1.1,1.11,1.66,2.88,1.66,5.33v12.42h-5.22V1122a5.61,5.61,0,0,0-.69-3.09,2.41,2.41,0,0,0-2.17-1,3.23,3.23,0,0,0-2.85,1.36,7.65,7.65,0,0,0-1,4.33Z" transform="translate(-26.29 -337.25)"/><path d="M1045.75,1109.16c0-1.69.94-2.54,2.83-2.54s2.83.85,2.83,2.54a2.46,2.46,0,0,1-.71,1.88,3,3,0,0,1-2.12.68C1046.69,1111.72,1045.75,1110.87,1045.75,1109.16Zm5.42,24H1046v-19.05h5.2Z" transform="translate(-26.29 -337.25)"/><path d="M1067.26,1113.73a8.5,8.5,0,0,1,1.75.15l-.39,4.88a5.67,5.67,0,0,0-1.53-.17,5.53,5.53,0,0,0-3.88,1.27,4.63,4.63,0,0,0-1.39,3.58v9.7h-5.2v-19.05h3.94l.77,3.2h.25a7.08,7.08,0,0,1,2.4-2.58A5.92,5.92,0,0,1,1067.26,1113.73Z" transform="translate(-26.29 -337.25)"/><path d="M1096.65,1126.22a6.47,6.47,0,0,1-2.42,5.32,10.6,10.6,0,0,1-6.76,1.94,15.9,15.9,0,0,1-7.06-1.5v-4.91a29.68,29.68,0,0,0,4.27,1.59,13,13,0,0,0,3.2.46,4.45,4.45,0,0,0,2.66-.67,2.26,2.26,0,0,0,.93-2,2.15,2.15,0,0,0-.41-1.31,4.64,4.64,0,0,0-1.2-1.1,30.86,30.86,0,0,0-3.23-1.68,15.38,15.38,0,0,1-3.42-2.07,7.69,7.69,0,0,1-1.83-2.3,6.57,6.57,0,0,1-.68-3.06,6.45,6.45,0,0,1,2.24-5.2,9.34,9.34,0,0,1,6.2-1.89,14.56,14.56,0,0,1,3.71.46,25.94,25.94,0,0,1,3.69,1.29l-1.71,4.11a23.45,23.45,0,0,0-3.3-1.14,10.4,10.4,0,0,0-2.56-.33,3.42,3.42,0,0,0-2.3.7,2.3,2.3,0,0,0-.8,1.83,2.19,2.19,0,0,0,.32,1.21,3.54,3.54,0,0,0,1,1,32.31,32.31,0,0,0,3.35,1.75,13.24,13.24,0,0,1,4.79,3.35A6.53,6.53,0,0,1,1096.65,1126.22Z" transform="translate(-26.29 -337.25)"/><path d="M1118.08,1123.58a10.23,10.23,0,0,1-2.46,7.28,8.88,8.88,0,0,1-6.83,2.62,9.57,9.57,0,0,1-4.84-1.2,8,8,0,0,1-3.22-3.45,11.6,11.6,0,0,1-1.13-5.25,10.21,10.21,0,0,1,2.44-7.26,9,9,0,0,1,6.85-2.59,9.67,9.67,0,0,1,4.84,1.19,8,8,0,0,1,3.22,3.43A11.48,11.48,0,0,1,1118.08,1123.58Zm-13.18,0a8,8,0,0,0,.93,4.28,3.34,3.34,0,0,0,3,1.45,3.28,3.28,0,0,0,3-1.44,8.1,8.1,0,0,0,.91-4.29,7.87,7.87,0,0,0-.92-4.24,3.91,3.91,0,0,0-6,0A7.86,7.86,0,0,0,1104.9,1123.58Z" transform="translate(-26.29 -337.25)"/><path d="M1133,1113.73a8.57,8.57,0,0,1,1.75.15l-.39,4.88a5.7,5.7,0,0,0-1.54-.17,5.5,5.5,0,0,0-3.87,1.27,4.63,4.63,0,0,0-1.39,3.58v9.7h-5.2v-19.05h3.94l.77,3.2h.25a7.14,7.14,0,0,1,2.39-2.58A6,6,0,0,1,1133,1113.73Z" transform="translate(-26.29 -337.25)"/><path d="M1154.8,1114.09v2.64l-3,.77a5.22,5.22,0,0,1,.82,2.86,5.8,5.8,0,0,1-2.14,4.78,9.29,9.29,0,0,1-5.94,1.71l-.94,0-.76-.09a1.74,1.74,0,0,0-.81,1.37c0,.75,1,1.12,2.87,1.12h3.24a7.38,7.38,0,0,1,4.78,1.35,4.82,4.82,0,0,1,1.64,4,5.85,5.85,0,0,1-2.79,5.18q-2.77,1.85-8,1.84a11.11,11.11,0,0,1-6.09-1.38,4.43,4.43,0,0,1-2.1-3.9,4,4,0,0,1,1.07-2.88,6.11,6.11,0,0,1,3.15-1.65,3.54,3.54,0,0,1-1.4-1.12,2.76,2.76,0,0,1,0-3.46,7.52,7.52,0,0,1,1.82-1.42,5.16,5.16,0,0,1-2.38-2.08,6.36,6.36,0,0,1-.87-3.37,6,6,0,0,1,2-4.83,8.84,8.84,0,0,1,5.8-1.7,16,16,0,0,1,1.9.14c.73.1,1.2.17,1.41.22Zm-14.71,21.74a1.89,1.89,0,0,0,1,1.69,5.63,5.63,0,0,0,2.88.61,10.22,10.22,0,0,0,4.38-.76,2.35,2.35,0,0,0,1.59-2.1,1.47,1.47,0,0,0-.94-1.48,7.51,7.51,0,0,0-2.9-.41h-2.69a4.06,4.06,0,0,0-2.39.67A2.09,2.09,0,0,0,1140.09,1135.83Zm1.9-15.51a3.89,3.89,0,0,0,.7,2.46,2.59,2.59,0,0,0,2.16.9,2.53,2.53,0,0,0,2.15-.9,4,4,0,0,0,.68-2.46q0-3.43-2.83-3.44T1142,1120.32Z" transform="translate(-26.29 -337.25)"/><path d="M1166.56,1133.48a9.84,9.84,0,0,1-7.19-2.54q-2.59-2.54-2.59-7.19t2.39-7.41a8.55,8.55,0,0,1,6.62-2.61,8.4,8.4,0,0,1,6.29,2.3,8.7,8.7,0,0,1,2.25,6.36v2.52H1162a5,5,0,0,0,1.32,3.46,4.59,4.59,0,0,0,3.44,1.24,14.13,14.13,0,0,0,3.25-.36,15.93,15.93,0,0,0,3.21-1.14v4a11.88,11.88,0,0,1-2.92,1A18.43,18.43,0,0,1,1166.56,1133.48Zm-.73-16a3.32,3.32,0,0,0-2.59,1,4.85,4.85,0,0,0-1.08,3h7.3a4.34,4.34,0,0,0-1-3A3.43,3.43,0,0,0,1165.83,1117.43Z" transform="translate(-26.29 -337.25)"/><path d="M1196.15,1133.14H1191V1122a5.42,5.42,0,0,0-.73-3.09,2.67,2.67,0,0,0-2.34-1,3.51,3.51,0,0,0-3.15,1.45,9.07,9.07,0,0,0-1,4.84v9h-5.2v-19.05h4l.7,2.43h.29a5.5,5.5,0,0,1,2.39-2.08,8,8,0,0,1,3.47-.71,6.63,6.63,0,0,1,5,1.8,7.21,7.21,0,0,1,1.73,5.19Z" transform="translate(-26.29 -337.25)"/><path d="M1200.76,1130.7a2.86,2.86,0,0,1,.77-2.16,3.11,3.11,0,0,1,2.23-.73,3,3,0,0,1,2.19.75,3.3,3.3,0,0,1,0,4.26,3,3,0,0,1-2.19.78,3,3,0,0,1-2.21-.76A2.85,2.85,0,0,1,1200.76,1130.7Z" transform="translate(-26.29 -337.25)"/><polygon class="cls-2" points="967.44 426.64 814.71 367.3 789.36 508.44 1243.5 610.59 967.44 426.64"/><polygon class="cls-2" points="980.46 414.76 852.25 333.64 761.82 510.1 1069.95 747.76 980.46 414.76"/><polygon class="cls-3" points="836.79 221.35 801.88 311.65 960.64 338.11 1094.06 87.04 836.79 221.35"/><polygon class="cls-3" points="846.29 189.48 799.75 298.05 955.98 380.46 1182.01 224.24 846.29 189.48"/><polygon class="cls-4" points="421.81 105.4 674.68 304.01 789.36 254.98 759.44 149.03 421.81 105.4"/><polygon class="cls-4" points="391.73 251.66 646.11 338.11 784.79 309 706.07 219.25 391.73 251.66"/><polygon class="cls-4" points="733.94 52.51 646.11 255.58 751.78 321.83 821.76 236.84 733.94 52.51"/><polygon class="cls-5" points="397.71 676.29 626.44 353.63 778.18 348.82 746.36 508.95 397.71 676.29"/><polygon class="cls-5" points="295.7 497.26 634.29 292.85 775.31 349.06 682.17 483.15 295.7 497.26"/><polygon class="cls-5" points="623.98 824.22 638.47 385.19 782.48 337.12 797.85 499.66 623.98 824.22"/><polyline class="cls-6" points="1457.49 676.29 1182.01 676.29 1033.68 519.24"/></svg>