<svg xmlns="http://www.w3.org/2000/svg" viewBox="0 0 1500 1500"><defs><style>.cls-1{fill:#fff;}.cls-2{fill:#ff0;}.cls-2,.cls-3,.cls-4{opacity:0.5;}.cls-3{fill:#38d7f2;}.cls-4{fill:#ff8000;}.cls-5{fill:#cce70b;opacity:0.6;}.cls-6{fill:#f0047f;opacity:0.3;}.cls-7{fill:none;stroke:#000;stroke-miterlimit:10;stroke-width:1.7px;}</style></defs><title>2fuehlen_en</title><g id="Layer_4" data-name="Layer 4"><rect class="cls-1" width="1500" height="1500"/></g><g id="Layer_14_copy_2" data-name="Layer 14 copy 2"><polygon class="cls-2" points="914.55 561.89 1035.84 758.7 788.54 868.29 634.76 705.81 687.16 490.5 914.55 561.89"/><path d="M1237.94,573.78V548.86h5.28v24.92Z" transform="translate(0)"/><path d="M1270.24,573.78l-1-2.59h-.14a7.65,7.65,0,0,1-2.7,2.29,8.63,8.63,0,0,1-3.62.64,5.83,5.83,0,0,1-4.32-1.57,6,6,0,0,1-1.58-4.46,5,5,0,0,1,2.13-4.48,12.23,12.23,0,0,1,6.39-1.59l3.31-.1v-.84c0-1.93-1-2.89-3-2.89a13.47,13.47,0,0,0-5.37,1.38l-1.72-3.51a15.44,15.44,0,0,1,7.29-1.73,9.09,9.09,0,0,1,5.88,1.67,6.19,6.19,0,0,1,2,5.08v12.7Zm-1.53-8.83-2,.07a6.35,6.35,0,0,0-3.37.82,2.56,2.56,0,0,0-1.11,2.28c0,1.47.84,2.2,2.52,2.2a4,4,0,0,0,2.89-1,3.65,3.65,0,0,0,1.08-2.76Z" transform="translate(0)"/><path d="M1296.28,573.78h-5.2V562.65a5.61,5.61,0,0,0-.69-3.09,2.41,2.41,0,0,0-2.17-1,3.14,3.14,0,0,0-2.89,1.46,9.53,9.53,0,0,0-.91,4.82v9h-5.2v-19h4l.69,2.43h.29a5.26,5.26,0,0,1,2.22-2,7.22,7.22,0,0,1,3.32-.74q4.27,0,5.79,2.79h.47a5.18,5.18,0,0,1,2.25-2.06,7.55,7.55,0,0,1,3.37-.73,6.64,6.64,0,0,1,4.9,1.66c1.11,1.11,1.66,2.88,1.66,5.33v12.42h-5.22V562.65a5.61,5.61,0,0,0-.69-3.09,2.41,2.41,0,0,0-2.17-1,3.23,3.23,0,0,0-2.85,1.36,7.74,7.74,0,0,0-1,4.33Z" transform="translate(0)"/><path d="M1330.58,570a11.29,11.29,0,0,0,3.28-.6v3.87a11.7,11.7,0,0,1-4.78.87,5.86,5.86,0,0,1-4.54-1.58,6.84,6.84,0,0,1-1.42-4.73v-9.18h-2.49v-2.2l2.87-1.74,1.5-4h3.32v4.06h5.33v3.9h-5.33v9.18a2,2,0,0,0,.62,1.64A2.45,2.45,0,0,0,1330.58,570Z" transform="translate(0)"/><path d="M1337.49,549.8c0-1.69.94-2.54,2.82-2.54s2.83.85,2.83,2.54a2.49,2.49,0,0,1-.7,1.89,3,3,0,0,1-2.13.67C1338.43,552.36,1337.49,551.51,1337.49,549.8Zm5.41,24h-5.19v-19h5.19Z" transform="translate(0)"/><path d="M1359,554.37a8.67,8.67,0,0,1,1.76.15l-.4,4.88a5.67,5.67,0,0,0-1.53-.17,5.53,5.53,0,0,0-3.88,1.27,4.66,4.66,0,0,0-1.39,3.58v9.7h-5.19v-19h3.93l.77,3.2h.26a7.14,7.14,0,0,1,2.39-2.58A5.94,5.94,0,0,1,1359,554.37Z" transform="translate(0)"/><path d="M1372.83,574.12a9.83,9.83,0,0,1-7.19-2.54q-2.6-2.54-2.59-7.19c0-3.19.79-5.66,2.39-7.41a8.54,8.54,0,0,1,6.62-2.61,8.41,8.41,0,0,1,6.29,2.3,8.7,8.7,0,0,1,2.25,6.36v2.52h-12.29a5.07,5.07,0,0,0,1.31,3.46,4.63,4.63,0,0,0,3.45,1.24,14.2,14.2,0,0,0,3.25-.36,16.49,16.49,0,0,0,3.2-1.14v4a12.24,12.24,0,0,1-2.91,1A18.43,18.43,0,0,1,1372.83,574.12Zm-.74-16a3.33,3.33,0,0,0-2.59,1,4.88,4.88,0,0,0-1.07,3h7.29a4.31,4.31,0,0,0-1-3A3.43,3.43,0,0,0,1372.09,558.07Z" transform="translate(0)"/><path d="M1390.86,574.12a6.2,6.2,0,0,1-5.28-2.61,12,12,0,0,1-1.91-7.22c0-3.13.65-5.56,1.95-7.31a6.33,6.33,0,0,1,5.37-2.61,6.22,6.22,0,0,1,5.49,2.79h.17a21.29,21.29,0,0,1-.39-3.8v-6.1h5.21v26.52h-4l-1-2.47h-.22A6,6,0,0,1,1390.86,574.12Zm1.82-4.14a3.52,3.52,0,0,0,2.92-1.16,6.76,6.76,0,0,0,1-3.94v-.56a7.82,7.82,0,0,0-.95-4.4,3.54,3.54,0,0,0-3.08-1.33,3.08,3.08,0,0,0-2.7,1.48,7.87,7.87,0,0,0-1,4.28,7.44,7.44,0,0,0,1,4.22A3.18,3.18,0,0,0,1392.68,570Z" transform="translate(0)"/><path d="M1151,431.42V406.51h5.28v24.91Z" transform="translate(0)"/><path d="M1166.31,406.51l.24.37a50.48,50.48,0,0,1-3,8.16h-3.73c.79-3.36,1.35-6.21,1.71-8.53Z" transform="translate(0)"/><path d="M1186.75,431.42h-5.2V420.29a5.61,5.61,0,0,0-.69-3.09,2.43,2.43,0,0,0-2.17-1,3.16,3.16,0,0,0-2.9,1.46,9.68,9.68,0,0,0-.9,4.83v9h-5.2V412.37h4l.7,2.43h.29a5.35,5.35,0,0,1,2.21-2.05,7.29,7.29,0,0,1,3.33-.74q4.27,0,5.79,2.79h.46a5.15,5.15,0,0,1,2.26-2.06,7.47,7.47,0,0,1,3.36-.73,6.64,6.64,0,0,1,4.9,1.66c1.11,1.11,1.66,2.88,1.66,5.33v12.42h-5.21V420.29a5.61,5.61,0,0,0-.69-3.09,2.43,2.43,0,0,0-2.17-1,3.24,3.24,0,0,0-2.86,1.36,7.75,7.75,0,0,0-.94,4.33Z" transform="translate(0)"/><path d="M1230.33,421.86a10.23,10.23,0,0,1-2.45,7.28,8.88,8.88,0,0,1-6.83,2.62,9.57,9.57,0,0,1-4.84-1.2,8,8,0,0,1-3.22-3.45,11.6,11.6,0,0,1-1.13-5.25,10.21,10.21,0,0,1,2.44-7.26,8.93,8.93,0,0,1,6.85-2.59,9.67,9.67,0,0,1,4.84,1.19,8,8,0,0,1,3.22,3.43A11.48,11.48,0,0,1,1230.33,421.86Zm-13.17,0a8,8,0,0,0,.93,4.28,3.34,3.34,0,0,0,3,1.44,3.29,3.29,0,0,0,3-1.43,8.2,8.2,0,0,0,.91-4.29,7.87,7.87,0,0,0-.92-4.24,3.91,3.91,0,0,0-6,0A7.86,7.86,0,0,0,1217.16,421.86Z" transform="translate(0)"/><path d="M1245.16,416.27h-4.5v15.15h-5.2V416.27h-2.86v-2.5l2.86-1.4V411q0-3.25,1.61-4.75t5.13-1.5a13.16,13.16,0,0,1,4.78.8l-1.32,3.81a10.06,10.06,0,0,0-2.9-.49,1.87,1.87,0,0,0-1.6.66,2.67,2.67,0,0,0-.5,1.67v1.2h4.5Z" transform="translate(0)"/><path d="M1256.17,427.62a11.18,11.18,0,0,0,3.27-.6v3.87a11.65,11.65,0,0,1-4.77.87,5.84,5.84,0,0,1-4.54-1.58,6.84,6.84,0,0,1-1.42-4.73v-9.18h-2.49v-2.2l2.86-1.74,1.5-4h3.32v4.06h5.34v3.9h-5.34v9.18a2,2,0,0,0,.62,1.64A2.49,2.49,0,0,0,1256.17,427.62Z" transform="translate(0)"/><path d="M1271.91,431.76a9.86,9.86,0,0,1-7.19-2.54c-1.72-1.69-2.59-4.09-2.59-7.19s.8-5.66,2.4-7.4a8.49,8.49,0,0,1,6.62-2.62,8.39,8.39,0,0,1,6.28,2.3,8.7,8.7,0,0,1,2.25,6.36v2.52H1267.4a5,5,0,0,0,1.31,3.46,4.61,4.61,0,0,0,3.44,1.24,14.29,14.29,0,0,0,3.26-.36,15.85,15.85,0,0,0,3.2-1.14v4a12,12,0,0,1-2.91,1A18.6,18.6,0,0,1,1271.91,431.76Zm-.73-16.05a3.29,3.29,0,0,0-2.59,1.05,4.85,4.85,0,0,0-1.07,3h7.29a4.29,4.29,0,0,0-1-3A3.38,3.38,0,0,0,1271.18,415.71Z" transform="translate(0)"/><path d="M1301.5,431.42h-5.2V420.29a5.42,5.42,0,0,0-.73-3.09,2.67,2.67,0,0,0-2.34-1,3.51,3.51,0,0,0-3.15,1.45,9.07,9.07,0,0,0-1,4.84v9h-5.2V412.37h4l.7,2.43h.29a5.5,5.5,0,0,1,2.39-2.08,8.21,8.21,0,0,1,3.47-.71,6.63,6.63,0,0,1,5,1.8,7.21,7.21,0,0,1,1.73,5.19Z" transform="translate(0)"/><path d="M1326.38,431.76a6.31,6.31,0,0,1-5.27-2.44h-.27q.27,2.39.27,2.76v7.72h-5.2V412.37h4.23l.73,2.47h.24a6,6,0,0,1,5.4-2.83,6.17,6.17,0,0,1,5.28,2.61,12,12,0,0,1,1.91,7.24,14.45,14.45,0,0,1-.89,5.3,7.44,7.44,0,0,1-2.55,3.42A6.49,6.49,0,0,1,1326.38,431.76Zm-1.54-15.59a3.28,3.28,0,0,0-2.81,1.18,6.8,6.8,0,0,0-.92,3.91v.57a8,8,0,0,0,.91,4.39,3.25,3.25,0,0,0,2.89,1.33q3.49,0,3.49-5.76a8.19,8.19,0,0,0-.86-4.22A2.94,2.94,0,0,0,1324.84,416.17Z" transform="translate(0)"/><path d="M1350.09,431.42l-1-2.59H1349a7.65,7.65,0,0,1-2.7,2.29,8.63,8.63,0,0,1-3.62.64,5.83,5.83,0,0,1-4.32-1.57,6,6,0,0,1-1.57-4.46,5,5,0,0,1,2.12-4.48,12.23,12.23,0,0,1,6.39-1.59l3.31-.1v-.84c0-1.93-1-2.89-3-2.89a13.47,13.47,0,0,0-5.37,1.38l-1.72-3.51a15.43,15.43,0,0,1,7.29-1.72,9,9,0,0,1,5.88,1.67,6.16,6.16,0,0,1,2,5.07v12.7Zm-1.53-8.83-2,.07a6.47,6.47,0,0,0-3.37.82,2.56,2.56,0,0,0-1.11,2.28c0,1.47.84,2.2,2.52,2.2a4,4,0,0,0,2.89-1,3.65,3.65,0,0,0,1.08-2.76Z" transform="translate(0)"/><path d="M1372.37,425.76a5.25,5.25,0,0,1-2,4.47q-2,1.53-6.09,1.53a19,19,0,0,1-3.55-.28,13.23,13.23,0,0,1-2.74-.83v-4.29a18.82,18.82,0,0,0,3.26,1.14,13.09,13.09,0,0,0,3.2.46c1.88,0,2.83-.55,2.83-1.64a1.36,1.36,0,0,0-.38-1,5.22,5.22,0,0,0-1.29-.87c-.62-.33-1.43-.7-2.46-1.14a15.62,15.62,0,0,1-3.23-1.7,4.89,4.89,0,0,1-1.5-1.8,6,6,0,0,1-.46-2.49,4.51,4.51,0,0,1,2-3.93,9.59,9.59,0,0,1,5.58-1.39,15.83,15.83,0,0,1,6.7,1.5l-1.57,3.75a27.73,27.73,0,0,0-2.67-1,8.47,8.47,0,0,0-2.54-.39c-1.53,0-2.3.42-2.3,1.24a1.46,1.46,0,0,0,.74,1.21,19.59,19.59,0,0,0,3.25,1.52,15.19,15.19,0,0,1,3.27,1.69,5,5,0,0,1,1.53,1.8A5.59,5.59,0,0,1,1372.37,425.76Z" transform="translate(0)"/><path d="M1389.71,425.76a5.27,5.27,0,0,1-2,4.47q-2,1.53-6.1,1.53a18.94,18.94,0,0,1-3.54-.28,13,13,0,0,1-2.74-.83v-4.29a18.53,18.53,0,0,0,3.26,1.14,13,13,0,0,0,3.2.46c1.88,0,2.82-.55,2.82-1.64a1.35,1.35,0,0,0-.37-1,5.12,5.12,0,0,0-1.3-.87c-.61-.33-1.43-.7-2.45-1.14a15.62,15.62,0,0,1-3.23-1.7,4.71,4.71,0,0,1-1.5-1.8,6,6,0,0,1-.47-2.49,4.52,4.52,0,0,1,2-3.93,9.55,9.55,0,0,1,5.58-1.39,15.83,15.83,0,0,1,6.7,1.5l-1.57,3.75c-1-.41-1.85-.75-2.67-1a8.47,8.47,0,0,0-2.54-.39c-1.54,0-2.3.42-2.3,1.24a1.44,1.44,0,0,0,.74,1.21,19,19,0,0,0,3.24,1.52,15.31,15.31,0,0,1,3.28,1.69,5,5,0,0,1,1.53,1.8A5.59,5.59,0,0,1,1389.71,425.76Z" transform="translate(0)"/><path d="M1393.55,407.44c0-1.69.94-2.54,2.83-2.54s2.82.85,2.82,2.54a2.49,2.49,0,0,1-.7,1.89,3,3,0,0,1-2.12.67C1394.49,410,1393.55,409.15,1393.55,407.44Zm5.42,24h-5.2V412.37h5.2Z" transform="translate(0)"/><path d="M1409,431.42l-7.26-19.05h5.44l3.68,10.85a20,20,0,0,1,.77,3.9h.1a16.34,16.34,0,0,1,.77-3.9l3.66-10.85h5.43l-7.25,19.05Z" transform="translate(0)"/><path d="M1432.89,431.76a9.86,9.86,0,0,1-7.19-2.54q-2.6-2.54-2.59-7.19t2.4-7.4a8.49,8.49,0,0,1,6.62-2.62,8.39,8.39,0,0,1,6.28,2.3,8.7,8.7,0,0,1,2.25,6.36v2.52h-12.28a5,5,0,0,0,1.31,3.46,4.61,4.61,0,0,0,3.44,1.24,14.29,14.29,0,0,0,3.26-.36,15.85,15.85,0,0,0,3.2-1.14v4a12,12,0,0,1-2.91,1A18.6,18.6,0,0,1,1432.89,431.76Zm-.73-16.05a3.29,3.29,0,0,0-2.59,1.05,4.85,4.85,0,0,0-1.07,3h7.29a4.29,4.29,0,0,0-1-3A3.38,3.38,0,0,0,1432.16,415.71Z" transform="translate(0)"/><path d="M149.35,424V399.06h5.28V424Z" transform="translate(0)"/><path d="M181.66,424l-1-2.59h-.14a7.65,7.65,0,0,1-2.7,2.29,8.63,8.63,0,0,1-3.62.64,5.83,5.83,0,0,1-4.32-1.57,6,6,0,0,1-1.57-4.46,5,5,0,0,1,2.12-4.48q2.12-1.44,6.4-1.59l3.3-.1v-.84c0-1.93-1-2.89-3-2.89a13.51,13.51,0,0,0-5.37,1.38l-1.72-3.51a15.43,15.43,0,0,1,7.29-1.72,9,9,0,0,1,5.88,1.67,6.17,6.17,0,0,1,2,5.07V424Zm-1.54-8.83-2,.07a6.47,6.47,0,0,0-3.37.82,2.56,2.56,0,0,0-1.11,2.28c0,1.47.84,2.2,2.52,2.2a4,4,0,0,0,2.89-1,3.65,3.65,0,0,0,1.08-2.76Z" transform="translate(0)"/><path d="M207.69,424H202.5V412.84a5.61,5.61,0,0,0-.69-3.09,2.43,2.43,0,0,0-2.18-1,3.14,3.14,0,0,0-2.89,1.46,9.55,9.55,0,0,0-.91,4.83v9h-5.19V404.92h4l.7,2.43h.28a5.38,5.38,0,0,1,2.22-2.05,7.24,7.24,0,0,1,3.32-.74c2.85,0,4.79.93,5.8,2.79h.46a5.18,5.18,0,0,1,2.25-2.06,7.55,7.55,0,0,1,3.37-.73,6.64,6.64,0,0,1,4.9,1.66c1.11,1.11,1.66,2.88,1.66,5.33V424h-5.21V412.84a5.61,5.61,0,0,0-.69-3.09,2.43,2.43,0,0,0-2.18-1,3.23,3.23,0,0,0-2.85,1.36,7.74,7.74,0,0,0-.95,4.33Z" transform="translate(0)"/><path d="M241.71,424.31q-8.9,0-8.9-9.76,0-4.86,2.42-7.43c1.61-1.71,3.93-2.56,6.94-2.56a13.28,13.28,0,0,1,5.93,1.29l-1.54,4q-1.23-.5-2.28-.81a7.4,7.4,0,0,0-2.11-.32q-4.06,0-4.06,5.76,0,5.6,4.06,5.59a9.09,9.09,0,0,0,2.77-.4,9.92,9.92,0,0,0,2.56-1.25v4.45A8.32,8.32,0,0,1,245,424,14,14,0,0,1,241.71,424.31Z" transform="translate(0)"/><path d="M269.23,414.41a10.23,10.23,0,0,1-2.46,7.28,8.88,8.88,0,0,1-6.83,2.62,9.57,9.57,0,0,1-4.84-1.2,8,8,0,0,1-3.22-3.45,11.6,11.6,0,0,1-1.13-5.25,10.21,10.21,0,0,1,2.44-7.26,9,9,0,0,1,6.85-2.59,9.67,9.67,0,0,1,4.84,1.19,8,8,0,0,1,3.22,3.43A11.48,11.48,0,0,1,269.23,414.41Zm-13.18,0a8,8,0,0,0,.93,4.28,3.34,3.34,0,0,0,3,1.44,3.28,3.28,0,0,0,3-1.44,8.06,8.06,0,0,0,.91-4.28,7.87,7.87,0,0,0-.92-4.24,3.91,3.91,0,0,0-6,0A7.86,7.86,0,0,0,256.05,414.41Z" transform="translate(0)"/><path d="M290.58,424h-5.2V412.84a5.61,5.61,0,0,0-.69-3.09,2.41,2.41,0,0,0-2.17-1,3.16,3.16,0,0,0-2.9,1.46,9.68,9.68,0,0,0-.9,4.83v9h-5.2V404.92h4l.7,2.43h.29a5.35,5.35,0,0,1,2.21-2.05,7.29,7.29,0,0,1,3.33-.74q4.28,0,5.79,2.79h.46a5.15,5.15,0,0,1,2.26-2.06,7.47,7.47,0,0,1,3.36-.73,6.62,6.62,0,0,1,4.9,1.66c1.11,1.11,1.66,2.88,1.66,5.33V424h-5.21V412.84a5.61,5.61,0,0,0-.69-3.09,2.41,2.41,0,0,0-2.17-1,3.24,3.24,0,0,0-2.86,1.36,7.75,7.75,0,0,0-.94,4.33Z" transform="translate(0)"/><path d="M318.32,408.82h-4.5V424h-5.2V408.82h-2.86v-2.51l2.86-1.39v-1.4c0-2.17.54-3.75,1.6-4.75s2.78-1.5,5.13-1.5a13.18,13.18,0,0,1,4.79.8l-1.33,3.81a9.94,9.94,0,0,0-2.89-.49,1.89,1.89,0,0,0-1.61.66,2.67,2.67,0,0,0-.49,1.67v1.2h4.5Z" transform="translate(0)"/><path d="M338.61,414.41a10.23,10.23,0,0,1-2.45,7.28,8.89,8.89,0,0,1-6.83,2.62,9.57,9.57,0,0,1-4.84-1.2,8,8,0,0,1-3.22-3.45,11.6,11.6,0,0,1-1.13-5.25q0-4.67,2.44-7.26a8.93,8.93,0,0,1,6.85-2.59,9.67,9.67,0,0,1,4.84,1.19,8,8,0,0,1,3.22,3.43A11.48,11.48,0,0,1,338.61,414.41Zm-13.17,0a8,8,0,0,0,.93,4.28,3.34,3.34,0,0,0,3,1.44,3.28,3.28,0,0,0,3-1.44,8.16,8.16,0,0,0,.91-4.28,7.87,7.87,0,0,0-.92-4.24,3.91,3.91,0,0,0-6,0A7.86,7.86,0,0,0,325.44,414.41Z" transform="translate(0)"/><path d="M353.54,404.56a8.61,8.61,0,0,1,1.76.15l-.4,4.88a5.67,5.67,0,0,0-1.53-.17,5.53,5.53,0,0,0-3.88,1.27,4.66,4.66,0,0,0-1.38,3.58V424h-5.2V404.92h3.93l.77,3.2h.26a7.14,7.14,0,0,1,2.39-2.58A5.94,5.94,0,0,1,353.54,404.56Z" transform="translate(0)"/><path d="M366.78,420.17a11.18,11.18,0,0,0,3.27-.6v3.87a11.62,11.62,0,0,1-4.77.87,5.84,5.84,0,0,1-4.54-1.58,6.84,6.84,0,0,1-1.42-4.73v-9.18h-2.49v-2.2l2.86-1.74,1.5-4h3.33v4.06h5.33v3.9h-5.33V418a2,2,0,0,0,.62,1.64A2.45,2.45,0,0,0,366.78,420.17Z" transform="translate(0)"/><path d="M386,424l-1-2.59h-.14a7.65,7.65,0,0,1-2.7,2.29,8.67,8.67,0,0,1-3.62.64,5.83,5.83,0,0,1-4.32-1.57,6,6,0,0,1-1.58-4.46,5,5,0,0,1,2.13-4.48,12.23,12.23,0,0,1,6.39-1.59l3.31-.1v-.84c0-1.93-1-2.89-3-2.89a13.47,13.47,0,0,0-5.36,1.38l-1.72-3.51a15.43,15.43,0,0,1,7.29-1.72,9.05,9.05,0,0,1,5.88,1.67,6.16,6.16,0,0,1,2,5.07V424Zm-1.53-8.83-2,.07a6.51,6.51,0,0,0-3.38.82,2.58,2.58,0,0,0-1.1,2.28c0,1.47.84,2.2,2.52,2.2a4,4,0,0,0,2.89-1,3.65,3.65,0,0,0,1.08-2.76Z" transform="translate(0)"/><path d="M405.58,404.56a6.19,6.19,0,0,1,5.29,2.63,12.11,12.11,0,0,1,1.9,7.22c0,3.15-.65,5.58-2,7.31a6.37,6.37,0,0,1-5.36,2.59,6.31,6.31,0,0,1-5.27-2.44h-.36L399,424h-4V397.45h5.2v6.17c0,.79-.07,2-.2,3.77h.2A6,6,0,0,1,405.58,404.56Zm-1.67,4.16a3.28,3.28,0,0,0-2.81,1.18,6.8,6.8,0,0,0-.92,3.91v.57a8,8,0,0,0,.91,4.39A3.25,3.25,0,0,0,404,420.1a2.9,2.9,0,0,0,2.55-1.47,8,8,0,0,0,.94-4.29,7.55,7.55,0,0,0-1-4.22A3,3,0,0,0,403.91,408.72Z" transform="translate(0)"/><path d="M422.27,424h-5.2V397.45h5.2Z" transform="translate(0)"/><path d="M436.34,424.31a9.84,9.84,0,0,1-7.19-2.54q-2.59-2.53-2.59-7.19t2.39-7.4a8.52,8.52,0,0,1,6.62-2.62,8.4,8.4,0,0,1,6.29,2.3,8.7,8.7,0,0,1,2.25,6.36v2.52H431.83a5,5,0,0,0,1.31,3.46,4.61,4.61,0,0,0,3.44,1.24,14.13,14.13,0,0,0,3.25-.36,15.93,15.93,0,0,0,3.21-1.14v4a11.88,11.88,0,0,1-2.92,1A18.43,18.43,0,0,1,436.34,424.31Zm-.73-16.05a3.29,3.29,0,0,0-2.59,1.05,4.85,4.85,0,0,0-1.08,3h7.3a4.34,4.34,0,0,0-1-3A3.4,3.4,0,0,0,435.61,408.26Z" transform="translate(0)"/><path d="M188.93,598.25V573.33h5.29v24.92Z" transform="translate(0)"/><path d="M221.24,598.25l-1-2.59h-.14a7.74,7.74,0,0,1-2.7,2.29,8.67,8.67,0,0,1-3.62.64,5.83,5.83,0,0,1-4.32-1.57,6,6,0,0,1-1.58-4.46,5,5,0,0,1,2.12-4.48,12.3,12.3,0,0,1,6.4-1.59l3.31-.1v-.84c0-1.93-1-2.89-3-2.89a13.47,13.47,0,0,0-5.36,1.38l-1.73-3.51a15.5,15.5,0,0,1,7.3-1.72,9.07,9.07,0,0,1,5.88,1.67,6.16,6.16,0,0,1,2,5.07v12.7Zm-1.53-8.83-2,.07a6.42,6.42,0,0,0-3.38.82,2.56,2.56,0,0,0-1.1,2.28c0,1.47.84,2.2,2.52,2.2a4,4,0,0,0,2.89-1,3.65,3.65,0,0,0,1.08-2.76Z" transform="translate(0)"/><path d="M247.28,598.25h-5.2V587.12a5.61,5.61,0,0,0-.69-3.09,2.41,2.41,0,0,0-2.17-1,3.16,3.16,0,0,0-2.9,1.46,9.66,9.66,0,0,0-.9,4.82v9h-5.2v-19h4l.7,2.43h.29a5.26,5.26,0,0,1,2.22-2,7.22,7.22,0,0,1,3.32-.74q4.28,0,5.79,2.79H247a5.21,5.21,0,0,1,2.26-2.06,7.52,7.52,0,0,1,3.37-.73,6.65,6.65,0,0,1,4.9,1.66c1.1,1.11,1.66,2.88,1.66,5.33v12.42h-5.22V587.12a5.61,5.61,0,0,0-.69-3.09,2.41,2.41,0,0,0-2.17-1,3.23,3.23,0,0,0-2.85,1.36,7.65,7.65,0,0,0-.95,4.33Z" transform="translate(0)"/><path d="M285.65,598.25l-1-2.59h-.14a7.65,7.65,0,0,1-2.7,2.29,8.63,8.63,0,0,1-3.62.64,5.83,5.83,0,0,1-4.32-1.57,6,6,0,0,1-1.58-4.46,5,5,0,0,1,2.13-4.48,12.23,12.23,0,0,1,6.39-1.59l3.31-.1v-.84c0-1.93-1-2.89-3-2.89a13.47,13.47,0,0,0-5.37,1.38l-1.72-3.51a15.43,15.43,0,0,1,7.29-1.72,9,9,0,0,1,5.88,1.67,6.16,6.16,0,0,1,2,5.07v12.7Zm-1.53-8.83-2,.07a6.35,6.35,0,0,0-3.37.82,2.56,2.56,0,0,0-1.11,2.28c0,1.47.84,2.2,2.52,2.2a4,4,0,0,0,2.89-1,3.65,3.65,0,0,0,1.08-2.76Z" transform="translate(0)"/><path d="M302.37,598.59q-8.89,0-8.89-9.77c0-3.23.8-5.71,2.42-7.42s3.92-2.56,6.93-2.56a13.28,13.28,0,0,1,5.93,1.29l-1.53,4c-.82-.33-1.58-.6-2.29-.81a7.3,7.3,0,0,0-2.11-.32q-4.05,0-4.05,5.76,0,5.6,4.05,5.59a9.16,9.16,0,0,0,2.78-.4,10,10,0,0,0,2.55-1.25v4.44a8.17,8.17,0,0,1-2.54,1.11A14,14,0,0,1,302.37,598.59Z" transform="translate(0)"/><path d="M320.6,594.45a11.29,11.29,0,0,0,3.28-.6v3.87a11.7,11.7,0,0,1-4.78.87,5.86,5.86,0,0,1-4.54-1.58,6.84,6.84,0,0,1-1.42-4.73V583.1h-2.49v-2.2l2.87-1.74,1.49-4h3.33v4.06h5.33v3.9h-5.33v9.18a2,2,0,0,0,.62,1.64A2.45,2.45,0,0,0,320.6,594.45Z" transform="translate(0)"/><path d="M327.51,574.27c0-1.69.94-2.54,2.82-2.54s2.83.85,2.83,2.54a2.49,2.49,0,0,1-.7,1.89,3,3,0,0,1-2.13.67C328.45,576.83,327.51,576,327.51,574.27Zm5.41,24h-5.19v-19h5.19Z" transform="translate(0)"/><path d="M342.91,598.25l-7.26-19h5.44l3.68,10.85a19.25,19.25,0,0,1,.76,3.9h.11a16.77,16.77,0,0,1,.76-3.9l3.67-10.85h5.43l-7.26,19Z" transform="translate(0)"/><path d="M366.85,598.59a9.84,9.84,0,0,1-7.19-2.54q-2.6-2.53-2.59-7.19t2.39-7.41a8.55,8.55,0,0,1,6.62-2.61,8.4,8.4,0,0,1,6.29,2.3,8.7,8.7,0,0,1,2.25,6.36V590H362.34a5,5,0,0,0,1.31,3.46,4.61,4.61,0,0,0,3.44,1.24,14.29,14.29,0,0,0,3.26-.36,16.49,16.49,0,0,0,3.2-1.14v4a11.88,11.88,0,0,1-2.92,1A18.43,18.43,0,0,1,366.85,598.59Zm-.73-16.05a3.32,3.32,0,0,0-2.59,1,4.82,4.82,0,0,0-1.07,3h7.29a4.32,4.32,0,0,0-1-3A3.41,3.41,0,0,0,366.12,582.54Z" transform="translate(0)"/><path d="M75.52,850.72V825.81H80.8v24.91Z" transform="translate(0)"/><path d="M107.83,850.72l-1-2.59h-.13a7.72,7.72,0,0,1-2.7,2.29,8.7,8.7,0,0,1-3.62.64,5.87,5.87,0,0,1-4.32-1.56A6,6,0,0,1,94.47,845a5,5,0,0,1,2.12-4.47A12.39,12.39,0,0,1,103,839l3.31-.1V838c0-1.93-1-2.9-3-2.9A13.55,13.55,0,0,0,98,836.51L96.24,833a15.47,15.47,0,0,1,7.3-1.72,9,9,0,0,1,5.87,1.67,6.14,6.14,0,0,1,2,5.08v12.69Zm-1.53-8.83-2,.07a6.48,6.48,0,0,0-3.38.82,2.56,2.56,0,0,0-1.11,2.28c0,1.47.84,2.2,2.53,2.2a4,4,0,0,0,2.88-1,3.62,3.62,0,0,0,1.09-2.76Z" transform="translate(0)"/><path d="M133.87,850.72h-5.2V839.59a5.61,5.61,0,0,0-.69-3.09,2.41,2.41,0,0,0-2.17-1,3.15,3.15,0,0,0-2.9,1.47,9.61,9.61,0,0,0-.9,4.82v9h-5.2V831.67h4l.7,2.44h.29a5.31,5.31,0,0,1,2.21-2.06,7.29,7.29,0,0,1,3.33-.74q4.27,0,5.79,2.8h.46a5,5,0,0,1,2.26-2.06,7.48,7.48,0,0,1,3.36-.74,6.66,6.66,0,0,1,4.9,1.66q1.66,1.66,1.66,5.33v12.42h-5.21V839.59a5.61,5.61,0,0,0-.69-3.09,2.41,2.41,0,0,0-2.17-1,3.25,3.25,0,0,0-2.86,1.36,7.77,7.77,0,0,0-.94,4.33Z" transform="translate(0)"/><path d="M172.24,850.72l-1-2.59h-.14a7.55,7.55,0,0,1-2.7,2.29,8.67,8.67,0,0,1-3.62.64,5.87,5.87,0,0,1-4.32-1.56,6,6,0,0,1-1.58-4.47,5,5,0,0,1,2.12-4.47,12.39,12.39,0,0,1,6.4-1.6l3.31-.1V838c0-1.93-1-2.9-3-2.9a13.47,13.47,0,0,0-5.36,1.38L160.65,833a15.5,15.5,0,0,1,7.3-1.72,9.07,9.07,0,0,1,5.88,1.67,6.17,6.17,0,0,1,2,5.08v12.69Zm-1.53-8.83-2,.07a6.51,6.51,0,0,0-3.38.82,2.56,2.56,0,0,0-1.1,2.28c0,1.47.84,2.2,2.52,2.2a4,4,0,0,0,2.89-1,3.65,3.65,0,0,0,1.08-2.76Z" transform="translate(0)"/><path d="M198.81,850.72h-5.2V839.59a5.34,5.34,0,0,0-.73-3.09,2.67,2.67,0,0,0-2.34-1,3.52,3.52,0,0,0-3.15,1.46,9,9,0,0,0-1,4.83v9h-5.2V831.67h4l.7,2.44h.29a5.49,5.49,0,0,1,2.4-2.09,8.13,8.13,0,0,1,3.46-.71,6.67,6.67,0,0,1,5.05,1.8,7.25,7.25,0,0,1,1.72,5.19Z" transform="translate(0)"/><path d="M220.74,831.67v2.64l-3,.77a5.22,5.22,0,0,1,.82,2.86,5.79,5.79,0,0,1-2.14,4.78,9.29,9.29,0,0,1-5.94,1.71l-.94,0-.77-.08a1.73,1.73,0,0,0-.8,1.36c0,.75,1,1.13,2.87,1.13h3.23a7.36,7.36,0,0,1,4.78,1.34,4.81,4.81,0,0,1,1.65,4,5.88,5.88,0,0,1-2.79,5.19c-1.86,1.22-4.52,1.84-8,1.84a11.11,11.11,0,0,1-6.09-1.39,4.44,4.44,0,0,1-2.11-3.9,4.09,4.09,0,0,1,1.08-2.88,6.07,6.07,0,0,1,3.15-1.65,3.54,3.54,0,0,1-1.4-1.12,2.76,2.76,0,0,1,0-3.46,7.52,7.52,0,0,1,1.82-1.42,5.1,5.1,0,0,1-2.38-2.08,6.36,6.36,0,0,1-.87-3.37,5.94,5.94,0,0,1,2-4.82,8.78,8.78,0,0,1,5.8-1.71,14.34,14.34,0,0,1,1.9.15c.73.09,1.2.16,1.4.21ZM206,853.41a1.9,1.9,0,0,0,1,1.69,5.67,5.67,0,0,0,2.89.61,10.22,10.22,0,0,0,4.38-.76,2.34,2.34,0,0,0,1.59-2.1,1.49,1.49,0,0,0-.94-1.48,7.75,7.75,0,0,0-2.9-.41h-2.69a4.06,4.06,0,0,0-2.39.67A2.07,2.07,0,0,0,206,853.41Zm1.89-15.5a3.88,3.88,0,0,0,.71,2.45,2.57,2.57,0,0,0,2.16.9,2.54,2.54,0,0,0,2.15-.9,4,4,0,0,0,.68-2.45c0-2.3-1-3.45-2.83-3.45S207.92,835.61,207.92,837.91Z" transform="translate(0)"/><path d="M234.51,831.31a7.78,7.78,0,0,1,1.75.16l-.39,4.87a6.1,6.1,0,0,0-1.53-.17,5.53,5.53,0,0,0-3.88,1.28,4.63,4.63,0,0,0-1.39,3.58v9.69h-5.19V831.67h3.93l.77,3.2h.25a7.25,7.25,0,0,1,2.4-2.58A5.92,5.92,0,0,1,234.51,831.31Z" transform="translate(0)"/><path d="M237,831.67h5.69l3.59,10.72a14.44,14.44,0,0,1,.63,3.3H247a13.93,13.93,0,0,1,.73-3.3l3.53-10.72h5.57l-8.06,21.49a9.29,9.29,0,0,1-3.16,4.46,8,8,0,0,1-4.8,1.49,12.2,12.2,0,0,1-2.64-.29v-4.13a8.74,8.74,0,0,0,2,.22,3.73,3.73,0,0,0,2.42-.84,5.53,5.53,0,0,0,1.61-2.55l.3-.94Z" transform="translate(0)"/><path d="M669.45,363.31V338.4h5.28v24.91Z" transform="translate(0)"/><path d="M701.76,363.31l-1-2.59h-.14a7.55,7.55,0,0,1-2.7,2.29,8.63,8.63,0,0,1-3.62.64,5.83,5.83,0,0,1-4.32-1.57,6,6,0,0,1-1.57-4.46,5,5,0,0,1,2.12-4.47c1.41-1,3.55-1.49,6.4-1.6l3.3-.1v-.83c0-1.93-1-2.9-3-2.9a13.55,13.55,0,0,0-5.37,1.38l-1.72-3.51a15.43,15.43,0,0,1,7.29-1.72,9,9,0,0,1,5.88,1.67,6.17,6.17,0,0,1,2,5.08v12.69Zm-1.54-8.83-2,.07a6.47,6.47,0,0,0-3.37.82,2.56,2.56,0,0,0-1.11,2.28c0,1.47.84,2.2,2.52,2.2a4,4,0,0,0,2.89-1,3.65,3.65,0,0,0,1.08-2.76Z" transform="translate(0)"/><path d="M727.79,363.31H722.6V352.18a5.61,5.61,0,0,0-.69-3.09,2.43,2.43,0,0,0-2.18-1,3.13,3.13,0,0,0-2.89,1.47,9.48,9.48,0,0,0-.91,4.82v9h-5.19V344.26h4l.7,2.44h.29a5.25,5.25,0,0,1,2.21-2.06,7.24,7.24,0,0,1,3.32-.74c2.85,0,4.79.93,5.8,2.8h.46a5.12,5.12,0,0,1,2.26-2.07,7.61,7.61,0,0,1,3.36-.73,6.68,6.68,0,0,1,4.9,1.66q1.66,1.67,1.66,5.33v12.42h-5.21V352.18a5.61,5.61,0,0,0-.69-3.09,2.43,2.43,0,0,0-2.18-1,3.23,3.23,0,0,0-2.85,1.36,7.74,7.74,0,0,0-1,4.33Z" transform="translate(0)"/><path d="M764.7,343.9a7.88,7.88,0,0,1,1.76.16l-.39,4.87a6.18,6.18,0,0,0-1.54-.17,5.45,5.45,0,0,0-3.87,1.28,4.6,4.6,0,0,0-1.39,3.58v9.69h-5.2V344.26H758l.76,3.2H759a7.31,7.31,0,0,1,2.39-2.58A5.94,5.94,0,0,1,764.7,343.9Z" transform="translate(0)"/><path d="M778.54,363.65a9.8,9.8,0,0,1-7.19-2.54q-2.6-2.53-2.59-7.19t2.39-7.4a8.52,8.52,0,0,1,6.62-2.62,8.4,8.4,0,0,1,6.29,2.3,8.71,8.71,0,0,1,2.25,6.36v2.52H774a5,5,0,0,0,1.32,3.46,4.59,4.59,0,0,0,3.44,1.24,14.72,14.72,0,0,0,3.25-.35,16,16,0,0,0,3.21-1.15v4a12.29,12.29,0,0,1-2.92,1A18.43,18.43,0,0,1,778.54,363.65Zm-.73-16a3.29,3.29,0,0,0-2.59,1,4.82,4.82,0,0,0-1.08,3h7.3a4.36,4.36,0,0,0-1-3A3.4,3.4,0,0,0,777.81,347.6Z" transform="translate(0)"/><path d="M795.73,363.31h-5.19V336.8h5.19Z" transform="translate(0)"/><path d="M813.29,363.31l-1-2.59h-.14a7.55,7.55,0,0,1-2.7,2.29,8.63,8.63,0,0,1-3.62.64,5.83,5.83,0,0,1-4.32-1.57,6,6,0,0,1-1.57-4.46,5,5,0,0,1,2.12-4.47q2.12-1.44,6.4-1.6l3.3-.1v-.83c0-1.93-1-2.9-3-2.9a13.51,13.51,0,0,0-5.37,1.38l-1.72-3.51a15.43,15.43,0,0,1,7.29-1.72,9,9,0,0,1,5.88,1.67,6.17,6.17,0,0,1,2,5.08v12.69Zm-1.54-8.83-2,.07a6.47,6.47,0,0,0-3.37.82,2.56,2.56,0,0,0-1.11,2.28c0,1.47.84,2.2,2.52,2.2a4,4,0,0,0,2.89-1,3.65,3.65,0,0,0,1.08-2.76Z" transform="translate(0)"/><path d="M826.17,353.58,820,344.26h5.9l3.7,6.07,3.73-6.07h5.9l-6.21,9.32,6.49,9.73h-5.91l-4-6.53-4,6.53h-5.9Z" transform="translate(0)"/><path d="M851.06,363.65a9.82,9.82,0,0,1-7.19-2.54c-1.72-1.69-2.59-4.09-2.59-7.19s.8-5.66,2.4-7.4a9.71,9.71,0,0,1,12.91-.32,8.75,8.75,0,0,1,2.24,6.36v2.52H846.55a5,5,0,0,0,1.31,3.46,4.62,4.62,0,0,0,3.44,1.24,14.81,14.81,0,0,0,3.26-.35,15.91,15.91,0,0,0,3.2-1.15v4a12.37,12.37,0,0,1-2.91,1A18.6,18.6,0,0,1,851.06,363.65Zm-.73-16a3.3,3.3,0,0,0-2.59,1,4.87,4.87,0,0,0-1.07,3H854a4.35,4.35,0,0,0-1-3A3.42,3.42,0,0,0,850.33,347.6Z" transform="translate(0)"/><path d="M869.09,363.65a6.19,6.19,0,0,1-5.27-2.61,11.94,11.94,0,0,1-1.92-7.22c0-3.12.65-5.56,2-7.3a6.34,6.34,0,0,1,5.38-2.62,6.2,6.2,0,0,1,5.49,2.8h.17a21.38,21.38,0,0,1-.39-3.8v-6.1h5.21v26.51h-4l-1-2.47h-.22A6,6,0,0,1,869.09,363.65Zm1.83-4.14a3.52,3.52,0,0,0,2.92-1.16,6.66,6.66,0,0,0,1-3.93v-.57a7.77,7.77,0,0,0-.94-4.39,3.51,3.51,0,0,0-3.08-1.33,3,3,0,0,0-2.7,1.47,7.88,7.88,0,0,0-1,4.29,7.4,7.4,0,0,0,1,4.21A3.17,3.17,0,0,0,870.92,359.51Z" transform="translate(0)"/><path d="M173.49,1050.29v-24.91h5.28v24.91Z" transform="translate(0)"/><path d="M205.79,1050.29l-1-2.59h-.14A7.55,7.55,0,0,1,202,1050a8.63,8.63,0,0,1-3.62.64,5.87,5.87,0,0,1-4.32-1.56,6,6,0,0,1-1.58-4.47,5,5,0,0,1,2.13-4.47q2.12-1.44,6.4-1.6l3.3-.1v-.83c0-1.93-1-2.9-3-2.9a13.47,13.47,0,0,0-5.37,1.38l-1.72-3.51a15.43,15.43,0,0,1,7.29-1.72,9.09,9.09,0,0,1,5.88,1.67,6.18,6.18,0,0,1,2,5.08v12.69Zm-1.53-8.83-2,.07a6.44,6.44,0,0,0-3.37.82,2.56,2.56,0,0,0-1.11,2.28c0,1.47.84,2.2,2.52,2.2a4,4,0,0,0,2.89-1,3.65,3.65,0,0,0,1.08-2.76Z" transform="translate(0)"/><path d="M231.83,1050.29h-5.2v-11.12a5.63,5.63,0,0,0-.69-3.1,2.41,2.41,0,0,0-2.17-1,3.13,3.13,0,0,0-2.89,1.47,9.48,9.48,0,0,0-.91,4.82v9h-5.2v-19h4l.69,2.44h.29a5.28,5.28,0,0,1,2.22-2.06,7.22,7.22,0,0,1,3.32-.74q4.28,0,5.8,2.8h.46a5.07,5.07,0,0,1,2.25-2.06,7.55,7.55,0,0,1,3.37-.74,6.68,6.68,0,0,1,4.9,1.66q1.66,1.67,1.66,5.33v12.42H238.5v-11.12a5.53,5.53,0,0,0-.7-3.1,2.41,2.41,0,0,0-2.17-1,3.25,3.25,0,0,0-2.85,1.36,7.76,7.76,0,0,0-.95,4.33Z" transform="translate(0)"/><path d="M275.69,1050.29H270.5v-11.12a5.35,5.35,0,0,0-.74-3.1,2.64,2.64,0,0,0-2.33-1,3.51,3.51,0,0,0-3.15,1.46,9,9,0,0,0-1,4.83v9h-5.2v-19h4l.7,2.44h.29a5.46,5.46,0,0,1,2.39-2.09,8.18,8.18,0,0,1,3.47-.71,6.64,6.64,0,0,1,5,1.8,7.21,7.21,0,0,1,1.72,5.19Z" transform="translate(0)"/><path d="M289.67,1050.63a9.79,9.79,0,0,1-7.19-2.54q-2.6-2.53-2.59-7.19c0-3.19.79-5.66,2.39-7.4a8.51,8.51,0,0,1,6.62-2.62,8.41,8.41,0,0,1,6.29,2.3,8.73,8.73,0,0,1,2.25,6.36v2.52H285.15a5.05,5.05,0,0,0,1.31,3.46,4.63,4.63,0,0,0,3.45,1.24,14.2,14.2,0,0,0,3.25-.35,15.91,15.91,0,0,0,3.2-1.15v4a12.22,12.22,0,0,1-2.91,1A18.43,18.43,0,0,1,289.67,1050.63Zm-.74-16.05a3.3,3.3,0,0,0-2.59,1.05,4.87,4.87,0,0,0-1.07,3h7.29a4.3,4.3,0,0,0-1-3A3.41,3.41,0,0,0,288.93,1034.58Z" transform="translate(0)"/><path d="M312.3,1030.88a7.78,7.78,0,0,1,1.75.16l-.39,4.87a6.1,6.1,0,0,0-1.53-.17,5.53,5.53,0,0,0-3.88,1.28,4.6,4.6,0,0,0-1.39,3.58v9.69h-5.2v-19h3.94l.77,3.2h.25a7.25,7.25,0,0,1,2.4-2.58A5.92,5.92,0,0,1,312.3,1030.88Z" transform="translate(0)"/><path d="M322,1050.29l-7.26-19h5.44l3.68,10.86a19,19,0,0,1,.77,3.9h.1a16.85,16.85,0,0,1,.77-3.9l3.66-10.86h5.44l-7.26,19Z" transform="translate(0)"/><path d="M354.68,1040.73a10.23,10.23,0,0,1-2.46,7.28,8.88,8.88,0,0,1-6.83,2.62,9.57,9.57,0,0,1-4.84-1.2,8,8,0,0,1-3.22-3.45,11.6,11.6,0,0,1-1.13-5.25,10.21,10.21,0,0,1,2.44-7.26,9,9,0,0,1,6.85-2.59,9.57,9.57,0,0,1,4.84,1.2,7.89,7.89,0,0,1,3.22,3.42A11.48,11.48,0,0,1,354.68,1040.73Zm-13.18,0a8,8,0,0,0,.93,4.28,3.32,3.32,0,0,0,3,1.45,3.28,3.28,0,0,0,3-1.44,8.1,8.1,0,0,0,.91-4.29,7.9,7.9,0,0,0-.92-4.24,3.93,3.93,0,0,0-6,0A7.89,7.89,0,0,0,341.5,1040.73Z" transform="translate(0)"/><path d="M372.47,1050.29l-.7-2.43h-.28a5.45,5.45,0,0,1-2.36,2.05,8.17,8.17,0,0,1-3.5.72,6.65,6.65,0,0,1-5.06-1.8,7.24,7.24,0,0,1-1.7-5.17v-12.42h5.19v11.13a5.34,5.34,0,0,0,.74,3.09,2.65,2.65,0,0,0,2.33,1,3.49,3.49,0,0,0,3.15-1.45,9.06,9.06,0,0,0,1-4.84v-9h5.19v19Z" transform="translate(0)"/><path d="M395.2,1044.63a5.24,5.24,0,0,1-2,4.47q-2,1.53-6.09,1.53a19,19,0,0,1-3.55-.28,13.85,13.85,0,0,1-2.74-.82v-4.3a17.29,17.29,0,0,0,3.26,1.14,13.09,13.09,0,0,0,3.2.46c1.89,0,2.83-.54,2.83-1.63a1.38,1.38,0,0,0-.38-1,5.22,5.22,0,0,0-1.29-.87c-.61-.32-1.43-.7-2.46-1.13a15.18,15.18,0,0,1-3.22-1.71,4.76,4.76,0,0,1-1.5-1.79,5.84,5.84,0,0,1-.47-2.5,4.52,4.52,0,0,1,2-3.93,9.62,9.62,0,0,1,5.58-1.39,15.82,15.82,0,0,1,6.69,1.5l-1.56,3.75c-1-.41-1.85-.74-2.68-1a8.48,8.48,0,0,0-2.54-.4c-1.53,0-2.3.42-2.3,1.25a1.48,1.48,0,0,0,.74,1.21,20.75,20.75,0,0,0,3.25,1.51,15.4,15.4,0,0,1,3.27,1.69,5,5,0,0,1,1.53,1.81A5.52,5.52,0,0,1,395.2,1044.63Z" transform="translate(0)"/><path d="M543.86,1213v-24.91h5.29V1213Z" transform="translate(0)"/><path d="M576.17,1213l-1-2.59H575a7.63,7.63,0,0,1-2.7,2.29,8.67,8.67,0,0,1-3.62.64,5.83,5.83,0,0,1-4.32-1.57,6,6,0,0,1-1.58-4.46,5.06,5.06,0,0,1,2.12-4.48,12.4,12.4,0,0,1,6.4-1.59l3.31-.1v-.84c0-1.93-1-2.89-3-2.89a13.47,13.47,0,0,0-5.36,1.38l-1.73-3.51a15.5,15.5,0,0,1,7.3-1.72,9.07,9.07,0,0,1,5.88,1.67,6.16,6.16,0,0,1,2,5.07V1213Zm-1.53-8.83-2,.07a6.51,6.51,0,0,0-3.38.82,2.56,2.56,0,0,0-1.1,2.28c0,1.47.84,2.2,2.52,2.2a4,4,0,0,0,2.89-1,3.65,3.65,0,0,0,1.08-2.76Z" transform="translate(0)"/><path d="M602.21,1213H597v-11.13a5.61,5.61,0,0,0-.69-3.09,2.41,2.41,0,0,0-2.17-1,3.16,3.16,0,0,0-2.9,1.46,9.68,9.68,0,0,0-.9,4.83v9h-5.2v-19h4l.7,2.44h.29a5.28,5.28,0,0,1,2.22-2.06,7.22,7.22,0,0,1,3.32-.74q4.27,0,5.79,2.8h.46a5.17,5.17,0,0,1,2.26-2.07,7.65,7.65,0,0,1,3.37-.73,6.65,6.65,0,0,1,4.9,1.66c1.1,1.11,1.66,2.88,1.66,5.33V1213h-5.22v-11.13a5.61,5.61,0,0,0-.69-3.09,2.41,2.41,0,0,0-2.17-1,3.23,3.23,0,0,0-2.85,1.36,7.65,7.65,0,0,0-.95,4.33Z" transform="translate(0)"/><path d="M628.26,1189c0-1.69,1-2.53,2.83-2.53s2.83.84,2.83,2.53a2.46,2.46,0,0,1-.71,1.89,3,3,0,0,1-2.12.67C629.21,1191.55,628.26,1190.7,628.26,1189Zm5.42,24h-5.19v-19h5.19Z" transform="translate(0)"/><path d="M649.77,1193.56a8.5,8.5,0,0,1,1.75.15l-.39,4.88a5.67,5.67,0,0,0-1.53-.17,5.49,5.49,0,0,0-3.88,1.28,4.62,4.62,0,0,0-1.39,3.57v9.7h-5.19v-19h3.93l.77,3.2h.25a7.17,7.17,0,0,1,2.4-2.58A5.92,5.92,0,0,1,649.77,1193.56Z" transform="translate(0)"/><path d="M665.62,1193.56a8.5,8.5,0,0,1,1.75.15l-.39,4.88a5.67,5.67,0,0,0-1.53-.17,5.49,5.49,0,0,0-3.88,1.28,4.59,4.59,0,0,0-1.39,3.57v9.7H655v-19h3.94l.77,3.2h.25a7.08,7.08,0,0,1,2.4-2.58A5.92,5.92,0,0,1,665.62,1193.56Z" transform="translate(0)"/><path d="M670.61,1189c0-1.69.94-2.53,2.83-2.53s2.83.84,2.83,2.53a2.5,2.5,0,0,1-.71,1.89,3,3,0,0,1-2.12.67C671.55,1191.55,670.61,1190.7,670.61,1189Zm5.42,24h-5.2v-19H676Z" transform="translate(0)"/><path d="M689.51,1209.17a11.18,11.18,0,0,0,3.27-.6v3.87a11.68,11.68,0,0,1-4.77.87c-2.08,0-3.59-.52-4.54-1.58A6.83,6.83,0,0,1,682,1207v-9.19h-2.48v-2.2l2.86-1.74,1.5-4h3.32v4.06h5.34v3.9h-5.34V1207a2,2,0,0,0,.62,1.63A2.49,2.49,0,0,0,689.51,1209.17Z" transform="translate(0)"/><path d="M708.73,1213l-1-2.59h-.13a7.72,7.72,0,0,1-2.7,2.29,8.7,8.7,0,0,1-3.62.64,5.83,5.83,0,0,1-4.32-1.57,6,6,0,0,1-1.58-4.46,5.06,5.06,0,0,1,2.12-4.48,12.4,12.4,0,0,1,6.4-1.59l3.31-.1v-.84c0-1.93-1-2.89-3-2.89a13.55,13.55,0,0,0-5.37,1.38l-1.72-3.51a15.47,15.47,0,0,1,7.3-1.72,9,9,0,0,1,5.87,1.67,6.14,6.14,0,0,1,2.05,5.07V1213Zm-1.53-8.83-2,.07a6.48,6.48,0,0,0-3.38.82,2.56,2.56,0,0,0-1.11,2.28c0,1.47.84,2.2,2.53,2.2a4,4,0,0,0,2.88-1,3.65,3.65,0,0,0,1.09-2.76Z" transform="translate(0)"/><path d="M725.74,1209.17a11.23,11.23,0,0,0,3.27-.6v3.87a11.68,11.68,0,0,1-4.77.87c-2.08,0-3.6-.52-4.55-1.58a6.88,6.88,0,0,1-1.42-4.72v-9.19h-2.49v-2.2l2.87-1.74,1.5-4h3.32v4.06h5.33v3.9h-5.33V1207a2,2,0,0,0,.62,1.63A2.48,2.48,0,0,0,725.74,1209.17Z" transform="translate(0)"/><path d="M741.48,1213.31a9.84,9.84,0,0,1-7.19-2.54q-2.6-2.54-2.59-7.19t2.39-7.4a8.52,8.52,0,0,1,6.62-2.62,8.4,8.4,0,0,1,6.29,2.3,8.7,8.7,0,0,1,2.25,6.36v2.52H737a5,5,0,0,0,1.31,3.46,4.61,4.61,0,0,0,3.44,1.24,14.13,14.13,0,0,0,3.25-.36,15.34,15.34,0,0,0,3.21-1.14v4a11.88,11.88,0,0,1-2.92,1A18.43,18.43,0,0,1,741.48,1213.31Zm-.73-16a3.29,3.29,0,0,0-2.59,1,4.85,4.85,0,0,0-1.08,3h7.3a4.34,4.34,0,0,0-1-3A3.38,3.38,0,0,0,740.75,1197.26Z" transform="translate(0)"/><path d="M759.51,1213.31a6.17,6.17,0,0,1-5.27-2.61,12,12,0,0,1-1.92-7.22q0-4.7,1.95-7.3a6.32,6.32,0,0,1,5.38-2.62,6.2,6.2,0,0,1,5.48,2.8h.17a21.38,21.38,0,0,1-.39-3.8v-6.1h5.22V1213h-4l-1-2.47h-.22A6,6,0,0,1,759.51,1213.31Zm1.82-4.14a3.55,3.55,0,0,0,2.93-1.16,6.83,6.83,0,0,0,1-3.94v-.56a7.76,7.76,0,0,0-.95-4.39,3.49,3.49,0,0,0-3.07-1.33,3,3,0,0,0-2.7,1.47,7.87,7.87,0,0,0-1,4.29,7.39,7.39,0,0,0,1,4.21A3.15,3.15,0,0,0,761.33,1209.17Z" transform="translate(0)"/><path d="M1259.63,998.7V973.79h5.28V998.7Z" transform="translate(0)"/><path d="M1275,973.79l.24.37a52.47,52.47,0,0,1-3,8.16h-3.73c.79-3.36,1.35-6.21,1.71-8.53Z" transform="translate(0)"/><path d="M1295.4,998.7h-5.2V987.57a5.61,5.61,0,0,0-.69-3.09,2.43,2.43,0,0,0-2.18-1,3.15,3.15,0,0,0-2.89,1.46,9.68,9.68,0,0,0-.9,4.83v9h-5.2V979.65h4l.7,2.43h.29a5.29,5.29,0,0,1,2.21-2.05,7.24,7.24,0,0,1,3.32-.74q4.29,0,5.8,2.79h.46a5.15,5.15,0,0,1,2.26-2.06,7.47,7.47,0,0,1,3.36-.73,6.64,6.64,0,0,1,4.9,1.66c1.11,1.11,1.66,2.88,1.66,5.33V998.7h-5.21V987.57a5.61,5.61,0,0,0-.69-3.09,2.43,2.43,0,0,0-2.17-1,3.24,3.24,0,0,0-2.86,1.36,7.75,7.75,0,0,0-.94,4.33Z" transform="translate(0)"/><path d="M1333.77,998.7l-1-2.59h-.13a7.83,7.83,0,0,1-2.7,2.29,8.7,8.7,0,0,1-3.62.64,5.83,5.83,0,0,1-4.32-1.57,6,6,0,0,1-1.58-4.46,5,5,0,0,1,2.12-4.48,12.3,12.3,0,0,1,6.4-1.59l3.31-.1V986c0-1.93-1-2.89-3-2.89a13.55,13.55,0,0,0-5.37,1.38l-1.72-3.51a15.51,15.51,0,0,1,7.3-1.73,9.13,9.13,0,0,1,5.88,1.67,6.19,6.19,0,0,1,2,5.08v12.7Zm-1.53-8.83-2,.07a6.48,6.48,0,0,0-3.38.82,2.56,2.56,0,0,0-1.11,2.28c0,1.47.84,2.2,2.53,2.2a4,4,0,0,0,2.88-1,3.62,3.62,0,0,0,1.09-2.76Z" transform="translate(0)"/><path d="M1360.34,998.7h-5.2V987.57a5.42,5.42,0,0,0-.73-3.09,2.67,2.67,0,0,0-2.34-1,3.51,3.51,0,0,0-3.15,1.45,9.07,9.07,0,0,0-1,4.84v9h-5.2V979.65h4l.7,2.43h.29a5.5,5.5,0,0,1,2.39-2.08,8.21,8.21,0,0,1,3.47-.71,6.67,6.67,0,0,1,5,1.8,7.25,7.25,0,0,1,1.72,5.19Z" transform="translate(0)"/><path d="M1369.59,989l-6.13-9.32h5.89l3.7,6.06,3.73-6.06h5.9l-6.21,9.32,6.5,9.73h-5.92l-4-6.53-4,6.53h-5.9Z" transform="translate(0)"/><path d="M1385.64,974.72c0-1.69.94-2.54,2.83-2.54s2.83.85,2.83,2.54a2.5,2.5,0,0,1-.71,1.89,3,3,0,0,1-2.12.67C1386.58,977.28,1385.64,976.43,1385.64,974.72Zm5.42,24h-5.2V979.65h5.2Z" transform="translate(0)"/><path d="M1413.83,989.14a10.23,10.23,0,0,1-2.46,7.28,8.91,8.91,0,0,1-6.83,2.62,9.57,9.57,0,0,1-4.84-1.2,8,8,0,0,1-3.22-3.45,11.6,11.6,0,0,1-1.13-5.25,10.21,10.21,0,0,1,2.44-7.26,9,9,0,0,1,6.85-2.59,9.67,9.67,0,0,1,4.84,1.19,8,8,0,0,1,3.22,3.43A11.48,11.48,0,0,1,1413.83,989.14Zm-13.18,0a8,8,0,0,0,.93,4.28,3.34,3.34,0,0,0,3,1.44,3.28,3.28,0,0,0,3-1.44,8.06,8.06,0,0,0,.91-4.28,7.87,7.87,0,0,0-.92-4.24,3.91,3.91,0,0,0-6,0A7.86,7.86,0,0,0,1400.65,989.14Z" transform="translate(0)"/><path d="M1431.62,998.7l-.7-2.44h-.27a5.47,5.47,0,0,1-2.37,2,8,8,0,0,1-3.5.73,6.66,6.66,0,0,1-5.06-1.8,7.26,7.26,0,0,1-1.7-5.17V979.65h5.2v11.12a5.35,5.35,0,0,0,.73,3.1,2.69,2.69,0,0,0,2.33,1,3.52,3.52,0,0,0,3.16-1.46,9.1,9.1,0,0,0,1-4.83v-9h5.19V998.7Z" transform="translate(0)"/><path d="M1454.35,993a5.25,5.25,0,0,1-2,4.47c-1.35,1-3.39,1.53-6.09,1.53a18.79,18.79,0,0,1-3.54-.28,14,14,0,0,1-2.75-.83v-4.29a18.94,18.94,0,0,0,3.27,1.14,13,13,0,0,0,3.19.46c1.89,0,2.83-.55,2.83-1.64a1.34,1.34,0,0,0-.38-1,5.22,5.22,0,0,0-1.29-.87c-.61-.33-1.43-.7-2.45-1.14a15.1,15.1,0,0,1-3.23-1.7,4.71,4.71,0,0,1-1.5-1.8,5.79,5.79,0,0,1-.47-2.49,4.5,4.5,0,0,1,2-3.93,9.55,9.55,0,0,1,5.58-1.39,15.82,15.82,0,0,1,6.69,1.5l-1.56,3.75c-1-.41-1.85-.75-2.68-1a8.42,8.42,0,0,0-2.54-.39c-1.53,0-2.3.42-2.3,1.24a1.46,1.46,0,0,0,.74,1.21,20.48,20.48,0,0,0,3.25,1.52,15,15,0,0,1,3.27,1.69,4.89,4.89,0,0,1,1.53,1.8A5.59,5.59,0,0,1,1454.35,993Z" transform="translate(0)"/><path d="M914,1132.43v-24.92h5.29v24.92Z" transform="translate(0)"/><path d="M946.27,1132.43l-1-2.59h-.14a7.65,7.65,0,0,1-2.7,2.29,8.83,8.83,0,0,1-3.62.64,5.83,5.83,0,0,1-4.32-1.57,6,6,0,0,1-1.58-4.46,5,5,0,0,1,2.13-4.48,12.23,12.23,0,0,1,6.39-1.59l3.31-.1v-.84c0-1.93-1-2.9-3-2.9a13.47,13.47,0,0,0-5.36,1.38l-1.72-3.5A15.44,15.44,0,0,1,942,1113a9.09,9.09,0,0,1,5.88,1.67,6.19,6.19,0,0,1,2,5.08v12.7Zm-1.53-8.83-2,.07a6.42,6.42,0,0,0-3.38.82,2.58,2.58,0,0,0-1.1,2.28c0,1.46.84,2.2,2.52,2.2a4,4,0,0,0,2.89-1,3.65,3.65,0,0,0,1.08-2.76Z" transform="translate(0)"/><path d="M972.31,1132.43h-5.2V1121.3a5.57,5.57,0,0,0-.69-3.09,2.41,2.41,0,0,0-2.17-1,3.15,3.15,0,0,0-2.9,1.46,9.66,9.66,0,0,0-.9,4.82v9h-5.2v-19h4l.7,2.43h.29a5.26,5.26,0,0,1,2.22-2,7.09,7.09,0,0,1,3.32-.74q4.28,0,5.79,2.79H972a5.26,5.26,0,0,1,2.26-2.06,7.55,7.55,0,0,1,3.37-.73,6.64,6.64,0,0,1,4.9,1.66c1.1,1.11,1.66,2.88,1.66,5.32v12.43H979V1121.3a5.57,5.57,0,0,0-.69-3.09,2.41,2.41,0,0,0-2.17-1,3.23,3.23,0,0,0-2.85,1.36,7.74,7.74,0,0,0-1,4.33Z" transform="translate(0)"/><path d="M1014.25,1132.43l-1.47-6.67-2-8.41h-.12l-3.48,15.08h-5.59l-5.42-19h5.18l2.2,8.43c.35,1.51.71,3.6,1.07,6.25h.11a33.87,33.87,0,0,1,.59-4.1l.27-1.45,2.36-9.13h5.72l2.23,9.13c.05.25.12.62.22,1.11s.19,1,.28,1.56.17,1.09.25,1.61.11,1,.12,1.27h.11c.1-.81.28-1.94.54-3.36s.45-2.39.56-2.89l2.29-8.43h5.09l-5.48,19Z" transform="translate(0)"/><path d="M1045.77,1122.87a10.2,10.2,0,0,1-2.45,7.27,8.9,8.9,0,0,1-6.83,2.63,9.55,9.55,0,0,1-4.84-1.2,8,8,0,0,1-3.22-3.45,11.6,11.6,0,0,1-1.13-5.25q0-4.68,2.44-7.26a8.93,8.93,0,0,1,6.85-2.59,9.67,9.67,0,0,1,4.84,1.19,8,8,0,0,1,3.22,3.43A11.45,11.45,0,0,1,1045.77,1122.87Zm-13.17,0a8,8,0,0,0,.93,4.27,3.31,3.31,0,0,0,3,1.45,3.25,3.25,0,0,0,3-1.44,8.08,8.08,0,0,0,.92-4.28,7.94,7.94,0,0,0-.92-4.25,3.34,3.34,0,0,0-3-1.41,3.31,3.31,0,0,0-3,1.41A7.86,7.86,0,0,0,1032.6,1122.87Z" transform="translate(0)"/><path d="M1060.7,1113a8.67,8.67,0,0,1,1.76.15l-.4,4.87a6.1,6.1,0,0,0-1.53-.17,5.53,5.53,0,0,0-3.88,1.28,4.65,4.65,0,0,0-1.39,3.58v9.7h-5.19v-19H1054l.77,3.2h.26a7.14,7.14,0,0,1,2.39-2.58A5.86,5.86,0,0,1,1060.7,1113Z" transform="translate(0)"/><path d="M1076.55,1113a8.5,8.5,0,0,1,1.75.15l-.39,4.87a6.1,6.1,0,0,0-1.53-.17,5.53,5.53,0,0,0-3.88,1.28,4.65,4.65,0,0,0-1.39,3.58v9.7h-5.19v-19h3.93l.77,3.2h.25a7.08,7.08,0,0,1,2.4-2.58A5.84,5.84,0,0,1,1076.55,1113Z" transform="translate(0)"/><path d="M1081.54,1108.45c0-1.69.94-2.54,2.83-2.54s2.83.85,2.83,2.54a2.46,2.46,0,0,1-.71,1.88,3,3,0,0,1-2.12.68C1082.48,1111,1081.54,1110.16,1081.54,1108.45Zm5.42,24h-5.2v-19h5.2Z" transform="translate(0)"/><path d="M1101,1132.77a9.87,9.87,0,0,1-7.2-2.54c-1.72-1.69-2.59-4.09-2.59-7.19s.8-5.66,2.4-7.41a8.52,8.52,0,0,1,6.62-2.61,8.38,8.38,0,0,1,6.29,2.3,8.69,8.69,0,0,1,2.25,6.35v2.53h-12.29a5,5,0,0,0,1.31,3.46,4.66,4.66,0,0,0,3.44,1.24,14.22,14.22,0,0,0,3.26-.36,16.49,16.49,0,0,0,3.2-1.14v4a12.39,12.39,0,0,1-2.91,1A18.56,18.56,0,0,1,1101,1132.77Zm-.74-16a3.3,3.3,0,0,0-2.59,1,4.88,4.88,0,0,0-1.07,3h7.29a4.36,4.36,0,0,0-1-3A3.41,3.41,0,0,0,1100.3,1116.72Z" transform="translate(0)"/><path d="M1119.06,1132.77a6.19,6.19,0,0,1-5.27-2.61,12,12,0,0,1-1.92-7.22c0-3.13.65-5.56,2-7.31a6.35,6.35,0,0,1,5.38-2.61,6.22,6.22,0,0,1,5.49,2.79h.17a21.29,21.29,0,0,1-.39-3.8v-6.1h5.21v26.52h-4l-1-2.47h-.22A6,6,0,0,1,1119.06,1132.77Zm1.83-4.14a3.52,3.52,0,0,0,2.92-1.16,6.7,6.7,0,0,0,1-3.94V1123a7.81,7.81,0,0,0-.94-4.4,3.54,3.54,0,0,0-3.08-1.33,3.06,3.06,0,0,0-2.7,1.48,7.87,7.87,0,0,0-1,4.28,7.44,7.44,0,0,0,1,4.22A3.17,3.17,0,0,0,1120.89,1128.63Z" transform="translate(0)"/><polygon class="cls-3" points="1000.21 763.21 847.49 703.87 822.15 845 1276.25 947.14 1000.21 763.21"/><polygon class="cls-3" points="1013.23 751.33 885.03 670.22 794.61 846.66 1102.71 1084.3 1013.23 751.33"/><polygon class="cls-4" points="869.57 557.94 834.67 648.23 993.41 674.68 1126.82 423.64 869.57 557.94"/><polygon class="cls-4" points="879.07 526.07 832.54 634.63 988.75 717.04 1214.76 560.82 879.07 526.07"/><polygon class="cls-5" points="454.63 442 707.48 640.59 822.15 591.56 792.23 485.62 454.63 442"/><polygon class="cls-5" points="424.55 588.24 678.91 674.68 817.58 645.58 738.86 555.84 424.55 588.24"/><polygon class="cls-5" points="766.73 389.11 678.91 592.16 784.57 658.41 854.54 573.43 766.73 389.11"/><polygon class="cls-6" points="430.53 1012.83 659.25 690.2 810.97 685.4 779.15 845.51 430.53 1012.83"/><polygon class="cls-6" points="328.53 833.83 667.09 629.43 808.1 685.64 714.97 819.71 328.53 833.83"/><polygon class="cls-6" points="656.78 1160.75 671.27 721.76 815.26 673.7 830.64 836.22 656.78 1160.75"/><polyline class="cls-7" points="1490.21 1012.83 1214.76 1012.83 1066.44 855.8"/></g></svg>