<svg xmlns="http://www.w3.org/2000/svg" viewBox="0 0 1500 1500"><defs><style>.cls-1{fill:#fff;}.cls-2{fill:#ff0;}.cls-3{fill:#cce70b;}.cls-4{fill:#ff8000;}.cls-5{fill:none;stroke:#000;stroke-miterlimit:10;stroke-width:1.7px;}</style></defs><title>3nah_en</title><g id="Layer_4" data-name="Layer 4"><rect class="cls-1" width="1500" height="1500"/></g><g id="Layer_17_copy" data-name="Layer 17 copy"><path class="cls-2" d="M1210.39,839.18C1206.8,775,1151,730.79,1099.86,700.67c14.59,8.28-2.53-1.35-5.74-3.1-63.49-32.86-182.89-68.12-275.73-80.4-92.11-12.68-186.1-16-279-11.42-94.63,4.68-189.83,16.39-280.94,43.1C175.43,673.2,60.76,717.64,30,808.63c-52,153.94,199.25,228.22,305.08,248.9,189.44,39.24,396.75,38.89,585.69-3.62,99.35-22.3,297.16-80.43,289.61-214.73C1210.1,833.87,1210.53,841.56,1210.39,839.18Z" transform="translate(0)"/><path class="cls-3" d="M1080.55,689.23c0-37.47-32.7-63.67-62.19-81.06-95.15-54-249.56-62.58-368.91-49.09C580.63,566.86,336,622.91,435.26,737.83c75.84,87.85,241.41,88.09,346,85.46,71.74-1.8,302-18.9,299.33-134.06Z" transform="translate(0)"/><path class="cls-4" d="M984.78,584c-1.21-84.33-271.78-83.5-283.24-3.92C687,666.69,986.06,668.8,984.78,584,984.78,583.88,984.8,585.37,984.78,584Z" transform="translate(0)"/><ellipse class="cls-1" cx="220.91" cy="767.74" rx="44.01" ry="29.93" transform="translate(-363.52 223.07) rotate(-30.96)"/><ellipse class="cls-1" cx="568.62" cy="638.71" rx="26.28" ry="17.87" transform="translate(-247.58 383.57) rotate(-30.96)"/><ellipse class="cls-1" cx="780.93" cy="562.66" rx="17.98" ry="12.23" transform="translate(-178.2 481.97) rotate(-30.96)"/><path d="M1352.47,499.14q-9.6,0-9.6-10.54,0-5.24,2.61-8t7.49-2.77a14.3,14.3,0,0,1,6.4,1.4l-1.66,4.34c-.88-.35-1.7-.65-2.46-.87a7.83,7.83,0,0,0-2.28-.34q-4.38,0-4.38,6.21c0,4,1.46,6,4.38,6a9.93,9.93,0,0,0,3-.44,10.35,10.35,0,0,0,2.76-1.35v4.8a9,9,0,0,1-2.75,1.2A15.6,15.6,0,0,1,1352.47,499.14Z" transform="translate(0)"/><path d="M1369.1,498.77h-5.61V470.15h5.61Z" transform="translate(0)"/><path d="M1393.67,488.45q0,5-2.65,7.86a9.61,9.61,0,0,1-7.37,2.83,10.28,10.28,0,0,1-5.23-1.3,8.62,8.62,0,0,1-3.47-3.72,12.53,12.53,0,0,1-1.22-5.67q0-5,2.63-7.83a9.66,9.66,0,0,1,7.4-2.8,10.36,10.36,0,0,1,5.22,1.29,8.59,8.59,0,0,1,3.48,3.7A12.34,12.34,0,0,1,1393.67,488.45Zm-14.22,0a8.61,8.61,0,0,0,1,4.62,4.16,4.16,0,0,0,6.49,0,8.84,8.84,0,0,0,1-4.63,8.54,8.54,0,0,0-1-4.58,3.61,3.61,0,0,0-3.26-1.52,3.57,3.57,0,0,0-3.23,1.51A8.54,8.54,0,0,0,1379.45,488.45Z" transform="translate(0)"/><path d="M1412.65,492.66a5.65,5.65,0,0,1-2.2,4.82q-2.19,1.66-6.57,1.66a21,21,0,0,1-3.83-.3,14.57,14.57,0,0,1-3-.9v-4.63a19.59,19.59,0,0,0,3.52,1.23,14.4,14.4,0,0,0,3.45.5q3.06,0,3.06-1.77a1.46,1.46,0,0,0-.41-1.07,5.63,5.63,0,0,0-1.4-.94q-1-.52-2.64-1.23a16.58,16.58,0,0,1-3.49-1.83,5.3,5.3,0,0,1-1.62-1.95,6.3,6.3,0,0,1-.5-2.69,4.87,4.87,0,0,1,2.12-4.24,10.34,10.34,0,0,1,6-1.5,17.08,17.08,0,0,1,7.23,1.62l-1.69,4.05a30.59,30.59,0,0,0-2.89-1.09,9.11,9.11,0,0,0-2.74-.42c-1.65,0-2.48.45-2.48,1.34a1.58,1.58,0,0,0,.8,1.31,21.3,21.3,0,0,0,3.5,1.63,16.17,16.17,0,0,1,3.53,1.82,5.52,5.52,0,0,1,1.66,1.95A6.11,6.11,0,0,1,1412.65,492.66Z" transform="translate(0)"/><path d="M1426.34,499.14q-5,0-7.77-2.74t-2.79-7.76q0-5.17,2.58-8a9.2,9.2,0,0,1,7.15-2.83,9.08,9.08,0,0,1,6.79,2.48,9.45,9.45,0,0,1,2.42,6.87v2.72h-13.26a5.4,5.4,0,0,0,1.42,3.73,5,5,0,0,0,3.71,1.34,16,16,0,0,0,3.52-.38,18,18,0,0,0,3.45-1.23v4.34a13.11,13.11,0,0,1-3.14,1.09A19.8,19.8,0,0,1,1426.34,499.14Zm-.79-17.33a3.57,3.57,0,0,0-2.8,1.13,5.3,5.3,0,0,0-1.16,3.21h7.87a4.67,4.67,0,0,0-1.08-3.21A3.7,3.7,0,0,0,1425.55,481.81Z" transform="translate(0)"/><path d="M1342.48,753.88h-5.61v-12a5.81,5.81,0,0,0-.79-3.34,2.89,2.89,0,0,0-2.52-1.11,3.8,3.8,0,0,0-3.41,1.57q-1.05,1.57-1.05,5.21v9.68h-5.61V733.31h4.29l.75,2.64h.32a5.85,5.85,0,0,1,2.58-2.26,8.8,8.8,0,0,1,3.74-.76,7.22,7.22,0,0,1,5.45,1.94,7.77,7.77,0,0,1,1.86,5.6Z" transform="translate(0)"/><path d="M1366.94,743.56c0,3.35-.89,6-2.65,7.85a9.62,9.62,0,0,1-7.38,2.84,10.37,10.37,0,0,1-5.22-1.3,8.67,8.67,0,0,1-3.48-3.73,12.45,12.45,0,0,1-1.21-5.66q0-5,2.63-7.84a9.66,9.66,0,0,1,7.39-2.79,10.37,10.37,0,0,1,5.23,1.29,8.6,8.6,0,0,1,3.47,3.69A12.41,12.41,0,0,1,1366.94,743.56Zm-14.22,0a8.64,8.64,0,0,0,1,4.62,3.6,3.6,0,0,0,3.27,1.56,3.52,3.52,0,0,0,3.22-1.55,8.73,8.73,0,0,0,1-4.63,8.51,8.51,0,0,0-1-4.58,4.23,4.23,0,0,0-6.5,0A8.5,8.5,0,0,0,1352.72,743.56Z" transform="translate(0)"/><path d="M1383.05,732.93a9.05,9.05,0,0,1,1.89.16l-.42,5.26a6.58,6.58,0,0,0-1.66-.18,5.94,5.94,0,0,0-4.18,1.38,5,5,0,0,0-1.5,3.86v10.47h-5.61V733.31h4.25l.83,3.46h.27a7.69,7.69,0,0,1,2.59-2.78A6.31,6.31,0,0,1,1383.05,732.93Z" transform="translate(0)"/><path d="M1407.09,753.88h-5.61v-12a6,6,0,0,0-.75-3.34,2.6,2.6,0,0,0-2.34-1.11,3.38,3.38,0,0,0-3.13,1.58,10.36,10.36,0,0,0-1,5.2v9.68h-5.61V733.31H1393l.76,2.64h.31a5.65,5.65,0,0,1,2.39-2.22,7.81,7.81,0,0,1,3.59-.8c3.07,0,5.16,1,6.25,3h.5a5.55,5.55,0,0,1,2.43-2.23,8.14,8.14,0,0,1,3.64-.79,7.16,7.16,0,0,1,5.28,1.79c1.2,1.2,1.8,3.11,1.8,5.75v13.41h-5.63v-12a6,6,0,0,0-.75-3.34,2.6,2.6,0,0,0-2.34-1.11,3.5,3.5,0,0,0-3.08,1.47,8.35,8.35,0,0,0-1,4.67Z" transform="translate(0)"/><path d="M1438.72,753.88l-1.08-2.8h-.15a8.25,8.25,0,0,1-2.91,2.48,9.45,9.45,0,0,1-3.91.69,6.33,6.33,0,0,1-4.67-1.7,6.5,6.5,0,0,1-1.7-4.82,5.42,5.42,0,0,1,2.29-4.82q2.29-1.56,6.91-1.72l3.57-.11v-.9q0-3.13-3.2-3.13a14.64,14.64,0,0,0-5.8,1.49l-1.85-3.79a16.68,16.68,0,0,1,7.87-1.86,9.79,9.79,0,0,1,6.34,1.8,6.66,6.66,0,0,1,2.21,5.49v13.7Zm-1.65-9.53-2.17.07a6.92,6.92,0,0,0-3.64.89,2.77,2.77,0,0,0-1.2,2.46c0,1.58.91,2.37,2.72,2.37a4.31,4.31,0,0,0,3.12-1.12,3.94,3.94,0,0,0,1.17-3Z" transform="translate(0)"/><path d="M1454,753.88h-5.61V725.26H1454Z" transform="translate(0)"/><path d="M1383.92,950.07h-4.85v16.35h-5.61V950.07h-3.09v-2.7l3.09-1.51v-1.51c0-2.34.57-4.05,1.73-5.13s3-1.62,5.53-1.62a14.56,14.56,0,0,1,5.17.86l-1.43,4.12a10.64,10.64,0,0,0-3.13-.53,2,2,0,0,0-1.73.71,2.9,2.9,0,0,0-.53,1.81v1.29h4.85Z" transform="translate(0)"/><path d="M1400.2,966.42l-1.09-2.79H1399a8.32,8.32,0,0,1-2.92,2.47,9.42,9.42,0,0,1-3.91.69,6.3,6.3,0,0,1-4.66-1.69,6.53,6.53,0,0,1-1.7-4.82,5.43,5.43,0,0,1,2.29-4.83c1.53-1,3.83-1.61,6.91-1.72l3.56-.11v-.9c0-2.09-1.06-3.13-3.2-3.13a14.64,14.64,0,0,0-5.79,1.49l-1.86-3.79a16.82,16.82,0,0,1,7.87-1.85,9.82,9.82,0,0,1,6.35,1.8,6.67,6.67,0,0,1,2.21,5.48v13.7Zm-1.66-9.53-2.17.08a7,7,0,0,0-3.64.88,2.77,2.77,0,0,0-1.19,2.47c0,1.58.9,2.37,2.72,2.37a4.35,4.35,0,0,0,3.12-1.12,4,4,0,0,0,1.16-3Z" transform="translate(0)"/><path d="M1421.37,945.47a9,9,0,0,1,1.89.17l-.42,5.26a6.54,6.54,0,0,0-1.66-.19,5.94,5.94,0,0,0-4.18,1.38,5,5,0,0,0-1.5,3.87v10.46h-5.61V945.86h4.25l.83,3.46h.27a7.72,7.72,0,0,1,2.59-2.79A6.39,6.39,0,0,1,1421.37,945.47Z" transform="translate(0)"/><polyline class="cls-5" points="1437.1 979.34 1348.09 979.34 929.26 916.56"/><polyline class="cls-5" points="1457.28 765.56 1319.17 765.56 929.26 708.14"/><polyline class="cls-5" points="1425 511.38 1347.19 511.38 929.26 562.66"/></g></svg>