<svg xmlns="http://www.w3.org/2000/svg" viewBox="0 0 1500 1500"><defs><style>.cls-1{fill:#fff;}.cls-2{fill:#ff0;}.cls-3{fill:#cce70b;}.cls-4{fill:#ff8000;}</style></defs><title>nah</title><g id="Layer_4" data-name="Layer 4"><rect class="cls-1" width="1500" height="1500"/></g><g id="Layer_7" data-name="Layer 7"><path class="cls-2" d="M1216.06,841.47c-3.61-64.52-59.71-108.9-111-139.17,14.66,8.33-2.54-1.35-5.77-3.11-63.79-33-183.74-68.43-277-80.78-92.54-12.73-187-16.09-280.27-11.47-95.07,4.71-190.72,16.47-282.26,43.31C176.26,674.71,61,719.36,30.15,810.77c-52.27,154.66,200.18,229.29,306.51,250.06,190.32,39.43,398.61,39.08,588.43-3.63,99.81-22.41,298.56-80.81,291-215.73C1215.76,836.13,1216.2,843.86,1216.06,841.47Z" transform="translate(0)"/><path class="cls-3" d="M1085.61,690.81c0-37.65-32.85-64-62.48-81.44-95.6-54.29-250.73-62.87-370.64-49.31-69.14,7.81-314.88,64.12-215.19,179.59,76.19,88.26,242.54,88.49,347.58,85.85,72.07-1.81,303.4-19,300.73-134.69Z" transform="translate(0)"/><path class="cls-4" d="M989.39,585.11c-1.21-84.73-273-83.89-284.57-3.94-14.58,87,285.86,89.11,284.57,3.94C989.39,585,989.41,586.46,989.39,585.11Z" transform="translate(0)"/><ellipse class="cls-1" cx="221.95" cy="769.69" rx="44.22" ry="30.07" transform="translate(-364.37 223.88) rotate(-30.96)"/><ellipse class="cls-1" cx="571.28" cy="640.06" rx="26.4" ry="17.95" transform="translate(-247.9 385.13) rotate(-30.96)"/><ellipse class="cls-1" cx="784.59" cy="563.65" rx="18.07" ry="12.29" transform="translate(-178.18 483.99) rotate(-30.96)"/><path d="M1381,499.46h-5.64V487.4a5.81,5.81,0,0,0-.79-3.36,2.9,2.9,0,0,0-2.53-1.12,3.81,3.81,0,0,0-3.42,1.58c-.7,1.06-1,2.8-1,5.24v9.72h-5.64V478.8h4.3l.76,2.65h.32a5.9,5.9,0,0,1,2.59-2.27,8.9,8.9,0,0,1,3.76-.77,7.21,7.21,0,0,1,5.47,1.95A7.81,7.81,0,0,1,1381,486Z" transform="translate(0)"/><path d="M1399.91,499.46l-1.09-2.81h-.15a8.23,8.23,0,0,1-2.93,2.49,9.47,9.47,0,0,1-3.92.69,6.33,6.33,0,0,1-4.69-1.7,6.53,6.53,0,0,1-1.71-4.84,5.46,5.46,0,0,1,2.3-4.85q2.31-1.56,6.94-1.73l3.59-.11v-.9q0-3.15-3.22-3.15a14.63,14.63,0,0,0-5.82,1.5l-1.86-3.81a16.8,16.8,0,0,1,7.9-1.86c2.78,0,4.9.6,6.38,1.81a6.69,6.69,0,0,1,2.22,5.51v13.76Zm-1.66-9.57-2.18.07a7,7,0,0,0-3.66.89,2.79,2.79,0,0,0-1.2,2.48c0,1.59.91,2.38,2.73,2.38a4.36,4.36,0,0,0,3.14-1.13,4,4,0,0,0,1.17-3Z" transform="translate(0)"/><path d="M1428.72,499.46h-5.64V487.4c0-3-1.1-4.48-3.32-4.48a3.78,3.78,0,0,0-3.42,1.61,9.84,9.84,0,0,0-1,5.21v9.72h-5.64V470.71h5.64v5.86c0,.45,0,1.52-.13,3.21l-.13,1.67h.29a6.53,6.53,0,0,1,6-3,7.32,7.32,0,0,1,5.52,2,7.78,7.78,0,0,1,1.89,5.62Z" transform="translate(0)"/><path d="M1348.76,755.76h-5.63V743.7a5.82,5.82,0,0,0-.8-3.36,2.89,2.89,0,0,0-2.53-1.11,3.79,3.79,0,0,0-3.42,1.58q-1.05,1.58-1.05,5.23v9.72h-5.64V735.1H1334l.75,2.65h.32a5.93,5.93,0,0,1,2.6-2.27,8.83,8.83,0,0,1,3.76-.76,7.24,7.24,0,0,1,5.47,1.95,7.83,7.83,0,0,1,1.86,5.62Z" transform="translate(0)"/><path d="M1373.34,745.4q0,5-2.66,7.89a9.69,9.69,0,0,1-7.41,2.84,10.35,10.35,0,0,1-5.25-1.3,8.65,8.65,0,0,1-3.49-3.74,12.48,12.48,0,0,1-1.22-5.69q0-5.07,2.64-7.87c1.76-1.88,4.24-2.81,7.43-2.81a10.48,10.48,0,0,1,5.25,1.29,8.64,8.64,0,0,1,3.49,3.71A12.54,12.54,0,0,1,1373.34,745.4Zm-14.29,0a8.71,8.71,0,0,0,1,4.64,3.62,3.62,0,0,0,3.28,1.57,3.53,3.53,0,0,0,3.24-1.57,8.77,8.77,0,0,0,1-4.64,8.57,8.57,0,0,0-1-4.6,4.24,4.24,0,0,0-6.53,0A8.55,8.55,0,0,0,1359.05,745.4Z" transform="translate(0)"/><path d="M1389.53,734.72a9.22,9.22,0,0,1,1.9.16l-.43,5.29a6.11,6.11,0,0,0-1.66-.19,5.93,5.93,0,0,0-4.2,1.39,5,5,0,0,0-1.51,3.88v10.51H1378V735.1h4.26l.83,3.48h.28a7.77,7.77,0,0,1,2.6-2.8A6.37,6.37,0,0,1,1389.53,734.72Z" transform="translate(0)"/><path d="M1413.68,755.76H1408V743.7a6.1,6.1,0,0,0-.75-3.36,2.63,2.63,0,0,0-2.35-1.11,3.4,3.4,0,0,0-3.14,1.58,10.37,10.37,0,0,0-1,5.23v9.72h-5.64V735.1h4.31l.75,2.65h.32a5.7,5.7,0,0,1,2.4-2.23,7.76,7.76,0,0,1,3.6-.8c3.1,0,5.19,1,6.29,3h.49a5.62,5.62,0,0,1,2.45-2.24,8.18,8.18,0,0,1,3.65-.79,7.2,7.2,0,0,1,5.31,1.8q1.82,1.8,1.81,5.77v13.47h-5.66V743.7a6.1,6.1,0,0,0-.75-3.36,2.62,2.62,0,0,0-2.35-1.11,3.54,3.54,0,0,0-3.1,1.47,8.44,8.44,0,0,0-1,4.7Z" transform="translate(0)"/><path d="M1445.46,755.76l-1.09-2.8h-.15a8.3,8.3,0,0,1-2.93,2.48,9.47,9.47,0,0,1-3.92.69,6.33,6.33,0,0,1-4.69-1.7,6.51,6.51,0,0,1-1.71-4.84,5.46,5.46,0,0,1,2.3-4.85q2.31-1.56,6.94-1.73l3.59-.11V742c0-2.1-1.07-3.14-3.22-3.14a14.59,14.59,0,0,0-5.82,1.49l-1.87-3.8a16.75,16.75,0,0,1,7.91-1.87c2.78,0,4.9.6,6.38,1.81a6.69,6.69,0,0,1,2.22,5.51v13.76Zm-1.66-9.57-2.18.08a6.92,6.92,0,0,0-3.66.88,2.79,2.79,0,0,0-1.2,2.48c0,1.59.91,2.38,2.73,2.38a4.32,4.32,0,0,0,3.13-1.12,4,4,0,0,0,1.18-3Z" transform="translate(0)"/><path d="M1460.83,755.76h-5.63V727h5.63Z" transform="translate(0)"/><path d="M1378.21,952.88h-4.87V969.3h-5.64V952.88h-3.1v-2.72l3.1-1.52v-1.51q0-3.52,1.74-5.16c1.15-1.08,3-1.62,5.56-1.62a14.63,14.63,0,0,1,5.19.86l-1.44,4.14a10.7,10.7,0,0,0-3.14-.53,2.06,2.06,0,0,0-1.74.71,2.91,2.91,0,0,0-.53,1.82v1.29h4.87Z" transform="translate(0)"/><path d="M1390.8,969.67q-5,0-7.8-2.75t-2.81-7.8q0-5.19,2.6-8a9.24,9.24,0,0,1,7.18-2.83,9.12,9.12,0,0,1,6.82,2.49,9.45,9.45,0,0,1,2.43,6.89v2.74H1385.9a5.45,5.45,0,0,0,1.42,3.75,5,5,0,0,0,3.74,1.35,15.46,15.46,0,0,0,3.53-.39,17.77,17.77,0,0,0,3.47-1.24v4.36a13,13,0,0,1-3.16,1.1A19.94,19.94,0,0,1,1390.8,969.67Zm-.8-17.4a3.58,3.58,0,0,0-2.81,1.13,5.32,5.32,0,0,0-1.16,3.23h7.91a4.74,4.74,0,0,0-1.09-3.23A3.68,3.68,0,0,0,1390,952.27Z" transform="translate(0)"/><path d="M1415.34,948.26a9.16,9.16,0,0,1,1.9.16l-.42,5.29a6.19,6.19,0,0,0-1.67-.19,5.93,5.93,0,0,0-4.2,1.39,5,5,0,0,0-1.51,3.88V969.3h-5.63V948.64h4.27l.83,3.48h.27a7.86,7.86,0,0,1,2.6-2.8A6.4,6.4,0,0,1,1415.34,948.26Z" transform="translate(0)"/><path d="M1440.06,969.3h-5.63V957.24a5.82,5.82,0,0,0-.8-3.36,2.9,2.9,0,0,0-2.53-1.12,3.81,3.81,0,0,0-3.42,1.58c-.7,1.06-1,2.8-1,5.24v9.72H1421V948.64h4.31l.76,2.65h.31A5.93,5.93,0,0,1,1429,949a8.83,8.83,0,0,1,3.76-.76,7.24,7.24,0,0,1,5.47,2,7.81,7.81,0,0,1,1.86,5.62Z" transform="translate(0)"/><polygon points="1443.83 984.58 1354.06 984.55 933.27 921.48 933.95 916.93 1354.58 979.98 1443.83 979.98 1443.83 984.58"/><polygon points="1464.11 769.8 1325.01 769.78 933.28 712.09 933.95 707.54 1325.52 765.21 1464.11 765.21 1464.11 769.8"/><polygon points="933.89 565.93 933.33 561.37 1353.5 509.83 1431.67 509.83 1431.67 514.42 1353.64 514.42 933.89 565.93"/></g></svg>