<svg xmlns="http://www.w3.org/2000/svg" viewBox="0 0 1500 1500"><defs><style>.cls-1,.cls-4,.cls-6{fill:#fff;}.cls-2{opacity:0.3;}.cls-3{fill:#ff0;}.cls-4,.cls-5{opacity:0.5;}.cls-6,.cls-7{opacity:0.6;}</style></defs><title>verbunden</title><g id="Layer_4" data-name="Layer 4"><rect class="cls-1" width="1500" height="1500"/></g><g id="Layer_8" data-name="Layer 8"><path class="cls-2" d="M350.29,695.25,296,490.89l258.65,79.83ZM312.87,508.44,357.63,677,526.15,574.27Z" transform="translate(0)"/><path class="cls-2" d="M767.18,941.12,448.54,918.87l162.84-239ZM469.86,908.53l275.63,19.25-134.78-226Z" transform="translate(0)"/><path class="cls-2" d="M797.23,657.54l98.71-154.48L978.13,639ZM895.67,525.4,820.32,643.3,958.4,629.12Z" transform="translate(0)"/><path class="cls-2" d="M610.64,701.67,529,564.86,690.2,588.44ZM551.83,580.13,611.45,680l58.08-82.67Z" transform="translate(0)"/><path class="cls-2" d="M758,948.82,601.72,686.72l213.52-43.64-12.39,162ZM620.37,695,754.64,920.09l36.74-117.84L802.3,657.76Z" transform="translate(0)"/><path class="cls-2" d="M790.81,809.81,804,635.71,942,797.37Zm22.77-144.68-10,131.79,114.44-9.41Z" transform="translate(0)"/><path class="cls-2" d="M744.85,951.46l47.92-153.65L948.45,785Zm56.81-142.55L767.82,917.44l143.8-117.57Z" transform="translate(0)"/><path class="cls-2" d="M601.87,1084.44V917.75l168.55,11.78Zm11.79-154v127.17l128.6-118.19Z" transform="translate(0)"/><path class="cls-2" d="M1080.76,976.12,787.53,901.33,931,784.05ZM813.09,895.67l237.14,60.48L929.09,800.83Z" transform="translate(0)"/><path class="cls-2" d="M936.87,739l26.76-110.86h239.54Zm36-99.06-19.12,79.23,190.33-79.23Z" transform="translate(0)"/><path class="cls-2" d="M917.86,1088.47,900.53,918l178.09,45.42ZM914,933.57l13.46,132.5,124.93-97.2Z" transform="translate(0)"/><path class="cls-2" d="M651.58,1232.35l-297.33-50.56,257.61-119.18Zm-257.86-55.82,242.33,41.2L603.67,1079.4Z" transform="translate(0)"/><path class="cls-2" d="M850,1201.83,783.2,1074l150.36-2.86Zm-47.51-116.36L851,1178.33l60.72-94.95Z" transform="translate(0)"/><path class="cls-2" d="M1042.25,782.15,930.9,728.69l266-110.72Zm-82.49-52.69,79.82,38.31,110.83-117.68Z" transform="translate(0)"/><path class="cls-2" d="M1021.41,919.19l-102.19-131,129-20.32ZM940.84,796.71,1014.41,891l19.26-109Z" transform="translate(0)"/><path class="cls-2" d="M1090.18,639.93H958.86l81-167.4Zm-112.51-11.8h96.64l-37-123.18Z" transform="translate(0)"/><path class="cls-2" d="M807.61,663.2l-84.33-207L905,510.83Zm-64.1-188.56,66.43,163,76.69-120Z" transform="translate(0)"/><path class="cls-2" d="M745.2,471.85l-140.81-6.08,67.8-96.49ZM626.44,454.91,721.59,459l-49.34-69.31Z" transform="translate(0)"/><path class="cls-2" d="M1020.34,857.48l15.89-89.92,204.44,56Zm25.26-75.12-10.78,60.95,149.36-23Z" transform="translate(0)"/><path class="cls-2" d="M1157,641.29,1304.63,506,1415,620.53Zm147.13-118.82L1190.3,626.77l198.9-16Z" transform="translate(0)"/><path class="cls-2" d="M1377.56,993.52l-131.41-56.71L1371,780.6ZM1265,932.1l100.18,43.23-5-162.32Z" transform="translate(0)"/><path class="cls-2" d="M157.76,979,118.47,801l174.35,19.64ZM133.55,814.52l30.62,138.77L269.44,829.83Z" transform="translate(0)"/><path class="cls-2" d="M456.88,927.58,404.22,735.29,574.13,755.5Zm-36.65-178.5,41.28,150.74,91.92-134.9Z" transform="translate(0)"/><path class="cls-2" d="M235.27,731.39,22.34,695.3l74-127.52ZM41.09,686.51l164.23,27.84L98.15,588.16Z" transform="translate(0)"/><path class="cls-2" d="M928,452.71,830,424.85l105.33-77.3ZM856.4,420.09l60.87,17.29,4.51-65.27Z" transform="translate(0)"/><path class="cls-2" d="M402.21,750.86l58.22-139.51,167.65,81.18Zm64.3-123.46L422.24,733.5,594,689.15Z" transform="translate(0)"/><path class="cls-2" d="M618.79,1077.5l-206.64-11L511.61,906.2Zm-186.11-21.69,164.06,8.71-85.09-136Z" transform="translate(0)"/><polygon class="cls-3" points="1474.95 706.89 1455.43 716.65 1485.52 730.88 1474.95 706.89"/><path class="cls-2" d="M744.59,735.81l-158.11-46,237.73-48.6Zm-109-44,104.9,30.5,52.82-62.74Z" transform="translate(0)"/><path class="cls-2" d="M801.9,819.68l-66.85-90.85,81-96.19Zm-51.84-90.36L792.53,787l9-118.84Z" transform="translate(0)"/><path class="cls-2" d="M763.87,958.6,598.3,681l149.87,43.57ZM623.79,700.69l125,209.62L736.94,733.59Z" transform="translate(0)"/><polygon class="cls-3" points="330.01 746.22 310.49 755.98 340.58 770.21 330.01 746.22"/><polygon class="cls-3" points="1129.03 1018.6 1108.38 1043.38 1143.34 1046.92 1129.03 1018.6"/><polygon class="cls-3" points="255.03 1018.6 234.38 1043.38 269.34 1046.92 255.03 1018.6"/><polygon class="cls-3" points="413.27 440.53 417.37 470.27 444.41 452.82 413.27 440.53"/><polygon class="cls-4" points="1034.95 819.57 1009.26 854.12 1039.56 869.47 1034.95 819.57"/><polygon class="cls-4" points="1034.95 819.57 1009.26 854.12 1039.56 869.47 1034.95 819.57"/><polygon class="cls-4" points="1034.95 819.57 1009.26 854.12 1039.56 869.47 1034.95 819.57"/><polygon class="cls-4" points="1034.95 819.57 1009.26 854.12 1039.56 869.47 1034.95 819.57"/><polygon class="cls-4" points="1034.95 819.57 1009.26 854.12 1039.56 869.47 1034.95 819.57"/><g class="cls-5"><polygon class="cls-3" points="1034.95 819.57 1009.26 854.12 1039.56 869.47 1034.95 819.57"/><path class="cls-1" d="M1046.41,879.56l-46.06-23.34,39.06-52.53ZM1018.17,852l14.53,7.37-2.21-23.94Z" transform="translate(0)"/></g><polygon class="cls-6" points="644.28 353.56 715.46 375.53 659.22 409.8 644.28 353.56"/><polygon class="cls-4" points="757.8 898.23 723.87 948.02 790.27 952.66 757.8 898.23"/><polygon class="cls-4" points="641.21 679.93 579.06 670.85 610.54 723.59 641.21 679.93"/><polygon class="cls-4" points="850.08 1172.38 843.19 1209.74 858.45 1206.62 869.2 1204.43 850.08 1172.38"/><polygon class="cls-4" points="811.57 688.83 821.88 632.94 799.06 637.61 782.98 640.89 811.57 688.83"/><polygon class="cls-4" points="995.59 647.72 958.94 604.79 950.16 652.34 995.59 647.72"/><polygon class="cls-4" points="960.62 774.96 906.06 819.57 913.41 779.76 960.62 774.96"/><polygon class="cls-4" points="829.78 888.76 787.77 927.37 787.77 885.82 829.78 888.76"/><polygon class="cls-4" points="309.71 477.01 352.51 531.89 268.73 510.52 309.71 477.01"/><polygon class="cls-4" points="1096.09 962.63 1042.99 1003.94 1037.27 947.62 1096.09 962.63"/><polygon class="cls-4" points="452.39 638.25 502.88 614.83 444.88 606.18 452.39 638.25"/><polygon class="cls-4" points="458.45 1029.02 373.81 1068.29 471.03 1082.78 458.45 1029.02"/><polygon class="cls-4" points="589.51 734.69 524.62 764.79 599.15 775.9 589.51 734.69"/><polygon class="cls-6" points="923.96 1109.24 896.35 1062.27 948.87 1064.57 923.96 1109.24"/><polygon class="cls-4" points="321.96 664.59 416.16 667.48 347.94 695.54 321.96 664.59"/><polygon class="cls-4" points="1010.88 777.88 1083.32 747.72 1041.21 792.44 1010.88 777.88"/><polygon class="cls-4" points="872.31 496.03 913.28 508.34 891.33 542.7 872.31 496.03"/><polygon class="cls-6" points="1338.6 537.06 1273.06 534.23 1304.62 489.32 1338.6 537.06"/><polygon class="cls-6" points="1029.87 469.49 1025.7 493.09 1090.38 485.56 1029.87 469.49"/><polygon class="cls-4" points="570.62 476.96 662.39 469.85 621.2 430.61 570.62 476.96"/><polygon class="cls-4" points="1150.69 642.88 1215.28 637.88 1186.29 610.26 1150.69 642.88"/><polygon class="cls-4" points="1234.52 794.18 1186.09 818.39 1260.75 853.7 1234.52 794.18"/><polygon class="cls-4" points="630.77 1255.92 662.57 1213.15 625.06 1194.15 630.77 1255.92"/><polygon class="cls-4" points="913.93 894.96 883.95 935.28 919.31 953.19 913.93 894.96"/><polygon class="cls-4" points="953.69 699.88 927.99 734.43 958.29 749.78 953.69 699.88"/><polygon class="cls-4" points="581.86 557.88 515.33 550.44 530.32 617.85 581.86 557.88"/><polygon class="cls-4" points="629.8 911.72 590.47 907.29 599.33 947.44 629.8 911.72"/><polygon class="cls-4" points="917.61 428.07 910.72 465.44 925.98 462.32 936.73 460.12 917.61 428.07"/><polygon class="cls-4" points="934.26 334.88 908.57 369.44 938.87 384.79 934.26 334.88"/><polygon class="cls-4" points="866.29 416.15 826.97 411.72 835.83 451.88 866.29 416.15"/><polygon class="cls-4" points="452.28 939.92 438.44 889.38 483.1 894.69 452.28 939.92"/><polygon class="cls-4" points="341.74 1167.99 372.69 1204.43 389.17 1176.03 341.74 1167.99"/><polygon class="cls-4" points="796.09 548.3 745.64 488.9 718.77 535.2 796.09 548.3"/><polygon class="cls-4" points="836.45 821.11 795.18 772.51 773.2 810.38 836.45 821.11"/><polygon class="cls-4" points="791.75 1109.58 826.5 1067.89 767.68 1061.93 791.75 1109.58"/><polygon class="cls-4" points="515.31 899.75 485.42 935.63 536.03 940.75 515.31 899.75"/><polygon class="cls-4" points="1017.2 875.99 984.92 914.72 1039.56 920.25 1017.2 875.99"/><polygon class="cls-4" points="748.64 433.94 695.33 471.15 742.54 484.56 748.64 433.94"/><polygon class="cls-4" points="43.17 658.6 17.48 693.15 47.78 708.5 43.17 658.6"/><polygon class="cls-4" points="214.96 754.07 249.7 712.38 190.89 706.42 214.96 754.07"/><polygon class="cls-4" points="112.96 557.14 59.65 594.35 106.87 607.77 112.96 557.14"/><polygon class="cls-4" points="1099.9 604.27 1051.14 638.31 1094.32 650.58 1099.9 604.27"/><polygon class="cls-4" points="1400.07 979.45 1358.06 1018.05 1358.06 976.51 1400.07 979.45"/><polygon class="cls-6" points="1264.45 965.72 1236.83 918.75 1289.35 921.05 1264.45 965.72"/><polygon class="cls-4" points="1382.44 769.28 1333.68 803.32 1376.87 815.59 1382.44 769.28"/><polygon class="cls-6" points="1428.28 600.88 1374.27 614.83 1412.7 635.25 1428.28 600.88"/><polygon class="cls-6" points="390.37 759.66 450.82 744.05 407.81 721.19 390.37 759.66"/><polygon class="cls-4" points="191.13 950.3 149.13 988.91 149.13 947.37 191.13 950.3"/><polygon class="cls-4" points="289 791.37 263.31 825.92 293.61 841.27 289 791.37"/><polygon class="cls-6" points="95.78 826.97 156.23 811.36 113.22 788.5 95.78 826.97"/><polygon class="cls-6" points="607.19 1039.72 638.36 1089.53 578.27 1086.34 607.19 1039.72"/><polygon class="cls-4" points="682.16 567.48 701.72 615.46 653.65 594.01 682.16 567.48"/><polygon class="cls-1" points="751.8 764.55 766.18 698.22 718.31 720.03 751.8 764.55"/><polygon class="cls-6" points="644.28 353.56 715.46 375.53 659.22 409.8 644.28 353.56"/><polygon class="cls-4" points="757.8 898.23 723.87 948.02 790.27 952.66 757.8 898.23"/><polygon class="cls-4" points="641.21 679.93 579.06 670.85 610.54 723.59 641.21 679.93"/><polygon class="cls-4" points="850.08 1172.38 843.19 1209.74 858.45 1206.62 869.2 1204.43 850.08 1172.38"/><polygon class="cls-4" points="811.57 688.83 821.88 632.94 799.06 637.61 782.98 640.89 811.57 688.83"/><polygon class="cls-4" points="995.59 647.72 958.94 604.79 950.16 652.34 995.59 647.72"/><polygon class="cls-4" points="960.62 774.96 906.06 819.57 913.41 779.76 960.62 774.96"/><polygon class="cls-4" points="829.78 888.76 787.77 927.37 787.77 885.82 829.78 888.76"/><polygon class="cls-4" points="309.71 477.01 352.51 531.89 268.73 510.52 309.71 477.01"/><polygon class="cls-4" points="1096.09 962.63 1042.99 1003.94 1037.27 947.62 1096.09 962.63"/><polygon class="cls-4" points="452.39 638.25 502.88 614.83 444.88 606.18 452.39 638.25"/><polygon class="cls-4" points="458.45 1029.02 373.81 1068.29 471.03 1082.78 458.45 1029.02"/><polygon class="cls-4" points="589.51 734.69 524.62 764.79 599.15 775.9 589.51 734.69"/><polygon class="cls-6" points="923.96 1109.24 896.35 1062.27 948.87 1064.57 923.96 1109.24"/><polygon class="cls-4" points="321.96 664.59 416.16 667.48 347.94 695.54 321.96 664.59"/><polygon class="cls-4" points="1010.88 777.88 1083.32 747.72 1041.21 792.44 1010.88 777.88"/><polygon class="cls-4" points="872.31 496.03 913.28 508.34 891.33 542.7 872.31 496.03"/><polygon class="cls-6" points="1338.6 537.06 1273.06 534.23 1304.62 489.32 1338.6 537.06"/><polygon class="cls-6" points="1029.87 469.49 1025.7 493.09 1090.38 485.56 1029.87 469.49"/><polygon class="cls-4" points="570.62 476.96 662.39 469.85 621.2 430.61 570.62 476.96"/><polygon class="cls-4" points="1150.69 642.88 1215.28 637.88 1186.29 610.26 1150.69 642.88"/><polygon class="cls-4" points="1234.52 794.18 1186.09 818.39 1260.75 853.7 1234.52 794.18"/><polygon class="cls-4" points="630.77 1255.92 662.57 1213.15 625.06 1194.15 630.77 1255.92"/><polygon class="cls-4" points="913.93 894.96 883.95 935.28 919.31 953.19 913.93 894.96"/><polygon class="cls-4" points="953.69 699.88 927.99 734.43 958.29 749.78 953.69 699.88"/><polygon class="cls-4" points="581.86 557.88 515.33 550.44 530.32 617.85 581.86 557.88"/><polygon class="cls-4" points="629.8 911.72 590.47 907.29 599.33 947.44 629.8 911.72"/><polygon class="cls-4" points="917.61 428.07 910.72 465.44 925.98 462.32 936.73 460.12 917.61 428.07"/><polygon class="cls-4" points="934.26 334.88 908.57 369.44 938.87 384.79 934.26 334.88"/><polygon class="cls-4" points="866.29 416.15 826.97 411.72 835.83 451.88 866.29 416.15"/><polygon class="cls-4" points="452.28 939.92 438.44 889.38 483.1 894.69 452.28 939.92"/><polygon class="cls-4" points="341.74 1167.99 372.69 1204.43 389.17 1176.03 341.74 1167.99"/><polygon class="cls-4" points="796.09 548.3 745.64 488.9 718.77 535.2 796.09 548.3"/><polygon class="cls-4" points="836.45 821.11 795.18 772.51 773.2 810.38 836.45 821.11"/><polygon class="cls-4" points="791.75 1109.58 826.5 1067.89 767.68 1061.93 791.75 1109.58"/><polygon class="cls-4" points="515.31 899.75 485.42 935.63 536.03 940.75 515.31 899.75"/><polygon class="cls-4" points="1017.2 875.99 984.92 914.72 1039.56 920.25 1017.2 875.99"/><polygon class="cls-4" points="748.64 433.94 695.33 471.15 742.54 484.56 748.64 433.94"/><polygon class="cls-4" points="43.17 658.6 17.48 693.15 47.78 708.5 43.17 658.6"/><polygon class="cls-4" points="214.96 754.07 249.7 712.38 190.89 706.42 214.96 754.07"/><polygon class="cls-4" points="112.96 557.14 59.65 594.35 106.87 607.77 112.96 557.14"/><polygon class="cls-4" points="1099.9 604.27 1051.14 638.31 1094.32 650.58 1099.9 604.27"/><polygon class="cls-4" points="1400.07 979.45 1358.06 1018.05 1358.06 976.51 1400.07 979.45"/><polygon class="cls-6" points="1264.45 965.72 1236.83 918.75 1289.35 921.05 1264.45 965.72"/><polygon class="cls-4" points="1382.44 769.28 1333.68 803.32 1376.87 815.59 1382.44 769.28"/><polygon class="cls-6" points="1428.28 600.88 1374.27 614.83 1412.7 635.25 1428.28 600.88"/><polygon class="cls-6" points="390.37 759.66 450.82 744.05 407.81 721.19 390.37 759.66"/><polygon class="cls-4" points="191.13 950.3 149.13 988.91 149.13 947.37 191.13 950.3"/><polygon class="cls-4" points="289 791.37 263.31 825.92 293.61 841.27 289 791.37"/><polygon class="cls-6" points="95.78 826.97 156.23 811.36 113.22 788.5 95.78 826.97"/><polygon class="cls-6" points="607.19 1039.72 638.36 1089.53 578.27 1086.34 607.19 1039.72"/><polygon class="cls-4" points="682.16 567.48 701.72 615.46 653.65 594.01 682.16 567.48"/><polygon class="cls-1" points="751.8 764.55 766.18 698.22 718.31 720.03 751.8 764.55"/><polygon class="cls-6" points="644.28 353.56 715.46 375.53 659.22 409.8 644.28 353.56"/><polygon class="cls-4" points="757.8 898.23 723.87 948.02 790.27 952.66 757.8 898.23"/><polygon class="cls-4" points="641.21 679.93 579.06 670.85 610.54 723.59 641.21 679.93"/><polygon class="cls-4" points="850.08 1172.38 843.19 1209.74 858.45 1206.62 869.2 1204.43 850.08 1172.38"/><polygon class="cls-4" points="811.57 688.83 821.88 632.94 799.06 637.61 782.98 640.89 811.57 688.83"/><polygon class="cls-4" points="995.59 647.72 958.94 604.79 950.16 652.34 995.59 647.72"/><polygon class="cls-4" points="960.62 774.96 906.06 819.57 913.41 779.76 960.62 774.96"/><polygon class="cls-4" points="829.78 888.76 787.77 927.37 787.77 885.82 829.78 888.76"/><polygon class="cls-4" points="309.71 477.01 352.51 531.89 268.73 510.52 309.71 477.01"/><polygon class="cls-4" points="1096.09 962.63 1042.99 1003.94 1037.27 947.62 1096.09 962.63"/><polygon class="cls-4" points="452.39 638.25 502.88 614.83 444.88 606.18 452.39 638.25"/><polygon class="cls-4" points="458.45 1029.02 373.81 1068.29 471.03 1082.78 458.45 1029.02"/><polygon class="cls-4" points="589.51 734.69 524.62 764.79 599.15 775.9 589.51 734.69"/><polygon class="cls-6" points="923.96 1109.24 896.35 1062.27 948.87 1064.57 923.96 1109.24"/><polygon class="cls-4" points="321.96 664.59 416.16 667.48 347.94 695.54 321.96 664.59"/><polygon class="cls-4" points="1010.88 777.88 1083.32 747.72 1041.21 792.44 1010.88 777.88"/><polygon class="cls-4" points="872.31 496.03 913.28 508.34 891.33 542.7 872.31 496.03"/><polygon class="cls-6" points="1338.6 537.06 1273.06 534.23 1304.62 489.32 1338.6 537.06"/><polygon class="cls-6" points="1029.87 469.49 1025.7 493.09 1090.38 485.56 1029.87 469.49"/><polygon class="cls-4" points="570.62 476.96 662.39 469.85 621.2 430.61 570.62 476.96"/><polygon class="cls-4" points="1150.69 642.88 1215.28 637.88 1186.29 610.26 1150.69 642.88"/><polygon class="cls-4" points="1234.52 794.18 1186.09 818.39 1260.75 853.7 1234.52 794.18"/><polygon class="cls-4" points="630.77 1255.92 662.57 1213.15 625.06 1194.15 630.77 1255.92"/><polygon class="cls-4" points="913.93 894.96 883.95 935.28 919.31 953.19 913.93 894.96"/><polygon class="cls-4" points="953.69 699.88 927.99 734.43 958.29 749.78 953.69 699.88"/><polygon class="cls-4" points="581.86 557.88 515.33 550.44 530.32 617.85 581.86 557.88"/><polygon class="cls-4" points="629.8 911.72 590.47 907.29 599.33 947.44 629.8 911.72"/><polygon class="cls-4" points="917.61 428.07 910.72 465.44 925.98 462.32 936.73 460.12 917.61 428.07"/><polygon class="cls-4" points="934.26 334.88 908.57 369.44 938.87 384.79 934.26 334.88"/><polygon class="cls-4" points="866.29 416.15 826.97 411.72 835.83 451.88 866.29 416.15"/><polygon class="cls-4" points="452.28 939.92 438.44 889.38 483.1 894.69 452.28 939.92"/><polygon class="cls-4" points="341.74 1167.99 372.69 1204.43 389.17 1176.03 341.74 1167.99"/><polygon class="cls-4" points="796.09 548.3 745.64 488.9 718.77 535.2 796.09 548.3"/><polygon class="cls-4" points="836.45 821.11 795.18 772.51 773.2 810.38 836.45 821.11"/><polygon class="cls-4" points="791.75 1109.58 826.5 1067.89 767.68 1061.93 791.75 1109.58"/><polygon class="cls-4" points="515.31 899.75 485.42 935.63 536.03 940.75 515.31 899.75"/><polygon class="cls-4" points="1017.2 875.99 984.92 914.72 1039.56 920.25 1017.2 875.99"/><polygon class="cls-4" points="748.64 433.94 695.33 471.15 742.54 484.56 748.64 433.94"/><polygon class="cls-4" points="43.17 658.6 17.48 693.15 47.78 708.5 43.17 658.6"/><polygon class="cls-4" points="214.96 754.07 249.7 712.38 190.89 706.42 214.96 754.07"/><polygon class="cls-4" points="112.96 557.14 59.65 594.35 106.87 607.77 112.96 557.14"/><polygon class="cls-4" points="1099.9 604.27 1051.14 638.31 1094.32 650.58 1099.9 604.27"/><polygon class="cls-4" points="1400.07 979.45 1358.06 1018.05 1358.06 976.51 1400.07 979.45"/><polygon class="cls-6" points="1264.45 965.72 1236.83 918.75 1289.35 921.05 1264.45 965.72"/><polygon class="cls-4" points="1382.44 769.28 1333.68 803.32 1376.87 815.59 1382.44 769.28"/><polygon class="cls-6" points="1428.28 600.88 1374.27 614.83 1412.7 635.25 1428.28 600.88"/><polygon class="cls-6" points="390.37 759.66 450.82 744.05 407.81 721.19 390.37 759.66"/><polygon class="cls-4" points="191.13 950.3 149.13 988.91 149.13 947.37 191.13 950.3"/><polygon class="cls-4" points="289 791.37 263.31 825.92 293.61 841.27 289 791.37"/><polygon class="cls-6" points="95.78 826.97 156.23 811.36 113.22 788.5 95.78 826.97"/><polygon class="cls-6" points="607.19 1039.72 638.36 1089.53 578.27 1086.34 607.19 1039.72"/><polygon class="cls-4" points="682.16 567.48 701.72 615.46 653.65 594.01 682.16 567.48"/><polygon class="cls-1" points="751.8 764.55 766.18 698.22 718.31 720.03 751.8 764.55"/><polygon class="cls-6" points="644.28 353.56 715.46 375.53 659.22 409.8 644.28 353.56"/><polygon class="cls-4" points="757.8 898.23 723.87 948.02 790.27 952.66 757.8 898.23"/><polygon class="cls-4" points="641.21 679.93 579.06 670.85 610.54 723.59 641.21 679.93"/><polygon class="cls-4" points="850.08 1172.38 843.19 1209.74 858.45 1206.62 869.2 1204.43 850.08 1172.38"/><polygon class="cls-4" points="811.57 688.83 821.88 632.94 799.06 637.61 782.98 640.89 811.57 688.83"/><polygon class="cls-4" points="995.59 647.72 958.94 604.79 950.16 652.34 995.59 647.72"/><polygon class="cls-4" points="960.62 774.96 906.06 819.57 913.41 779.76 960.62 774.96"/><polygon class="cls-4" points="829.78 888.76 787.77 927.37 787.77 885.82 829.78 888.76"/><polygon class="cls-4" points="309.71 477.01 352.51 531.89 268.73 510.52 309.71 477.01"/><polygon class="cls-4" points="1096.09 962.63 1042.99 1003.94 1037.27 947.62 1096.09 962.63"/><polygon class="cls-4" points="452.39 638.25 502.88 614.83 444.88 606.18 452.39 638.25"/><polygon class="cls-4" points="458.45 1029.02 373.81 1068.29 471.03 1082.78 458.45 1029.02"/><polygon class="cls-4" points="589.51 734.69 524.62 764.79 599.15 775.9 589.51 734.69"/><polygon class="cls-6" points="923.96 1109.24 896.35 1062.27 948.87 1064.57 923.96 1109.24"/><polygon class="cls-4" points="321.96 664.59 416.16 667.48 347.94 695.54 321.96 664.59"/><polygon class="cls-4" points="1010.88 777.88 1083.32 747.72 1041.21 792.44 1010.88 777.88"/><polygon class="cls-4" points="872.31 496.03 913.28 508.34 891.33 542.7 872.31 496.03"/><polygon class="cls-6" points="1338.6 537.06 1273.06 534.23 1304.62 489.32 1338.6 537.06"/><polygon class="cls-6" points="1029.87 469.49 1025.7 493.09 1090.38 485.56 1029.87 469.49"/><polygon class="cls-4" points="570.62 476.96 662.39 469.85 621.2 430.61 570.62 476.96"/><polygon class="cls-4" points="1150.69 642.88 1215.28 637.88 1186.29 610.26 1150.69 642.88"/><polygon class="cls-4" points="1234.52 794.18 1186.09 818.39 1260.75 853.7 1234.52 794.18"/><polygon class="cls-4" points="630.77 1255.92 662.57 1213.15 625.06 1194.15 630.77 1255.92"/><polygon class="cls-4" points="913.93 894.96 883.95 935.28 919.31 953.19 913.93 894.96"/><polygon class="cls-4" points="953.69 699.88 927.99 734.43 958.29 749.78 953.69 699.88"/><polygon class="cls-4" points="581.86 557.88 515.33 550.44 530.32 617.85 581.86 557.88"/><polygon class="cls-4" points="629.8 911.72 590.47 907.29 599.33 947.44 629.8 911.72"/><polygon class="cls-4" points="917.61 428.07 910.72 465.44 925.98 462.32 936.73 460.12 917.61 428.07"/><polygon class="cls-4" points="934.26 334.88 908.57 369.44 938.87 384.79 934.26 334.88"/><polygon class="cls-4" points="866.29 416.15 826.97 411.72 835.83 451.88 866.29 416.15"/><polygon class="cls-4" points="452.28 939.92 438.44 889.38 483.1 894.69 452.28 939.92"/><polygon class="cls-4" points="341.74 1167.99 372.69 1204.43 389.17 1176.03 341.74 1167.99"/><polygon class="cls-4" points="796.09 548.3 745.64 488.9 718.77 535.2 796.09 548.3"/><polygon class="cls-4" points="836.45 821.11 795.18 772.51 773.2 810.38 836.45 821.11"/><polygon class="cls-4" points="791.75 1109.58 826.5 1067.89 767.68 1061.93 791.75 1109.58"/><polygon class="cls-4" points="515.31 899.75 485.42 935.63 536.03 940.75 515.31 899.75"/><polygon class="cls-4" points="1017.2 875.99 984.92 914.72 1039.56 920.25 1017.2 875.99"/><polygon class="cls-4" points="748.64 433.94 695.33 471.15 742.54 484.56 748.64 433.94"/><polygon class="cls-4" points="43.17 658.6 17.48 693.15 47.78 708.5 43.17 658.6"/><polygon class="cls-4" points="214.96 754.07 249.7 712.38 190.89 706.42 214.96 754.07"/><polygon class="cls-4" points="112.96 557.14 59.65 594.35 106.87 607.77 112.96 557.14"/><polygon class="cls-4" points="1099.9 604.27 1051.14 638.31 1094.32 650.58 1099.9 604.27"/><polygon class="cls-4" points="1400.07 979.45 1358.06 1018.05 1358.06 976.51 1400.07 979.45"/><polygon class="cls-6" points="1264.45 965.72 1236.83 918.75 1289.35 921.05 1264.45 965.72"/><polygon class="cls-4" points="1382.44 769.28 1333.68 803.32 1376.87 815.59 1382.44 769.28"/><polygon class="cls-6" points="1428.28 600.88 1374.27 614.83 1412.7 635.25 1428.28 600.88"/><polygon class="cls-6" points="390.37 759.66 450.82 744.05 407.81 721.19 390.37 759.66"/><polygon class="cls-4" points="191.13 950.3 149.13 988.91 149.13 947.37 191.13 950.3"/><polygon class="cls-4" points="289 791.37 263.31 825.92 293.61 841.27 289 791.37"/><polygon class="cls-6" points="95.78 826.97 156.23 811.36 113.22 788.5 95.78 826.97"/><polygon class="cls-6" points="607.19 1039.72 638.36 1089.53 578.27 1086.34 607.19 1039.72"/><polygon class="cls-4" points="682.16 567.48 701.72 615.46 653.65 594.01 682.16 567.48"/><polygon class="cls-1" points="751.8 764.55 766.18 698.22 718.31 720.03 751.8 764.55"/><polygon class="cls-6" points="644.28 353.56 715.46 375.53 659.22 409.8 644.28 353.56"/><polygon class="cls-4" points="757.8 898.23 723.87 948.02 790.27 952.66 757.8 898.23"/><polygon class="cls-4" points="641.21 679.93 579.06 670.85 610.54 723.59 641.21 679.93"/><polygon class="cls-4" points="850.08 1172.38 843.19 1209.74 858.45 1206.62 869.2 1204.43 850.08 1172.38"/><polygon class="cls-4" points="811.57 688.83 821.88 632.94 799.06 637.61 782.98 640.89 811.57 688.83"/><polygon class="cls-4" points="995.59 647.72 958.94 604.79 950.16 652.34 995.59 647.72"/><polygon class="cls-4" points="960.62 774.96 906.06 819.57 913.41 779.76 960.62 774.96"/><polygon class="cls-4" points="829.78 888.76 787.77 927.37 787.77 885.82 829.78 888.76"/><polygon class="cls-4" points="309.71 477.01 352.51 531.89 268.73 510.52 309.71 477.01"/><polygon class="cls-4" points="1096.09 962.63 1042.99 1003.94 1037.27 947.62 1096.09 962.63"/><polygon class="cls-4" points="452.39 638.25 502.88 614.83 444.88 606.18 452.39 638.25"/><polygon class="cls-4" points="458.45 1029.02 373.81 1068.29 471.03 1082.78 458.45 1029.02"/><polygon class="cls-4" points="589.51 734.69 524.62 764.79 599.15 775.9 589.51 734.69"/><polygon class="cls-6" points="923.96 1109.24 896.35 1062.27 948.87 1064.57 923.96 1109.24"/><polygon class="cls-4" points="321.96 664.59 416.16 667.48 347.94 695.54 321.96 664.59"/><polygon class="cls-4" points="1010.88 777.88 1083.32 747.72 1041.21 792.44 1010.88 777.88"/><polygon class="cls-4" points="872.31 496.03 913.28 508.34 891.33 542.7 872.31 496.03"/><polygon class="cls-6" points="1338.6 537.06 1273.06 534.23 1304.62 489.32 1338.6 537.06"/><polygon class="cls-6" points="1029.87 469.49 1025.7 493.09 1090.38 485.56 1029.87 469.49"/><polygon class="cls-4" points="570.62 476.96 662.39 469.85 621.2 430.61 570.62 476.96"/><polygon class="cls-4" points="1150.69 642.88 1215.28 637.88 1186.29 610.26 1150.69 642.88"/><polygon class="cls-4" points="1234.52 794.18 1186.09 818.39 1260.75 853.7 1234.52 794.18"/><polygon class="cls-4" points="630.77 1255.92 662.57 1213.15 625.06 1194.15 630.77 1255.92"/><polygon class="cls-4" points="913.93 894.96 883.95 935.28 919.31 953.19 913.93 894.96"/><polygon class="cls-4" points="953.69 699.88 927.99 734.43 958.29 749.78 953.69 699.88"/><polygon class="cls-4" points="581.86 557.88 515.33 550.44 530.32 617.85 581.86 557.88"/><polygon class="cls-4" points="629.8 911.72 590.47 907.29 599.33 947.44 629.8 911.72"/><polygon class="cls-4" points="917.61 428.07 910.72 465.44 925.98 462.32 936.73 460.12 917.61 428.07"/><polygon class="cls-4" points="934.26 334.88 908.57 369.44 938.87 384.79 934.26 334.88"/><polygon class="cls-4" points="866.29 416.15 826.97 411.72 835.83 451.88 866.29 416.15"/><polygon class="cls-4" points="452.28 939.92 438.44 889.38 483.1 894.69 452.28 939.92"/><polygon class="cls-4" points="341.74 1167.99 372.69 1204.43 389.17 1176.03 341.74 1167.99"/><polygon class="cls-4" points="796.09 548.3 745.64 488.9 718.77 535.2 796.09 548.3"/><polygon class="cls-4" points="836.45 821.11 795.18 772.51 773.2 810.38 836.45 821.11"/><polygon class="cls-4" points="791.75 1109.58 826.5 1067.89 767.68 1061.93 791.75 1109.58"/><polygon class="cls-4" points="515.31 899.75 485.42 935.63 536.03 940.75 515.31 899.75"/><polygon class="cls-4" points="1017.2 875.99 984.92 914.72 1039.56 920.25 1017.2 875.99"/><polygon class="cls-4" points="748.64 433.94 695.33 471.15 742.54 484.56 748.64 433.94"/><polygon class="cls-4" points="43.17 658.6 17.48 693.15 47.78 708.5 43.17 658.6"/><polygon class="cls-4" points="214.96 754.07 249.7 712.38 190.89 706.42 214.96 754.07"/><polygon class="cls-4" points="112.96 557.14 59.65 594.35 106.87 607.77 112.96 557.14"/><polygon class="cls-4" points="1099.9 604.27 1051.14 638.31 1094.32 650.58 1099.9 604.27"/><polygon class="cls-4" points="1400.07 979.45 1358.06 1018.05 1358.06 976.51 1400.07 979.45"/><polygon class="cls-6" points="1264.45 965.72 1236.83 918.75 1289.35 921.05 1264.45 965.72"/><polygon class="cls-4" points="1382.44 769.28 1333.68 803.32 1376.87 815.59 1382.44 769.28"/><polygon class="cls-6" points="1428.28 600.88 1374.27 614.83 1412.7 635.25 1428.28 600.88"/><polygon class="cls-6" points="390.37 759.66 450.82 744.05 407.81 721.19 390.37 759.66"/><polygon class="cls-4" points="191.13 950.3 149.13 988.91 149.13 947.37 191.13 950.3"/><polygon class="cls-4" points="289 791.37 263.31 825.92 293.61 841.27 289 791.37"/><polygon class="cls-6" points="95.78 826.97 156.23 811.36 113.22 788.5 95.78 826.97"/><polygon class="cls-6" points="607.19 1039.72 638.36 1089.53 578.27 1086.34 607.19 1039.72"/><polygon class="cls-4" points="682.16 567.48 701.72 615.46 653.65 594.01 682.16 567.48"/><polygon class="cls-1" points="751.8 764.55 766.18 698.22 718.31 720.03 751.8 764.55"/><g class="cls-5"><g class="cls-7"><polygon class="cls-3" points="644.28 353.56 715.46 375.53 659.22 409.8 644.28 353.56"/><path class="cls-1" d="M655.54,419l-19.7-74.16,93.87,29Zm-2.83-56.61,10.18,38.32,38.32-23.35Z" transform="translate(0)"/></g><g class="cls-5"><polygon class="cls-3" points="757.8 898.23 723.87 948.02 790.27 952.66 757.8 898.23"/><path class="cls-1" d="M801.11,959.33l-87.9-6.14,44.92-65.92Zm-66.58-16.47L779.42,946l-21.95-36.8Z" transform="translate(0)"/></g><g class="cls-5"><polygon class="cls-3" points="641.21 679.93 579.06 670.85 610.54 723.59 641.21 679.93"/><path class="cls-1" d="M610.14,734.42l-42.51-71.21,83.92,12.27Zm-19.66-55.94,20.46,34.27,19.94-28.37Z" transform="translate(0)"/></g><g class="cls-5"><polygon class="cls-3" points="850.08 1172.38 843.19 1209.74 858.45 1206.62 869.2 1204.43 850.08 1172.38"/><path class="cls-1" d="M835.79,1217.27l11.34-61.37,31.39,52.64ZM853,1188.85l-2.46,13.36,9.29-1.9Z" transform="translate(0)"/></g><g class="cls-5"><polygon class="cls-3" points="811.57 688.83 821.88 632.94 799.06 637.61 782.98 640.89 811.57 688.83"/><path class="cls-1" d="M814.52,705.31l-40.87-68.53,55.62-11.37ZM792.3,645l16.31,27.34,5.88-31.88Z" transform="translate(0)"/></g><g class="cls-5"><polygon class="cls-3" points="995.59 647.72 958.94 604.79 950.16 652.34 995.59 647.72"/><path class="cls-1" d="M942.93,659l12.45-67.45,52,60.9Zm19.56-41-5.1,27.63,26.4-2.68Z" transform="translate(0)"/></g><g class="cls-5"><polygon class="cls-3" points="960.62 774.96 906.06 819.57 913.41 779.76 960.62 774.96"/><path class="cls-1" d="M897.34,834.32l11.07-60,71.14-7.24Zm21.07-49.14-3.63,19.64,26.92-22Z" transform="translate(0)"/></g><g class="cls-5"><polygon class="cls-3" points="829.78 888.76 787.77 927.37 787.77 885.82 829.78 888.76"/><path class="cls-1" d="M781.87,940.8V879.5l62,4.33Zm11.8-48.65v21.78l22-20.25Z" transform="translate(0)"/></g><g class="cls-5"><polygon class="cls-3" points="309.71 477.01 352.51 531.89 268.73 510.52 309.71 477.01"/><path class="cls-1" d="M367.77,541.87,255.94,513.35l54.71-44.73Zm-86.26-34.18,55.73,14.22L308.77,485.4Z" transform="translate(0)"/></g><g class="cls-5"><polygon class="cls-3" points="1096.09 962.63 1042.99 1003.94 1037.27 947.62 1096.09 962.63"/><path class="cls-1" d="M1038.2,1015.14l-7.65-75.32,78.66,20.07Zm5.79-59.72,3.79,37.32L1083,965.37Z" transform="translate(0)"/></g><g class="cls-5"><polygon class="cls-3" points="452.39 638.25 502.88 614.83 444.88 606.18 452.39 638.25"/><path class="cls-1" d="M448.29,646.66l-11.13-47.59,86.06,12.82Zm4.31-33.36,3.88,16.55,26.06-12.09Z" transform="translate(0)"/></g><g class="cls-5"><polygon class="cls-3" points="458.45 1029.02 373.81 1068.29 471.03 1082.78 458.45 1029.02"/><path class="cls-1" d="M478.75,1089.89l-125.28-18.67,109.07-50.6Zm-84.61-24.53,69.17,10.3-8.95-38.24Z" transform="translate(0)"/></g><g class="cls-5"><polygon class="cls-3" points="589.51 734.69 524.62 764.79 599.15 775.9 589.51 734.69"/><path class="cls-1" d="M606.88,783l-102.6-15.29,89.32-41.45ZM545,761.86l46.48,6.93-6-25.7Z" transform="translate(0)"/></g><g class="cls-7"><polygon class="cls-3" points="923.96 1109.24 896.35 1062.27 948.87 1064.57 923.96 1109.24"/><path class="cls-1" d="M924.1,1121.11l-38.34-65.22,72.92,3.2Zm-17.17-52.48,16.9,28.74L939.06,1070Z" transform="translate(0)"/></g><g class="cls-5"><polygon class="cls-3" points="321.96 664.59 416.16 667.48 347.94 695.54 321.96 664.59"/><path class="cls-1" d="M346.19,702.63,309,658.28l135,4.15ZM335,670.89l14.73,17.55,38.7-15.92Z" transform="translate(0)"/></g><g class="cls-5"><polygon class="cls-3" points="1010.88 777.88 1083.32 747.72 1041.21 792.44 1010.88 777.88"/><path class="cls-1" d="M1042.55,799.62l-46.1-22.13,110.1-45.82Zm-17.24-21.36,14.56,7,20.23-21.47Z" transform="translate(0)"/></g><g class="cls-5"><polygon class="cls-3" points="872.31 496.03 913.28 508.34 891.33 542.7 872.31 496.03"/><path class="cls-1" d="M890.16,555.47l-28-68.65,60.27,18.11Zm-7.74-50.24,10.07,24.69,11.62-18.18Z" transform="translate(0)"/></g><g class="cls-7"><polygon class="cls-3" points="1338.6 537.06 1273.06 534.23 1304.62 489.32 1338.6 537.06"/><path class="cls-1" d="M1350.41,543.48,1262,539.66l42.55-60.56Zm-66.33-14.68,42.71,1.85-22.15-31.12Z" transform="translate(0)"/></g><g class="cls-7"><polygon class="cls-3" points="1029.87 469.49 1025.7 493.09 1090.38 485.56 1029.87 469.49"/><path class="cls-1" d="M1018.51,499.87l6.67-37.73,96.71,25.68Zm16-23-1.67,9.48,26-3Z" transform="translate(0)"/></g><g class="cls-5"><polygon class="cls-3" points="570.62 476.96 662.39 469.85 621.2 430.61 570.62 476.96"/><path class="cls-1" d="M554,484.16l67.25-61.63L676,474.7Zm67.09-45.48-33.9,31.08L648.74,465Z" transform="translate(0)"/></g><g class="cls-5"><polygon class="cls-3" points="1150.69 642.88 1215.28 637.88 1186.29 610.26 1150.69 642.88"/><path class="cls-1" d="M1134.1,650.09l52.27-47.9,42.56,40.55Zm52.12-31.76-18.94,17.35,34.35-2.66Z" transform="translate(0)"/></g><g class="cls-5"><polygon class="cls-3" points="1234.52 794.18 1186.09 818.39 1260.75 853.7 1234.52 794.18"/><path class="cls-1" d="M1272.52,865.8l-99.92-47.26,64.82-32.41Zm-73-47.56,49.4,23.37-17.36-39.39Z" transform="translate(0)"/></g><g class="cls-5"><polygon class="cls-3" points="630.77 1255.92 662.57 1213.15 625.06 1194.15 630.77 1255.92"/><path class="cls-1" d="M626.31,1271.8l-8.11-87.73,53.28,27Zm5.61-67.56,3.31,35.8,18.43-24.79Z" transform="translate(0)"/></g><g class="cls-5"><polygon class="cls-3" points="913.93 894.96 883.95 935.28 919.31 953.19 913.93 894.96"/><path class="cls-1" d="M926.17,963.27l-51.12-25.89,43.34-58.3Zm-33.3-30.09,19.58,9.92-3-32.26Z" transform="translate(0)"/></g><g class="cls-5"><polygon class="cls-3" points="953.69 699.88 927.99 734.43 958.29 749.78 953.69 699.88"/><path class="cls-1" d="M965.15,759.87l-46.07-23.34L958.15,684ZM936.9,732.34l14.54,7.36-2.21-23.94Z" transform="translate(0)"/></g><g class="cls-5"><polygon class="cls-3" points="581.86 557.88 515.33 550.44 530.32 617.85 581.86 557.88"/><path class="cls-1" d="M527.12,630.62l-19.35-87,85.85,9.6Zm-4.24-73.4,10.64,47.86,36.59-42.58Z" transform="translate(0)"/></g><g class="cls-5"><polygon class="cls-3" points="629.8 911.72 590.47 907.29 599.33 947.44 629.8 911.72"/><path class="cls-1" d="M596.13,960.29l-13.2-59.79,58.56,6.6ZM598,914.07l4.53,20.52,15.57-18.26Z" transform="translate(0)"/></g><g class="cls-5"><polygon class="cls-3" points="917.61 428.07 910.72 465.44 925.98 462.32 936.73 460.12 917.61 428.07"/><path class="cls-1" d="M903.33,473l11.32-61.38,31.4,52.64Zm17.24-28.43L918.1,457.9l9.3-1.9Z" transform="translate(0)"/></g><g class="cls-5"><polygon class="cls-3" points="934.26 334.88 908.57 369.44 938.87 384.79 934.26 334.88"/><path class="cls-1" d="M945.72,394.87l-46.06-23.34L938.73,319Zm-28.24-27.53L932,374.7l-2.21-23.93Z" transform="translate(0)"/></g><g class="cls-5"><polygon class="cls-3" points="866.29 416.15 826.97 411.72 835.83 451.88 866.29 416.15"/><path class="cls-1" d="M832.62,464.73l-13.19-59.79L878,411.53Zm1.89-46.22L839,439l15.57-18.26Z" transform="translate(0)"/></g><g class="cls-5"><polygon class="cls-3" points="452.28 939.92 438.44 889.38 483.1 894.69 452.28 939.92"/><path class="cls-1" d="M450,953.79l-19.54-71.3,63,7.49Zm-3.52-57.52L454.6,926l18.15-26.64Z" transform="translate(0)"/></g><g class="cls-5"><polygon class="cls-3" points="341.74 1167.99 372.69 1204.43 389.17 1176.03 341.74 1167.99"/><path class="cls-1" d="M373.6,1214.62l-46.83-55.15,71.78,12.16Zm-16.88-38.11,15.07,17.74,8-13.82Z" transform="translate(0)"/></g><g class="cls-5"><polygon class="cls-3" points="796.09 548.3 745.64 488.9 718.77 535.2 796.09 548.3"/><path class="cls-1" d="M811.07,556.83,709.41,539.59l35.32-60.88Zm-82.92-26,53,9-34.56-40.7Z" transform="translate(0)"/></g><g class="cls-5"><polygon class="cls-3" points="836.45 821.11 795.18 772.51 773.2 810.38 836.45 821.11"/><path class="cls-1" d="M851.43,829.63l-87.6-14.85,30.44-52.46ZM782.57,806l38.9,6.59L796.09,782.7Z" transform="translate(0)"/></g><g class="cls-5"><polygon class="cls-3" points="791.75 1109.58 826.5 1067.89 767.68 1061.93 791.75 1109.58"/><path class="cls-1" d="M790.54,1120.25l-33-65.27,80.57,8.15Zm-12.73-51.36,15.16,30,21.89-26.27Z" transform="translate(0)"/></g><g class="cls-5"><polygon class="cls-3" points="515.31 899.75 485.42 935.63 536.03 940.75 515.31 899.75"/><path class="cls-1" d="M546.15,947.71l-72.37-7.33,42.75-51.3Zm-49.1-16.83,28.86,2.92L514.1,910.42Z" transform="translate(0)"/></g><g class="cls-5"><polygon class="cls-3" points="1017.2 875.99 984.92 914.72 1039.56 920.25 1017.2 875.99"/><path class="cls-1" d="M1049.68,927.21l-76.4-7.74,45.13-54.15ZM996.56,910l32.88,3.33L1016,886.66Z" transform="translate(0)"/></g><g class="cls-5"><polygon class="cls-3" points="748.64 433.94 695.33 471.15 742.54 484.56 748.64 433.94"/><path class="cls-1" d="M747.58,492.12l-65.82-18.69,74.31-51.88ZM708.9,468.87,737.51,477l3.7-30.68Z" transform="translate(0)"/></g><g class="cls-5"><polygon class="cls-3" points="43.17 658.6 17.48 693.15 47.78 708.5 43.17 658.6"/><path class="cls-1" d="M54.63,718.59,8.57,695.25l39.06-52.53ZM26.39,691.05l14.53,7.36-2.21-23.93Z" transform="translate(0)"/></g><g class="cls-5"><polygon class="cls-3" points="214.96 754.07 249.7 712.38 190.89 706.42 214.96 754.07"/><path class="cls-1" d="M213.75,764.74l-33-65.27,80.57,8.15ZM201,713.37l15.17,30,21.88-26.26Z" transform="translate(0)"/></g><g class="cls-5"><polygon class="cls-3" points="112.96 557.14 59.65 594.35 106.87 607.77 112.96 557.14"/><path class="cls-1" d="M111.9,615.33l-65.82-18.7,74.31-51.87ZM73.22,592.08l28.62,8.12,3.69-30.68Z" transform="translate(0)"/></g><g class="cls-5"><polygon class="cls-3" points="1099.9 604.27 1051.14 638.31 1094.32 650.58 1099.9 604.27"/><path class="cls-1" d="M1099.36,658.14l-61.79-17.56,69.76-48.69ZM1064.71,636l24.58,7,3.17-26.37Z" transform="translate(0)"/></g><g class="cls-5"><polygon class="cls-3" points="1400.07 979.45 1358.06 1018.05 1358.06 976.51 1400.07 979.45"/><path class="cls-1" d="M1352.16,1031.49v-61.3l62,4.33Zm11.8-48.65v21.78l22-20.24Z" transform="translate(0)"/></g><g class="cls-7"><polygon class="cls-3" points="1264.45 965.72 1236.83 918.75 1289.35 921.05 1264.45 965.72"/><path class="cls-1" d="M1264.58,977.59l-38.34-65.22,72.92,3.21Zm-17.17-52.47,16.9,28.73,15.24-27.32Z" transform="translate(0)"/></g><g class="cls-5"><polygon class="cls-3" points="1382.44 769.28 1333.68 803.32 1376.87 815.59 1382.44 769.28"/><path class="cls-1" d="M1381.9,823.15l-61.78-17.55,69.75-48.7ZM1347.26,801l24.58,7,3.17-26.36Z" transform="translate(0)"/></g><g class="cls-7"><polygon class="cls-3" points="1428.28 600.88 1374.27 614.83 1412.7 635.25 1428.28 600.88"/><path class="cls-1" d="M1415.47,643.41l-57.37-30.5,80.64-20.82Zm-25-26.66,19.47,10.35,7.9-17.42Z" transform="translate(0)"/></g><g class="cls-7"><polygon class="cls-3" points="390.37 759.66 450.82 744.05 407.81 721.19 390.37 759.66"/><path class="cls-1" d="M379.91,768.46,405,713,467,746Zm30.68-39.11-9.75,21.52,33.81-8.73Z" transform="translate(0)"/></g><g class="cls-5"><polygon class="cls-3" points="191.13 950.3 149.13 988.91 149.13 947.37 191.13 950.3"/><path class="cls-1" d="M143.23,1002.34V941l62,4.33ZM155,953.69v21.79l22-20.25Z" transform="translate(0)"/></g><g class="cls-5"><polygon class="cls-3" points="289 791.37 263.31 825.92 293.61 841.27 289 791.37"/><path class="cls-1" d="M300.47,851.35,254.4,828l39.06-52.53Zm-28.25-27.53,14.53,7.37-2.21-23.94Z" transform="translate(0)"/></g><g class="cls-7"><polygon class="cls-3" points="95.78 826.97 156.23 811.36 113.22 788.5 95.78 826.97"/><path class="cls-1" d="M85.32,835.76l25.12-55.42,62,32.93ZM116,796.65l-9.76,21.52,33.82-8.73Z" transform="translate(0)"/></g><g class="cls-7"><polygon class="cls-3" points="607.19 1039.72 638.36 1089.53 578.27 1086.34 607.19 1039.72"/><path class="cls-1" d="M649.38,1096,568,1091.7l39.16-63.13Zm-60.84-15,38.8,2.06-20.12-32.17Z" transform="translate(0)"/></g><g class="cls-5"><polygon class="cls-3" points="682.16 567.48 701.72 615.46 653.65 594.01 682.16 567.48"/><path class="cls-1" d="M712.72,626.83,643.1,595.76l41.3-38.42Zm-48.53-34.58,26.52,11.84-10.78-26.47Z" transform="translate(0)"/></g><polygon class="cls-3" points="751.8 764.55 766.18 698.22 718.31 720.03 751.8 764.55"/><path class="cls-1" d="M754.84,778.4l-45.66-60.7L774.44,688Zm-27.4-56,21.33,28.36,9.16-42.24Z" transform="translate(0)"/></g></g></svg>