<svg xmlns="http://www.w3.org/2000/svg" viewBox="0 0 1500 1500"><defs><style>.cls-1{fill:#fff;}.cls-2{fill:#f0047f;opacity:0.5;}</style></defs><title>4wichtig</title><g id="Layer_4" data-name="Layer 4"><rect class="cls-1" width="1500" height="1500"/></g><g id="Layer_3" data-name="Layer 3"><polygon class="cls-2" points="796.65 566.44 535.44 700.85 288.43 541.84 302.63 248.41 563.85 114 810.86 273.01 796.65 566.44"/><polygon class="cls-2" points="592.54 836.79 331.33 971.2 84.32 812.19 98.52 518.76 359.74 384.35 606.75 543.36 592.54 836.79"/><polygon class="cls-2" points="1100.53 592.4 839.32 726.81 592.3 567.8 606.51 274.38 867.72 139.96 1114.73 298.98 1100.53 592.4"/><polygon class="cls-2" points="975.3 920.44 714.08 1054.85 467.07 895.84 481.28 602.41 742.49 468 989.5 627.02 975.3 920.44"/><polygon class="cls-2" points="975.3 920.44 714.08 1054.85 467.07 895.84 481.28 602.41 742.49 468 989.5 627.02 975.3 920.44"/><polygon class="cls-2" points="642.33 1187.91 381.12 1322.32 134.11 1163.3 148.31 869.88 409.53 735.47 656.54 894.48 642.33 1187.91"/><polygon class="cls-2" points="1401.5 813.62 1140.29 948.03 893.27 789.01 907.48 495.59 1168.69 361.18 1415.7 520.19 1401.5 813.62"/><polygon class="cls-2" points="1361.74 1159.06 1100.53 1293.47 853.52 1134.46 867.72 841.03 1128.94 706.62 1375.95 865.63 1361.74 1159.06"/><polygon class="cls-2" points="1009.84 1317.71 748.62 1452.12 501.61 1293.11 515.82 999.68 777.03 865.27 1024.04 1024.29 1009.84 1317.71"/><path class="cls-1" d="M152.87,646.68H131.42v-4l13.82-19.81H131.79v-5H152.5v3.94l-13.81,19.84h14.18Z" transform="translate(0)"/><path class="cls-1" d="M172.61,646.68l-.81-2.82h-.32a6.31,6.31,0,0,1-2.74,2.37,9.32,9.32,0,0,1-4,.84q-3.88,0-5.85-2.08a8.35,8.35,0,0,1-2-6V624.63h6v12.88a6.16,6.16,0,0,0,.85,3.58,3.08,3.08,0,0,0,2.7,1.19,4,4,0,0,0,3.64-1.69q1.13-1.68,1.13-5.59V624.63h6v22Z" transform="translate(0)"/><path class="cls-1" d="M203.31,642.28a13.12,13.12,0,0,0,3.79-.69v4.48a13.52,13.52,0,0,1-5.52,1q-3.62,0-5.26-1.82a7.93,7.93,0,0,1-1.65-5.47V629.15h-2.88V626.6l3.32-2,1.73-4.65h3.85v4.69h6.17v4.52h-6.17v10.63a2.35,2.35,0,0,0,.72,1.89A2.82,2.82,0,0,0,203.31,642.28Z" transform="translate(0)"/><path class="cls-1" d="M227.17,646.68l-.81-2.82h-.31a6.43,6.43,0,0,1-2.74,2.37,9.4,9.4,0,0,1-4.05.84q-3.88,0-5.85-2.08a8.35,8.35,0,0,1-2-6V624.63h6v12.88a6.16,6.16,0,0,0,.85,3.58,3.08,3.08,0,0,0,2.7,1.19,4.06,4.06,0,0,0,3.65-1.69q1.13-1.68,1.12-5.59V624.63h6v22Z" transform="translate(0)"/><path class="cls-1" d="M258.44,646.68h-6V633.8a6.16,6.16,0,0,0-.85-3.58,3.08,3.08,0,0,0-2.7-1.19,4.06,4.06,0,0,0-3.65,1.69q-1.12,1.68-1.12,5.59v10.37h-6v-22h4.6l.81,2.82h.33A6.37,6.37,0,0,1,246.6,625a9.41,9.41,0,0,1,4-.82,7.69,7.69,0,0,1,5.83,2.08,8.34,8.34,0,0,1,2,6Z" transform="translate(0)"/><path class="cls-1" d="M270.53,642.44a60.86,60.86,0,0,1-3.47,9.44h-4.34q1.29-5.24,2-9.9h5.52Z" transform="translate(0)"/><path class="cls-1" d="M305,646.68l-1.7-7.71L301,629.23h-.14l-4,17.45h-6.47l-6.27-22h6l2.55,9.76c.4,1.75.82,4.16,1.24,7.24H294a39.41,39.41,0,0,1,.69-4.75l.31-1.68,2.72-10.57h6.63l2.58,10.57c0,.29.14.72.25,1.28s.22,1.17.32,1.81.2,1.26.29,1.87.13,1.1.15,1.47H308q.16-1.43.63-3.9c.3-1.64.52-2.76.65-3.34l2.64-9.76h5.89l-6.34,22Z" transform="translate(0)"/><path class="cls-1" d="M335.4,646.68l-1.16-3h-.16a8.77,8.77,0,0,1-3.12,2.65,10,10,0,0,1-4.19.74,6.76,6.76,0,0,1-5-1.81,7,7,0,0,1-1.82-5.17,5.79,5.79,0,0,1,2.45-5.17c1.64-1.12,4.1-1.73,7.4-1.85l3.83-.12v-1q0-3.36-3.43-3.36a15.73,15.73,0,0,0-6.21,1.6l-2-4.06a17.87,17.87,0,0,1,8.44-2q4.43,0,6.8,1.93c1.58,1.29,2.36,3.25,2.36,5.88v14.69Zm-1.77-10.22-2.33.08a7.38,7.38,0,0,0-3.9,1,3,3,0,0,0-1.28,2.64c0,1.7,1,2.54,2.92,2.54a4.64,4.64,0,0,0,3.34-1.2,4.24,4.24,0,0,0,1.25-3.19Z" transform="translate(0)"/><path class="cls-1" d="M361.18,640.13a6.09,6.09,0,0,1-2.36,5.17q-2.35,1.77-7.05,1.77a22.81,22.81,0,0,1-4.1-.32,15.9,15.9,0,0,1-3.18-1v-5a20.4,20.4,0,0,0,3.78,1.32,15,15,0,0,0,3.7.53q3.27,0,3.27-1.89a1.56,1.56,0,0,0-.43-1.15,6.34,6.34,0,0,0-1.5-1c-.71-.37-1.66-.81-2.84-1.31a18.14,18.14,0,0,1-3.74-2,5.63,5.63,0,0,1-1.73-2.08,6.9,6.9,0,0,1-.54-2.89,5.21,5.21,0,0,1,2.27-4.54,11,11,0,0,1,6.46-1.61,18.41,18.41,0,0,1,7.75,1.73l-1.81,4.34c-1.11-.47-2.14-.86-3.1-1.16a9.81,9.81,0,0,0-2.94-.46c-1.77,0-2.66.48-2.66,1.44a1.69,1.69,0,0,0,.86,1.4,23,23,0,0,0,3.75,1.76,17.63,17.63,0,0,1,3.79,2,5.8,5.8,0,0,1,1.77,2.09A6.31,6.31,0,0,1,361.18,640.13Z" transform="translate(0)"/><path class="cls-1" d="M135.37,667.39c0-2,1.09-2.93,3.27-2.93s3.28,1,3.28,2.93a2.88,2.88,0,0,1-.82,2.18,3.46,3.46,0,0,1-2.46.78C136.46,670.35,135.37,669.37,135.37,667.39Zm6.27,27.75h-6v-22h6Z" transform="translate(0)"/><path class="cls-1" d="M156.9,695.53q-10.29,0-10.29-11.3c0-3.74.93-6.61,2.8-8.58s4.54-3,8-3a15.3,15.3,0,0,1,6.86,1.5l-1.78,4.65c-.94-.38-1.82-.69-2.64-.94a8.58,8.58,0,0,0-2.44-.36q-4.69,0-4.7,6.66c0,4.32,1.57,6.47,4.7,6.47a10.69,10.69,0,0,0,3.21-.46,11.57,11.57,0,0,0,3-1.45v5.15a10.09,10.09,0,0,1-3,1.28A17,17,0,0,1,156.9,695.53Z" transform="translate(0)"/><path class="cls-1" d="M189.06,695.14h-6V682.26q0-4.77-3.55-4.77a4,4,0,0,0-3.65,1.71c-.75,1.15-1.12,3-1.12,5.57v10.37h-6V664.46h6v6.25c0,.48,0,1.63-.14,3.43l-.14,1.77h.32a7,7,0,0,1,6.39-3.23,7.81,7.81,0,0,1,5.89,2.09,8.29,8.29,0,0,1,2,6Z" transform="translate(0)"/><path class="cls-1" d="M221.13,688.59a6.09,6.09,0,0,1-2.36,5.17q-2.36,1.77-7.05,1.77a22.81,22.81,0,0,1-4.1-.32,15.9,15.9,0,0,1-3.18-1v-5a20.4,20.4,0,0,0,3.78,1.32,15,15,0,0,0,3.7.53q3.27,0,3.27-1.89a1.56,1.56,0,0,0-.43-1.15,6.34,6.34,0,0,0-1.5-1c-.71-.37-1.66-.81-2.84-1.31a18.14,18.14,0,0,1-3.74-2,5.63,5.63,0,0,1-1.73-2.08,6.9,6.9,0,0,1-.55-2.89,5.22,5.22,0,0,1,2.28-4.54,11,11,0,0,1,6.46-1.61,18.41,18.41,0,0,1,7.75,1.73l-1.81,4.34c-1.11-.47-2.14-.86-3.1-1.16a9.81,9.81,0,0,0-2.94-.46c-1.77,0-2.66.48-2.66,1.44a1.69,1.69,0,0,0,.86,1.4,23,23,0,0,0,3.75,1.76,17.63,17.63,0,0,1,3.79,1.95,5.8,5.8,0,0,1,1.77,2.09A6.31,6.31,0,0,1,221.13,688.59Z" transform="translate(0)"/><path class="cls-1" d="M225.56,667.39c0-2,1.09-2.93,3.28-2.93s3.27,1,3.27,2.93a2.84,2.84,0,0,1-.82,2.18,3.42,3.42,0,0,1-2.45.78C226.65,670.35,225.56,669.37,225.56,667.39Zm6.27,27.75h-6v-22h6Z" transform="translate(0)"/><path class="cls-1" d="M258.49,695.14h-6V682.26a6.16,6.16,0,0,0-.85-3.58,3.09,3.09,0,0,0-2.7-1.19,4.06,4.06,0,0,0-3.65,1.69q-1.12,1.68-1.12,5.59v10.37h-6v-22h4.6l.81,2.82h.33a6.37,6.37,0,0,1,2.77-2.41,9.39,9.39,0,0,1,4-.82,7.7,7.7,0,0,1,5.84,2.08,8.34,8.34,0,0,1,2,6Z" transform="translate(0)"/><path class="cls-1" d="M285,695.14h-6V682.26a6.16,6.16,0,0,0-.85-3.58,3.08,3.08,0,0,0-2.7-1.19,4.06,4.06,0,0,0-3.65,1.69q-1.12,1.68-1.12,5.59v10.37h-6v-22h4.6l.81,2.82h.33a6.37,6.37,0,0,1,2.77-2.41,9.41,9.41,0,0,1,4-.82,7.69,7.69,0,0,1,5.83,2.08,8.34,8.34,0,0,1,2,6Z" transform="translate(0)"/><path class="cls-1" d="M296.47,695.14l-8.4-22h6.29l4.26,12.56a22.8,22.8,0,0,1,.89,4.52h.12a19.65,19.65,0,0,1,.88-4.52l4.24-12.56H311l-8.4,22Z" transform="translate(0)"/><path class="cls-1" d="M334.23,684.08q0,5.37-2.84,8.42a10.31,10.31,0,0,1-7.91,3,11.05,11.05,0,0,1-5.6-1.39,9.33,9.33,0,0,1-3.72-4,13.4,13.4,0,0,1-1.3-6.07q0-5.42,2.82-8.4t7.92-3a11.1,11.1,0,0,1,5.6,1.38,9.22,9.22,0,0,1,3.73,4A13.27,13.27,0,0,1,334.23,684.08Zm-15.24,0a9.27,9.27,0,0,0,1.07,4.94,3.85,3.85,0,0,0,3.5,1.68A3.75,3.75,0,0,0,327,689a9.29,9.29,0,0,0,1.06-4.95,9.08,9.08,0,0,0-1.07-4.91,4.52,4.52,0,0,0-7,0A9.08,9.08,0,0,0,319,684.08Z" transform="translate(0)"/><path class="cls-1" d="M345.21,695.14h-6V664.46h6Z" transform="translate(0)"/><path class="cls-1" d="M357.54,695.14h-6V664.46h6Z" transform="translate(0)"/><path class="cls-1" d="M210,726.07h-5.2V743.6h-6V726.07h-3.31v-2.9l3.31-1.62v-1.61c0-2.52.62-4.35,1.86-5.51s3.21-1.73,5.93-1.73a15.58,15.58,0,0,1,5.54.92L210.55,718a11.27,11.27,0,0,0-3.36-.57,2.16,2.16,0,0,0-1.85.76,3.15,3.15,0,0,0-.57,1.94v1.38H210Zm3.2-10.22c0-2,1.09-2.93,3.27-2.93s3.28,1,3.28,2.93a2.88,2.88,0,0,1-.82,2.18,3.46,3.46,0,0,1-2.46.78C214.26,718.81,213.17,717.83,213.17,715.85Zm6.27,27.75h-6V721.55h6Z" transform="translate(0)"/><path class="cls-1" d="M246.08,743.6h-6V730.72a6.25,6.25,0,0,0-.84-3.58,3.11,3.11,0,0,0-2.7-1.19,4,4,0,0,0-3.65,1.69q-1.12,1.68-1.13,5.59V743.6h-6V721.55h4.59l.81,2.82h.34a6.32,6.32,0,0,1,2.77-2.41,9.33,9.33,0,0,1,4-.82,7.71,7.71,0,0,1,5.84,2.08,8.34,8.34,0,0,1,2,6Z" transform="translate(0)"/><path class="cls-1" d="M259.25,744a7.14,7.14,0,0,1-6.1-3c-1.48-2-2.22-4.79-2.22-8.36s.75-6.43,2.26-8.45a7.34,7.34,0,0,1,6.22-3,7.21,7.21,0,0,1,6.35,3.23h.2a23.94,23.94,0,0,1-.46-4.4v-7.05h6V743.6h-4.62l-1.16-2.86h-.26A6.88,6.88,0,0,1,259.25,744Zm2.11-4.79a4.07,4.07,0,0,0,3.38-1.34c.72-.89,1.11-2.41,1.18-4.56v-.65c0-2.36-.37-4.06-1.1-5.08a4,4,0,0,0-3.56-1.54,3.53,3.53,0,0,0-3.12,1.7,9,9,0,0,0-1.12,5,8.6,8.6,0,0,0,1.13,4.88A3.66,3.66,0,0,0,261.36,739.2Z" transform="translate(0)"/><path class="cls-1" d="M287.8,744q-5.32,0-8.32-2.94t-3-8.32q0-5.54,2.78-8.57a9.88,9.88,0,0,1,7.66-3,9.71,9.71,0,0,1,7.27,2.66,10,10,0,0,1,2.6,7.35v2.92H282.58a5.77,5.77,0,0,0,1.52,4,5.32,5.32,0,0,0,4,1.44,16.37,16.37,0,0,0,3.77-.42,18.18,18.18,0,0,0,3.7-1.32v4.65a14,14,0,0,1-3.37,1.18A21.74,21.74,0,0,1,287.8,744ZM287,725.42a3.8,3.8,0,0,0-3,1.21,5.59,5.59,0,0,0-1.24,3.44h8.44a5,5,0,0,0-1.17-3.44A3.93,3.93,0,0,0,287,725.42Z" transform="translate(0)"/><path class="cls-1" d="M478.87,285.7H457.42v-4l13.82-19.82H457.8v-5.05h20.7v3.95l-13.8,19.83h14.17Z" transform="translate(0)"/><path class="cls-1" d="M498.61,285.7l-.81-2.82h-.31a6.38,6.38,0,0,1-2.74,2.38,9.36,9.36,0,0,1-4,.84,7.72,7.72,0,0,1-5.86-2.08,8.37,8.37,0,0,1-2-6V263.66h6v12.87a6.14,6.14,0,0,0,.85,3.58,3.07,3.07,0,0,0,2.7,1.19,4.07,4.07,0,0,0,3.65-1.68q1.13-1.69,1.12-5.59V263.66h6v22Z" transform="translate(0)"/><path class="cls-1" d="M422.52,334.16h-7L411.65,319c-.14-.54-.39-1.66-.73-3.34s-.55-2.83-.61-3.41c-.08.71-.27,1.85-.59,3.43s-.56,2.69-.73,3.36l-3.88,15.1h-6.94l-7.36-28.83h6l3.68,15.74c.65,2.9,1.11,5.42,1.4,7.55.08-.75.26-1.91.55-3.48s.54-2.79.79-3.66l4.2-16.15h5.78l4.2,16.15c.19.73.42,1.83.69,3.32s.49,2.76.63,3.82c.13-1,.34-2.3.63-3.83s.56-2.77.79-3.72l3.67-15.74h6Z" transform="translate(0)"/><path class="cls-1" d="M447,334.16l-1.16-3h-.16a8.94,8.94,0,0,1-3.13,2.66,10.15,10.15,0,0,1-4.19.74,6.8,6.8,0,0,1-5-1.82,7,7,0,0,1-1.82-5.16A5.82,5.82,0,0,1,434,322.4c1.63-1.11,4.1-1.73,7.4-1.84l3.82-.12v-1q0-3.35-3.43-3.35a15.56,15.56,0,0,0-6.21,1.6l-2-4.07a18,18,0,0,1,8.44-2q4.44,0,6.8,1.94t2.37,5.87v14.69ZM445.23,324l-2.32.08A7.45,7.45,0,0,0,439,325a3,3,0,0,0-1.28,2.65c0,1.69,1,2.54,2.92,2.54A4.62,4.62,0,0,0,444,329a4.23,4.23,0,0,0,1.25-3.2Z" transform="translate(0)"/><path class="cls-1" d="M466.35,334.56q-10.29,0-10.29-11.3,0-5.62,2.8-8.59c1.87-2,4.54-3,8-3a15.3,15.3,0,0,1,6.86,1.5L472,317.85q-1.41-.57-2.64-.93a8.26,8.26,0,0,0-2.44-.37q-4.69,0-4.7,6.67,0,6.46,4.7,6.47a10.69,10.69,0,0,0,3.21-.47,11.57,11.57,0,0,0,3-1.45v5.15a9.83,9.83,0,0,1-2.95,1.28A16.38,16.38,0,0,1,466.35,334.56Z" transform="translate(0)"/><path class="cls-1" d="M498.51,334.16h-6V321.29q0-4.79-3.55-4.78a4.05,4.05,0,0,0-3.65,1.72c-.75,1.14-1.12,3-1.12,5.56v10.37h-6V303.48h6v6.25c0,.49-.05,1.63-.14,3.43l-.14,1.78h.32a7,7,0,0,1,6.39-3.24,7.81,7.81,0,0,1,5.89,2.09,8.32,8.32,0,0,1,2,6Z" transform="translate(0)"/><path class="cls-1" d="M520.09,327.62a6.06,6.06,0,0,1-2.36,5.16c-1.57,1.18-3.92,1.78-7.05,1.78a21.84,21.84,0,0,1-4.1-.33,15.27,15.27,0,0,1-3.18-1v-5a22,22,0,0,0,3.78,1.32,15.51,15.51,0,0,0,3.7.53q3.27,0,3.27-1.89a1.59,1.59,0,0,0-.43-1.16,6.37,6.37,0,0,0-1.5-1c-.71-.38-1.66-.82-2.84-1.31a17.61,17.61,0,0,1-3.74-2,5.47,5.47,0,0,1-1.73-2.08,6.86,6.86,0,0,1-.55-2.89,5.23,5.23,0,0,1,2.28-4.54,11.11,11.11,0,0,1,6.46-1.61,18.27,18.27,0,0,1,7.75,1.74L518,317.78a31.66,31.66,0,0,0-3.1-1.17,9.8,9.8,0,0,0-2.94-.45c-1.77,0-2.66.48-2.66,1.44a1.71,1.71,0,0,0,.86,1.4,23.21,23.21,0,0,0,3.75,1.75,17.14,17.14,0,0,1,3.79,2,5.72,5.72,0,0,1,1.77,2.09A6.25,6.25,0,0,1,520.09,327.62Z" transform="translate(0)"/><path class="cls-1" d="M534.76,334.56c-3.55,0-6.33-1-8.32-2.94s-3-4.73-3-8.32.92-6.55,2.77-8.57a9.86,9.86,0,0,1,7.66-3,9.75,9.75,0,0,1,7.28,2.66,10.11,10.11,0,0,1,2.6,7.36v2.92H529.53a5.78,5.78,0,0,0,1.52,4,5.34,5.34,0,0,0,4,1.44,16.89,16.89,0,0,0,3.77-.41,19,19,0,0,0,3.71-1.33V333a14.23,14.23,0,0,1-3.38,1.17A20.86,20.86,0,0,1,534.76,334.56ZM533.91,316a3.84,3.84,0,0,0-3,1.21,5.61,5.61,0,0,0-1.24,3.44h8.44a5.09,5.09,0,0,0-1.16-3.44A4,4,0,0,0,533.91,316Z" transform="translate(0)"/><path class="cls-1" d="M569,334.16h-6V321.29a6.22,6.22,0,0,0-.84-3.58,3.09,3.09,0,0,0-2.71-1.2,4.06,4.06,0,0,0-3.64,1.69c-.75,1.12-1.13,3-1.13,5.59v10.37h-6v-22h4.59l.81,2.82h.34a6.34,6.34,0,0,1,2.77-2.42,9.48,9.48,0,0,1,4-.82,7.75,7.75,0,0,1,5.84,2.08,8.4,8.4,0,0,1,2,6Z" transform="translate(0)"/><path class="cls-1" d="M1167.26,586h11.44V601a32.6,32.6,0,0,1-5.24,1.28,34.59,34.59,0,0,1-5,.36q-6.53,0-10-3.84t-3.44-11q0-7,4-10.88T1170.1,573a21.32,21.32,0,0,1,8.56,1.78l-2,4.89a14.58,14.58,0,0,0-6.57-1.58,8.13,8.13,0,0,0-6.35,2.66,10.34,10.34,0,0,0-2.39,7.16q0,4.7,1.93,7.17a6.64,6.64,0,0,0,5.59,2.47,20,20,0,0,0,3.88-.39v-6h-5.46Z" transform="translate(0)"/><path class="cls-1" d="M1191.1,602.21h-6V571.52h6Z" transform="translate(0)"/><path class="cls-1" d="M1213,602.21l-.81-2.82h-.32a6.37,6.37,0,0,1-2.74,2.37,9.32,9.32,0,0,1-4,.84q-3.88,0-5.86-2.08a8.39,8.39,0,0,1-2-6V580.16h6V593a6.24,6.24,0,0,0,.85,3.58,3.11,3.11,0,0,0,2.7,1.19,4,4,0,0,0,3.65-1.69q1.13-1.68,1.13-5.59V580.16h6v22.05Zm-12.35-27.71a2.58,2.58,0,0,1,.74-2,2.81,2.81,0,0,1,2-.69,2.75,2.75,0,0,1,2,.73,2.57,2.57,0,0,1,.74,1.93,2.51,2.51,0,0,1-.75,1.9,3.23,3.23,0,0,1-4,0A2.52,2.52,0,0,1,1200.68,574.5Zm8,0a2.42,2.42,0,0,1,.8-2,3,3,0,0,1,2-.64,2.89,2.89,0,0,1,2,.71,2.52,2.52,0,0,1,.76,2,2.48,2.48,0,0,1-.77,1.91,2.84,2.84,0,0,1-2,.71,3,3,0,0,1-2-.64A2.35,2.35,0,0,1,1208.63,574.5Z" transform="translate(0)"/><path class="cls-1" d="M1232.9,602.6q-10.29,0-10.29-11.3,0-5.62,2.8-8.59t8-3a15.34,15.34,0,0,1,6.87,1.5l-1.78,4.65c-.94-.38-1.83-.69-2.64-.94a8.65,8.65,0,0,0-2.45-.36c-3.12,0-4.69,2.22-4.69,6.66s1.57,6.47,4.69,6.47a10.71,10.71,0,0,0,3.22-.46,12.07,12.07,0,0,0,3-1.45V601a9.87,9.87,0,0,1-2.95,1.29A17,17,0,0,1,1232.9,602.6Z" transform="translate(0)"/><path class="cls-1" d="M1250.49,590.22l2.62-3.36,6.18-6.7h6.78l-8.76,9.56,9.29,12.49h-6.94l-6.35-8.94-2.58,2.07v6.87h-6V571.52h6v13.69l-.32,5Z" transform="translate(0)"/><path class="cls-1" d="M1275.77,602.21h-6V571.52h6Z" transform="translate(0)"/><path class="cls-1" d="M1281.82,574.46q0-2.94,3.28-2.94t3.27,2.94a2.84,2.84,0,0,1-.82,2.18,3.42,3.42,0,0,1-2.45.78Q1281.82,577.42,1281.82,574.46Zm6.27,27.75h-6V580.16h6Z" transform="translate(0)"/><path class="cls-1" d="M1303.36,602.6q-10.3,0-10.3-11.3c0-3.75.94-6.61,2.8-8.59s4.55-3,8-3a15.27,15.27,0,0,1,6.86,1.5L1309,585.9c-1-.38-1.83-.69-2.65-.94a8.58,8.58,0,0,0-2.44-.36q-4.7,0-4.69,6.66,0,6.47,4.69,6.47a10.64,10.64,0,0,0,3.21-.46,11.9,11.9,0,0,0,3-1.45V601a9.76,9.76,0,0,1-3,1.29A16.94,16.94,0,0,1,1303.36,602.6Z" transform="translate(0)"/><path class="cls-1" d="M1335.52,602.21h-6V589.33q0-4.77-3.55-4.77a4,4,0,0,0-3.64,1.71q-1.12,1.72-1.13,5.56v10.38h-6V571.52h6v6.25c0,.49,0,1.63-.14,3.44l-.13,1.77h.31c1.34-2.16,3.47-3.23,6.39-3.23a7.79,7.79,0,0,1,5.9,2.09,8.29,8.29,0,0,1,2,6Z" transform="translate(0)"/><path class="cls-1" d="M1194.35,650.67h-17.41v-3.55l10.22-13.91h-9.61v-4.59H1194v3.9l-9.94,13.55h10.29Z" transform="translate(0)"/><path class="cls-1" d="M1214.33,650.67l-.81-2.82h-.32a6.37,6.37,0,0,1-2.74,2.37,9.32,9.32,0,0,1-4,.84q-3.89,0-5.86-2.08a8.39,8.39,0,0,1-2-6V628.62h6V641.5a6.25,6.25,0,0,0,.84,3.58,3.11,3.11,0,0,0,2.7,1.19,4,4,0,0,0,3.65-1.69q1.13-1.68,1.13-5.59V628.62h6v22Z" transform="translate(0)"/><path class="cls-1" d="M1251.12,644.12a6.07,6.07,0,0,1-2.36,5.17q-2.35,1.77-7,1.77a21.88,21.88,0,0,1-4.11-.33,15.17,15.17,0,0,1-3.17-1v-5a21.15,21.15,0,0,0,3.78,1.32,15,15,0,0,0,3.69.53c2.18,0,3.28-.63,3.28-1.89a1.57,1.57,0,0,0-.44-1.15,6.34,6.34,0,0,0-1.5-1c-.71-.37-1.65-.81-2.84-1.31a18,18,0,0,1-3.73-2,5.56,5.56,0,0,1-1.74-2.08,6.9,6.9,0,0,1-.54-2.89,5.24,5.24,0,0,1,2.28-4.55,11.11,11.11,0,0,1,6.46-1.6,18.25,18.25,0,0,1,7.74,1.73l-1.81,4.34c-1.1-.47-2.14-.86-3.1-1.16a9.44,9.44,0,0,0-2.93-.46c-1.78,0-2.66.48-2.66,1.44a1.68,1.68,0,0,0,.85,1.4,23.21,23.21,0,0,0,3.76,1.76,16.87,16.87,0,0,1,3.78,2,5.65,5.65,0,0,1,1.78,2.09A6.45,6.45,0,0,1,1251.12,644.12Z" transform="translate(0)"/><path class="cls-1" d="M1265.79,651.06q-5.32,0-8.32-2.94t-3-8.32c0-3.69.93-6.55,2.77-8.57a9.89,9.89,0,0,1,7.66-3,9.68,9.68,0,0,1,7.28,2.66,10,10,0,0,1,2.6,7.35v2.92h-14.21a5.76,5.76,0,0,0,1.51,4,5.36,5.36,0,0,0,4,1.44,16.23,16.23,0,0,0,3.76-.41,19.31,19.31,0,0,0,3.71-1.32v4.65a14,14,0,0,1-3.37,1.18A21.81,21.81,0,0,1,1265.79,651.06Zm-.85-18.57a3.8,3.8,0,0,0-3,1.21,5.59,5.59,0,0,0-1.25,3.44h8.44a5,5,0,0,0-1.16-3.44A3.93,3.93,0,0,0,1264.94,632.49Z" transform="translate(0)"/><path class="cls-1" d="M1279.42,622.92q0-2.94,3.27-2.94t3.27,2.94a2.87,2.87,0,0,1-.81,2.18,3.46,3.46,0,0,1-2.46.78Q1279.42,625.88,1279.42,622.92Zm6.27,27.75h-6v-22h6Z" transform="translate(0)"/><path class="cls-1" d="M1312.35,650.67h-6V637.79a6.25,6.25,0,0,0-.84-3.58,3.11,3.11,0,0,0-2.71-1.19,4,4,0,0,0-3.64,1.68q-1.12,1.69-1.13,5.59v10.38h-6v-22h4.59l.81,2.82h.34a6.4,6.4,0,0,1,2.77-2.42,9.48,9.48,0,0,1,4-.81,7.71,7.71,0,0,1,5.84,2.08,8.35,8.35,0,0,1,2,6Z" transform="translate(0)"/><path class="cls-1" d="M1110.28,1023.34h-16.6V994.52h16.6v5h-10.49v6.33h9.76v5h-9.76v7.44h10.49Z" transform="translate(0)"/><path class="cls-1" d="M1115.56,995.6c0-2,1.1-2.94,3.28-2.94s3.27,1,3.27,2.94a2.86,2.86,0,0,1-.82,2.18,3.42,3.42,0,0,1-2.45.78C1116.66,998.56,1115.56,997.57,1115.56,995.6Zm6.27,27.74h-6v-22h6Z" transform="translate(0)"/><path class="cls-1" d="M1148.49,1023.34h-6v-12.87a6.14,6.14,0,0,0-.85-3.58,3.06,3.06,0,0,0-2.7-1.19,4.07,4.07,0,0,0-3.65,1.68q-1.12,1.7-1.12,5.59v10.37h-6v-22h4.59l.81,2.82h.33a6.39,6.39,0,0,1,2.77-2.42,9.56,9.56,0,0,1,4-.82,7.73,7.73,0,0,1,5.83,2.08,8.35,8.35,0,0,1,2,6Z" transform="translate(0)"/><path class="cls-1" d="M1164.66,1023.74q-5.33,0-8.32-2.94c-2-2-3-4.73-3-8.32s.92-6.55,2.77-8.57a9.85,9.85,0,0,1,7.66-3,9.68,9.68,0,0,1,7.27,2.67,10,10,0,0,1,2.61,7.35v2.92h-14.22a5.74,5.74,0,0,0,1.52,4,5.32,5.32,0,0,0,4,1.44,17,17,0,0,0,3.77-.41,19.47,19.47,0,0,0,3.7-1.32v4.65a13.58,13.58,0,0,1-3.37,1.17A21,21,0,0,1,1164.66,1023.74Zm-.84-18.58a3.81,3.81,0,0,0-3,1.22,5.57,5.57,0,0,0-1.24,3.44H1168a5,5,0,0,0-1.17-3.44A3.93,3.93,0,0,0,1163.82,1005.16Z" transform="translate(0)"/><path class="cls-1" d="M1208.22,1001.3v3.05l-3.45.89a6,6,0,0,1,1,3.31,6.72,6.72,0,0,1-2.48,5.54,10.72,10.72,0,0,1-6.87,2l-1.08-.06-.89-.1a2,2,0,0,0-.93,1.58c0,.87,1.11,1.3,3.32,1.3h3.74a8.54,8.54,0,0,1,5.53,1.56,5.55,5.55,0,0,1,1.91,4.57,6.79,6.79,0,0,1-3.23,6c-2.15,1.41-5.23,2.12-9.26,2.12q-4.61,0-7-1.6a5.1,5.1,0,0,1-2.43-4.51,4.69,4.69,0,0,1,1.24-3.33,7.1,7.1,0,0,1,3.65-1.91,4.15,4.15,0,0,1-1.62-1.29,3.18,3.18,0,0,1,0-4,8.49,8.49,0,0,1,2.11-1.64,5.89,5.89,0,0,1-2.75-2.41,7.26,7.26,0,0,1-1-3.9,6.88,6.88,0,0,1,2.34-5.58c1.57-1.32,3.8-2,6.71-2a17.69,17.69,0,0,1,2.2.17c.84.11,1.38.2,1.62.25Zm-17,25.16a2.16,2.16,0,0,0,1.19,2,6.58,6.58,0,0,0,3.34.71,11.73,11.73,0,0,0,5.07-.89,2.7,2.7,0,0,0,1.83-2.42,1.73,1.73,0,0,0-1.08-1.72,9,9,0,0,0-3.35-.47h-3.12a4.71,4.71,0,0,0-2.77.78A2.4,2.4,0,0,0,1191.21,1026.46Zm2.18-17.94a4.49,4.49,0,0,0,.82,2.83,3,3,0,0,0,2.5,1,2.89,2.89,0,0,0,2.48-1,4.55,4.55,0,0,0,.79-2.83q0-4-3.27-4T1193.39,1008.52Z" transform="translate(0)"/><path class="cls-1" d="M1227.47,1023.34l-.81-2.82h-.32a6.27,6.27,0,0,1-2.74,2.38,9.32,9.32,0,0,1-4,.84,7.74,7.74,0,0,1-5.86-2.08,8.4,8.4,0,0,1-2-6V1001.3h6v12.87a6.2,6.2,0,0,0,.84,3.58,3.09,3.09,0,0,0,2.7,1.2,4.07,4.07,0,0,0,3.65-1.69c.75-1.12,1.13-3,1.13-5.59V1001.3h6v22Z" transform="translate(0)"/><path class="cls-1" d="M1247.68,1019a13,13,0,0,0,3.78-.69v4.47a13.48,13.48,0,0,1-5.52,1q-3.6,0-5.25-1.83a7.92,7.92,0,0,1-1.65-5.47v-10.63h-2.88v-2.54l3.32-2,1.73-4.65h3.85v4.69h6.17v4.51h-6.17v10.63a2.32,2.32,0,0,0,.72,1.89A2.82,2.82,0,0,0,1247.68,1019Z" transform="translate(0)"/><path class="cls-1" d="M1265.9,1023.74q-5.33,0-8.32-2.94t-3-8.32q0-5.54,2.77-8.57a9.86,9.86,0,0,1,7.66-3,9.7,9.7,0,0,1,7.28,2.67,10.07,10.07,0,0,1,2.6,7.35v2.92h-14.22a5.78,5.78,0,0,0,1.52,4,5.34,5.34,0,0,0,4,1.44,16.89,16.89,0,0,0,3.77-.41,19.55,19.55,0,0,0,3.71-1.32v4.65a13.72,13.72,0,0,1-3.37,1.17A21,21,0,0,1,1265.9,1023.74Zm-.85-18.58a3.84,3.84,0,0,0-3,1.22,5.63,5.63,0,0,0-1.24,3.44h8.44a5,5,0,0,0-1.16-3.44A3.94,3.94,0,0,0,1265.05,1005.16Z" transform="translate(0)"/><path class="cls-1" d="M1081.88,1055.62h11.43v14.94a31.39,31.39,0,0,1-5.23,1.27,33.24,33.24,0,0,1-5,.37q-6.52,0-10-3.84c-2.29-2.55-3.44-6.23-3.44-11s1.33-8.28,4-10.88,6.36-3.91,11.07-3.91a21.29,21.29,0,0,1,8.56,1.78l-2,4.89a14.38,14.38,0,0,0-6.56-1.58,8.11,8.11,0,0,0-6.35,2.66,10.32,10.32,0,0,0-2.39,7.16q0,4.69,1.92,7.17a6.65,6.65,0,0,0,5.59,2.47,20,20,0,0,0,3.89-.39v-6h-5.46Z" transform="translate(0)"/><path class="cls-1" d="M1109.68,1072.2q-5.33,0-8.32-2.94t-3-8.32q0-5.54,2.77-8.57a9.86,9.86,0,0,1,7.66-3,9.7,9.7,0,0,1,7.28,2.67,10.07,10.07,0,0,1,2.6,7.35v2.92h-14.22a5.78,5.78,0,0,0,1.52,4,5.35,5.35,0,0,0,4,1.44,16.89,16.89,0,0,0,3.77-.41,19.55,19.55,0,0,0,3.71-1.32v4.65a13.72,13.72,0,0,1-3.37,1.17A21,21,0,0,1,1109.68,1072.2Zm-.85-18.58a3.84,3.84,0,0,0-3,1.22,5.63,5.63,0,0,0-1.24,3.44H1113a5,5,0,0,0-1.16-3.44A3.94,3.94,0,0,0,1108.83,1053.62Z" transform="translate(0)"/><path class="cls-1" d="M1138.94,1065.26a6,6,0,0,1-2.36,5.16q-2.36,1.78-7,1.78a21.88,21.88,0,0,1-4.11-.33,15.17,15.17,0,0,1-3.17-.95v-5a21.67,21.67,0,0,0,3.78,1.32,15.43,15.43,0,0,0,3.69.53q3.27,0,3.27-1.89a1.59,1.59,0,0,0-.43-1.16,6.37,6.37,0,0,0-1.5-1c-.71-.38-1.65-.81-2.84-1.31a18,18,0,0,1-3.73-2,5.56,5.56,0,0,1-1.74-2.08,6.93,6.93,0,0,1-.54-2.89,5.24,5.24,0,0,1,2.28-4.55,11.11,11.11,0,0,1,6.46-1.61,18.26,18.26,0,0,1,7.74,1.74l-1.81,4.34c-1.1-.48-2.14-.86-3.1-1.17a9.79,9.79,0,0,0-2.93-.45q-2.67,0-2.67,1.44a1.69,1.69,0,0,0,.86,1.4,24.13,24.13,0,0,0,3.76,1.76,16.87,16.87,0,0,1,3.78,1.95,5.65,5.65,0,0,1,1.78,2.09A6.45,6.45,0,0,1,1138.94,1065.26Z" transform="translate(0)"/><path class="cls-1" d="M1159.25,1071.8l-.81-2.82h-.31a6.38,6.38,0,0,1-2.74,2.38,9.4,9.4,0,0,1-4.05.84,7.7,7.7,0,0,1-5.85-2.08,8.35,8.35,0,0,1-2-6v-14.37h6v12.87a6.12,6.12,0,0,0,.85,3.58,3.06,3.06,0,0,0,2.7,1.2,4.08,4.08,0,0,0,3.65-1.69c.75-1.12,1.12-3,1.12-5.59v-10.37h6v22Z" transform="translate(0)"/><path class="cls-1" d="M1190.52,1071.8h-6v-12.87a6.14,6.14,0,0,0-.85-3.58,3.06,3.06,0,0,0-2.7-1.19,4.07,4.07,0,0,0-3.65,1.68q-1.12,1.7-1.12,5.59v10.37h-6v-22h4.6l.81,2.82h.33a6.39,6.39,0,0,1,2.77-2.42,9.56,9.56,0,0,1,4-.82,7.73,7.73,0,0,1,5.83,2.08,8.35,8.35,0,0,1,2,6Z" transform="translate(0)"/><path class="cls-1" d="M1203.7,1072.2a7.18,7.18,0,0,1-6.11-3c-1.48-2-2.21-4.8-2.21-8.36s.75-6.43,2.25-8.45a7.34,7.34,0,0,1,6.22-3,7.18,7.18,0,0,1,6.35,3.24h.2a24.76,24.76,0,0,1-.45-4.4v-7.06h6v30.68h-4.61l-1.17-2.86H1210A6.89,6.89,0,0,1,1203.7,1072.2Zm2.11-4.79a4.1,4.1,0,0,0,3.38-1.34,7.92,7.92,0,0,0,1.17-4.56v-.65c0-2.37-.36-4.06-1.09-5.09a4.09,4.09,0,0,0-3.56-1.54,3.53,3.53,0,0,0-3.13,1.71,9.13,9.13,0,0,0-1.11,5,8.61,8.61,0,0,0,1.12,4.88A3.69,3.69,0,0,0,1205.81,1067.41Z" transform="translate(0)"/><path class="cls-1" d="M1242.62,1071.8h-6v-12.87c0-3.18-1.19-4.77-3.55-4.77a4,4,0,0,0-3.65,1.71c-.75,1.14-1.13,3-1.13,5.56v10.37h-6v-30.68h6v6.25c0,.49,0,1.63-.13,3.43l-.14,1.78h.31a7,7,0,0,1,6.39-3.24,7.83,7.83,0,0,1,5.9,2.09,8.34,8.34,0,0,1,2,6Z" transform="translate(0)"/><path class="cls-1" d="M1258.79,1072.2q-5.32,0-8.32-2.94t-3-8.32q0-5.54,2.77-8.57a9.86,9.86,0,0,1,7.66-3,9.7,9.7,0,0,1,7.28,2.67,10.07,10.07,0,0,1,2.6,7.35v2.92h-14.22a5.78,5.78,0,0,0,1.52,4,5.35,5.35,0,0,0,4,1.44,16.89,16.89,0,0,0,3.77-.41,19.55,19.55,0,0,0,3.71-1.32v4.65a13.72,13.72,0,0,1-3.37,1.17A21,21,0,0,1,1258.79,1072.2Zm-.85-18.58a3.84,3.84,0,0,0-3,1.22,5.63,5.63,0,0,0-1.24,3.44h8.44a5,5,0,0,0-1.16-3.44A3.94,3.94,0,0,0,1257.94,1053.62Z" transform="translate(0)"/><path class="cls-1" d="M1272.41,1044.06q0-2.94,3.28-2.94t3.27,2.94a2.86,2.86,0,0,1-.82,2.18,3.42,3.42,0,0,1-2.45.78Q1272.41,1047,1272.41,1044.06Zm6.27,27.74h-6v-22h6Z" transform="translate(0)"/><path class="cls-1" d="M1294.28,1067.41a13.06,13.06,0,0,0,3.79-.69v4.47a13.51,13.51,0,0,1-5.52,1q-3.61,0-5.26-1.83c-1.1-1.21-1.64-3-1.64-5.47v-10.63h-2.88v-2.54l3.31-2,1.73-4.65h3.85v4.69h6.17v4.51h-6.17v10.63a2.32,2.32,0,0,0,.72,1.89A2.82,2.82,0,0,0,1294.28,1067.41Z" transform="translate(0)"/><path class="cls-1" d="M645.78,1236.49a7.46,7.46,0,0,1-2.81,6.15q-2.81,2.25-7.82,2.25a18.27,18.27,0,0,1-8.16-1.74v-5.67a34.73,34.73,0,0,0,4.94,1.83,14.78,14.78,0,0,0,3.69.53,5.3,5.3,0,0,0,3.09-.77,2.6,2.6,0,0,0,1.07-2.28,2.49,2.49,0,0,0-.47-1.51,5.29,5.29,0,0,0-1.39-1.28,38.87,38.87,0,0,0-3.74-2,17.87,17.87,0,0,1-4-2.38,9.07,9.07,0,0,1-2.11-2.67,7.63,7.63,0,0,1-.79-3.54,7.46,7.46,0,0,1,2.6-6,10.73,10.73,0,0,1,7.16-2.19,16.7,16.7,0,0,1,4.29.54,29.11,29.11,0,0,1,4.27,1.49l-2,4.76a29.18,29.18,0,0,0-3.82-1.33,12.18,12.18,0,0,0-3-.37,4,4,0,0,0-2.67.81,2.68,2.68,0,0,0-.92,2.11,2.6,2.6,0,0,0,.37,1.41,4.12,4.12,0,0,0,1.19,1.16,35.86,35.86,0,0,0,3.88,2,15.42,15.42,0,0,1,5.54,3.88A7.54,7.54,0,0,1,645.78,1236.49Z" transform="translate(0)"/><path class="cls-1" d="M659.48,1244.89q-10.29,0-10.29-11.3,0-5.62,2.8-8.59c1.87-2,4.54-3,8-3a15.43,15.43,0,0,1,6.86,1.49l-1.78,4.66c-.94-.38-1.82-.69-2.64-.94a8.58,8.58,0,0,0-2.44-.36q-4.69,0-4.7,6.66,0,6.46,4.7,6.47a11,11,0,0,0,3.21-.46,11.9,11.9,0,0,0,3-1.45v5.14a9.59,9.59,0,0,1-3,1.28A16.38,16.38,0,0,1,659.48,1244.89Z" transform="translate(0)"/><path class="cls-1" d="M691.64,1244.5h-6v-12.88q0-4.77-3.55-4.77a4,4,0,0,0-3.65,1.71q-1.12,1.73-1.12,5.56v10.38h-6v-30.69h6v6.25c0,.49,0,1.63-.14,3.44l-.14,1.77h.32c1.34-2.16,3.47-3.23,6.39-3.23a7.77,7.77,0,0,1,5.89,2.09,8.29,8.29,0,0,1,2,6Z" transform="translate(0)"/><path class="cls-1" d="M717.87,1233.43q0,5.38-2.84,8.42a10.28,10.28,0,0,1-7.91,3,11.05,11.05,0,0,1-5.6-1.39,9.27,9.27,0,0,1-3.72-4,13.41,13.41,0,0,1-1.31-6.08q0-5.4,2.82-8.4c1.88-2,4.53-3,7.93-3a11.12,11.12,0,0,1,5.6,1.38,9.22,9.22,0,0,1,3.73,4A13.25,13.25,0,0,1,717.87,1233.43Zm-17.45-16.64a2.58,2.58,0,0,1,.74-2,2.81,2.81,0,0,1,2-.69,2.75,2.75,0,0,1,2,.73,2.59,2.59,0,0,1,.74,1.93,2.51,2.51,0,0,1-.75,1.9,3.23,3.23,0,0,1-4,0A2.52,2.52,0,0,1,700.42,1216.79Zm2.21,16.64a9.28,9.28,0,0,0,1.07,5,3.84,3.84,0,0,0,3.5,1.68,3.77,3.77,0,0,0,3.46-1.67,9.31,9.31,0,0,0,1.06-5,9.1,9.1,0,0,0-1.07-4.91,4.54,4.54,0,0,0-7,0A9.13,9.13,0,0,0,702.63,1233.43Zm5.74-16.64a2.44,2.44,0,0,1,.79-2,3.08,3.08,0,0,1,2-.64,2.89,2.89,0,0,1,2,.71,2.55,2.55,0,0,1,.76,2,2.48,2.48,0,0,1-.77,1.91,2.86,2.86,0,0,1-2,.71,3.08,3.08,0,0,1-2-.64A2.38,2.38,0,0,1,708.37,1216.79Z" transform="translate(0)"/><path class="cls-1" d="M743.19,1244.5h-6v-12.88a6.25,6.25,0,0,0-.84-3.58,3.11,3.11,0,0,0-2.71-1.19,4.06,4.06,0,0,0-3.64,1.68q-1.12,1.7-1.13,5.59v10.38h-6v-22h4.59l.81,2.82h.34a6.4,6.4,0,0,1,2.77-2.42,9.48,9.48,0,0,1,4-.81,7.71,7.71,0,0,1,5.84,2.08,8.35,8.35,0,0,1,2,6Z" transform="translate(0)"/><path class="cls-1" d="M769.73,1244.5h-6v-12.88q0-4.77-3.54-4.77a4,4,0,0,0-3.65,1.71q-1.12,1.73-1.13,5.56v10.38h-6v-30.69h6v6.25c0,.49,0,1.63-.13,3.44l-.14,1.77h.31c1.34-2.16,3.47-3.23,6.39-3.23a7.79,7.79,0,0,1,5.9,2.09,8.29,8.29,0,0,1,2,6Z" transform="translate(0)"/><path class="cls-1" d="M785.9,1244.89c-3.55,0-6.33-1-8.32-2.94s-3-4.73-3-8.32.92-6.55,2.77-8.57a9.86,9.86,0,0,1,7.66-3,9.7,9.7,0,0,1,7.28,2.66,10.07,10.07,0,0,1,2.6,7.35V1235H780.67a5.78,5.78,0,0,0,1.52,4,5.34,5.34,0,0,0,4,1.44,16.32,16.32,0,0,0,3.77-.41,19.55,19.55,0,0,0,3.71-1.32v4.65a13.72,13.72,0,0,1-3.37,1.17A21,21,0,0,1,785.9,1244.89Zm-.85-18.58a3.84,3.84,0,0,0-3,1.22,5.65,5.65,0,0,0-1.24,3.44h8.44a5,5,0,0,0-1.16-3.44A3.94,3.94,0,0,0,785.05,1226.31Z" transform="translate(0)"/><path class="cls-1" d="M799.52,1216.75c0-2,1.1-2.94,3.28-2.94s3.27,1,3.27,2.94a2.86,2.86,0,0,1-.82,2.18,3.42,3.42,0,0,1-2.45.78C800.62,1219.71,799.52,1218.72,799.52,1216.75Zm6.27,27.75h-6v-22h6Z" transform="translate(0)"/><path class="cls-1" d="M821.39,1240.1a13.06,13.06,0,0,0,3.79-.69v4.47a13.51,13.51,0,0,1-5.52,1q-3.61,0-5.26-1.82a7.94,7.94,0,0,1-1.65-5.48V1227h-2.87v-2.55l3.31-2,1.73-4.65h3.85v4.69h6.17V1227h-6.17v10.62a2.36,2.36,0,0,0,.72,1.9A2.87,2.87,0,0,0,821.39,1240.1Z" transform="translate(0)"/><path class="cls-1" d="M855.46,1244.5H838.05V1241L848.27,1227h-9.6v-4.59h16.44v3.9l-9.94,13.55h10.29Z" transform="translate(0)"/><path class="cls-1" d="M875.44,1244.5l-.81-2.82h-.31a6.43,6.43,0,0,1-2.74,2.37,9.4,9.4,0,0,1-4.05.84q-3.88,0-5.85-2.08a8.35,8.35,0,0,1-2-6v-14.37h6v12.88a6.16,6.16,0,0,0,.85,3.58,3.08,3.08,0,0,0,2.7,1.19,4.06,4.06,0,0,0,3.65-1.69c.75-1.12,1.12-3,1.12-5.59v-10.37h6v22Z" transform="translate(0)"/><path class="cls-1" d="M690.14,1293.35q-5.32,0-8.33-2.94t-3-8.32q0-5.53,2.77-8.57a9.84,9.84,0,0,1,7.66-3,9.67,9.67,0,0,1,7.27,2.66,10,10,0,0,1,2.61,7.35v2.92H684.91a5.78,5.78,0,0,0,1.52,4,5.34,5.34,0,0,0,4,1.44,16.38,16.38,0,0,0,3.77-.41,19.23,19.23,0,0,0,3.7-1.32v4.65a13.58,13.58,0,0,1-3.37,1.17A20.86,20.86,0,0,1,690.14,1293.35Zm-.85-18.58a3.81,3.81,0,0,0-3,1.22,5.59,5.59,0,0,0-1.24,3.44h8.44a5,5,0,0,0-1.17-3.44A3.93,3.93,0,0,0,689.29,1274.77Z" transform="translate(0)"/><path class="cls-1" d="M716.32,1270.5a9.61,9.61,0,0,1,2,.17l-.45,5.64a7,7,0,0,0-1.78-.19,6.4,6.4,0,0,0-4.48,1.47,5.37,5.37,0,0,0-1.61,4.15V1293h-6v-22h4.55l.89,3.71h.3a8.2,8.2,0,0,1,2.77-3A6.76,6.76,0,0,1,716.32,1270.5Z" transform="translate(0)"/><path class="cls-1" d="M728.37,1293h-6v-30.69h6Z" transform="translate(0)"/><path class="cls-1" d="M744.66,1293.35c-3.55,0-6.33-1-8.32-2.94s-3-4.73-3-8.32.92-6.55,2.77-8.57a9.86,9.86,0,0,1,7.66-3,9.66,9.66,0,0,1,7.27,2.66,10,10,0,0,1,2.61,7.35v2.92H739.43a5.78,5.78,0,0,0,1.52,4,5.34,5.34,0,0,0,4,1.44,16.32,16.32,0,0,0,3.77-.41,19.55,19.55,0,0,0,3.71-1.32v4.65A13.8,13.8,0,0,1,749,1293,20.86,20.86,0,0,1,744.66,1293.35Zm-.85-18.58a3.81,3.81,0,0,0-3,1.22,5.59,5.59,0,0,0-1.24,3.44H748a5.07,5.07,0,0,0-1.16-3.44A4,4,0,0,0,743.81,1274.77Z" transform="translate(0)"/><path class="cls-1" d="M770.8,1270.5a7.14,7.14,0,0,1,6.12,3c1.47,2,2.2,4.82,2.2,8.35s-.75,6.46-2.27,8.46a8,8,0,0,1-12.3.18h-.41l-1,2.43h-4.59v-30.69h6v7.14c0,.91-.08,2.36-.23,4.36h.23A7,7,0,0,1,770.8,1270.5Zm-1.93,4.81a3.78,3.78,0,0,0-3.25,1.37,7.82,7.82,0,0,0-1.07,4.52v.65q0,3.56,1.06,5.09a3.74,3.74,0,0,0,3.34,1.54,3.35,3.35,0,0,0,2.95-1.71,9.22,9.22,0,0,0,1.09-5,8.83,8.83,0,0,0-1.1-4.88A3.47,3.47,0,0,0,768.87,1275.31Z" transform="translate(0)"/><path class="cls-1" d="M794.07,1293.35q-5.33,0-8.32-2.94t-3-8.32c0-3.69.93-6.55,2.77-8.57a9.86,9.86,0,0,1,7.66-3,9.7,9.7,0,0,1,7.28,2.66,10,10,0,0,1,2.6,7.35v2.92H788.85a5.78,5.78,0,0,0,1.51,4,5.36,5.36,0,0,0,4,1.44,16.23,16.23,0,0,0,3.76-.41,19.31,19.31,0,0,0,3.71-1.32v4.65a13.72,13.72,0,0,1-3.37,1.17A21,21,0,0,1,794.07,1293.35Zm-.85-18.58a3.8,3.8,0,0,0-3,1.22,5.59,5.59,0,0,0-1.25,3.44h8.44a5,5,0,0,0-1.16-3.44A3.94,3.94,0,0,0,793.22,1274.77Z" transform="translate(0)"/><path class="cls-1" d="M828.3,1293h-6v-12.88a6.16,6.16,0,0,0-.85-3.58,3.09,3.09,0,0,0-2.7-1.19,4.07,4.07,0,0,0-3.65,1.68q-1.12,1.69-1.12,5.59V1293h-6v-22h4.6l.81,2.82h.33a6.46,6.46,0,0,1,2.77-2.42,9.54,9.54,0,0,1,4-.81,7.7,7.7,0,0,1,5.84,2.08,8.31,8.31,0,0,1,2,6Z" transform="translate(0)"/><path class="cls-1" d="M894.07,325.06a7.43,7.43,0,0,1-2.81,6.15c-1.87,1.5-4.48,2.25-7.81,2.25a18.35,18.35,0,0,1-8.17-1.74V326a34.17,34.17,0,0,0,4.94,1.84,14.85,14.85,0,0,0,3.7.53,5.24,5.24,0,0,0,3.08-.77,2.62,2.62,0,0,0,1.08-2.29,2.55,2.55,0,0,0-.47-1.5,5.35,5.35,0,0,0-1.4-1.28,38.3,38.3,0,0,0-3.73-1.95,17.87,17.87,0,0,1-4-2.38,8.75,8.75,0,0,1-2.11-2.67,7.53,7.53,0,0,1-.79-3.55,7.44,7.44,0,0,1,2.59-6,10.78,10.78,0,0,1,7.17-2.19,17.21,17.21,0,0,1,4.29.53,30.88,30.88,0,0,1,4.27,1.5l-2,4.75a29.35,29.35,0,0,0-3.81-1.32,12.32,12.32,0,0,0-3-.37,3.92,3.92,0,0,0-2.66.81,2.66,2.66,0,0,0-.93,2.11,2.61,2.61,0,0,0,.38,1.41,3.88,3.88,0,0,0,1.19,1.16,37.31,37.31,0,0,0,3.87,2,15.24,15.24,0,0,1,5.54,3.88A7.54,7.54,0,0,1,894.07,325.06Z" transform="translate(0)"/><path class="cls-1" d="M910.93,333.46a7.3,7.3,0,0,1-6.09-2.82h-.32c.21,1.84.32,2.9.32,3.19v8.94h-6V311h4.89l.85,2.86h.28a7,7,0,0,1,6.25-3.28,7.16,7.16,0,0,1,6.11,3c1.47,2,2.21,4.81,2.21,8.38a16.53,16.53,0,0,1-1,6.13,8.65,8.65,0,0,1-3,4A7.63,7.63,0,0,1,910.93,333.46Zm-1.77-18a3.8,3.8,0,0,0-3.26,1.37,7.91,7.91,0,0,0-1.06,4.52V322c0,2.37.35,4.06,1,5.09a3.77,3.77,0,0,0,3.35,1.54q4,0,4-6.67a9.46,9.46,0,0,0-1-4.88A3.39,3.39,0,0,0,909.16,315.42Z" transform="translate(0)"/><path class="cls-1" d="M938.38,333.06l-1.16-3h-.16a8.9,8.9,0,0,1-3.13,2.65,10.15,10.15,0,0,1-4.19.74,6.8,6.8,0,0,1-5-1.82,7,7,0,0,1-1.82-5.16,5.82,5.82,0,0,1,2.46-5.18q2.45-1.67,7.4-1.84l3.83-.12v-1q0-3.35-3.44-3.35a15.56,15.56,0,0,0-6.21,1.6l-2-4.06a17.9,17.9,0,0,1,8.44-2q4.44,0,6.8,1.93c1.58,1.29,2.37,3.24,2.37,5.87v14.69Zm-1.77-10.21-2.33.08a7.38,7.38,0,0,0-3.9.95,3,3,0,0,0-1.29,2.64c0,1.69,1,2.54,2.92,2.54a4.62,4.62,0,0,0,3.34-1.2,4.22,4.22,0,0,0,1.26-3.2Z" transform="translate(0)"/><path class="cls-1" d="M970.25,308.59a5.46,5.46,0,0,1-.42,2.22,6.68,6.68,0,0,1-1,1.71,9.38,9.38,0,0,1-1.36,1.32c-.49.38-.94.73-1.36,1a9.46,9.46,0,0,0-1.05.89,1.2,1.2,0,0,0-.41.85,1.47,1.47,0,0,0,.52,1A10.33,10.33,0,0,0,967,319a27.58,27.58,0,0,1,3.92,2.76,6.06,6.06,0,0,1,1.53,2.17,6.94,6.94,0,0,1,.51,2.74,6,6,0,0,1-2.3,5.1q-2.29,1.72-6.77,1.72a17.45,17.45,0,0,1-3.38-.29,9,9,0,0,1-2.6-.95v-4.78a9.76,9.76,0,0,0,2.67,1.21,10.09,10.09,0,0,0,2.89.49c2.21,0,3.32-.81,3.32-2.43a2.47,2.47,0,0,0-.32-1.31,4.48,4.48,0,0,0-1.12-1.09,23.34,23.34,0,0,0-2.27-1.42,12.78,12.78,0,0,1-3.45-2.59,4.22,4.22,0,0,1-1-2.77,4.1,4.1,0,0,1,.69-2.31,7.66,7.66,0,0,1,2.07-2,10.68,10.68,0,0,0,2.13-1.88,2.68,2.68,0,0,0,.61-1.69,2.3,2.3,0,0,0-1.25-2,5.82,5.82,0,0,0-3.22-.8,5.52,5.52,0,0,0-3.57,1,3.54,3.54,0,0,0-1.28,2.93v22.24h-6V310.6a7.43,7.43,0,0,1,2.89-6.2q2.9-2.23,8-2.23a14.92,14.92,0,0,1,7.71,1.74A5.28,5.28,0,0,1,970.25,308.59Z" transform="translate(0)"/><path class="cls-1" d="M1003.31,333.06H985.9v-3.55l10.22-13.9h-9.61V311H1003v3.9L993,328.47h10.29Z" transform="translate(0)"/><path class="cls-1" d="M1023.29,333.06l-.81-2.82h-.32a6.27,6.27,0,0,1-2.74,2.38,9.32,9.32,0,0,1-4,.84q-3.89,0-5.86-2.08a8.4,8.4,0,0,1-2-6V311h6V323.9a6.19,6.19,0,0,0,.84,3.57,3.09,3.09,0,0,0,2.71,1.2,4.06,4.06,0,0,0,3.64-1.69c.75-1.12,1.13-3,1.13-5.59V311h6v22Z" transform="translate(0)"/><path class="cls-1" d="M912.3,381.52h-6V368.65q0-4.77-3.55-4.77a4,4,0,0,0-3.65,1.71q-1.12,1.73-1.12,5.56v10.37h-6V350.84h6v6.25c0,.49-.05,1.63-.14,3.43l-.14,1.78H898a7,7,0,0,1,6.39-3.24,7.81,7.81,0,0,1,5.89,2.09,8.34,8.34,0,0,1,2,6Z" transform="translate(0)"/><path class="cls-1" d="M932.49,381.52l-1.16-3h-.16a8.88,8.88,0,0,1-3.12,2.65,10.15,10.15,0,0,1-4.19.74,6.76,6.76,0,0,1-5-1.82,6.93,6.93,0,0,1-1.82-5.16,5.81,5.81,0,0,1,2.45-5.18c1.64-1.11,4.1-1.72,7.4-1.84l3.83-.12v-1q0-3.34-3.43-3.35a15.56,15.56,0,0,0-6.21,1.6l-2-4.06a17.87,17.87,0,0,1,8.44-2q4.43,0,6.8,1.93c1.58,1.29,2.37,3.24,2.37,5.87v14.69Zm-1.77-10.21-2.33.08a7.48,7.48,0,0,0-3.9.94,3,3,0,0,0-1.28,2.65c0,1.69,1,2.54,2.91,2.54a4.65,4.65,0,0,0,3.35-1.2,4.25,4.25,0,0,0,1.25-3.2Z" transform="translate(0)"/><path class="cls-1" d="M955.15,359.06a7.13,7.13,0,0,1,6.11,3.05c1.48,2,2.21,4.82,2.21,8.35s-.76,6.46-2.27,8.46a7.38,7.38,0,0,1-6.21,3,7.3,7.3,0,0,1-6.09-2.82h-.41l-1,2.42h-4.59V350.84h6V358c0,.91-.08,2.36-.24,4.36h.24A7,7,0,0,1,955.15,359.06Zm-1.93,4.82a3.8,3.8,0,0,0-3.26,1.37,7.91,7.91,0,0,0-1.06,4.52v.65c0,2.37.35,4.06,1.06,5.09a3.74,3.74,0,0,0,3.34,1.54,3.36,3.36,0,0,0,3-1.71,9.22,9.22,0,0,0,1.09-5,8.81,8.81,0,0,0-1.1-4.88A3.48,3.48,0,0,0,953.22,363.88Z" transform="translate(0)"/><path class="cls-1" d="M978.42,381.92q-5.32,0-8.32-2.94t-3-8.32q0-5.54,2.77-8.57a9.86,9.86,0,0,1,7.66-3,9.7,9.7,0,0,1,7.28,2.67,10.07,10.07,0,0,1,2.6,7.35V372H973.19a5.78,5.78,0,0,0,1.52,4,5.35,5.35,0,0,0,4,1.44,16.89,16.89,0,0,0,3.77-.41,19.55,19.55,0,0,0,3.71-1.32v4.65a13.72,13.72,0,0,1-3.37,1.17A21,21,0,0,1,978.42,381.92Zm-.85-18.58a3.84,3.84,0,0,0-3,1.22,5.63,5.63,0,0,0-1.24,3.44h8.44a5,5,0,0,0-1.16-3.44A3.94,3.94,0,0,0,977.57,363.34Z" transform="translate(0)"/><path class="cls-1" d="M1012.65,381.52h-6V368.65a6.22,6.22,0,0,0-.85-3.58,3.08,3.08,0,0,0-2.7-1.19,4.06,4.06,0,0,0-3.65,1.68q-1.12,1.69-1.13,5.59v10.37h-6v-22h4.59l.81,2.82H998a6.34,6.34,0,0,1,2.77-2.42,9.51,9.51,0,0,1,4-.82,7.72,7.72,0,0,1,5.84,2.09,8.31,8.31,0,0,1,2,6Z" transform="translate(0)"/><path class="cls-1" d="M307.69,1045.16l-6.94-22.62h-.18c.25,4.61.38,7.67.38,9.21v13.41h-5.46v-28.83h8.32l6.82,22.05h.12l7.24-22.05h8.32v28.83h-5.7v-13.64c0-.65,0-1.39,0-2.23s.11-3.08.26-6.71h-.17l-7.44,22.58Z" transform="translate(0)"/><path class="cls-1" d="M343.07,1045.56c-3.55,0-6.33-1-8.32-2.94s-3-4.74-3-8.32.92-6.55,2.77-8.57a9.86,9.86,0,0,1,7.66-3,9.74,9.74,0,0,1,7.28,2.66,10.11,10.11,0,0,1,2.6,7.36v2.92H337.84a5.78,5.78,0,0,0,1.52,4,5.35,5.35,0,0,0,4,1.44,16.89,16.89,0,0,0,3.77-.41,19,19,0,0,0,3.71-1.33V1044a14.15,14.15,0,0,1-3.37,1.17A21,21,0,0,1,343.07,1045.56Zm-.85-18.58a3.82,3.82,0,0,0-3,1.21,5.67,5.67,0,0,0-1.24,3.44h8.44a5,5,0,0,0-1.16-3.44A3.93,3.93,0,0,0,342.22,1027Z" transform="translate(0)"/><path class="cls-1" d="M356.69,1017.42q0-2.94,3.28-2.94t3.27,2.94a2.86,2.86,0,0,1-.82,2.18,3.42,3.42,0,0,1-2.45.78Q356.68,1020.38,356.69,1017.42Zm6.27,27.74h-6v-22h6Z" transform="translate(0)"/><path class="cls-1" d="M389.62,1045.16h-6v-12.87a6.12,6.12,0,0,0-.85-3.58,3.06,3.06,0,0,0-2.7-1.2,4.08,4.08,0,0,0-3.65,1.69c-.75,1.12-1.12,3-1.12,5.59v10.37h-6v-22h4.6l.81,2.82H375a6.39,6.39,0,0,1,2.77-2.42,9.41,9.41,0,0,1,4-.82,7.73,7.73,0,0,1,5.83,2.08,8.35,8.35,0,0,1,2,6Z" transform="translate(0)"/><path class="cls-1" d="M405.79,1045.56q-5.32,0-8.32-2.94c-2-2-3-4.74-3-8.32s.93-6.55,2.77-8.57a9.88,9.88,0,0,1,7.67-3,9.71,9.71,0,0,1,7.27,2.66,10.07,10.07,0,0,1,2.6,7.36v2.92H400.57a5.74,5.74,0,0,0,1.52,4,5.32,5.32,0,0,0,4,1.44,16.8,16.8,0,0,0,3.76-.41,18.72,18.72,0,0,0,3.71-1.33V1044a14,14,0,0,1-3.37,1.17A21,21,0,0,1,405.79,1045.56Zm-.85-18.58a3.8,3.8,0,0,0-3,1.21,5.55,5.55,0,0,0-1.24,3.44h8.43a5,5,0,0,0-1.16-3.44A3.93,3.93,0,0,0,404.94,1027Z" transform="translate(0)"/><path class="cls-1" d="M228,1064.79h9q6.13,0,8.91,1.75a6.08,6.08,0,0,1,2.77,5.55,7,7,0,0,1-1.22,4.24,4.82,4.82,0,0,1-3.22,2v.2a6.3,6.3,0,0,1,4,2.28,7.46,7.46,0,0,1,1.22,4.46,7.33,7.33,0,0,1-2.85,6.15,12.34,12.34,0,0,1-7.74,2.21H228Zm6.11,11.42h3.55a6.5,6.5,0,0,0,3.6-.77,2.85,2.85,0,0,0,1.12-2.54,2.55,2.55,0,0,0-1.22-2.38,7.74,7.74,0,0,0-3.83-.72h-3.22Zm0,4.85v7.51h4a5.92,5.92,0,0,0,3.72-1,3.56,3.56,0,0,0,1.21-3q0-3.59-5.13-3.59Z" transform="translate(0)"/><path class="cls-1" d="M264.6,1094q-5.33,0-8.32-2.94c-2-2-3-4.74-3-8.32s.92-6.55,2.77-8.57a9.86,9.86,0,0,1,7.66-3,9.74,9.74,0,0,1,7.28,2.66,10.11,10.11,0,0,1,2.6,7.36v2.92H259.37a5.83,5.83,0,0,0,1.52,4,5.36,5.36,0,0,0,4,1.44,16.29,16.29,0,0,0,3.76-.42,18.26,18.26,0,0,0,3.71-1.32v4.66a14.15,14.15,0,0,1-3.37,1.17A21,21,0,0,1,264.6,1094Zm-.85-18.58a3.83,3.83,0,0,0-3,1.21,5.67,5.67,0,0,0-1.24,3.44H268a5,5,0,0,0-1.16-3.44A3.93,3.93,0,0,0,263.75,1075.44Z" transform="translate(0)"/><path class="cls-1" d="M293.82,1093.62H276.41v-3.55l10.21-13.9H277v-4.59h16.45v3.9L283.53,1089h10.29Z" transform="translate(0)"/><path class="cls-1" d="M297.92,1065.88q0-2.94,3.28-2.94t3.27,2.94a2.86,2.86,0,0,1-.82,2.18,3.41,3.41,0,0,1-2.45.77Q297.91,1068.83,297.92,1065.88Zm6.27,27.74h-6v-22h6Z" transform="translate(0)"/><path class="cls-1" d="M320.48,1094q-5.33,0-8.32-2.94c-2-2-3-4.74-3-8.32s.93-6.55,2.77-8.57a9.86,9.86,0,0,1,7.66-3,9.74,9.74,0,0,1,7.28,2.66,10.11,10.11,0,0,1,2.6,7.36v2.92H315.26a5.78,5.78,0,0,0,1.51,4,5.36,5.36,0,0,0,4,1.44,16.29,16.29,0,0,0,3.76-.42,18,18,0,0,0,3.71-1.32v4.66a14.15,14.15,0,0,1-3.37,1.17A21,21,0,0,1,320.48,1094Zm-.85-18.58a3.8,3.8,0,0,0-3,1.21,5.62,5.62,0,0,0-1.25,3.44h8.44a5,5,0,0,0-1.16-3.44A3.93,3.93,0,0,0,319.63,1075.44Z" transform="translate(0)"/><path class="cls-1" d="M354.71,1093.62h-6v-12.87q0-4.79-3.55-4.78a4,4,0,0,0-3.65,1.72c-.75,1.14-1.12,3-1.12,5.56v10.37h-6v-30.68h6v6.25c0,.49-.05,1.63-.14,3.43l-.14,1.78h.32a7,7,0,0,1,6.39-3.24,7.81,7.81,0,0,1,5.89,2.09,8.32,8.32,0,0,1,2,6Z" transform="translate(0)"/><path class="cls-1" d="M376.52,1093.62l-.81-2.82h-.31a6.38,6.38,0,0,1-2.74,2.38,9.37,9.37,0,0,1-4.05.84,7.7,7.7,0,0,1-5.85-2.08,8.37,8.37,0,0,1-2-6v-14.37h6v12.87a6.14,6.14,0,0,0,.85,3.58,3.06,3.06,0,0,0,2.7,1.19,4.07,4.07,0,0,0,3.65-1.68q1.13-1.69,1.12-5.59v-10.37h6v22Z" transform="translate(0)"/><path class="cls-1" d="M407.79,1093.62h-6v-12.87a6.12,6.12,0,0,0-.85-3.58,3.06,3.06,0,0,0-2.7-1.2,4.08,4.08,0,0,0-3.65,1.69c-.75,1.12-1.12,3-1.12,5.59v10.37h-6v-22H392l.81,2.82h.33A6.39,6.39,0,0,1,396,1072a9.41,9.41,0,0,1,4-.82,7.71,7.71,0,0,1,5.83,2.08,8.35,8.35,0,0,1,2,6Z" transform="translate(0)"/><path class="cls-1" d="M433.17,1071.58v3.05l-3.45.89a6,6,0,0,1,.95,3.31,6.68,6.68,0,0,1-2.48,5.53,10.72,10.72,0,0,1-6.87,2l-1.08,0-.89-.1a2,2,0,0,0-.93,1.57c0,.87,1.11,1.31,3.32,1.31h3.74a8.59,8.59,0,0,1,5.53,1.55,5.58,5.58,0,0,1,1.91,4.58,6.79,6.79,0,0,1-3.23,6c-2.15,1.42-5.23,2.13-9.26,2.13q-4.6,0-7.05-1.6a5.13,5.13,0,0,1-2.43-4.51,4.69,4.69,0,0,1,1.24-3.33,7.11,7.11,0,0,1,3.65-1.92,4,4,0,0,1-1.62-1.29,3,3,0,0,1-.69-1.9,3.12,3.12,0,0,1,.73-2.1,8.5,8.5,0,0,1,2.11-1.65,5.93,5.93,0,0,1-2.75-2.4,7.32,7.32,0,0,1-1-3.91,6.91,6.91,0,0,1,2.34-5.58c1.57-1.31,3.8-2,6.71-2a17.41,17.41,0,0,1,2.19.17c.85.11,1.4.19,1.63.25Zm-17,25.16a2.18,2.18,0,0,0,1.2,2,6.58,6.58,0,0,0,3.34.71,11.85,11.85,0,0,0,5.07-.89,2.7,2.7,0,0,0,1.83-2.42,1.73,1.73,0,0,0-1.08-1.72,8.82,8.82,0,0,0-3.35-.47H420a4.71,4.71,0,0,0-2.77.78A2.41,2.41,0,0,0,416.15,1096.74Zm2.19-18a4.5,4.5,0,0,0,.82,2.84,3,3,0,0,0,2.5,1,2.89,2.89,0,0,0,2.48-1,4.56,4.56,0,0,0,.79-2.84q0-4-3.27-4T418.34,1078.79Z" transform="translate(0)"/><path class="cls-1" d="M446.78,1094c-3.55,0-6.33-1-8.32-2.94s-3-4.74-3-8.32.92-6.55,2.77-8.57a9.86,9.86,0,0,1,7.66-3,9.74,9.74,0,0,1,7.28,2.66,10.11,10.11,0,0,1,2.6,7.36v2.92H441.55a5.78,5.78,0,0,0,1.52,4,5.34,5.34,0,0,0,4,1.44,16.31,16.31,0,0,0,3.77-.42,18.26,18.26,0,0,0,3.71-1.32v4.66a14.07,14.07,0,0,1-3.38,1.17A20.86,20.86,0,0,1,446.78,1094Zm-.85-18.58a3.82,3.82,0,0,0-3,1.21,5.67,5.67,0,0,0-1.24,3.44h8.44a5,5,0,0,0-1.16-3.44A4,4,0,0,0,445.93,1075.44Z" transform="translate(0)"/><path class="cls-1" d="M481,1093.62h-6v-12.87a6.2,6.2,0,0,0-.84-3.58,3.09,3.09,0,0,0-2.7-1.2,4.07,4.07,0,0,0-3.65,1.69c-.75,1.12-1.13,3-1.13,5.59v10.37h-6v-22h4.59l.81,2.82h.34a6.34,6.34,0,0,1,2.77-2.42,9.33,9.33,0,0,1,4-.82,7.75,7.75,0,0,1,5.84,2.08,8.4,8.4,0,0,1,2,6Z" transform="translate(0)"/><path class="cls-1" d="M259.78,1142.08H242.37v-3.55l10.21-13.9H243V1120h16.44v3.9l-9.94,13.55h10.3Z" transform="translate(0)"/><path class="cls-1" d="M279.75,1142.08l-.81-2.82h-.31a6.38,6.38,0,0,1-2.74,2.38,9.36,9.36,0,0,1-4,.84,7.72,7.72,0,0,1-5.86-2.08,8.37,8.37,0,0,1-2-6V1120h6v12.87a6.14,6.14,0,0,0,.85,3.58,3.06,3.06,0,0,0,2.7,1.19,4.07,4.07,0,0,0,3.65-1.68q1.13-1.7,1.12-5.59V1120h6v22Z" transform="translate(0)"/><path class="cls-1" d="M315.17,1142.08l-1.17-3h-.15a9,9,0,0,1-3.13,2.66,10.15,10.15,0,0,1-4.19.74,6.78,6.78,0,0,1-5-1.82,7,7,0,0,1-1.82-5.16,5.83,5.83,0,0,1,2.45-5.18c1.64-1.11,4.11-1.73,7.41-1.84l3.82-.12v-1q0-3.35-3.43-3.35a15.56,15.56,0,0,0-6.21,1.6l-2-4.07a18,18,0,0,1,8.44-2c3,0,5.22.65,6.8,1.93s2.37,3.25,2.37,5.88v14.69Zm-1.78-10.21-2.32.08a7.45,7.45,0,0,0-3.91.94,3,3,0,0,0-1.28,2.64c0,1.7,1,2.55,2.92,2.55a4.62,4.62,0,0,0,3.34-1.2,4.26,4.26,0,0,0,1.25-3.2Z" transform="translate(0)"/><path class="cls-1" d="M345.91,1142.08h-6v-12.87a6.2,6.2,0,0,0-.84-3.58,3.09,3.09,0,0,0-2.71-1.2,4.06,4.06,0,0,0-3.64,1.69c-.75,1.12-1.13,3-1.13,5.59v10.37h-6v-22h4.59l.81,2.82h.34a6.34,6.34,0,0,1,2.77-2.42,9.33,9.33,0,0,1,4-.82,7.75,7.75,0,0,1,5.84,2.08,8.4,8.4,0,0,1,2,6Z" transform="translate(0)"/><path class="cls-1" d="M359.08,1142.48a7.16,7.16,0,0,1-6.1-3q-2.22-3-2.22-8.36c0-3.62.75-6.43,2.26-8.45a7.32,7.32,0,0,1,6.22-3,7.19,7.19,0,0,1,6.35,3.24h.19a24.85,24.85,0,0,1-.45-4.4v-7.06h6v30.68h-4.61l-1.16-2.86h-.26A6.89,6.89,0,0,1,359.08,1142.48Zm2.11-4.8a4.06,4.06,0,0,0,3.38-1.34c.72-.89,1.11-2.41,1.17-4.55v-.65c0-2.37-.36-4.06-1.09-5.09a4.06,4.06,0,0,0-3.56-1.54,3.52,3.52,0,0,0-3.12,1.71,9,9,0,0,0-1.12,5,8.62,8.62,0,0,0,1.13,4.88A3.66,3.66,0,0,0,361.19,1137.68Z" transform="translate(0)"/><path class="cls-1" d="M387.63,1142.48q-5.33,0-8.32-2.94c-2-2-3-4.74-3-8.32s.93-6.55,2.77-8.57a9.86,9.86,0,0,1,7.66-3,9.72,9.72,0,0,1,7.28,2.66,10.07,10.07,0,0,1,2.6,7.36v2.92H382.41a5.78,5.78,0,0,0,1.51,4,5.36,5.36,0,0,0,4,1.44,16.22,16.22,0,0,0,3.76-.42,18,18,0,0,0,3.71-1.32v4.66a14.44,14.44,0,0,1-3.37,1.17A21,21,0,0,1,387.63,1142.48Zm-.85-18.58a3.8,3.8,0,0,0-3,1.21,5.62,5.62,0,0,0-1.25,3.44H391a5,5,0,0,0-1.16-3.44A3.93,3.93,0,0,0,386.78,1123.9Z" transform="translate(0)"/><path class="cls-1" d="M413.82,1119.62a9.6,9.6,0,0,1,2,.18l-.45,5.64a7,7,0,0,0-1.78-.2,6.38,6.38,0,0,0-4.49,1.48,5.36,5.36,0,0,0-1.6,4.14v11.22h-6v-22h4.56l.89,3.7h.29a8.35,8.35,0,0,1,2.77-3A6.83,6.83,0,0,1,413.82,1119.62Z" transform="translate(0)"/><path class="cls-1" d="M429.83,1142.48q-5.32,0-8.32-2.94c-2-2-3-4.74-3-8.32s.92-6.55,2.77-8.57a9.86,9.86,0,0,1,7.66-3,9.74,9.74,0,0,1,7.28,2.66,10.11,10.11,0,0,1,2.6,7.36v2.92H424.6a5.83,5.83,0,0,0,1.52,4,5.36,5.36,0,0,0,4,1.44,16.29,16.29,0,0,0,3.76-.42,18.26,18.26,0,0,0,3.71-1.32v4.66a14.6,14.6,0,0,1-3.37,1.17A21,21,0,0,1,429.83,1142.48ZM429,1123.9a3.83,3.83,0,0,0-3,1.21,5.67,5.67,0,0,0-1.24,3.44h8.44a5,5,0,0,0-1.16-3.44A3.93,3.93,0,0,0,429,1123.9Z" transform="translate(0)"/><path class="cls-1" d="M464.06,1142.08h-6v-12.87a6.2,6.2,0,0,0-.85-3.58,3.09,3.09,0,0,0-2.7-1.2,4.07,4.07,0,0,0-3.65,1.69c-.75,1.12-1.12,3-1.12,5.59v10.37h-6v-22h4.6l.8,2.82h.34a6.34,6.34,0,0,1,2.77-2.42,9.36,9.36,0,0,1,4-.82,7.74,7.74,0,0,1,5.84,2.08,8.35,8.35,0,0,1,2,6Z" transform="translate(0)"/><path class="cls-1" d="M266.9,1190.54,260,1167.92h-.18c.25,4.61.37,7.67.37,9.21v13.41h-5.46v-28.83H263l6.82,22H270l7.24-22h8.32v28.83h-5.7V1176.9c0-.65,0-1.39,0-2.23s.11-3.08.27-6.71h-.18l-7.43,22.58Z" transform="translate(0)"/><path class="cls-1" d="M302.27,1190.94q-5.32,0-8.32-2.94c-2-2-3-4.74-3-8.32s.93-6.55,2.77-8.57a9.86,9.86,0,0,1,7.66-3,9.74,9.74,0,0,1,7.28,2.66,10.11,10.11,0,0,1,2.6,7.36V1181H297.05a5.78,5.78,0,0,0,1.51,4,5.36,5.36,0,0,0,4,1.44,16.29,16.29,0,0,0,3.76-.42,18,18,0,0,0,3.71-1.32v4.66a14.6,14.6,0,0,1-3.37,1.17A21,21,0,0,1,302.27,1190.94Zm-.85-18.58a3.8,3.8,0,0,0-3,1.21,5.62,5.62,0,0,0-1.25,3.44h8.44a5,5,0,0,0-1.16-3.44A3.93,3.93,0,0,0,301.42,1172.36Z" transform="translate(0)"/><path class="cls-1" d="M336.5,1190.54h-6v-12.87a6.12,6.12,0,0,0-.85-3.58,3.09,3.09,0,0,0-2.7-1.2,4.08,4.08,0,0,0-3.65,1.69c-.75,1.12-1.12,3-1.12,5.59v10.37h-6v-22h4.6l.81,2.82h.33a6.34,6.34,0,0,1,2.77-2.42,9.39,9.39,0,0,1,4-.82,7.74,7.74,0,0,1,5.84,2.08,8.35,8.35,0,0,1,2,6Z" transform="translate(0)"/><path class="cls-1" d="M358.07,1184a6.06,6.06,0,0,1-2.35,5.17c-1.57,1.18-3.92,1.78-7.05,1.78a21.77,21.77,0,0,1-4.1-.33,15.9,15.9,0,0,1-3.18-1v-5a21.15,21.15,0,0,0,3.78,1.33,15.51,15.51,0,0,0,3.7.53q3.27,0,3.27-1.89a1.63,1.63,0,0,0-.43-1.16,6.37,6.37,0,0,0-1.5-1c-.71-.38-1.66-.82-2.84-1.32a17.66,17.66,0,0,1-3.74-2,5.39,5.39,0,0,1-1.73-2.08,6.71,6.71,0,0,1-.55-2.89,5.23,5.23,0,0,1,2.28-4.54,11.11,11.11,0,0,1,6.46-1.61,18.31,18.31,0,0,1,7.75,1.74l-1.82,4.34a30.6,30.6,0,0,0-3.09-1.17,9.8,9.8,0,0,0-2.94-.45c-1.78,0-2.66.48-2.66,1.44a1.68,1.68,0,0,0,.86,1.4,23.21,23.21,0,0,0,3.75,1.75,17.88,17.88,0,0,1,3.79,1.95,5.88,5.88,0,0,1,1.77,2.09A6.45,6.45,0,0,1,358.07,1184Z" transform="translate(0)"/><path class="cls-1" d="M371.72,1190.94q-10.29,0-10.29-11.3,0-5.62,2.8-8.59c1.86-2,4.54-3,8-3a15.27,15.27,0,0,1,6.86,1.5l-1.77,4.65q-1.43-.57-2.64-.93a8.32,8.32,0,0,0-2.45-.37q-4.69,0-4.69,6.67,0,6.47,4.69,6.46a10.71,10.71,0,0,0,3.22-.46,11.51,11.51,0,0,0,2.95-1.45v5.15a9.67,9.67,0,0,1-2.94,1.28A16.44,16.44,0,0,1,371.72,1190.94Z" transform="translate(0)"/><path class="cls-1" d="M403.88,1190.54h-6v-12.87c0-3.19-1.19-4.78-3.55-4.78a4,4,0,0,0-3.65,1.72c-.75,1.14-1.13,3-1.13,5.56v10.37h-6v-30.68h6v6.25c0,.49,0,1.63-.13,3.43l-.14,1.78h.31a7,7,0,0,1,6.39-3.24,7.83,7.83,0,0,1,5.9,2.09,8.32,8.32,0,0,1,2,6Z" transform="translate(0)"/><path class="cls-1" d="M420.05,1190.94q-5.32,0-8.32-2.94c-2-2-3-4.74-3-8.32s.92-6.55,2.77-8.57a9.86,9.86,0,0,1,7.66-3,9.74,9.74,0,0,1,7.28,2.66,10.11,10.11,0,0,1,2.6,7.36V1181H414.82a5.83,5.83,0,0,0,1.52,4,5.36,5.36,0,0,0,4,1.44,16.29,16.29,0,0,0,3.76-.42,18.26,18.26,0,0,0,3.71-1.32v4.66a14.6,14.6,0,0,1-3.37,1.17A21,21,0,0,1,420.05,1190.94Zm-.85-18.58a3.83,3.83,0,0,0-3,1.21A5.67,5.67,0,0,0,415,1177h8.44a5,5,0,0,0-1.16-3.44A3.93,3.93,0,0,0,419.2,1172.36Z" transform="translate(0)"/><path class="cls-1" d="M454.28,1190.54h-6v-12.87a6.2,6.2,0,0,0-.85-3.58,3.09,3.09,0,0,0-2.7-1.2,4.07,4.07,0,0,0-3.65,1.69c-.75,1.12-1.13,3-1.13,5.59v10.37h-6v-22h4.6l.8,2.82h.34a6.34,6.34,0,0,1,2.77-2.42,9.36,9.36,0,0,1,4-.82,7.74,7.74,0,0,1,5.84,2.08,8.35,8.35,0,0,1,2,6Z" transform="translate(0)"/></g></svg>