<svg xmlns="http://www.w3.org/2000/svg" viewBox="0 0 1500 1500"><defs><style>.cls-1{fill:#fff;}.cls-2{fill:#cce70b;opacity:0.6;}</style></defs><title>6wichtig_en</title><g id="Layer_4" data-name="Layer 4"><rect class="cls-1" width="1500" height="1500"/></g><g id="Layer_23_copy_3" data-name="Layer 23 copy 3"><polygon class="cls-2" points="975.04 916.47 711.88 1051.88 463.02 891.68 477.33 596.06 740.5 460.65 989.35 620.85 975.04 916.47"/><polygon class="cls-2" points="975.04 916.47 711.88 1051.88 463.02 891.68 477.33 596.06 740.5 460.65 989.35 620.85 975.04 916.47"/><polygon class="cls-2" points="975.04 916.47 711.88 1051.88 463.02 891.68 477.33 596.06 740.5 460.65 989.35 620.85 975.04 916.47"/><polygon class="cls-2" points="795.06 559.82 531.9 695.23 283.04 535.03 297.35 239.42 560.52 104 809.37 264.2 795.06 559.82"/><polygon class="cls-2" points="589.43 832.19 326.26 967.61 77.4 807.4 91.71 511.79 354.88 376.37 603.74 536.57 589.43 832.19"/><polygon class="cls-2" points="1101.21 585.98 838.04 721.39 589.19 561.19 603.5 265.57 866.66 130.16 1115.52 290.36 1101.21 585.98"/><polygon class="cls-2" points="639.59 1185.93 376.42 1321.35 127.57 1161.15 141.88 865.53 405.04 730.11 653.9 890.31 639.59 1185.93"/><polygon class="cls-2" points="1404.43 808.84 1141.26 944.26 892.41 784.06 906.72 488.44 1169.88 353.02 1418.74 513.23 1404.43 808.84"/><polygon class="cls-2" points="1364.38 1156.87 1101.21 1292.29 852.35 1132.08 866.66 836.47 1129.83 701.05 1378.69 861.25 1364.38 1156.87"/><polygon class="cls-2" points="1009.84 1316.7 746.67 1452.12 497.81 1291.92 512.13 996.3 775.29 860.89 1024.15 1021.09 1009.84 1316.7"/><path class="cls-1" d="M200.61,640.66h-6.16V616.74h-7.88v-5.12H208.5v5.12h-7.89Z" transform="translate(0)"/><path class="cls-1" d="M232.68,629.52c0,3.61-1,6.44-2.86,8.48a10.39,10.39,0,0,1-8,3.06,11.18,11.18,0,0,1-5.64-1.4,9.4,9.4,0,0,1-3.76-4,13.51,13.51,0,0,1-1.31-6.11q0-5.44,2.84-8.47t8-3a11.28,11.28,0,0,1,5.64,1.39,9.25,9.25,0,0,1,3.75,4A13.28,13.28,0,0,1,232.68,629.52Zm-15.36,0a9.32,9.32,0,0,0,1.08,5,3.87,3.87,0,0,0,3.53,1.69,3.82,3.82,0,0,0,3.49-1.68,9.52,9.52,0,0,0,1.06-5,9.24,9.24,0,0,0-1.07-4.95,4.57,4.57,0,0,0-7,0A9.2,9.2,0,0,0,217.32,629.52Z" transform="translate(0)"/><path class="cls-1" d="M255.28,641.06a7.23,7.23,0,0,1-6.15-3c-1.48-2-2.23-4.84-2.23-8.43s.76-6.47,2.27-8.51a7.41,7.41,0,0,1,6.27-3.05,7.25,7.25,0,0,1,6.4,3.26h.2a24.24,24.24,0,0,1-.46-4.43v-7.11h6.08v30.91H263l-1.17-2.88h-.26A7,7,0,0,1,255.28,641.06Zm2.13-4.83a4.12,4.12,0,0,0,3.41-1.35c.72-.9,1.11-2.43,1.18-4.59v-.66q0-3.57-1.1-5.12a4.12,4.12,0,0,0-3.59-1.55,3.55,3.55,0,0,0-3.15,1.72,9.13,9.13,0,0,0-1.12,5,8.73,8.73,0,0,0,1.13,4.92A3.71,3.71,0,0,0,257.41,636.23Z" transform="translate(0)"/><path class="cls-1" d="M294.18,629.52q0,5.41-2.86,8.48a10.37,10.37,0,0,1-8,3.06,11.18,11.18,0,0,1-5.64-1.4,9.32,9.32,0,0,1-3.75-4,13.38,13.38,0,0,1-1.31-6.11c0-3.63.94-6.45,2.84-8.47s4.55-3,8-3a11.25,11.25,0,0,1,5.64,1.39,9.27,9.27,0,0,1,3.76,4A13.41,13.41,0,0,1,294.18,629.52Zm-15.36,0a9.31,9.31,0,0,0,1.09,5,4.49,4.49,0,0,0,7,0,9.43,9.43,0,0,0,1.06-5,9.24,9.24,0,0,0-1.07-4.95,4.56,4.56,0,0,0-7,0A9.1,9.1,0,0,0,278.82,629.52Z" transform="translate(0)"/><path class="cls-1" d="M134.39,689.48l-1.71-7.77-2.3-9.81h-.14l-4.05,17.58h-6.52l-6.32-22.21h6l2.56,9.84q.61,2.64,1.26,7.29h.12a39.79,39.79,0,0,1,.69-4.79l.32-1.69,2.74-10.65h6.67l2.61,10.65c0,.29.13.72.25,1.29s.22,1.18.32,1.82.2,1.27.29,1.89a13.12,13.12,0,0,1,.15,1.48h.12c.12-1,.33-2.26.63-3.93s.53-2.78.66-3.36l2.66-9.84h5.94L141,689.48Z" transform="translate(0)"/><path class="cls-1" d="M171.46,689.48H165.4v-13q0-4.82-3.58-4.81a4.06,4.06,0,0,0-3.67,1.73Q157,675.16,157,679v10.45H151V658.57H157v6.3c0,.49-.05,1.64-.14,3.45l-.14,1.79h.32a7,7,0,0,1,6.43-3.26,7.88,7.88,0,0,1,5.94,2.11,8.37,8.37,0,0,1,2,6Z" transform="translate(0)"/><path class="cls-1" d="M191.8,689.48l-1.17-3h-.16a8.82,8.82,0,0,1-3.15,2.67,10.09,10.09,0,0,1-4.22.75,6.84,6.84,0,0,1-5-1.83,7,7,0,0,1-1.83-5.2,5.86,5.86,0,0,1,2.47-5.22q2.48-1.68,7.46-1.86l3.85-.11v-1q0-3.37-3.45-3.38a15.8,15.8,0,0,0-6.26,1.61l-2-4.09a18,18,0,0,1,8.51-2q4.47,0,6.85,2t2.38,5.92v14.8ZM190,679.19l-2.34.08a7.5,7.5,0,0,0-3.93,1,3,3,0,0,0-1.29,2.67c0,1.7,1,2.56,2.94,2.56a4.63,4.63,0,0,0,3.36-1.21A4.26,4.26,0,0,0,190,681Z" transform="translate(0)"/><path class="cls-1" d="M211.63,685.05a13.18,13.18,0,0,0,3.81-.69v4.51a13.68,13.68,0,0,1-5.56,1c-2.42,0-4.19-.61-5.29-1.84s-1.66-3.06-1.66-5.51V671.82H200v-2.56l3.33-2,1.75-4.69H209v4.73h6.21v4.55H209v10.71a2.38,2.38,0,0,0,.72,1.91A2.85,2.85,0,0,0,211.63,685.05Z" transform="translate(0)"/><path class="cls-1" d="M230.24,661.53q0-3,3.3-3t3.3,3a2.91,2.91,0,0,1-.83,2.2,3.47,3.47,0,0,1-2.47.78Q230.24,664.51,230.24,661.53Zm6.32,28H230.5V667.27h6.06Z" transform="translate(0)"/><path class="cls-1" d="M258.41,682.89a6.12,6.12,0,0,1-2.37,5.2q-2.37,1.78-7.1,1.79a22.23,22.23,0,0,1-4.14-.33,16.09,16.09,0,0,1-3.2-1v-5a20.72,20.72,0,0,0,3.81,1.33,15.29,15.29,0,0,0,3.72.54c2.2,0,3.3-.64,3.3-1.91a1.6,1.6,0,0,0-.43-1.16,6.35,6.35,0,0,0-1.51-1c-.72-.38-1.67-.82-2.87-1.32a18.28,18.28,0,0,1-3.76-2,5.67,5.67,0,0,1-1.75-2.1,6.94,6.94,0,0,1-.54-2.91,5.28,5.28,0,0,1,2.29-4.58,11.18,11.18,0,0,1,6.51-1.62,18.54,18.54,0,0,1,7.8,1.75L256.35,673q-1.68-.71-3.12-1.17a10,10,0,0,0-3-.46c-1.79,0-2.69.49-2.69,1.45a1.71,1.71,0,0,0,.87,1.42,24.19,24.19,0,0,0,3.78,1.76,17.89,17.89,0,0,1,3.82,2,5.83,5.83,0,0,1,1.79,2.11A6.51,6.51,0,0,1,258.41,682.89Z" transform="translate(0)"/><path class="cls-1" d="M286.1,666.85a9.67,9.67,0,0,1,2,.18l-.46,5.69a6.57,6.57,0,0,0-1.78-.2,6.39,6.39,0,0,0-4.52,1.49,5.37,5.37,0,0,0-1.62,4.17v11.3h-6.06V667.27h4.59l.89,3.74h.3a8.32,8.32,0,0,1,2.79-3A6.9,6.9,0,0,1,286.1,666.85Z" transform="translate(0)"/><path class="cls-1" d="M291.92,661.53q0-3,3.3-3t3.3,3a2.9,2.9,0,0,1-.82,2.2,3.5,3.5,0,0,1-2.48.78Q291.92,664.51,291.92,661.53Zm6.32,28h-6.06V667.27h6.06Z" transform="translate(0)"/><path class="cls-1" d="M323.93,667.27v3.08l-3.48.9a6,6,0,0,1,1,3.33,6.73,6.73,0,0,1-2.5,5.57,10.74,10.74,0,0,1-6.92,2l-1.09-.06-.9-.1a2,2,0,0,0-.93,1.59c0,.88,1.11,1.31,3.34,1.31h3.77a8.64,8.64,0,0,1,5.57,1.57,5.61,5.61,0,0,1,1.92,4.61,6.82,6.82,0,0,1-3.25,6q-3.24,2.14-9.32,2.15-4.65,0-7.11-1.62a5.16,5.16,0,0,1-2.45-4.54,4.77,4.77,0,0,1,1.25-3.36,7.18,7.18,0,0,1,3.68-1.93,4,4,0,0,1-1.63-1.3,3.05,3.05,0,0,1-.7-1.92,3.1,3.1,0,0,1,.74-2.11,8.59,8.59,0,0,1,2.12-1.66,6,6,0,0,1-2.77-2.42,7.43,7.43,0,0,1-1-3.94,7,7,0,0,1,2.36-5.62c1.58-1.32,3.83-2,6.76-2a17.7,17.7,0,0,1,2.21.17c.86.12,1.4.2,1.64.25Zm-17.15,25.35a2.19,2.19,0,0,0,1.21,2,6.66,6.66,0,0,0,3.36.71,12,12,0,0,0,5.11-.89,2.73,2.73,0,0,0,1.85-2.44,1.72,1.72,0,0,0-1.1-1.73,8.83,8.83,0,0,0-3.37-.48H310.7a4.76,4.76,0,0,0-2.79.78A2.44,2.44,0,0,0,306.78,692.62ZM309,674.54a4.5,4.5,0,0,0,.82,2.86,3,3,0,0,0,2.52,1.06,2.91,2.91,0,0,0,2.5-1.06,4.63,4.63,0,0,0,.79-2.86q0-4-3.29-4T309,674.54Z" transform="translate(0)"/><path class="cls-1" d="M348.09,689.48H342v-13c0-3.21-1.2-4.81-3.58-4.81a4.05,4.05,0,0,0-3.67,1.73q-1.14,1.73-1.14,5.6v10.45h-6.06V658.57h6.06v6.3c0,.49,0,1.64-.14,3.45l-.14,1.79h.32a7,7,0,0,1,6.44-3.26,7.88,7.88,0,0,1,5.94,2.11,8.37,8.37,0,0,1,2,6Z" transform="translate(0)"/><path class="cls-1" d="M363.68,685.05a13.18,13.18,0,0,0,3.81-.69v4.51a13.68,13.68,0,0,1-5.56,1c-2.42,0-4.19-.61-5.29-1.84S355,685,355,682.53V671.82h-2.9v-2.56l3.34-2,1.74-4.69H361v4.73h6.22v4.55H361v10.71a2.38,2.38,0,0,0,.72,1.91A2.89,2.89,0,0,0,363.68,685.05Z" transform="translate(0)"/><path class="cls-1" d="M411.93,277h-6.15V253.07h-7.89v-5.13h21.93v5.13h-7.89Z" transform="translate(0)"/><path class="cls-1" d="M444,265.84c0,3.62-1,6.45-2.86,8.48a10.39,10.39,0,0,1-8,3.06,11.08,11.08,0,0,1-5.64-1.4,9.32,9.32,0,0,1-3.76-4,13.59,13.59,0,0,1-1.31-6.12q0-5.44,2.84-8.46t8-3a11.18,11.18,0,0,1,5.64,1.39,9.36,9.36,0,0,1,3.76,4A13.47,13.47,0,0,1,444,265.84Zm-15.36,0a9.36,9.36,0,0,0,1.08,5,3.9,3.9,0,0,0,3.53,1.69,3.81,3.81,0,0,0,3.49-1.68,9.47,9.47,0,0,0,1.06-5,9.17,9.17,0,0,0-1.07-4.94,4.57,4.57,0,0,0-7,0A9.19,9.19,0,0,0,428.64,265.84Z" transform="translate(0)"/><path class="cls-1" d="M478.9,254.78v3.08l-3.47.89a6.11,6.11,0,0,1,.95,3.34,6.74,6.74,0,0,1-2.49,5.57,10.83,10.83,0,0,1-6.93,2l-1.09-.06-.89-.1a2,2,0,0,0-.94,1.59c0,.87,1.11,1.31,3.34,1.31h3.77a8.61,8.61,0,0,1,5.58,1.57,5.62,5.62,0,0,1,1.91,4.61,6.83,6.83,0,0,1-3.24,6q-3.25,2.14-9.33,2.15-4.65,0-7.1-1.62a5.14,5.14,0,0,1-2.46-4.54,4.79,4.79,0,0,1,1.25-3.36,7.1,7.1,0,0,1,3.68-1.92,4.11,4.11,0,0,1-1.63-1.3,3.23,3.23,0,0,1,0-4,8.71,8.71,0,0,1,2.13-1.66,5.92,5.92,0,0,1-2.77-2.42,7.29,7.29,0,0,1-1-3.93,6.91,6.91,0,0,1,2.37-5.62q2.35-2,6.75-2a18,18,0,0,1,2.22.17c.85.11,1.4.19,1.63.25Zm-17.14,25.34a2.19,2.19,0,0,0,1.2,2,6.57,6.57,0,0,0,3.37.72,11.83,11.83,0,0,0,5.1-.9,2.72,2.72,0,0,0,1.85-2.44,1.73,1.73,0,0,0-1.09-1.73,8.93,8.93,0,0,0-3.38-.48h-3.14a4.78,4.78,0,0,0-2.79.79A2.4,2.4,0,0,0,461.76,280.12Zm2.2-18.07a4.53,4.53,0,0,0,.83,2.86,3,3,0,0,0,2.51,1,2.93,2.93,0,0,0,2.5-1,4.65,4.65,0,0,0,.8-2.86q0-4-3.3-4C465.08,258,464,259.37,464,262.05Z" transform="translate(0)"/><path class="cls-1" d="M495,254.36a9.73,9.73,0,0,1,2.05.18l-.46,5.68a7,7,0,0,0-1.79-.2,6.41,6.41,0,0,0-4.51,1.49,5.39,5.39,0,0,0-1.62,4.17V277h-6.06V254.78h4.59l.89,3.73h.3a8.4,8.4,0,0,1,2.79-3A6.89,6.89,0,0,1,495,254.36Z" transform="translate(0)"/><path class="cls-1" d="M521.22,265.84c0,3.62-1,6.45-2.86,8.48a10.39,10.39,0,0,1-8,3.06,11.08,11.08,0,0,1-5.64-1.4,9.32,9.32,0,0,1-3.76-4,13.59,13.59,0,0,1-1.31-6.12q0-5.44,2.84-8.46t8-3a11.18,11.18,0,0,1,5.64,1.39,9.28,9.28,0,0,1,3.75,4A13.34,13.34,0,0,1,521.22,265.84Zm-15.36,0a9.36,9.36,0,0,0,1.08,5,3.89,3.89,0,0,0,3.53,1.69,3.82,3.82,0,0,0,3.49-1.68,9.56,9.56,0,0,0,1.06-5A9.17,9.17,0,0,0,514,260.9a4.57,4.57,0,0,0-7,0A9.19,9.19,0,0,0,505.86,265.84Z" transform="translate(0)"/><path class="cls-1" d="M544.48,277l-1.71-7.77-2.3-9.81h-.14L536.27,277h-6.51l-6.32-22.21h6l2.56,9.83q.62,2.64,1.25,7.29h.12a42.91,42.91,0,0,1,.7-4.79l.32-1.69,2.74-10.64h6.67l2.61,10.64c0,.3.13.73.24,1.3s.23,1.17.33,1.81.2,1.27.29,1.89a13.35,13.35,0,0,1,.15,1.48h.12c.12-.95.33-2.26.63-3.92s.53-2.79.66-3.37l2.66-9.83h5.94L551.07,277Z" transform="translate(0)"/><path class="cls-1" d="M1207.69,595.85h-6.16V571.94h-7.88v-5.13h21.93v5.13h-7.89Z" transform="translate(0)"/><path class="cls-1" d="M1239.75,584.71q0,5.41-2.86,8.48a10.35,10.35,0,0,1-8,3.06,11.18,11.18,0,0,1-5.64-1.4,9.32,9.32,0,0,1-3.76-4,13.59,13.59,0,0,1-1.31-6.12q0-5.44,2.84-8.46c1.9-2,4.56-3,8-3a11.18,11.18,0,0,1,5.64,1.39,9.22,9.22,0,0,1,3.75,4A13.34,13.34,0,0,1,1239.75,584.71Zm-15.35,0a9.36,9.36,0,0,0,1.08,5,3.88,3.88,0,0,0,3.53,1.68,3.81,3.81,0,0,0,3.48-1.67,9.46,9.46,0,0,0,1.07-5,9.14,9.14,0,0,0-1.08-5,4.56,4.56,0,0,0-7,0A9.23,9.23,0,0,0,1224.4,584.71Z" transform="translate(0)"/><path class="cls-1" d="M1267.69,573.23a7.16,7.16,0,0,1,6.15,3.07c1.49,2,2.23,4.85,2.23,8.41s-.77,6.51-2.3,8.52a8,8,0,0,1-12.38.18H1261l-1,2.44h-4.63V564.94h6.06v7.19c0,.92-.08,2.38-.24,4.39h.24A7,7,0,0,1,1267.69,573.23Zm-2,4.84a3.83,3.83,0,0,0-3.28,1.38,7.89,7.89,0,0,0-1.07,4.56v.66q0,3.57,1.06,5.12a3.78,3.78,0,0,0,3.37,1.55,3.39,3.39,0,0,0,3-1.71,9.39,9.39,0,0,0,1.1-5,8.85,8.85,0,0,0-1.11-4.92A3.5,3.5,0,0,0,1265.74,578.07Z" transform="translate(0)"/><path class="cls-1" d="M1291.13,596.25c-3.58,0-6.37-1-8.39-3s-3-4.77-3-8.38.93-6.6,2.8-8.63a9.9,9.9,0,0,1,7.71-3,9.76,9.76,0,0,1,7.33,2.68,10.15,10.15,0,0,1,2.63,7.41v2.94h-14.33a5.87,5.87,0,0,0,1.53,4,5.38,5.38,0,0,0,4,1.45,16.55,16.55,0,0,0,3.79-.42,18.26,18.26,0,0,0,3.73-1.33v4.69a14.17,14.17,0,0,1-3.39,1.18A21.34,21.34,0,0,1,1291.13,596.25Zm-.86-18.71a3.83,3.83,0,0,0-3,1.22,5.66,5.66,0,0,0-1.25,3.47h8.5a5,5,0,0,0-1.17-3.47A3.93,3.93,0,0,0,1290.27,577.54Z" transform="translate(0)"/><path class="cls-1" d="M1208.09,644.68H1202v-13q0-4.8-3.58-4.8a4.06,4.06,0,0,0-3.67,1.72c-.76,1.16-1.13,3-1.13,5.61v10.45h-6.06V613.76h6.06v6.3c0,.49-.05,1.64-.14,3.46l-.14,1.79h.32a7,7,0,0,1,6.43-3.26,7.88,7.88,0,0,1,5.94,2.1,8.39,8.39,0,0,1,2,6Z" transform="translate(0)"/><path class="cls-1" d="M1228.43,644.68l-1.17-3h-.16a9,9,0,0,1-3.15,2.67,10.3,10.3,0,0,1-4.22.74,6.88,6.88,0,0,1-5-1.82,7.05,7.05,0,0,1-1.83-5.21,5.85,5.85,0,0,1,2.47-5.21q2.48-1.68,7.46-1.86l3.85-.12v-1c0-2.26-1.15-3.38-3.45-3.38a15.8,15.8,0,0,0-6.26,1.61l-2-4.09a18,18,0,0,1,8.51-2q4.47,0,6.85,2c1.59,1.29,2.38,3.27,2.38,5.92v14.8Zm-1.79-10.29-2.34.07a7.58,7.58,0,0,0-3.93,1,3,3,0,0,0-1.29,2.66c0,1.71,1,2.56,2.93,2.56a4.64,4.64,0,0,0,3.37-1.21,4.26,4.26,0,0,0,1.26-3.22Z" transform="translate(0)"/><path class="cls-1" d="M1251.1,645.07a7.35,7.35,0,0,1-6.14-2.84h-.32c.21,1.86.32,2.93.32,3.22v9h-6.06v-32h4.93l.85,2.88h.28a7,7,0,0,1,6.3-3.3,7.21,7.21,0,0,1,6.16,3c1.48,2,2.22,4.84,2.22,8.44a16.8,16.8,0,0,1-1,6.18,8.69,8.69,0,0,1-3,4A7.59,7.59,0,0,1,1251.1,645.07Zm-1.79-18.17a3.83,3.83,0,0,0-3.28,1.38,8,8,0,0,0-1.07,4.56v.65c0,2.39.35,4.09,1.06,5.13a3.8,3.8,0,0,0,3.37,1.55c2.72,0,4.07-2.24,4.07-6.72a9.62,9.62,0,0,0-1-4.92A3.43,3.43,0,0,0,1249.31,626.9Z" transform="translate(0)"/><path class="cls-1" d="M1276.84,645.07a7.34,7.34,0,0,1-6.13-2.84h-.32c.21,1.86.32,2.93.32,3.22v9h-6.06v-32h4.92l.86,2.88h.28a7,7,0,0,1,6.29-3.3,7.19,7.19,0,0,1,6.16,3c1.49,2,2.23,4.84,2.23,8.44a16.59,16.59,0,0,1-1.05,6.18,8.56,8.56,0,0,1-3,4A7.55,7.55,0,0,1,1276.84,645.07Zm-1.78-18.17a3.83,3.83,0,0,0-3.28,1.38,7.87,7.87,0,0,0-1.07,4.56v.65c0,2.39.35,4.09,1.06,5.13a3.8,3.8,0,0,0,3.37,1.55q4.06,0,4.07-6.72a9.73,9.73,0,0,0-1-4.92A3.43,3.43,0,0,0,1275.06,626.9Z" transform="translate(0)"/><path class="cls-1" d="M1287.21,622.47h6.64L1298,635a17.65,17.65,0,0,1,.74,3.86h.12a17,17,0,0,1,.85-3.86l4.11-12.49h6.5l-9.4,25a10.88,10.88,0,0,1-3.68,5.2,9.33,9.33,0,0,1-5.6,1.73,13.69,13.69,0,0,1-3.07-.34V649.3a9.86,9.86,0,0,0,2.38.26,4.33,4.33,0,0,0,2.81-1,6.43,6.43,0,0,0,1.88-3l.36-1.09Z" transform="translate(0)"/><path class="cls-1" d="M1144.94,1020.14h-6.15V996.22h-7.89V991.1h21.93v5.12h-7.89Z" transform="translate(0)"/><path class="cls-1" d="M1177,1009c0,3.61-1,6.44-2.86,8.48a10.39,10.39,0,0,1-8,3.06,11.18,11.18,0,0,1-5.64-1.4,9.4,9.4,0,0,1-3.76-4,13.51,13.51,0,0,1-1.31-6.11c0-3.63,1-6.46,2.84-8.47s4.56-3,8-3a11.28,11.28,0,0,1,5.64,1.39,9.33,9.33,0,0,1,3.76,4A13.41,13.41,0,0,1,1177,1009Zm-15.36,0a9.32,9.32,0,0,0,1.08,5,3.88,3.88,0,0,0,3.53,1.69,3.81,3.81,0,0,0,3.49-1.68,9.43,9.43,0,0,0,1.06-5,9.24,9.24,0,0,0-1.07-5,4.57,4.57,0,0,0-7,0A9.2,9.2,0,0,0,1161.65,1009Z" transform="translate(0)"/><path class="cls-1" d="M1204.94,997.51a7.21,7.21,0,0,1,6.16,3.07c1.48,2,2.22,4.85,2.22,8.42s-.76,6.5-2.29,8.52a8,8,0,0,1-12.39.18h-.42l-1,2.44h-4.63V989.23h6.06v7.19c0,.91-.08,2.38-.24,4.39h.24A7,7,0,0,1,1204.94,997.51Zm-2,4.85a3.84,3.84,0,0,0-3.28,1.38,8,8,0,0,0-1.07,4.56v.66c0,2.38.36,4.09,1.06,5.12a3.8,3.8,0,0,0,3.37,1.55,3.36,3.36,0,0,0,3-1.72,9.23,9.23,0,0,0,1.1-5A8.82,8.82,0,0,0,1206,1004,3.49,3.49,0,0,0,1203,1002.36Z" transform="translate(0)"/><path class="cls-1" d="M1228.38,1020.54q-5.37,0-8.38-3c-2-2-3-4.77-3-8.39s.93-6.6,2.79-8.63a9.94,9.94,0,0,1,7.72-3,9.83,9.83,0,0,1,7.33,2.68,10.19,10.19,0,0,1,2.62,7.41v2.94h-14.32a5.78,5.78,0,0,0,1.53,4,5.4,5.4,0,0,0,4,1.45,16.49,16.49,0,0,0,3.79-.42,19.18,19.18,0,0,0,3.74-1.33V1019a14.25,14.25,0,0,1-3.4,1.18A21.28,21.28,0,0,1,1228.38,1020.54Zm-.85-18.72a3.84,3.84,0,0,0-3,1.22,5.71,5.71,0,0,0-1.26,3.47h8.51a5.08,5.08,0,0,0-1.18-3.47A4,4,0,0,0,1227.53,1001.82Z" transform="translate(0)"/><path class="cls-1" d="M1130.66,1069h-6.06v-13q0-4.82-3.57-4.81a4.08,4.08,0,0,0-3.68,1.73q-1.12,1.72-1.13,5.6V1069h-6.06v-30.91h6.06v6.3c0,.49,0,1.64-.14,3.45l-.14,1.79h.32a7,7,0,0,1,6.43-3.26,7.88,7.88,0,0,1,5.94,2.11,8.33,8.33,0,0,1,2,6Z" transform="translate(0)"/><path class="cls-1" d="M1147,1069.36q-5.37,0-8.38-3c-2-2-3-4.77-3-8.39s.93-6.59,2.79-8.63a9.94,9.94,0,0,1,7.72-3.05,9.78,9.78,0,0,1,7.33,2.69,10.15,10.15,0,0,1,2.62,7.41v2.94h-14.32a5.78,5.78,0,0,0,1.53,4,5.36,5.36,0,0,0,4,1.45,16.49,16.49,0,0,0,3.79-.42,19.18,19.18,0,0,0,3.74-1.33v4.69a14.25,14.25,0,0,1-3.4,1.18A21.21,21.21,0,0,1,1147,1069.36Zm-.85-18.72a3.81,3.81,0,0,0-3,1.23,5.59,5.59,0,0,0-1.25,3.46h8.5a5.08,5.08,0,0,0-1.17-3.46A4,4,0,0,0,1146.1,1050.64Z" transform="translate(0)"/><path class="cls-1" d="M1175,1069l-1.17-3h-.16a8.82,8.82,0,0,1-3.15,2.67,10.13,10.13,0,0,1-4.22.75,6.84,6.84,0,0,1-5-1.83,7,7,0,0,1-1.84-5.2,5.87,5.87,0,0,1,2.48-5.22c1.65-1.12,4.13-1.74,7.46-1.86l3.85-.12v-1q0-3.37-3.45-3.38a15.76,15.76,0,0,0-6.26,1.61l-2-4.09a18,18,0,0,1,8.5-2q4.47,0,6.86,2t2.38,5.92V1069Zm-1.79-10.29-2.34.08a7.54,7.54,0,0,0-3.94,1,3,3,0,0,0-1.29,2.67c0,1.7,1,2.56,2.94,2.56a4.68,4.68,0,0,0,3.37-1.21,4.26,4.26,0,0,0,1.26-3.22Z" transform="translate(0)"/><path class="cls-1" d="M1191.57,1069h-6.06v-30.91h6.06Z" transform="translate(0)"/><path class="cls-1" d="M1207.28,1064.53a13.29,13.29,0,0,0,3.82-.69v4.5a13.55,13.55,0,0,1-5.57,1q-3.63,0-5.29-1.84t-1.66-5.51V1051.3h-2.9v-2.56l3.34-2,1.75-4.69h3.87v4.73h6.22v4.55h-6.22V1062a2.37,2.37,0,0,0,.73,1.91A2.84,2.84,0,0,0,1207.28,1064.53Z" transform="translate(0)"/><path class="cls-1" d="M1236.09,1069H1230v-13q0-4.82-3.58-4.81a4.06,4.06,0,0,0-3.67,1.73c-.76,1.15-1.13,3-1.13,5.6V1069h-6.06v-30.91h6.06v6.3c0,.49-.05,1.64-.14,3.45l-.14,1.79h.32a7,7,0,0,1,6.43-3.26,7.88,7.88,0,0,1,5.94,2.11,8.37,8.37,0,0,1,2,6Z" transform="translate(0)"/><path class="cls-1" d="M1239.15,1046.75h6.63l4.19,12.5a17,17,0,0,1,.74,3.85h.12a16.88,16.88,0,0,1,.85-3.85l4.11-12.5h6.5l-9.4,25a10.85,10.85,0,0,1-3.68,5.21,9.32,9.32,0,0,1-5.59,1.73,14.32,14.32,0,0,1-3.08-.34v-4.81a10.46,10.46,0,0,0,2.38.26,4.27,4.27,0,0,0,2.81-1,6.33,6.33,0,0,0,1.88-3l.36-1.09Z" transform="translate(0)"/><path class="cls-1" d="M703.31,1242.94h-6.15V1219h-7.89v-5.13H711.2V1219h-7.89Z" transform="translate(0)"/><path class="cls-1" d="M735.38,1231.8c0,3.62-1,6.44-2.86,8.48a10.37,10.37,0,0,1-8,3.06,11.08,11.08,0,0,1-5.64-1.4,9.32,9.32,0,0,1-3.76-4,13.59,13.59,0,0,1-1.31-6.12q0-5.44,2.84-8.46c1.9-2,4.56-3,8-3a11.18,11.18,0,0,1,5.64,1.39,9.3,9.3,0,0,1,3.76,4A13.47,13.47,0,0,1,735.38,1231.8Zm-15.36,0a9.36,9.36,0,0,0,1.08,5,3.89,3.89,0,0,0,3.53,1.68,3.81,3.81,0,0,0,3.49-1.67,9.47,9.47,0,0,0,1.06-5,9.24,9.24,0,0,0-1.07-5,4.57,4.57,0,0,0-7,0A9.25,9.25,0,0,0,720,1231.8Z" transform="translate(0)"/><path class="cls-1" d="M766.45,1236.35a6.09,6.09,0,0,1-2.38,5.2c-1.58,1.2-4,1.79-7.1,1.79a22.19,22.19,0,0,1-4.13-.33,16.09,16.09,0,0,1-3.2-1v-5a21.48,21.48,0,0,0,3.81,1.34,15.73,15.73,0,0,0,3.72.53c2.2,0,3.3-.63,3.3-1.91a1.61,1.61,0,0,0-.44-1.16,6.23,6.23,0,0,0-1.51-1c-.71-.38-1.67-.82-2.86-1.32a18,18,0,0,1-3.76-2,5.62,5.62,0,0,1-1.75-2.09,6.84,6.84,0,0,1-.55-2.91,5.27,5.27,0,0,1,2.3-4.58,11.15,11.15,0,0,1,6.5-1.62,18.4,18.4,0,0,1,7.81,1.75l-1.83,4.37c-1.11-.48-2.15-.87-3.12-1.18a9.88,9.88,0,0,0-3-.45c-1.78,0-2.68.48-2.68,1.45a1.71,1.71,0,0,0,.87,1.41,24.4,24.4,0,0,0,3.78,1.77,17.38,17.38,0,0,1,3.81,2,5.74,5.74,0,0,1,1.79,2.11A6.37,6.37,0,0,1,766.45,1236.35Z" transform="translate(0)"/><path class="cls-1" d="M781.23,1243.34c-3.58,0-6.37-1-8.38-3s-3-4.77-3-8.38.93-6.6,2.79-8.63a9.9,9.9,0,0,1,7.71-3,9.8,9.8,0,0,1,7.34,2.68,10.19,10.19,0,0,1,2.62,7.41v2.94H776a5.85,5.85,0,0,0,1.53,4,5.4,5.4,0,0,0,4,1.45,17.13,17.13,0,0,0,3.79-.41,19.25,19.25,0,0,0,3.74-1.34v4.69a14,14,0,0,1-3.4,1.18A21.34,21.34,0,0,1,781.23,1243.34Zm-.86-18.71a3.87,3.87,0,0,0-3,1.22,5.72,5.72,0,0,0-1.25,3.47h8.51a5,5,0,0,0-1.18-3.47A4,4,0,0,0,780.37,1224.63Z" transform="translate(0)"/><path class="cls-1" d="M805.27,1243.34c-3.58,0-6.37-1-8.39-3s-3-4.77-3-8.38.93-6.6,2.79-8.63a9.92,9.92,0,0,1,7.72-3,9.77,9.77,0,0,1,7.33,2.68,10.14,10.14,0,0,1,2.62,7.41v2.94H800a5.85,5.85,0,0,0,1.53,4,5.36,5.36,0,0,0,4,1.45,17.16,17.16,0,0,0,3.8-.41,18.94,18.94,0,0,0,3.73-1.34v4.69a13.89,13.89,0,0,1-3.39,1.18A21.34,21.34,0,0,1,805.27,1243.34Zm-.86-18.71a3.87,3.87,0,0,0-3,1.22,5.66,5.66,0,0,0-1.25,3.47h8.5a5,5,0,0,0-1.17-3.47A4,4,0,0,0,804.41,1224.63Z" transform="translate(0)"/><path class="cls-1" d="M696.85,1269.14a7.19,7.19,0,0,1,6.16,3.07c1.48,2,2.22,4.85,2.22,8.41s-.76,6.51-2.29,8.52a7.42,7.42,0,0,1-6.25,3,7.35,7.35,0,0,1-6.14-2.84h-.42l-1,2.45h-4.63v-30.92h6.06v7.2c0,.91-.08,2.37-.24,4.39h.24A7,7,0,0,1,696.85,1269.14Zm-2,4.85a3.83,3.83,0,0,0-3.28,1.38,8,8,0,0,0-1.07,4.56v.65a9.48,9.48,0,0,0,1.06,5.13,3.8,3.8,0,0,0,3.37,1.55,3.38,3.38,0,0,0,3-1.72,9.27,9.27,0,0,0,1.1-5,8.87,8.87,0,0,0-1.11-4.92A3.48,3.48,0,0,0,694.9,1274Z" transform="translate(0)"/><path class="cls-1" d="M720.29,1292.16c-3.58,0-6.37-1-8.38-3s-3-4.76-3-8.38.93-6.6,2.79-8.63a9.94,9.94,0,0,1,7.72-3,9.77,9.77,0,0,1,7.33,2.68,10.14,10.14,0,0,1,2.62,7.41v2.94H715a5.76,5.76,0,0,0,1.53,4,5.36,5.36,0,0,0,4,1.45,17.07,17.07,0,0,0,3.79-.41,19.86,19.86,0,0,0,3.74-1.33v4.68a14.27,14.27,0,0,1-3.4,1.19A22.06,22.06,0,0,1,720.29,1292.16Zm-.85-18.71a3.84,3.84,0,0,0-3,1.22,5.62,5.62,0,0,0-1.25,3.47h8.5a5.1,5.1,0,0,0-1.17-3.47A4,4,0,0,0,719.44,1273.45Z" transform="translate(0)"/><path class="cls-1" d="M748.38,1291.77l-1.17-3h-.16a9,9,0,0,1-3.15,2.67,10.14,10.14,0,0,1-4.22.74,6.84,6.84,0,0,1-5-1.83,7,7,0,0,1-1.83-5.2,5.85,5.85,0,0,1,2.47-5.21c1.65-1.12,4.13-1.74,7.46-1.86l3.85-.12v-1c0-2.26-1.15-3.38-3.45-3.38a15.59,15.59,0,0,0-6.26,1.61l-2-4.09a18,18,0,0,1,8.5-2q4.47,0,6.86,2c1.59,1.29,2.38,3.27,2.38,5.92v14.8Zm-1.79-10.29-2.34.07a7.65,7.65,0,0,0-3.94,1,3,3,0,0,0-1.29,2.66c0,1.71,1,2.56,2.94,2.56a4.64,4.64,0,0,0,3.37-1.21,4.26,4.26,0,0,0,1.26-3.22Z" transform="translate(0)"/><path class="cls-1" d="M774.58,1291.77l-.81-2.85h-.32a6.36,6.36,0,0,1-2.76,2.4,9.46,9.46,0,0,1-4.07.84q-3.92,0-5.9-2.09a8.42,8.42,0,0,1-2-6v-14.48h6.06v13a6.21,6.21,0,0,0,.85,3.6,3.1,3.1,0,0,0,2.73,1.21,4.09,4.09,0,0,0,3.67-1.7c.75-1.14,1.13-3,1.13-5.64v-10.44h6.06v22.21Z" transform="translate(0)"/><path class="cls-1" d="M795,1287.34a13.29,13.29,0,0,0,3.81-.7v4.51a13.51,13.51,0,0,1-5.56,1c-2.43,0-4.19-.61-5.3-1.83a8.06,8.06,0,0,1-1.66-5.52V1274.1h-2.9v-2.56l3.34-2,1.75-4.69h3.87v4.73h6.22v4.54H792.3v10.71a2.35,2.35,0,0,0,.73,1.91A2.86,2.86,0,0,0,795,1287.34Z" transform="translate(0)"/><path class="cls-1" d="M800.07,1269.56h6.64l4.19,12.49a17.11,17.11,0,0,1,.73,3.86h.12a17,17,0,0,1,.86-3.86l4.11-12.49h6.49l-9.39,25a10.83,10.83,0,0,1-3.69,5.2,9.3,9.3,0,0,1-5.59,1.73,13.85,13.85,0,0,1-3.08-.34v-4.81a10,10,0,0,0,2.39.26,4.28,4.28,0,0,0,2.81-1,6.42,6.42,0,0,0,1.87-3l.36-1.09Z" transform="translate(0)"/><path class="cls-1" d="M887.77,324.7h-6.16V300.78h-7.89v-5.12h21.93v5.12h-7.88Z" transform="translate(0)"/><path class="cls-1" d="M919.83,313.56q0,5.42-2.86,8.48a10.37,10.37,0,0,1-8,3.06,11.18,11.18,0,0,1-5.64-1.4,9.35,9.35,0,0,1-3.75-4,13.46,13.46,0,0,1-1.32-6.12q0-5.44,2.84-8.47t8-3a11.28,11.28,0,0,1,5.64,1.39,9.33,9.33,0,0,1,3.76,4A13.44,13.44,0,0,1,919.83,313.56Zm-15.36,0a9.22,9.22,0,0,0,1.09,5,4.49,4.49,0,0,0,7,0,9.43,9.43,0,0,0,1.06-5,9.24,9.24,0,0,0-1.07-4.95,4.56,4.56,0,0,0-7,0A9.1,9.1,0,0,0,904.47,313.56Z" transform="translate(0)"/><path class="cls-1" d="M955.9,324.7h-6v-13c0-3.21-1.2-4.81-3.58-4.81a4.08,4.08,0,0,0-3.68,1.73q-1.12,1.73-1.13,5.6V324.7H935.4V293.79h6.06v6.3c0,.49,0,1.64-.14,3.45l-.14,1.79h.32a7,7,0,0,1,6.44-3.26,7.88,7.88,0,0,1,5.94,2.11,8.37,8.37,0,0,1,2,6Z" transform="translate(0)"/><path class="cls-1" d="M976.25,324.7l-1.17-3h-.16a8.82,8.82,0,0,1-3.15,2.67,10.13,10.13,0,0,1-4.22.75,6.81,6.81,0,0,1-5-1.83,7,7,0,0,1-1.84-5.2,5.87,5.87,0,0,1,2.48-5.22q2.46-1.68,7.46-1.86l3.85-.12v-1q0-3.37-3.46-3.38a15.76,15.76,0,0,0-6.25,1.61l-2-4.09a18,18,0,0,1,8.5-2q4.47,0,6.85,2t2.39,5.92v14.8Zm-1.79-10.29-2.34.08a7.51,7.51,0,0,0-3.94.95,3,3,0,0,0-1.29,2.67c0,1.7,1,2.56,2.94,2.56a4.7,4.7,0,0,0,3.37-1.21,4.26,4.26,0,0,0,1.26-3.22Z" transform="translate(0)"/><path class="cls-1" d="M992,324.7l-8.46-22.21h6.34l4.29,12.66a23,23,0,0,1,.89,4.54h.12a19.87,19.87,0,0,1,.89-4.54l4.27-12.66h6.34l-8.46,22.21Z" transform="translate(0)"/><path class="cls-1" d="M1019.91,325.1c-3.57,0-6.37-1-8.38-3s-3-4.77-3-8.38.93-6.6,2.79-8.64a9.94,9.94,0,0,1,7.72-3.05,9.78,9.78,0,0,1,7.33,2.69,10.11,10.11,0,0,1,2.62,7.41v2.94h-14.32a5.78,5.78,0,0,0,1.53,4,5.36,5.36,0,0,0,4,1.45,16.49,16.49,0,0,0,3.79-.42,19,19,0,0,0,3.74-1.33v4.69a14.25,14.25,0,0,1-3.4,1.18A21.21,21.21,0,0,1,1019.91,325.1Zm-.85-18.72a3.83,3.83,0,0,0-3,1.23,5.59,5.59,0,0,0-1.25,3.46h8.5a5.08,5.08,0,0,0-1.17-3.46A4,4,0,0,0,1019.06,306.38Z" transform="translate(0)"/><path class="cls-1" d="M932.65,355.86h-5.24v17.66h-6.06V355.86H918v-2.92l3.34-1.63v-1.63q0-3.78,1.87-5.54c1.24-1.16,3.24-1.75,6-1.75a15.61,15.61,0,0,1,5.58.94l-1.55,4.45a11.16,11.16,0,0,0-3.38-.58A2.2,2.2,0,0,0,928,348a3.18,3.18,0,0,0-.57,1.95v1.39h5.24Z" transform="translate(0)"/><path class="cls-1" d="M951.86,373.52l-.81-2.84h-.32a6.42,6.42,0,0,1-2.76,2.4,9.46,9.46,0,0,1-4.07.84q-3.92,0-5.9-2.1a8.38,8.38,0,0,1-2-6V351.31h6.06v13a6.21,6.21,0,0,0,.85,3.6,3.12,3.12,0,0,0,2.73,1.2,4.08,4.08,0,0,0,3.67-1.69c.76-1.14,1.13-3,1.13-5.64V351.31h6.06v22.21Z" transform="translate(0)"/><path class="cls-1" d="M983.37,373.52h-6.06v-13a6.21,6.21,0,0,0-.85-3.6,3.09,3.09,0,0,0-2.72-1.21,4.11,4.11,0,0,0-3.68,1.7q-1.12,1.69-1.13,5.63v10.45h-6.06V351.31h4.63l.81,2.84h.34a6.47,6.47,0,0,1,2.79-2.43,9.5,9.5,0,0,1,4-.82,7.77,7.77,0,0,1,5.88,2.09,8.42,8.42,0,0,1,2,6.05Z" transform="translate(0)"/><path class="cls-1" d="M285.24,1042.12h-6.15V1018.2H271.2v-5.12h21.93v5.12h-7.89Z" transform="translate(0)"/><path class="cls-1" d="M317.31,1031c0,3.61-1,6.44-2.86,8.48a10.39,10.39,0,0,1-8,3.06,11.18,11.18,0,0,1-5.64-1.4,9.4,9.4,0,0,1-3.76-4,13.51,13.51,0,0,1-1.31-6.11q0-5.45,2.84-8.47t8-3a11.28,11.28,0,0,1,5.64,1.39,9.33,9.33,0,0,1,3.76,4A13.44,13.44,0,0,1,317.31,1031ZM302,1031a9.32,9.32,0,0,0,1.08,5,3.88,3.88,0,0,0,3.53,1.69,3.81,3.81,0,0,0,3.49-1.68,9.52,9.52,0,0,0,1.06-5,9.24,9.24,0,0,0-1.07-5,4.57,4.57,0,0,0-7,0A9.2,9.2,0,0,0,302,1031Z" transform="translate(0)"/><path class="cls-1" d="M353.38,1042.12h-6.06v-13q0-4.82-3.57-4.81a4.08,4.08,0,0,0-3.68,1.73q-1.12,1.73-1.13,5.6v10.45h-6.06v-30.91h6.06v6.3c0,.49-.05,1.64-.14,3.45l-.14,1.79H339a7,7,0,0,1,6.44-3.26,7.88,7.88,0,0,1,5.94,2.11,8.37,8.37,0,0,1,2,6Z" transform="translate(0)"/><path class="cls-1" d="M373.73,1042.12l-1.18-3h-.15a8.82,8.82,0,0,1-3.15,2.67,10.14,10.14,0,0,1-4.23.75,6.8,6.8,0,0,1-5-1.83,7,7,0,0,1-1.84-5.2,5.89,5.89,0,0,1,2.47-5.22q2.47-1.68,7.46-1.86l3.86-.12v-1q0-3.37-3.46-3.38a15.84,15.84,0,0,0-6.26,1.61l-2-4.09a18,18,0,0,1,8.5-2q4.47,0,6.85,1.95t2.39,5.92v14.8Zm-1.79-10.29-2.35.08a7.5,7.5,0,0,0-3.93.95,3,3,0,0,0-1.29,2.67c0,1.7,1,2.56,2.94,2.56a4.7,4.7,0,0,0,3.37-1.21,4.26,4.26,0,0,0,1.26-3.22Z" transform="translate(0)"/><path class="cls-1" d="M389.48,1042.12,381,1019.91h6.33l4.3,12.66a22.94,22.94,0,0,1,.89,4.55h.12a19.32,19.32,0,0,1,.89-4.55l4.27-12.66h6.34l-8.46,22.21Z" transform="translate(0)"/><path class="cls-1" d="M417.39,1042.52q-5.37,0-8.38-3c-2-2-3-4.77-3-8.39s.93-6.59,2.79-8.63a9.94,9.94,0,0,1,7.72-3,9.78,9.78,0,0,1,7.33,2.69,10.11,10.11,0,0,1,2.62,7.41v2.94H412.13a5.78,5.78,0,0,0,1.53,4,5.36,5.36,0,0,0,4,1.45,16.49,16.49,0,0,0,3.79-.42,19,19,0,0,0,3.74-1.33V1041a14.25,14.25,0,0,1-3.4,1.18A21.21,21.21,0,0,1,417.39,1042.52Zm-.85-18.72a3.83,3.83,0,0,0-3,1.23,5.59,5.59,0,0,0-1.25,3.46h8.5a5.08,5.08,0,0,0-1.17-3.46A4,4,0,0,0,416.54,1023.8Z" transform="translate(0)"/><path class="cls-1" d="M279.73,1073.28h-5.24v17.66h-6.06v-17.66h-3.34v-2.92l3.34-1.63v-1.63c0-2.53.62-4.37,1.87-5.54s3.23-1.75,6-1.75a15.42,15.42,0,0,1,5.59.94l-1.55,4.45a11.16,11.16,0,0,0-3.38-.58,2.23,2.23,0,0,0-1.87.76,3.23,3.23,0,0,0-.57,2v1.39h5.24Z" transform="translate(0)"/><path class="cls-1" d="M298.94,1090.94l-.81-2.84h-.32a6.49,6.49,0,0,1-2.76,2.4,9.46,9.46,0,0,1-4.07.84q-3.92,0-5.9-2.1a8.39,8.39,0,0,1-2-6v-14.48h6.06v13a6.21,6.21,0,0,0,.85,3.6,3.11,3.11,0,0,0,2.72,1.2,4.08,4.08,0,0,0,3.68-1.7q1.13-1.69,1.13-5.63v-10.45h6.06v22.21Z" transform="translate(0)"/><path class="cls-1" d="M316,1090.94H310V1060H316Z" transform="translate(0)"/><path class="cls-1" d="M334.64,1073.28H329.4v17.66h-6.06v-17.66H320v-2.92l3.34-1.63v-1.63c0-2.53.62-4.37,1.86-5.54s3.24-1.75,6-1.75a15.42,15.42,0,0,1,5.59.94l-1.55,4.45a11.16,11.16,0,0,0-3.38-.58,2.23,2.23,0,0,0-1.87.76,3.23,3.23,0,0,0-.57,2v1.39h5.24Zm3.22-10.29q0-3,3.3-3t3.29,3a2.9,2.9,0,0,1-.82,2.2,3.47,3.47,0,0,1-2.47.78Q337.86,1066,337.86,1063Zm6.32,28h-6.06v-22.21h6.06Z" transform="translate(0)"/><path class="cls-1" d="M356.57,1090.94h-6.06V1060h6.06Z" transform="translate(0)"/><path class="cls-1" d="M369,1090.94h-6.06V1060H369Z" transform="translate(0)"/><path class="cls-1" d="M375.09,1063q0-3,3.29-3t3.3,3a2.9,2.9,0,0,1-.82,2.2,3.5,3.5,0,0,1-2.48.78Q375.1,1066,375.09,1063Zm6.31,28h-6v-22.21h6Z" transform="translate(0)"/><path class="cls-1" d="M408.26,1090.94H402.2v-13a6.27,6.27,0,0,0-.85-3.61,3.11,3.11,0,0,0-2.72-1.2,4.11,4.11,0,0,0-3.68,1.7q-1.12,1.7-1.13,5.63v10.45h-6.06v-22.21h4.63l.81,2.84h.34a6.47,6.47,0,0,1,2.79-2.43,9.55,9.55,0,0,1,4.05-.82,7.76,7.76,0,0,1,5.88,2.09,8.46,8.46,0,0,1,2,6Z" transform="translate(0)"/><path class="cls-1" d="M433.83,1068.73v3.08l-3.48.9a6,6,0,0,1,1,3.33,6.74,6.74,0,0,1-2.5,5.58,10.8,10.8,0,0,1-6.92,2l-1.09-.06-.9-.1A2,2,0,0,0,419,1085c0,.88,1.11,1.31,3.34,1.31h3.77a8.62,8.62,0,0,1,5.57,1.57,5.61,5.61,0,0,1,1.92,4.61,6.82,6.82,0,0,1-3.25,6q-3.24,2.15-9.32,2.15-4.65,0-7.11-1.62a5.16,5.16,0,0,1-2.45-4.54,4.77,4.77,0,0,1,1.25-3.36,7.18,7.18,0,0,1,3.68-1.93,4,4,0,0,1-1.63-1.3,3,3,0,0,1-.7-1.91,3.11,3.11,0,0,1,.74-2.12,8.59,8.59,0,0,1,2.12-1.66,6,6,0,0,1-2.77-2.42,7.41,7.41,0,0,1-1-3.94,7,7,0,0,1,2.36-5.62q2.37-2,6.76-2a17.48,17.48,0,0,1,2.21.16c.86.12,1.4.2,1.64.25Zm-17.14,25.35a2.2,2.2,0,0,0,1.2,2,6.66,6.66,0,0,0,3.36.71,12,12,0,0,0,5.11-.89,2.73,2.73,0,0,0,1.85-2.44,1.73,1.73,0,0,0-1.09-1.73,8.93,8.93,0,0,0-3.38-.48H420.6a4.78,4.78,0,0,0-2.79.78A2.43,2.43,0,0,0,416.69,1094.08Zm2.2-18.08a4.57,4.57,0,0,0,.82,2.86,3,3,0,0,0,2.52,1.06,2.91,2.91,0,0,0,2.5-1.06,4.63,4.63,0,0,0,.8-2.86q0-4-3.3-4T418.89,1076Z" transform="translate(0)"/><path class="cls-1" d="M231.44,1117.14a9.63,9.63,0,0,1,2,.18L233,1123a7.07,7.07,0,0,0-1.79-.2,6.45,6.45,0,0,0-4.52,1.49,5.37,5.37,0,0,0-1.62,4.17v11.3H219v-22.21h4.59l.89,3.74h.3a8.32,8.32,0,0,1,2.79-3A6.92,6.92,0,0,1,231.44,1117.14Z" transform="translate(0)"/><path class="cls-1" d="M247.57,1140.16c-3.58,0-6.37-1-8.38-3s-3-4.77-3-8.38.93-6.6,2.79-8.63a9.9,9.9,0,0,1,7.71-3,9.76,9.76,0,0,1,7.33,2.68,10.15,10.15,0,0,1,2.63,7.41v2.94H242.3a5.85,5.85,0,0,0,1.53,4,5.38,5.38,0,0,0,4,1.45,17.13,17.13,0,0,0,3.79-.41,19.25,19.25,0,0,0,3.74-1.34v4.69a14,14,0,0,1-3.4,1.18A21.34,21.34,0,0,1,247.57,1140.16Zm-.86-18.71a3.87,3.87,0,0,0-3,1.22,5.72,5.72,0,0,0-1.25,3.47H251a5,5,0,0,0-1.18-3.47A4,4,0,0,0,246.71,1121.45Z" transform="translate(0)"/><path class="cls-1" d="M267.61,1139.76h-6.06v-30.91h6.06Z" transform="translate(0)"/><path class="cls-1" d="M288.07,1139.76l-1.17-3h-.16a9.09,9.09,0,0,1-3.14,2.67,10.32,10.32,0,0,1-4.23.74,6.8,6.8,0,0,1-5-1.83,7,7,0,0,1-1.84-5.2,5.83,5.83,0,0,1,2.47-5.21q2.47-1.68,7.46-1.86l3.86-.12v-1c0-2.25-1.16-3.37-3.46-3.37a15.67,15.67,0,0,0-6.26,1.61l-2-4.1a18.12,18.12,0,0,1,8.5-2q4.47,0,6.85,1.94c1.59,1.3,2.39,3.28,2.39,5.92v14.8Zm-1.78-10.29-2.35.08a7.49,7.49,0,0,0-3.93,1,3,3,0,0,0-1.29,2.66c0,1.71,1,2.56,2.94,2.56a4.67,4.67,0,0,0,3.37-1.21,4.26,4.26,0,0,0,1.26-3.22Z" transform="translate(0)"/><path class="cls-1" d="M307.9,1135.33a13.18,13.18,0,0,0,3.81-.69v4.51a13.64,13.64,0,0,1-5.56,1c-2.42,0-4.19-.61-5.29-1.84s-1.66-3.06-1.66-5.51V1122.1h-2.9v-2.56l3.34-2,1.74-4.68h3.88v4.72h6.22v4.55h-6.22v10.71a2.38,2.38,0,0,0,.72,1.91A2.89,2.89,0,0,0,307.9,1135.33Z" transform="translate(0)"/><path class="cls-1" d="M316,1111.81q0-3,3.29-3t3.3,3a2.89,2.89,0,0,1-.82,2.2,3.5,3.5,0,0,1-2.48.78Q316,1114.79,316,1111.81Zm6.31,28H316.2v-22.21h6.06Z" transform="translate(0)"/><path class="cls-1" d="M348.8,1128.62c0,3.62-.95,6.44-2.86,8.48a10.35,10.35,0,0,1-8,3.06,11,11,0,0,1-5.64-1.4,9.26,9.26,0,0,1-3.76-4,13.59,13.59,0,0,1-1.31-6.12q0-5.44,2.84-8.46c1.89-2,4.56-3,8-3a11.18,11.18,0,0,1,5.64,1.39,9.28,9.28,0,0,1,3.75,4A13.34,13.34,0,0,1,348.8,1128.62Zm-15.35,0a9.36,9.36,0,0,0,1.08,5,3.88,3.88,0,0,0,3.53,1.68,3.8,3.8,0,0,0,3.48-1.67,9.46,9.46,0,0,0,1.07-5,9.14,9.14,0,0,0-1.08-4.95,4.56,4.56,0,0,0-7,0A9.25,9.25,0,0,0,333.45,1128.62Z" transform="translate(0)"/><path class="cls-1" d="M374.31,1139.76h-6.06v-13a6.21,6.21,0,0,0-.85-3.6,3.12,3.12,0,0,0-2.72-1.21,4.11,4.11,0,0,0-3.68,1.7c-.75,1.14-1.13,3-1.13,5.64v10.44h-6.06v-22.21h4.63l.81,2.85h.34a6.43,6.43,0,0,1,2.79-2.44,9.55,9.55,0,0,1,4.05-.82,7.8,7.8,0,0,1,5.88,2.09,8.46,8.46,0,0,1,2,6Z" transform="translate(0)"/><path class="cls-1" d="M396,1133.17a6.1,6.1,0,0,1-2.37,5.2c-1.58,1.2-3.95,1.79-7.1,1.79a22.11,22.11,0,0,1-4.13-.33,15.27,15.27,0,0,1-3.2-1v-5a21.09,21.09,0,0,0,3.8,1.34,15.73,15.73,0,0,0,3.73.53c2.2,0,3.3-.63,3.3-1.9a1.62,1.62,0,0,0-.44-1.17,6.45,6.45,0,0,0-1.51-1c-.72-.38-1.67-.82-2.86-1.32a18.14,18.14,0,0,1-3.77-2,5.59,5.59,0,0,1-1.74-2.09,6.84,6.84,0,0,1-.55-2.91,5.27,5.27,0,0,1,2.29-4.58,11.18,11.18,0,0,1,6.51-1.62,18.43,18.43,0,0,1,7.81,1.75l-1.83,4.37c-1.11-.48-2.15-.87-3.12-1.18a9.93,9.93,0,0,0-3-.45c-1.79,0-2.68.48-2.68,1.45a1.72,1.72,0,0,0,.86,1.41,25.17,25.17,0,0,0,3.79,1.77,17.61,17.61,0,0,1,3.81,2,5.83,5.83,0,0,1,1.79,2.11A6.51,6.51,0,0,1,396,1133.17Z" transform="translate(0)"/><path class="cls-1" d="M421.27,1139.76h-6v-13c0-3.2-1.2-4.81-3.58-4.81a4.08,4.08,0,0,0-3.68,1.73c-.75,1.16-1.13,3-1.13,5.61v10.44h-6.06v-30.91h6.06v6.3c0,.49,0,1.64-.14,3.46l-.14,1.79h.32c1.35-2.18,3.5-3.26,6.44-3.26a7.88,7.88,0,0,1,5.94,2.1,8.38,8.38,0,0,1,2,6Z" transform="translate(0)"/><path class="cls-1" d="M427.25,1111.81q0-3,3.3-3t3.3,3a2.89,2.89,0,0,1-.83,2.2,3.45,3.45,0,0,1-2.47.78Q427.25,1114.79,427.25,1111.81Zm6.32,28h-6.06v-22.21h6.06Z" transform="translate(0)"/><path class="cls-1" d="M452.13,1140.16a7.37,7.37,0,0,1-6.14-2.84h-.32c.21,1.86.32,2.93.32,3.22v9h-6.06v-32h4.92l.86,2.89H446a7,7,0,0,1,6.29-3.3,7.19,7.19,0,0,1,6.16,3c1.49,2,2.23,4.84,2.23,8.44a16.59,16.59,0,0,1-1.05,6.18,8.56,8.56,0,0,1-3,4A7.54,7.54,0,0,1,452.13,1140.16ZM450.34,1122a3.83,3.83,0,0,0-3.28,1.39,7.85,7.85,0,0,0-1.07,4.55v.66q0,3.57,1.06,5.13a3.8,3.8,0,0,0,3.37,1.54c2.71,0,4.07-2.23,4.07-6.71a9.62,9.62,0,0,0-1-4.92A3.43,3.43,0,0,0,450.34,1122Z" transform="translate(0)"/><path class="cls-1" d="M481.17,1133.17a6.1,6.1,0,0,1-2.37,5.2c-1.59,1.2-3.95,1.79-7.11,1.79a22.19,22.19,0,0,1-4.13-.33,15.46,15.46,0,0,1-3.2-1v-5a21.48,21.48,0,0,0,3.81,1.34,15.73,15.73,0,0,0,3.72.53c2.2,0,3.3-.63,3.3-1.9a1.62,1.62,0,0,0-.44-1.17,6.23,6.23,0,0,0-1.51-1c-.71-.38-1.67-.82-2.86-1.32a18,18,0,0,1-3.76-2,5.62,5.62,0,0,1-1.75-2.09,7,7,0,0,1-.55-2.91,5.27,5.27,0,0,1,2.3-4.58,11.17,11.17,0,0,1,6.5-1.62,18.4,18.4,0,0,1,7.81,1.75l-1.83,4.37c-1.11-.48-2.15-.87-3.12-1.18a9.88,9.88,0,0,0-3-.45c-1.78,0-2.68.48-2.68,1.45a1.71,1.71,0,0,0,.87,1.41,24.4,24.4,0,0,0,3.78,1.77,17.49,17.49,0,0,1,3.82,2,5.8,5.8,0,0,1,1.78,2.11A6.37,6.37,0,0,1,481.17,1133.17Z" transform="translate(0)"/></g></svg>