<svg xmlns="http://www.w3.org/2000/svg" viewBox="0 0 1500 1500"><defs><style>.cls-1{fill:#fff;}.cls-2{fill:#cce70b;opacity:0.6;}</style></defs><title>6wichtig2</title><g id="Layer_4" data-name="Layer 4"><rect class="cls-1" width="1500" height="1500"/></g><g id="Layer_23" data-name="Layer 23"><polygon class="cls-2" points="975.04 916.47 711.88 1051.88 463.02 891.68 477.33 596.06 740.5 460.65 989.35 620.85 975.04 916.47"/><polygon class="cls-2" points="975.04 916.47 711.88 1051.88 463.02 891.68 477.33 596.06 740.5 460.65 989.35 620.85 975.04 916.47"/><polygon class="cls-2" points="975.04 916.47 711.88 1051.88 463.02 891.68 477.33 596.06 740.5 460.65 989.35 620.85 975.04 916.47"/><polygon class="cls-2" points="795.06 559.82 531.9 695.23 283.04 535.03 297.35 239.42 560.52 104 809.37 264.2 795.06 559.82"/><polygon class="cls-2" points="589.43 832.19 326.26 967.61 77.4 807.4 91.71 511.79 354.88 376.37 603.74 536.57 589.43 832.19"/><polygon class="cls-2" points="1101.21 585.98 838.04 721.39 589.19 561.19 603.5 265.57 866.66 130.16 1115.52 290.36 1101.21 585.98"/><polygon class="cls-2" points="639.59 1185.93 376.42 1321.35 127.57 1161.15 141.88 865.53 405.04 730.11 653.9 890.31 639.59 1185.93"/><polygon class="cls-2" points="1404.43 808.84 1141.26 944.26 892.41 784.06 906.72 488.44 1169.88 353.02 1418.74 513.23 1404.43 808.84"/><polygon class="cls-2" points="1364.38 1156.87 1101.21 1292.29 852.35 1132.08 866.66 836.47 1129.83 701.05 1378.69 861.25 1364.38 1156.87"/><polygon class="cls-2" points="1009.84 1316.7 746.67 1452.12 497.81 1291.92 512.13 996.3 775.29 860.89 1024.15 1021.09 1009.84 1316.7"/><path class="cls-1" d="M146.47,640.66H124.85v-4l13.93-20H125.23v-5.08h20.86v4l-13.9,20h14.28Z" transform="translate(0)"/><path class="cls-1" d="M166.35,640.66l-.81-2.84h-.32a6.4,6.4,0,0,1-2.76,2.39,9.32,9.32,0,0,1-4.07.85q-3.91,0-5.9-2.1a8.42,8.42,0,0,1-2-6V618.45h6.06v13a6.24,6.24,0,0,0,.86,3.61,3.09,3.09,0,0,0,2.72,1.2,4.09,4.09,0,0,0,3.67-1.7c.76-1.13,1.13-3,1.13-5.63V618.45H171v22.21Z" transform="translate(0)"/><path class="cls-1" d="M197.29,636.23a13,13,0,0,0,3.81-.7V640a13.5,13.5,0,0,1-5.56,1c-2.43,0-4.19-.62-5.3-1.84a8,8,0,0,1-1.66-5.51V623h-2.9v-2.56l3.34-2,1.75-4.69h3.87v4.73h6.22V623h-6.22v10.71a2.33,2.33,0,0,0,.73,1.9A2.86,2.86,0,0,0,197.29,636.23Z" transform="translate(0)"/><path class="cls-1" d="M221.32,640.66l-.81-2.84h-.32a6.4,6.4,0,0,1-2.76,2.39,9.32,9.32,0,0,1-4.07.85q-3.92,0-5.9-2.1a8.42,8.42,0,0,1-2-6V618.45h6.06v13a6.25,6.25,0,0,0,.85,3.61,3.11,3.11,0,0,0,2.72,1.2,4.11,4.11,0,0,0,3.68-1.7c.76-1.13,1.13-3,1.13-5.63V618.45H226v22.21Z" transform="translate(0)"/><path class="cls-1" d="M252.83,640.66h-6.06v-13a6.23,6.23,0,0,0-.85-3.61,3.12,3.12,0,0,0-2.73-1.2,4.09,4.09,0,0,0-3.67,1.7q-1.12,1.7-1.13,5.63v10.45h-6.06V618.45H237l.81,2.84h.34a6.36,6.36,0,0,1,2.79-2.43,9.5,9.5,0,0,1,4-.83,7.73,7.73,0,0,1,5.88,2.1,8.4,8.4,0,0,1,2,6Z" transform="translate(0)"/><path class="cls-1" d="M265,636.39a61.85,61.85,0,0,1-3.5,9.51h-4.37q1.29-5.28,2-10h5.56Z" transform="translate(0)"/><path class="cls-1" d="M299.69,640.66,298,632.89l-2.3-9.81h-.14l-4.05,17.58H285l-6.31-22.21h6l2.57,9.83c.41,1.76.82,4.2,1.25,7.29h.12a40,40,0,0,1,.69-4.78l.32-1.69,2.74-10.65h6.68l2.6,10.65c0,.29.14.72.25,1.29s.22,1.17.33,1.82.2,1.27.28,1.88a13.35,13.35,0,0,1,.15,1.48h.12c.12-1,.33-2.26.64-3.92s.52-2.78.65-3.37l2.67-9.83h5.94l-6.4,22.21Z" transform="translate(0)"/><path class="cls-1" d="M330.37,640.66l-1.18-3H329a8.9,8.9,0,0,1-3.14,2.67,10.14,10.14,0,0,1-4.23.75,6.8,6.8,0,0,1-5-1.83,7,7,0,0,1-1.84-5.21,5.88,5.88,0,0,1,2.47-5.21q2.48-1.68,7.46-1.86l3.86-.12v-1q0-3.37-3.46-3.38a15.84,15.84,0,0,0-6.26,1.61l-2-4.09a18,18,0,0,1,8.5-2q4.47,0,6.85,2t2.39,5.92v14.8Zm-1.79-10.29-2.35.08a7.5,7.5,0,0,0-3.93.95,3,3,0,0,0-1.29,2.66c0,1.71,1,2.57,2.94,2.57a4.7,4.7,0,0,0,3.37-1.21,4.28,4.28,0,0,0,1.26-3.22Z" transform="translate(0)"/><path class="cls-1" d="M356.33,634.06a6.12,6.12,0,0,1-2.37,5.21c-1.59,1.19-3.95,1.79-7.11,1.79a22.19,22.19,0,0,1-4.13-.33,16.09,16.09,0,0,1-3.2-1v-5a21.49,21.49,0,0,0,3.81,1.33,15.29,15.29,0,0,0,3.72.54c2.2,0,3.3-.64,3.3-1.91a1.59,1.59,0,0,0-.44-1.16,6.21,6.21,0,0,0-1.51-1c-.71-.37-1.67-.81-2.86-1.32a17.6,17.6,0,0,1-3.76-2,5.57,5.57,0,0,1-1.75-2.1,7,7,0,0,1-.55-2.91,5.29,5.29,0,0,1,2.3-4.58,11.17,11.17,0,0,1,6.5-1.62,18.55,18.55,0,0,1,7.81,1.75l-1.83,4.37a31.78,31.78,0,0,0-3.11-1.17,9.68,9.68,0,0,0-3-.46c-1.79,0-2.69.49-2.69,1.45a1.68,1.68,0,0,0,.87,1.41,23,23,0,0,0,3.78,1.77,17.44,17.44,0,0,1,3.82,2,5.86,5.86,0,0,1,1.78,2.1A6.43,6.43,0,0,1,356.33,634.06Z" transform="translate(0)"/><path class="cls-1" d="M128.84,661.53q0-3,3.3-3t3.29,3a2.9,2.9,0,0,1-.82,2.2,3.49,3.49,0,0,1-2.47.78Q128.84,664.51,128.84,661.53Zm6.32,28H129.1V667.27h6.06Z" transform="translate(0)"/><path class="cls-1" d="M150.53,689.88q-10.36,0-10.37-11.38c0-3.78.94-6.66,2.82-8.66s4.58-3,8.09-3a15.49,15.49,0,0,1,6.91,1.51l-1.79,4.69c-.95-.38-1.84-.7-2.66-.94a8.39,8.39,0,0,0-2.46-.37q-4.73,0-4.73,6.72,0,6.51,4.73,6.51a10.89,10.89,0,0,0,3.24-.46,12.24,12.24,0,0,0,3-1.46v5.18a9.86,9.86,0,0,1-3,1.29A16.67,16.67,0,0,1,150.53,689.88Z" transform="translate(0)"/><path class="cls-1" d="M182.93,689.48h-6.06v-13q0-4.82-3.57-4.81a4.08,4.08,0,0,0-3.68,1.73q-1.12,1.73-1.13,5.6v10.45h-6.06V658.57h6.06v6.3c0,.49-.05,1.64-.14,3.45l-.14,1.79h.32a7,7,0,0,1,6.44-3.26,7.91,7.91,0,0,1,5.94,2.11,8.37,8.37,0,0,1,2,6Z" transform="translate(0)"/><path class="cls-1" d="M215.23,682.89a6.12,6.12,0,0,1-2.37,5.2q-2.37,1.78-7.1,1.79a22,22,0,0,1-4.13-.33,15.89,15.89,0,0,1-3.2-1v-5a20.35,20.35,0,0,0,3.8,1.33,15.29,15.29,0,0,0,3.73.54c2.19,0,3.29-.64,3.29-1.91a1.6,1.6,0,0,0-.43-1.16,6.15,6.15,0,0,0-1.51-1c-.72-.38-1.67-.82-2.86-1.32a18.14,18.14,0,0,1-3.77-2,5.67,5.67,0,0,1-1.75-2.1,6.94,6.94,0,0,1-.54-2.91,5.28,5.28,0,0,1,2.29-4.58,11.18,11.18,0,0,1,6.51-1.62A18.58,18.58,0,0,1,215,668.6L213.17,673c-1.12-.47-2.15-.86-3.12-1.17a10,10,0,0,0-3-.46c-1.79,0-2.68.49-2.68,1.45a1.7,1.7,0,0,0,.86,1.42,24.45,24.45,0,0,0,3.79,1.76,18,18,0,0,1,3.81,2,5.83,5.83,0,0,1,1.79,2.11A6.51,6.51,0,0,1,215.23,682.89Z" transform="translate(0)"/><path class="cls-1" d="M219.7,661.53q0-3,3.3-3t3.3,3a2.91,2.91,0,0,1-.83,2.2,3.47,3.47,0,0,1-2.47.78Q219.7,664.51,219.7,661.53Zm6.32,28H220V667.27H226Z" transform="translate(0)"/><path class="cls-1" d="M252.88,689.48h-6.06v-13a6.35,6.35,0,0,0-.85-3.61,3.12,3.12,0,0,0-2.73-1.2,4.09,4.09,0,0,0-3.67,1.7c-.76,1.13-1.13,3-1.13,5.63v10.45h-6.06V667.27H237l.81,2.84h.34a6.36,6.36,0,0,1,2.79-2.43,9.47,9.47,0,0,1,4-.83,7.76,7.76,0,0,1,5.88,2.1,8.4,8.4,0,0,1,2,6Z" transform="translate(0)"/><path class="cls-1" d="M279.62,689.48h-6.06v-13a6.26,6.26,0,0,0-.86-3.61,3.09,3.09,0,0,0-2.72-1.2,4.09,4.09,0,0,0-3.67,1.7c-.76,1.13-1.13,3-1.13,5.63v10.45h-6.06V667.27h4.63l.81,2.84h.34a6.36,6.36,0,0,1,2.79-2.43,9.47,9.47,0,0,1,4-.83,7.76,7.76,0,0,1,5.88,2.1,8.4,8.4,0,0,1,2,6Z" transform="translate(0)"/><path class="cls-1" d="M291.14,689.48l-8.46-22.21H289l4.3,12.66a23.07,23.07,0,0,1,.89,4.55h.12a19.32,19.32,0,0,1,.89-4.55l4.27-12.66h6.34l-8.46,22.21Z" transform="translate(0)"/><path class="cls-1" d="M329.18,678.34q0,5.42-2.86,8.48a10.35,10.35,0,0,1-8,3.06,11.19,11.19,0,0,1-5.65-1.4,9.41,9.41,0,0,1-3.75-4,13.59,13.59,0,0,1-1.31-6.12q0-5.45,2.84-8.47t8-3a11.18,11.18,0,0,1,5.64,1.4,9.17,9.17,0,0,1,3.75,4A13.31,13.31,0,0,1,329.18,678.34Zm-15.35,0a9.3,9.3,0,0,0,1.08,5,3.87,3.87,0,0,0,3.53,1.69,3.81,3.81,0,0,0,3.48-1.68,9.43,9.43,0,0,0,1.06-5,9.14,9.14,0,0,0-1.07-5,4.56,4.56,0,0,0-7,0A9.14,9.14,0,0,0,313.83,678.34Z" transform="translate(0)"/><path class="cls-1" d="M340.25,689.48h-6.06V658.57h6.06Z" transform="translate(0)"/><path class="cls-1" d="M352.66,689.48h-6.05V658.57h6.05Z" transform="translate(0)"/><path class="cls-1" d="M204,720.64h-5.24V738.3H192.7V720.64h-3.34v-2.92l3.34-1.63v-1.63q0-3.78,1.86-5.54c1.25-1.16,3.24-1.75,6-1.75a15.63,15.63,0,0,1,5.59.94l-1.55,4.45a11.16,11.16,0,0,0-3.38-.58,2.2,2.2,0,0,0-1.87.77,3.18,3.18,0,0,0-.57,2v1.39H204Zm3.22-10.29q0-3,3.3-3t3.29,3a2.9,2.9,0,0,1-.82,2.2,3.47,3.47,0,0,1-2.47.78Q207.22,713.33,207.22,710.35Zm6.32,27.95h-6.06V716.09h6.06Z" transform="translate(0)"/><path class="cls-1" d="M240.37,738.3h-6.05v-13a6.21,6.21,0,0,0-.86-3.6,3.09,3.09,0,0,0-2.72-1.21,4.11,4.11,0,0,0-3.68,1.7q-1.12,1.69-1.13,5.63V738.3h-6.06V716.09h4.63l.82,2.84h.33a6.47,6.47,0,0,1,2.79-2.43,9.55,9.55,0,0,1,4.05-.82,7.8,7.8,0,0,1,5.88,2.09,8.41,8.41,0,0,1,2,6.05Z" transform="translate(0)"/><path class="cls-1" d="M253.64,738.7a7.2,7.2,0,0,1-6.14-3q-2.24-3-2.24-8.42t2.28-8.51a7.35,7.35,0,0,1,6.26-3.05,7.24,7.24,0,0,1,6.4,3.25h.2a24.24,24.24,0,0,1-.46-4.43v-7.11H266V738.3h-4.65l-1.17-2.88h-.26A6.92,6.92,0,0,1,253.64,738.7Zm2.13-4.83a4.11,4.11,0,0,0,3.41-1.35c.72-.9,1.11-2.43,1.18-4.59v-.65c0-2.39-.37-4.09-1.1-5.13a4.11,4.11,0,0,0-3.59-1.55,3.57,3.57,0,0,0-3.15,1.72,9.17,9.17,0,0,0-1.12,5,8.71,8.71,0,0,0,1.13,4.91A3.7,3.7,0,0,0,255.77,733.87Z" transform="translate(0)"/><path class="cls-1" d="M282.41,738.7q-5.37,0-8.38-3c-2-2-3-4.77-3-8.38s.93-6.6,2.79-8.63a9.91,9.91,0,0,1,7.72-3.05,9.77,9.77,0,0,1,7.33,2.68,10.14,10.14,0,0,1,2.62,7.41v2.94H277.15a5.78,5.78,0,0,0,1.53,4,5.36,5.36,0,0,0,4,1.45,16.49,16.49,0,0,0,3.79-.42,18.55,18.55,0,0,0,3.74-1.33v4.69a13.82,13.82,0,0,1-3.4,1.18A21.21,21.21,0,0,1,282.41,738.7ZM281.56,720a3.81,3.81,0,0,0-3,1.22,5.6,5.6,0,0,0-1.25,3.47h8.5a5.09,5.09,0,0,0-1.17-3.47A4,4,0,0,0,281.56,720Z" transform="translate(0)"/><path class="cls-1" d="M474.91,277H453.29v-4l13.93-20H453.67v-5.09h20.86v4l-13.91,20h14.29Z" transform="translate(0)"/><path class="cls-1" d="M494.79,277l-.81-2.84h-.32a6.4,6.4,0,0,1-2.76,2.39,9.46,9.46,0,0,1-4.07.84c-2.61,0-4.58-.69-5.9-2.09a8.42,8.42,0,0,1-2-6V254.78H485v13a6.29,6.29,0,0,0,.85,3.6,3.1,3.1,0,0,0,2.73,1.21,4.09,4.09,0,0,0,3.67-1.7c.76-1.13,1.13-3,1.13-5.63V254.78h6.06V277Z" transform="translate(0)"/><path class="cls-1" d="M418.13,325.81h-7l-3.93-15.26c-.15-.54-.4-1.66-.75-3.37s-.55-2.84-.6-3.42c-.08.71-.28,1.86-.6,3.44s-.56,2.72-.74,3.39l-3.91,15.22h-7l-7.41-29.05h6.06L396,312.62q1,4.38,1.41,7.61c.08-.76.26-1.93.55-3.51s.55-2.81.8-3.69L403,296.76h5.83L413,313c.18.73.41,1.85.69,3.34s.49,2.78.64,3.86c.13-1,.34-2.32.63-3.87s.56-2.79.8-3.74l3.69-15.86h6.06Z" transform="translate(0)"/><path class="cls-1" d="M442.81,325.81l-1.18-3h-.16a9,9,0,0,1-3.14,2.67,10.14,10.14,0,0,1-4.23.75,6.8,6.8,0,0,1-5-1.83,7,7,0,0,1-1.84-5.21A5.88,5.88,0,0,1,429.7,314q2.48-1.68,7.46-1.86L441,312v-1q0-3.37-3.46-3.38a15.84,15.84,0,0,0-6.26,1.61l-2-4.09a18,18,0,0,1,8.5-2q4.47,0,6.85,1.95T447,311v14.8ZM441,315.52l-2.35.08a7.5,7.5,0,0,0-3.93.95,3,3,0,0,0-1.29,2.66c0,1.71,1,2.57,2.94,2.57a4.66,4.66,0,0,0,3.37-1.22,4.24,4.24,0,0,0,1.26-3.21Z" transform="translate(0)"/><path class="cls-1" d="M462.29,326.21q-10.37,0-10.37-11.39c0-3.77.94-6.66,2.82-8.65s4.58-3,8.09-3a15.49,15.49,0,0,1,6.91,1.51L468,309.38c-1-.38-1.85-.7-2.67-.94a8.39,8.39,0,0,0-2.46-.37q-4.72,0-4.73,6.71,0,6.53,4.73,6.52a10.79,10.79,0,0,0,3.24-.47,11.89,11.89,0,0,0,3-1.46v5.19a9.86,9.86,0,0,1-3,1.29A16.6,16.6,0,0,1,462.29,326.21Z" transform="translate(0)"/><path class="cls-1" d="M494.69,325.81h-6.05v-13c0-3.21-1.2-4.81-3.58-4.81a4.06,4.06,0,0,0-3.68,1.73q-1.12,1.73-1.13,5.6v10.45h-6.06V294.9h6.06v6.29c0,.5,0,1.65-.14,3.46l-.14,1.79h.32a7,7,0,0,1,6.44-3.26,7.84,7.84,0,0,1,5.94,2.11,8.35,8.35,0,0,1,2,6Z" transform="translate(0)"/><path class="cls-1" d="M516.43,319.21a6.1,6.1,0,0,1-2.38,5.21q-2.37,1.79-7.1,1.79a22.19,22.19,0,0,1-4.13-.33,15.28,15.28,0,0,1-3.2-1v-5a21.49,21.49,0,0,0,3.81,1.33,15.29,15.29,0,0,0,3.72.54c2.2,0,3.3-.64,3.3-1.91a1.58,1.58,0,0,0-.44-1.16,6.21,6.21,0,0,0-1.51-1c-.71-.37-1.67-.81-2.86-1.32a17.6,17.6,0,0,1-3.76-2,5.48,5.48,0,0,1-1.75-2.1,6.84,6.84,0,0,1-.55-2.91,5.29,5.29,0,0,1,2.3-4.58,11.15,11.15,0,0,1,6.5-1.62,18.4,18.4,0,0,1,7.81,1.75l-1.83,4.37a31,31,0,0,0-3.12-1.17,9.58,9.58,0,0,0-3-.46c-1.79,0-2.68.48-2.68,1.45a1.72,1.72,0,0,0,.86,1.41,23.26,23.26,0,0,0,3.79,1.77,17.32,17.32,0,0,1,3.81,2,5.79,5.79,0,0,1,1.79,2.1A6.4,6.4,0,0,1,516.43,319.21Z" transform="translate(0)"/><path class="cls-1" d="M531.21,326.21c-3.58,0-6.37-1-8.39-3s-3-4.77-3-8.39.93-6.6,2.8-8.63a9.94,9.94,0,0,1,7.71-3.05,9.8,9.8,0,0,1,7.33,2.68,10.15,10.15,0,0,1,2.63,7.41v2.94H525.94a5.88,5.88,0,0,0,1.53,4,5.42,5.42,0,0,0,4,1.45,16.55,16.55,0,0,0,3.79-.42A19.18,19.18,0,0,0,539,320v4.69a14.4,14.4,0,0,1-3.4,1.18A21.34,21.34,0,0,1,531.21,326.21Zm-.86-18.72a3.87,3.87,0,0,0-3,1.22,5.75,5.75,0,0,0-1.25,3.47h8.5a5,5,0,0,0-1.17-3.47A4,4,0,0,0,530.35,307.49Z" transform="translate(0)"/><path class="cls-1" d="M565.69,325.81h-6.05v-13a6.22,6.22,0,0,0-.86-3.61,3.11,3.11,0,0,0-2.72-1.2,4.08,4.08,0,0,0-3.68,1.7q-1.12,1.69-1.13,5.63v10.45h-6.06V303.6h4.63l.82,2.84H551a6.44,6.44,0,0,1,2.8-2.43,9.47,9.47,0,0,1,4-.83,7.76,7.76,0,0,1,5.88,2.1,8.38,8.38,0,0,1,2,6.05Z" transform="translate(0)"/><path class="cls-1" d="M1168.44,579.54H1180V594.6a32.11,32.11,0,0,1-5.27,1.28,33.77,33.77,0,0,1-5.06.37q-6.57,0-10-3.86t-3.47-11.1q0-7,4-11c2.69-2.63,6.4-3.94,11.16-3.94a21.62,21.62,0,0,1,8.62,1.79l-2.05,4.93a14.59,14.59,0,0,0-6.61-1.59,8.17,8.17,0,0,0-6.4,2.68,10.41,10.41,0,0,0-2.4,7.21q0,4.73,1.93,7.22a6.73,6.73,0,0,0,5.64,2.5,20.27,20.27,0,0,0,3.91-.4v-6.06h-5.5Z" transform="translate(0)"/><path class="cls-1" d="M1192.46,595.85h-6.06V564.94h6.06Z" transform="translate(0)"/><path class="cls-1" d="M1214.55,595.85l-.82-2.84h-.32a6.42,6.42,0,0,1-2.76,2.4,9.46,9.46,0,0,1-4.07.84q-3.91,0-5.9-2.1a8.42,8.42,0,0,1-2-6V573.64h6.06v13a6.21,6.21,0,0,0,.86,3.6,3.1,3.1,0,0,0,2.72,1.2,4.08,4.08,0,0,0,3.67-1.69c.76-1.14,1.14-3,1.14-5.64V573.64h6v22.21Zm-12.44-27.91a2.56,2.56,0,0,1,.75-2,3.24,3.24,0,0,1,4.07,0,2.62,2.62,0,0,1,.74,1.94,2.54,2.54,0,0,1-.75,1.92,2.86,2.86,0,0,1-2.05.72,2.82,2.82,0,0,1-2-.69A2.52,2.52,0,0,1,1202.11,567.94Zm8,0a2.44,2.44,0,0,1,.8-2,3.1,3.1,0,0,1,2-.65,2.86,2.86,0,0,1,2,.72,2.55,2.55,0,0,1,.77,2,2.49,2.49,0,0,1-.78,1.93,2.87,2.87,0,0,1-2,.71,3.09,3.09,0,0,1-2-.64A2.4,2.4,0,0,1,1210.12,567.94Z" transform="translate(0)"/><path class="cls-1" d="M1234.57,596.25q-10.36,0-10.37-11.38,0-5.67,2.82-8.65c1.88-2,4.58-3,8.09-3a15.35,15.35,0,0,1,6.91,1.51l-1.79,4.68c-1-.38-1.84-.69-2.66-.94a8.74,8.74,0,0,0-2.46-.37q-4.72,0-4.73,6.72,0,6.51,4.73,6.51a10.78,10.78,0,0,0,3.23-.46,11.78,11.78,0,0,0,3-1.46v5.18a10.08,10.08,0,0,1-3,1.29A16.73,16.73,0,0,1,1234.57,596.25Z" transform="translate(0)"/><path class="cls-1" d="M1252.29,583.77l2.64-3.37,6.22-6.76H1268l-8.82,9.64,9.35,12.57h-7l-6.4-9-2.6,2.09v6.91h-6.06V564.94h6.06v13.79l-.32,5Z" transform="translate(0)"/><path class="cls-1" d="M1277.76,595.85h-6.06V564.94h6.06Z" transform="translate(0)"/><path class="cls-1" d="M1283.86,567.9q0-3,3.3-3t3.29,3a2.9,2.9,0,0,1-.82,2.2,3.49,3.49,0,0,1-2.47.78Q1283.86,570.88,1283.86,567.9Zm6.31,28h-6.05V573.64h6.05Z" transform="translate(0)"/><path class="cls-1" d="M1305.55,596.25q-10.36,0-10.37-11.38,0-5.67,2.82-8.65c1.88-2,4.58-3,8.09-3a15.35,15.35,0,0,1,6.91,1.51l-1.79,4.68c-1-.38-1.84-.69-2.66-.94a8.74,8.74,0,0,0-2.46-.37q-4.72,0-4.73,6.72,0,6.51,4.73,6.51a10.89,10.89,0,0,0,3.24-.46,11.89,11.89,0,0,0,3-1.46v5.18a10,10,0,0,1-3,1.29A16.73,16.73,0,0,1,1305.55,596.25Z" transform="translate(0)"/><path class="cls-1" d="M1338,595.85h-6.06v-13c0-3.2-1.19-4.81-3.57-4.81a4.08,4.08,0,0,0-3.68,1.73q-1.12,1.73-1.13,5.6v10.45h-6.06V564.94h6.06v6.3c0,.49,0,1.64-.14,3.46l-.14,1.78h.32q2-3.26,6.44-3.25a7.88,7.88,0,0,1,5.94,2.1,8.38,8.38,0,0,1,2,6Z" transform="translate(0)"/><path class="cls-1" d="M1195.73,644.68h-17.54V641.1l10.29-14h-9.67v-4.62h16.57v3.93l-10,13.65h10.37Z" transform="translate(0)"/><path class="cls-1" d="M1215.86,644.68l-.82-2.85h-.32a6.25,6.25,0,0,1-2.76,2.4,9.46,9.46,0,0,1-4.07.84q-3.92,0-5.9-2.09a8.46,8.46,0,0,1-2-6V622.47h6.06v13a6.21,6.21,0,0,0,.86,3.6,3.08,3.08,0,0,0,2.72,1.21,4.09,4.09,0,0,0,3.67-1.7q1.14-1.69,1.14-5.63V622.47h6v22.21Z" transform="translate(0)"/><path class="cls-1" d="M1252.93,638.08a6.14,6.14,0,0,1-2.38,5.21q-2.37,1.79-7.1,1.78a23.09,23.09,0,0,1-4.13-.32,15.28,15.28,0,0,1-3.2-1v-5a21.37,21.37,0,0,0,3.8,1.33,15.8,15.8,0,0,0,3.73.53c2.2,0,3.3-.63,3.3-1.9a1.62,1.62,0,0,0-.44-1.17,6.77,6.77,0,0,0-1.51-1c-.72-.38-1.67-.82-2.86-1.32a18.14,18.14,0,0,1-3.77-2,5.51,5.51,0,0,1-1.74-2.09,6.84,6.84,0,0,1-.55-2.91,5.27,5.27,0,0,1,2.29-4.58,11.18,11.18,0,0,1,6.51-1.62,18.4,18.4,0,0,1,7.81,1.75l-1.83,4.37a31,31,0,0,0-3.12-1.17,9.63,9.63,0,0,0-3-.46c-1.79,0-2.68.48-2.68,1.45a1.72,1.72,0,0,0,.86,1.41,23.26,23.26,0,0,0,3.79,1.77,17.61,17.61,0,0,1,3.81,2,5.74,5.74,0,0,1,1.79,2.11A6.51,6.51,0,0,1,1252.93,638.08Z" transform="translate(0)"/><path class="cls-1" d="M1267.71,645.07c-3.58,0-6.37-1-8.39-3s-3-4.76-3-8.38.93-6.6,2.79-8.63a10,10,0,0,1,7.72-3.05,9.77,9.77,0,0,1,7.33,2.68,10.14,10.14,0,0,1,2.62,7.41v2.94h-14.32a5.85,5.85,0,0,0,1.53,4,5.36,5.36,0,0,0,4,1.45,17.16,17.16,0,0,0,3.8-.41,19.54,19.54,0,0,0,3.73-1.33v4.68a14.34,14.34,0,0,1-3.39,1.19A22.13,22.13,0,0,1,1267.71,645.07Zm-.86-18.71a3.87,3.87,0,0,0-3,1.22,5.68,5.68,0,0,0-1.25,3.47h8.5a5,5,0,0,0-1.17-3.47A4,4,0,0,0,1266.85,626.36Z" transform="translate(0)"/><path class="cls-1" d="M1281.43,616.72q0-3,3.3-3t3.3,3a2.88,2.88,0,0,1-.83,2.2,3.47,3.47,0,0,1-2.47.78Q1281.43,619.7,1281.43,616.72Zm6.32,28h-6.06V622.47h6.06Z" transform="translate(0)"/><path class="cls-1" d="M1314.61,644.68h-6.06v-13a6.29,6.29,0,0,0-.85-3.6,3.12,3.12,0,0,0-2.73-1.2,4.08,4.08,0,0,0-3.67,1.69c-.76,1.14-1.13,3-1.13,5.64v10.45h-6.06V622.47h4.63l.81,2.84h.34a6.32,6.32,0,0,1,2.79-2.44,9.47,9.47,0,0,1,4-.82,7.8,7.8,0,0,1,5.88,2.09,8.42,8.42,0,0,1,2,6.05Z" transform="translate(0)"/><path class="cls-1" d="M1111,1020.14h-16.72v-29H1111v5h-10.57v6.38h9.84v5h-9.84v7.49H1111Z" transform="translate(0)"/><path class="cls-1" d="M1116.36,992.19c0-2,1.1-3,3.3-3s3.29,1,3.29,3a2.87,2.87,0,0,1-.82,2.19,3.44,3.44,0,0,1-2.47.79C1117.46,995.17,1116.36,994.17,1116.36,992.19Zm6.31,27.95h-6.05V997.93h6.05Z" transform="translate(0)"/><path class="cls-1" d="M1149.53,1020.14h-6.06v-13a6.25,6.25,0,0,0-.85-3.61,3.11,3.11,0,0,0-2.72-1.2,4.11,4.11,0,0,0-3.68,1.7q-1.12,1.7-1.13,5.63v10.45H1129V997.93h4.63l.82,2.84h.33a6.47,6.47,0,0,1,2.79-2.43,9.55,9.55,0,0,1,4.05-.83,7.76,7.76,0,0,1,5.88,2.1,8.44,8.44,0,0,1,2,6Z" transform="translate(0)"/><path class="cls-1" d="M1165.82,1020.54c-3.57,0-6.37-1-8.38-3s-3-4.77-3-8.39.93-6.6,2.79-8.63a9.94,9.94,0,0,1,7.72-3,9.81,9.81,0,0,1,7.33,2.68,10.14,10.14,0,0,1,2.62,7.41v2.94h-14.32a5.78,5.78,0,0,0,1.53,4,5.4,5.4,0,0,0,4,1.45,16.64,16.64,0,0,0,3.8-.42,19.11,19.11,0,0,0,3.73-1.33V1019a14.25,14.25,0,0,1-3.4,1.18A21.21,21.21,0,0,1,1165.82,1020.54Zm-.85-18.72a3.85,3.85,0,0,0-3,1.22,5.65,5.65,0,0,0-1.25,3.47h8.5A5.12,5.12,0,0,0,1168,1003,4,4,0,0,0,1165,1001.82Z" transform="translate(0)"/><path class="cls-1" d="M1209.71,997.93V1001l-3.48.89a6.05,6.05,0,0,1,1,3.34,6.74,6.74,0,0,1-2.49,5.57,10.8,10.8,0,0,1-6.92,2l-1.1-.06-.89-.1a2,2,0,0,0-.93,1.59c0,.87,1.11,1.31,3.33,1.31H1202a8.58,8.58,0,0,1,5.57,1.57,5.61,5.61,0,0,1,1.92,4.61,6.83,6.83,0,0,1-3.25,6c-2.17,1.43-5.27,2.14-9.33,2.14-3.1,0-5.46-.54-7.1-1.62a5.13,5.13,0,0,1-2.45-4.54,4.72,4.72,0,0,1,1.25-3.35,7.14,7.14,0,0,1,3.67-1.93,4,4,0,0,1-1.62-1.3,3.05,3.05,0,0,1-.7-1.92,3.1,3.1,0,0,1,.74-2.11,8,8,0,0,1,2.12-1.66,6,6,0,0,1-2.77-2.43,7.37,7.37,0,0,1-1-3.93,6.92,6.92,0,0,1,2.36-5.62q2.37-2,6.75-2a17.7,17.7,0,0,1,2.22.17c.85.11,1.4.2,1.64.25Zm-17.15,25.35a2.21,2.21,0,0,0,1.2,2,6.73,6.73,0,0,0,3.37.71,12.08,12.08,0,0,0,5.11-.89,2.72,2.72,0,0,0,1.84-2.45,1.73,1.73,0,0,0-1.09-1.73,9.13,9.13,0,0,0-3.38-.47h-3.13a4.79,4.79,0,0,0-2.8.78A2.45,2.45,0,0,0,1192.56,1023.28Zm2.21-18.08a4.5,4.5,0,0,0,.82,2.86,3,3,0,0,0,2.51,1.05,3,3,0,0,0,2.51-1.05,4.63,4.63,0,0,0,.79-2.86q0-4-3.3-4T1194.77,1005.2Z" transform="translate(0)"/><path class="cls-1" d="M1229.09,1020.14l-.81-2.84H1228a6.4,6.4,0,0,1-2.76,2.39,9.32,9.32,0,0,1-4.07.85q-3.92,0-5.9-2.1a8.42,8.42,0,0,1-2-6V997.93h6.06v13a6.24,6.24,0,0,0,.86,3.61,3.09,3.09,0,0,0,2.72,1.2,4.09,4.09,0,0,0,3.67-1.7c.76-1.13,1.13-3,1.13-5.63V997.93h6.06v22.21Z" transform="translate(0)"/><path class="cls-1" d="M1249.46,1015.71a12.9,12.9,0,0,0,3.81-.7v4.51a13.5,13.5,0,0,1-5.56,1c-2.42,0-4.19-.62-5.29-1.84s-1.66-3.06-1.66-5.51v-10.71h-2.9v-2.56l3.33-2,1.75-4.69h3.88v4.73H1253v4.55h-6.21v10.71a2.36,2.36,0,0,0,.72,1.9A2.86,2.86,0,0,0,1249.46,1015.71Z" transform="translate(0)"/><path class="cls-1" d="M1267.81,1020.54c-3.57,0-6.37-1-8.38-3s-3-4.77-3-8.39.93-6.6,2.79-8.63a9.94,9.94,0,0,1,7.72-3,9.81,9.81,0,0,1,7.33,2.68,10.14,10.14,0,0,1,2.62,7.41v2.94h-14.32a5.83,5.83,0,0,0,1.53,4,5.4,5.4,0,0,0,4,1.45,16.64,16.64,0,0,0,3.8-.42,19.11,19.11,0,0,0,3.73-1.33V1019a14.25,14.25,0,0,1-3.4,1.18A21.21,21.21,0,0,1,1267.81,1020.54Zm-.85-18.72a3.85,3.85,0,0,0-3,1.22,5.65,5.65,0,0,0-1.25,3.47h8.5A5.12,5.12,0,0,0,1270,1003,4,4,0,0,0,1267,1001.82Z" transform="translate(0)"/><path class="cls-1" d="M1082.42,1052.65h11.52v15.06a32.11,32.11,0,0,1-5.27,1.28,33.77,33.77,0,0,1-5.06.37q-6.57,0-10-3.87t-3.47-11.09q0-7,4-11t11.16-3.93a21.62,21.62,0,0,1,8.62,1.79l-2.05,4.92a14.72,14.72,0,0,0-6.61-1.59,8.18,8.18,0,0,0-6.4,2.69,10.4,10.4,0,0,0-2.4,7.21q0,4.73,1.93,7.22a6.72,6.72,0,0,0,5.64,2.49,20.25,20.25,0,0,0,3.91-.39v-6.06h-5.5Z" transform="translate(0)"/><path class="cls-1" d="M1110.43,1069.36c-3.58,0-6.37-1-8.39-3s-3-4.77-3-8.39.93-6.59,2.79-8.63a9.94,9.94,0,0,1,7.71-3.05,9.76,9.76,0,0,1,7.33,2.69,10.12,10.12,0,0,1,2.63,7.41v2.94h-14.33a5.87,5.87,0,0,0,1.53,4,5.38,5.38,0,0,0,4,1.45,16.55,16.55,0,0,0,3.79-.42,19.18,19.18,0,0,0,3.74-1.33v4.69a14.4,14.4,0,0,1-3.4,1.18A21.34,21.34,0,0,1,1110.43,1069.36Zm-.86-18.72a3.84,3.84,0,0,0-3,1.23,5.72,5.72,0,0,0-1.25,3.46h8.5a5,5,0,0,0-1.17-3.46A3.94,3.94,0,0,0,1109.57,1050.64Z" transform="translate(0)"/><path class="cls-1" d="M1139.91,1062.37a6.1,6.1,0,0,1-2.38,5.2q-2.37,1.79-7.1,1.79a22.19,22.19,0,0,1-4.13-.33,15.89,15.89,0,0,1-3.2-1v-5a21.49,21.49,0,0,0,3.81,1.33,15.29,15.29,0,0,0,3.72.54c2.2,0,3.3-.64,3.3-1.91a1.59,1.59,0,0,0-.44-1.16,6,6,0,0,0-1.51-1c-.71-.38-1.67-.82-2.86-1.33a17.6,17.6,0,0,1-3.76-2,5.48,5.48,0,0,1-1.75-2.1,6.84,6.84,0,0,1-.55-2.91,5.29,5.29,0,0,1,2.3-4.58,11.15,11.15,0,0,1,6.5-1.62,18.55,18.55,0,0,1,7.81,1.75l-1.83,4.37c-1.11-.47-2.15-.87-3.12-1.17a9.89,9.89,0,0,0-3-.46c-1.78,0-2.68.49-2.68,1.45a1.68,1.68,0,0,0,.87,1.41,22.59,22.59,0,0,0,3.78,1.77,17.32,17.32,0,0,1,3.81,2,5.79,5.79,0,0,1,1.79,2.1A6.44,6.44,0,0,1,1139.91,1062.37Z" transform="translate(0)"/><path class="cls-1" d="M1160.37,1069l-.81-2.84h-.32a6.4,6.4,0,0,1-2.76,2.39,9.36,9.36,0,0,1-4.08.85c-2.61,0-4.57-.7-5.9-2.1a8.43,8.43,0,0,1-2-6v-14.48h6.06v13a6.23,6.23,0,0,0,.85,3.61,3.11,3.11,0,0,0,2.72,1.2,4.11,4.11,0,0,0,3.68-1.7q1.13-1.69,1.13-5.63v-10.45H1165V1069Z" transform="translate(0)"/><path class="cls-1" d="M1191.88,1069h-6.06v-13a6.24,6.24,0,0,0-.86-3.61,3.1,3.1,0,0,0-2.72-1.2,4.09,4.09,0,0,0-3.67,1.7q-1.14,1.69-1.14,5.63V1069h-6v-22.21H1176l.82,2.84h.34a6.36,6.36,0,0,1,2.79-2.43,9.47,9.47,0,0,1,4-.83,7.76,7.76,0,0,1,5.88,2.1,8.4,8.4,0,0,1,2,6Z" transform="translate(0)"/><path class="cls-1" d="M1205.15,1069.36a7.23,7.23,0,0,1-6.15-3c-1.49-2-2.24-4.83-2.24-8.42s.76-6.48,2.28-8.52a7.38,7.38,0,0,1,6.27-3.05,7.24,7.24,0,0,1,6.39,3.26h.2a25.07,25.07,0,0,1-.45-4.43v-7.11h6.07V1069h-4.64l-1.18-2.88h-.25A6.93,6.93,0,0,1,1205.15,1069.36Zm2.12-4.83a4.11,4.11,0,0,0,3.41-1.35,7.83,7.83,0,0,0,1.18-4.59v-.65c0-2.39-.36-4.1-1.1-5.13a4.11,4.11,0,0,0-3.59-1.55A3.53,3.53,0,0,0,1204,1053a9.14,9.14,0,0,0-1.13,5,8.62,8.62,0,0,0,1.14,4.91A3.69,3.69,0,0,0,1207.27,1064.53Z" transform="translate(0)"/><path class="cls-1" d="M1244.36,1069h-6.06v-13q0-4.82-3.57-4.81a4.08,4.08,0,0,0-3.68,1.73q-1.12,1.72-1.13,5.6V1069h-6.06v-30.91h6.06v6.3c0,.49-.05,1.64-.14,3.45l-.14,1.79h.32a7,7,0,0,1,6.44-3.26,7.88,7.88,0,0,1,5.94,2.11,8.37,8.37,0,0,1,2,6Z" transform="translate(0)"/><path class="cls-1" d="M1260.65,1069.36c-3.57,0-6.37-1-8.38-3s-3-4.77-3-8.39.93-6.59,2.79-8.63a9.94,9.94,0,0,1,7.72-3.05,9.78,9.78,0,0,1,7.33,2.69,10.11,10.11,0,0,1,2.62,7.41v2.94h-14.32a5.78,5.78,0,0,0,1.53,4,5.36,5.36,0,0,0,4,1.45,16.49,16.49,0,0,0,3.79-.42,19,19,0,0,0,3.74-1.33v4.69a14.25,14.25,0,0,1-3.4,1.18A21.21,21.21,0,0,1,1260.65,1069.36Zm-.85-18.72a3.83,3.83,0,0,0-3,1.23,5.59,5.59,0,0,0-1.25,3.46h8.5a5.08,5.08,0,0,0-1.17-3.46A4,4,0,0,0,1259.8,1050.64Z" transform="translate(0)"/><path class="cls-1" d="M1274.38,1041q0-3,3.3-3c2.2,0,3.29,1,3.29,3a2.9,2.9,0,0,1-.82,2.2,3.47,3.47,0,0,1-2.47.78Q1274.38,1044,1274.38,1041Zm6.32,28h-6.06v-22.21h6.06Z" transform="translate(0)"/><path class="cls-1" d="M1296.41,1064.53a13.18,13.18,0,0,0,3.81-.69v4.5a13.5,13.5,0,0,1-5.56,1c-2.42,0-4.19-.61-5.29-1.84s-1.66-3.06-1.66-5.51V1051.3h-2.9v-2.56l3.34-2,1.74-4.69h3.88v4.73H1300v4.55h-6.22V1062a2.39,2.39,0,0,0,.72,1.91A2.89,2.89,0,0,0,1296.41,1064.53Z" transform="translate(0)"/><path class="cls-1" d="M643.06,1234.88a7.51,7.51,0,0,1-2.83,6.2c-1.89,1.51-4.51,2.26-7.88,2.26a18.4,18.4,0,0,1-8.22-1.75v-5.72a33.46,33.46,0,0,0,5,1.85,14.59,14.59,0,0,0,3.72.54,5.27,5.27,0,0,0,3.11-.78,2.65,2.65,0,0,0,1.08-2.3,2.58,2.58,0,0,0-.47-1.52,5.34,5.34,0,0,0-1.4-1.28,37,37,0,0,0-3.77-2,17.88,17.88,0,0,1-4-2.41,8.89,8.89,0,0,1-2.13-2.68,7.64,7.64,0,0,1-.79-3.57,7.51,7.51,0,0,1,2.61-6.06,10.86,10.86,0,0,1,7.22-2.21,16.93,16.93,0,0,1,4.32.54,29.61,29.61,0,0,1,4.3,1.51l-2,4.79a28.4,28.4,0,0,0-3.85-1.33,12,12,0,0,0-3-.38,4,4,0,0,0-2.68.81,2.7,2.7,0,0,0-.93,2.13,2.64,2.64,0,0,0,.37,1.42,4.38,4.38,0,0,0,1.21,1.17,36.55,36.55,0,0,0,3.9,2,15.59,15.59,0,0,1,5.58,3.9A7.62,7.62,0,0,1,643.06,1234.88Z" transform="translate(0)"/><path class="cls-1" d="M656.87,1243.34q-10.36,0-10.37-11.38,0-5.67,2.82-8.65c1.88-2,4.58-3,8.08-3a15.4,15.4,0,0,1,6.92,1.51l-1.79,4.69c-.95-.39-1.84-.7-2.66-1a8.75,8.75,0,0,0-2.47-.37q-4.73,0-4.72,6.72,0,6.51,4.72,6.51a10.8,10.8,0,0,0,3.24-.46,11.56,11.56,0,0,0,3-1.46v5.18a9.38,9.38,0,0,1-3,1.29A16.57,16.57,0,0,1,656.87,1243.34Z" transform="translate(0)"/><path class="cls-1" d="M689.27,1242.94h-6.06v-13c0-3.2-1.19-4.81-3.58-4.81a4.06,4.06,0,0,0-3.67,1.73c-.76,1.15-1.13,3-1.13,5.61v10.44h-6.06V1212h6.06v6.3c0,.49-.05,1.64-.14,3.46l-.14,1.79h.32a7,7,0,0,1,6.43-3.26,7.88,7.88,0,0,1,5.94,2.1,8.39,8.39,0,0,1,2,6Z" transform="translate(0)"/><path class="cls-1" d="M715.69,1231.8c0,3.62-1,6.44-2.86,8.48a10.37,10.37,0,0,1-8,3.06,11.08,11.08,0,0,1-5.64-1.4,9.24,9.24,0,0,1-3.75-4,13.45,13.45,0,0,1-1.31-6.12c0-3.63.94-6.45,2.84-8.46s4.55-3,8-3a11.13,11.13,0,0,1,5.64,1.39,9.24,9.24,0,0,1,3.76,4A13.47,13.47,0,0,1,715.69,1231.8ZM698.11,1215a2.59,2.59,0,0,1,.74-2,3.25,3.25,0,0,1,4.08,0,2.63,2.63,0,0,1,.74,1.94,2.54,2.54,0,0,1-.75,1.92,3.29,3.29,0,0,1-4.07,0A2.55,2.55,0,0,1,698.11,1215Zm2.22,16.77a9.35,9.35,0,0,0,1.09,5,3.86,3.86,0,0,0,3.52,1.68,3.81,3.81,0,0,0,3.49-1.67,9.47,9.47,0,0,0,1.06-5,9.14,9.14,0,0,0-1.07-5,4.56,4.56,0,0,0-7,0A9.15,9.15,0,0,0,700.33,1231.8Zm5.79-16.77a2.44,2.44,0,0,1,.8-2,3.1,3.1,0,0,1,2-.65,2.86,2.86,0,0,1,2.05.72,2.55,2.55,0,0,1,.77,2A2.49,2.49,0,0,1,711,1217a2.87,2.87,0,0,1-2,.71,3.09,3.09,0,0,1-2-.64A2.4,2.4,0,0,1,706.12,1215Z" transform="translate(0)"/><path class="cls-1" d="M741.2,1242.94h-6.06v-13a6.29,6.29,0,0,0-.85-3.6,3.13,3.13,0,0,0-2.73-1.21,4.09,4.09,0,0,0-3.67,1.7c-.76,1.14-1.13,3-1.13,5.64v10.44H720.7v-22.21h4.63l.81,2.85h.34a6.32,6.32,0,0,1,2.79-2.44,9.47,9.47,0,0,1,4-.82,7.8,7.8,0,0,1,5.88,2.09,8.42,8.42,0,0,1,2,6Z" transform="translate(0)"/><path class="cls-1" d="M767.94,1242.94h-6.06v-13c0-3.2-1.19-4.81-3.58-4.81a4.06,4.06,0,0,0-3.67,1.73c-.76,1.15-1.13,3-1.13,5.61v10.44h-6.06V1212h6.06v6.3c0,.49,0,1.64-.14,3.46l-.14,1.79h.32a7,7,0,0,1,6.43-3.26,7.88,7.88,0,0,1,5.94,2.1,8.39,8.39,0,0,1,2,6Z" transform="translate(0)"/><path class="cls-1" d="M784.23,1243.34c-3.58,0-6.37-1-8.39-3s-3-4.77-3-8.38.92-6.6,2.79-8.63a9.9,9.9,0,0,1,7.71-3,9.76,9.76,0,0,1,7.33,2.68,10.15,10.15,0,0,1,2.63,7.41v2.94H779a5.85,5.85,0,0,0,1.53,4,5.38,5.38,0,0,0,4,1.45,17.13,17.13,0,0,0,3.79-.41,19.25,19.25,0,0,0,3.74-1.34v4.69a14,14,0,0,1-3.4,1.18A21.34,21.34,0,0,1,784.23,1243.34Zm-.86-18.71a3.87,3.87,0,0,0-3,1.22,5.66,5.66,0,0,0-1.25,3.47h8.5a5,5,0,0,0-1.17-3.47A4,4,0,0,0,783.37,1224.63Z" transform="translate(0)"/><path class="cls-1" d="M798,1215q0-3,3.3-3t3.3,3a2.93,2.93,0,0,1-.82,2.2,3.5,3.5,0,0,1-2.48.78Q797.95,1218,798,1215Zm6.32,28h-6.06v-22.21h6.06Z" transform="translate(0)"/><path class="cls-1" d="M820,1238.51a13.24,13.24,0,0,0,3.81-.69v4.51a13.68,13.68,0,0,1-5.56,1c-2.43,0-4.19-.61-5.3-1.84a8,8,0,0,1-1.66-5.51v-10.71h-2.9v-2.56l3.34-2,1.75-4.68h3.87v4.72h6.22v4.55h-6.22V1236a2.35,2.35,0,0,0,.73,1.91A2.85,2.85,0,0,0,820,1238.51Z" transform="translate(0)"/><path class="cls-1" d="M854.31,1242.94H836.77v-3.57l10.29-14h-9.67v-4.63H854v3.94l-10,13.65h10.37Z" transform="translate(0)"/><path class="cls-1" d="M874.44,1242.94l-.82-2.84h-.31a6.39,6.39,0,0,1-2.77,2.4,9.46,9.46,0,0,1-4.07.84,7.79,7.79,0,0,1-5.9-2.09,8.46,8.46,0,0,1-2-6v-14.49h6.06v13a6.21,6.21,0,0,0,.86,3.6,3.1,3.1,0,0,0,2.72,1.2,4.07,4.07,0,0,0,3.67-1.69c.76-1.14,1.14-3,1.14-5.64v-10.45h6.06v22.21Z" transform="translate(0)"/><path class="cls-1" d="M687.75,1292.16c-3.58,0-6.37-1-8.38-3s-3-4.76-3-8.38.93-6.6,2.79-8.63a9.94,9.94,0,0,1,7.72-3,9.79,9.79,0,0,1,7.33,2.68,10.19,10.19,0,0,1,2.62,7.41v2.94H682.49a5.8,5.8,0,0,0,1.52,4,5.4,5.4,0,0,0,4,1.45,17.07,17.07,0,0,0,3.79-.41,19.86,19.86,0,0,0,3.74-1.33v4.68a14.42,14.42,0,0,1-3.4,1.19A22.13,22.13,0,0,1,687.75,1292.16Zm-.85-18.71a3.84,3.84,0,0,0-3,1.22,5.69,5.69,0,0,0-1.26,3.47h8.51a5.06,5.06,0,0,0-1.18-3.47A4,4,0,0,0,686.9,1273.45Z" transform="translate(0)"/><path class="cls-1" d="M714.13,1269.14a9.8,9.8,0,0,1,2,.18l-.46,5.68a7.07,7.07,0,0,0-1.79-.2,6.45,6.45,0,0,0-4.52,1.49,5.37,5.37,0,0,0-1.62,4.17v11.31h-6v-22.21h4.58l.9,3.73h.3a8.32,8.32,0,0,1,2.79-3A6.87,6.87,0,0,1,714.13,1269.14Z" transform="translate(0)"/><path class="cls-1" d="M726.27,1291.77h-6.06v-30.92h6.06Z" transform="translate(0)"/><path class="cls-1" d="M742.68,1292.16c-3.58,0-6.37-1-8.39-3s-3-4.76-3-8.38.93-6.6,2.79-8.63a9.94,9.94,0,0,1,7.71-3,9.76,9.76,0,0,1,7.33,2.68,10.15,10.15,0,0,1,2.63,7.41v2.94H737.41a5.85,5.85,0,0,0,1.53,4,5.38,5.38,0,0,0,4,1.45,17.13,17.13,0,0,0,3.79-.41,19.86,19.86,0,0,0,3.74-1.33v4.68a14.42,14.42,0,0,1-3.4,1.19A22.13,22.13,0,0,1,742.68,1292.16Zm-.86-18.71a3.87,3.87,0,0,0-3,1.22,5.75,5.75,0,0,0-1.25,3.47h8.51a5.06,5.06,0,0,0-1.18-3.47A4,4,0,0,0,741.82,1273.45Z" transform="translate(0)"/><path class="cls-1" d="M769,1269.14a7.18,7.18,0,0,1,6.16,3.07c1.48,2,2.22,4.85,2.22,8.41s-.76,6.51-2.29,8.52a8,8,0,0,1-12.39.18h-.41l-1,2.45h-4.63v-30.92h6.06v7.2c0,.91-.08,2.37-.24,4.39h.24A7,7,0,0,1,769,1269.14Zm-1.95,4.85a3.81,3.81,0,0,0-3.27,1.38,7.94,7.94,0,0,0-1.08,4.56v.65q0,3.57,1.07,5.13a3.78,3.78,0,0,0,3.36,1.55,3.38,3.38,0,0,0,3-1.72,9.26,9.26,0,0,0,1.11-5,8.86,8.86,0,0,0-1.12-4.92A3.48,3.48,0,0,0,767.07,1274Z" transform="translate(0)"/><path class="cls-1" d="M792.46,1292.16c-3.57,0-6.37-1-8.38-3s-3-4.76-3-8.38.93-6.6,2.79-8.63a9.94,9.94,0,0,1,7.72-3,9.77,9.77,0,0,1,7.33,2.68,10.14,10.14,0,0,1,2.62,7.41v2.94H787.2a5.76,5.76,0,0,0,1.53,4,5.36,5.36,0,0,0,4,1.45,17.07,17.07,0,0,0,3.79-.41,19.62,19.62,0,0,0,3.74-1.33v4.68a14.27,14.27,0,0,1-3.4,1.19A22,22,0,0,1,792.46,1292.16Zm-.85-18.71a3.85,3.85,0,0,0-3,1.22,5.62,5.62,0,0,0-1.25,3.47h8.5a5.1,5.1,0,0,0-1.17-3.47A4,4,0,0,0,791.61,1273.45Z" transform="translate(0)"/><path class="cls-1" d="M827,1291.77h-6.06v-13a6.29,6.29,0,0,0-.85-3.6,3.12,3.12,0,0,0-2.73-1.2,4.08,4.08,0,0,0-3.67,1.69c-.76,1.14-1.13,3-1.13,5.64v10.45h-6.06v-22.21h4.63l.81,2.84h.34A6.32,6.32,0,0,1,815,1270a9.47,9.47,0,0,1,4-.82,7.8,7.8,0,0,1,5.88,2.09,8.42,8.42,0,0,1,2,6Z" transform="translate(0)"/><path class="cls-1" d="M893.21,316.64a7.49,7.49,0,0,1-2.83,6.19c-1.89,1.51-4.51,2.27-7.88,2.27a18.4,18.4,0,0,1-8.22-1.75v-5.72a35,35,0,0,0,5,1.85A15.07,15.07,0,0,0,883,320a5.35,5.35,0,0,0,3.11-.77,2.67,2.67,0,0,0,1.08-2.31,2.55,2.55,0,0,0-.48-1.52,5.19,5.19,0,0,0-1.4-1.28,36,36,0,0,0-3.76-2,17.64,17.64,0,0,1-4-2.41,9,9,0,0,1-2.13-2.68,7.65,7.65,0,0,1-.79-3.58,7.5,7.5,0,0,1,2.61-6.05,10.86,10.86,0,0,1,7.22-2.21,16.93,16.93,0,0,1,4.32.54,28.86,28.86,0,0,1,4.3,1.51l-2,4.78a29.81,29.81,0,0,0-3.84-1.33,12.42,12.42,0,0,0-3-.37,4,4,0,0,0-2.68.81,2.7,2.7,0,0,0-.94,2.13,2.67,2.67,0,0,0,.38,1.42,4.19,4.19,0,0,0,1.2,1.17,36.66,36.66,0,0,0,3.91,2,15.56,15.56,0,0,1,5.58,3.91A7.58,7.58,0,0,1,893.21,316.64Z" transform="translate(0)"/><path class="cls-1" d="M910.19,325.1a7.35,7.35,0,0,1-6.13-2.84h-.32c.21,1.85.32,2.92.32,3.22v9H898v-32h4.92l.86,2.88h.28a7,7,0,0,1,6.29-3.3,7.21,7.21,0,0,1,6.16,3c1.49,2,2.23,4.84,2.23,8.45a16.5,16.5,0,0,1-1,6.17,8.64,8.64,0,0,1-3,4A7.62,7.62,0,0,1,910.19,325.1Zm-1.78-18.18a3.83,3.83,0,0,0-3.28,1.38,7.87,7.87,0,0,0-1.07,4.56v.66q0,3.57,1.06,5.12a3.78,3.78,0,0,0,3.37,1.55q4.07,0,4.07-6.71a9.68,9.68,0,0,0-1-4.92A3.43,3.43,0,0,0,908.41,306.92Z" transform="translate(0)"/><path class="cls-1" d="M937.85,324.7l-1.17-3h-.16a8.82,8.82,0,0,1-3.15,2.67,10.13,10.13,0,0,1-4.22.75,6.81,6.81,0,0,1-5-1.83,7,7,0,0,1-1.84-5.2,5.87,5.87,0,0,1,2.48-5.22c1.65-1.12,4.13-1.74,7.46-1.86l3.85-.12v-1q0-3.37-3.46-3.38a15.76,15.76,0,0,0-6.25,1.61l-2-4.09a18,18,0,0,1,8.5-2q4.47,0,6.86,2c1.58,1.3,2.38,3.27,2.38,5.92v14.8Zm-1.79-10.29-2.34.08a7.51,7.51,0,0,0-3.94.95,3,3,0,0,0-1.29,2.67c0,1.7,1,2.56,2.94,2.56a4.7,4.7,0,0,0,3.37-1.21,4.26,4.26,0,0,0,1.26-3.22Z" transform="translate(0)"/><path class="cls-1" d="M970,300.05a5.51,5.51,0,0,1-.42,2.23,6.6,6.6,0,0,1-1,1.72,9,9,0,0,1-1.37,1.33c-.49.39-1,.74-1.37,1.05a9.44,9.44,0,0,0-1,.9,1.21,1.21,0,0,0-.42.85,1.48,1.48,0,0,0,.53,1.06,11.06,11.06,0,0,0,1.83,1.31,28.27,28.27,0,0,1,4,2.78,6.47,6.47,0,0,1,1.55,2.18,7.28,7.28,0,0,1,.5,2.77,6,6,0,0,1-2.31,5.14c-1.54,1.15-3.82,1.73-6.82,1.73a17.52,17.52,0,0,1-3.4-.29,8.63,8.63,0,0,1-2.62-1V319a9.64,9.64,0,0,0,2.69,1.21,10.21,10.21,0,0,0,2.91.5c2.22,0,3.34-.82,3.34-2.45a2.48,2.48,0,0,0-.32-1.32,4.63,4.63,0,0,0-1.14-1.1,24.2,24.2,0,0,0-2.28-1.43,12.81,12.81,0,0,1-3.48-2.61,4.25,4.25,0,0,1-1-2.79,4.09,4.09,0,0,1,.7-2.33,7.73,7.73,0,0,1,2.08-2,10.61,10.61,0,0,0,2.15-1.89,2.74,2.74,0,0,0,.61-1.71,2.35,2.35,0,0,0-1.26-2,6,6,0,0,0-3.25-.8,5.6,5.6,0,0,0-3.59,1,3.59,3.59,0,0,0-1.29,3V324.7h-6.06V302.07a7.45,7.45,0,0,1,2.91-6.24q2.91-2.26,8-2.26a15,15,0,0,1,7.77,1.76A5.31,5.31,0,0,1,970,300.05Z" transform="translate(0)"/><path class="cls-1" d="M1003.27,324.7H985.72v-3.57l10.29-14h-9.67v-4.63h16.57v3.93l-10,13.65h10.37Z" transform="translate(0)"/><path class="cls-1" d="M1023.39,324.7l-.81-2.84h-.32a6.4,6.4,0,0,1-2.76,2.39,9.36,9.36,0,0,1-4.08.85c-2.61,0-4.57-.7-5.9-2.1a8.43,8.43,0,0,1-2-6V302.49h6.06v13a6.23,6.23,0,0,0,.85,3.61,3.11,3.11,0,0,0,2.72,1.2,4.08,4.08,0,0,0,3.68-1.7q1.13-1.69,1.13-5.63V302.49H1028V324.7Z" transform="translate(0)"/><path class="cls-1" d="M911.58,373.52h-6.06v-13c0-3.2-1.2-4.81-3.58-4.81a4.06,4.06,0,0,0-3.67,1.73q-1.14,1.72-1.14,5.6v10.45h-6.06V342.61h6.06v6.3c0,.49,0,1.64-.14,3.46l-.14,1.78h.32q2-3.25,6.44-3.25a7.88,7.88,0,0,1,5.94,2.1,8.39,8.39,0,0,1,2,6Z" transform="translate(0)"/><path class="cls-1" d="M931.92,373.52l-1.17-3h-.16a9,9,0,0,1-3.15,2.68,10.3,10.3,0,0,1-4.22.74,6.83,6.83,0,0,1-5-1.83,7,7,0,0,1-1.84-5.2,5.87,5.87,0,0,1,2.48-5.22c1.65-1.12,4.13-1.73,7.46-1.85l3.85-.12v-1q0-3.37-3.46-3.37a15.59,15.59,0,0,0-6.25,1.61l-2-4.1a18.12,18.12,0,0,1,8.5-2q4.47,0,6.86,1.94c1.58,1.3,2.38,3.27,2.38,5.92v14.8Zm-1.79-10.29-2.34.08a7.5,7.5,0,0,0-3.94,1,3,3,0,0,0-1.29,2.66c0,1.71,1,2.56,2.94,2.56a4.64,4.64,0,0,0,3.37-1.21,4.26,4.26,0,0,0,1.26-3.22Z" transform="translate(0)"/><path class="cls-1" d="M954.74,350.9A7.17,7.17,0,0,1,960.9,354c1.49,2,2.23,4.85,2.23,8.41s-.77,6.51-2.3,8.52a8,8,0,0,1-12.38.18H948l-1,2.44h-4.63V342.61h6.06v7.19c0,.92-.08,2.38-.24,4.39h.24A7,7,0,0,1,954.74,350.9Zm-1.94,4.84a3.83,3.83,0,0,0-3.28,1.38,7.87,7.87,0,0,0-1.07,4.56v.66q0,3.57,1.06,5.12a3.78,3.78,0,0,0,3.37,1.55,3.39,3.39,0,0,0,3-1.71,9.39,9.39,0,0,0,1.1-5,8.85,8.85,0,0,0-1.11-4.92A3.51,3.51,0,0,0,952.8,355.74Z" transform="translate(0)"/><path class="cls-1" d="M978.19,373.92c-3.58,0-6.37-1-8.39-3s-3-4.77-3-8.38.93-6.6,2.79-8.63a9.92,9.92,0,0,1,7.72-3.05,9.77,9.77,0,0,1,7.33,2.68,10.14,10.14,0,0,1,2.62,7.41v2.94H972.92a5.87,5.87,0,0,0,1.53,4,5.36,5.36,0,0,0,4,1.45,16.57,16.57,0,0,0,3.8-.42,18.26,18.26,0,0,0,3.73-1.33v4.69a14.32,14.32,0,0,1-3.39,1.18A21.34,21.34,0,0,1,978.19,373.92Zm-.86-18.71a3.83,3.83,0,0,0-3,1.22,5.66,5.66,0,0,0-1.25,3.47h8.5a5,5,0,0,0-1.17-3.47A3.93,3.93,0,0,0,977.33,355.21Z" transform="translate(0)"/><path class="cls-1" d="M1012.67,373.52h-6.06v-13a6.21,6.21,0,0,0-.85-3.6,3.09,3.09,0,0,0-2.72-1.21,4.11,4.11,0,0,0-3.68,1.7q-1.12,1.69-1.13,5.63v10.45h-6.06V351.31h4.63l.81,2.84H998a6.47,6.47,0,0,1,2.79-2.43,9.55,9.55,0,0,1,4-.82,7.8,7.8,0,0,1,5.88,2.09,8.46,8.46,0,0,1,2,6.05Z" transform="translate(0)"/><path class="cls-1" d="M302.45,1042.12l-7-22.79h-.18q.38,7,.37,9.28v13.51h-5.5v-29h8.38l6.88,22.21h.12l7.29-22.21h8.38v29h-5.74v-13.75c0-.64,0-1.39,0-2.24s.11-3.1.27-6.75h-.18l-7.49,22.74Z" transform="translate(0)"/><path class="cls-1" d="M338.09,1042.52c-3.58,0-6.37-1-8.39-3s-3-4.77-3-8.39.93-6.59,2.8-8.63a9.94,9.94,0,0,1,7.71-3,9.76,9.76,0,0,1,7.33,2.69,10.12,10.12,0,0,1,2.63,7.41v2.94H332.82a5.87,5.87,0,0,0,1.53,4,5.38,5.38,0,0,0,4,1.45,16.55,16.55,0,0,0,3.79-.42,18.88,18.88,0,0,0,3.73-1.33V1041a14.32,14.32,0,0,1-3.39,1.18A21.34,21.34,0,0,1,338.09,1042.52Zm-.86-18.72a3.84,3.84,0,0,0-3,1.23,5.65,5.65,0,0,0-1.25,3.46h8.5a5,5,0,0,0-1.17-3.46A3.94,3.94,0,0,0,337.23,1023.8Z" transform="translate(0)"/><path class="cls-1" d="M351.81,1014.17q0-3,3.3-3t3.3,3a2.94,2.94,0,0,1-.82,2.2,3.5,3.5,0,0,1-2.48.78Q351.81,1017.15,351.81,1014.17Zm6.32,27.95h-6.06v-22.21h6.06Z" transform="translate(0)"/><path class="cls-1" d="M385,1042.12h-6.06v-13a6.25,6.25,0,0,0-.85-3.61,3.12,3.12,0,0,0-2.73-1.2,4.1,4.1,0,0,0-3.67,1.7q-1.12,1.7-1.13,5.63v10.45h-6.06v-22.21h4.63l.81,2.84h.34a6.41,6.41,0,0,1,2.79-2.43,9.5,9.5,0,0,1,4-.83,7.73,7.73,0,0,1,5.88,2.1,8.4,8.4,0,0,1,2,6.05Z" transform="translate(0)"/><path class="cls-1" d="M401.28,1042.52q-5.37,0-8.38-3c-2-2-3-4.77-3-8.39s.93-6.59,2.79-8.63a9.94,9.94,0,0,1,7.72-3,9.79,9.79,0,0,1,7.33,2.69,10.15,10.15,0,0,1,2.62,7.41v2.94H396a5.82,5.82,0,0,0,1.52,4,5.4,5.4,0,0,0,4,1.45,16.49,16.49,0,0,0,3.79-.42,19.18,19.18,0,0,0,3.74-1.33V1041a14.25,14.25,0,0,1-3.4,1.18A21.34,21.34,0,0,1,401.28,1042.52Zm-.85-18.72a3.81,3.81,0,0,0-3,1.23,5.66,5.66,0,0,0-1.26,3.46h8.51a5,5,0,0,0-1.18-3.46A3.93,3.93,0,0,0,400.43,1023.8Z" transform="translate(0)"/><path class="cls-1" d="M222.12,1061.9h9c4.12,0,7.11.58,9,1.76a6.11,6.11,0,0,1,2.79,5.59,7.08,7.08,0,0,1-1.22,4.27,4.93,4.93,0,0,1-3.25,2v.2a6.36,6.36,0,0,1,4,2.3,8.37,8.37,0,0,1-1.65,10.69,12.41,12.41,0,0,1-7.79,2.22H222.12Zm6.16,11.5h3.57a6.62,6.62,0,0,0,3.63-.77,2.89,2.89,0,0,0,1.12-2.57,2.55,2.55,0,0,0-1.22-2.39,7.86,7.86,0,0,0-3.86-.73h-3.24Zm0,4.89v7.57h4a6,6,0,0,0,3.76-1,3.61,3.61,0,0,0,1.21-3q0-3.62-5.17-3.61Z" transform="translate(0)"/><path class="cls-1" d="M259,1091.34c-3.57,0-6.37-1-8.38-3s-3-4.77-3-8.38.93-6.6,2.79-8.64a9.94,9.94,0,0,1,7.72-3,9.77,9.77,0,0,1,7.33,2.68,10.13,10.13,0,0,1,2.62,7.41v2.94H253.77a5.78,5.78,0,0,0,1.53,4,5.36,5.36,0,0,0,4,1.45,16.49,16.49,0,0,0,3.79-.42,19,19,0,0,0,3.74-1.33v4.69a14.25,14.25,0,0,1-3.4,1.18A21.21,21.21,0,0,1,259,1091.34Zm-.85-18.71a3.82,3.82,0,0,0-3,1.22,5.59,5.59,0,0,0-1.25,3.46h8.5a5.08,5.08,0,0,0-1.17-3.46A4,4,0,0,0,258.18,1072.63Z" transform="translate(0)"/><path class="cls-1" d="M288.47,1090.94H270.93v-3.57l10.29-14h-9.67v-4.63h16.56v3.94l-10,13.64h10.37Z" transform="translate(0)"/><path class="cls-1" d="M292.6,1063q0-3,3.3-3t3.3,3a2.94,2.94,0,0,1-.82,2.2,3.5,3.5,0,0,1-2.48.78Q292.6,1066,292.6,1063Zm6.32,28h-6.06v-22.21h6.06Z" transform="translate(0)"/><path class="cls-1" d="M315.33,1091.34q-5.37,0-8.38-3c-2-2-3-4.77-3-8.38s.93-6.6,2.79-8.64a9.94,9.94,0,0,1,7.72-3,9.77,9.77,0,0,1,7.33,2.68,10.13,10.13,0,0,1,2.62,7.41v2.94H310.07a5.78,5.78,0,0,0,1.53,4,5.36,5.36,0,0,0,4,1.45,16.49,16.49,0,0,0,3.79-.42,19,19,0,0,0,3.74-1.33v4.69a14.25,14.25,0,0,1-3.4,1.18A21.21,21.21,0,0,1,315.33,1091.34Zm-.85-18.71a3.82,3.82,0,0,0-3,1.22,5.59,5.59,0,0,0-1.25,3.46h8.5a5.08,5.08,0,0,0-1.17-3.46A4,4,0,0,0,314.48,1072.63Z" transform="translate(0)"/><path class="cls-1" d="M349.82,1090.94h-6.06v-13q0-4.82-3.58-4.81a4.06,4.06,0,0,0-3.67,1.73c-.76,1.15-1.13,3-1.13,5.6v10.45h-6.06V1060h6.06v6.3c0,.49-.05,1.64-.14,3.46l-.14,1.78h.32a7,7,0,0,1,6.43-3.25,7.88,7.88,0,0,1,5.94,2.1,8.39,8.39,0,0,1,2,6Z" transform="translate(0)"/><path class="cls-1" d="M371.79,1090.94l-.82-2.84h-.31a6.49,6.49,0,0,1-2.76,2.4,9.51,9.51,0,0,1-4.08.84c-2.61,0-4.57-.7-5.9-2.1a8.43,8.43,0,0,1-2-6v-14.48H362v13a6.21,6.21,0,0,0,.85,3.6,3.11,3.11,0,0,0,2.72,1.2,4.08,4.08,0,0,0,3.68-1.7q1.13-1.69,1.13-5.63v-10.45h6.06v22.21Z" transform="translate(0)"/><path class="cls-1" d="M403.3,1090.94h-6.06v-13a6.26,6.26,0,0,0-.86-3.61,3.1,3.1,0,0,0-2.72-1.2,4.09,4.09,0,0,0-3.67,1.7q-1.14,1.7-1.14,5.63v10.45h-6.06v-22.21h4.63l.82,2.84h.34a6.36,6.36,0,0,1,2.79-2.43,9.47,9.47,0,0,1,4-.82,7.76,7.76,0,0,1,5.88,2.09,8.42,8.42,0,0,1,2,6Z" transform="translate(0)"/><path class="cls-1" d="M428.86,1068.73v3.08l-3.47.9a6.08,6.08,0,0,1,.95,3.33,6.76,6.76,0,0,1-2.49,5.58,10.81,10.81,0,0,1-6.93,2l-1.09-.06-.89-.1A2,2,0,0,0,414,1085c0,.88,1.12,1.31,3.34,1.31h3.78a8.66,8.66,0,0,1,5.57,1.57,5.6,5.6,0,0,1,1.91,4.61,6.84,6.84,0,0,1-3.24,6q-3.25,2.15-9.33,2.15-4.65,0-7.1-1.62a5.15,5.15,0,0,1-2.46-4.54,4.74,4.74,0,0,1,1.26-3.36,7.14,7.14,0,0,1,3.67-1.93,4,4,0,0,1-1.63-1.3,3.21,3.21,0,0,1,0-4,8.47,8.47,0,0,1,2.13-1.66,5.92,5.92,0,0,1-2.77-2.42,7.32,7.32,0,0,1-1-3.94,6.94,6.94,0,0,1,2.37-5.62q2.36-2,6.75-2a17.75,17.75,0,0,1,2.22.16c.85.12,1.4.2,1.64.25Zm-17.14,25.35a2.2,2.2,0,0,0,1.2,2,6.68,6.68,0,0,0,3.37.71,12,12,0,0,0,5.1-.89,2.72,2.72,0,0,0,1.85-2.44,1.72,1.72,0,0,0-1.09-1.73,8.93,8.93,0,0,0-3.38-.48h-3.14a4.78,4.78,0,0,0-2.79.78A2.43,2.43,0,0,0,411.72,1094.08Zm2.2-18.08a4.51,4.51,0,0,0,.83,2.86,3,3,0,0,0,2.51,1.06,2.91,2.91,0,0,0,2.5-1.06,4.63,4.63,0,0,0,.8-2.86q0-4-3.3-4C415,1072,413.92,1073.33,413.92,1076Z" transform="translate(0)"/><path class="cls-1" d="M442.57,1091.34c-3.57,0-6.37-1-8.38-3s-3-4.77-3-8.38.93-6.6,2.79-8.64a9.94,9.94,0,0,1,7.72-3A9.77,9.77,0,0,1,449,1071a10.13,10.13,0,0,1,2.62,7.41v2.94H437.31a5.78,5.78,0,0,0,1.53,4,5.36,5.36,0,0,0,4,1.45,16.49,16.49,0,0,0,3.79-.42,19,19,0,0,0,3.74-1.33v4.69A14.25,14.25,0,0,1,447,1091,21.21,21.21,0,0,1,442.57,1091.34Zm-.85-18.71a3.82,3.82,0,0,0-3,1.22,5.59,5.59,0,0,0-1.25,3.46H446a5.08,5.08,0,0,0-1.17-3.46A4,4,0,0,0,441.72,1072.63Z" transform="translate(0)"/><path class="cls-1" d="M477.06,1090.94H471v-13a6.26,6.26,0,0,0-.86-3.61,3.09,3.09,0,0,0-2.72-1.2,4.09,4.09,0,0,0-3.67,1.7c-.76,1.13-1.13,3-1.13,5.63v10.45h-6.06v-22.21h4.63l.81,2.84h.34a6.36,6.36,0,0,1,2.79-2.43,9.47,9.47,0,0,1,4-.82,7.76,7.76,0,0,1,5.88,2.09,8.42,8.42,0,0,1,2,6Z" transform="translate(0)"/><path class="cls-1" d="M254.17,1139.76H236.63v-3.57l10.29-14h-9.67v-4.63h16.57v3.94l-10,13.65h10.37Z" transform="translate(0)"/><path class="cls-1" d="M274.3,1139.76l-.82-2.84h-.31a6.39,6.39,0,0,1-2.77,2.4,9.46,9.46,0,0,1-4.07.84,7.79,7.79,0,0,1-5.9-2.09,8.46,8.46,0,0,1-2-6v-14.49h6.05v13a6.21,6.21,0,0,0,.86,3.6,3.1,3.1,0,0,0,2.72,1.2,4.11,4.11,0,0,0,3.68-1.69c.75-1.14,1.13-3,1.13-5.64v-10.45H279v22.21Z" transform="translate(0)"/><path class="cls-1" d="M310,1139.76l-1.18-3h-.15a9,9,0,0,1-3.15,2.67,10.3,10.3,0,0,1-4.22.74,6.81,6.81,0,0,1-5-1.83,7,7,0,0,1-1.84-5.2,5.84,5.84,0,0,1,2.48-5.21c1.64-1.12,4.13-1.74,7.45-1.86l3.86-.12v-1q0-3.37-3.46-3.37a15.67,15.67,0,0,0-6.26,1.61l-2-4.1a18.12,18.12,0,0,1,8.5-2q4.47,0,6.85,1.94c1.59,1.3,2.39,3.28,2.39,5.92v14.8Zm-1.79-10.29-2.35.08a7.49,7.49,0,0,0-3.93,1,3,3,0,0,0-1.29,2.66c0,1.71,1,2.56,2.94,2.56a4.66,4.66,0,0,0,3.37-1.21,4.26,4.26,0,0,0,1.26-3.22Z" transform="translate(0)"/><path class="cls-1" d="M341,1139.76h-6.06v-13a6.21,6.21,0,0,0-.86-3.6,3.11,3.11,0,0,0-2.72-1.21,4.09,4.09,0,0,0-3.67,1.7c-.76,1.14-1.14,3-1.14,5.64v10.44h-6.05v-22.21h4.62l.82,2.85h.34A6.32,6.32,0,0,1,329,1118a9.47,9.47,0,0,1,4-.82,7.8,7.8,0,0,1,5.88,2.09,8.42,8.42,0,0,1,2,6Z" transform="translate(0)"/><path class="cls-1" d="M354.22,1140.16a7.21,7.21,0,0,1-6.15-3q-2.24-3-2.24-8.42t2.28-8.51a7.36,7.36,0,0,1,6.27-3,7.22,7.22,0,0,1,6.39,3.26h.2a25.35,25.35,0,0,1-.46-4.43v-7.12h6.08v30.91H362l-1.18-2.88h-.26A6.91,6.91,0,0,1,354.22,1140.16Zm2.12-4.83a4.11,4.11,0,0,0,3.41-1.35,7.83,7.83,0,0,0,1.18-4.59v-.65q0-3.57-1.1-5.13a4.11,4.11,0,0,0-3.59-1.55,3.57,3.57,0,0,0-3.15,1.72,9.26,9.26,0,0,0-1.12,5,8.77,8.77,0,0,0,1.13,4.92A3.71,3.71,0,0,0,356.34,1135.33Z" transform="translate(0)"/><path class="cls-1" d="M383,1140.16c-3.57,0-6.37-1-8.38-3s-3-4.77-3-8.38.93-6.6,2.79-8.63a9.91,9.91,0,0,1,7.72-3,9.77,9.77,0,0,1,7.33,2.68,10.14,10.14,0,0,1,2.62,7.41v2.94H377.72a5.76,5.76,0,0,0,1.53,4,5.36,5.36,0,0,0,4,1.45,17.22,17.22,0,0,0,3.8-.41,19.17,19.17,0,0,0,3.73-1.34v4.69a13.82,13.82,0,0,1-3.4,1.18A21.21,21.21,0,0,1,383,1140.16Zm-.85-18.71a3.85,3.85,0,0,0-3,1.22,5.6,5.6,0,0,0-1.25,3.47h8.5a5.09,5.09,0,0,0-1.17-3.47A4,4,0,0,0,382.13,1121.45Z" transform="translate(0)"/><path class="cls-1" d="M409.36,1117.14a9.67,9.67,0,0,1,2.05.18L411,1123a7,7,0,0,0-1.78-.2,6.43,6.43,0,0,0-4.52,1.49,5.37,5.37,0,0,0-1.62,4.17v11.3H397v-22.21h4.59l.89,3.74h.3a8.32,8.32,0,0,1,2.79-3A6.89,6.89,0,0,1,409.36,1117.14Z" transform="translate(0)"/><path class="cls-1" d="M425.5,1140.16c-3.58,0-6.37-1-8.39-3s-3-4.77-3-8.38.93-6.6,2.79-8.63a9.92,9.92,0,0,1,7.72-3,9.77,9.77,0,0,1,7.33,2.68,10.14,10.14,0,0,1,2.62,7.41v2.94H420.23a5.85,5.85,0,0,0,1.53,4,5.36,5.36,0,0,0,4,1.45,17.16,17.16,0,0,0,3.8-.41,19.17,19.17,0,0,0,3.73-1.34v4.69a13.89,13.89,0,0,1-3.39,1.18A21.34,21.34,0,0,1,425.5,1140.16Zm-.86-18.71a3.87,3.87,0,0,0-3,1.22,5.66,5.66,0,0,0-1.25,3.47h8.5a5,5,0,0,0-1.17-3.47A4,4,0,0,0,424.64,1121.45Z" transform="translate(0)"/><path class="cls-1" d="M460,1139.76h-6.06v-13a6.21,6.21,0,0,0-.85-3.6,3.12,3.12,0,0,0-2.72-1.21,4.11,4.11,0,0,0-3.68,1.7c-.75,1.14-1.13,3-1.13,5.64v10.44h-6.06v-22.21h4.63l.81,2.85h.34a6.43,6.43,0,0,1,2.79-2.44,9.55,9.55,0,0,1,4.05-.82,7.8,7.8,0,0,1,5.88,2.09,8.46,8.46,0,0,1,2,6Z" transform="translate(0)"/><path class="cls-1" d="M261.35,1188.59l-7-22.79h-.18c.26,4.64.38,7.73.38,9.28v13.51h-5.5v-29h8.38l6.88,22.21h.11l7.3-22.21h8.38v29h-5.74v-13.75q0-1,0-2.25t.27-6.75h-.18L267,1188.59Z" transform="translate(0)"/><path class="cls-1" d="M297,1189c-3.57,0-6.37-1-8.38-3s-3-4.76-3-8.38.93-6.6,2.79-8.63a10,10,0,0,1,7.72-3,9.77,9.77,0,0,1,7.33,2.68,10.14,10.14,0,0,1,2.62,7.41V1179H291.72a5.85,5.85,0,0,0,1.53,4,5.36,5.36,0,0,0,4,1.45,16.58,16.58,0,0,0,3.8-.41,19.11,19.11,0,0,0,3.73-1.33v4.69a14.7,14.7,0,0,1-3.4,1.18A21.28,21.28,0,0,1,297,1189Zm-.85-18.71a3.87,3.87,0,0,0-3,1.22,5.62,5.62,0,0,0-1.25,3.47h8.5a5.1,5.1,0,0,0-1.17-3.47A4,4,0,0,0,296.13,1170.27Z" transform="translate(0)"/><path class="cls-1" d="M331.47,1188.59h-6.06v-13a6.21,6.21,0,0,0-.85-3.6,3.11,3.11,0,0,0-2.72-1.2,4.08,4.08,0,0,0-3.68,1.7q-1.12,1.7-1.13,5.63v10.45H311v-22.21h4.63l.81,2.84h.34a6.49,6.49,0,0,1,2.79-2.44,9.53,9.53,0,0,1,4-.82,7.73,7.73,0,0,1,5.88,2.1,8.37,8.37,0,0,1,2,6Z" transform="translate(0)"/><path class="cls-1" d="M353.2,1182a6.14,6.14,0,0,1-2.37,5.21q-2.37,1.79-7.1,1.78a22.2,22.2,0,0,1-4.13-.32,15.28,15.28,0,0,1-3.2-1v-5a21.1,21.1,0,0,0,3.8,1.33,15.23,15.23,0,0,0,3.73.53c2.2,0,3.3-.63,3.3-1.9a1.58,1.58,0,0,0-.44-1.16,6.42,6.42,0,0,0-1.51-1c-.72-.38-1.67-.82-2.86-1.32a17.67,17.67,0,0,1-3.77-2,5.64,5.64,0,0,1-1.75-2.09,7,7,0,0,1-.54-2.91,5.27,5.27,0,0,1,2.29-4.58,11.18,11.18,0,0,1,6.51-1.62,18.43,18.43,0,0,1,7.81,1.75l-1.83,4.37a31,31,0,0,0-3.12-1.17,9.63,9.63,0,0,0-3-.46c-1.79,0-2.68.48-2.68,1.45a1.72,1.72,0,0,0,.86,1.41,23.26,23.26,0,0,0,3.79,1.77,18.08,18.08,0,0,1,3.81,2,5.92,5.92,0,0,1,1.79,2.11A6.54,6.54,0,0,1,353.2,1182Z" transform="translate(0)"/><path class="cls-1" d="M367,1189q-10.36,0-10.37-11.38c0-3.77.94-6.66,2.82-8.65s4.58-3,8.09-3a15.35,15.35,0,0,1,6.91,1.51l-1.79,4.69c-.95-.39-1.84-.7-2.66-1a8.72,8.72,0,0,0-2.46-.36c-3.15,0-4.73,2.23-4.73,6.71s1.58,6.52,4.73,6.52a10.89,10.89,0,0,0,3.24-.47,11.89,11.89,0,0,0,3-1.46v5.18a9.65,9.65,0,0,1-3,1.3A16.73,16.73,0,0,1,367,1189Z" transform="translate(0)"/><path class="cls-1" d="M399.35,1188.59h-6.06v-13q0-4.8-3.57-4.8a4.06,4.06,0,0,0-3.68,1.73c-.75,1.15-1.13,3-1.13,5.6v10.45h-6.06v-30.91h6.06V1164c0,.49-.05,1.65-.14,3.46l-.14,1.79H385a7,7,0,0,1,6.44-3.26,7.84,7.84,0,0,1,5.94,2.11,8.34,8.34,0,0,1,2,6Z" transform="translate(0)"/><path class="cls-1" d="M415.64,1189c-3.57,0-6.37-1-8.38-3s-3-4.76-3-8.38.93-6.6,2.79-8.63a9.94,9.94,0,0,1,7.72-3,9.77,9.77,0,0,1,7.33,2.68,10.14,10.14,0,0,1,2.62,7.41V1179H410.38a5.76,5.76,0,0,0,1.53,4,5.36,5.36,0,0,0,4,1.45,16.49,16.49,0,0,0,3.79-.41,19,19,0,0,0,3.74-1.33v4.69a14.7,14.7,0,0,1-3.4,1.18A21.28,21.28,0,0,1,415.64,1189Zm-.85-18.71a3.85,3.85,0,0,0-3,1.22,5.62,5.62,0,0,0-1.25,3.47H419a5.1,5.1,0,0,0-1.17-3.47A4,4,0,0,0,414.79,1170.27Z" transform="translate(0)"/><path class="cls-1" d="M450.13,1188.59h-6.06v-13a6.21,6.21,0,0,0-.85-3.6,3.12,3.12,0,0,0-2.73-1.2,4.07,4.07,0,0,0-3.67,1.7c-.76,1.13-1.13,3-1.13,5.63v10.45h-6.06v-22.21h4.63l.81,2.84h.34a6.38,6.38,0,0,1,2.79-2.44,9.47,9.47,0,0,1,4-.82,7.73,7.73,0,0,1,5.88,2.1,8.37,8.37,0,0,1,2,6Z" transform="translate(0)"/></g></svg>