<svg xmlns="http://www.w3.org/2000/svg" viewBox="0 0 1500 1500"><defs><style>.cls-1{fill:#fff;}.cls-2{fill:#ff8000;}.cls-3{fill:#f0047f;}.cls-4{fill:#ff0;}.cls-5{fill:#13007c;}.cls-6{opacity:0.5;}</style></defs><title>7einschraenkung_en</title><g id="Layer_4" data-name="Layer 4"><rect class="cls-1" width="1500" height="1500"/></g><g id="Layer_27_copy_2" data-name="Layer 27 copy 2"><path d="M245.57,612.69H235.9V575.14H223.52v-8H258v8H245.57Z" transform="translate(0)"/><path d="M296.4,612.69h-9.51V592.32q0-7.55-5.62-7.54-4,0-5.77,2.71t-1.77,8.79v16.41h-9.51V564.17h9.51v9.88c0,.77-.08,2.58-.22,5.43l-.22,2.8h.5q3.18-5.12,10.1-5.11,6.15,0,9.33,3.3T296.4,590Z" transform="translate(0)"/><path d="M322,613.31q-8.43,0-13.16-4.65t-4.74-13.16q0-8.76,4.38-13.55t12.11-4.78q7.4,0,11.51,4.21T336.19,593v4.61H313.7a9.18,9.18,0,0,0,2.4,6.33,8.45,8.45,0,0,0,6.3,2.28,26.56,26.56,0,0,0,6-.65,30.52,30.52,0,0,0,5.86-2.09v7.36a22.12,22.12,0,0,1-5.33,1.85A33.27,33.27,0,0,1,322,613.31Zm-1.34-29.38a6,6,0,0,0-4.74,1.92,8.86,8.86,0,0,0-2,5.44h13.35a7.94,7.94,0,0,0-1.84-5.44A6.24,6.24,0,0,0,320.63,583.93Z" transform="translate(0)"/><path d="M360.1,568.81c0-3.1,1.73-4.64,5.18-4.64s5.18,1.54,5.18,4.64a4.55,4.55,0,0,1-1.3,3.45,5.44,5.44,0,0,1-3.88,1.23Q360.11,573.49,360.1,568.81ZM370,612.69h-9.51V577.82H370Z" transform="translate(0)"/><path d="M404.32,602.33q0,5.37-3.73,8.17t-11.14,2.81a34.41,34.41,0,0,1-6.49-.52,24,24,0,0,1-5-1.51v-7.86a32.58,32.58,0,0,0,6,2.09,24.19,24.19,0,0,0,5.85.84c3.45,0,5.17-1,5.17-3a2.46,2.46,0,0,0-.68-1.82,9.92,9.92,0,0,0-2.37-1.59q-1.68-.9-4.49-2.08a28,28,0,0,1-5.91-3.12,8.83,8.83,0,0,1-2.75-3.28,10.9,10.9,0,0,1-.85-4.57,8.28,8.28,0,0,1,3.6-7.19q3.6-2.54,10.21-2.54A29,29,0,0,1,404,579.91l-2.87,6.86q-2.62-1.12-4.9-1.84a15.33,15.33,0,0,0-4.64-.71c-2.81,0-4.21.75-4.21,2.27a2.7,2.7,0,0,0,1.35,2.22,38.23,38.23,0,0,0,5.94,2.77,27.26,27.26,0,0,1,6,3.09,9.19,9.19,0,0,1,2.81,3.3A10.23,10.23,0,0,1,404.32,602.33Z" transform="translate(0)"/><path d="M443.42,595.19q0,8.52-4.49,13.32t-12.5,4.8a17.46,17.46,0,0,1-8.86-2.2,14.69,14.69,0,0,1-5.89-6.31,21.28,21.28,0,0,1-2.06-9.61q0-8.54,4.46-13.28t12.54-4.74a17.65,17.65,0,0,1,8.85,2.18,14.66,14.66,0,0,1,5.9,6.27A21,21,0,0,1,443.42,595.19Zm-24.1,0q0,5.17,1.7,7.83c1.13,1.77,3,2.65,5.53,2.65s4.36-.88,5.48-2.64,1.66-4.37,1.66-7.84-.56-6-1.68-7.76-3-2.59-5.52-2.59-4.36.86-5.49,2.57S419.32,591.72,419.32,595.19Z" transform="translate(0)"/><path d="M460.79,612.69h-9.51V564.17h9.51Z" transform="translate(0)"/><path d="M492.91,612.69,491.07,608h-.25a14.13,14.13,0,0,1-4.94,4.19,16,16,0,0,1-6.63,1.17,10.7,10.7,0,0,1-7.9-2.87c-1.93-1.91-2.89-4.64-2.89-8.17q0-5.55,3.89-8.19c2.58-1.75,6.49-2.72,11.7-2.91l6.05-.19v-1.53q0-5.3-5.42-5.3a24.77,24.77,0,0,0-9.82,2.53l-3.15-6.43a28.43,28.43,0,0,1,13.34-3.14q7,0,10.76,3t3.74,9.29v23.24Zm-2.81-16.16-3.68.13a11.8,11.8,0,0,0-6.17,1.49,4.72,4.72,0,0,0-2,4.18q0,4,4.62,4a7.29,7.29,0,0,0,5.28-1.9,6.66,6.66,0,0,0,2-5.05Z" transform="translate(0)"/><path d="M524,605.73a20.57,20.57,0,0,0,6-1.09v7.08a21.35,21.35,0,0,1-8.73,1.59q-5.71,0-8.31-2.89t-2.61-8.65V585h-4.55v-4l5.24-3.18,2.74-7.36h6.08v7.42h9.76V585h-9.76v16.81a3.7,3.7,0,0,0,1.14,3A4.46,4.46,0,0,0,524,605.73Z" transform="translate(0)"/><path d="M536.66,568.81c0-3.1,1.72-4.64,5.18-4.64s5.17,1.54,5.17,4.64a4.54,4.54,0,0,1-1.29,3.45,5.46,5.46,0,0,1-3.88,1.23C538.38,573.49,536.66,571.93,536.66,568.81Zm9.92,43.88h-9.52V577.82h9.52Z" transform="translate(0)"/><path d="M588.24,595.19q0,8.52-4.49,13.32t-12.51,4.8a17.46,17.46,0,0,1-8.86-2.2,14.69,14.69,0,0,1-5.89-6.31,21.28,21.28,0,0,1-2.06-9.61q0-8.54,4.46-13.28t12.54-4.74a17.62,17.62,0,0,1,8.85,2.18,14.66,14.66,0,0,1,5.9,6.27A21,21,0,0,1,588.24,595.19Zm-24.11,0q0,5.17,1.7,7.83t5.54,2.65c2.53,0,4.36-.88,5.47-2.64s1.67-4.37,1.67-7.84-.56-6-1.69-7.76-3-2.59-5.52-2.59-4.36.86-5.49,2.57S564.13,591.72,564.13,595.19Z" transform="translate(0)"/><path d="M628.27,612.69h-9.51V592.32a9.75,9.75,0,0,0-1.34-5.66,4.89,4.89,0,0,0-4.27-1.88q-4,0-5.77,2.66c-1.18,1.78-1.78,4.73-1.78,8.84v16.41h-9.51V577.82h7.27l1.28,4.46h.53a10.12,10.12,0,0,1,4.38-3.82,14.93,14.93,0,0,1,6.34-1.29q6.09,0,9.23,3.29t3.15,9.49Z" transform="translate(0)"/><path d="M261.78,661.6h-8.23v27.72H244V661.6H238.8V657l5.24-2.55V651.9q0-6,2.93-8.7t9.39-2.74a24.6,24.6,0,0,1,8.76,1.46l-2.43,7a17.51,17.51,0,0,0-5.3-.91,3.43,3.43,0,0,0-2.93,1.2,4.93,4.93,0,0,0-.91,3.07v2.19h8.23Z" transform="translate(0)"/><path d="M286.7,653.8a15.8,15.8,0,0,1,3.21.28l-.72,8.92a10.77,10.77,0,0,0-2.8-.31,10.1,10.1,0,0,0-7.1,2.34,8.47,8.47,0,0,0-2.54,6.55v17.74h-9.51V654.46h7.2l1.41,5.86h.47a13.07,13.07,0,0,1,4.38-4.72A10.77,10.77,0,0,1,286.7,653.8Z" transform="translate(0)"/><path d="M327.92,671.83q0,8.5-4.49,13.31t-12.5,4.8a17.56,17.56,0,0,1-8.86-2.19,14.71,14.71,0,0,1-5.89-6.32,21.21,21.21,0,0,1-2.06-9.6q0-8.55,4.46-13.29t12.54-4.74A17.55,17.55,0,0,1,320,656a14.5,14.5,0,0,1,5.89,6.26A21,21,0,0,1,327.92,671.83Zm-24.1,0c0,3.45.56,6.06,1.7,7.82s3,2.65,5.53,2.65,4.36-.87,5.48-2.63,1.66-4.37,1.66-7.84-.56-6-1.68-7.77-3-2.59-5.52-2.59-4.37.86-5.49,2.58S303.82,668.35,303.82,671.83Z" transform="translate(0)"/><path d="M367,689.32h-9.51V669a10.27,10.27,0,0,0-1.26-5.66,4.44,4.44,0,0,0-4-1.89,5.79,5.79,0,0,0-5.31,2.68q-1.65,2.68-1.65,8.83v16.4h-9.51V654.46h7.27l1.27,4.46h.53a9.67,9.67,0,0,1,4.06-3.76A13.09,13.09,0,0,1,355,653.8q7.83,0,10.6,5.12h.84a9.55,9.55,0,0,1,4.13-3.78,13.86,13.86,0,0,1,6.16-1.34c3.95,0,6.94,1,9,3s3,5.28,3,9.75v22.73h-9.54V669a10.18,10.18,0,0,0-1.27-5.66,4.43,4.43,0,0,0-4-1.89,5.91,5.91,0,0,0-5.22,2.5Q367,666.4,367,671.83Z" transform="translate(0)"/><path d="M446.76,671.83q0,8.5-4.49,13.31t-12.5,4.8a17.56,17.56,0,0,1-8.86-2.19,14.65,14.65,0,0,1-5.89-6.32,21.08,21.08,0,0,1-2.06-9.6q0-8.55,4.46-13.29T430,653.8a17.56,17.56,0,0,1,8.86,2.19,14.5,14.5,0,0,1,5.89,6.26A21.09,21.09,0,0,1,446.76,671.83Zm-24.1,0c0,3.45.56,6.06,1.7,7.82s3,2.65,5.53,2.65,4.36-.87,5.47-2.63,1.67-4.37,1.67-7.84-.56-6-1.68-7.77-3-2.59-5.52-2.59-4.37.86-5.49,2.58S422.66,668.35,422.66,671.83Z" transform="translate(0)"/><path d="M469.31,682.37a20.57,20.57,0,0,0,6-1.1v7.08a21.35,21.35,0,0,1-8.73,1.59q-5.7,0-8.31-2.88c-1.73-1.92-2.6-4.81-2.6-8.65V661.6h-4.56v-4l5.24-3.18,2.75-7.36h6.08v7.42h9.76v7.14h-9.76v16.81a3.7,3.7,0,0,0,1.14,3A4.5,4.5,0,0,0,469.31,682.37Z" transform="translate(0)"/><path d="M514.52,689.32H505V669q0-7.55-5.61-7.55c-2.67,0-4.59.91-5.77,2.71s-1.78,4.74-1.78,8.8v16.4h-9.51V640.8h9.51v9.88c0,.77-.07,2.58-.22,5.43l-.22,2.81h.5q3.18-5.11,10.11-5.12,6.14,0,9.32,3.31t3.18,9.48Z" transform="translate(0)"/><path d="M540.09,689.94q-8.42,0-13.16-4.64t-4.74-13.16q0-8.76,4.38-13.55t12.12-4.79q7.38,0,11.5,4.21t4.12,11.63v4.62H531.83a9.13,9.13,0,0,0,2.4,6.33,8.42,8.42,0,0,0,6.3,2.28,25.89,25.89,0,0,0,6-.66,29.63,29.63,0,0,0,5.86-2.09v7.36a22.58,22.58,0,0,1-5.33,1.86A34,34,0,0,1,540.09,689.94Zm-1.34-29.37a6,6,0,0,0-4.74,1.92,8.92,8.92,0,0,0-2,5.44h13.35a7.89,7.89,0,0,0-1.84-5.44A6.22,6.22,0,0,0,538.75,660.57Z" transform="translate(0)"/><path d="M581.5,653.8a15.8,15.8,0,0,1,3.21.28L584,663a10.72,10.72,0,0,0-2.8-.31,10.1,10.1,0,0,0-7.1,2.34,8.47,8.47,0,0,0-2.54,6.55v17.74H562V654.46h7.21l1.4,5.86h.47a13.07,13.07,0,0,1,4.38-4.72A10.77,10.77,0,0,1,581.5,653.8Z" transform="translate(0)"/><path d="M615.36,679c0,3.57-1.24,6.3-3.72,8.17s-6.2,2.8-11.15,2.8a35.35,35.35,0,0,1-6.49-.51,24.83,24.83,0,0,1-5-1.51v-7.86a33.19,33.19,0,0,0,6,2.09,24.18,24.18,0,0,0,5.84.84q5.18,0,5.18-3a2.51,2.51,0,0,0-.69-1.83,9.92,9.92,0,0,0-2.37-1.59q-1.68-.89-4.49-2.07a28,28,0,0,1-5.91-3.12,8.73,8.73,0,0,1-2.74-3.29,10.9,10.9,0,0,1-.86-4.57,8.29,8.29,0,0,1,3.6-7.19q3.6-2.54,10.22-2.54A29,29,0,0,1,615,656.55l-2.87,6.86c-1.74-.75-3.38-1.36-4.89-1.84a15.35,15.35,0,0,0-4.65-.72q-4.22,0-4.21,2.28a2.66,2.66,0,0,0,1.36,2.21,37,37,0,0,0,5.94,2.78,27.63,27.63,0,0,1,6,3.08,9.12,9.12,0,0,1,2.81,3.31A10.2,10.2,0,0,1,615.36,679Z" transform="translate(0)"/><path d="M901.6,865.34l-11-35.77h-.28q.58,10.92.59,14.56v21.21H882.3V819.75h13.16l10.79,34.86h.19l11.44-34.86H931v45.59h-9V843.76c0-1,0-2.19,0-3.52s.18-4.87.42-10.61h-.28l-11.75,35.71Z" transform="translate(0)"/><path d="M936.78,830.48h10.41l6.58,19.61a26.79,26.79,0,0,1,1.15,6h.19a27.09,27.09,0,0,1,1.34-6l6.46-19.61H973.1L958.35,869.8a17,17,0,0,1-5.78,8.17,14.58,14.58,0,0,1-8.78,2.71,22.27,22.27,0,0,1-4.83-.53V872.6a16.23,16.23,0,0,0,3.74.41,6.74,6.74,0,0,0,4.41-1.55,10,10,0,0,0,2.95-4.66l.56-1.71Z" transform="translate(0)"/><path d="M1014,837.62h-8.23v27.72h-9.51V837.62H991V833l5.24-2.55v-2.56q0-6,2.93-8.7c2-1.83,5.08-2.75,9.39-2.75a24.38,24.38,0,0,1,8.76,1.47l-2.43,7a17.79,17.79,0,0,0-5.3-.9,3.43,3.43,0,0,0-2.93,1.2,4.93,4.93,0,0,0-.91,3.07v2.19H1014Zm5-16.16q0-4.63,5.18-4.64t5.18,4.64a4.51,4.51,0,0,1-1.3,3.45,5.43,5.43,0,0,1-3.88,1.23Q1019,826.14,1019,821.46Zm9.92,43.88h-9.51V830.48h9.51Z" transform="translate(0)"/><path d="M1071.05,865.34h-9.51V845a9.79,9.79,0,0,0-1.34-5.66,4.89,4.89,0,0,0-4.28-1.89q-4,0-5.76,2.67t-1.78,8.84v16.4h-9.51V830.48h7.26l1.28,4.45h.53a10,10,0,0,1,4.38-3.81,14.83,14.83,0,0,1,6.35-1.3q6.07,0,9.23,3.29t3.15,9.5Z" transform="translate(0)"/><path d="M1103,865.34l-1.84-4.74h-.25a14,14,0,0,1-4.94,4.19,16,16,0,0,1-6.63,1.17,10.66,10.66,0,0,1-7.9-2.87q-2.89-2.87-2.89-8.17,0-5.55,3.88-8.18t11.71-2.92l6.05-.19v-1.52c0-3.54-1.81-5.3-5.42-5.3a24.81,24.81,0,0,0-9.83,2.52l-3.14-6.42a28.32,28.32,0,0,1,13.34-3.15q7,0,10.76,3t3.74,9.3v23.23Zm-2.81-16.15-3.68.12a11.69,11.69,0,0,0-6.17,1.5,4.69,4.69,0,0,0-2,4.18q0,4,4.62,4a7.33,7.33,0,0,0,5.28-1.9,6.7,6.7,0,0,0,2-5.06Z" transform="translate(0)"/><path d="M1151.59,865.34h-9.51V845a9.71,9.71,0,0,0-1.34-5.66,4.87,4.87,0,0,0-4.27-1.89q-4,0-5.77,2.67c-1.18,1.77-1.78,4.72-1.78,8.84v16.4h-9.51V830.48h7.27l1.28,4.45h.53a10,10,0,0,1,4.38-3.81,14.78,14.78,0,0,1,6.34-1.3q6.09,0,9.23,3.29t3.15,9.5Z" transform="translate(0)"/><path d="M1175.54,866q-16.27,0-16.28-17.87,0-8.88,4.43-13.58t12.69-4.69a24.23,24.23,0,0,1,10.86,2.37l-2.81,7.36c-1.5-.6-2.89-1.1-4.18-1.48a13.31,13.31,0,0,0-3.87-.58q-7.41,0-7.42,10.54,0,10.23,7.42,10.23a16.92,16.92,0,0,0,5.09-.73,18.38,18.38,0,0,0,4.67-2.3v8.14a15.07,15.07,0,0,1-4.66,2A26.47,26.47,0,0,1,1175.54,866Z" transform="translate(0)"/><path d="M1193.81,821.46q0-4.63,5.18-4.64t5.18,4.64a4.51,4.51,0,0,1-1.3,3.45,5.43,5.43,0,0,1-3.88,1.23Q1193.82,826.14,1193.81,821.46Zm9.92,43.88h-9.51V830.48h9.51Z" transform="translate(0)"/><path d="M1235.85,865.34,1234,860.6h-.25a14,14,0,0,1-4.94,4.19,16,16,0,0,1-6.63,1.17,10.66,10.66,0,0,1-7.9-2.87q-2.89-2.87-2.89-8.17,0-5.55,3.88-8.18t11.71-2.92l6-.19v-1.52c0-3.54-1.81-5.3-5.42-5.3a24.81,24.81,0,0,0-9.83,2.52l-3.15-6.42a28.39,28.39,0,0,1,13.35-3.15q7,0,10.76,3t3.74,9.3v23.23ZM1233,849.19l-3.68.12a11.69,11.69,0,0,0-6.17,1.5,4.69,4.69,0,0,0-2,4.18q0,4,4.62,4a7.33,7.33,0,0,0,5.28-1.9,6.7,6.7,0,0,0,2-5.06Z" transform="translate(0)"/><path d="M1261.79,865.34h-9.51V816.82h9.51Z" transform="translate(0)"/><path d="M956.87,931.62c0,3.57-1.24,6.3-3.72,8.17S947,942.6,942,942.6a35.26,35.26,0,0,1-6.49-.52,24.64,24.64,0,0,1-5-1.51v-7.86a33.35,33.35,0,0,0,6,2.09,24.32,24.32,0,0,0,5.85.84q5.18,0,5.18-3a2.51,2.51,0,0,0-.69-1.83,10.56,10.56,0,0,0-2.37-1.59q-1.68-.88-4.49-2.07A28,28,0,0,1,934,924a8.66,8.66,0,0,1-2.74-3.29,10.87,10.87,0,0,1-.86-4.57A8.27,8.27,0,0,1,934,909q3.6-2.55,10.21-2.54a29,29,0,0,1,12.26,2.74l-2.87,6.86q-2.62-1.12-4.9-1.84a15.24,15.24,0,0,0-4.64-.72q-4.22,0-4.21,2.28a2.66,2.66,0,0,0,1.36,2.21,36.14,36.14,0,0,0,5.94,2.78,27.88,27.88,0,0,1,6,3.08,9.12,9.12,0,0,1,2.81,3.31A10.2,10.2,0,0,1,956.87,931.62Z" transform="translate(0)"/><path d="M963.89,898.1q0-4.65,5.18-4.65t5.17,4.65a4.53,4.53,0,0,1-1.29,3.44,5.42,5.42,0,0,1-3.88,1.24Q963.9,902.78,963.89,898.1ZM973.81,942h-9.52V907.11h9.52Z" transform="translate(0)"/><path d="M998.47,935a20.91,20.91,0,0,0,6-1.09V941a21.18,21.18,0,0,1-8.73,1.6c-3.81,0-6.58-1-8.31-2.89s-2.61-4.81-2.61-8.65V914.25h-4.55v-4l5.24-3.18,2.74-7.36h6.08v7.42h9.76v7.14h-9.76v16.81a3.7,3.7,0,0,0,1.14,3A4.46,4.46,0,0,0,998.47,935Z" transform="translate(0)"/><path d="M1036.2,942l-1.28-4.46h-.5a10,10,0,0,1-4.33,3.76,14.84,14.84,0,0,1-6.39,1.33q-6.15,0-9.26-3.29t-3.12-9.47V907.11h9.51v20.36a9.81,9.81,0,0,0,1.34,5.66,4.87,4.87,0,0,0,4.27,1.89c2.66,0,4.59-.89,5.77-2.67s1.78-4.72,1.78-8.84v-16.4h9.51V942Z" transform="translate(0)"/><path d="M1075.62,942l-1.84-4.74h-.25a14.06,14.06,0,0,1-4.94,4.2,16,16,0,0,1-6.63,1.17,10.74,10.74,0,0,1-7.91-2.87q-2.88-2.88-2.88-8.17,0-5.55,3.88-8.19c2.59-1.75,6.49-2.73,11.71-2.91l6-.19v-1.53q0-5.29-5.43-5.3a24.68,24.68,0,0,0-9.82,2.53l-3.15-6.43a28.33,28.33,0,0,1,13.35-3.15q7,0,10.76,3.06t3.74,9.29V942Zm-2.81-16.15-3.68.12a11.89,11.89,0,0,0-6.17,1.5,4.72,4.72,0,0,0-2,4.18q0,4,4.61,4a7.3,7.3,0,0,0,5.29-1.9,6.68,6.68,0,0,0,2-5Z" transform="translate(0)"/><path d="M1106.74,935a20.8,20.8,0,0,0,6-1.09V941a21.18,21.18,0,0,1-8.73,1.6c-3.8,0-6.57-1-8.31-2.89s-2.6-4.81-2.6-8.65V914.25h-4.55v-4l5.24-3.18,2.74-7.36h6.08v7.42h9.76v7.14h-9.76v16.81a3.7,3.7,0,0,0,1.14,3A4.46,4.46,0,0,0,1106.74,935Z" transform="translate(0)"/><path d="M1119.37,898.1q0-4.65,5.17-4.65t5.18,4.65a4.53,4.53,0,0,1-1.29,3.44,5.43,5.43,0,0,1-3.89,1.24Q1119.36,902.78,1119.37,898.1Zm9.91,43.87h-9.51V907.11h9.51Z" transform="translate(0)"/><path d="M1170.94,924.48q0,8.5-4.49,13.31T1154,942.6a17.56,17.56,0,0,1-8.86-2.2,14.66,14.66,0,0,1-5.89-6.32,21.21,21.21,0,0,1-2.06-9.6q0-8.55,4.46-13.29t12.54-4.73a17.54,17.54,0,0,1,8.85,2.18,14.47,14.47,0,0,1,5.89,6.27A20.89,20.89,0,0,1,1170.94,924.48Zm-24.1,0q0,5.17,1.7,7.82c1.13,1.77,3,2.66,5.53,2.66s4.36-.88,5.48-2.64,1.66-4.37,1.66-7.84-.56-6-1.68-7.77-3-2.58-5.52-2.58-4.36.85-5.49,2.57S1146.84,921,1146.84,924.48Z" transform="translate(0)"/><path d="M1211,942h-9.51V921.61a9.81,9.81,0,0,0-1.34-5.66,4.87,4.87,0,0,0-4.27-1.89c-2.66,0-4.59.89-5.77,2.67s-1.78,4.72-1.78,8.84V942h-9.51V907.11h7.27l1.28,4.46h.53a10,10,0,0,1,4.38-3.82,14.93,14.93,0,0,1,6.34-1.29q6.09,0,9.23,3.28t3.15,9.5Z" transform="translate(0)"/><path d="M328.34,860.78V815.19H338v37.6h18.5v8Z" transform="translate(0)"/><path d="M385.81,860.78,384,856h-.25a14.13,14.13,0,0,1-4.94,4.19,16,16,0,0,1-6.63,1.17,10.74,10.74,0,0,1-7.91-2.87c-1.92-1.91-2.88-4.64-2.88-8.17q0-5.55,3.88-8.19T377,839.26l6.05-.19v-1.53q0-5.29-5.42-5.3a24.68,24.68,0,0,0-9.83,2.53l-3.15-6.42A28.36,28.36,0,0,1,378,825.2q7,0,10.76,3t3.74,9.29v23.24ZM383,844.62l-3.68.13a11.8,11.8,0,0,0-6.17,1.49,4.72,4.72,0,0,0-2,4.18c0,2.68,1.54,4,4.62,4a7.3,7.3,0,0,0,5.28-1.91,6.66,6.66,0,0,0,2-5Z" transform="translate(0)"/><path d="M416.4,861.4q-16.27,0-16.28-17.87,0-8.88,4.43-13.58t12.69-4.69a24.19,24.19,0,0,1,10.85,2.37L425.28,835a43.49,43.49,0,0,0-4.17-1.48,13.31,13.31,0,0,0-3.87-.58q-7.42,0-7.42,10.54,0,10.23,7.42,10.23a16.86,16.86,0,0,0,5.08-.74,18.06,18.06,0,0,0,4.68-2.29v8.14a15.41,15.41,0,0,1-4.66,2A26.47,26.47,0,0,1,416.4,861.4Z" transform="translate(0)"/><path d="M444.21,841.82l4.15-5.3,9.76-10.61h10.73L455,841l14.69,19.74h-11l-10-14.13-4.08,3.27v10.86h-9.51V812.25h9.51V833.9l-.5,7.92Z" transform="translate(0)"/><path d="M523,843.28q0,8.52-4.49,13.32T506,861.4a17.45,17.45,0,0,1-8.85-2.2,14.57,14.57,0,0,1-5.89-6.31,21.15,21.15,0,0,1-2.06-9.61q0-8.53,4.46-13.28t12.53-4.74a17.66,17.66,0,0,1,8.86,2.18,14.64,14.64,0,0,1,5.89,6.27A21,21,0,0,1,523,843.28Zm-24.11,0q0,5.18,1.7,7.83c1.14,1.77,3,2.65,5.54,2.65s4.36-.88,5.47-2.64,1.67-4.37,1.67-7.84-.56-6-1.68-7.76-3-2.59-5.52-2.59-4.37.86-5.49,2.57S498.84,839.81,498.84,843.28Z" transform="translate(0)"/><path d="M550.08,833.05h-8.23v27.73h-9.52V833.05H527.1v-4.58l5.23-2.56v-2.55q0-6,2.94-8.7t9.38-2.75a24.3,24.3,0,0,1,8.76,1.47l-2.43,7a17.79,17.79,0,0,0-5.3-.9,3.43,3.43,0,0,0-2.93,1.2,5,5,0,0,0-.9,3.07v2.18h8.23Z" transform="translate(0)"/><path d="M248.79,893.54q0-4.65,5.18-4.65t5.17,4.65a4.53,4.53,0,0,1-1.29,3.44,5.44,5.44,0,0,1-3.88,1.23Q248.8,898.21,248.79,893.54Zm9.92,43.87H249.2V902.55h9.51Z" transform="translate(0)"/><path d="M300.87,937.41h-9.51V917.05a9.81,9.81,0,0,0-1.34-5.66,4.89,4.89,0,0,0-4.28-1.89q-4,0-5.77,2.67T278.2,921v16.4h-9.51V902.55H276l1.28,4.46h.53a10,10,0,0,1,4.38-3.82,14.83,14.83,0,0,1,6.35-1.3q6.08,0,9.23,3.29t3.15,9.5Z" transform="translate(0)"/><path d="M329.93,909.69H321.7v27.72h-9.51V909.69H307V905.1l5.24-2.55V900c0-4,1-6.87,2.93-8.7s5.08-2.74,9.38-2.74a24.62,24.62,0,0,1,8.77,1.46l-2.44,7a17.51,17.51,0,0,0-5.3-.91,3.43,3.43,0,0,0-2.93,1.2,5,5,0,0,0-.9,3.07v2.19h8.23Z" transform="translate(0)"/><path d="M367.07,919.92q0,8.51-4.49,13.31c-3,3.2-7.16,4.8-12.51,4.8a17.43,17.43,0,0,1-8.85-2.2,14.65,14.65,0,0,1-5.9-6.31,21.21,21.21,0,0,1-2.05-9.6q0-8.55,4.45-13.29t12.54-4.74a17.56,17.56,0,0,1,8.86,2.19,14.56,14.56,0,0,1,5.89,6.26A21.09,21.09,0,0,1,367.07,919.92Zm-24.11,0q0,5.18,1.7,7.82c1.14,1.77,3,2.65,5.54,2.65s4.36-.88,5.47-2.63,1.67-4.37,1.67-7.84-.56-6-1.69-7.77-3-2.59-5.51-2.59-4.37.86-5.49,2.58S343,916.44,343,919.92Z" transform="translate(0)"/><path d="M394.38,901.89a16,16,0,0,1,3.22.28l-.72,8.92a10.85,10.85,0,0,0-2.81-.31,10.07,10.07,0,0,0-7.09,2.34,8.43,8.43,0,0,0-2.54,6.55v17.74h-9.51V902.55h7.2l1.4,5.86H384a13.07,13.07,0,0,1,4.38-4.72A10.77,10.77,0,0,1,394.38,901.89Z" transform="translate(0)"/><path d="M435.14,937.41h-9.51V917.05a10.27,10.27,0,0,0-1.26-5.66,4.45,4.45,0,0,0-4-1.89,5.75,5.75,0,0,0-5.3,2.68q-1.65,2.69-1.65,8.83v16.4h-9.51V902.55h7.26l1.28,4.46H413a9.7,9.7,0,0,1,4.05-3.76,13.12,13.12,0,0,1,6.08-1.36q7.83,0,10.61,5.12h.84a9.38,9.38,0,0,1,4.13-3.78,13.83,13.83,0,0,1,6.16-1.34c3.95,0,6.94,1,9,3s3,5.28,3,9.75v22.73h-9.54V917.05a10.27,10.27,0,0,0-1.26-5.66,4.44,4.44,0,0,0-4-1.89,5.91,5.91,0,0,0-5.22,2.5q-1.72,2.49-1.73,7.92Z" transform="translate(0)"/><path d="M488.77,937.41l-1.84-4.74h-.25a13.94,13.94,0,0,1-4.94,4.19,15.93,15.93,0,0,1-6.62,1.17,10.69,10.69,0,0,1-7.91-2.87q-2.88-2.86-2.88-8.17,0-5.55,3.88-8.18t11.71-2.92l6.05-.18v-1.53c0-3.54-1.81-5.3-5.43-5.3a24.77,24.77,0,0,0-9.82,2.52L467.57,905a28.33,28.33,0,0,1,13.35-3.15q7,0,10.75,3.06t3.75,9.29v23.23ZM486,921.26l-3.68.12q-4.16.12-6.18,1.5a4.7,4.7,0,0,0-2,4.18c0,2.68,1.53,4,4.61,4a7.32,7.32,0,0,0,5.29-1.9,6.69,6.69,0,0,0,2-5.06Z" transform="translate(0)"/><path d="M519.89,930.46a20.57,20.57,0,0,0,6-1.1v7.08a21.35,21.35,0,0,1-8.73,1.59c-3.8,0-6.58-1-8.31-2.88s-2.6-4.81-2.6-8.65V909.69h-4.56v-4l5.24-3.19,2.75-7.35h6.08v7.42h9.76v7.14h-9.76V926.5a3.74,3.74,0,0,0,1.13,3A4.53,4.53,0,0,0,519.89,930.46Z" transform="translate(0)"/><path d="M532.52,893.54q0-4.65,5.18-4.65t5.18,4.65a4.54,4.54,0,0,1-1.3,3.44,5.44,5.44,0,0,1-3.88,1.23Q532.53,898.21,532.52,893.54Zm9.92,43.87h-9.51V902.55h9.51Z" transform="translate(0)"/><path d="M584.1,919.92q0,8.51-4.49,13.31c-3,3.2-7.16,4.8-12.51,4.8a17.45,17.45,0,0,1-8.85-2.2,14.65,14.65,0,0,1-5.9-6.31,21.21,21.21,0,0,1-2.05-9.6q0-8.55,4.46-13.29t12.53-4.74a17.56,17.56,0,0,1,8.86,2.19,14.56,14.56,0,0,1,5.89,6.26A21.09,21.09,0,0,1,584.1,919.92Zm-24.11,0q0,5.18,1.7,7.82c1.14,1.77,3,2.65,5.54,2.65s4.36-.88,5.47-2.63,1.67-4.37,1.67-7.84-.56-6-1.68-7.77-3-2.59-5.52-2.59-4.37.86-5.49,2.58S560,916.44,560,919.92Z" transform="translate(0)"/><path d="M624.14,937.41h-9.51V917.05a9.81,9.81,0,0,0-1.34-5.66A4.89,4.89,0,0,0,609,909.5q-4,0-5.76,2.67T601.47,921v16.4H592V902.55h7.26L600.5,907H601a10,10,0,0,1,4.38-3.82,14.83,14.83,0,0,1,6.35-1.3q6.07,0,9.23,3.29t3.15,9.5Z" transform="translate(0)"/><path d="M951.34,653.74V608.15H961v45.59Z" transform="translate(0)"/><path d="M1019.53,653.74H1010V633.38a10.27,10.27,0,0,0-1.26-5.66,4.44,4.44,0,0,0-4-1.89,5.76,5.76,0,0,0-5.3,2.69q-1.65,2.67-1.65,8.82v16.4h-9.51V618.88h7.26l1.28,4.46h.53a9.73,9.73,0,0,1,4.06-3.76,13.18,13.18,0,0,1,6.08-1.36q7.82,0,10.6,5.12h.84a9.41,9.41,0,0,1,4.13-3.77,13.7,13.7,0,0,1,6.16-1.35q5.92,0,9,3t3,9.74v22.73h-9.55V633.38a10.27,10.27,0,0,0-1.26-5.66,4.44,4.44,0,0,0-4-1.89,6,6,0,0,0-5.23,2.5q-1.72,2.49-1.73,7.92Z" transform="translate(0)"/><path d="M1046,618.88h10.41l6.58,19.61a27.44,27.44,0,0,1,1.16,6h.18a27.21,27.21,0,0,1,1.34-6l6.46-19.61h10.2l-14.75,39.32a17.06,17.06,0,0,1-5.79,8.17,14.58,14.58,0,0,1-8.78,2.71,21.67,21.67,0,0,1-4.83-.53V661a16.25,16.25,0,0,0,3.74.4,6.72,6.72,0,0,0,4.41-1.54,10,10,0,0,0,3-4.66l.56-1.72Z" transform="translate(0)"/><path d="M1111.68,643.39a9.62,9.62,0,0,1-3.73,8.17q-3.72,2.81-11.15,2.81a35.15,35.15,0,0,1-6.48-.52,24.64,24.64,0,0,1-5-1.51v-7.86a32.8,32.8,0,0,0,6,2.09,24.18,24.18,0,0,0,5.84.84c3.46,0,5.18-1,5.18-3a2.51,2.51,0,0,0-.69-1.83,10.21,10.21,0,0,0-2.36-1.59c-1.13-.59-2.62-1.28-4.49-2.07a27.51,27.51,0,0,1-5.91-3.12,8.69,8.69,0,0,1-2.75-3.29,10.87,10.87,0,0,1-.86-4.57,8.26,8.26,0,0,1,3.61-7.18q3.6-2.55,10.21-2.55A29,29,0,0,1,1111.3,621l-2.87,6.86a51.86,51.86,0,0,0-4.89-1.84,15.35,15.35,0,0,0-4.65-.72c-2.8,0-4.21.76-4.21,2.28a2.66,2.66,0,0,0,1.36,2.21,36.14,36.14,0,0,0,5.94,2.78,28,28,0,0,1,6,3.08,9.18,9.18,0,0,1,2.8,3.31A10.06,10.06,0,0,1,1111.68,643.39Z" transform="translate(0)"/><path d="M1134.88,654.37q-8.43,0-13.16-4.65T1117,636.56q0-8.76,4.38-13.55t12.11-4.79q7.4,0,11.51,4.21t4.12,11.64v4.61h-22.49A9.22,9.22,0,0,0,1129,645a8.45,8.45,0,0,0,6.3,2.28,26,26,0,0,0,6-.66,29.22,29.22,0,0,0,5.86-2.09v7.36a22.58,22.58,0,0,1-5.33,1.86A34,34,0,0,1,1134.88,654.37ZM1133.54,625a6,6,0,0,0-4.74,1.92,8.86,8.86,0,0,0-2,5.44h13.35a7.94,7.94,0,0,0-1.84-5.44A6.24,6.24,0,0,0,1133.54,625Z" transform="translate(0)"/><path d="M1166.34,653.74h-9.51V605.22h9.51Z" transform="translate(0)"/><path d="M1195.59,626h-8.23v27.72h-9.51V626h-5.24v-4.58l5.24-2.56v-2.56c0-4,1-6.87,2.93-8.7s5.08-2.74,9.38-2.74a24.62,24.62,0,0,1,8.77,1.46l-2.44,7a17.83,17.83,0,0,0-5.3-.91,3.47,3.47,0,0,0-2.93,1.2,5,5,0,0,0-.9,3.08v2.18h8.23Z" transform="translate(0)"/><path class="cls-2" d="M1386.74,748.69H756.6V511.33h630.14ZM768.91,736.37h605.51V523.65H768.91Z" transform="translate(0)"/><path class="cls-2" d="M1363.66,726.74h-584V533.28h584ZM790.38,716.05H1353V544H790.38Z" transform="translate(0)"/><path class="cls-3" d="M744.7,748.69H114.57V511.33H744.7ZM126.88,736.37H732.39V523.65H126.88Z" transform="translate(0)"/><path class="cls-4" d="M1409.91,1019.6H92.79V488.86H1409.91ZM105.1,1007.28H1397.6V501.18H105.1Z" transform="translate(0)"/><path class="cls-4" d="M1431.86,1042.94H70.86V468.38h1361ZM83.17,1030.63H1419.55V480.69H83.17Z" transform="translate(0)"/><path class="cls-4" d="M1454.52,1066.62H46.06V443.54H1454.52ZM58.4,1054.28H1442.18V455.88H58.4Z" transform="translate(0)"/><path class="cls-4" d="M1476.75,1089.4H23.12V423H1476.75ZM35.43,1077.09h1429V435.32H35.43Z" transform="translate(0)"/><path class="cls-3" d="M721.52,726.64H137.75V533.38H721.52ZM148.24,716.15H711V543.87H148.24Z" transform="translate(0)"/><path class="cls-5" d="M744.7,995.64H114.57V758.29H744.7ZM126.88,983.33H732.39V770.6H126.88Z" transform="translate(0)"/><path class="cls-5" d="M721.52,973.59H137.75V780.33H721.52ZM148.24,963.1H711V790.83H148.24Z" transform="translate(0)"/><path class="cls-6" d="M1386.74,995.64H756.6V758.29h630.14ZM768.91,983.33h605.51V770.6H768.91Z" transform="translate(0)"/><path class="cls-6" d="M1363.56,973.59H779.78V780.33h583.78ZM790.28,963.1h562.78V790.83H790.28Z" transform="translate(0)"/></g></svg>