<svg xmlns="http://www.w3.org/2000/svg" viewBox="0 0 1500 1500"><defs><style>.cls-1{fill:#fff;}.cls-2{fill:#ff8000;}.cls-3{fill:#f0047f;}.cls-4{fill:#ff0;}.cls-5{fill:#13007c;}.cls-6{opacity:0.5;}</style></defs><title>einschraenkung</title><g id="Layer_4" data-name="Layer 4"><rect class="cls-1" width="1500" height="1500"/></g><g id="Layer_9" data-name="Layer 9"><path d="M224.24,613.05v-45.8H234v45.8Z" transform="translate(0)"/><path d="M269.15,602.65c0,3.59-1.24,6.32-3.74,8.2s-6.23,2.82-11.2,2.82a35.58,35.58,0,0,1-6.51-.51,24.65,24.65,0,0,1-5-1.52v-7.9a32.54,32.54,0,0,0,6,2.1,24.11,24.11,0,0,0,5.88.85c3.46,0,5.2-1,5.2-3a2.51,2.51,0,0,0-.69-1.83,10.3,10.3,0,0,0-2.38-1.6c-1.13-.59-2.63-1.29-4.51-2.08a28.29,28.29,0,0,1-5.94-3.13,8.82,8.82,0,0,1-2.75-3.31,10.8,10.8,0,0,1-.87-4.59,8.32,8.32,0,0,1,3.62-7.22q3.61-2.55,10.26-2.55a29.09,29.09,0,0,1,12.31,2.76L265.9,587q-2.64-1.12-4.92-1.85a15.43,15.43,0,0,0-4.67-.72q-4.23,0-4.23,2.29a2.7,2.7,0,0,0,1.37,2.22,36,36,0,0,0,6,2.79,27.56,27.56,0,0,1,6,3.1,9.27,9.27,0,0,1,2.82,3.32A10.26,10.26,0,0,1,269.15,602.65Z" transform="translate(0)"/><path d="M308.43,595.47q0,8.55-4.51,13.38t-12.56,4.82a17.45,17.45,0,0,1-8.89-2.21,14.6,14.6,0,0,1-5.92-6.34,21.27,21.27,0,0,1-2.07-9.65q0-8.58,4.48-13.34t12.59-4.76a17.71,17.71,0,0,1,8.9,2.19,14.67,14.67,0,0,1,5.92,6.3A21.2,21.2,0,0,1,308.43,595.47Zm-24.21,0q0,5.21,1.71,7.87t5.56,2.66c2.54,0,4.38-.88,5.49-2.65s1.68-4.39,1.68-7.88-.56-6.06-1.69-7.79-3-2.6-5.55-2.6-4.38.86-5.51,2.58S284.22,592,284.22,595.47Z" transform="translate(0)"/><path d="M325.88,613.05h-9.55V564.31h9.55Z" transform="translate(0)"/><path d="M358.14,613.05l-1.85-4.76H356a14.26,14.26,0,0,1-5,4.21,16.1,16.1,0,0,1-6.66,1.17,10.77,10.77,0,0,1-7.94-2.88q-2.89-2.88-2.9-8.21,0-5.57,3.9-8.22t11.76-2.93l6.08-.18v-1.54q0-5.33-5.45-5.32a24.84,24.84,0,0,0-9.87,2.53l-3.16-6.45a28.46,28.46,0,0,1,13.41-3.16q7,0,10.8,3.07c2.51,2,3.76,5.16,3.76,9.33v23.34Zm-2.82-16.23-3.69.13a11.83,11.83,0,0,0-6.21,1.5,4.74,4.74,0,0,0-2,4.2q0,4,4.63,4a7.34,7.34,0,0,0,5.31-1.91,6.72,6.72,0,0,0,2-5.08Z" transform="translate(0)"/><path d="M389.4,606.06a20.41,20.41,0,0,0,6-1.1v7.11a21.34,21.34,0,0,1-8.77,1.6c-3.82,0-6.6-1-8.34-2.9s-2.62-4.82-2.62-8.69V585.2h-4.57v-4l5.26-3.19,2.76-7.4h6.1V578H395v7.17h-9.81v16.88a3.71,3.71,0,0,0,1.15,3A4.49,4.49,0,0,0,389.4,606.06Z" transform="translate(0)"/><path d="M402.08,569c0-3.12,1.74-4.67,5.2-4.67s5.2,1.55,5.2,4.67a4.55,4.55,0,0,1-1.3,3.46,5.46,5.46,0,0,1-3.9,1.23C403.82,573.67,402.08,572.11,402.08,569Zm10,44.07h-9.56V578h9.56Z" transform="translate(0)"/><path d="M453.89,595.47q0,8.55-4.51,13.38t-12.56,4.82a17.45,17.45,0,0,1-8.89-2.21,14.6,14.6,0,0,1-5.92-6.34,21.27,21.27,0,0,1-2.07-9.65q0-8.58,4.48-13.34T437,577.37a17.65,17.65,0,0,1,8.89,2.19,14.55,14.55,0,0,1,5.92,6.3A21.07,21.07,0,0,1,453.89,595.47Zm-24.21,0q0,5.21,1.71,7.87c1.13,1.77,3,2.66,5.56,2.66s4.38-.88,5.49-2.65,1.68-4.39,1.68-7.88-.56-6.06-1.69-7.79-3-2.6-5.55-2.6-4.38.86-5.51,2.58S429.68,592,429.68,595.47Z" transform="translate(0)"/><path d="M494.11,613.05h-9.55V592.59a9.8,9.8,0,0,0-1.35-5.68,4.89,4.89,0,0,0-4.29-1.9c-2.68,0-4.61.9-5.8,2.68s-1.78,4.75-1.78,8.88v16.48h-9.56V578h7.3l1.29,4.48h.53a10.1,10.1,0,0,1,4.4-3.84,14.92,14.92,0,0,1,6.37-1.3q6.12,0,9.28,3.3t3.16,9.54Z" transform="translate(0)"/><path d="M528.94,613.05,515.6,578h10l6.76,20a36,36,0,0,1,1.41,7.17H534a30.76,30.76,0,0,1,1.41-7.17l6.73-20h10l-13.35,35Z" transform="translate(0)"/><path d="M588.92,595.47q0,8.55-4.51,13.38t-12.56,4.82a17.52,17.52,0,0,1-8.9-2.21,14.72,14.72,0,0,1-5.92-6.34,21.4,21.4,0,0,1-2.06-9.65q0-8.58,4.48-13.34T572,577.37a17.67,17.67,0,0,1,8.89,2.19,14.61,14.61,0,0,1,5.92,6.3A21.07,21.07,0,0,1,588.92,595.47Zm-24.21,0q0,5.21,1.71,7.87c1.13,1.77,3,2.66,5.56,2.66s4.37-.88,5.49-2.65,1.68-4.39,1.68-7.88-.57-6.06-1.69-7.79-3-2.6-5.55-2.6-4.38.86-5.51,2.58S564.71,592,564.71,595.47Z" transform="translate(0)"/><path d="M629.14,613.05h-9.56V592.59a9.8,9.8,0,0,0-1.34-5.68A4.89,4.89,0,0,0,614,585c-2.68,0-4.61.9-5.8,2.68s-1.78,4.75-1.78,8.88v16.48h-9.56V578h7.3l1.29,4.48h.53a10.1,10.1,0,0,1,4.4-3.84,14.92,14.92,0,0,1,6.37-1.3q6.1,0,9.27,3.3t3.17,9.54Z" transform="translate(0)"/><path d="M236.61,690.65a11.38,11.38,0,0,1-9.69-4.79q-3.53-4.8-3.53-13.28T227,659.16a11.63,11.63,0,0,1,9.88-4.81A11.43,11.43,0,0,1,247,659.48h.31a39,39,0,0,1-.72-7V641.29h9.58V690H248.8L247,685.48h-.41Q243.29,690.66,236.61,690.65ZM240,683q3.67,0,5.37-2.13t1.87-7.24v-1q0-5.64-1.74-8.08t-5.65-2.44a5.62,5.62,0,0,0-5,2.7q-1.77,2.71-1.77,7.88t1.79,7.75A5.82,5.82,0,0,0,240,683Z" transform="translate(0)"/><path d="M282,690.65q-8.46,0-13.22-4.67T264,672.76q0-8.79,4.4-13.6t12.17-4.81c4.94,0,8.8,1.41,11.55,4.23s4.14,6.71,4.14,11.68v4.63H273.67a9.13,9.13,0,0,0,2.41,6.36,8.45,8.45,0,0,0,6.32,2.29,26.24,26.24,0,0,0,6-.66,29.85,29.85,0,0,0,5.88-2.1v7.39a22.31,22.31,0,0,1-5.35,1.87A33.58,33.58,0,0,1,282,690.65Zm-1.35-29.51a6.07,6.07,0,0,0-4.76,1.93,8.93,8.93,0,0,0-2,5.47h13.41a8,8,0,0,0-1.85-5.47A6.27,6.27,0,0,0,280.62,661.14Z" transform="translate(0)"/><path d="M336.34,690h-9.55V669.57a9.83,9.83,0,0,0-1.35-5.69,4.91,4.91,0,0,0-4.29-1.89c-2.67,0-4.61.89-5.8,2.68s-1.78,4.74-1.78,8.88V690H304V655h7.29l1.29,4.48h.53a10.07,10.07,0,0,1,4.4-3.83,14.93,14.93,0,0,1,6.38-1.3q6.1,0,9.27,3.3t3.16,9.54Z" transform="translate(0)"/><path d="M391.62,690l-3.32-10.9H371.61L368.29,690H357.83L374,644h11.87l16.22,46ZM386,671q-4.61-14.82-5.19-16.76c-.39-1.29-.66-2.32-.83-3.07q-1,4-5.92,19.83Z" transform="translate(0)"/><path d="M439.42,690h-9.55V669.57a9.83,9.83,0,0,0-1.35-5.69,4.91,4.91,0,0,0-4.29-1.89c-2.67,0-4.61.89-5.8,2.68s-1.78,4.74-1.78,8.88V690H407.1V655h7.29l1.29,4.48h.53a10.07,10.07,0,0,1,4.4-3.83,14.93,14.93,0,0,1,6.38-1.3q6.11,0,9.27,3.3t3.16,9.54Z" transform="translate(0)"/><path d="M460.34,690.65a11.38,11.38,0,0,1-9.69-4.79q-3.52-4.8-3.52-13.28t3.58-13.42a11.64,11.64,0,0,1,9.88-4.81,11.43,11.43,0,0,1,10.09,5.13H471a39,39,0,0,1-.72-7V641.29h9.59V690h-7.33l-1.85-4.54h-.41Q467,690.66,460.34,690.65Zm3.35-7.61q3.68,0,5.38-2.13c1.13-1.42,1.76-3.83,1.86-7.24v-1q0-5.64-1.74-8.08t-5.65-2.44a5.62,5.62,0,0,0-5,2.7q-1.77,2.71-1.77,7.88t1.79,7.75A5.82,5.82,0,0,0,463.69,683Z" transform="translate(0)"/><path d="M505.7,690.65q-8.46,0-13.22-4.67t-4.76-13.22q0-8.79,4.4-13.6t12.17-4.81q7.43,0,11.56,4.23T520,670.26v4.63H497.4a9.18,9.18,0,0,0,2.41,6.36,8.46,8.46,0,0,0,6.33,2.29,26.22,26.22,0,0,0,6-.66,30.15,30.15,0,0,0,5.89-2.1v7.39a22.39,22.39,0,0,1-5.36,1.87A33.58,33.58,0,0,1,505.7,690.65Zm-1.35-29.51a6.07,6.07,0,0,0-4.76,1.93,8.86,8.86,0,0,0-2,5.47H511a8,8,0,0,0-1.85-5.47A6.26,6.26,0,0,0,504.35,661.14Z" transform="translate(0)"/><path d="M547.29,654.35a15.31,15.31,0,0,1,3.23.28l-.72,9a10.84,10.84,0,0,0-2.82-.32,10.18,10.18,0,0,0-7.13,2.35,8.51,8.51,0,0,0-2.55,6.58V690h-9.55V655H535l1.41,5.89h.47a13.27,13.27,0,0,1,4.4-4.74A10.87,10.87,0,0,1,547.29,654.35Z" transform="translate(0)"/><path d="M572.73,690.65q-8.46,0-13.22-4.67t-4.76-13.22q0-8.79,4.4-13.6t12.17-4.81q7.42,0,11.55,4.23T587,670.26v4.63H564.43a9.13,9.13,0,0,0,2.41,6.36,8.45,8.45,0,0,0,6.32,2.29,26.24,26.24,0,0,0,6-.66,30.15,30.15,0,0,0,5.89-2.1v7.39a22.54,22.54,0,0,1-5.36,1.87A33.58,33.58,0,0,1,572.73,690.65Zm-1.35-29.51a6.07,6.07,0,0,0-4.76,1.93,8.86,8.86,0,0,0-2,5.47h13.4a8,8,0,0,0-1.85-5.47A6.27,6.27,0,0,0,571.38,661.14Z" transform="translate(0)"/><path d="M627.1,690h-9.55V669.57a9.83,9.83,0,0,0-1.35-5.69,4.91,4.91,0,0,0-4.29-1.89q-4,0-5.79,2.68c-1.2,1.78-1.79,4.74-1.79,8.88V690h-9.55V655h7.29l1.29,4.48h.53a10.07,10.07,0,0,1,4.4-3.83,15,15,0,0,1,6.38-1.3q6.11,0,9.27,3.3t3.16,9.54Z" transform="translate(0)"/><path d="M824.29,866.83l-11-35.93H813q.6,11,.59,14.63v21.3H804.9V821h13.22l10.83,35h.19l11.5-35h13.21v45.79H844.8V845.15c0-1,0-2.2.05-3.54s.17-4.88.42-10.65H845l-11.81,35.87Z" transform="translate(0)"/><path d="M880.48,867.45q-8.46,0-13.22-4.66t-4.76-13.22q0-8.8,4.4-13.61t12.17-4.81q7.42,0,11.56,4.23t4.13,11.68v4.64H872.18a9.21,9.21,0,0,0,2.41,6.36,8.49,8.49,0,0,0,6.33,2.28,26.73,26.73,0,0,0,6-.65,30.15,30.15,0,0,0,5.89-2.1V865a21.94,21.94,0,0,1-5.36,1.86A33.58,33.58,0,0,1,880.48,867.45ZM879.13,838a6.05,6.05,0,0,0-4.76,1.93,8.83,8.83,0,0,0-2,5.46h13.4a7.93,7.93,0,0,0-1.85-5.46A6.22,6.22,0,0,0,879.13,838Z" transform="translate(0)"/><path d="M902.12,822.76q0-4.66,5.2-4.67t5.2,4.67a4.55,4.55,0,0,1-1.3,3.46,5.5,5.5,0,0,1-3.9,1.24Q902.12,827.46,902.12,822.76Zm10,44.07h-9.55v-35h9.55Z" transform="translate(0)"/><path d="M954.43,866.83h-9.55V846.38a9.81,9.81,0,0,0-1.35-5.69,4.91,4.91,0,0,0-4.29-1.9c-2.68,0-4.61.9-5.8,2.68s-1.78,4.75-1.78,8.88v16.48H922.1v-35h7.3l1.29,4.48h.53a10.1,10.1,0,0,1,4.4-3.84,15.07,15.07,0,0,1,6.37-1.3q6.12,0,9.27,3.31t3.17,9.53Z" transform="translate(0)"/><path d="M980.11,867.45q-8.46,0-13.22-4.66t-4.76-13.22q0-8.8,4.4-13.61t12.17-4.81q7.42,0,11.56,4.23t4.14,11.68v4.64H971.81a9.26,9.26,0,0,0,2.41,6.36,8.52,8.52,0,0,0,6.33,2.28,26.73,26.73,0,0,0,6-.65,29.93,29.93,0,0,0,5.89-2.1V865a21.86,21.86,0,0,1-5.35,1.86A33.62,33.62,0,0,1,980.11,867.45ZM978.77,838a6.06,6.06,0,0,0-4.77,1.93,9,9,0,0,0-2,5.46h13.41a7.93,7.93,0,0,0-1.85-5.46A6.24,6.24,0,0,0,978.77,838Z" transform="translate(0)"/><path d="M1038.18,839h-8.27v27.85h-9.55V839h-5.26v-4.6l5.26-2.57v-2.57q0-6,2.94-8.74t9.43-2.75a24.53,24.53,0,0,1,8.8,1.47l-2.44,7a17.92,17.92,0,0,0-5.32-.9,3.47,3.47,0,0,0-3,1.2,5,5,0,0,0-.91,3.09v2.19h8.27Zm5.08-16.22q0-4.66,5.2-4.67c3.46,0,5.2,1.56,5.2,4.67a4.58,4.58,0,0,1-1.3,3.46,5.5,5.5,0,0,1-3.9,1.24Q1043.26,827.46,1043.26,822.76Zm10,44.07h-9.56v-35h9.56Z" transform="translate(0)"/><path d="M1095.53,866.83H1086V846.38a9.81,9.81,0,0,0-1.35-5.69,4.9,4.9,0,0,0-4.29-1.9c-2.67,0-4.6.9-5.79,2.68s-1.79,4.75-1.79,8.88v16.48h-9.55v-35h7.3l1.28,4.48h.53a10.21,10.21,0,0,1,4.4-3.84,15.12,15.12,0,0,1,6.38-1.3q6.11,0,9.27,3.31t3.16,9.53Z" transform="translate(0)"/><path d="M1127.61,866.83l-1.85-4.76h-.25a14.09,14.09,0,0,1-5,4.21,16.08,16.08,0,0,1-6.65,1.17,10.77,10.77,0,0,1-7.94-2.88q-2.9-2.88-2.9-8.2,0-5.58,3.9-8.23t11.76-2.92l6.08-.19v-1.54q0-5.32-5.45-5.32a24.71,24.71,0,0,0-9.87,2.54l-3.16-6.46a28.45,28.45,0,0,1,13.4-3.16q7.05,0,10.81,3.07t3.76,9.33v23.34Zm-2.82-16.23-3.7.13a11.79,11.79,0,0,0-6.2,1.5,4.72,4.72,0,0,0-2,4.2q0,4,4.64,4a7.37,7.37,0,0,0,5.31-1.91,6.73,6.73,0,0,0,2-5.07Z" transform="translate(0)"/><path d="M1176.44,866.83h-9.56V846.38a9.89,9.89,0,0,0-1.34-5.69,4.91,4.91,0,0,0-4.29-1.9c-2.68,0-4.61.9-5.8,2.68s-1.78,4.75-1.78,8.88v16.48h-9.56v-35h7.3l1.29,4.48h.53a10.1,10.1,0,0,1,4.4-3.84,15.07,15.07,0,0,1,6.37-1.3q6.11,0,9.27,3.31t3.17,9.53Z" transform="translate(0)"/><path d="M1210.64,866.83H1183v-5.64l16.23-22.08H1184v-7.3h26.13V838l-15.79,21.52h16.35Z" transform="translate(0)"/><path d="M1217.16,822.76q0-4.66,5.2-4.67t5.19,4.67a4.55,4.55,0,0,1-1.3,3.46,5.45,5.45,0,0,1-3.89,1.24Q1217.16,827.46,1217.16,822.76Zm10,44.07h-9.56v-35h9.56Z" transform="translate(0)"/><path d="M1253,867.45q-8.46,0-13.22-4.66T1235,849.57q0-8.8,4.4-13.61t12.17-4.81q7.43,0,11.56,4.23t4.13,11.68v4.64h-22.58a9.21,9.21,0,0,0,2.41,6.36,8.49,8.49,0,0,0,6.33,2.28,26.73,26.73,0,0,0,6-.65,30.15,30.15,0,0,0,5.89-2.1V865a21.94,21.94,0,0,1-5.36,1.86A33.58,33.58,0,0,1,1253,867.45Zm-1.35-29.5a6.05,6.05,0,0,0-4.76,1.93,8.83,8.83,0,0,0-2,5.46h13.4a7.89,7.89,0,0,0-1.85-5.46A6.22,6.22,0,0,0,1251.64,838Z" transform="translate(0)"/><path d="M1284.59,866.83H1275V818.09h9.55Z" transform="translate(0)"/><path d="M1304.17,866.83h-9.55V818.09h9.55Z" transform="translate(0)"/><path d="M1330,867.45q-8.46,0-13.22-4.66t-4.76-13.22q0-8.8,4.4-13.61t12.17-4.81q7.42,0,11.56,4.23t4.13,11.68v4.64h-22.58a9.21,9.21,0,0,0,2.41,6.36,8.51,8.51,0,0,0,6.33,2.28,26.73,26.73,0,0,0,6-.65,30.15,30.15,0,0,0,5.89-2.1V865a21.94,21.94,0,0,1-5.36,1.86A33.51,33.51,0,0,1,1330,867.45Zm-1.35-29.5a6.05,6.05,0,0,0-4.76,1.93,8.89,8.89,0,0,0-2,5.46h13.41a8,8,0,0,0-1.85-5.46A6.25,6.25,0,0,0,1328.69,838Z" transform="translate(0)"/><path d="M959.42,931.09a11.82,11.82,0,0,1-4.46,9.77q-4.46,3.57-12.42,3.57a29.09,29.09,0,0,1-13-2.76v-9a54.05,54.05,0,0,0,7.84,2.92,23.37,23.37,0,0,0,5.87.84,8.34,8.34,0,0,0,4.91-1.22,4.18,4.18,0,0,0,1.7-3.63,4,4,0,0,0-.75-2.4,8.46,8.46,0,0,0-2.21-2A56.59,56.59,0,0,0,941,924a28.37,28.37,0,0,1-6.3-3.79,14.25,14.25,0,0,1-3.35-4.23,12.12,12.12,0,0,1-1.25-5.64,11.82,11.82,0,0,1,4.12-9.55q4.11-3.48,11.38-3.48a27,27,0,0,1,6.81.85,46.49,46.49,0,0,1,6.79,2.38l-3.14,7.55A46.4,46.4,0,0,0,950,906a19.29,19.29,0,0,0-4.71-.59,6.22,6.22,0,0,0-4.23,1.28,4.55,4.55,0,0,0-.88,5.59,6.59,6.59,0,0,0,1.9,1.85,60.43,60.43,0,0,0,6.15,3.21q6.42,3.07,8.8,6.15A12,12,0,0,1,959.42,931.09Z" transform="translate(0)"/><path d="M966.57,899.73q0-4.66,5.2-4.66t5.19,4.66a4.59,4.59,0,0,1-1.29,3.47,5.5,5.5,0,0,1-3.9,1.23C968.3,904.43,966.57,902.87,966.57,899.73Zm10,44.07H967v-35h9.56Z" transform="translate(0)"/><path d="M1001.3,936.82a20.47,20.47,0,0,0,6-1.1v7.11a21.38,21.38,0,0,1-8.77,1.6c-3.83,0-6.61-1-8.35-2.9s-2.62-4.82-2.62-8.69V916H983v-4l5.26-3.2,2.76-7.39h6.11v7.46h9.8V916h-9.8v16.88a3.74,3.74,0,0,0,1.14,3A4.49,4.49,0,0,0,1001.3,936.82Z" transform="translate(0)"/><path d="M1039.2,943.8l-1.28-4.47h-.5a10.2,10.2,0,0,1-4.36,3.77,14.83,14.83,0,0,1-6.42,1.33q-6.17,0-9.3-3.3t-3.13-9.51V908.79h9.55v20.45a9.77,9.77,0,0,0,1.35,5.68,4.88,4.88,0,0,0,4.29,1.9q4,0,5.79-2.68t1.79-8.88V908.79h9.55v35Z" transform="translate(0)"/><path d="M1078.79,943.8,1077,939h-.26a14.1,14.1,0,0,1-5,4.22,16.1,16.1,0,0,1-6.66,1.17,10.78,10.78,0,0,1-7.94-2.88q-2.89-2.88-2.89-8.21,0-5.57,3.9-8.22t11.76-2.93L1076,922v-1.53c0-3.55-1.81-5.32-5.45-5.32a24.84,24.84,0,0,0-9.86,2.53l-3.17-6.45a28.46,28.46,0,0,1,13.41-3.16q7,0,10.81,3.07t3.75,9.33V943.8ZM1076,927.58l-3.69.13q-4.17.12-6.2,1.5a4.72,4.72,0,0,0-2,4.2q0,4,4.64,4a7.37,7.37,0,0,0,5.31-1.91,6.75,6.75,0,0,0,2-5.08Z" transform="translate(0)"/><path d="M1110.05,936.82a20.47,20.47,0,0,0,6-1.1v7.11a21.38,21.38,0,0,1-8.77,1.6c-3.83,0-6.61-1-8.35-2.9s-2.62-4.82-2.62-8.69V916h-4.57v-4l5.26-3.2,2.76-7.39h6.11v7.46h9.8V916h-9.8v16.88a3.74,3.74,0,0,0,1.14,3A4.49,4.49,0,0,0,1110.05,936.82Z" transform="translate(0)"/><path d="M1122.74,899.73q0-4.66,5.2-4.66c3.46,0,5.2,1.55,5.2,4.66a4.59,4.59,0,0,1-1.3,3.47,5.5,5.5,0,0,1-3.9,1.23C1124.47,904.43,1122.74,902.87,1122.74,899.73Zm10,44.07h-9.55v-35h9.55Z" transform="translate(0)"/><path d="M1174.54,926.23q0,8.55-4.51,13.38t-12.56,4.82a17.48,17.48,0,0,1-8.89-2.21,14.66,14.66,0,0,1-5.92-6.34,21.3,21.3,0,0,1-2.07-9.65q0-8.58,4.48-13.34t12.59-4.76a17.71,17.71,0,0,1,8.9,2.19,14.61,14.61,0,0,1,5.92,6.3A21.07,21.07,0,0,1,1174.54,926.23Zm-24.21,0q0,5.21,1.71,7.86t5.56,2.67q3.83,0,5.5-2.65t1.67-7.88q0-5.19-1.69-7.8c-1.13-1.73-3-2.6-5.54-2.6s-4.39.87-5.52,2.59S1150.33,922.75,1150.33,926.23Z" transform="translate(0)"/><path d="M1214.76,943.8h-9.55V923.35a9.8,9.8,0,0,0-1.35-5.68,4.89,4.89,0,0,0-4.29-1.9q-4,0-5.79,2.68c-1.19,1.79-1.79,4.74-1.79,8.88V943.8h-9.55v-35h7.3l1.28,4.48h.53a10.09,10.09,0,0,1,4.4-3.84,15,15,0,0,1,6.38-1.3q6.11,0,9.27,3.3t3.16,9.54Z" transform="translate(0)"/><path d="M294,862.25l-11-35.93h-.28q.6,11,.6,14.63v21.3H274.6v-45.8h13.22l10.84,35h.18l11.5-35h13.22v45.8h-9.05V840.57c0-1,0-2.2,0-3.54s.17-4.88.43-10.65h-.29l-11.81,35.87Z" transform="translate(0)"/><path d="M356.57,862.25l-1.85-4.76h-.25a14.15,14.15,0,0,1-5,4.21,16.1,16.1,0,0,1-6.66,1.17,10.77,10.77,0,0,1-7.94-2.88q-2.9-2.88-2.9-8.21,0-5.56,3.9-8.22t11.77-2.93l6.07-.18v-1.54c0-3.55-1.81-5.32-5.45-5.32a24.76,24.76,0,0,0-9.86,2.53l-3.17-6.45a28.46,28.46,0,0,1,13.41-3.16q7.05,0,10.8,3.07c2.51,2,3.76,5.16,3.76,9.33v23.34ZM353.75,846l-3.69.13a11.83,11.83,0,0,0-6.21,1.5,4.74,4.74,0,0,0-2,4.2q0,4,4.63,4a7.34,7.34,0,0,0,5.31-1.91,6.72,6.72,0,0,0,2-5.08Z" transform="translate(0)"/><path d="M405.4,862.25h-9.55V841.79a9.8,9.8,0,0,0-1.35-5.68,4.89,4.89,0,0,0-4.29-1.9c-2.67,0-4.6.9-5.79,2.68s-1.79,4.75-1.79,8.88v16.48h-9.55v-35h7.3l1.28,4.48h.53a10.15,10.15,0,0,1,4.4-3.84,15,15,0,0,1,6.38-1.3q6.11,0,9.27,3.31t3.16,9.53Z" transform="translate(0)"/><path d="M445.71,827.23v4.85l-5.48,1.41a9.58,9.58,0,0,1,1.5,5.26,10.63,10.63,0,0,1-3.93,8.79q-3.93,3.15-10.91,3.15l-1.72-.1-1.41-.15a3.15,3.15,0,0,0-1.48,2.5q0,2.07,5.27,2.07h5.95q5.76,0,8.78,2.48c2,1.64,3,4.07,3,7.26a10.77,10.77,0,0,1-5.13,9.52q-5.12,3.39-14.7,3.39-7.34,0-11.2-2.56a8.09,8.09,0,0,1-3.87-7.15,7.49,7.49,0,0,1,2-5.3,11.11,11.11,0,0,1,5.79-3,6.45,6.45,0,0,1-2.57-2.06,5,5,0,0,1,.07-6.35,13.22,13.22,0,0,1,3.35-2.62,9.36,9.36,0,0,1-4.37-3.82,11.6,11.6,0,0,1-1.62-6.2q0-5.73,3.73-8.87t10.65-3.13a26.78,26.78,0,0,1,3.49.27c1.35.17,2.21.3,2.59.39Zm-27,40a3.47,3.47,0,0,0,1.9,3.1,10.44,10.44,0,0,0,5.31,1.12,18.84,18.84,0,0,0,8.05-1.41q2.91-1.41,2.91-3.85a2.73,2.73,0,0,0-1.72-2.72,14.14,14.14,0,0,0-5.33-.76h-4.95a7.54,7.54,0,0,0-4.4,1.24A3.83,3.83,0,0,0,418.68,867.2Zm3.48-28.51a7.1,7.1,0,0,0,1.3,4.51,4.71,4.71,0,0,0,4,1.66,4.62,4.62,0,0,0,3.95-1.66,7.34,7.34,0,0,0,1.25-4.51c0-4.22-1.73-6.32-5.2-6.32S422.16,834.47,422.16,838.69Z" transform="translate(0)"/><path d="M467.33,862.87q-8.46,0-13.22-4.66T449.35,845q0-8.81,4.4-13.61t12.17-4.81c4.94,0,8.8,1.41,11.55,4.23s4.14,6.71,4.14,11.68v4.64H459a9.22,9.22,0,0,0,2.42,6.36,8.48,8.48,0,0,0,6.32,2.28,26.24,26.24,0,0,0,6-.66,29.16,29.16,0,0,0,5.88-2.09v7.39a22.73,22.73,0,0,1-5.35,1.86A33.58,33.58,0,0,1,467.33,862.87ZM466,833.37a6.06,6.06,0,0,0-4.76,1.92,9,9,0,0,0-2,5.47h13.41a8,8,0,0,0-1.85-5.47A6.27,6.27,0,0,0,466,833.37Z" transform="translate(0)"/><path d="M498.93,862.25h-9.55V813.51h9.55Z" transform="translate(0)"/><path d="M547.85,862.25,546,857.49h-.26a14.06,14.06,0,0,1-5,4.21,16.1,16.1,0,0,1-6.66,1.17,10.78,10.78,0,0,1-7.94-2.88q-2.9-2.88-2.89-8.21,0-5.56,3.9-8.22T539,840.63l6.07-.18v-1.54c0-3.55-1.81-5.32-5.45-5.32a24.84,24.84,0,0,0-9.86,2.53l-3.17-6.45A28.46,28.46,0,0,1,540,826.51q7,0,10.81,3.07c2.5,2,3.76,5.16,3.76,9.33v23.34ZM545,846l-3.69.13q-4.17.12-6.2,1.5a4.72,4.72,0,0,0-2,4.2q0,4,4.64,4a7.37,7.37,0,0,0,5.31-1.91,6.75,6.75,0,0,0,2-5.08Z" transform="translate(0)"/><path d="M596.68,862.25h-9.55V841.79a9.8,9.8,0,0,0-1.35-5.68,4.87,4.87,0,0,0-4.29-1.9c-2.67,0-4.6.9-5.79,2.68s-1.79,4.75-1.79,8.88v16.48h-9.55v-35h7.3l1.28,4.48h.53a10.18,10.18,0,0,1,4.41-3.84,14.89,14.89,0,0,1,6.37-1.3q6.11,0,9.27,3.31t3.16,9.53Z" transform="translate(0)"/><path d="M206.85,939.22V893.43h9.71v45.79Z" transform="translate(0)"/><path d="M259.66,939.22h-9.55V918.77a9.83,9.83,0,0,0-1.35-5.69,4.91,4.91,0,0,0-4.29-1.89q-4,0-5.8,2.68t-1.78,8.88v16.47h-9.55v-35h7.29l1.29,4.47h.53a10.07,10.07,0,0,1,4.4-3.83,15,15,0,0,1,6.38-1.3q6.11,0,9.27,3.3t3.16,9.54Z" transform="translate(0)"/><path d="M288.85,911.38h-8.27v27.84H271V911.38h-5.26v-4.61l5.26-2.56v-2.57q0-6,2.94-8.74t9.43-2.76a24.53,24.53,0,0,1,8.8,1.47l-2.44,7a17.68,17.68,0,0,0-5.32-.91,3.45,3.45,0,0,0-2.95,1.21,5,5,0,0,0-.91,3.08v2.2h8.27Z" transform="translate(0)"/><path d="M326.16,921.65q0,8.55-4.51,13.38t-12.56,4.82a17.59,17.59,0,0,1-8.9-2.21,14.71,14.71,0,0,1-5.92-6.34,21.3,21.3,0,0,1-2.07-9.65q0-8.58,4.48-13.34t12.59-4.76a17.69,17.69,0,0,1,8.9,2.19,14.61,14.61,0,0,1,5.92,6.3A21.07,21.07,0,0,1,326.16,921.65Zm-24.22,0q0,5.21,1.71,7.86c1.14,1.78,3,2.66,5.56,2.66s4.38-.88,5.5-2.64,1.67-4.39,1.67-7.88-.56-6.07-1.69-7.8-3-2.6-5.54-2.6-4.39.86-5.51,2.59S301.94,918.16,301.94,921.65Z" transform="translate(0)"/><path d="M353.6,903.55a15.27,15.27,0,0,1,3.22.28l-.72,9a10.84,10.84,0,0,0-2.82-.32,10.14,10.14,0,0,0-7.12,2.35,8.48,8.48,0,0,0-2.56,6.58v17.82h-9.55v-35h7.24l1.4,5.88h.47a13.21,13.21,0,0,1,4.41-4.74A10.82,10.82,0,0,1,353.6,903.55Z" transform="translate(0)"/><path d="M394.53,939.22H385V918.77a10.29,10.29,0,0,0-1.27-5.69,4.46,4.46,0,0,0-4-1.89,5.8,5.8,0,0,0-5.33,2.69c-1.1,1.8-1.66,4.75-1.66,8.87v16.47h-9.55v-35h7.3l1.28,4.47h.53a9.75,9.75,0,0,1,4.08-3.77,13.17,13.17,0,0,1,6.1-1.36q7.86,0,10.65,5.13H394a9.45,9.45,0,0,1,4.15-3.79,14,14,0,0,1,6.19-1.34q5.94,0,9,3.05t3.05,9.79v22.83h-9.58V918.77a10.29,10.29,0,0,0-1.27-5.69,4.46,4.46,0,0,0-4-1.89,6,6,0,0,0-5.25,2.51q-1.74,2.5-1.74,7.95Z" transform="translate(0)"/><path d="M448.41,939.22l-1.85-4.76h-.25a14.07,14.07,0,0,1-5,4.21,15.91,15.91,0,0,1-6.65,1.18,10.77,10.77,0,0,1-7.94-2.88q-2.89-2.88-2.9-8.21,0-5.58,3.9-8.22t11.76-2.93l6.08-.19v-1.53q0-5.32-5.45-5.33a24.88,24.88,0,0,0-9.87,2.54l-3.16-6.45a28.46,28.46,0,0,1,13.4-3.17q7,0,10.81,3.07t3.76,9.34v23.33ZM445.59,923l-3.7.12a11.87,11.87,0,0,0-6.2,1.51,4.71,4.71,0,0,0-2,4.19c0,2.7,1.55,4,4.64,4A7.33,7.33,0,0,0,443.6,931a6.72,6.72,0,0,0,2-5.07Z" transform="translate(0)"/><path d="M479.67,932.24a20.75,20.75,0,0,0,6-1.1v7.11a21.34,21.34,0,0,1-8.77,1.6q-5.73,0-8.35-2.9T466,928.26V911.38h-4.58v-4l5.27-3.2,2.75-7.39h6.11v7.46h9.8v7.17h-9.8v16.88a3.74,3.74,0,0,0,1.14,3A4.55,4.55,0,0,0,479.67,932.24Z" transform="translate(0)"/><path d="M492.35,895.15q0-4.67,5.2-4.66t5.2,4.66a4.52,4.52,0,0,1-1.3,3.46,5.45,5.45,0,0,1-3.9,1.24C494.08,899.85,492.35,898.29,492.35,895.15Zm10,44.07h-9.55v-35h9.55Z" transform="translate(0)"/><path d="M544.16,921.65q0,8.55-4.51,13.38t-12.56,4.82a17.59,17.59,0,0,1-8.9-2.21,14.71,14.71,0,0,1-5.92-6.34,21.3,21.3,0,0,1-2.07-9.65q0-8.58,4.48-13.34t12.59-4.76a17.69,17.69,0,0,1,8.9,2.19,14.61,14.61,0,0,1,5.92,6.3A21.07,21.07,0,0,1,544.16,921.65Zm-24.21,0c0,3.47.56,6.09,1.7,7.86s3,2.66,5.56,2.66,4.38-.88,5.5-2.64,1.67-4.39,1.67-7.88-.56-6.07-1.69-7.8-3-2.6-5.54-2.6-4.39.86-5.51,2.59S520,918.16,520,921.65Z" transform="translate(0)"/><path d="M584.38,939.22h-9.56V918.77a9.83,9.83,0,0,0-1.35-5.69,4.89,4.89,0,0,0-4.29-1.89q-4,0-5.79,2.68t-1.79,8.88v16.47h-9.55v-35h7.3l1.28,4.47h.54a10,10,0,0,1,4.4-3.83,14.89,14.89,0,0,1,6.37-1.3q6.1,0,9.27,3.3t3.17,9.54Z" transform="translate(0)"/><path d="M610.06,939.85q-8.46,0-13.22-4.67T592.08,922q0-8.79,4.4-13.61t12.17-4.8q7.43,0,11.56,4.23t4.13,11.68v4.63H601.76a9.18,9.18,0,0,0,2.41,6.36,8.46,8.46,0,0,0,6.33,2.29,26.16,26.16,0,0,0,6-.66,30.15,30.15,0,0,0,5.89-2.1v7.4a22.81,22.81,0,0,1-5.36,1.86A33.58,33.58,0,0,1,610.06,939.85Zm-1.35-29.51a6.08,6.08,0,0,0-4.76,1.93,8.86,8.86,0,0,0-2,5.47h13.4a8,8,0,0,0-1.84-5.47A6.28,6.28,0,0,0,608.71,910.34Z" transform="translate(0)"/><path d="M664.43,939.22h-9.55V918.77a9.83,9.83,0,0,0-1.35-5.69,4.9,4.9,0,0,0-4.29-1.89q-4,0-5.79,2.68t-1.79,8.88v16.47h-9.55v-35h7.3l1.28,4.47h.53a10.12,10.12,0,0,1,4.4-3.83,15,15,0,0,1,6.38-1.3q6.11,0,9.27,3.3t3.16,9.54Z" transform="translate(0)"/><path d="M839.48,654.29v-45.8h9.71v45.8Z" transform="translate(0)"/><path d="M874.18,654.91q-16.35,0-16.35-17.95,0-8.93,4.45-13.64T875,618.61a24.28,24.28,0,0,1,10.9,2.38l-2.82,7.39c-1.5-.6-2.9-1.1-4.2-1.48a13.37,13.37,0,0,0-3.88-.58q-7.46,0-7.46,10.58,0,10.27,7.46,10.28a16.94,16.94,0,0,0,5.1-.74,18.38,18.38,0,0,0,4.7-2.3v8.17a15.44,15.44,0,0,1-4.68,2A26.76,26.76,0,0,1,874.18,654.91Z" transform="translate(0)"/><path d="M925.27,654.29h-9.55V633.83q0-7.58-5.64-7.58c-2.67,0-4.61.91-5.8,2.73s-1.78,4.76-1.78,8.83v16.48H893V605.55h9.55v9.93c0,.77-.08,2.59-.22,5.45l-.22,2.82h.5q3.2-5.14,10.15-5.14,6.16,0,9.36,3.32t3.2,9.52Z" transform="translate(0)"/><path d="M983.12,654.29h-9.55V633.83a10.34,10.34,0,0,0-1.27-5.68,4.46,4.46,0,0,0-4-1.9A5.79,5.79,0,0,0,963,629c-1.11,1.79-1.66,4.75-1.66,8.86v16.48h-9.55v-35h7.3l1.28,4.48h.53A9.74,9.74,0,0,1,965,620a13.21,13.21,0,0,1,6.11-1.36q7.86,0,10.65,5.14h.85a9.45,9.45,0,0,1,4.15-3.79,13.79,13.79,0,0,1,6.18-1.35q6,0,9,3t3.05,9.79v22.84h-9.58V633.83a10.34,10.34,0,0,0-1.27-5.68,4.46,4.46,0,0,0-4-1.9,6,6,0,0,0-5.25,2.51q-1.74,2.5-1.74,8Z" transform="translate(0)"/><path d="M1014.35,610.22c0-3.12,1.73-4.67,5.2-4.67s5.2,1.55,5.2,4.67a4.58,4.58,0,0,1-1.3,3.46,5.5,5.5,0,0,1-3.9,1.23Q1014.35,614.91,1014.35,610.22Zm10,44.07h-9.55v-35h9.55Z" transform="translate(0)"/><path d="M1048.55,654.91q-16.35,0-16.35-17.95,0-8.93,4.45-13.64t12.75-4.71a24.28,24.28,0,0,1,10.9,2.38l-2.82,7.39c-1.5-.6-2.9-1.1-4.2-1.48a13.37,13.37,0,0,0-3.88-.58q-7.45,0-7.46,10.58,0,10.27,7.46,10.28a16.94,16.94,0,0,0,5.1-.74,18.38,18.38,0,0,0,4.7-2.3v8.17a15.44,15.44,0,0,1-4.68,2A26.76,26.76,0,0,1,1048.55,654.91Z" transform="translate(0)"/><path d="M1099.64,654.29h-9.56V633.83q0-7.58-5.63-7.58-4,0-5.8,2.73c-1.19,1.81-1.78,4.76-1.78,8.83v16.48h-9.56V605.55h9.56v9.93c0,.77-.08,2.59-.22,5.45l-.22,2.82h.5q3.19-5.14,10.15-5.14,6.17,0,9.36,3.32t3.2,9.52Z" transform="translate(0)"/><path d="M1150.57,643.89q0,5.39-3.75,8.2t-11.19,2.82a35.7,35.7,0,0,1-6.52-.51,25,25,0,0,1-5-1.52V645a32.39,32.39,0,0,0,6,2.1,24,24,0,0,0,5.87.85q5.2,0,5.2-3a2.51,2.51,0,0,0-.69-1.83,10.08,10.08,0,0,0-2.38-1.6c-1.13-.59-2.63-1.29-4.51-2.08a28.82,28.82,0,0,1-5.94-3.13,8.82,8.82,0,0,1-2.75-3.31,10.81,10.81,0,0,1-.86-4.59,8.33,8.33,0,0,1,3.61-7.22q3.63-2.55,10.26-2.55a29.09,29.09,0,0,1,12.31,2.76l-2.88,6.89a52.47,52.47,0,0,0-4.92-1.85,15.42,15.42,0,0,0-4.66-.72q-4.23,0-4.23,2.29a2.69,2.69,0,0,0,1.36,2.22,36.63,36.63,0,0,0,6,2.79,27.45,27.45,0,0,1,6,3.1,9.27,9.27,0,0,1,2.82,3.32A10.26,10.26,0,0,1,1150.57,643.89Z" transform="translate(0)"/><path d="M1173.87,654.91q-8.46,0-13.22-4.66T1155.89,637q0-8.81,4.4-13.61t12.17-4.81q7.43,0,11.56,4.23t4.13,11.68v4.64h-22.58a9.21,9.21,0,0,0,2.41,6.36,8.51,8.51,0,0,0,6.33,2.28,26.16,26.16,0,0,0,6-.66,29.45,29.45,0,0,0,5.89-2.09v7.39a22.81,22.81,0,0,1-5.36,1.86A33.51,33.51,0,0,1,1173.87,654.91Zm-1.35-29.5a6.08,6.08,0,0,0-4.76,1.92,9,9,0,0,0-2,5.47h13.41a8,8,0,0,0-1.85-5.47A6.27,6.27,0,0,0,1172.52,625.41Z" transform="translate(0)"/><path d="M1205.47,654.29h-9.55V605.55h9.55Z" transform="translate(0)"/><path d="M1235,618.61a11.33,11.33,0,0,1,9.71,4.84q3.51,4.84,3.51,13.26,0,8.68-3.62,13.44a12.63,12.63,0,0,1-19.53.28h-.66l-1.59,3.86h-7.3V605.55h9.55v11.34c0,1.44-.12,3.75-.38,6.92h.38A11,11,0,0,1,1235,618.61Zm-3.07,7.64q-3.54,0-5.17,2.18c-1.08,1.45-1.65,3.85-1.69,7.19v1q0,5.64,1.68,8.08a6,6,0,0,0,5.31,2.45,5.34,5.34,0,0,0,4.68-2.71q1.74-2.72,1.74-7.88t-1.76-7.75A5.48,5.48,0,0,0,1231.91,626.25Z" transform="translate(0)"/><path d="M1280.52,643.89q0,5.39-3.74,8.2t-11.2,2.82a35.51,35.51,0,0,1-6.51-.51,24.94,24.94,0,0,1-5-1.52V645a32.91,32.91,0,0,0,6,2.1,24,24,0,0,0,5.88.85q5.19,0,5.19-3a2.5,2.5,0,0,0-.68-1.83,10.3,10.3,0,0,0-2.38-1.6c-1.13-.59-2.64-1.29-4.52-2.08a28.43,28.43,0,0,1-5.93-3.13,8.94,8.94,0,0,1-2.76-3.31,11,11,0,0,1-.86-4.59,8.34,8.34,0,0,1,3.62-7.22q3.62-2.55,10.26-2.55a29.12,29.12,0,0,1,12.31,2.76l-2.88,6.89q-2.64-1.12-4.92-1.85a15.48,15.48,0,0,0-4.67-.72q-4.23,0-4.23,2.29a2.71,2.71,0,0,0,1.36,2.22,36.63,36.63,0,0,0,6,2.79,27.56,27.56,0,0,1,6,3.1,9.14,9.14,0,0,1,2.81,3.32A10.12,10.12,0,0,1,1280.52,643.89Z" transform="translate(0)"/><path d="M1302.73,647.3a20.63,20.63,0,0,0,6-1.09v7.1a21.34,21.34,0,0,1-8.77,1.6q-5.73,0-8.34-2.89c-1.75-1.94-2.62-4.83-2.62-8.7V626.44h-4.57v-4l5.26-3.19,2.76-7.4h6.1v7.46h9.81v7.17h-9.81v16.88a3.75,3.75,0,0,0,1.15,3A4.49,4.49,0,0,0,1302.73,647.3Z" transform="translate(0)"/><path class="cls-2" d="M1389.58,749.65H756.63V511.23h632.95ZM769,737.29h608.21V523.61H769Z" transform="translate(0)"/><path class="cls-2" d="M1366.4,727.61H779.82V533.28H1366.4ZM790.56,716.87h565.1V544H790.56Z" transform="translate(0)"/><path class="cls-3" d="M744.68,749.65H111.73V511.23H744.68ZM124.09,737.29H732.31V523.61H124.09Z" transform="translate(0)"/><path class="cls-4" d="M1412.86,1021.77H89.85V488.67h1323ZM102.22,1009.41H1400.5V501H102.22Z" transform="translate(0)"/><path class="cls-4" d="M1434.91,1045.23H67.82V468.09H1434.91ZM80.19,1032.86H1422.54V480.46H80.19Z" transform="translate(0)"/><path class="cls-4" d="M1457.67,1069H42.92V443.15H1457.67ZM55.31,1056.61h1390V455.54H55.31Z" transform="translate(0)"/><path class="cls-4" d="M1480,1091.89H19.87V422.51H1480ZM32.23,1079.52h1435.4V434.88H32.23Z" transform="translate(0)"/><path class="cls-3" d="M721.39,727.51H135V533.38H721.39ZM145.55,717h565.3V543.92H145.55Z" transform="translate(0)"/><path class="cls-5" d="M744.68,997.71H111.73V759.3H744.68ZM124.09,985.34H732.31V771.66H124.09Z" transform="translate(0)"/><path class="cls-5" d="M721.39,975.57H135V781.44H721.39ZM145.55,965h565.3V792H145.55Z" transform="translate(0)"/><path class="cls-6" d="M1389.58,997.71H756.63V759.3h632.95ZM769,985.34h608.21V771.66H769Z" transform="translate(0)"/><path class="cls-6" d="M1366.3,975.57H779.92V781.44H1366.3ZM790.46,965h565.3V792H790.46Z" transform="translate(0)"/></g></svg>