<svg xmlns="http://www.w3.org/2000/svg" viewBox="0 0 1500 1500"><defs><style>.cls-1{fill:#fff;}.cls-2{fill:#38d7f2;}</style></defs><title>8moeglichkeiten_en</title><g id="Layer_4" data-name="Layer 4"><rect class="cls-1" width="1500" height="1500"/></g><g id="Layer_30_copy_2" data-name="Layer 30 copy 2"><polygon class="cls-2" points="1346.41 948.69 1373.42 975.71 1433.1 915.85 1403.48 886.23 1441.41 848.3 1138.64 545.54 1040.95 643.23 1078.21 680.49 1056.37 702.33 1019.11 665.07 889.81 794.37 973.41 877.98 951.57 899.81 781.75 729.99 803.58 708.15 866.21 770.77 1077.12 559.87 953.87 436.62 932.21 414.96 953.87 393.29 970.13 377.03 803.95 210.85 706.26 308.54 739.81 342.09 717.97 363.92 645.57 291.52 516.26 420.83 721.21 625.78 872.36 474.64 894.19 496.47 721.19 669.48 699.35 647.64 699.38 647.62 427.08 375.33 44 758.41 135.47 849.88 214.05 773.35 339.07 898.37 512.07 725.37 533.91 747.21 360.91 920.21 825.45 1384.76 1130.98 1079.23 1034.99 983.23 1056.83 961.39 1252.13 1156.7 1381.56 1027.27 1135.82 781.78 1157.66 759.94 1346.41 948.69"/><path class="cls-1" d="M1165.6,992.9a9.47,9.47,0,0,1-6.94-2.46q-2.51-2.45-2.5-6.94t2.31-7.15a8.23,8.23,0,0,1,6.39-2.52,8.1,8.1,0,0,1,6.07,2.22,8.38,8.38,0,0,1,2.17,6.13v2.44h-11.86a4.86,4.86,0,0,0,1.27,3.34,4.46,4.46,0,0,0,3.32,1.2,14.32,14.32,0,0,0,3.14-.34,16.16,16.16,0,0,0,3.1-1.11v3.89a12,12,0,0,1-2.82,1A17.16,17.16,0,0,1,1165.6,992.9Zm-.71-15.5a3.18,3.18,0,0,0-2.5,1,4.64,4.64,0,0,0-1,2.87h7a4.19,4.19,0,0,0-1-2.87A3.28,3.28,0,0,0,1164.89,977.4Z" transform="translate(0)"/><path class="cls-1" d="M1194.17,992.57h-5V981.82a5.16,5.16,0,0,0-.71-3,2.55,2.55,0,0,0-2.25-1,3.4,3.4,0,0,0-3,1.41,8.74,8.74,0,0,0-.94,4.66v8.66h-5v-18.4H1181l.67,2.35h.28a5.29,5.29,0,0,1,2.32-2,7.76,7.76,0,0,1,3.34-.68,6.41,6.41,0,0,1,4.87,1.73,7,7,0,0,1,1.67,5Z" transform="translate(0)"/><path class="cls-1" d="M1197.85,1000.66a11.87,11.87,0,0,1-3.31-.41v-4a8.94,8.94,0,0,0,2.36.31,2.27,2.27,0,0,0,1.85-.7,3.23,3.23,0,0,0,.58-2.09V974.17h5v20.39a5.86,5.86,0,0,1-1.69,4.51A6.78,6.78,0,0,1,1197.85,1000.66Zm1.27-31.24q0-2.46,2.73-2.46t2.73,2.46a2.38,2.38,0,0,1-.68,1.81,2.85,2.85,0,0,1-2.05.65Q1199.12,971.88,1199.12,969.42Z" transform="translate(0)"/><path class="cls-1" d="M1226.33,983.34a9.88,9.88,0,0,1-2.37,7,8.6,8.6,0,0,1-6.6,2.54,9.27,9.27,0,0,1-4.67-1.16,7.8,7.8,0,0,1-3.11-3.34,11.19,11.19,0,0,1-1.08-5.06q0-4.51,2.35-7a8.62,8.62,0,0,1,6.61-2.5,9.28,9.28,0,0,1,4.68,1.15,7.75,7.75,0,0,1,3.11,3.3A11.19,11.19,0,0,1,1226.33,983.34Zm-12.72,0a7.72,7.72,0,0,0,.9,4.13,3.21,3.21,0,0,0,2.92,1.39,3.15,3.15,0,0,0,2.89-1.39,7.76,7.76,0,0,0,.88-4.13,7.63,7.63,0,0,0-.89-4.1,3.77,3.77,0,0,0-5.81,0A7.62,7.62,0,0,0,1213.61,983.34Z" transform="translate(0)"/><path class="cls-1" d="M1227.85,974.17h5.49l3.47,10.35a14.13,14.13,0,0,1,.61,3.19h.1a14.13,14.13,0,0,1,.71-3.19l3.4-10.35H1247l-7.78,20.75a9,9,0,0,1-3,4.31,7.74,7.74,0,0,1-4.63,1.43,11.39,11.39,0,0,1-2.55-.28v-4a8.69,8.69,0,0,0,2,.21,3.57,3.57,0,0,0,2.33-.81,5.34,5.34,0,0,0,1.56-2.46l.29-.91Z" transform="translate(0)"/><path class="cls-1" d="M1249.43,969.42c0-1.64.91-2.46,2.74-2.46s2.73.82,2.73,2.46a2.35,2.35,0,0,1-.69,1.81,2.81,2.81,0,0,1-2,.65C1250.34,971.88,1249.43,971.06,1249.43,969.42Zm5.24,23.15h-5v-18.4h5Z" transform="translate(0)"/><path class="cls-1" d="M1276.91,992.57h-5V981.82a5.08,5.08,0,0,0-.71-3,2.55,2.55,0,0,0-2.25-1,3.38,3.38,0,0,0-3,1.41,8.64,8.64,0,0,0-.94,4.66v8.66h-5v-18.4h3.83l.68,2.35h.28a5.32,5.32,0,0,1,2.31-2,7.8,7.8,0,0,1,3.35-.68,6.42,6.42,0,0,1,4.87,1.73,7,7,0,0,1,1.66,5Z" transform="translate(0)"/><path class="cls-1" d="M1298.09,974.17v2.55l-2.88.74a5.09,5.09,0,0,1,.79,2.77,5.57,5.57,0,0,1-2.07,4.61,9,9,0,0,1-5.73,1.66l-.91,0-.74-.09a1.7,1.7,0,0,0-.77,1.32c0,.72.92,1.09,2.76,1.09h3.13a7.13,7.13,0,0,1,4.62,1.3,4.64,4.64,0,0,1,1.58,3.81,5.64,5.64,0,0,1-2.69,5c-1.79,1.19-4.37,1.78-7.72,1.78a10.7,10.7,0,0,1-5.88-1.34,4.25,4.25,0,0,1-2-3.76,3.94,3.94,0,0,1,1-2.78,5.89,5.89,0,0,1,3-1.6,3.42,3.42,0,0,1-1.35-1.07,2.58,2.58,0,0,1-.57-1.59,2.54,2.54,0,0,1,.61-1.75,6.82,6.82,0,0,1,1.76-1.38,4.87,4.87,0,0,1-2.3-2,6.12,6.12,0,0,1-.85-3.25,5.77,5.77,0,0,1,2-4.66,8.46,8.46,0,0,1,5.6-1.64,13.22,13.22,0,0,1,1.83.14c.71.09,1.16.16,1.36.2Zm-14.2,21a1.8,1.8,0,0,0,1,1.62,5.45,5.45,0,0,0,2.79.6,9.94,9.94,0,0,0,4.23-.74,2.27,2.27,0,0,0,1.53-2,1.44,1.44,0,0,0-.9-1.43,7.54,7.54,0,0,0-2.8-.39h-2.6a3.89,3.89,0,0,0-2.31.65A2,2,0,0,0,1283.89,995.17Zm1.82-15a3.71,3.71,0,0,0,.69,2.37,2.46,2.46,0,0,0,2.08.87,2.43,2.43,0,0,0,2.07-.87,3.83,3.83,0,0,0,.66-2.37q0-3.32-2.73-3.32T1285.71,980.19Z" transform="translate(0)"/><path class="cls-1" d="M1179.88,1033h-5v-10.74c0-2.66-1-4-3-4a3.36,3.36,0,0,0-3.05,1.43,8.78,8.78,0,0,0-.94,4.64V1033h-5v-25.6h5v5.22c0,.4,0,1.36-.11,2.86l-.12,1.48h.27a5.81,5.81,0,0,1,5.33-2.7,6.5,6.5,0,0,1,4.92,1.75,6.92,6.92,0,0,1,1.68,5Z" transform="translate(0)"/><path class="cls-1" d="M1201.76,1023.77a9.89,9.89,0,0,1-2.37,7,8.59,8.59,0,0,1-6.6,2.53,9.17,9.17,0,0,1-4.67-1.16,7.66,7.66,0,0,1-3.11-3.33,11.27,11.27,0,0,1-1.09-5.07,9.84,9.84,0,0,1,2.36-7,8.65,8.65,0,0,1,6.61-2.5,9.34,9.34,0,0,1,4.67,1.15,7.66,7.66,0,0,1,3.11,3.31A11,11,0,0,1,1201.76,1023.77Zm-12.72,0a7.69,7.69,0,0,0,.9,4.13,3.2,3.2,0,0,0,2.92,1.4,3.15,3.15,0,0,0,2.89-1.39,7.93,7.93,0,0,0,.87-4.14,7.6,7.6,0,0,0-.88-4.09,3.77,3.77,0,0,0-5.81,0A7.58,7.58,0,0,0,1189,1023.77Z" transform="translate(0)"/><path class="cls-1" d="M1216.14,1014.26a6,6,0,0,1,5.1,2.54,11.67,11.67,0,0,1,1.84,7q0,4.56-1.9,7.06a6.64,6.64,0,0,1-10.26.15h-.34l-.84,2h-3.83v-25.6h5v6c0,.75-.06,2-.19,3.63h.19A5.82,5.82,0,0,1,1216.14,1014.26Zm-1.61,4a3.18,3.18,0,0,0-2.72,1.14,6.63,6.63,0,0,0-.89,3.78v.54a7.79,7.79,0,0,0,.88,4.24,3.14,3.14,0,0,0,2.79,1.29,2.81,2.81,0,0,0,2.46-1.43,7.64,7.64,0,0,0,.92-4.13,7.28,7.28,0,0,0-.93-4.08A2.88,2.88,0,0,0,1214.53,1018.28Z" transform="translate(0)"/><path class="cls-1" d="M1237.46,1014.26a5.94,5.94,0,0,1,5.1,2.54,11.67,11.67,0,0,1,1.85,7,11.51,11.51,0,0,1-1.9,7.06,6.16,6.16,0,0,1-5.18,2.5,6.09,6.09,0,0,1-5.08-2.35h-.35l-.84,2h-3.83v-25.6h5v6c0,.75-.07,2-.2,3.63h.2A5.8,5.8,0,0,1,1237.46,1014.26Zm-1.61,4a3.16,3.16,0,0,0-2.71,1.14,6.55,6.55,0,0,0-.89,3.78v.54a7.7,7.7,0,0,0,.88,4.24,3.12,3.12,0,0,0,2.79,1.29,2.81,2.81,0,0,0,2.46-1.43,7.64,7.64,0,0,0,.91-4.13,7.38,7.38,0,0,0-.92-4.08A2.9,2.9,0,0,0,1235.85,1018.28Z" transform="translate(0)"/><path class="cls-1" d="M1248.34,1009.85c0-1.63.91-2.45,2.73-2.45s2.73.82,2.73,2.45a2.41,2.41,0,0,1-.68,1.82,2.9,2.9,0,0,1-2,.65C1249.25,1012.32,1248.34,1011.5,1248.34,1009.85Zm5.23,23.15h-5v-18.39h5Z" transform="translate(0)"/><path class="cls-1" d="M1267.16,1033.33a9.51,9.51,0,0,1-6.94-2.45,9.26,9.26,0,0,1-2.5-6.94q0-4.63,2.31-7.15a8.21,8.21,0,0,1,6.39-2.53,8.1,8.1,0,0,1,6.07,2.22,8.41,8.41,0,0,1,2.18,6.14v2.44H1262.8a4.86,4.86,0,0,0,1.27,3.34,4.46,4.46,0,0,0,3.32,1.2,13.88,13.88,0,0,0,3.15-.35,16.25,16.25,0,0,0,3.09-1.1V1032a11.7,11.7,0,0,1-2.81,1A18.09,18.09,0,0,1,1267.16,1033.33Zm-.7-15.5a3.22,3.22,0,0,0-2.51,1,4.69,4.69,0,0,0-1,2.88h7a4.23,4.23,0,0,0-1-2.88A3.31,3.31,0,0,0,1266.46,1017.83Z" transform="translate(0)"/><path class="cls-1" d="M1291.58,1027.54a5.07,5.07,0,0,1-2,4.31q-2,1.49-5.88,1.48a18.51,18.51,0,0,1-3.42-.27,13,13,0,0,1-2.65-.8v-4.14a18.39,18.39,0,0,0,3.15,1.1,13.08,13.08,0,0,0,3.09.44c1.82,0,2.73-.52,2.73-1.58a1.33,1.33,0,0,0-.36-1,5.19,5.19,0,0,0-1.26-.84c-.59-.31-1.38-.68-2.36-1.09a14.77,14.77,0,0,1-3.12-1.65,4.53,4.53,0,0,1-1.45-1.73,5.79,5.79,0,0,1-.45-2.41,4.38,4.38,0,0,1,1.9-3.8,9.27,9.27,0,0,1,5.39-1.34,15.35,15.35,0,0,1,6.46,1.45l-1.51,3.62a25.76,25.76,0,0,0-2.58-1,8.25,8.25,0,0,0-2.46-.38q-2.22,0-2.22,1.2a1.41,1.41,0,0,0,.72,1.17,19,19,0,0,0,3.13,1.46,15.13,15.13,0,0,1,3.16,1.63,4.87,4.87,0,0,1,1.48,1.75A5.33,5.33,0,0,1,1291.58,1027.54Z" transform="translate(0)"/><path class="cls-1" d="M595,1050.09a9.48,9.48,0,0,1-6.95-2.45,9.3,9.3,0,0,1-2.5-6.94c0-3.08.77-5.47,2.31-7.15a8.26,8.26,0,0,1,6.4-2.53,8.07,8.07,0,0,1,6.07,2.23,8.38,8.38,0,0,1,2.17,6.13v2.44H590.66a4.81,4.81,0,0,0,1.26,3.34,4.47,4.47,0,0,0,3.33,1.2,13.86,13.86,0,0,0,3.14-.35,15.16,15.16,0,0,0,3.09-1.1v3.88a11.55,11.55,0,0,1-2.81,1A17.36,17.36,0,0,1,595,1050.09Zm-.71-15.5a3.16,3.16,0,0,0-2.5,1,4.64,4.64,0,0,0-1,2.87h7a4.14,4.14,0,0,0-1-2.87A3.26,3.26,0,0,0,594.31,1034.59Z" transform="translate(0)"/><path class="cls-1" d="M618.28,1049.76l-1-2.5h-.13a7.36,7.36,0,0,1-2.61,2.22,8.44,8.44,0,0,1-3.49.61,5.67,5.67,0,0,1-4.18-1.51,5.84,5.84,0,0,1-1.52-4.31,4.85,4.85,0,0,1,2-4.32,11.88,11.88,0,0,1,6.18-1.54l3.19-.1v-.8c0-1.87-.95-2.8-2.86-2.8a13,13,0,0,0-5.18,1.33l-1.67-3.39a15,15,0,0,1,7-1.66,8.78,8.78,0,0,1,5.67,1.61,6,6,0,0,1,2,4.91v12.25Zm-1.48-8.52-1.94.07a6.11,6.11,0,0,0-3.26.79,2.47,2.47,0,0,0-1.07,2.2c0,1.42.81,2.12,2.44,2.12a3.86,3.86,0,0,0,2.79-1,3.55,3.55,0,0,0,1-2.67Z" transform="translate(0)"/><path class="cls-1" d="M634.7,1046.1a11,11,0,0,0,3.16-.58v3.73a11.24,11.24,0,0,1-4.61.84,5.62,5.62,0,0,1-4.38-1.52,6.58,6.58,0,0,1-1.37-4.56v-8.87h-2.41V1033l2.77-1.67,1.45-3.89h3.2v3.92h5.15v3.77h-5.15V1044a1.93,1.93,0,0,0,.6,1.57A2.34,2.34,0,0,0,634.7,1046.1Z" transform="translate(0)"/><path class="cls-1" d="M641.37,1026.61c0-1.63.91-2.45,2.73-2.45s2.73.82,2.73,2.45a2.41,2.41,0,0,1-.68,1.82,2.85,2.85,0,0,1-2,.65C642.28,1029.08,641.37,1028.26,641.37,1026.61Zm5.23,23.15h-5v-18.39h5Z" transform="translate(0)"/><path class="cls-1" d="M668.84,1049.76h-5V1039a5.19,5.19,0,0,0-.71-3,2.58,2.58,0,0,0-2.26-1,3.39,3.39,0,0,0-3,1.41,8.64,8.64,0,0,0-.94,4.66v8.65h-5v-18.39h3.84l.67,2.35h.28a5.26,5.26,0,0,1,2.31-2,7.84,7.84,0,0,1,3.35-.69,6.43,6.43,0,0,1,4.87,1.74,7,7,0,0,1,1.66,5Z" transform="translate(0)"/><path class="cls-1" d="M690,1031.37v2.55l-2.88.74a5,5,0,0,1,.79,2.76,5.59,5.59,0,0,1-2.06,4.62,9,9,0,0,1-5.74,1.65l-.9,0-.74-.08a1.68,1.68,0,0,0-.78,1.32c0,.72.92,1.08,2.77,1.08h3.12a7.18,7.18,0,0,1,4.62,1.3,4.65,4.65,0,0,1,1.59,3.82,5.66,5.66,0,0,1-2.69,5c-1.8,1.19-4.37,1.78-7.73,1.78a10.7,10.7,0,0,1-5.88-1.34,4.26,4.26,0,0,1-2-3.76,3.92,3.92,0,0,1,1-2.78,5.88,5.88,0,0,1,3-1.6,3.31,3.31,0,0,1-1.35-1.08,2.49,2.49,0,0,1-.58-1.58,2.58,2.58,0,0,1,.61-1.76,7.22,7.22,0,0,1,1.76-1.37,5,5,0,0,1-2.29-2,6,6,0,0,1-.85-3.25,5.74,5.74,0,0,1,2-4.66,8.44,8.44,0,0,1,5.59-1.65,15,15,0,0,1,1.84.14c.7.1,1.16.17,1.35.21Zm-14.2,21a1.8,1.8,0,0,0,1,1.63,5.39,5.39,0,0,0,2.78.6,9.77,9.77,0,0,0,4.23-.75,2.24,2.24,0,0,0,1.53-2,1.43,1.43,0,0,0-.9-1.43,7.51,7.51,0,0,0-2.8-.39h-2.6a4,4,0,0,0-2.31.64A2,2,0,0,0,675.82,1052.36Zm1.83-15a3.71,3.71,0,0,0,.68,2.37,2.48,2.48,0,0,0,2.08.87,2.42,2.42,0,0,0,2.07-.87,3.83,3.83,0,0,0,.66-2.37q0-3.32-2.73-3.32T677.65,1037.39Z" transform="translate(0)"/><path class="cls-1" d="M990.06,785.59v2.55l-2.87.74a5.05,5.05,0,0,1,.79,2.76,5.57,5.57,0,0,1-2.07,4.62,9,9,0,0,1-5.73,1.65l-.91,0-.74-.08a1.64,1.64,0,0,0-.77,1.32q0,1.08,2.76,1.08h3.13a7.15,7.15,0,0,1,4.61,1.3,4.65,4.65,0,0,1,1.59,3.82,5.66,5.66,0,0,1-2.69,5c-1.79,1.19-4.37,1.78-7.72,1.78a10.76,10.76,0,0,1-5.89-1.34,4.28,4.28,0,0,1-2-3.76,3.93,3.93,0,0,1,1-2.78,5.85,5.85,0,0,1,3-1.6,3.44,3.44,0,0,1-1.35-1.08,2.66,2.66,0,0,1,0-3.34,7,7,0,0,1,1.76-1.37,5,5,0,0,1-2.3-2,6.16,6.16,0,0,1-.85-3.26,5.76,5.76,0,0,1,2-4.65,8.46,8.46,0,0,1,5.6-1.65,15,15,0,0,1,1.83.14c.71.1,1.16.16,1.36.21Zm-14.19,21a1.82,1.82,0,0,0,1,1.63,5.41,5.41,0,0,0,2.79.59,9.79,9.79,0,0,0,4.23-.74,2.24,2.24,0,0,0,1.53-2,1.42,1.42,0,0,0-.91-1.43,7.41,7.41,0,0,0-2.79-.4h-2.6a4,4,0,0,0-2.32.65A2,2,0,0,0,975.87,806.58Zm1.82-15a3.71,3.71,0,0,0,.69,2.37,2.46,2.46,0,0,0,2.08.87,2.43,2.43,0,0,0,2.07-.87,3.83,3.83,0,0,0,.66-2.37c0-2.22-.91-3.32-2.73-3.32S977.69,789.39,977.69,791.61Z" transform="translate(0)"/><path class="cls-1" d="M1003.36,785.24a8,8,0,0,1,1.69.15l-.37,4.71a5.74,5.74,0,0,0-1.48-.17,5.3,5.3,0,0,0-3.75,1.24,4.46,4.46,0,0,0-1.34,3.45V804h-5V785.59h3.8l.74,3.09h.25a6.91,6.91,0,0,1,2.31-2.49A5.72,5.72,0,0,1,1003.36,785.24Z" transform="translate(0)"/><path class="cls-1" d="M1025.11,794.75a9.89,9.89,0,0,1-2.37,7,8.59,8.59,0,0,1-6.6,2.53,9.17,9.17,0,0,1-4.67-1.16,7.66,7.66,0,0,1-3.11-3.33,11.27,11.27,0,0,1-1.08-5.07,9.84,9.84,0,0,1,2.35-7,8.66,8.66,0,0,1,6.61-2.5,9.38,9.38,0,0,1,4.68,1.15,7.78,7.78,0,0,1,3.11,3.31A11.15,11.15,0,0,1,1025.11,794.75Zm-12.72,0a7.69,7.69,0,0,0,.9,4.13,3.19,3.19,0,0,0,2.92,1.4,3.15,3.15,0,0,0,2.89-1.39,7.92,7.92,0,0,0,.88-4.14,7.59,7.59,0,0,0-.89-4.09,3.77,3.77,0,0,0-5.81,0A7.58,7.58,0,0,0,1012.39,794.75Z" transform="translate(0)"/><path class="cls-1" d="M1044.38,804l-1.42-6.43-1.91-8.13h-.11L1037.58,804h-5.39L1027,785.59h5l2.12,8.14c.34,1.46.68,3.47,1,6h.09a35.55,35.55,0,0,1,.58-4l.26-1.4,2.27-8.82h5.53l2.16,8.82c0,.24.11.59.2,1.07s.19,1,.27,1.5.17,1.06.24,1.57.12.91.13,1.22h.1c.09-.79.27-1.87.52-3.25s.44-2.3.54-2.79l2.21-8.14h4.92l-5.3,18.39Z" transform="translate(0)"/><path class="cls-1" d="M1057.89,780.83c0-1.63.91-2.45,2.73-2.45s2.73.82,2.73,2.45a2.41,2.41,0,0,1-.68,1.82,2.9,2.9,0,0,1-2.05.65C1058.8,783.3,1057.89,782.48,1057.89,780.83Zm5.23,23.15h-5V785.59h5Z" transform="translate(0)"/><path class="cls-1" d="M1085.37,804h-5V793.24a5.19,5.19,0,0,0-.71-3,2.58,2.58,0,0,0-2.26-1,3.41,3.41,0,0,0-3,1.4,8.8,8.8,0,0,0-.94,4.67V804h-5V785.59h3.84l.67,2.35h.28a5.26,5.26,0,0,1,2.31-2,7.84,7.84,0,0,1,3.35-.69,6.43,6.43,0,0,1,4.87,1.74,7,7,0,0,1,1.67,5Z" transform="translate(0)"/><path class="cls-1" d="M1106.54,785.59v2.55l-2.88.74a5,5,0,0,1,.79,2.76,5.59,5.59,0,0,1-2.06,4.62,9,9,0,0,1-5.74,1.65l-.9,0-.74-.08a1.65,1.65,0,0,0-.78,1.32c0,.72.92,1.08,2.77,1.08h3.12a7.18,7.18,0,0,1,4.62,1.3,4.65,4.65,0,0,1,1.59,3.82,5.66,5.66,0,0,1-2.69,5c-1.8,1.19-4.37,1.78-7.73,1.78a10.7,10.7,0,0,1-5.88-1.34,4.26,4.26,0,0,1-2-3.76,3.92,3.92,0,0,1,1-2.78,5.88,5.88,0,0,1,3-1.6,3.31,3.31,0,0,1-1.35-1.08,2.51,2.51,0,0,1-.58-1.58,2.62,2.62,0,0,1,.61-1.76,7.22,7.22,0,0,1,1.76-1.37,5,5,0,0,1-2.29-2,6.07,6.07,0,0,1-.85-3.26,5.73,5.73,0,0,1,2-4.65,8.44,8.44,0,0,1,5.59-1.65,15,15,0,0,1,1.84.14c.7.1,1.16.16,1.35.21Zm-14.2,21a1.81,1.81,0,0,0,1,1.63,5.4,5.4,0,0,0,2.78.59,9.79,9.79,0,0,0,4.23-.74,2.24,2.24,0,0,0,1.53-2,1.43,1.43,0,0,0-.9-1.43,7.47,7.47,0,0,0-2.8-.4h-2.6a4,4,0,0,0-2.31.65A2,2,0,0,0,1092.34,806.58Zm1.83-15a3.71,3.71,0,0,0,.68,2.37,2.49,2.49,0,0,0,2.08.87A2.41,2.41,0,0,0,1099,794a3.83,3.83,0,0,0,.66-2.37c0-2.22-.91-3.32-2.73-3.32S1094.17,789.39,1094.17,791.61Z" transform="translate(0)"/><path class="cls-1" d="M999.17,844.75a6.12,6.12,0,0,1-5.08-2.35h-.26c.17,1.53.26,2.42.26,2.66v7.46h-5V826h4.08l.71,2.39h.23a5.8,5.8,0,0,1,5.21-2.73,6,6,0,0,1,5.11,2.52,11.71,11.71,0,0,1,1.84,7,13.76,13.76,0,0,1-.87,5.12,7.08,7.08,0,0,1-2.46,3.3A6.27,6.27,0,0,1,999.17,844.75Zm-1.48-15.06a3.17,3.17,0,0,0-2.71,1.15,6.54,6.54,0,0,0-.89,3.77v.55a7.7,7.7,0,0,0,.88,4.24,3.14,3.14,0,0,0,2.79,1.28q3.38,0,3.37-5.56a8,8,0,0,0-.83-4.07A2.84,2.84,0,0,0,997.69,829.69Z" transform="translate(0)"/><path class="cls-1" d="M1015.41,844.42h-5v-25.6h5Z" transform="translate(0)"/><path class="cls-1" d="M1032.36,844.42l-1-2.5h-.13a7.51,7.51,0,0,1-2.61,2.21,8.47,8.47,0,0,1-3.5.62,5.7,5.7,0,0,1-4.17-1.51,5.85,5.85,0,0,1-1.52-4.32,4.82,4.82,0,0,1,2-4.31,11.82,11.82,0,0,1,6.18-1.54l3.19-.1v-.81c0-1.86-1-2.79-2.86-2.79a13.06,13.06,0,0,0-5.19,1.33l-1.66-3.39a15,15,0,0,1,7-1.66,8.76,8.76,0,0,1,5.68,1.61,5.94,5.94,0,0,1,2,4.9v12.26Zm-1.48-8.52-1.94.06a6.3,6.3,0,0,0-3.26.79,2.5,2.5,0,0,0-1.07,2.21c0,1.41.81,2.12,2.43,2.12a3.83,3.83,0,0,0,2.79-1,3.52,3.52,0,0,0,1.05-2.67Z" transform="translate(0)"/><path class="cls-1" d="M1058,844.42h-5V833.68a5.18,5.18,0,0,0-.7-3,2.61,2.61,0,0,0-2.26-1,3.38,3.38,0,0,0-3,1.41,8.68,8.68,0,0,0-.94,4.67v8.65h-5V826h3.84l.67,2.36h.28a5.34,5.34,0,0,1,2.31-2,8,8,0,0,1,3.35-.68,6.43,6.43,0,0,1,4.87,1.74,6.92,6.92,0,0,1,1.66,5Z" transform="translate(0)"/><path class="cls-1" d="M1070.93,840.75a10.75,10.75,0,0,0,3.16-.58v3.74a11.27,11.27,0,0,1-4.61.84,5.67,5.67,0,0,1-4.39-1.52,6.67,6.67,0,0,1-1.37-4.57v-8.87h-2.4v-2.12l2.76-1.68,1.45-3.88h3.21V826h5.15v3.77h-5.15v8.87a2,2,0,0,0,.6,1.58A2.37,2.37,0,0,0,1070.93,840.75Z" transform="translate(0)"/><path class="cls-1" d="M1090.64,839a5.08,5.08,0,0,1-2,4.31q-2,1.49-5.88,1.48a18.51,18.51,0,0,1-3.42-.27,12.78,12.78,0,0,1-2.65-.8v-4.15a17.57,17.57,0,0,0,3.15,1.11,13.08,13.08,0,0,0,3.08.44c1.83,0,2.74-.53,2.74-1.58a1.28,1.28,0,0,0-.37-1,4.9,4.9,0,0,0-1.25-.84c-.59-.31-1.38-.68-2.37-1.1a15,15,0,0,1-3.11-1.64,4.49,4.49,0,0,1-1.45-1.74,5.73,5.73,0,0,1-.45-2.41,4.36,4.36,0,0,1,1.9-3.79,9.25,9.25,0,0,1,5.38-1.34,15.21,15.21,0,0,1,6.47,1.45l-1.51,3.62a25.88,25.88,0,0,0-2.59-1,7.84,7.84,0,0,0-2.45-.38q-2.22,0-2.22,1.2a1.41,1.41,0,0,0,.72,1.17,19.43,19.43,0,0,0,3.13,1.46,14.66,14.66,0,0,1,3.16,1.63,4.93,4.93,0,0,1,1.48,1.74A5.37,5.37,0,0,1,1090.64,839Z" transform="translate(0)"/><path class="cls-1" d="M847.42,598.67h-5v-25.6h5Z" transform="translate(0)"/><path class="cls-1" d="M861,599a9.45,9.45,0,0,1-6.94-2.45,9.26,9.26,0,0,1-2.5-6.94c0-3.08.77-5.47,2.31-7.15a8.21,8.21,0,0,1,6.39-2.53,8.1,8.1,0,0,1,6.07,2.22,8.42,8.42,0,0,1,2.17,6.14v2.44H856.65a4.86,4.86,0,0,0,1.27,3.34,4.46,4.46,0,0,0,3.32,1.2,13.73,13.73,0,0,0,3.14-.35,16.09,16.09,0,0,0,3.1-1.1v3.88a11.62,11.62,0,0,1-2.82,1A17.23,17.23,0,0,1,861,599Zm-.71-15.5a3.18,3.18,0,0,0-2.5,1,4.64,4.64,0,0,0-1,2.87h7a4.19,4.19,0,0,0-1-2.87A3.29,3.29,0,0,0,860.3,583.5Z" transform="translate(0)"/><path class="cls-1" d="M884.28,598.67l-1-2.5h-.14a7.44,7.44,0,0,1-2.6,2.22,8.49,8.49,0,0,1-3.5.61,5.63,5.63,0,0,1-4.17-1.51,5.8,5.8,0,0,1-1.52-4.31,4.85,4.85,0,0,1,2-4.32,11.81,11.81,0,0,1,6.17-1.54l3.2-.1v-.8c0-1.87-1-2.8-2.87-2.8a13,13,0,0,0-5.18,1.33l-1.66-3.39a14.92,14.92,0,0,1,7-1.66,8.82,8.82,0,0,1,5.68,1.61,6,6,0,0,1,2,4.91v12.25Zm-1.48-8.52-1.95.07a6.1,6.1,0,0,0-3.25.79,2.45,2.45,0,0,0-1.07,2.2c0,1.42.81,2.12,2.43,2.12a3.86,3.86,0,0,0,2.79-1,3.52,3.52,0,0,0,1-2.67Z" transform="translate(0)"/><path class="cls-1" d="M903.21,579.93a8,8,0,0,1,1.7.15l-.38,4.71a5.68,5.68,0,0,0-1.48-.17,5.28,5.28,0,0,0-3.74,1.24,4.42,4.42,0,0,0-1.34,3.45v9.36h-5V580.28h3.8l.74,3.09h.25a6.91,6.91,0,0,1,2.31-2.49A5.69,5.69,0,0,1,903.21,579.93Z" transform="translate(0)"/><path class="cls-1" d="M925.23,598.67h-5V587.93a5.12,5.12,0,0,0-.71-3,2.57,2.57,0,0,0-2.25-1,3.39,3.39,0,0,0-3,1.4,8.71,8.71,0,0,0-.94,4.67v8.65h-5V580.28h3.83l.68,2.35H913a5.26,5.26,0,0,1,2.31-2,7.81,7.81,0,0,1,3.35-.69,6.43,6.43,0,0,1,4.87,1.74,7,7,0,0,1,1.66,5Z" transform="translate(0)"/><path class="cls-1" d="M930.18,575.52c0-1.63.91-2.45,2.73-2.45s2.73.82,2.73,2.45a2.37,2.37,0,0,1-.68,1.82,2.88,2.88,0,0,1-2.05.65C931.09,578,930.18,577.17,930.18,575.52Zm5.24,23.15h-5V580.28h5Z" transform="translate(0)"/><path class="cls-1" d="M957.66,598.67h-5V587.93a5.12,5.12,0,0,0-.71-3,2.57,2.57,0,0,0-2.25-1,3.39,3.39,0,0,0-3,1.4,8.71,8.71,0,0,0-.94,4.67v8.65h-5V580.28h3.83l.68,2.35h.28a5.26,5.26,0,0,1,2.31-2,7.81,7.81,0,0,1,3.35-.69,6.43,6.43,0,0,1,4.87,1.74,7,7,0,0,1,1.66,5Z" transform="translate(0)"/><path class="cls-1" d="M978.83,580.28v2.55l-2.87.74a5.05,5.05,0,0,1,.79,2.76,5.57,5.57,0,0,1-2.07,4.62A9,9,0,0,1,969,592.6l-.91-.05-.74-.08a1.68,1.68,0,0,0-.77,1.32q0,1.08,2.76,1.08h3.13a7.15,7.15,0,0,1,4.61,1.3,4.65,4.65,0,0,1,1.59,3.82,5.66,5.66,0,0,1-2.69,5c-1.79,1.19-4.37,1.78-7.72,1.78a10.76,10.76,0,0,1-5.89-1.34,4.28,4.28,0,0,1-2-3.76,3.93,3.93,0,0,1,1-2.78,5.85,5.85,0,0,1,3-1.6,3.44,3.44,0,0,1-1.35-1.08,2.66,2.66,0,0,1,0-3.34,7,7,0,0,1,1.76-1.37,5,5,0,0,1-2.3-2,6.14,6.14,0,0,1-.85-3.26,5.76,5.76,0,0,1,2-4.65,8.46,8.46,0,0,1,5.6-1.65,15,15,0,0,1,1.83.14c.71.1,1.16.16,1.36.21Zm-14.19,21a1.82,1.82,0,0,0,1,1.63,5.41,5.41,0,0,0,2.79.59,9.79,9.79,0,0,0,4.23-.74,2.24,2.24,0,0,0,1.53-2,1.42,1.42,0,0,0-.91-1.43,7.41,7.41,0,0,0-2.79-.4h-2.6a4,4,0,0,0-2.31.65A2,2,0,0,0,964.64,601.27Zm1.82-15a3.71,3.71,0,0,0,.69,2.37,2.46,2.46,0,0,0,2.08.87,2.43,2.43,0,0,0,2.07-.87,3.83,3.83,0,0,0,.66-2.37c0-2.22-.91-3.32-2.73-3.32S966.46,584.08,966.46,586.3Z" transform="translate(0)"/><path class="cls-1" d="M836.79,639.11h-5V628.37a5.1,5.1,0,0,0-.71-3,2.58,2.58,0,0,0-2.25-1,3.38,3.38,0,0,0-3,1.41,8.68,8.68,0,0,0-.94,4.67v8.65h-5V620.72h3.83l.68,2.35h.28a5.34,5.34,0,0,1,2.31-2,8,8,0,0,1,3.35-.68,6.43,6.43,0,0,1,4.87,1.74,6.93,6.93,0,0,1,1.66,5Z" transform="translate(0)"/><path class="cls-1" d="M850.28,639.44a9.51,9.51,0,0,1-6.94-2.45,9.29,9.29,0,0,1-2.5-7q0-4.62,2.31-7.14a8.21,8.21,0,0,1,6.39-2.53,8.09,8.09,0,0,1,6.07,2.22,8.41,8.41,0,0,1,2.18,6.14v2.43H845.92a4.85,4.85,0,0,0,1.27,3.34,4.46,4.46,0,0,0,3.32,1.2,13.89,13.89,0,0,0,3.15-.34,16.25,16.25,0,0,0,3.09-1.1v3.88a12.15,12.15,0,0,1-2.81,1A18.09,18.09,0,0,1,850.28,639.44Zm-.7-15.5a3.22,3.22,0,0,0-2.51,1,4.66,4.66,0,0,0-1,2.87h7a4.2,4.2,0,0,0-1-2.87A3.31,3.31,0,0,0,849.58,623.94Z" transform="translate(0)"/><path class="cls-1" d="M877,639.11l-1.42-6.43-1.91-8.13h-.11l-3.36,14.56h-5.4l-5.23-18.39h5l2.13,8.14q.51,2.19,1,6h.1a35.32,35.32,0,0,1,.58-4l.26-1.4,2.27-8.81h5.53l2.16,8.81c0,.25.11.6.2,1.07s.18,1,.27,1.51.17,1,.24,1.56.11.92.13,1.23h.09c.1-.79.28-1.87.53-3.25s.43-2.31.54-2.79l2.21-8.14h4.92l-5.3,18.39Z" transform="translate(0)"/><path class="cls-1" d="M907.21,635.44a11,11,0,0,0,3.16-.57v3.73a11.27,11.27,0,0,1-4.61.84,5.65,5.65,0,0,1-4.38-1.52,6.62,6.62,0,0,1-1.37-4.57v-8.87H897.6v-2.12l2.77-1.68,1.45-3.88H905v3.92h5.15v3.76H905v8.87a2,2,0,0,0,.6,1.58A2.37,2.37,0,0,0,907.21,635.44Z" transform="translate(0)"/><path class="cls-1" d="M931.07,639.11h-5V628.37q0-4-3-4a3.35,3.35,0,0,0-3,1.44,8.68,8.68,0,0,0-.94,4.64v8.65h-5v-25.6h5v5.21c0,.41,0,1.36-.12,2.87l-.11,1.48h.26a5.82,5.82,0,0,1,5.33-2.7,6.53,6.53,0,0,1,4.92,1.74,6.94,6.94,0,0,1,1.68,5Z" transform="translate(0)"/><path class="cls-1" d="M936,616c0-1.63.91-2.45,2.73-2.45s2.73.82,2.73,2.45a2.38,2.38,0,0,1-.68,1.82,2.88,2.88,0,0,1-2,.65C936.93,618.43,936,617.61,936,616Zm5.23,23.15h-5V620.72h5Z" transform="translate(0)"/><path class="cls-1" d="M963.5,639.11h-5V628.37a5.1,5.1,0,0,0-.71-3,2.58,2.58,0,0,0-2.25-1,3.38,3.38,0,0,0-3,1.41,8.68,8.68,0,0,0-.94,4.67v8.65h-5V620.72h3.83l.68,2.35h.28a5.34,5.34,0,0,1,2.31-2,8,8,0,0,1,3.35-.68,6.43,6.43,0,0,1,4.87,1.74,6.93,6.93,0,0,1,1.66,5Z" transform="translate(0)"/><path class="cls-1" d="M984.67,620.72v2.55l-2.87.74a5.05,5.05,0,0,1,.79,2.76,5.6,5.6,0,0,1-2.07,4.62,9,9,0,0,1-5.73,1.65l-.91,0-.74-.08a1.64,1.64,0,0,0-.77,1.31c0,.73.92,1.09,2.76,1.09h3.13a7.1,7.1,0,0,1,4.61,1.3,4.65,4.65,0,0,1,1.59,3.82,5.67,5.67,0,0,1-2.69,5c-1.79,1.18-4.37,1.78-7.72,1.78a10.67,10.67,0,0,1-5.89-1.35,4.25,4.25,0,0,1-2-3.76,4,4,0,0,1,1-2.78,5.91,5.91,0,0,1,3-1.59,3.44,3.44,0,0,1-1.35-1.08,2.58,2.58,0,0,1-.57-1.59,2.56,2.56,0,0,1,.61-1.75,6.81,6.81,0,0,1,1.76-1.37,5,5,0,0,1-2.3-2,6.16,6.16,0,0,1-.85-3.26,5.74,5.74,0,0,1,2-4.65,8.46,8.46,0,0,1,5.6-1.65,15,15,0,0,1,1.83.14c.71.09,1.16.16,1.36.21Zm-14.19,21a1.83,1.83,0,0,0,1,1.63,5.51,5.51,0,0,0,2.79.59,9.94,9.94,0,0,0,4.23-.74,2.25,2.25,0,0,0,1.53-2,1.42,1.42,0,0,0-.91-1.43,7.21,7.21,0,0,0-2.79-.4h-2.6a4,4,0,0,0-2.31.65A2,2,0,0,0,970.48,641.71Zm1.82-15a3.71,3.71,0,0,0,.69,2.37,2.46,2.46,0,0,0,2.08.87,2.43,2.43,0,0,0,2.07-.87,3.83,3.83,0,0,0,.66-2.37q0-3.33-2.73-3.33T972.3,626.74Z" transform="translate(0)"/><path class="cls-1" d="M1000.54,633.65a5.08,5.08,0,0,1-2,4.31q-2,1.49-5.88,1.48a18.51,18.51,0,0,1-3.42-.27,12.78,12.78,0,0,1-2.65-.8v-4.15a17.57,17.57,0,0,0,3.15,1.11,13,13,0,0,0,3.08.44c1.82,0,2.73-.53,2.73-1.58a1.33,1.33,0,0,0-.36-1,5.09,5.09,0,0,0-1.25-.84c-.59-.31-1.38-.68-2.37-1.1a15.36,15.36,0,0,1-3.12-1.64,4.55,4.55,0,0,1-1.44-1.74,5.57,5.57,0,0,1-.46-2.41,4.38,4.38,0,0,1,1.9-3.79,9.31,9.31,0,0,1,5.39-1.34,15.25,15.25,0,0,1,6.47,1.45l-1.51,3.62a26.83,26.83,0,0,0-2.59-1,7.88,7.88,0,0,0-2.45-.38q-2.22,0-2.22,1.2a1.41,1.41,0,0,0,.72,1.17,19.43,19.43,0,0,0,3.13,1.46,14.66,14.66,0,0,1,3.16,1.63,4.93,4.93,0,0,1,1.48,1.74A5.37,5.37,0,0,1,1000.54,633.65Z" transform="translate(0)"/><path class="cls-1" d="M772.44,1200.54a8,8,0,0,1,1.7.15l-.38,4.7a5.78,5.78,0,0,0-1.48-.16,5.32,5.32,0,0,0-3.74,1.23,4.45,4.45,0,0,0-1.35,3.46v9.36h-5v-18.4H766l.74,3.1H767a6.88,6.88,0,0,1,2.32-2.5A5.68,5.68,0,0,1,772.44,1200.54Z" transform="translate(0)"/><path class="cls-1" d="M785.8,1219.61a9.51,9.51,0,0,1-6.94-2.45,9.29,9.29,0,0,1-2.5-7q0-4.62,2.31-7.15a8.23,8.23,0,0,1,6.39-2.52,8.09,8.09,0,0,1,6.07,2.22,8.41,8.41,0,0,1,2.18,6.14v2.43H781.44a4.85,4.85,0,0,0,1.27,3.34,4.46,4.46,0,0,0,3.32,1.2,13.89,13.89,0,0,0,3.15-.34,15.66,15.66,0,0,0,3.09-1.11v3.89a12.15,12.15,0,0,1-2.81,1A18.09,18.09,0,0,1,785.8,1219.61Zm-.7-15.5a3.22,3.22,0,0,0-2.51,1,4.7,4.7,0,0,0-1,2.87h7a4.19,4.19,0,0,0-1-2.87A3.31,3.31,0,0,0,785.1,1204.11Z" transform="translate(0)"/><path class="cls-1" d="M809.07,1219.28l-1-2.5H808a7.51,7.51,0,0,1-2.61,2.21,8.47,8.47,0,0,1-3.5.62,5.67,5.67,0,0,1-4.17-1.52,5.82,5.82,0,0,1-1.52-4.31,4.85,4.85,0,0,1,2.05-4.32,11.92,11.92,0,0,1,6.18-1.54l3.19-.09V1207c0-1.86-1-2.8-2.87-2.8a13.05,13.05,0,0,0-5.18,1.34l-1.66-3.39a14.93,14.93,0,0,1,7-1.67,8.76,8.76,0,0,1,5.68,1.62,5.94,5.94,0,0,1,2,4.9v12.26Zm-1.48-8.53-1.94.07a6.3,6.3,0,0,0-3.26.79,2.47,2.47,0,0,0-1.07,2.21c0,1.41.81,2.12,2.43,2.12a3.84,3.84,0,0,0,2.79-1,3.49,3.49,0,0,0,1.05-2.66Z" transform="translate(0)"/><path class="cls-1" d="M823.56,1219.61a6,6,0,0,1-5.09-2.52,14.13,14.13,0,0,1,0-14,6.14,6.14,0,0,1,5.2-2.52,6,6,0,0,1,5.29,2.7h.17a20.79,20.79,0,0,1-.38-3.67v-5.89h5v25.6H830l-1-2.39h-.21A5.75,5.75,0,0,1,823.56,1219.61Zm1.77-4a3.39,3.39,0,0,0,2.82-1.12,6.53,6.53,0,0,0,1-3.8v-.54a7.52,7.52,0,0,0-.92-4.25,3.41,3.41,0,0,0-3-1.28,2.94,2.94,0,0,0-2.61,1.42,7.7,7.7,0,0,0-.92,4.14,7.22,7.22,0,0,0,.93,4.07A3.07,3.07,0,0,0,825.33,1215.61Z" transform="translate(0)"/><path class="cls-1" d="M838.85,1196.13c0-1.64.91-2.45,2.73-2.45s2.73.81,2.73,2.45a2.42,2.42,0,0,1-.68,1.82,2.9,2.9,0,0,1-2,.65C839.76,1198.6,838.85,1197.77,838.85,1196.13Zm5.23,23.15h-5v-18.4h5Z" transform="translate(0)"/><path class="cls-1" d="M866.33,1219.28h-5v-10.75a5.16,5.16,0,0,0-.71-3,2.55,2.55,0,0,0-2.25-1,3.4,3.4,0,0,0-3.05,1.41,8.78,8.78,0,0,0-.93,4.66v8.66h-5v-18.4h3.83l.68,2.36h.28a5.34,5.34,0,0,1,2.31-2,7.92,7.92,0,0,1,3.35-.68,6.47,6.47,0,0,1,4.87,1.73,7,7,0,0,1,1.66,5Z" transform="translate(0)"/><path class="cls-1" d="M887.5,1200.88v2.55l-2.88.74a5,5,0,0,1,.79,2.77,5.56,5.56,0,0,1-2.06,4.61,8.92,8.92,0,0,1-5.74,1.66l-.9,0-.74-.08a1.64,1.64,0,0,0-.77,1.31c0,.73.92,1.09,2.76,1.09h3.13a7.11,7.11,0,0,1,4.61,1.3,4.63,4.63,0,0,1,1.59,3.81,5.69,5.69,0,0,1-2.69,5q-2.69,1.77-7.73,1.77A10.66,10.66,0,0,1,871,1226a4.25,4.25,0,0,1-2-3.76,4,4,0,0,1,1-2.78,5.84,5.84,0,0,1,3-1.59,3.38,3.38,0,0,1-1.35-1.08,2.67,2.67,0,0,1,0-3.34,7.18,7.18,0,0,1,1.76-1.38,4.88,4.88,0,0,1-2.29-2,6.07,6.07,0,0,1-.85-3.26,5.77,5.77,0,0,1,2-4.66,8.51,8.51,0,0,1,5.59-1.64,13.24,13.24,0,0,1,1.84.14c.71.09,1.16.16,1.36.2Zm-14.2,21a1.84,1.84,0,0,0,1,1.63,5.51,5.51,0,0,0,2.79.59,9.94,9.94,0,0,0,4.23-.74,2.26,2.26,0,0,0,1.53-2,1.45,1.45,0,0,0-.91-1.43,7.47,7.47,0,0,0-2.8-.39h-2.6a4,4,0,0,0-2.31.65A2,2,0,0,0,873.3,1221.88Zm1.83-15a3.76,3.76,0,0,0,.68,2.36,2.47,2.47,0,0,0,2.08.88,2.42,2.42,0,0,0,2.08-.88,3.82,3.82,0,0,0,.66-2.36c0-2.22-.92-3.33-2.74-3.33S875.13,1204.69,875.13,1206.91Z" transform="translate(0)"/><path class="cls-1" d="M786.24,1241a6,6,0,0,1,5.1,2.55,11.62,11.62,0,0,1,1.84,7c0,3-.63,5.4-1.9,7.06a6.64,6.64,0,0,1-10.26.15h-.34l-.84,2H776v-25.6h5v6c0,.76-.06,2-.19,3.64H781A5.81,5.81,0,0,1,786.24,1241Zm-1.61,4a3.18,3.18,0,0,0-2.72,1.14,6.55,6.55,0,0,0-.89,3.78v.54a7.83,7.83,0,0,0,.88,4.25,3.16,3.16,0,0,0,2.79,1.28,2.8,2.8,0,0,0,2.46-1.42,7.7,7.7,0,0,0,.92-4.14,7.22,7.22,0,0,0-.93-4.07A2.87,2.87,0,0,0,784.63,1245Z" transform="translate(0)"/><path class="cls-1" d="M814.05,1250.48a9.89,9.89,0,0,1-2.37,7,8.59,8.59,0,0,1-6.6,2.53,9.12,9.12,0,0,1-4.67-1.16,7.66,7.66,0,0,1-3.11-3.33,11.11,11.11,0,0,1-1.09-5.07,9.84,9.84,0,0,1,2.35-7,8.68,8.68,0,0,1,6.62-2.5,9.27,9.27,0,0,1,4.67,1.16,7.64,7.64,0,0,1,3.11,3.3A11.15,11.15,0,0,1,814.05,1250.48Zm-12.72,0a7.77,7.77,0,0,0,.89,4.13,3.19,3.19,0,0,0,2.92,1.4,3.14,3.14,0,0,0,2.89-1.39,7.77,7.77,0,0,0,.88-4.14,7.5,7.5,0,0,0-.89-4.09,3.76,3.76,0,0,0-5.8,0A7.49,7.49,0,0,0,801.33,1250.48Z" transform="translate(0)"/><path class="cls-1" d="M834.91,1250.48a9.89,9.89,0,0,1-2.37,7,8.59,8.59,0,0,1-6.6,2.53,9.17,9.17,0,0,1-4.67-1.16,7.66,7.66,0,0,1-3.11-3.33,11.24,11.24,0,0,1-1.09-5.07,9.84,9.84,0,0,1,2.36-7A8.66,8.66,0,0,1,826,1241a9.24,9.24,0,0,1,4.67,1.16,7.64,7.64,0,0,1,3.11,3.3A11,11,0,0,1,834.91,1250.48Zm-12.72,0a7.67,7.67,0,0,0,.9,4.13,3.72,3.72,0,0,0,5.81,0,7.87,7.87,0,0,0,.88-4.14,7.59,7.59,0,0,0-.89-4.09A3.24,3.24,0,0,0,826,1245a3.19,3.19,0,0,0-2.89,1.36A7.58,7.58,0,0,0,822.19,1250.48Z" transform="translate(0)"/><path class="cls-1" d="M843.88,1249.71l2.18-2.8,5.15-5.59h5.67l-7.31,8,7.75,10.41h-5.79l-5.3-7.45-2.16,1.73v5.72h-5v-25.6h5v11.42l-.26,4.18Z" transform="translate(0)"/><path class="cls-1" d="M872.79,1254.25a5.05,5.05,0,0,1-2,4.31q-2,1.49-5.88,1.48a18.7,18.7,0,0,1-3.43-.27,12.29,12.29,0,0,1-2.64-.8v-4.14a17.57,17.57,0,0,0,3.15,1.1,12.57,12.57,0,0,0,3.08.45q2.73,0,2.73-1.59a1.33,1.33,0,0,0-.36-1,5.73,5.73,0,0,0-1.25-.84c-.59-.31-1.38-.67-2.37-1.09a14.81,14.81,0,0,1-3.12-1.65,4.6,4.6,0,0,1-1.44-1.73,5.6,5.6,0,0,1-.46-2.41,4.37,4.37,0,0,1,1.9-3.79,9.23,9.23,0,0,1,5.39-1.35,15.4,15.4,0,0,1,6.47,1.45l-1.52,3.62c-.92-.39-1.78-.72-2.58-1a8.19,8.19,0,0,0-2.45-.38q-2.22,0-2.22,1.2a1.43,1.43,0,0,0,.71,1.17,19.88,19.88,0,0,0,3.14,1.47,14.22,14.22,0,0,1,3.16,1.63,4.76,4.76,0,0,1,1.48,1.74A5.33,5.33,0,0,1,872.79,1254.25Z" transform="translate(0)"/><path class="cls-1" d="M908.44,1072.17l-1.41-6.43-1.91-8.13H905l-3.35,14.56h-5.4l-5.23-18.4h5l2.12,8.15q.51,2.19,1,6h.1a32.55,32.55,0,0,1,.57-4l.27-1.4,2.27-8.82h5.53l2.15,8.82c0,.24.11.6.21,1.07s.18,1,.27,1.51.16,1,.24,1.56.11.92.12,1.23h.1c.1-.79.27-1.88.53-3.25s.43-2.31.54-2.79l2.2-8.15h4.92l-5.3,18.4Z" transform="translate(0)"/><path class="cls-1" d="M932.43,1053.43a8,8,0,0,1,1.7.15l-.38,4.7a5.78,5.78,0,0,0-1.48-.16,5.36,5.36,0,0,0-3.75,1.23,4.48,4.48,0,0,0-1.34,3.46v9.36h-5v-18.4H926l.74,3.1H927a6.94,6.94,0,0,1,2.31-2.5A5.73,5.73,0,0,1,932.43,1053.43Z" transform="translate(0)"/><path class="cls-1" d="M937.25,1049c0-1.64.91-2.45,2.73-2.45s2.73.81,2.73,2.45a2.38,2.38,0,0,1-.68,1.82,2.88,2.88,0,0,1-2,.65C938.16,1051.49,937.25,1050.66,937.25,1049Zm5.24,23.15h-5v-18.4h5Z" transform="translate(0)"/><path class="cls-1" d="M955.5,1068.5a10.7,10.7,0,0,0,3.16-.58v3.74a11.27,11.27,0,0,1-4.61.84,5.63,5.63,0,0,1-4.38-1.52,6.62,6.62,0,0,1-1.38-4.57v-8.87h-2.4v-2.12l2.76-1.68,1.45-3.88h3.21v3.91h5.15v3.77h-5.15v8.87a2,2,0,0,0,.6,1.58A2.37,2.37,0,0,0,955.5,1068.5Z" transform="translate(0)"/><path class="cls-1" d="M962.16,1049c0-1.64.91-2.45,2.73-2.45s2.73.81,2.73,2.45a2.38,2.38,0,0,1-.68,1.82,2.88,2.88,0,0,1-2.05.65C963.07,1051.49,962.16,1050.66,962.16,1049Zm5.24,23.15h-5v-18.4h5Z" transform="translate(0)"/><path class="cls-1" d="M989.64,1072.17h-5v-10.75a5.08,5.08,0,0,0-.71-3,2.55,2.55,0,0,0-2.25-1,3.38,3.38,0,0,0-3,1.41,8.67,8.67,0,0,0-.94,4.66v8.66h-5v-18.4h3.83l.68,2.36h.28a5.34,5.34,0,0,1,2.31-2,8,8,0,0,1,3.35-.68,6.46,6.46,0,0,1,4.87,1.73,7,7,0,0,1,1.66,5Z" transform="translate(0)"/><path class="cls-1" d="M1010.82,1053.77v2.55l-2.88.74a5.11,5.11,0,0,1,.79,2.77,5.57,5.57,0,0,1-2.07,4.61,8.91,8.91,0,0,1-5.73,1.66l-.91,0-.74-.08a1.67,1.67,0,0,0-.77,1.31c0,.73.92,1.09,2.76,1.09h3.13a7.08,7.08,0,0,1,4.61,1.3,4.64,4.64,0,0,1,1.59,3.82,5.66,5.66,0,0,1-2.69,5c-1.79,1.18-4.37,1.77-7.72,1.77a10.68,10.68,0,0,1-5.89-1.34,4.25,4.25,0,0,1-2-3.76,4,4,0,0,1,1-2.78,5.91,5.91,0,0,1,3-1.59,3.44,3.44,0,0,1-1.35-1.08,2.58,2.58,0,0,1-.57-1.59,2.54,2.54,0,0,1,.61-1.75,6.81,6.81,0,0,1,1.76-1.37,5,5,0,0,1-2.3-2,6.16,6.16,0,0,1-.85-3.26,5.77,5.77,0,0,1,2-4.66,8.52,8.52,0,0,1,5.6-1.64,13.22,13.22,0,0,1,1.83.14c.71.09,1.16.16,1.36.2Zm-14.2,21a1.83,1.83,0,0,0,1,1.63,5.57,5.57,0,0,0,2.79.59,9.94,9.94,0,0,0,4.23-.74,2.25,2.25,0,0,0,1.53-2,1.44,1.44,0,0,0-.91-1.44,7.45,7.45,0,0,0-2.79-.39h-2.6a4,4,0,0,0-2.31.65A2,2,0,0,0,996.62,1074.77Zm1.82-15a3.75,3.75,0,0,0,.69,2.37,2.46,2.46,0,0,0,2.08.87,2.43,2.43,0,0,0,2.07-.87,3.87,3.87,0,0,0,.66-2.37q0-3.33-2.73-3.33T998.44,1059.8Z" transform="translate(0)"/><path class="cls-1" d="M902.9,1112.61h-5V1087h5Z" transform="translate(0)"/><path class="cls-1" d="M916.49,1112.93a9.49,9.49,0,0,1-7-2.45,9.3,9.3,0,0,1-2.5-6.94c0-3.08.77-5.47,2.31-7.15a8.28,8.28,0,0,1,6.4-2.53,8.11,8.11,0,0,1,6.07,2.23,8.38,8.38,0,0,1,2.17,6.13v2.44H912.13a4.81,4.81,0,0,0,1.26,3.34,4.47,4.47,0,0,0,3.33,1.2,13.79,13.79,0,0,0,3.14-.35,15.16,15.16,0,0,0,3.09-1.1v3.88a11.4,11.4,0,0,1-2.81,1A17.36,17.36,0,0,1,916.49,1112.93Zm-.71-15.49a3.16,3.16,0,0,0-2.5,1,4.7,4.7,0,0,0-1,2.87h7a4.14,4.14,0,0,0-1-2.87A3.26,3.26,0,0,0,915.78,1097.44Z" transform="translate(0)"/><path class="cls-1" d="M935.82,1108.94a11,11,0,0,0,3.16-.58v3.74a11.28,11.28,0,0,1-4.61.83,5.61,5.61,0,0,1-4.38-1.52,6.58,6.58,0,0,1-1.38-4.56V1098h-2.4v-2.12l2.77-1.68,1.44-3.89h3.21v3.92h5.15V1098h-5.15v8.87a2,2,0,0,0,.6,1.58A2.37,2.37,0,0,0,935.82,1108.94Z" transform="translate(0)"/><path class="cls-1" d="M950.45,1108.94a11,11,0,0,0,3.16-.58v3.74a11.28,11.28,0,0,1-4.61.83,5.59,5.59,0,0,1-4.38-1.52,6.58,6.58,0,0,1-1.38-4.56V1098h-2.4v-2.12l2.76-1.68,1.45-3.89h3.21v3.92h5.15V1098h-5.15v8.87a2,2,0,0,0,.6,1.58A2.37,2.37,0,0,0,950.45,1108.94Z" transform="translate(0)"/><path class="cls-1" d="M965.65,1112.93a9.45,9.45,0,0,1-6.94-2.45,9.26,9.26,0,0,1-2.5-6.94c0-3.08.77-5.47,2.31-7.15a8.24,8.24,0,0,1,6.39-2.53,8.11,8.11,0,0,1,6.07,2.23,8.38,8.38,0,0,1,2.17,6.13v2.44H961.29a4.82,4.82,0,0,0,1.27,3.34,4.46,4.46,0,0,0,3.32,1.2,13.73,13.73,0,0,0,3.14-.35,15.45,15.45,0,0,0,3.1-1.1v3.88a11.62,11.62,0,0,1-2.82,1A17.29,17.29,0,0,1,965.65,1112.93Zm-.71-15.49a3.16,3.16,0,0,0-2.5,1,4.64,4.64,0,0,0-1,2.87h7a4.19,4.19,0,0,0-1-2.87A3.28,3.28,0,0,0,964.94,1097.44Z" transform="translate(0)"/><path class="cls-1" d="M987.5,1093.86a8,8,0,0,1,1.7.15l-.38,4.71a5.74,5.74,0,0,0-1.48-.17,5.37,5.37,0,0,0-3.75,1.24,4.46,4.46,0,0,0-1.34,3.45v9.37h-5v-18.4H981l.74,3.09H982a6.91,6.91,0,0,1,2.31-2.49A5.72,5.72,0,0,1,987.5,1093.86Z" transform="translate(0)"/><path class="cls-1" d="M1005.37,1107.14a5.05,5.05,0,0,1-2,4.31q-2,1.48-5.88,1.48a18.51,18.51,0,0,1-3.42-.27,13,13,0,0,1-2.65-.79v-4.15a16.83,16.83,0,0,0,3.15,1.1,12.64,12.64,0,0,0,3.09.45c1.82,0,2.73-.53,2.73-1.58a1.34,1.34,0,0,0-.36-1,5.85,5.85,0,0,0-1.26-.84c-.59-.31-1.38-.67-2.36-1.09a14.32,14.32,0,0,1-3.12-1.65,4.53,4.53,0,0,1-1.45-1.73,5.76,5.76,0,0,1-.45-2.41,4.35,4.35,0,0,1,1.9-3.79,9.19,9.19,0,0,1,5.39-1.35,15.35,15.35,0,0,1,6.46,1.45l-1.51,3.62c-.92-.39-1.78-.72-2.58-1a8.25,8.25,0,0,0-2.46-.38q-2.22,0-2.22,1.2a1.41,1.41,0,0,0,.72,1.17,19.62,19.62,0,0,0,3.13,1.47,14.22,14.22,0,0,1,3.16,1.63,4.76,4.76,0,0,1,1.48,1.74A5.33,5.33,0,0,1,1005.37,1107.14Z" transform="translate(0)"/><path class="cls-1" d="M561.11,821.21a5.07,5.07,0,0,1-2,4.31,9.76,9.76,0,0,1-5.88,1.48,18.7,18.7,0,0,1-3.43-.27,13.16,13.16,0,0,1-2.65-.8v-4.15a17.19,17.19,0,0,0,3.16,1.1,12.51,12.51,0,0,0,3.08.45c1.82,0,2.73-.53,2.73-1.58a1.3,1.3,0,0,0-.36-1,5.09,5.09,0,0,0-1.25-.84c-.59-.32-1.38-.68-2.37-1.1a15.08,15.08,0,0,1-3.12-1.64,4.83,4.83,0,0,1-1.45-1.74,5.73,5.73,0,0,1-.45-2.41,4.36,4.36,0,0,1,1.9-3.79,9.29,9.29,0,0,1,5.39-1.34,15.25,15.25,0,0,1,6.47,1.45L559.4,813a25.76,25.76,0,0,0-2.58-1,7.88,7.88,0,0,0-2.45-.38q-2.22,0-2.22,1.2a1.43,1.43,0,0,0,.71,1.17,20.65,20.65,0,0,0,3.14,1.46,14.45,14.45,0,0,1,3.16,1.63,4.94,4.94,0,0,1,1.48,1.74A5.52,5.52,0,0,1,561.11,821.21Z" transform="translate(0)"/><path class="cls-1" d="M575.13,827a6.12,6.12,0,0,1-5.08-2.35h-.26c.17,1.53.26,2.42.26,2.66v7.45h-5V808.27h4.08l.71,2.39h.23a5.8,5.8,0,0,1,5.21-2.73,6,6,0,0,1,5.1,2.52,11.61,11.61,0,0,1,1.85,7,13.76,13.76,0,0,1-.87,5.12,7.08,7.08,0,0,1-2.46,3.3A6.27,6.27,0,0,1,575.13,827Zm-1.48-15.06a3.14,3.14,0,0,0-2.71,1.15,6.54,6.54,0,0,0-.89,3.77v.55a7.72,7.72,0,0,0,.88,4.24,3.13,3.13,0,0,0,2.79,1.28q3.38,0,3.37-5.56a8,8,0,0,0-.83-4.07A2.84,2.84,0,0,0,573.65,811.94Z" transform="translate(0)"/><path class="cls-1" d="M594.68,827a9.49,9.49,0,0,1-6.94-2.45,9.29,9.29,0,0,1-2.5-6.95q0-4.62,2.31-7.15a8.23,8.23,0,0,1,6.39-2.52,8.1,8.1,0,0,1,6.07,2.22,8.4,8.4,0,0,1,2.17,6.14v2.43H590.32a4.8,4.8,0,0,0,1.27,3.34,4.45,4.45,0,0,0,3.32,1.2,13.74,13.74,0,0,0,3.14-.34,16.09,16.09,0,0,0,3.1-1.1v3.88a12.06,12.06,0,0,1-2.82,1A18,18,0,0,1,594.68,827ZM594,811.5a3.2,3.2,0,0,0-2.5,1,4.73,4.73,0,0,0-1,2.87h7.05a4.2,4.2,0,0,0-1-2.87A3.31,3.31,0,0,0,594,811.5Z" transform="translate(0)"/><path class="cls-1" d="M623.24,826.67h-5V815.92a5.16,5.16,0,0,0-.71-3,2.57,2.57,0,0,0-2.26-1,3.38,3.38,0,0,0-3,1.41,8.67,8.67,0,0,0-.94,4.66v8.66h-5v-18.4h3.84l.67,2.36h.28a5.34,5.34,0,0,1,2.31-2,8,8,0,0,1,3.35-.68,6.46,6.46,0,0,1,4.87,1.73,7,7,0,0,1,1.66,5Z" transform="translate(0)"/><path class="cls-1" d="M634.23,827a6,6,0,0,1-5.09-2.52,14.13,14.13,0,0,1,0-14,6.14,6.14,0,0,1,5.2-2.52,6,6,0,0,1,5.29,2.7h.17a20.79,20.79,0,0,1-.38-3.67v-5.89h5v25.6h-3.85l-1-2.39h-.21A5.75,5.75,0,0,1,634.23,827Zm1.77-4a3.39,3.39,0,0,0,2.82-1.12,6.61,6.61,0,0,0,1-3.8v-.54a7.52,7.52,0,0,0-.92-4.25,3.41,3.41,0,0,0-3-1.28,2.94,2.94,0,0,0-2.61,1.42,7.7,7.7,0,0,0-.92,4.14,7.22,7.22,0,0,0,.93,4.07A3.07,3.07,0,0,0,636,823Z" transform="translate(0)"/><path class="cls-1" d="M649.52,803.52c0-1.64.91-2.45,2.73-2.45s2.73.81,2.73,2.45a2.42,2.42,0,0,1-.68,1.82,2.9,2.9,0,0,1-2,.65C650.43,806,649.52,805.16,649.52,803.52Zm5.23,23.15h-5v-18.4h5Z" transform="translate(0)"/><path class="cls-1" d="M677,826.67h-5V815.92a5.16,5.16,0,0,0-.71-3,2.55,2.55,0,0,0-2.25-1,3.4,3.4,0,0,0-3,1.41A8.78,8.78,0,0,0,665,818v8.66h-5v-18.4h3.83l.68,2.36h.28a5.34,5.34,0,0,1,2.31-2,8,8,0,0,1,3.35-.68,6.47,6.47,0,0,1,4.87,1.73,7,7,0,0,1,1.66,5Z" transform="translate(0)"/><path class="cls-1" d="M698.17,808.27v2.55l-2.88.74a5,5,0,0,1,.79,2.77,5.56,5.56,0,0,1-2.06,4.61,8.91,8.91,0,0,1-5.73,1.66l-.91-.05-.74-.08a1.64,1.64,0,0,0-.77,1.31c0,.73.92,1.09,2.76,1.09h3.13a7.11,7.11,0,0,1,4.61,1.3A4.64,4.64,0,0,1,698,828a5.68,5.68,0,0,1-2.69,5q-2.68,1.77-7.73,1.77a10.66,10.66,0,0,1-5.88-1.34,4.25,4.25,0,0,1-2-3.76,4,4,0,0,1,1-2.78,5.91,5.91,0,0,1,3-1.59,3.44,3.44,0,0,1-1.35-1.08,2.67,2.67,0,0,1,0-3.34,7.06,7.06,0,0,1,1.77-1.37,4.93,4.93,0,0,1-2.3-2,6.07,6.07,0,0,1-.85-3.26,5.77,5.77,0,0,1,2-4.66,8.51,8.51,0,0,1,5.59-1.64,13.24,13.24,0,0,1,1.84.14c.71.09,1.16.16,1.36.2Zm-14.2,21a1.84,1.84,0,0,0,1,1.63,5.51,5.51,0,0,0,2.79.59,9.94,9.94,0,0,0,4.23-.74,2.25,2.25,0,0,0,1.53-2,1.44,1.44,0,0,0-.91-1.44,7.45,7.45,0,0,0-2.79-.39h-2.6a4,4,0,0,0-2.32.65A2,2,0,0,0,684,829.27Zm1.83-15a3.81,3.81,0,0,0,.68,2.37,2.49,2.49,0,0,0,2.08.87,2.44,2.44,0,0,0,2.08-.87,3.87,3.87,0,0,0,.66-2.37q0-3.33-2.74-3.33T685.8,814.3Z" transform="translate(0)"/><path class="cls-1" d="M717.7,823a10.64,10.64,0,0,0,3.16-.58v3.74a11.22,11.22,0,0,1-4.6.84,5.67,5.67,0,0,1-4.39-1.52,6.67,6.67,0,0,1-1.37-4.57V812h-2.4v-2.12l2.76-1.68,1.45-3.88h3.21v3.91h5.15V812h-5.15v8.87a2,2,0,0,0,.6,1.58A2.36,2.36,0,0,0,717.7,823Z" transform="translate(0)"/><path class="cls-1" d="M724.37,803.52c0-1.64.91-2.45,2.73-2.45s2.73.81,2.73,2.45a2.42,2.42,0,0,1-.68,1.82,2.9,2.9,0,0,1-2,.65C725.28,806,724.37,805.16,724.37,803.52Zm5.23,23.15h-5v-18.4h5Z" transform="translate(0)"/><path class="cls-1" d="M751.34,826.67h-5V815.92a5.34,5.34,0,0,0-.67-3,2.33,2.33,0,0,0-2.1-1,3,3,0,0,0-2.79,1.42,9.14,9.14,0,0,0-.88,4.65v8.66h-5v-18.4h3.83l.67,2.36h.28a5.15,5.15,0,0,1,2.14-2,7.05,7.05,0,0,1,3.21-.71q4.13,0,5.6,2.7H751a4.91,4.91,0,0,1,2.18-2,7.15,7.15,0,0,1,3.25-.71,6.42,6.42,0,0,1,4.73,1.6c1.07,1.07,1.6,2.79,1.6,5.14v12h-5V815.92a5.34,5.34,0,0,0-.67-3,2.33,2.33,0,0,0-2.1-1,3.13,3.13,0,0,0-2.75,1.32,7.47,7.47,0,0,0-.91,4.18Z" transform="translate(0)"/><path class="cls-1" d="M776.28,827a9.49,9.49,0,0,1-6.94-2.45,9.29,9.29,0,0,1-2.5-6.95q0-4.62,2.31-7.15a8.23,8.23,0,0,1,6.39-2.52,8.1,8.1,0,0,1,6.07,2.22,8.4,8.4,0,0,1,2.17,6.14v2.43H771.92a4.8,4.8,0,0,0,1.27,3.34,4.45,4.45,0,0,0,3.32,1.2,13.74,13.74,0,0,0,3.14-.34,16.09,16.09,0,0,0,3.1-1.1v3.88a12.06,12.06,0,0,1-2.82,1A18,18,0,0,1,776.28,827Zm-.71-15.5a3.2,3.2,0,0,0-2.5,1,4.66,4.66,0,0,0-1,2.87h7a4.2,4.2,0,0,0-1-2.87A3.31,3.31,0,0,0,775.57,811.5Z" transform="translate(0)"/><path class="cls-1" d="M555,867.11l-1.41-6.44-1.91-8.13h-.11l-3.36,14.57h-5.4l-5.23-18.4h5l2.12,8.14c.34,1.46.69,3.48,1,6h.1a33.28,33.28,0,0,1,.58-4l.26-1.4,2.27-8.82h5.53l2.15,8.82c.05.24.12.6.21,1.07s.18,1,.27,1.5.17,1.06.24,1.57.11.92.12,1.22h.1c.1-.79.28-1.87.53-3.25s.43-2.3.54-2.79l2.21-8.14h4.91l-5.29,18.4Z" transform="translate(0)"/><path class="cls-1" d="M568.54,844q0-2.46,2.73-2.46c1.82,0,2.74.82,2.74,2.46a2.37,2.37,0,0,1-.69,1.81,2.84,2.84,0,0,1-2.05.65Q568.54,846.42,568.54,844Zm5.23,23.15h-5v-18.4h5Z" transform="translate(0)"/><path class="cls-1" d="M586.79,863.44a11,11,0,0,0,3.16-.58v3.74a11.28,11.28,0,0,1-4.61.83,5.59,5.59,0,0,1-4.38-1.52,6.58,6.58,0,0,1-1.38-4.56v-8.87h-2.4v-2.12l2.77-1.68,1.44-3.89h3.21v3.92h5.15v3.77H584.6v8.87a2,2,0,0,0,.6,1.58A2.37,2.37,0,0,0,586.79,863.44Z" transform="translate(0)"/><path class="cls-1" d="M610.65,867.11h-5V856.36q0-4-3-4a3.39,3.39,0,0,0-3,1.43,8.82,8.82,0,0,0-.93,4.64v8.66h-5V841.5h5v5.22c0,.4,0,1.36-.12,2.86l-.11,1.48h.26a5.81,5.81,0,0,1,5.33-2.7,6.53,6.53,0,0,1,4.92,1.75,6.92,6.92,0,0,1,1.68,5Z" transform="translate(0)"/><path class="cls-1" d="M632.32,863.44a11.09,11.09,0,0,0,3.16-.58v3.74a11.28,11.28,0,0,1-4.61.83,5.63,5.63,0,0,1-4.39-1.52,6.63,6.63,0,0,1-1.37-4.56v-8.87h-2.4v-2.12l2.76-1.68,1.45-3.89h3.21v3.92h5.15v3.77h-5.15v8.87a2,2,0,0,0,.6,1.58A2.37,2.37,0,0,0,632.32,863.44Z" transform="translate(0)"/><path class="cls-1" d="M656.18,867.11h-5V856.36q0-4-3-4a3.39,3.39,0,0,0-3.05,1.43,8.8,8.8,0,0,0-.94,4.64v8.66h-5V841.5h5v5.22c0,.4,0,1.36-.11,2.86l-.12,1.48h.27a5.81,5.81,0,0,1,5.33-2.7,6.53,6.53,0,0,1,4.92,1.75,6.92,6.92,0,0,1,1.68,5Z" transform="translate(0)"/><path class="cls-1" d="M669.67,867.43a9.49,9.49,0,0,1-6.95-2.45,9.3,9.3,0,0,1-2.5-6.94c0-3.08.77-5.47,2.31-7.15a8.28,8.28,0,0,1,6.4-2.53,8.11,8.11,0,0,1,6.07,2.23,8.38,8.38,0,0,1,2.17,6.13v2.44H665.31a4.81,4.81,0,0,0,1.26,3.34,4.47,4.47,0,0,0,3.33,1.2,13.79,13.79,0,0,0,3.14-.35,15.16,15.16,0,0,0,3.09-1.1v3.88a11.4,11.4,0,0,1-2.81,1A17.36,17.36,0,0,1,669.67,867.43ZM669,851.94a3.16,3.16,0,0,0-2.5,1,4.7,4.7,0,0,0-1,2.87h7a4.14,4.14,0,0,0-1-2.87A3.26,3.26,0,0,0,669,851.94Z" transform="translate(0)"/><path class="cls-1" d="M700.17,852.48h-4.34v14.63h-5V852.48h-2.76v-2.42l2.76-1.35v-1.35a6,6,0,0,1,1.55-4.59c1-1,2.68-1.45,4.95-1.45a12.79,12.79,0,0,1,4.62.78l-1.28,3.68a9.3,9.3,0,0,0-2.8-.48,1.8,1.8,0,0,0-1.54.64,2.6,2.6,0,0,0-.48,1.62v1.15h4.34Z" transform="translate(0)"/><path class="cls-1" d="M714.73,867.11l-1-2.51h-.13a7.28,7.28,0,0,1-2.61,2.22,8.44,8.44,0,0,1-3.49.61,5.63,5.63,0,0,1-4.17-1.51,5.8,5.8,0,0,1-1.53-4.31,4.88,4.88,0,0,1,2-4.32,11.88,11.88,0,0,1,6.18-1.54l3.19-.1v-.8c0-1.87-1-2.8-2.86-2.8a13,13,0,0,0-5.18,1.33L703.55,850a15,15,0,0,1,7-1.66,8.77,8.77,0,0,1,5.67,1.61,6,6,0,0,1,2,4.91v12.26Zm-1.48-8.53-1.94.07a6.23,6.23,0,0,0-3.26.79,2.48,2.48,0,0,0-1.07,2.2c0,1.42.82,2.13,2.44,2.13a3.87,3.87,0,0,0,2.79-1,3.55,3.55,0,0,0,1-2.66Z" transform="translate(0)"/><path class="cls-1" d="M739.88,867.11h-5V856.36a5.41,5.41,0,0,0-.67-3,2.33,2.33,0,0,0-2.1-1,3,3,0,0,0-2.79,1.41,9.21,9.21,0,0,0-.88,4.66v8.66h-5v-18.4h3.83l.67,2.35h.28a5.2,5.2,0,0,1,2.14-2,6.9,6.9,0,0,1,3.21-.72c2.75,0,4.62.9,5.59,2.7h.45a5,5,0,0,1,2.18-2,7.29,7.29,0,0,1,3.25-.71,6.42,6.42,0,0,1,4.73,1.61q1.6,1.6,1.6,5.14v12h-5V856.36a5.32,5.32,0,0,0-.67-3,2.33,2.33,0,0,0-2.1-1,3.13,3.13,0,0,0-2.75,1.32,7.44,7.44,0,0,0-.91,4.18Z" transform="translate(0)"/><path class="cls-1" d="M756.28,844q0-2.46,2.73-2.46t2.73,2.46a2.4,2.4,0,0,1-.68,1.81,2.85,2.85,0,0,1-2,.65Q756.28,846.42,756.28,844Zm5.23,23.15h-5v-18.4h5Z" transform="translate(0)"/><path class="cls-1" d="M771.8,867.11h-5V841.5h5Z" transform="translate(0)"/><path class="cls-1" d="M774.43,848.71h5.49l3.47,10.35a14.13,14.13,0,0,1,.61,3.19h.1a14.13,14.13,0,0,1,.71-3.19l3.41-10.35h5.38l-7.79,20.75a9,9,0,0,1-3,4.31,7.71,7.71,0,0,1-4.63,1.43,11.39,11.39,0,0,1-2.55-.28v-4a8.69,8.69,0,0,0,2,.21,3.57,3.57,0,0,0,2.33-.81,5.26,5.26,0,0,0,1.56-2.46l.29-.91Z" transform="translate(0)"/><path class="cls-1" d="M377.29,530.52a10.75,10.75,0,0,0,3.16-.58v3.74a11.27,11.27,0,0,1-4.61.84,5.67,5.67,0,0,1-4.39-1.52,6.67,6.67,0,0,1-1.37-4.57v-8.87h-2.4v-2.12l2.76-1.68,1.45-3.88h3.21v3.91h5.15v3.77H375.1v8.87a2,2,0,0,0,.6,1.58A2.37,2.37,0,0,0,377.29,530.52Z" transform="translate(0)"/><path class="cls-1" d="M395.85,534.19l-1-2.5h-.14a7.4,7.4,0,0,1-2.6,2.21,8.47,8.47,0,0,1-3.5.62,5.64,5.64,0,0,1-4.17-1.52,5.77,5.77,0,0,1-1.52-4.31,4.85,4.85,0,0,1,2.05-4.32,11.82,11.82,0,0,1,6.17-1.53l3.2-.1v-.81c0-1.86-1-2.8-2.87-2.8a13.05,13.05,0,0,0-5.18,1.34l-1.66-3.39a14.92,14.92,0,0,1,7-1.66,8.76,8.76,0,0,1,5.68,1.61,6,6,0,0,1,2,4.9v12.26Zm-1.48-8.52-1.95.06a6.29,6.29,0,0,0-3.25.79,2.47,2.47,0,0,0-1.07,2.21c0,1.41.81,2.12,2.43,2.12a3.91,3.91,0,0,0,2.79-1,3.52,3.52,0,0,0,1.05-2.67Z" transform="translate(0)"/><path class="cls-1" d="M409.54,534.19h-5v-25.6h5Z" transform="translate(0)"/><path class="cls-1" d="M419.62,524.19l2.19-2.8,5.15-5.6h5.66l-7.3,8,7.74,10.42h-5.79L422,526.74l-2.16,1.72v5.73h-5v-25.6h5V520l-.26,4.18Z" transform="translate(0)"/><path class="cls-1" d="M435.48,511c0-1.64.91-2.45,2.73-2.45S441,509.4,441,511a2.39,2.39,0,0,1-.69,1.82,2.86,2.86,0,0,1-2.05.65C436.39,513.51,435.48,512.68,435.48,511Zm5.24,23.15h-5v-18.4h5Z" transform="translate(0)"/><path class="cls-1" d="M463,534.19h-5V523.44a5.16,5.16,0,0,0-.7-3,2.58,2.58,0,0,0-2.26-1,3.38,3.38,0,0,0-3,1.41,8.67,8.67,0,0,0-.94,4.66v8.66h-5v-18.4h3.83l.68,2.36h.28a5.34,5.34,0,0,1,2.31-2,8,8,0,0,1,3.35-.68,6.46,6.46,0,0,1,4.87,1.73,7,7,0,0,1,1.66,5Z" transform="translate(0)"/><path class="cls-1" d="M484.14,515.79v2.55l-2.88.74a5.11,5.11,0,0,1,.79,2.77,5.57,5.57,0,0,1-2.07,4.61,8.89,8.89,0,0,1-5.73,1.66l-.91,0-.74-.08a1.67,1.67,0,0,0-.77,1.31c0,.73.92,1.09,2.76,1.09h3.13a7.13,7.13,0,0,1,4.62,1.3,4.66,4.66,0,0,1,1.58,3.82,5.65,5.65,0,0,1-2.69,5c-1.79,1.18-4.37,1.77-7.72,1.77a10.62,10.62,0,0,1-5.88-1.34,4.24,4.24,0,0,1-2-3.76,4,4,0,0,1,1-2.78,5.88,5.88,0,0,1,3-1.59,3.35,3.35,0,0,1-1.34-1.08,2.64,2.64,0,0,1,0-3.34,6.6,6.6,0,0,1,1.76-1.37,5,5,0,0,1-2.3-2,6.16,6.16,0,0,1-.84-3.26,5.76,5.76,0,0,1,1.95-4.66,8.52,8.52,0,0,1,5.6-1.64,14.84,14.84,0,0,1,1.83.14c.71.09,1.16.16,1.36.2Zm-14.2,21a1.83,1.83,0,0,0,1,1.63,5.57,5.57,0,0,0,2.79.59,9.94,9.94,0,0,0,4.23-.74,2.25,2.25,0,0,0,1.53-2,1.44,1.44,0,0,0-.9-1.44,7.54,7.54,0,0,0-2.8-.39h-2.6a4,4,0,0,0-2.31.65A2,2,0,0,0,469.94,536.79Zm1.82-15a3.75,3.75,0,0,0,.69,2.37,2.48,2.48,0,0,0,2.08.87,2.43,2.43,0,0,0,2.07-.87,3.87,3.87,0,0,0,.66-2.37q0-3.33-2.73-3.33C472.69,518.49,471.76,519.6,471.76,521.82Z" transform="translate(0)"/><path class="cls-1" d="M503.67,530.52a10.7,10.7,0,0,0,3.16-.58v3.74a11.27,11.27,0,0,1-4.61.84,5.67,5.67,0,0,1-4.39-1.52,6.67,6.67,0,0,1-1.37-4.57v-8.87h-2.4v-2.12l2.76-1.68,1.45-3.88h3.21v3.91h5.15v3.77h-5.15v8.87a2,2,0,0,0,.6,1.58A2.37,2.37,0,0,0,503.67,530.52Z" transform="translate(0)"/><path class="cls-1" d="M527.26,525a9.88,9.88,0,0,1-2.37,7,8.59,8.59,0,0,1-6.59,2.54,9.28,9.28,0,0,1-4.68-1.16,7.83,7.83,0,0,1-3.11-3.33,11.27,11.27,0,0,1-1.08-5.07,9.82,9.82,0,0,1,2.35-7,8.62,8.62,0,0,1,6.61-2.5,9.28,9.28,0,0,1,4.68,1.15,7.72,7.72,0,0,1,3.11,3.31A11.12,11.12,0,0,1,527.26,525Zm-12.72,0a7.69,7.69,0,0,0,.9,4.13,3.21,3.21,0,0,0,2.92,1.4,3.18,3.18,0,0,0,2.89-1.39,7.82,7.82,0,0,0,.88-4.14,7.63,7.63,0,0,0-.89-4.1,3.79,3.79,0,0,0-5.81,0A7.65,7.65,0,0,0,514.54,525Z" transform="translate(0)"/><path class="cls-1" d="M377.89,575a6.11,6.11,0,0,1-5.09-2.35h-.26c.18,1.54.26,2.43.26,2.67v7.45h-5V556.23h4.08l.7,2.39h.23a5.83,5.83,0,0,1,5.22-2.74,6,6,0,0,1,5.1,2.52,11.65,11.65,0,0,1,1.84,7,13.91,13.91,0,0,1-.86,5.11,7.25,7.25,0,0,1-2.46,3.31A6.3,6.3,0,0,1,377.89,575Zm-1.48-15.05a3.18,3.18,0,0,0-2.72,1.14,6.65,6.65,0,0,0-.89,3.78v.54a7.83,7.83,0,0,0,.88,4.25,3.16,3.16,0,0,0,2.79,1.28q3.38,0,3.38-5.56a7.85,7.85,0,0,0-.84-4.07A2.82,2.82,0,0,0,376.41,559.9Z" transform="translate(0)"/><path class="cls-1" d="M397.43,575a9.47,9.47,0,0,1-6.94-2.45,9.26,9.26,0,0,1-2.5-6.94c0-3.08.77-5.47,2.31-7.15a8.24,8.24,0,0,1,6.39-2.53,8.09,8.09,0,0,1,6.08,2.23,8.42,8.42,0,0,1,2.17,6.13v2.44H393.07a4.86,4.86,0,0,0,1.27,3.34,4.47,4.47,0,0,0,3.33,1.2,13.86,13.86,0,0,0,3.14-.35,15.37,15.37,0,0,0,3.09-1.1v3.88a11.55,11.55,0,0,1-2.81,1A17.4,17.4,0,0,1,397.43,575Zm-.7-15.49a3.15,3.15,0,0,0-2.5,1,4.64,4.64,0,0,0-1,2.87h7a4.14,4.14,0,0,0-1-2.87A3.26,3.26,0,0,0,396.73,559.46Z" transform="translate(0)"/><path class="cls-1" d="M425.74,565.4a9.88,9.88,0,0,1-2.37,7,8.59,8.59,0,0,1-6.6,2.53,9.12,9.12,0,0,1-4.67-1.16,7.66,7.66,0,0,1-3.11-3.33,11.09,11.09,0,0,1-1.09-5.06q0-4.51,2.35-7a8.65,8.65,0,0,1,6.62-2.51,9.27,9.27,0,0,1,4.67,1.16,7.64,7.64,0,0,1,3.11,3.3A11.16,11.16,0,0,1,425.74,565.4Zm-12.72,0a7.76,7.76,0,0,0,.89,4.12,3.19,3.19,0,0,0,2.92,1.4,3.15,3.15,0,0,0,2.89-1.39,7.76,7.76,0,0,0,.88-4.13,7.52,7.52,0,0,0-.89-4.1,3.76,3.76,0,0,0-5.8,0A7.51,7.51,0,0,0,413,565.4Z" transform="translate(0)"/><path class="cls-1" d="M440,575a6.09,6.09,0,0,1-5.08-2.35h-.26c.17,1.54.26,2.43.26,2.67v7.45h-5V556.23H434l.71,2.39h.23a5.81,5.81,0,0,1,5.22-2.74,6,6,0,0,1,5.1,2.52,11.72,11.72,0,0,1,1.84,7,13.91,13.91,0,0,1-.86,5.11,7.25,7.25,0,0,1-2.46,3.31A6.31,6.31,0,0,1,440,575ZM438.5,559.9a3.16,3.16,0,0,0-2.71,1.14,6.57,6.57,0,0,0-.89,3.78v.54a7.74,7.74,0,0,0,.88,4.25,3.16,3.16,0,0,0,2.79,1.28q3.38,0,3.37-5.56a7.86,7.86,0,0,0-.83-4.07A2.82,2.82,0,0,0,438.5,559.9Z" transform="translate(0)"/><path class="cls-1" d="M456.22,574.63h-5V549h5Z" transform="translate(0)"/><path class="cls-1" d="M469.81,575a9.47,9.47,0,0,1-6.94-2.45,9.26,9.26,0,0,1-2.5-6.94c0-3.08.77-5.47,2.31-7.15a8.24,8.24,0,0,1,6.39-2.53,8.09,8.09,0,0,1,6.08,2.23,8.42,8.42,0,0,1,2.17,6.13v2.44H465.46a4.81,4.81,0,0,0,1.26,3.34,4.47,4.47,0,0,0,3.33,1.2,13.86,13.86,0,0,0,3.14-.35,15.16,15.16,0,0,0,3.09-1.1v3.88a11.55,11.55,0,0,1-2.81,1A17.4,17.4,0,0,1,469.81,575Zm-.7-15.49a3.15,3.15,0,0,0-2.5,1,4.64,4.64,0,0,0-1,2.87h7a4.14,4.14,0,0,0-1-2.87A3.26,3.26,0,0,0,469.11,559.46Z" transform="translate(0)"/><path class="cls-1" d="M506.87,565.4a9.88,9.88,0,0,1-2.37,7,8.59,8.59,0,0,1-6.6,2.53,9.17,9.17,0,0,1-4.67-1.16,7.66,7.66,0,0,1-3.11-3.33A11.22,11.22,0,0,1,489,565.4a9.81,9.81,0,0,1,2.36-7,8.61,8.61,0,0,1,6.61-2.51,9.24,9.24,0,0,1,4.67,1.16,7.64,7.64,0,0,1,3.11,3.3A11,11,0,0,1,506.87,565.4Zm-12.72,0a7.66,7.66,0,0,0,.9,4.12,3.19,3.19,0,0,0,2.92,1.4,3.15,3.15,0,0,0,2.89-1.39,7.85,7.85,0,0,0,.88-4.13,7.61,7.61,0,0,0-.89-4.1,3.24,3.24,0,0,0-2.92-1.37,3.19,3.19,0,0,0-2.89,1.36A7.6,7.6,0,0,0,494.15,565.4Z" transform="translate(0)"/><path class="cls-1" d="M528,574.63h-5V563.88a5.14,5.14,0,0,0-.71-3,2.55,2.55,0,0,0-2.25-1,3.4,3.4,0,0,0-3,1.41A8.74,8.74,0,0,0,516,566v8.66h-5v-18.4h3.83l.67,2.35h.28a5.23,5.23,0,0,1,2.32-2,7.76,7.76,0,0,1,3.34-.69,6.41,6.41,0,0,1,4.87,1.74,7,7,0,0,1,1.67,5Z" transform="translate(0)"/><path class="cls-1" d="M372.31,611.39a11,11,0,0,0,3.16-.57v3.73a11.27,11.27,0,0,1-4.61.84,5.63,5.63,0,0,1-4.38-1.52,6.62,6.62,0,0,1-1.38-4.57v-8.87h-2.4v-2.12l2.77-1.68,1.44-3.88h3.21v3.92h5.15v3.76h-5.15v8.87a2,2,0,0,0,.6,1.58A2.37,2.37,0,0,0,372.31,611.39Z" transform="translate(0)"/><path class="cls-1" d="M396.17,615.06h-5V604.32c0-2.66-1-4-3-4a3.36,3.36,0,0,0-3.05,1.43,8.79,8.79,0,0,0-.93,4.64v8.65h-5v-25.6h5v5.22c0,.4,0,1.36-.12,2.86L384,599h.26a5.81,5.81,0,0,1,5.33-2.7,6.5,6.5,0,0,1,4.92,1.75,6.92,6.92,0,0,1,1.68,5Z" transform="translate(0)"/><path class="cls-1" d="M409.66,615.39a9.49,9.49,0,0,1-6.94-2.45,9.26,9.26,0,0,1-2.5-6.94q0-4.63,2.31-7.15a8.21,8.21,0,0,1,6.39-2.53,8.1,8.1,0,0,1,6.07,2.22,8.4,8.4,0,0,1,2.17,6.14v2.43H405.3a4.84,4.84,0,0,0,1.27,3.35,4.45,4.45,0,0,0,3.32,1.2,13.73,13.73,0,0,0,3.14-.35,16.09,16.09,0,0,0,3.1-1.1v3.88a11.62,11.62,0,0,1-2.82,1A18,18,0,0,1,409.66,615.39Zm-.71-15.5a3.2,3.2,0,0,0-2.5,1,4.75,4.75,0,0,0-1,2.87h7a4.22,4.22,0,0,0-1-2.87A3.31,3.31,0,0,0,409,599.89Z" transform="translate(0)"/><path class="cls-1" d="M440.1,615.39A6.08,6.08,0,0,1,435,613h-.27c.18,1.53.27,2.42.27,2.66v7.46h-5V596.67h4.08l.7,2.38H435a5.8,5.8,0,0,1,5.21-2.73,6,6,0,0,1,5.1,2.52,11.63,11.63,0,0,1,1.84,7,13.76,13.76,0,0,1-.86,5.12,7.25,7.25,0,0,1-2.46,3.31A6.33,6.33,0,0,1,440.1,615.39Zm-1.48-15a3.18,3.18,0,0,0-2.72,1.14,6.56,6.56,0,0,0-.88,3.78v.54a7.7,7.7,0,0,0,.88,4.24,3.11,3.11,0,0,0,2.78,1.29c2.25,0,3.38-1.86,3.38-5.56a8,8,0,0,0-.83-4.08A2.86,2.86,0,0,0,438.62,600.34Z" transform="translate(0)"/><path class="cls-1" d="M468.3,615.06h-5V604.32c0-2.66-1-4-3-4a3.35,3.35,0,0,0-3,1.43,8.68,8.68,0,0,0-.94,4.64v8.65h-5v-25.6h5v5.22c0,.4,0,1.36-.12,2.86l-.11,1.48h.26a5.82,5.82,0,0,1,5.33-2.7,6.5,6.5,0,0,1,4.92,1.75,6.92,6.92,0,0,1,1.68,5Z" transform="translate(0)"/><path class="cls-1" d="M490.18,605.83a9.93,9.93,0,0,1-2.36,7,8.59,8.59,0,0,1-6.6,2.53,9.28,9.28,0,0,1-4.68-1.16,7.77,7.77,0,0,1-3.11-3.33,11.27,11.27,0,0,1-1.08-5.07,9.84,9.84,0,0,1,2.35-7,8.65,8.65,0,0,1,6.62-2.5,9.37,9.37,0,0,1,4.67,1.15,7.72,7.72,0,0,1,3.11,3.31A11.15,11.15,0,0,1,490.18,605.83Zm-12.71,0a7.7,7.7,0,0,0,.89,4.13,3.21,3.21,0,0,0,2.92,1.4,3.15,3.15,0,0,0,2.89-1.39,7.82,7.82,0,0,0,.88-4.14,7.65,7.65,0,0,0-.89-4.1,3.78,3.78,0,0,0-5.81,0A7.59,7.59,0,0,0,477.47,605.83Z" transform="translate(0)"/><path class="cls-1" d="M511.31,615.06h-5V604.32a5.12,5.12,0,0,0-.71-3,2.57,2.57,0,0,0-2.25-1,3.37,3.37,0,0,0-3,1.4,8.71,8.71,0,0,0-.94,4.67v8.65h-5V596.67h3.83l.68,2.35h.28a5.34,5.34,0,0,1,2.31-2,8,8,0,0,1,3.35-.68,6.43,6.43,0,0,1,4.87,1.74,6.93,6.93,0,0,1,1.66,5Z" transform="translate(0)"/><path class="cls-1" d="M524.8,615.39a9.51,9.51,0,0,1-6.94-2.45,9.26,9.26,0,0,1-2.5-6.94q0-4.63,2.31-7.15a8.21,8.21,0,0,1,6.39-2.53,8.09,8.09,0,0,1,6.07,2.22,8.41,8.41,0,0,1,2.18,6.14v2.43H520.44a4.89,4.89,0,0,0,1.27,3.35,4.46,4.46,0,0,0,3.32,1.2,13.88,13.88,0,0,0,3.15-.35,16.25,16.25,0,0,0,3.09-1.1v3.88a11.7,11.7,0,0,1-2.81,1A18.09,18.09,0,0,1,524.8,615.39Zm-.7-15.5a3.22,3.22,0,0,0-2.51,1,4.75,4.75,0,0,0-1,2.87h7a4.22,4.22,0,0,0-1-2.87A3.31,3.31,0,0,0,524.1,599.89Z" transform="translate(0)"/><path class="cls-1" d="M223.45,696.79h-5V686q0-4-3-4a3.38,3.38,0,0,0-3,1.43,8.78,8.78,0,0,0-.94,4.64v8.66h-5V671.18h5v5.22c0,.41,0,1.36-.11,2.86l-.12,1.48h.27a5.8,5.8,0,0,1,5.33-2.7,6.53,6.53,0,0,1,4.92,1.75,6.91,6.91,0,0,1,1.67,5Z" transform="translate(0)"/><path class="cls-1" d="M237,697.11a9.48,9.48,0,0,1-6.95-2.45,9.3,9.3,0,0,1-2.5-6.94c0-3.08.77-5.47,2.31-7.15a8.26,8.26,0,0,1,6.4-2.53,8.07,8.07,0,0,1,6.07,2.23,8.38,8.38,0,0,1,2.17,6.13v2.44H232.59a4.81,4.81,0,0,0,1.26,3.34,4.47,4.47,0,0,0,3.33,1.2,13.86,13.86,0,0,0,3.14-.35,15.16,15.16,0,0,0,3.09-1.1v3.88a11.4,11.4,0,0,1-2.81,1A17.36,17.36,0,0,1,237,697.11Zm-.71-15.5a3.16,3.16,0,0,0-2.5,1,4.64,4.64,0,0,0-1,2.87h7a4.14,4.14,0,0,0-1-2.87A3.26,3.26,0,0,0,236.24,681.61Z" transform="translate(0)"/><path class="cls-1" d="M253.55,696.79h-5V671.18h5Z" transform="translate(0)"/><path class="cls-1" d="M268.92,697.11a6.11,6.11,0,0,1-5.09-2.35h-.26c.17,1.54.26,2.43.26,2.67v7.45h-5V678.39h4.08l.71,2.39h.23a5.82,5.82,0,0,1,5.22-2.74,6,6,0,0,1,5.1,2.52,11.63,11.63,0,0,1,1.84,7,13.93,13.93,0,0,1-.86,5.12,7.25,7.25,0,0,1-2.46,3.31A6.3,6.3,0,0,1,268.92,697.11Zm-1.48-15.05a3.18,3.18,0,0,0-2.72,1.14,6.57,6.57,0,0,0-.89,3.78v.54a7.83,7.83,0,0,0,.88,4.25,3.16,3.16,0,0,0,2.79,1.28q3.38,0,3.37-5.56a7.86,7.86,0,0,0-.83-4.07A2.82,2.82,0,0,0,267.44,682.06Z" transform="translate(0)"/><path class="cls-1" d="M279.92,673.63c0-1.63.91-2.45,2.74-2.45s2.73.82,2.73,2.45a2.37,2.37,0,0,1-.69,1.82,2.81,2.81,0,0,1-2,.65C280.83,676.1,279.92,675.28,279.92,673.63Zm5.24,23.16h-5v-18.4h5Z" transform="translate(0)"/><path class="cls-1" d="M307.4,696.79h-5V686a5.2,5.2,0,0,0-.7-3,2.6,2.6,0,0,0-2.26-1,3.38,3.38,0,0,0-3,1.41,8.64,8.64,0,0,0-.94,4.66v8.66h-5v-18.4h3.84l.67,2.35h.28a5.26,5.26,0,0,1,2.31-2,7.81,7.81,0,0,1,3.35-.69,6.43,6.43,0,0,1,4.87,1.74,7,7,0,0,1,1.66,5Z" transform="translate(0)"/><path class="cls-1" d="M328.58,678.39v2.55l-2.88.74a5.05,5.05,0,0,1,.79,2.76,5.57,5.57,0,0,1-2.07,4.62,8.94,8.94,0,0,1-5.73,1.65l-.91-.05-.74-.08a1.7,1.7,0,0,0-.77,1.32q0,1.08,2.76,1.08h3.13a7.18,7.18,0,0,1,4.62,1.3,4.67,4.67,0,0,1,1.58,3.82,5.64,5.64,0,0,1-2.69,5q-2.69,1.78-7.72,1.78a10.7,10.7,0,0,1-5.88-1.34,4.25,4.25,0,0,1-2-3.76,3.93,3.93,0,0,1,1-2.78,5.89,5.89,0,0,1,3-1.6,3.41,3.41,0,0,1-1.34-1.07,2.64,2.64,0,0,1,0-3.34,6.82,6.82,0,0,1,1.76-1.38,4.93,4.93,0,0,1-2.3-2,6.12,6.12,0,0,1-.84-3.25,5.76,5.76,0,0,1,1.95-4.66A8.46,8.46,0,0,1,319,678a14.84,14.84,0,0,1,1.83.14l1.36.21Zm-14.2,21a1.81,1.81,0,0,0,1,1.63,5.45,5.45,0,0,0,2.79.6,9.94,9.94,0,0,0,4.23-.74,2.27,2.27,0,0,0,1.53-2,1.43,1.43,0,0,0-.9-1.43,7.54,7.54,0,0,0-2.8-.39h-2.6a3.89,3.89,0,0,0-2.31.65A2,2,0,0,0,314.38,699.38Zm1.82-15a3.71,3.71,0,0,0,.69,2.37,2.48,2.48,0,0,0,2.08.87,2.43,2.43,0,0,0,2.07-.87,3.83,3.83,0,0,0,.66-2.37q0-3.31-2.73-3.32C317.13,681.09,316.2,682.2,316.2,684.41Z" transform="translate(0)"/><path class="cls-1" d="M357.08,687.55a9.89,9.89,0,0,1-2.37,7,8.59,8.59,0,0,1-6.6,2.53,9.12,9.12,0,0,1-4.67-1.16,7.66,7.66,0,0,1-3.11-3.33,11.11,11.11,0,0,1-1.09-5.07,9.8,9.8,0,0,1,2.35-7,8.65,8.65,0,0,1,6.62-2.51,9.27,9.27,0,0,1,4.67,1.16,7.64,7.64,0,0,1,3.11,3.3A11.15,11.15,0,0,1,357.08,687.55Zm-12.72,0a7.77,7.77,0,0,0,.89,4.13,3.2,3.2,0,0,0,2.92,1.4,3.14,3.14,0,0,0,2.89-1.39,7.77,7.77,0,0,0,.88-4.14,7.5,7.5,0,0,0-.89-4.09,3.76,3.76,0,0,0-5.8,0A7.49,7.49,0,0,0,344.36,687.55Z" transform="translate(0)"/><path class="cls-1" d="M369,693.12a11,11,0,0,0,3.16-.58v3.73a11.27,11.27,0,0,1-4.61.84,5.61,5.61,0,0,1-4.38-1.52,6.58,6.58,0,0,1-1.37-4.56v-8.87h-2.41V680l2.77-1.68,1.44-3.89h3.21v3.92h5.15v3.77h-5.15V691a2,2,0,0,0,.6,1.58A2.37,2.37,0,0,0,369,693.12Z" transform="translate(0)"/><path class="cls-1" d="M392.83,696.79h-5V686q0-4-3-4a3.37,3.37,0,0,0-3,1.43,8.68,8.68,0,0,0-.94,4.64v8.66h-5V671.18h5v5.22c0,.41,0,1.36-.12,2.86l-.11,1.48h.26a5.82,5.82,0,0,1,5.33-2.7,6.53,6.53,0,0,1,4.92,1.75,6.92,6.92,0,0,1,1.68,5Z" transform="translate(0)"/><path class="cls-1" d="M406.32,697.11a9.47,9.47,0,0,1-6.94-2.45,9.26,9.26,0,0,1-2.5-6.94c0-3.08.77-5.47,2.31-7.15a8.24,8.24,0,0,1,6.39-2.53,8.07,8.07,0,0,1,6.07,2.23,8.38,8.38,0,0,1,2.17,6.13v2.44H402a4.86,4.86,0,0,0,1.27,3.34,4.46,4.46,0,0,0,3.32,1.2,13.73,13.73,0,0,0,3.14-.35,15.45,15.45,0,0,0,3.1-1.1v3.88a11.62,11.62,0,0,1-2.82,1A17.23,17.23,0,0,1,406.32,697.11Zm-.71-15.5a3.18,3.18,0,0,0-2.5,1,4.64,4.64,0,0,0-1,2.87h7a4.19,4.19,0,0,0-1-2.87A3.29,3.29,0,0,0,405.61,681.61Z" transform="translate(0)"/><path class="cls-1" d="M428.17,678a8,8,0,0,1,1.7.15l-.38,4.71a5.74,5.74,0,0,0-1.48-.17,5.37,5.37,0,0,0-3.75,1.24,4.46,4.46,0,0,0-1.34,3.45v9.37h-5v-18.4h3.8l.74,3.09h.24A6.91,6.91,0,0,1,425,679,5.74,5.74,0,0,1,428.17,678Z" transform="translate(0)"/><path class="cls-1" d="M446,691.32a5,5,0,0,1-2,4.31q-2,1.49-5.88,1.48a18.51,18.51,0,0,1-3.42-.27,12.37,12.37,0,0,1-2.65-.8V691.9a17.57,17.57,0,0,0,3.15,1.1,12.58,12.58,0,0,0,3.09.44c1.82,0,2.73-.52,2.73-1.57a1.34,1.34,0,0,0-.36-1,6,6,0,0,0-1.25-.84c-.6-.31-1.39-.67-2.37-1.09a14.32,14.32,0,0,1-3.12-1.65,4.53,4.53,0,0,1-1.45-1.73,5.76,5.76,0,0,1-.45-2.41,4.35,4.35,0,0,1,1.9-3.79,9.21,9.21,0,0,1,5.39-1.35,15.35,15.35,0,0,1,6.46,1.45l-1.51,3.62c-.92-.39-1.78-.72-2.58-1a8.21,8.21,0,0,0-2.46-.38q-2.22,0-2.22,1.2a1.41,1.41,0,0,0,.72,1.17,19.62,19.62,0,0,0,3.13,1.47,14.22,14.22,0,0,1,3.16,1.63,4.67,4.67,0,0,1,1.48,1.74A5.33,5.33,0,0,1,446,691.32Z" transform="translate(0)"/><path class="cls-1" d="M633.52,425.47q-8.58,0-8.59-9.43,0-4.68,2.34-7.16a8.78,8.78,0,0,1,6.7-2.48,12.79,12.79,0,0,1,5.72,1.25l-1.48,3.88c-.79-.31-1.52-.57-2.2-.78a7.2,7.2,0,0,0-2-.3q-3.91,0-3.92,5.56,0,5.4,3.92,5.4a8.86,8.86,0,0,0,2.68-.39,9.88,9.88,0,0,0,2.47-1.21v4.29a7.77,7.77,0,0,1-2.46,1.07A13.73,13.73,0,0,1,633.52,425.47Z" transform="translate(0)"/><path class="cls-1" d="M648.4,425.14h-5v-25.6h5Z" transform="translate(0)"/><path class="cls-1" d="M662,425.47a9.54,9.54,0,0,1-7-2.45,9.32,9.32,0,0,1-2.5-6.94q0-4.63,2.32-7.15a8.21,8.21,0,0,1,6.39-2.53,8.1,8.1,0,0,1,6.07,2.22,8.4,8.4,0,0,1,2.17,6.14v2.43H657.63a4.8,4.8,0,0,0,1.27,3.34,4.41,4.41,0,0,0,3.32,1.21,13.79,13.79,0,0,0,3.14-.35,15.78,15.78,0,0,0,3.09-1.1v3.88a11.4,11.4,0,0,1-2.81,1A18,18,0,0,1,662,425.47Zm-.71-15.5a3.2,3.2,0,0,0-2.5,1,4.73,4.73,0,0,0-1,2.87h7a4.21,4.21,0,0,0-1-2.87A3.29,3.29,0,0,0,661.28,410Z" transform="translate(0)"/><path class="cls-1" d="M685.25,425.14l-1-2.5h-.13a7.34,7.34,0,0,1-2.61,2.21,8.26,8.26,0,0,1-3.49.62,5.63,5.63,0,0,1-4.17-1.51,5.8,5.8,0,0,1-1.53-4.31,4.85,4.85,0,0,1,2-4.32,11.88,11.88,0,0,1,6.18-1.54l3.19-.1v-.81c0-1.86-.95-2.79-2.86-2.79a13,13,0,0,0-5.18,1.33L674.07,408a14.89,14.89,0,0,1,7-1.66,8.77,8.77,0,0,1,5.67,1.61,6,6,0,0,1,2,4.9v12.26Zm-1.48-8.52-1.94.06a6.33,6.33,0,0,0-3.26.79,2.5,2.5,0,0,0-1.07,2.21c0,1.41.82,2.12,2.44,2.12a3.86,3.86,0,0,0,2.79-1,3.55,3.55,0,0,0,1-2.67Z" transform="translate(0)"/><path class="cls-1" d="M710.91,425.14h-5V414.4a5.17,5.17,0,0,0-.71-3,2.57,2.57,0,0,0-2.25-1,3.39,3.39,0,0,0-3,1.4,8.78,8.78,0,0,0-.94,4.67v8.65h-5V406.75h3.83l.67,2.35h.28a5.34,5.34,0,0,1,2.31-2,8,8,0,0,1,3.35-.68,6.41,6.41,0,0,1,4.87,1.74,6.94,6.94,0,0,1,1.67,5Z" transform="translate(0)"/><path class="cls-1" d="M715.86,402c0-1.63.91-2.45,2.73-2.45s2.73.82,2.73,2.45a2.41,2.41,0,0,1-.68,1.82,2.9,2.9,0,0,1-2,.65C716.77,404.46,715.86,403.64,715.86,402Zm5.23,23.15h-5V406.75h5Z" transform="translate(0)"/><path class="cls-1" d="M743.34,425.14h-5V414.4a5.17,5.17,0,0,0-.71-3,2.57,2.57,0,0,0-2.25-1,3.39,3.39,0,0,0-3.05,1.4,8.78,8.78,0,0,0-.94,4.67v8.65h-5V406.75h3.83l.67,2.35h.28a5.31,5.31,0,0,1,2.32-2,7.91,7.91,0,0,1,3.34-.68,6.41,6.41,0,0,1,4.87,1.74,6.94,6.94,0,0,1,1.67,5Z" transform="translate(0)"/><path class="cls-1" d="M764.51,406.75v2.55l-2.88.74a5,5,0,0,1,.79,2.76,5.61,5.61,0,0,1-2.06,4.62,9,9,0,0,1-5.74,1.65l-.9-.05-.74-.08a1.65,1.65,0,0,0-.78,1.31c0,.73.92,1.09,2.77,1.09h3.12a7.13,7.13,0,0,1,4.62,1.3,4.65,4.65,0,0,1,1.59,3.82,5.66,5.66,0,0,1-2.69,5c-1.8,1.18-4.37,1.78-7.73,1.78A10.73,10.73,0,0,1,748,431.9a4.28,4.28,0,0,1-2-3.76,3.92,3.92,0,0,1,1-2.78,5.92,5.92,0,0,1,3-1.6,3.31,3.31,0,0,1-1.35-1.08,2.54,2.54,0,0,1-.58-1.59,2.61,2.61,0,0,1,.61-1.75,7.22,7.22,0,0,1,1.76-1.37,5,5,0,0,1-2.29-2,6.07,6.07,0,0,1-.85-3.26,5.72,5.72,0,0,1,2-4.65,8.44,8.44,0,0,1,5.59-1.65,15,15,0,0,1,1.84.14c.7.09,1.16.16,1.35.21Zm-14.2,21a1.81,1.81,0,0,0,1,1.63,5.41,5.41,0,0,0,2.79.59,9.77,9.77,0,0,0,4.22-.74,2.25,2.25,0,0,0,1.53-2,1.43,1.43,0,0,0-.9-1.43,7.27,7.27,0,0,0-2.8-.4h-2.6a4,4,0,0,0-2.31.65A2,2,0,0,0,750.31,427.74Zm1.83-15a3.77,3.77,0,0,0,.68,2.37,2.49,2.49,0,0,0,2.08.87,2.44,2.44,0,0,0,2.08-.87,3.9,3.9,0,0,0,.65-2.37q0-3.33-2.73-3.33T752.14,412.77Z" transform="translate(0)"/><path class="cls-1" d="M788,425.14l-1-2.5h-.13a7.34,7.34,0,0,1-2.61,2.21,8.26,8.26,0,0,1-3.49.62A5.63,5.63,0,0,1,776.6,424a5.8,5.8,0,0,1-1.53-4.31,4.85,4.85,0,0,1,2-4.32,11.88,11.88,0,0,1,6.18-1.54l3.19-.1v-.81c0-1.86-1-2.79-2.86-2.79a13,13,0,0,0-5.18,1.33L776.79,408a14.89,14.89,0,0,1,7-1.66A8.77,8.77,0,0,1,789.5,408a6,6,0,0,1,2,4.9v12.26Zm-1.48-8.52-1.94.06a6.33,6.33,0,0,0-3.26.79,2.5,2.5,0,0,0-1.07,2.21c0,1.41.82,2.12,2.44,2.12a3.86,3.86,0,0,0,2.79-1,3.55,3.55,0,0,0,1-2.67Z" transform="translate(0)"/><path class="cls-1" d="M813.63,425.14h-5V414.4a5.17,5.17,0,0,0-.71-3,2.57,2.57,0,0,0-2.25-1,3.39,3.39,0,0,0-3,1.4,8.78,8.78,0,0,0-.94,4.67v8.65h-5V406.75h3.83l.67,2.35h.28a5.31,5.31,0,0,1,2.32-2,7.91,7.91,0,0,1,3.34-.68,6.41,6.41,0,0,1,4.87,1.74,6.94,6.94,0,0,1,1.67,5Z" transform="translate(0)"/><path class="cls-1" d="M824.62,425.47a6,6,0,0,1-5.1-2.52,14.07,14.07,0,0,1,0-14,6.09,6.09,0,0,1,5.19-2.53,6,6,0,0,1,5.3,2.7h.16a20.7,20.7,0,0,1-.38-3.67v-5.89h5v25.6H831l-1-2.38h-.22A5.74,5.74,0,0,1,824.62,425.47Zm1.76-4a3.39,3.39,0,0,0,2.82-1.12,6.51,6.51,0,0,0,1-3.8V416a7.54,7.54,0,0,0-.92-4.25,3.38,3.38,0,0,0-3-1.28,3,3,0,0,0-2.6,1.42,7.6,7.6,0,0,0-.93,4.14,7.2,7.2,0,0,0,.94,4.08A3.05,3.05,0,0,0,826.38,421.47Z" transform="translate(0)"/><path class="cls-1" d="M651.43,446.84a8,8,0,0,1,1.7.15l-.38,4.7a5.78,5.78,0,0,0-1.48-.16,5.32,5.32,0,0,0-3.74,1.23,4.45,4.45,0,0,0-1.35,3.46v9.36h-5v-18.4H645l.74,3.1H646a7,7,0,0,1,2.32-2.5A5.68,5.68,0,0,1,651.43,446.84Z" transform="translate(0)"/><path class="cls-1" d="M664.79,465.91a9.51,9.51,0,0,1-6.94-2.45,9.29,9.29,0,0,1-2.5-6.95q0-4.62,2.31-7.15a8.23,8.23,0,0,1,6.39-2.52,8.09,8.09,0,0,1,6.07,2.22,8.41,8.41,0,0,1,2.18,6.14v2.43H660.43A4.85,4.85,0,0,0,661.7,461a4.46,4.46,0,0,0,3.32,1.2,13.89,13.89,0,0,0,3.15-.34,15.66,15.66,0,0,0,3.09-1.11v3.89a12.15,12.15,0,0,1-2.81,1A18.09,18.09,0,0,1,664.79,465.91Zm-.7-15.5a3.22,3.22,0,0,0-2.51,1,4.7,4.7,0,0,0-1,2.87h7a4.14,4.14,0,0,0-1-2.87A3.31,3.31,0,0,0,664.09,450.41Z" transform="translate(0)"/><path class="cls-1" d="M693.36,465.58h-5V454.83a5.16,5.16,0,0,0-.71-3,2.55,2.55,0,0,0-2.25-1,3.4,3.4,0,0,0-3,1.41,8.78,8.78,0,0,0-.93,4.66v8.66h-5v-18.4h3.83l.68,2.36h.28a5.29,5.29,0,0,1,2.31-2,7.77,7.77,0,0,1,3.35-.68,6.47,6.47,0,0,1,4.87,1.73,7,7,0,0,1,1.66,5Z" transform="translate(0)"/><path class="cls-1" d="M715.24,456.35a9.88,9.88,0,0,1-2.37,7,8.6,8.6,0,0,1-6.6,2.54,9.27,9.27,0,0,1-4.67-1.16,7.77,7.77,0,0,1-3.11-3.33,11.27,11.27,0,0,1-1.09-5.07,9.83,9.83,0,0,1,2.36-7,8.62,8.62,0,0,1,6.61-2.5A9.21,9.21,0,0,1,711,448a7.66,7.66,0,0,1,3.11,3.31A11,11,0,0,1,715.24,456.35Zm-12.72,0a7.69,7.69,0,0,0,.9,4.13,3.21,3.21,0,0,0,2.92,1.4,3.18,3.18,0,0,0,2.89-1.39,7.92,7.92,0,0,0,.88-4.14,7.63,7.63,0,0,0-.89-4.1,3.77,3.77,0,0,0-5.81,0A7.65,7.65,0,0,0,702.52,456.35Z" transform="translate(0)"/><path class="cls-1" d="M723.76,465.58l-7-18.4H722l3.56,10.48a19.26,19.26,0,0,1,.74,3.77h.1a16.12,16.12,0,0,1,.74-3.77l3.53-10.48h5.25l-7,18.4Z" transform="translate(0)"/><path class="cls-1" d="M750.24,465.58l-1-2.5h-.13a7.51,7.51,0,0,1-2.61,2.21,8.47,8.47,0,0,1-3.5.62,5.64,5.64,0,0,1-4.17-1.52,5.82,5.82,0,0,1-1.52-4.31,4.85,4.85,0,0,1,2-4.32,11.82,11.82,0,0,1,6.17-1.53l3.2-.1v-.81c0-1.86-1-2.8-2.87-2.8a13.05,13.05,0,0,0-5.18,1.34l-1.66-3.39a14.93,14.93,0,0,1,7-1.67,8.76,8.76,0,0,1,5.68,1.62,6,6,0,0,1,2,4.9v12.26Zm-1.48-8.52-1.94.06a6.3,6.3,0,0,0-3.26.79,2.47,2.47,0,0,0-1.07,2.21c0,1.41.81,2.12,2.43,2.12a3.84,3.84,0,0,0,2.79-1,3.49,3.49,0,0,0,1-2.66Z" transform="translate(0)"/><path class="cls-1" d="M766.66,461.91a10.7,10.7,0,0,0,3.16-.58v3.74a11.27,11.27,0,0,1-4.61.84,5.63,5.63,0,0,1-4.38-1.52,6.62,6.62,0,0,1-1.38-4.57V451h-2.4v-2.12l2.76-1.68,1.45-3.88h3.21v3.91h5.15V451h-5.15v8.87a2,2,0,0,0,.6,1.58A2.37,2.37,0,0,0,766.66,461.91Z" transform="translate(0)"/><path class="cls-1" d="M773.32,442.43c0-1.64.91-2.45,2.73-2.45s2.73.81,2.73,2.45a2.38,2.38,0,0,1-.68,1.82,2.88,2.88,0,0,1-2.05.65C774.23,444.9,773.32,444.07,773.32,442.43Zm5.23,23.15h-5v-18.4h5Z" transform="translate(0)"/><path class="cls-1" d="M800.8,465.58h-5V454.83a5.16,5.16,0,0,0-.71-3,2.55,2.55,0,0,0-2.25-1,3.38,3.38,0,0,0-3,1.41,8.67,8.67,0,0,0-.94,4.66v8.66h-5v-18.4h3.83l.68,2.36h.28a5.34,5.34,0,0,1,2.31-2,7.8,7.8,0,0,1,3.35-.68,6.46,6.46,0,0,1,4.87,1.73,7,7,0,0,1,1.66,5Z" transform="translate(0)"/><path class="cls-1" d="M822,447.18v2.55l-2.87.74a5.11,5.11,0,0,1,.79,2.77,5.57,5.57,0,0,1-2.07,4.61,8.91,8.91,0,0,1-5.73,1.66l-.91-.05-.74-.08a1.64,1.64,0,0,0-.77,1.31c0,.73.92,1.09,2.76,1.09h3.13a7.1,7.1,0,0,1,4.61,1.3,4.63,4.63,0,0,1,1.59,3.81,5.69,5.69,0,0,1-2.69,5c-1.79,1.18-4.37,1.77-7.72,1.77a10.68,10.68,0,0,1-5.89-1.34,4.25,4.25,0,0,1-2-3.76,3.94,3.94,0,0,1,1-2.78,5.84,5.84,0,0,1,3-1.59,3.44,3.44,0,0,1-1.35-1.08,2.58,2.58,0,0,1-.57-1.59,2.54,2.54,0,0,1,.61-1.75A6.82,6.82,0,0,1,808,458.4a4.9,4.9,0,0,1-2.3-2,6.16,6.16,0,0,1-.85-3.26,5.77,5.77,0,0,1,2-4.66,8.52,8.52,0,0,1,5.6-1.64,13.22,13.22,0,0,1,1.83.14c.71.09,1.16.16,1.36.2Zm-14.19,21a1.83,1.83,0,0,0,1,1.63,5.51,5.51,0,0,0,2.79.59,9.94,9.94,0,0,0,4.23-.74,2.26,2.26,0,0,0,1.53-2,1.43,1.43,0,0,0-.91-1.43,7.45,7.45,0,0,0-2.79-.39H811a3.89,3.89,0,0,0-2.31.65A2,2,0,0,0,807.78,468.18Zm1.82-15a3.7,3.7,0,0,0,.69,2.36,2.44,2.44,0,0,0,2.08.88,2.41,2.41,0,0,0,2.07-.88,3.82,3.82,0,0,0,.66-2.36q0-3.33-2.73-3.33T809.6,453.21Z" transform="translate(0)"/><path class="cls-1" d="M1283.24,849.71a5.07,5.07,0,0,1-2,4.31q-2,1.49-5.88,1.48a18.51,18.51,0,0,1-3.42-.27,12.78,12.78,0,0,1-2.65-.8v-4.14a18.39,18.39,0,0,0,3.15,1.1,13.08,13.08,0,0,0,3.08.44c1.83,0,2.74-.52,2.74-1.58a1.3,1.3,0,0,0-.37-1,4.9,4.9,0,0,0-1.25-.84c-.59-.31-1.38-.68-2.37-1.09a14.9,14.9,0,0,1-3.11-1.65,4.53,4.53,0,0,1-1.45-1.73,5.79,5.79,0,0,1-.45-2.41,4.38,4.38,0,0,1,1.9-3.8,9.27,9.27,0,0,1,5.39-1.34,15.35,15.35,0,0,1,6.46,1.45l-1.51,3.62a25,25,0,0,0-2.59-1,8.14,8.14,0,0,0-2.45-.38q-2.22,0-2.22,1.2a1.41,1.41,0,0,0,.72,1.17,18.56,18.56,0,0,0,3.13,1.46,15.13,15.13,0,0,1,3.16,1.63,4.87,4.87,0,0,1,1.48,1.75A5.33,5.33,0,0,1,1283.24,849.71Z" transform="translate(0)"/><path class="cls-1" d="M1292.17,855.17h-5v-25.6h5Z" transform="translate(0)"/><path class="cls-1" d="M1305.76,855.5a9.51,9.51,0,0,1-6.94-2.45,9.26,9.26,0,0,1-2.5-6.94q0-4.64,2.31-7.15a8.21,8.21,0,0,1,6.39-2.53,8.09,8.09,0,0,1,6.07,2.22,8.41,8.41,0,0,1,2.18,6.14v2.44H1301.4a4.86,4.86,0,0,0,1.27,3.34,4.46,4.46,0,0,0,3.32,1.2,13.88,13.88,0,0,0,3.15-.35,16,16,0,0,0,3.09-1.1v3.88a11.55,11.55,0,0,1-2.81,1A18.09,18.09,0,0,1,1305.76,855.5Zm-.7-15.5a3.18,3.18,0,0,0-2.5,1,4.7,4.7,0,0,0-1,2.88h7a4.18,4.18,0,0,0-1-2.88A3.31,3.31,0,0,0,1305.06,840Z" transform="translate(0)"/><path class="cls-1" d="M1325.67,855.5a9.51,9.51,0,0,1-6.94-2.45,9.26,9.26,0,0,1-2.5-6.94q0-4.64,2.31-7.15a8.21,8.21,0,0,1,6.39-2.53,8.09,8.09,0,0,1,6.07,2.22,8.41,8.41,0,0,1,2.18,6.14v2.44h-11.87a4.86,4.86,0,0,0,1.27,3.34,4.46,4.46,0,0,0,3.32,1.2,13.88,13.88,0,0,0,3.15-.35,16.25,16.25,0,0,0,3.09-1.1v3.88a11.7,11.7,0,0,1-2.81,1A18.09,18.09,0,0,1,1325.67,855.5ZM1325,840a3.22,3.22,0,0,0-2.51,1,4.75,4.75,0,0,0-1,2.88h7a4.23,4.23,0,0,0-1-2.88A3.31,3.31,0,0,0,1325,840Z" transform="translate(0)"/><path class="cls-1" d="M1347.36,855.5a6.08,6.08,0,0,1-5.08-2.35H1342c.18,1.53.27,2.42.27,2.66v7.46h-5V836.78h4.08l.7,2.38h.24a5.8,5.8,0,0,1,5.21-2.73,6,6,0,0,1,5.1,2.52,11.63,11.63,0,0,1,1.84,7,13.73,13.73,0,0,1-.86,5.12,7.25,7.25,0,0,1-2.46,3.31A6.33,6.33,0,0,1,1347.36,855.5Zm-1.48-15a3.18,3.18,0,0,0-2.72,1.14,6.56,6.56,0,0,0-.88,3.78v.54a7.7,7.7,0,0,0,.88,4.24,3.11,3.11,0,0,0,2.78,1.29c2.25,0,3.38-1.86,3.38-5.56a8,8,0,0,0-.83-4.08A2.86,2.86,0,0,0,1345.88,840.45Z" transform="translate(0)"/><path class="cls-1" d="M1358.37,832c0-1.63.91-2.45,2.73-2.45s2.73.82,2.73,2.45a2.41,2.41,0,0,1-.68,1.82,2.9,2.9,0,0,1-2.05.65C1359.28,834.49,1358.37,833.67,1358.37,832Zm5.23,23.15h-5V836.78h5Z" transform="translate(0)"/><path class="cls-1" d="M1385.84,855.17h-5V844.43a5.19,5.19,0,0,0-.71-3,2.58,2.58,0,0,0-2.26-1,3.41,3.41,0,0,0-3,1.4,8.8,8.8,0,0,0-.94,4.67v8.65h-5V836.78h3.84l.67,2.35h.28a5.26,5.26,0,0,1,2.31-2,7.84,7.84,0,0,1,3.35-.69,6.43,6.43,0,0,1,4.87,1.74,7,7,0,0,1,1.66,5Z" transform="translate(0)"/><path class="cls-1" d="M1407,836.78v2.55l-2.88.74a5,5,0,0,1,.79,2.76,5.59,5.59,0,0,1-2.06,4.62,9,9,0,0,1-5.74,1.65l-.9-.05-.74-.08a1.65,1.65,0,0,0-.78,1.32c0,.72.92,1.08,2.77,1.08h3.12a7.18,7.18,0,0,1,4.62,1.3,4.65,4.65,0,0,1,1.59,3.82,5.66,5.66,0,0,1-2.69,5c-1.8,1.19-4.37,1.78-7.73,1.78a10.7,10.7,0,0,1-5.88-1.34,4.26,4.26,0,0,1-2-3.76,3.92,3.92,0,0,1,1-2.78,5.88,5.88,0,0,1,3-1.6,3.31,3.31,0,0,1-1.35-1.08,2.64,2.64,0,0,1,0-3.34A7.22,7.22,0,0,1,1393,848a5,5,0,0,1-2.29-2,6.07,6.07,0,0,1-.85-3.26,5.72,5.72,0,0,1,2-4.65,8.44,8.44,0,0,1,5.59-1.65,15,15,0,0,1,1.84.14c.7.1,1.16.16,1.35.21Zm-14.2,21a1.81,1.81,0,0,0,1,1.63,5.4,5.4,0,0,0,2.78.59,9.79,9.79,0,0,0,4.23-.74,2.25,2.25,0,0,0,1.53-2,1.43,1.43,0,0,0-.9-1.43,7.47,7.47,0,0,0-2.8-.4h-2.6a4,4,0,0,0-2.31.65A2,2,0,0,0,1392.82,857.77Zm1.83-15a3.71,3.71,0,0,0,.68,2.37,2.49,2.49,0,0,0,2.08.87,2.43,2.43,0,0,0,2.07-.87,3.83,3.83,0,0,0,.66-2.37c0-2.22-.91-3.32-2.73-3.32S1394.65,840.58,1394.65,842.8Z" transform="translate(0)"/><path class="cls-1" d="M1113.12,684l-1.41-6.43-1.91-8.13h-.11L1106.33,684h-5.4l-5.23-18.4h5l2.12,8.15q.51,2.19,1,6h.1a33.09,33.09,0,0,1,.58-4l.26-1.4,2.27-8.82h5.53l2.15,8.82c0,.24.12.6.21,1.07s.18,1,.27,1.51.17,1,.24,1.56.11.92.12,1.23h.1c.1-.79.28-1.88.53-3.25s.43-2.31.54-2.79l2.21-8.15h4.92l-5.3,18.4Z" transform="translate(0)"/><path class="cls-1" d="M1138.53,684l-1-2.5h-.13a7.51,7.51,0,0,1-2.61,2.21,8.47,8.47,0,0,1-3.5.62,5.67,5.67,0,0,1-4.17-1.52,5.81,5.81,0,0,1-1.52-4.31,4.85,4.85,0,0,1,2-4.32,11.83,11.83,0,0,1,6.18-1.53l3.19-.1v-.81c0-1.86-1-2.8-2.86-2.8a13.09,13.09,0,0,0-5.19,1.34l-1.66-3.39a15,15,0,0,1,7-1.66,8.76,8.76,0,0,1,5.68,1.61,5.94,5.94,0,0,1,2,4.9V684Zm-1.48-8.52-1.94.06a6.3,6.3,0,0,0-3.26.79,2.49,2.49,0,0,0-1.07,2.21c0,1.41.81,2.12,2.43,2.12a3.87,3.87,0,0,0,2.79-1,3.52,3.52,0,0,0,1-2.67Z" transform="translate(0)"/><path class="cls-1" d="M1155,680.28a10.7,10.7,0,0,0,3.16-.58v3.74a11.27,11.27,0,0,1-4.61.84,5.65,5.65,0,0,1-4.38-1.52,6.62,6.62,0,0,1-1.38-4.57v-8.87h-2.4V667.2l2.77-1.68,1.44-3.88h3.21v3.91h5.15v3.77h-5.15v8.87a2,2,0,0,0,.6,1.58A2.37,2.37,0,0,0,1155,680.28Z" transform="translate(0)"/><path class="cls-1" d="M1169.3,684.28q-8.6,0-8.59-9.43c0-3.13.78-5.51,2.34-7.17s3.78-2.47,6.69-2.47a12.83,12.83,0,0,1,5.73,1.25l-1.48,3.88c-.79-.32-1.53-.58-2.21-.78a7.2,7.2,0,0,0-2-.3q-3.91,0-3.91,5.56c0,3.6,1.3,5.39,3.91,5.39a8.81,8.81,0,0,0,2.68-.38,9.56,9.56,0,0,0,2.47-1.21v4.29a8,8,0,0,1-2.46,1.07A13.64,13.64,0,0,1,1169.3,684.28Z" transform="translate(0)"/><path class="cls-1" d="M1196.13,684h-5V673.21q0-4-3-4a3.38,3.38,0,0,0-3,1.43,8.83,8.83,0,0,0-.94,4.64V684h-5v-25.6h5v5.21c0,.41,0,1.36-.11,2.87l-.12,1.48h.27a5.8,5.8,0,0,1,5.33-2.7,6.53,6.53,0,0,1,4.92,1.74,6.93,6.93,0,0,1,1.67,5Z" transform="translate(0)"/><path class="cls-1" d="M1201.09,660.8c0-1.64.91-2.45,2.73-2.45s2.73.81,2.73,2.45a2.42,2.42,0,0,1-.68,1.82,2.9,2.9,0,0,1-2,.65C1202,663.27,1201.09,662.44,1201.09,660.8Zm5.23,23.15h-5v-18.4h5Z" transform="translate(0)"/><path class="cls-1" d="M1228.56,684h-5V673.21a5.17,5.17,0,0,0-.71-3,2.58,2.58,0,0,0-2.26-1,3.39,3.39,0,0,0-3,1.41,8.76,8.76,0,0,0-.94,4.66V684h-5v-18.4h3.84l.67,2.36h.28a5.34,5.34,0,0,1,2.31-2,8,8,0,0,1,3.35-.68,6.46,6.46,0,0,1,4.87,1.73,7,7,0,0,1,1.66,5Z" transform="translate(0)"/><path class="cls-1" d="M1249.74,665.55v2.55l-2.88.74a5,5,0,0,1,.79,2.77,5.57,5.57,0,0,1-2.07,4.61,8.87,8.87,0,0,1-5.73,1.66l-.9,0-.74-.08a1.65,1.65,0,0,0-.78,1.31c0,.73.92,1.09,2.77,1.09h3.12a7.13,7.13,0,0,1,4.62,1.3,4.64,4.64,0,0,1,1.59,3.82,5.67,5.67,0,0,1-2.69,5c-1.8,1.18-4.37,1.77-7.73,1.77a10.62,10.62,0,0,1-5.88-1.34,4.23,4.23,0,0,1-2-3.76,4,4,0,0,1,1-2.78,6,6,0,0,1,3-1.59,3.31,3.31,0,0,1-1.35-1.08,2.64,2.64,0,0,1,0-3.34,7,7,0,0,1,1.76-1.37,5,5,0,0,1-2.29-2,6.07,6.07,0,0,1-.85-3.26,5.74,5.74,0,0,1,2-4.66,8.49,8.49,0,0,1,5.59-1.64,15,15,0,0,1,1.84.14c.7.09,1.15.16,1.35.2Zm-14.2,21a1.82,1.82,0,0,0,1,1.63,5.5,5.5,0,0,0,2.78.59,9.94,9.94,0,0,0,4.23-.74,2.25,2.25,0,0,0,1.53-2,1.44,1.44,0,0,0-.9-1.44,7.51,7.51,0,0,0-2.8-.39h-2.6a4,4,0,0,0-2.31.65A2,2,0,0,0,1235.54,686.55Zm1.83-15a3.75,3.75,0,0,0,.68,2.37,2.48,2.48,0,0,0,2.08.87,2.43,2.43,0,0,0,2.07-.87,3.87,3.87,0,0,0,.66-2.37q0-3.33-2.73-3.33T1237.37,671.58Z" transform="translate(0)"/><path class="cls-1" d="M1110.53,724.39h-5.11V704.58h-6.53v-4.25h18.17v4.25h-6.53Z" transform="translate(0)"/><path class="cls-1" d="M1134.48,700.33h5.15l-8.18,24.06h-5.56l-8.16-24.06h5.15l4.53,14.32c.25.84.51,1.82.78,3s.43,1.9.5,2.34a42,42,0,0,1,1.23-5.29Z" transform="translate(0)"/><path class="cls-1" d="M1163.85,718.92a5.05,5.05,0,0,1-2,4.31q-2,1.49-5.88,1.48a18.51,18.51,0,0,1-3.42-.27,13,13,0,0,1-2.65-.79V719.5a16.83,16.83,0,0,0,3.15,1.1,12.64,12.64,0,0,0,3.09.45c1.82,0,2.73-.53,2.73-1.58a1.34,1.34,0,0,0-.36-1,6,6,0,0,0-1.25-.84c-.6-.31-1.39-.67-2.37-1.09a14.32,14.32,0,0,1-3.12-1.65,4.53,4.53,0,0,1-1.45-1.73,5.76,5.76,0,0,1-.45-2.41,4.35,4.35,0,0,1,1.9-3.79,9.19,9.19,0,0,1,5.39-1.34,15.34,15.34,0,0,1,6.46,1.44l-1.51,3.62c-.92-.39-1.78-.72-2.58-1a8.25,8.25,0,0,0-2.46-.38q-2.22,0-2.22,1.2a1.41,1.41,0,0,0,.72,1.17,19.62,19.62,0,0,0,3.13,1.47,14.22,14.22,0,0,1,3.16,1.63,4.76,4.76,0,0,1,1.48,1.74A5.33,5.33,0,0,1,1163.85,718.92Z" transform="translate(0)"/><path class="cls-1" d="M1176.09,724.71a9.47,9.47,0,0,1-6.94-2.45,9.26,9.26,0,0,1-2.5-6.94c0-3.08.77-5.47,2.31-7.15a8.23,8.23,0,0,1,6.39-2.52,8.1,8.1,0,0,1,6.07,2.22,8.38,8.38,0,0,1,2.17,6.13v2.44h-11.86a4.86,4.86,0,0,0,1.27,3.34,4.46,4.46,0,0,0,3.32,1.2,13.73,13.73,0,0,0,3.14-.35,15.45,15.45,0,0,0,3.1-1.1v3.89a12.12,12.12,0,0,1-2.81,1A17.4,17.4,0,0,1,1176.09,724.71Zm-.71-15.49a3.18,3.18,0,0,0-2.5,1,4.64,4.64,0,0,0-1,2.87h7a4.19,4.19,0,0,0-1-2.87A3.28,3.28,0,0,0,1175.38,709.22Z" transform="translate(0)"/><path class="cls-1" d="M1197.94,705.65a8.13,8.13,0,0,1,1.7.14l-.38,4.71a5.74,5.74,0,0,0-1.48-.17,5.32,5.32,0,0,0-3.74,1.24,4.43,4.43,0,0,0-1.35,3.45v9.37h-5V706h3.8l.74,3.09h.24a6.85,6.85,0,0,1,2.32-2.49A5.68,5.68,0,0,1,1197.94,705.65Z" transform="translate(0)"/><path class="cls-1" d="M1202.76,701.24c0-1.64.91-2.46,2.74-2.46s2.73.82,2.73,2.46a2.37,2.37,0,0,1-.69,1.81,2.81,2.81,0,0,1-2,.65C1203.67,703.7,1202.76,702.88,1202.76,701.24Zm5.24,23.15h-5V706h5Z" transform="translate(0)"/><path class="cls-1" d="M1221.59,724.71a9.48,9.48,0,0,1-6.95-2.45,9.3,9.3,0,0,1-2.5-6.94c0-3.08.77-5.47,2.31-7.15a8.24,8.24,0,0,1,6.4-2.52,8.1,8.1,0,0,1,6.07,2.22,8.38,8.38,0,0,1,2.17,6.13v2.44h-11.86a4.81,4.81,0,0,0,1.26,3.34,4.47,4.47,0,0,0,3.33,1.2,13.86,13.86,0,0,0,3.14-.35,15.16,15.16,0,0,0,3.09-1.1v3.89a12,12,0,0,1-2.81,1A17.36,17.36,0,0,1,1221.59,724.71Zm-.71-15.49a3.15,3.15,0,0,0-2.5,1,4.64,4.64,0,0,0-1,2.87h7a4.14,4.14,0,0,0-1-2.87A3.26,3.26,0,0,0,1220.88,709.22Z" transform="translate(0)"/><path class="cls-1" d="M1246,718.92a5,5,0,0,1-2,4.31q-2,1.49-5.88,1.48a18.7,18.7,0,0,1-3.43-.27,13.15,13.15,0,0,1-2.65-.79V719.5a17.35,17.35,0,0,0,3.15,1.1,12.64,12.64,0,0,0,3.09.45c1.82,0,2.73-.53,2.73-1.58a1.34,1.34,0,0,0-.36-1,5.73,5.73,0,0,0-1.25-.84c-.59-.31-1.38-.67-2.37-1.09a14.56,14.56,0,0,1-3.12-1.65,4.63,4.63,0,0,1-1.45-1.73,5.76,5.76,0,0,1-.45-2.41A4.35,4.35,0,0,1,1234,707a9.21,9.21,0,0,1,5.39-1.34,15.38,15.38,0,0,1,6.47,1.44l-1.52,3.62c-.92-.39-1.78-.72-2.58-1a8.19,8.19,0,0,0-2.45-.38q-2.22,0-2.22,1.2a1.43,1.43,0,0,0,.71,1.17,19.42,19.42,0,0,0,3.14,1.47,14.45,14.45,0,0,1,3.16,1.63,4.86,4.86,0,0,1,1.48,1.74A5.47,5.47,0,0,1,1246,718.92Z" transform="translate(0)"/></g></svg>