<svg xmlns="http://www.w3.org/2000/svg" viewBox="0 0 1500 1500"><defs><style>.cls-1{fill:#fff;}.cls-2{fill:#38d7f2;}</style></defs><title>moeglichkeiten</title><g id="Layer_4" data-name="Layer 4"><rect class="cls-1" width="1500" height="1500"/></g><g id="Layer_10" data-name="Layer 10"><polygon class="cls-2" points="1342.25 947.19 1369.17 974.11 1428.63 914.47 1399.12 884.96 1436.91 847.17 1135.23 545.49 1037.89 642.83 1075.02 679.96 1053.26 701.72 1016.13 664.59 887.29 793.43 970.6 876.73 948.84 898.49 779.62 729.27 801.38 707.51 863.78 769.91 1073.93 559.77 951.13 436.96 929.54 415.38 951.13 393.79 967.33 377.58 801.75 212 704.4 309.34 737.83 342.77 716.07 364.53 643.93 292.38 515.09 421.22 719.3 625.44 869.9 474.84 891.66 496.6 719.28 668.98 697.52 647.22 697.54 647.2 426.23 375.89 44.52 757.59 135.66 848.74 213.96 772.48 338.53 897.05 510.91 724.67 532.67 746.43 360.29 918.81 823.17 1381.69 1127.6 1077.26 1031.95 981.61 1053.71 959.85 1248.32 1154.45 1377.28 1025.49 1132.42 780.88 1154.18 759.12 1342.25 947.19"/><path class="cls-1" d="M1177.62,990.91h-5.07V980.56h-9.49v10.35H1158v-24h5.08v9.39h9.49v-9.39h5.07Z" transform="translate(0)"/><path class="cls-1" d="M1199.93,981.71a9.81,9.81,0,0,1-2.36,7,8.52,8.52,0,0,1-6.57,2.53,9.23,9.23,0,0,1-4.66-1.16,7.72,7.72,0,0,1-3.1-3.32,11.15,11.15,0,0,1-1.08-5,9.8,9.8,0,0,1,2.34-7,8.63,8.63,0,0,1,6.6-2.49,9.26,9.26,0,0,1,4.65,1.14,7.67,7.67,0,0,1,3.1,3.3A11.06,11.06,0,0,1,1199.93,981.71Zm-12.67,0a7.76,7.76,0,0,0,.89,4.12,3.2,3.2,0,0,0,2.91,1.39,3.13,3.13,0,0,0,2.88-1.39,7.81,7.81,0,0,0,.88-4.12,7.58,7.58,0,0,0-.89-4.08,3.77,3.77,0,0,0-5.79,0A7.58,7.58,0,0,0,1187.26,981.71Z" transform="translate(0)"/><path class="cls-1" d="M1214.26,972.24a5.92,5.92,0,0,1,5.08,2.53,11.57,11.57,0,0,1,1.84,6.94c0,3-.63,5.37-1.89,7a6.15,6.15,0,0,1-5.16,2.49,6.08,6.08,0,0,1-5.07-2.35h-.34l-.84,2h-3.82V965.4h5v5.93c0,.76-.06,2-.19,3.63h.19A5.78,5.78,0,0,1,1214.26,972.24Zm-1.61,4a3.15,3.15,0,0,0-2.7,1.14,6.56,6.56,0,0,0-.89,3.76v.54a7.75,7.75,0,0,0,.88,4.23,3.14,3.14,0,0,0,2.78,1.28,2.8,2.8,0,0,0,2.45-1.42,7.65,7.65,0,0,0,.91-4.12,7.28,7.28,0,0,0-.92-4.06A2.88,2.88,0,0,0,1212.65,976.24Z" transform="translate(0)"/><path class="cls-1" d="M1235.51,972.24a5.92,5.92,0,0,1,5.08,2.53,11.64,11.64,0,0,1,1.84,6.94,11.47,11.47,0,0,1-1.9,7,6.61,6.61,0,0,1-10.22.14H1230l-.84,2h-3.82V965.4h5v5.93c0,.76-.06,2-.2,3.63h.2A5.77,5.77,0,0,1,1235.51,972.24Zm-1.61,4a3.14,3.14,0,0,0-2.7,1.14,6.48,6.48,0,0,0-.89,3.76v.54a7.66,7.66,0,0,0,.88,4.23,3.13,3.13,0,0,0,2.78,1.28,2.81,2.81,0,0,0,2.45-1.42,7.74,7.74,0,0,0,.91-4.12,7.28,7.28,0,0,0-.92-4.06A2.88,2.88,0,0,0,1233.9,976.24Z" transform="translate(0)"/><path class="cls-1" d="M1246.34,967.84c0-1.63.91-2.44,2.73-2.44s2.72.81,2.72,2.44a2.38,2.38,0,0,1-.68,1.81,2.84,2.84,0,0,1-2,.65Q1246.34,970.3,1246.34,967.84Zm5.22,23.07h-5V972.58h5Z" transform="translate(0)"/><path class="cls-1" d="M1265.1,991.24a9.46,9.46,0,0,1-6.92-2.45,9.23,9.23,0,0,1-2.49-6.91c0-3.08.77-5.45,2.3-7.13a8.2,8.2,0,0,1,6.37-2.51,8.05,8.05,0,0,1,6.05,2.21,8.33,8.33,0,0,1,2.17,6.11V983h-11.82a4.79,4.79,0,0,0,1.26,3.33,4.44,4.44,0,0,0,3.31,1.2,13.71,13.71,0,0,0,3.13-.35,15.08,15.08,0,0,0,3.08-1.1v3.87a11.91,11.91,0,0,1-2.8,1A17.88,17.88,0,0,1,1265.1,991.24Zm-.7-15.45a3.18,3.18,0,0,0-2.5,1,4.69,4.69,0,0,0-1,2.86h7a4.18,4.18,0,0,0-1-2.86A3.27,3.27,0,0,0,1264.4,975.79Z" transform="translate(0)"/><path class="cls-1" d="M1289.43,985.47a5,5,0,0,1-2,4.29c-1.3,1-3.26,1.48-5.86,1.48a18.47,18.47,0,0,1-3.41-.27,12.88,12.88,0,0,1-2.64-.8V986a17.74,17.74,0,0,0,3.14,1.1,12.93,12.93,0,0,0,3.07.44c1.82,0,2.73-.52,2.73-1.57a1.27,1.27,0,0,0-.37-1,5,5,0,0,0-1.24-.84c-.59-.31-1.38-.67-2.36-1.09a14.49,14.49,0,0,1-3.11-1.64,4.6,4.6,0,0,1-1.44-1.73,5.71,5.71,0,0,1-.45-2.4,4.36,4.36,0,0,1,1.89-3.78,9.22,9.22,0,0,1,5.37-1.33,15.22,15.22,0,0,1,6.44,1.44l-1.5,3.61a25.76,25.76,0,0,0-2.58-1,8.12,8.12,0,0,0-2.44-.38c-1.48,0-2.21.4-2.21,1.2a1.39,1.39,0,0,0,.71,1.16,18.33,18.33,0,0,0,3.12,1.46,14.84,14.84,0,0,1,3.15,1.62,4.93,4.93,0,0,1,1.48,1.74A5.47,5.47,0,0,1,1289.43,985.47Z" transform="translate(0)"/><path class="cls-1" d="M1161,1031.2l-1-2.49h-.14a7.34,7.34,0,0,1-2.59,2.2,8.42,8.42,0,0,1-3.49.62,5.6,5.6,0,0,1-4.15-1.51,5.77,5.77,0,0,1-1.52-4.3,4.83,4.83,0,0,1,2-4.3,11.87,11.87,0,0,1,6.16-1.53l3.18-.1v-.8c0-1.86-1-2.79-2.86-2.79a12.93,12.93,0,0,0-5.16,1.33l-1.66-3.38a15,15,0,0,1,7-1.66,8.75,8.75,0,0,1,5.66,1.61,5.94,5.94,0,0,1,2,4.89v12.21Zm-1.47-8.49-1.94.06a6.25,6.25,0,0,0-3.24.79,2.47,2.47,0,0,0-1.07,2.2c0,1.41.81,2.11,2.43,2.11a3.84,3.84,0,0,0,2.78-1,3.51,3.51,0,0,0,1-2.65Z" transform="translate(0)"/><path class="cls-1" d="M1182.59,1031.2l-.67-2.34h-.27a5.19,5.19,0,0,1-2.28,2,7.68,7.68,0,0,1-3.36.7,6.43,6.43,0,0,1-4.87-1.73,7,7,0,0,1-1.64-5v-11.95h5v10.71a5.12,5.12,0,0,0,.71,3,2.57,2.57,0,0,0,2.25,1,3.36,3.36,0,0,0,3-1.4,8.71,8.71,0,0,0,.93-4.65v-8.62h5v18.33Z" transform="translate(0)"/><path class="cls-1" d="M1204.46,1025.76a5,5,0,0,1-2,4.29q-2,1.48-5.86,1.48a18.39,18.39,0,0,1-3.41-.27,12.88,12.88,0,0,1-2.64-.8v-4.13a17.46,17.46,0,0,0,3.14,1.1,12.93,12.93,0,0,0,3.07.44c1.82,0,2.72-.52,2.72-1.57a1.3,1.3,0,0,0-.36-1,5,5,0,0,0-1.24-.84c-.59-.31-1.38-.67-2.36-1.09a14.49,14.49,0,0,1-3.11-1.64A4.6,4.6,0,0,1,1191,1020a5.71,5.71,0,0,1-.45-2.4,4.36,4.36,0,0,1,1.89-3.78,9.22,9.22,0,0,1,5.37-1.33,15.25,15.25,0,0,1,6.44,1.44l-1.51,3.61a25.64,25.64,0,0,0-2.57-1,8.12,8.12,0,0,0-2.44-.38q-2.22,0-2.22,1.2a1.4,1.4,0,0,0,.72,1.16,18.33,18.33,0,0,0,3.12,1.46,14.84,14.84,0,0,1,3.15,1.62,4.89,4.89,0,0,1,1.47,1.74A5.33,5.33,0,0,1,1204.46,1025.76Z" transform="translate(0)"/><path class="cls-1" d="M1213.36,1031.2h-5v-25.51h5Z" transform="translate(0)"/><path class="cls-1" d="M1226.9,1031.53a9.46,9.46,0,0,1-6.92-2.45,9.23,9.23,0,0,1-2.49-6.91q0-4.6,2.3-7.13a8.23,8.23,0,0,1,6.37-2.51,8.05,8.05,0,0,1,6,2.21,8.35,8.35,0,0,1,2.17,6.12v2.42h-11.82a4.79,4.79,0,0,0,1.26,3.33,4.44,4.44,0,0,0,3.31,1.2,13.64,13.64,0,0,0,3.13-.35,15.37,15.37,0,0,0,3.09-1.1v3.87a11.55,11.55,0,0,1-2.81,1A17.88,17.88,0,0,1,1226.9,1031.53Zm-.7-15.45a3.17,3.17,0,0,0-2.49,1,4.64,4.64,0,0,0-1,2.86h7a4.18,4.18,0,0,0-1-2.86A3.27,3.27,0,0,0,1226.2,1016.08Z" transform="translate(0)"/><path class="cls-1" d="M1248.64,1012.53a5.91,5.91,0,0,1,5.08,2.53,11.57,11.57,0,0,1,1.84,6.94q0,4.55-1.89,7a6.62,6.62,0,0,1-10.23.14h-.34l-.84,2h-3.82v-25.51h5v5.93c0,.76-.06,2-.19,3.63h.19A5.78,5.78,0,0,1,1248.64,1012.53Zm-1.6,4a3.16,3.16,0,0,0-2.71,1.14,6.58,6.58,0,0,0-.89,3.76v.54a7.75,7.75,0,0,0,.88,4.23,3.14,3.14,0,0,0,2.78,1.28,2.77,2.77,0,0,0,2.45-1.42,7.63,7.63,0,0,0,.91-4.12,7.19,7.19,0,0,0-.92-4.06A2.88,2.88,0,0,0,1247,1016.53Z" transform="translate(0)"/><path class="cls-1" d="M1268,1031.53a9.46,9.46,0,0,1-6.92-2.45,9.23,9.23,0,0,1-2.49-6.91c0-3.07.76-5.45,2.3-7.13a8.23,8.23,0,0,1,6.37-2.51,8.05,8.05,0,0,1,6,2.21,8.39,8.39,0,0,1,2.16,6.12v2.42h-11.82a4.84,4.84,0,0,0,1.27,3.33,4.42,4.42,0,0,0,3.31,1.2,13.77,13.77,0,0,0,3.13-.35,15.29,15.29,0,0,0,3.08-1.1v3.87a11.47,11.47,0,0,1-2.8,1A18,18,0,0,1,1268,1031.53Zm-.71-15.45a3.17,3.17,0,0,0-2.49,1,4.63,4.63,0,0,0-1,2.86h7a4.17,4.17,0,0,0-1-2.86A3.31,3.31,0,0,0,1267.28,1016.08Z" transform="translate(0)"/><path class="cls-1" d="M1296.45,1031.2h-5v-10.71a5.12,5.12,0,0,0-.71-3,2.56,2.56,0,0,0-2.24-1,3.38,3.38,0,0,0-3,1.4,8.71,8.71,0,0,0-.93,4.65v8.62h-5v-18.33h3.82l.67,2.35h.28a5.23,5.23,0,0,1,2.3-2,7.76,7.76,0,0,1,3.34-.68,6.37,6.37,0,0,1,4.85,1.73,6.9,6.9,0,0,1,1.66,5Z" transform="translate(0)"/><path class="cls-1" d="M605.4,1047.9H591.6v-24h13.8v4.17h-8.72v5.26h8.12v4.16h-8.12v6.18h8.72Z" transform="translate(0)"/><path class="cls-1" d="M622.8,1042.46a5,5,0,0,1-2,4.29q-2,1.49-5.86,1.48a18.39,18.39,0,0,1-3.41-.27,12.88,12.88,0,0,1-2.64-.8V1043a16.72,16.72,0,0,0,3.14,1.1,12.44,12.44,0,0,0,3.07.44c1.82,0,2.72-.52,2.72-1.57a1.33,1.33,0,0,0-.36-1,5.29,5.29,0,0,0-1.24-.84c-.59-.31-1.38-.67-2.36-1.09a14.49,14.49,0,0,1-3.11-1.64,4.57,4.57,0,0,1-1.44-1.72,5.79,5.79,0,0,1-.45-2.41,4.37,4.37,0,0,1,1.89-3.78,9.22,9.22,0,0,1,5.37-1.33,15.25,15.25,0,0,1,6.44,1.44l-1.51,3.61a25.64,25.64,0,0,0-2.57-1,8.12,8.12,0,0,0-2.44-.38q-2.22,0-2.22,1.2a1.39,1.39,0,0,0,.72,1.16,18.33,18.33,0,0,0,3.12,1.46,14.33,14.33,0,0,1,3.15,1.63,4.78,4.78,0,0,1,1.47,1.73A5.33,5.33,0,0,1,622.8,1042.46Z" transform="translate(0)"/><path class="cls-1" d="M639.49,1042.46a5,5,0,0,1-2,4.29q-2,1.49-5.86,1.48a18.39,18.39,0,0,1-3.41-.27,12.88,12.88,0,0,1-2.64-.8V1043a16.72,16.72,0,0,0,3.14,1.1,12.44,12.44,0,0,0,3.07.44c1.82,0,2.72-.52,2.72-1.57a1.33,1.33,0,0,0-.36-1,5.29,5.29,0,0,0-1.24-.84c-.59-.31-1.38-.67-2.36-1.09a14.49,14.49,0,0,1-3.11-1.64,4.57,4.57,0,0,1-1.44-1.72,5.63,5.63,0,0,1-.46-2.41,4.38,4.38,0,0,1,1.9-3.78,9.22,9.22,0,0,1,5.37-1.33,15.25,15.25,0,0,1,6.44,1.44l-1.51,3.61a25.64,25.64,0,0,0-2.57-1,8.12,8.12,0,0,0-2.44-.38q-2.22,0-2.22,1.2a1.39,1.39,0,0,0,.72,1.16,18.33,18.33,0,0,0,3.12,1.46,14.33,14.33,0,0,1,3.15,1.63,4.88,4.88,0,0,1,1.47,1.73A5.33,5.33,0,0,1,639.49,1042.46Z" transform="translate(0)"/><path class="cls-1" d="M651.69,1048.23a9.44,9.44,0,0,1-6.92-2.44,9.23,9.23,0,0,1-2.5-6.92q0-4.61,2.31-7.13a8.22,8.22,0,0,1,6.37-2.51,8.11,8.11,0,0,1,6,2.21,8.4,8.4,0,0,1,2.16,6.12V1040H647.34a4.88,4.88,0,0,0,1.26,3.33,4.44,4.44,0,0,0,3.31,1.2,13.79,13.79,0,0,0,3.14-.35,15.87,15.87,0,0,0,3.08-1.09v3.86a11.55,11.55,0,0,1-2.81,1A17.77,17.77,0,0,1,651.69,1048.23Zm-.71-15.44a3.17,3.17,0,0,0-2.49,1,4.66,4.66,0,0,0-1,2.86h7a4.15,4.15,0,0,0-1-2.86A3.26,3.26,0,0,0,651,1032.79Z" transform="translate(0)"/><path class="cls-1" d="M680.15,1047.9h-5v-10.7a5.14,5.14,0,0,0-.71-3,2.57,2.57,0,0,0-2.25-1,3.39,3.39,0,0,0-3,1.4,8.71,8.71,0,0,0-.93,4.65v8.62h-5v-18.33h3.82l.67,2.35H668a5.18,5.18,0,0,1,2.3-2,7.91,7.91,0,0,1,3.34-.68,6.37,6.37,0,0,1,4.85,1.73,6.94,6.94,0,0,1,1.66,5Z" transform="translate(0)"/><path class="cls-1" d="M983.23,786.51a7.34,7.34,0,0,1-2.42,5.92q-2.41,2.05-6.88,2.05h-2.18V803h-5.08V779h7.66c2.9,0,5.12.62,6.63,1.87A6.86,6.86,0,0,1,983.23,786.51Zm-11.48,3.8h1.68a5.52,5.52,0,0,0,3.5-.92,3.24,3.24,0,0,0,1.17-2.7,3.33,3.33,0,0,0-1-2.64,4.57,4.57,0,0,0-3.06-.85h-2.31Z" transform="translate(0)"/><path class="cls-1" d="M997.49,788.43h-4.33V803h-5V788.43h-2.75V786l2.75-1.35v-1.34a6,6,0,0,1,1.55-4.57c1-1,2.67-1.45,4.93-1.45a13,13,0,0,1,4.61.77L998,781.76a9.29,9.29,0,0,0-2.79-.48,1.81,1.81,0,0,0-1.54.63,2.6,2.6,0,0,0-.48,1.62v1.14h4.33Zm7.87,14.57h-5V777.49h5Z" transform="translate(0)"/><path class="cls-1" d="M1022.23,803l-1-2.49h-.13a7.38,7.38,0,0,1-2.59,2.21,8.47,8.47,0,0,1-3.49.61,5.6,5.6,0,0,1-4.15-1.51,5.73,5.73,0,0,1-1.52-4.29,4.85,4.85,0,0,1,2-4.31,11.87,11.87,0,0,1,6.16-1.53l3.18-.1v-.8c0-1.86-1-2.79-2.86-2.79a13.11,13.11,0,0,0-5.16,1.33l-1.66-3.38a15,15,0,0,1,7-1.65,8.75,8.75,0,0,1,5.66,1.6,6,6,0,0,1,2,4.89V803Zm-1.47-8.49-1.94.07a6.16,6.16,0,0,0-3.24.78,2.48,2.48,0,0,0-1.07,2.2c0,1.41.81,2.12,2.43,2.12a3.9,3.9,0,0,0,2.78-1,3.55,3.55,0,0,0,1-2.66Z" transform="translate(0)"/><path class="cls-1" d="M1047.79,803h-5V792.3a5.16,5.16,0,0,0-.7-3,2.57,2.57,0,0,0-2.25-1,3.38,3.38,0,0,0-3,1.4,8.65,8.65,0,0,0-.94,4.65V803h-5V784.67h3.82l.67,2.35h.28a5.26,5.26,0,0,1,2.31-2,7.86,7.86,0,0,1,3.33-.68,6.45,6.45,0,0,1,4.86,1.73,7,7,0,0,1,1.65,5Z" transform="translate(0)"/><path class="cls-1" d="M1065.69,803h-14.47v-3l8.49-11.55h-8v-3.83h13.67v3.25l-8.26,11.26h8.55Z" transform="translate(0)"/><path class="cls-1" d="M1077.61,803.33a9.47,9.47,0,0,1-6.92-2.44,9.27,9.27,0,0,1-2.49-6.92q0-4.61,2.31-7.12a8.19,8.19,0,0,1,6.37-2.52,8.07,8.07,0,0,1,6,2.21,8.37,8.37,0,0,1,2.17,6.12v2.42h-11.82a4.75,4.75,0,0,0,1.26,3.33,4.44,4.44,0,0,0,3.31,1.2,13.65,13.65,0,0,0,3.13-.34,15.78,15.78,0,0,0,3.09-1.1V802a12,12,0,0,1-2.81,1A17.19,17.19,0,0,1,1077.61,803.33Zm-.7-15.44a3.14,3.14,0,0,0-2.49,1,4.67,4.67,0,0,0-1,2.86h7a4.11,4.11,0,0,0-1-2.86A3.23,3.23,0,0,0,1076.91,787.89Z" transform="translate(0)"/><path class="cls-1" d="M1106.07,803h-5V792.3a5.16,5.16,0,0,0-.7-3,2.57,2.57,0,0,0-2.25-1,3.38,3.38,0,0,0-3,1.4,8.76,8.76,0,0,0-.93,4.65V803h-5V784.67H1093l.67,2.35h.28a5.18,5.18,0,0,1,2.3-2,7.91,7.91,0,0,1,3.34-.68,6.43,6.43,0,0,1,4.85,1.73,7,7,0,0,1,1.65,5Z" transform="translate(0)"/><path class="cls-1" d="M1004.28,843.29h-5v-10.7q0-4-2.95-4a3.35,3.35,0,0,0-3,1.43,8.63,8.63,0,0,0-.94,4.62v8.62h-5v-25.5h5V823c0,.41,0,1.36-.11,2.85l-.12,1.48h.26a5.81,5.81,0,0,1,5.32-2.69,6.5,6.5,0,0,1,4.9,1.74,6.92,6.92,0,0,1,1.67,5Z" transform="translate(0)"/><path class="cls-1" d="M1017.72,843.62a9.43,9.43,0,0,1-6.91-2.44,9.22,9.22,0,0,1-2.5-6.92q0-4.6,2.31-7.12a8.19,8.19,0,0,1,6.37-2.52,8.11,8.11,0,0,1,6,2.21,8.4,8.4,0,0,1,2.16,6.12v2.43h-11.82a4.79,4.79,0,0,0,1.26,3.32,4.44,4.44,0,0,0,3.31,1.2,13.65,13.65,0,0,0,3.13-.34,15.78,15.78,0,0,0,3.09-1.1v3.87a12,12,0,0,1-2.81,1A17.13,17.13,0,0,1,1017.72,843.62Zm-.7-15.44a3.17,3.17,0,0,0-2.49,1,4.61,4.61,0,0,0-1,2.86h7a4.11,4.11,0,0,0-1-2.86A3.27,3.27,0,0,0,1017,828.18Z" transform="translate(0)"/><path class="cls-1" d="M1045.22,825v2.54l-2.87.74a5,5,0,0,1,.79,2.75,5.57,5.57,0,0,1-2.06,4.6,8.9,8.9,0,0,1-5.71,1.65l-.91,0-.73-.09a1.67,1.67,0,0,0-.77,1.32c0,.72.91,1.08,2.75,1.08h3.12a7.09,7.09,0,0,1,4.59,1.29,4.63,4.63,0,0,1,1.59,3.81,5.65,5.65,0,0,1-2.68,5q-2.68,1.77-7.7,1.77a10.57,10.57,0,0,1-5.86-1.34,4.23,4.23,0,0,1-2-3.74,3.94,3.94,0,0,1,1-2.77,5.84,5.84,0,0,1,3-1.59,3.38,3.38,0,0,1-1.35-1.08,2.63,2.63,0,0,1,0-3.32,6.7,6.7,0,0,1,1.75-1.37,5,5,0,0,1-2.29-2,6.12,6.12,0,0,1-.84-3.25,5.72,5.72,0,0,1,2-4.64,8.45,8.45,0,0,1,5.57-1.64,14.7,14.7,0,0,1,1.83.14c.71.09,1.16.16,1.36.21Zm-14.15,20.92a1.81,1.81,0,0,0,1,1.62,5.5,5.5,0,0,0,2.78.59,9.84,9.84,0,0,0,4.21-.74,2.24,2.24,0,0,0,1.53-2,1.42,1.42,0,0,0-.9-1.42,7.41,7.41,0,0,0-2.79-.4h-2.59a3.9,3.9,0,0,0-2.3.65A2,2,0,0,0,1031.07,845.89Zm1.82-14.92a3.76,3.76,0,0,0,.68,2.36,2.46,2.46,0,0,0,2.07.87,2.43,2.43,0,0,0,2.07-.87,3.82,3.82,0,0,0,.66-2.36q0-3.32-2.73-3.32T1032.89,831Z" transform="translate(0)"/><path class="cls-1" d="M1056.53,843.62a9.46,9.46,0,0,1-6.92-2.44,9.25,9.25,0,0,1-2.49-6.92q0-4.6,2.3-7.12a8.2,8.2,0,0,1,6.37-2.52,8.09,8.09,0,0,1,6,2.21A8.37,8.37,0,0,1,1064,833v2.43h-11.82a4.74,4.74,0,0,0,1.26,3.32,4.44,4.44,0,0,0,3.31,1.2,13.71,13.71,0,0,0,3.13-.34,15.7,15.7,0,0,0,3.08-1.1v3.87a11.73,11.73,0,0,1-2.8,1A17.19,17.19,0,0,1,1056.53,843.62Zm-.7-15.44a3.21,3.21,0,0,0-2.5,1,4.67,4.67,0,0,0-1,2.86h7a4.16,4.16,0,0,0-1-2.86A3.27,3.27,0,0,0,1055.83,828.18Z" transform="translate(0)"/><path class="cls-1" d="M1085,843.29h-5v-10.7a5.18,5.18,0,0,0-.7-3,2.57,2.57,0,0,0-2.25-1,3.38,3.38,0,0,0-3,1.4,8.65,8.65,0,0,0-.94,4.65v8.62h-5V825h3.82l.68,2.34h.27a5.32,5.32,0,0,1,2.31-2,7.89,7.89,0,0,1,3.33-.68,6.44,6.44,0,0,1,4.86,1.73,7,7,0,0,1,1.65,5Z" transform="translate(0)"/><path class="cls-1" d="M874.62,598.43h-6.46L857.73,580.3h-.15c.21,3.2.32,5.49.32,6.85v11.28h-4.54v-24h6.41l10.41,18h.11c-.16-3.12-.25-5.32-.25-6.61V574.46h4.58Z" transform="translate(0)"/><path class="cls-1" d="M888.55,598.76a9.43,9.43,0,0,1-6.91-2.44,9.23,9.23,0,0,1-2.5-6.92q0-4.6,2.31-7.13a8.22,8.22,0,0,1,6.37-2.51,8.11,8.11,0,0,1,6,2.21,8.4,8.4,0,0,1,2.16,6.12v2.42H884.21a4.83,4.83,0,0,0,1.26,3.33,4.44,4.44,0,0,0,3.31,1.2,13.79,13.79,0,0,0,3.14-.35A15.87,15.87,0,0,0,895,593.6v3.86a11.55,11.55,0,0,1-2.81,1A17.81,17.81,0,0,1,888.55,598.76Zm-.7-15.44a3.17,3.17,0,0,0-2.49,1,4.66,4.66,0,0,0-1,2.87h7a4.16,4.16,0,0,0-1-2.87A3.26,3.26,0,0,0,887.85,583.32Z" transform="translate(0)"/><path class="cls-1" d="M913.08,598.43l-.67-2.34h-.26a5.3,5.3,0,0,1-2.28,2,7.74,7.74,0,0,1-3.36.7,6.4,6.4,0,0,1-4.87-1.73,6.92,6.92,0,0,1-1.64-5V580.1h5v10.71a5.13,5.13,0,0,0,.7,3,2.55,2.55,0,0,0,2.25,1,3.36,3.36,0,0,0,3-1.41,8.59,8.59,0,0,0,.94-4.64V580.1h5v18.33Z" transform="translate(0)"/><path class="cls-1" d="M930.46,598.76a9.46,9.46,0,0,1-6.92-2.44,9.27,9.27,0,0,1-2.49-6.92q0-4.6,2.3-7.13a8.23,8.23,0,0,1,6.37-2.51,8.09,8.09,0,0,1,6,2.21,8.41,8.41,0,0,1,2.17,6.12v2.42H926.12a4.79,4.79,0,0,0,1.26,3.33,4.44,4.44,0,0,0,3.31,1.2,13.71,13.71,0,0,0,3.13-.35,15.87,15.87,0,0,0,3.08-1.09v3.86a11.47,11.47,0,0,1-2.8,1A18,18,0,0,1,930.46,598.76Zm-.71-15.44a3.17,3.17,0,0,0-2.49,1,4.72,4.72,0,0,0-1,2.87h7a4.25,4.25,0,0,0-1-2.87A3.28,3.28,0,0,0,929.75,583.32Z" transform="translate(0)"/><path class="cls-1" d="M954.79,593a5,5,0,0,1-2,4.29q-2,1.49-5.86,1.48a18.47,18.47,0,0,1-3.41-.27,12.88,12.88,0,0,1-2.64-.8v-4.13a17,17,0,0,0,3.14,1.1,12.44,12.44,0,0,0,3.07.44c1.82,0,2.73-.52,2.73-1.57a1.34,1.34,0,0,0-.37-1,5.29,5.29,0,0,0-1.24-.84c-.59-.31-1.38-.67-2.36-1.09a14.49,14.49,0,0,1-3.11-1.64,4.52,4.52,0,0,1-1.44-1.73,5.71,5.71,0,0,1-.45-2.4,4.37,4.37,0,0,1,1.89-3.78,9.22,9.22,0,0,1,5.37-1.33,15.25,15.25,0,0,1,6.44,1.44l-1.51,3.61a24.76,24.76,0,0,0-2.57-1,8.12,8.12,0,0,0-2.44-.38q-2.22,0-2.22,1.2a1.39,1.39,0,0,0,.72,1.16,18.33,18.33,0,0,0,3.12,1.46,14.33,14.33,0,0,1,3.15,1.63,4.69,4.69,0,0,1,1.47,1.73A5.33,5.33,0,0,1,954.79,593Z" transform="translate(0)"/><path class="cls-1" d="M856.18,638.72h-5V613.21h5Z" transform="translate(0)"/><path class="cls-1" d="M869.72,639.05a9.46,9.46,0,0,1-6.92-2.44,9.27,9.27,0,0,1-2.49-6.92c0-3.07.77-5.45,2.3-7.12a8.2,8.2,0,0,1,6.37-2.52,8.09,8.09,0,0,1,6,2.21,8.4,8.4,0,0,1,2.16,6.12v2.42H865.37a4.82,4.82,0,0,0,1.27,3.33,4.42,4.42,0,0,0,3.31,1.2,14.3,14.3,0,0,0,3.13-.34,15.93,15.93,0,0,0,3.08-1.1v3.87a11.89,11.89,0,0,1-2.8,1A18,18,0,0,1,869.72,639.05ZM869,623.61a3.14,3.14,0,0,0-2.49,1,4.67,4.67,0,0,0-1,2.86h7a4.21,4.21,0,0,0-1-2.86A3.26,3.26,0,0,0,869,623.61Z" transform="translate(0)"/><path class="cls-1" d="M891.49,620.05a8,8,0,0,1,1.69.15l-.38,4.69a5.6,5.6,0,0,0-1.47-.17A5.29,5.29,0,0,0,887.6,626a4.45,4.45,0,0,0-1.34,3.44v9.33h-5V620.39h3.79l.74,3.09H886a7,7,0,0,1,2.3-2.49A5.68,5.68,0,0,1,891.49,620.05Z" transform="translate(0)"/><path class="cls-1" d="M913.43,638.72h-5V628a5.16,5.16,0,0,0-.71-3,2.56,2.56,0,0,0-2.24-1,3.41,3.41,0,0,0-3,1.4,8.76,8.76,0,0,0-.93,4.65v8.62h-5V620.39h3.82l.67,2.35h.28a5.23,5.23,0,0,1,2.3-2,7.91,7.91,0,0,1,3.34-.68,6.41,6.41,0,0,1,4.85,1.73,6.91,6.91,0,0,1,1.66,5Z" transform="translate(0)"/><path class="cls-1" d="M926.87,639.05a9.46,9.46,0,0,1-6.92-2.44,9.27,9.27,0,0,1-2.49-6.92c0-3.07.77-5.45,2.3-7.12a8.2,8.2,0,0,1,6.37-2.52,8.09,8.09,0,0,1,6,2.21,8.37,8.37,0,0,1,2.17,6.12v2.42H922.53a4.77,4.77,0,0,0,1.26,3.33,4.44,4.44,0,0,0,3.31,1.2,14.3,14.3,0,0,0,3.13-.34,15.7,15.7,0,0,0,3.08-1.1v3.87a11.89,11.89,0,0,1-2.8,1A17.88,17.88,0,0,1,926.87,639.05Zm-.7-15.44a3.18,3.18,0,0,0-2.5,1,4.67,4.67,0,0,0-1,2.86h7a4.16,4.16,0,0,0-1-2.86A3.23,3.23,0,0,0,926.17,623.61Z" transform="translate(0)"/><path class="cls-1" d="M955.33,638.72h-5V628a5.16,5.16,0,0,0-.7-3,2.57,2.57,0,0,0-2.25-1,3.38,3.38,0,0,0-3,1.4,8.65,8.65,0,0,0-.94,4.65v8.62h-5V620.39h3.82l.68,2.35h.27a5.26,5.26,0,0,1,2.31-2,7.89,7.89,0,0,1,3.33-.68,6.44,6.44,0,0,1,4.86,1.73,7,7,0,0,1,1.65,5Z" transform="translate(0)"/><path class="cls-1" d="M764.94,1192.84h7.46c3.4,0,5.86.48,7.4,1.45a5.05,5.05,0,0,1,2.3,4.61,5.77,5.77,0,0,1-1,3.53,4,4,0,0,1-2.68,1.65v.17a5.28,5.28,0,0,1,3.29,1.9,6.2,6.2,0,0,1,1,3.71,6.1,6.1,0,0,1-2.37,5.11,10.26,10.26,0,0,1-6.43,1.84h-9Zm5.08,9.49h3a5.33,5.33,0,0,0,3-.64,2.38,2.38,0,0,0,.93-2.11,2.13,2.13,0,0,0-1-2,6.45,6.45,0,0,0-3.19-.6H770Zm0,4v6.25h3.31a5,5,0,0,0,3.1-.8,3,3,0,0,0,1-2.46q0-3-4.26-3Z" transform="translate(0)"/><path class="cls-1" d="M800.09,1216.81l-.67-2.35h-.27a5.27,5.27,0,0,1-2.28,2,7.82,7.82,0,0,1-3.36.69,6.43,6.43,0,0,1-4.87-1.72,7,7,0,0,1-1.64-5v-12h5v10.7a5.14,5.14,0,0,0,.71,3,2.57,2.57,0,0,0,2.25,1,3.39,3.39,0,0,0,3-1.4,8.76,8.76,0,0,0,.93-4.65v-8.62h5v18.33Zm-10.27-23a2.15,2.15,0,0,1,.62-1.64,2.34,2.34,0,0,1,1.66-.57,2.3,2.3,0,0,1,1.7.61,2.15,2.15,0,0,1,.62,1.6,2.06,2.06,0,0,1-.63,1.58,2.69,2.69,0,0,1-3.35,0A2.09,2.09,0,0,1,789.82,1193.77Zm6.61,0a2,2,0,0,1,.66-1.68,2.61,2.61,0,0,1,1.65-.53,2.41,2.41,0,0,1,1.7.59,2.1,2.1,0,0,1,.63,1.62,2,2,0,0,1-.64,1.59,2.37,2.37,0,0,1-1.69.59,2.55,2.55,0,0,1-1.65-.53A2,2,0,0,1,796.43,1193.77Z" transform="translate(0)"/><path class="cls-1" d="M816.61,1217.13q-8.55,0-8.55-9.39c0-3.12.77-5.49,2.32-7.14a8.78,8.78,0,0,1,6.68-2.47,12.7,12.7,0,0,1,5.7,1.25l-1.47,3.87c-.79-.32-1.52-.58-2.2-.78a7.18,7.18,0,0,0-2-.3c-2.61,0-3.91,1.84-3.91,5.54s1.3,5.37,3.91,5.37a8.79,8.79,0,0,0,2.67-.38,10,10,0,0,0,2.46-1.2v4.27a8.06,8.06,0,0,1-2.45,1.07A13.71,13.71,0,0,1,816.61,1217.13Z" transform="translate(0)"/><path class="cls-1" d="M843.35,1216.81h-5V1206.1c0-2.64-1-4-3-4a3.35,3.35,0,0,0-3,1.43,8.72,8.72,0,0,0-.94,4.62v8.63h-5V1191.3h5v5.19c0,.41,0,1.36-.11,2.86l-.12,1.47h.27a5.79,5.79,0,0,1,5.31-2.69,6.48,6.48,0,0,1,4.9,1.74,6.89,6.89,0,0,1,1.67,5Z" transform="translate(0)"/><path class="cls-1" d="M856.8,1217.13a9.46,9.46,0,0,1-6.92-2.44,9.25,9.25,0,0,1-2.49-6.92c0-3.07.76-5.44,2.3-7.12a8.2,8.2,0,0,1,6.37-2.52,8.06,8.06,0,0,1,6.05,2.22,8.36,8.36,0,0,1,2.16,6.11v2.43H852.45a4.88,4.88,0,0,0,1.26,3.33,4.5,4.5,0,0,0,3.32,1.19,13.78,13.78,0,0,0,3.13-.34,15.93,15.93,0,0,0,3.08-1.1v3.87a11.45,11.45,0,0,1-2.8,1A17.26,17.26,0,0,1,856.8,1217.13Zm-.71-15.44a3.17,3.17,0,0,0-2.49,1,4.63,4.63,0,0,0-1,2.86h7a4.17,4.17,0,0,0-1-2.86A3.31,3.31,0,0,0,856.09,1201.69Z" transform="translate(0)"/><path class="cls-1" d="M878.57,1198.13a8,8,0,0,1,1.69.15l-.38,4.69a5.69,5.69,0,0,0-1.47-.16,5.29,5.29,0,0,0-3.73,1.23,4.4,4.4,0,0,0-1.34,3.44v9.33h-5v-18.33h3.79l.73,3.08h.25a6.86,6.86,0,0,1,2.3-2.48A5.69,5.69,0,0,1,878.57,1198.13Z" transform="translate(0)"/><path class="cls-1" d="M784.73,1257.1h-5v-25.51h5Z" transform="translate(0)"/><path class="cls-1" d="M798.27,1257.43a9.46,9.46,0,0,1-6.92-2.45,9.25,9.25,0,0,1-2.49-6.92q0-4.61,2.3-7.12a8.2,8.2,0,0,1,6.37-2.52,8.06,8.06,0,0,1,6.05,2.22,8.36,8.36,0,0,1,2.16,6.11v2.43H793.92a4.84,4.84,0,0,0,1.27,3.33,4.46,4.46,0,0,0,3.31,1.19,13.71,13.71,0,0,0,3.13-.34,15.93,15.93,0,0,0,3.08-1.1v3.87a11.91,11.91,0,0,1-2.8,1A18,18,0,0,1,798.27,1257.43Zm-.71-15.45a3.17,3.17,0,0,0-2.49,1,4.69,4.69,0,0,0-1,2.86h7a4.23,4.23,0,0,0-1-2.86A3.31,3.31,0,0,0,797.56,1242Z" transform="translate(0)"/><path class="cls-1" d="M822.6,1251.65a5,5,0,0,1-2,4.3,9.71,9.71,0,0,1-5.86,1.48,19.3,19.3,0,0,1-3.41-.27,13.53,13.53,0,0,1-2.64-.8v-4.13a17.46,17.46,0,0,0,3.14,1.1,12.93,12.93,0,0,0,3.07.44c1.82,0,2.72-.52,2.72-1.57a1.3,1.3,0,0,0-.36-1,5,5,0,0,0-1.24-.84c-.59-.31-1.38-.67-2.36-1.09a15,15,0,0,1-3.11-1.64,4.6,4.6,0,0,1-1.44-1.73,5.71,5.71,0,0,1-.45-2.4,4.36,4.36,0,0,1,1.89-3.78,9.22,9.22,0,0,1,5.37-1.34,15.26,15.26,0,0,1,6.44,1.45l-1.51,3.6a27,27,0,0,0-2.57-1,7.82,7.82,0,0,0-2.44-.38q-2.22,0-2.22,1.2a1.41,1.41,0,0,0,.72,1.16,19.18,19.18,0,0,0,3.12,1.46,14.84,14.84,0,0,1,3.15,1.62,4.81,4.81,0,0,1,1.47,1.74A5.31,5.31,0,0,1,822.6,1251.65Z" transform="translate(0)"/><path class="cls-1" d="M834.8,1257.43a9.45,9.45,0,0,1-6.92-2.45,9.25,9.25,0,0,1-2.49-6.92c0-3.07.76-5.44,2.3-7.12a8.19,8.19,0,0,1,6.37-2.52,8.06,8.06,0,0,1,6.05,2.22,8.36,8.36,0,0,1,2.16,6.11v2.43H830.45a4.88,4.88,0,0,0,1.26,3.33,4.48,4.48,0,0,0,3.32,1.19,13.78,13.78,0,0,0,3.13-.34,15.93,15.93,0,0,0,3.08-1.1v3.87a12.07,12.07,0,0,1-2.8,1A18,18,0,0,1,834.8,1257.43Zm-.71-15.45a3.17,3.17,0,0,0-2.49,1,4.63,4.63,0,0,0-1,2.86h7a4.17,4.17,0,0,0-1-2.86A3.31,3.31,0,0,0,834.09,1242Z" transform="translate(0)"/><path class="cls-1" d="M863.26,1257.1h-5v-10.71a5.12,5.12,0,0,0-.71-3,2.55,2.55,0,0,0-2.24-1,3.39,3.39,0,0,0-3,1.41,8.7,8.7,0,0,0-.93,4.64v8.63h-5v-18.33h3.82l.67,2.34h.28a5.36,5.36,0,0,1,2.3-2,7.91,7.91,0,0,1,3.34-.68,6.41,6.41,0,0,1,4.85,1.73,6.94,6.94,0,0,1,1.66,5Z" transform="translate(0)"/><path class="cls-1" d="M900.87,1046.26h7.46c3.4,0,5.86.48,7.4,1.45a5,5,0,0,1,2.3,4.61,5.79,5.79,0,0,1-1,3.53,4,4,0,0,1-2.68,1.65v.17a5.28,5.28,0,0,1,3.29,1.9,6.19,6.19,0,0,1,1,3.7,6.1,6.1,0,0,1-2.37,5.12,10.27,10.27,0,0,1-6.44,1.84h-9Zm5.08,9.49h2.95a5.33,5.33,0,0,0,3-.64,2.38,2.38,0,0,0,.93-2.11,2.13,2.13,0,0,0-1-2,6.45,6.45,0,0,0-3.19-.6H906Zm0,4V1066h3.31a5,5,0,0,0,3.1-.8,3,3,0,0,0,1-2.46q0-3-4.26-3Z" transform="translate(0)"/><path class="cls-1" d="M933.26,1051.55a8,8,0,0,1,1.69.15l-.38,4.69a5.6,5.6,0,0,0-1.47-.17,5.29,5.29,0,0,0-3.73,1.23,4.46,4.46,0,0,0-1.34,3.45v9.33h-5V1051.9h3.79l.74,3.08h.24a6.8,6.8,0,0,1,2.31-2.48A5.65,5.65,0,0,1,933.26,1051.55Z" transform="translate(0)"/><path class="cls-1" d="M938.07,1047.16c0-1.63.9-2.44,2.72-2.44s2.72.81,2.72,2.44a2.4,2.4,0,0,1-.68,1.81,2.85,2.85,0,0,1-2,.65C939,1049.62,938.07,1048.8,938.07,1047.16Zm5.21,23.07h-5V1051.9h5Z" transform="translate(0)"/><path class="cls-1" d="M956.82,1070.55a9.46,9.46,0,0,1-6.92-2.44,9.25,9.25,0,0,1-2.49-6.92q0-4.61,2.3-7.12a8.2,8.2,0,0,1,6.37-2.52,8.06,8.06,0,0,1,6,2.22,8.33,8.33,0,0,1,2.17,6.11v2.43H952.48a4.74,4.74,0,0,0,1.26,3.32,4.44,4.44,0,0,0,3.31,1.2,13.65,13.65,0,0,0,3.13-.34,16,16,0,0,0,3.09-1.1v3.87a11.53,11.53,0,0,1-2.81,1A17.19,17.19,0,0,1,956.82,1070.55Zm-.7-15.44a3.21,3.21,0,0,0-2.5,1,4.67,4.67,0,0,0-1,2.86h7a4.16,4.16,0,0,0-1-2.86A3.27,3.27,0,0,0,956.12,1055.11Z" transform="translate(0)"/><path class="cls-1" d="M978.5,1055.65h-4.33v14.58h-5v-14.58h-2.76v-2.41l2.76-1.34v-1.35q0-3.13,1.54-4.57t4.93-1.44a12.7,12.7,0,0,1,4.61.77L979,1049a9.19,9.19,0,0,0-2.79-.48,1.81,1.81,0,0,0-1.54.63,2.66,2.66,0,0,0-.47,1.62v1.15h4.33Z" transform="translate(0)"/><path class="cls-1" d="M989.66,1070.55a9.46,9.46,0,0,1-6.92-2.44,9.25,9.25,0,0,1-2.49-6.92q0-4.61,2.3-7.12a8.2,8.2,0,0,1,6.37-2.52,8.06,8.06,0,0,1,6.05,2.22,8.33,8.33,0,0,1,2.17,6.11v2.43H985.32a4.74,4.74,0,0,0,1.26,3.32,4.44,4.44,0,0,0,3.31,1.2,13.71,13.71,0,0,0,3.13-.34,15.7,15.7,0,0,0,3.08-1.1v3.87a11.45,11.45,0,0,1-2.8,1A17.19,17.19,0,0,1,989.66,1070.55Zm-.7-15.44a3.21,3.21,0,0,0-2.5,1,4.67,4.67,0,0,0-1,2.86h7a4.16,4.16,0,0,0-1-2.86A3.27,3.27,0,0,0,989,1055.11Z" transform="translate(0)"/><path class="cls-1" d="M881.37,1105.07a5.06,5.06,0,0,1-2,4.3,9.75,9.75,0,0,1-5.87,1.47,18.47,18.47,0,0,1-3.41-.27,12.86,12.86,0,0,1-2.64-.79v-4.13a18.58,18.58,0,0,0,3.14,1.1,13,13,0,0,0,3.08.44c1.81,0,2.72-.53,2.72-1.58a1.29,1.29,0,0,0-.36-.95,5.09,5.09,0,0,0-1.25-.84c-.59-.31-1.37-.68-2.36-1.09a14.83,14.83,0,0,1-3.1-1.64,4.53,4.53,0,0,1-1.45-1.73,5.71,5.71,0,0,1-.45-2.4,4.34,4.34,0,0,1,1.9-3.78,9.21,9.21,0,0,1,5.36-1.34,15.16,15.16,0,0,1,6.45,1.45l-1.51,3.6q-1.38-.59-2.58-1a7.78,7.78,0,0,0-2.44-.38c-1.47,0-2.21.4-2.21,1.2a1.42,1.42,0,0,0,.71,1.16,19.88,19.88,0,0,0,3.13,1.46,14.47,14.47,0,0,1,3.14,1.62,4.76,4.76,0,0,1,1.48,1.74A5.43,5.43,0,0,1,881.37,1105.07Z" transform="translate(0)"/><path class="cls-1" d="M892.72,1110.84q-8.57,0-8.56-9.39c0-3.12.78-5.49,2.33-7.14a8.74,8.74,0,0,1,6.67-2.47,12.77,12.77,0,0,1,5.71,1.25l-1.48,3.87c-.79-.32-1.52-.58-2.2-.78a7.08,7.08,0,0,0-2-.3c-2.6,0-3.9,1.84-3.9,5.54s1.3,5.37,3.9,5.37a8.79,8.79,0,0,0,2.67-.38,10,10,0,0,0,2.46-1.2v4.27a8,8,0,0,1-2.45,1.07A13.55,13.55,0,0,1,892.72,1110.84Z" transform="translate(0)"/><path class="cls-1" d="M919.46,1110.52h-5v-10.71c0-2.64-1-4-3-4a3.38,3.38,0,0,0-3,1.43,8.73,8.73,0,0,0-.93,4.62v8.63h-5V1085h5v5.19c0,.41,0,1.36-.12,2.86l-.11,1.47h.26a5.81,5.81,0,0,1,5.31-2.69,6.51,6.51,0,0,1,4.91,1.74,6.93,6.93,0,0,1,1.67,5Z" transform="translate(0)"/><path class="cls-1" d="M934.84,1091.84a8,8,0,0,1,1.69.15l-.38,4.69a5.78,5.78,0,0,0-1.48-.16,5.31,5.31,0,0,0-3.73,1.23,4.43,4.43,0,0,0-1.33,3.44v9.33h-5v-18.33h3.78l.74,3.08h.25a6.77,6.77,0,0,1,2.3-2.48A5.69,5.69,0,0,1,934.84,1091.84Z" transform="translate(0)"/><path class="cls-1" d="M948.15,1110.84a9.46,9.46,0,0,1-6.92-2.44,9.25,9.25,0,0,1-2.49-6.92q0-4.61,2.3-7.12a8.2,8.2,0,0,1,6.37-2.52,8.06,8.06,0,0,1,6.05,2.22,8.36,8.36,0,0,1,2.16,6.11v2.43H943.8a4.84,4.84,0,0,0,1.27,3.33,4.46,4.46,0,0,0,3.31,1.19,13.71,13.71,0,0,0,3.13-.34,15.93,15.93,0,0,0,3.08-1.1v3.87a11.45,11.45,0,0,1-2.8,1A17.26,17.26,0,0,1,948.15,1110.84Zm-.71-15.44a3.17,3.17,0,0,0-2.49,1,4.69,4.69,0,0,0-1,2.86h7a4.23,4.23,0,0,0-1-2.86A3.29,3.29,0,0,0,947.44,1095.4Z" transform="translate(0)"/><path class="cls-1" d="M959.48,1087.45c0-1.63.91-2.44,2.72-2.44s2.72.81,2.72,2.44a2.38,2.38,0,0,1-.68,1.81,2.85,2.85,0,0,1-2,.65C960.39,1089.91,959.48,1089.09,959.48,1087.45Zm5.21,23.07h-5v-18.33h5Z" transform="translate(0)"/><path class="cls-1" d="M980.14,1091.84a5.94,5.94,0,0,1,5.08,2.54,11.62,11.62,0,0,1,1.83,6.94q0,4.54-1.89,7a6.62,6.62,0,0,1-10.22.15h-.35l-.83,2h-3.82V1085h5v5.93c0,.76-.07,2-.2,3.62h.2A5.79,5.79,0,0,1,980.14,1091.84Zm-1.61,4a3.16,3.16,0,0,0-2.71,1.14,6.62,6.62,0,0,0-.88,3.77v.54a7.71,7.71,0,0,0,.88,4.23,3.12,3.12,0,0,0,2.77,1.27,2.81,2.81,0,0,0,2.46-1.41,7.76,7.76,0,0,0,.91-4.13,7.26,7.26,0,0,0-.92-4A2.87,2.87,0,0,0,978.53,1095.84Z" transform="translate(0)"/><path class="cls-1" d="M999.48,1110.84a9.46,9.46,0,0,1-6.92-2.44,9.25,9.25,0,0,1-2.49-6.92q0-4.61,2.3-7.12a8.2,8.2,0,0,1,6.37-2.52,8.06,8.06,0,0,1,6,2.22,8.33,8.33,0,0,1,2.17,6.11v2.43H995.14a4.79,4.79,0,0,0,1.26,3.33,4.47,4.47,0,0,0,3.31,1.19,13.71,13.71,0,0,0,3.13-.34,15.7,15.7,0,0,0,3.08-1.1v3.87a11.31,11.31,0,0,1-2.8,1A17.19,17.19,0,0,1,999.48,1110.84Zm-.7-15.44a3.21,3.21,0,0,0-2.5,1,4.69,4.69,0,0,0-1,2.86h7a4.18,4.18,0,0,0-1-2.86A3.27,3.27,0,0,0,998.78,1095.4Z" transform="translate(0)"/><path class="cls-1" d="M1027.94,1110.52h-5v-10.71a5.18,5.18,0,0,0-.7-3,2.57,2.57,0,0,0-2.25-1,3.36,3.36,0,0,0-3,1.41,8.59,8.59,0,0,0-.94,4.64v8.63h-5v-18.33h3.82l.68,2.34h.27a5.39,5.39,0,0,1,2.31-2,7.89,7.89,0,0,1,3.33-.68,6.44,6.44,0,0,1,4.86,1.73,7,7,0,0,1,1.65,5Z" transform="translate(0)"/><path class="cls-1" d="M584.53,825.61H566.7v-3.3l11.49-16.47H567v-4.2h17.21v3.28l-11.47,16.49h11.78Z" transform="translate(0)"/><path class="cls-1" d="M596.26,825.94a9.46,9.46,0,0,1-6.92-2.45,9.25,9.25,0,0,1-2.49-6.92c0-3.07.76-5.44,2.3-7.12a8.2,8.2,0,0,1,6.37-2.52,8.06,8.06,0,0,1,6.05,2.22,8.36,8.36,0,0,1,2.16,6.11v2.43H591.91a4.88,4.88,0,0,0,1.26,3.33,4.5,4.5,0,0,0,3.32,1.19,13.78,13.78,0,0,0,3.13-.34,15.93,15.93,0,0,0,3.08-1.1v3.87a11.91,11.91,0,0,1-2.8,1A18,18,0,0,1,596.26,825.94Zm-.71-15.45a3.17,3.17,0,0,0-2.49,1,4.63,4.63,0,0,0-1,2.86h7a4.17,4.17,0,0,0-1-2.86A3.31,3.31,0,0,0,595.55,810.49Z" transform="translate(0)"/><path class="cls-1" d="M607.59,802.54c0-1.63.9-2.44,2.72-2.44s2.72.81,2.72,2.44a2.38,2.38,0,0,1-.68,1.81,2.89,2.89,0,0,1-2,.65C608.49,805,607.59,804.18,607.59,802.54Zm5.21,23.07h-5V807.28h5Z" transform="translate(0)"/><path class="cls-1" d="M625.77,822a10.86,10.86,0,0,0,3.14-.57v3.72a11.14,11.14,0,0,1-4.59.84,5.6,5.6,0,0,1-4.36-1.52,6.57,6.57,0,0,1-1.37-4.55V811h-2.4v-2.11l2.76-1.67,1.44-3.87h3.2v3.9h5.13V811h-5.13v8.84a2,2,0,0,0,.59,1.57A2.37,2.37,0,0,0,625.77,822Z" transform="translate(0)"/><path class="cls-1" d="M657.75,825.61h-5V814.9a5.4,5.4,0,0,0-.66-3,2.32,2.32,0,0,0-2.09-1,3,3,0,0,0-2.79,1.41,9.25,9.25,0,0,0-.87,4.64v8.63h-5V807.28h3.82l.67,2.34h.28a5,5,0,0,1,2.13-2,6.89,6.89,0,0,1,3.2-.72q4.11,0,5.58,2.69h.44a4.92,4.92,0,0,1,2.17-2,7.27,7.27,0,0,1,3.24-.71,6.41,6.41,0,0,1,4.71,1.6q1.6,1.61,1.6,5.13v12h-5V814.9a5.4,5.4,0,0,0-.66-3,2.32,2.32,0,0,0-2.09-1,3.12,3.12,0,0,0-2.75,1.32,7.48,7.48,0,0,0-.91,4.16Z" transform="translate(0)"/><path class="cls-1" d="M674.1,802.54c0-1.63.91-2.44,2.72-2.44s2.72.81,2.72,2.44a2.38,2.38,0,0,1-.68,1.81,2.85,2.85,0,0,1-2,.65C675,805,674.1,804.18,674.1,802.54Zm5.21,23.07h-5V807.28h5Z" transform="translate(0)"/><path class="cls-1" d="M692.28,822a11,11,0,0,0,3.15-.57v3.72a11.2,11.2,0,0,1-4.59.84,5.62,5.62,0,0,1-4.37-1.52,6.62,6.62,0,0,1-1.37-4.55V811h-2.39v-2.11l2.75-1.67,1.44-3.87h3.2v3.9h5.13V811H690.1v8.84a1.94,1.94,0,0,0,.6,1.57A2.34,2.34,0,0,0,692.28,822Z" transform="translate(0)"/><path class="cls-1" d="M713.66,825.94a6,6,0,0,1-5.08-2.51,14.06,14.06,0,0,1,0-14,6.08,6.08,0,0,1,5.17-2.52,6,6,0,0,1,5.28,2.69h.16a20.4,20.4,0,0,1-.37-3.65V800.1h5v25.51H720l-1-2.38h-.21A5.74,5.74,0,0,1,713.66,825.94Zm1.75-4a3.38,3.38,0,0,0,2.81-1.11,6.44,6.44,0,0,0,1-3.79v-.54a7.46,7.46,0,0,0-.91-4.23,3.39,3.39,0,0,0-3-1.28,2.94,2.94,0,0,0-2.6,1.42,7.53,7.53,0,0,0-.92,4.12,7.21,7.21,0,0,0,.93,4.06A3,3,0,0,0,715.41,822Z" transform="translate(0)"/><path class="cls-1" d="M737.4,825.94a9.46,9.46,0,0,1-6.92-2.45,9.25,9.25,0,0,1-2.49-6.92c0-3.07.76-5.44,2.3-7.12a8.2,8.2,0,0,1,6.37-2.52,8.06,8.06,0,0,1,6.05,2.22,8.36,8.36,0,0,1,2.16,6.11v2.43H733.05a4.84,4.84,0,0,0,1.27,3.33,4.46,4.46,0,0,0,3.31,1.19,13.78,13.78,0,0,0,3.13-.34,15.93,15.93,0,0,0,3.08-1.1v3.87a11.91,11.91,0,0,1-2.8,1A18,18,0,0,1,737.4,825.94Zm-.71-15.45a3.17,3.17,0,0,0-2.49,1,4.69,4.69,0,0,0-1,2.86h7a4.23,4.23,0,0,0-1-2.86A3.31,3.31,0,0,0,736.69,810.49Z" transform="translate(0)"/><path class="cls-1" d="M759.17,806.93a8,8,0,0,1,1.69.15l-.38,4.69a5.69,5.69,0,0,0-1.47-.16,5.29,5.29,0,0,0-3.73,1.23,4.4,4.4,0,0,0-1.34,3.44v9.33h-5V807.28h3.79l.73,3.08h.25a6.86,6.86,0,0,1,2.3-2.48A5.69,5.69,0,0,1,759.17,806.93Z" transform="translate(0)"/><path class="cls-1" d="M610.62,865.9h-5v-24h13.74v4.16h-8.74v6.18h8.13v4.15h-8.13Z" transform="translate(0)"/><path class="cls-1" d="M635.29,865.9l-1-2.49h-.13a7.34,7.34,0,0,1-2.59,2.2,8.46,8.46,0,0,1-3.49.62,5.64,5.64,0,0,1-4.15-1.51,5.77,5.77,0,0,1-1.52-4.3,4.83,4.83,0,0,1,2-4.3,11.78,11.78,0,0,1,6.16-1.53l3.18-.1v-.81c0-1.85-1-2.78-2.86-2.78a12.93,12.93,0,0,0-5.16,1.33l-1.66-3.38a14.84,14.84,0,0,1,7-1.66,8.75,8.75,0,0,1,5.66,1.61,5.93,5.93,0,0,1,2,4.88V865.9Zm-1.47-8.49-1.94.06a6.25,6.25,0,0,0-3.24.79,2.47,2.47,0,0,0-1.07,2.2c0,1.41.81,2.11,2.43,2.11a3.86,3.86,0,0,0,2.78-1,3.53,3.53,0,0,0,1-2.66Z" transform="translate(0)"/><path class="cls-1" d="M660.34,865.9h-5V855.19a5.4,5.4,0,0,0-.66-3,2.33,2.33,0,0,0-2.09-1,3,3,0,0,0-2.79,1.4,9.27,9.27,0,0,0-.87,4.64v8.63h-5V847.57h3.82l.67,2.34h.28a5.08,5.08,0,0,1,2.13-2,6.89,6.89,0,0,1,3.2-.72q4.11,0,5.58,2.69h.44a4.92,4.92,0,0,1,2.17-2,7.27,7.27,0,0,1,3.24-.71,6.41,6.41,0,0,1,4.71,1.6q1.61,1.6,1.6,5.13V865.9h-5V855.19a5.4,5.4,0,0,0-.66-3,2.33,2.33,0,0,0-2.09-1,3.11,3.11,0,0,0-2.75,1.31,7.48,7.48,0,0,0-.91,4.16Z" transform="translate(0)"/><path class="cls-1" d="M676.69,842.83c0-1.63.91-2.44,2.72-2.44s2.72.81,2.72,2.44a2.38,2.38,0,0,1-.68,1.81,2.81,2.81,0,0,1-2,.65C677.6,845.29,676.69,844.47,676.69,842.83Zm5.21,23.07h-5V847.57h5Z" transform="translate(0)"/><path class="cls-1" d="M692.15,865.9h-5V840.39h5Z" transform="translate(0)"/><path class="cls-1" d="M697.18,842.83c0-1.63.91-2.44,2.72-2.44s2.72.81,2.72,2.44a2.35,2.35,0,0,1-.68,1.81,2.81,2.81,0,0,1-2,.65C698.09,845.29,697.18,844.47,697.18,842.83Zm5.22,23.07h-5V847.57h5Z" transform="translate(0)"/><path class="cls-1" d="M715.94,866.23a9.46,9.46,0,0,1-6.92-2.45,9.23,9.23,0,0,1-2.49-6.91c0-3.08.76-5.45,2.3-7.13a8.2,8.2,0,0,1,6.37-2.52,8.06,8.06,0,0,1,6,2.22,8.36,8.36,0,0,1,2.16,6.11V858H711.59a4.88,4.88,0,0,0,1.26,3.33,4.46,4.46,0,0,0,3.32,1.19,13.78,13.78,0,0,0,3.13-.34,15.93,15.93,0,0,0,3.08-1.1v3.87a11.91,11.91,0,0,1-2.8,1A18,18,0,0,1,715.94,866.23Zm-.71-15.45a3.17,3.17,0,0,0-2.49,1,4.63,4.63,0,0,0-1,2.86h7a4.17,4.17,0,0,0-1-2.86A3.31,3.31,0,0,0,715.23,850.78Z" transform="translate(0)"/><path class="cls-1" d="M578.78,906.19l-7-18.33H577l3.54,10.44a18.41,18.41,0,0,1,.73,3.76h.1a16.58,16.58,0,0,1,.74-3.76l3.53-10.44h5.23l-7,18.33Z" transform="translate(0)"/><path class="cls-1" d="M601.81,906.52a9.47,9.47,0,0,1-6.91-2.44,9.23,9.23,0,0,1-2.5-6.92q0-4.6,2.31-7.13a8.22,8.22,0,0,1,6.37-2.51,8.07,8.07,0,0,1,6,2.21,8.39,8.39,0,0,1,2.16,6.12v2.42H597.47a4.83,4.83,0,0,0,1.26,3.33,4.44,4.44,0,0,0,3.31,1.2,13.79,13.79,0,0,0,3.14-.35,15.29,15.29,0,0,0,3.08-1.1v3.87a11.55,11.55,0,0,1-2.81,1A17.81,17.81,0,0,1,601.81,906.52Zm-.7-15.45a3.17,3.17,0,0,0-2.49,1,4.7,4.7,0,0,0-1,2.86h7a4.13,4.13,0,0,0-1-2.86A3.27,3.27,0,0,0,601.11,891.07Z" transform="translate(0)"/><path class="cls-1" d="M623.59,887.52a8.64,8.64,0,0,1,1.68.14l-.37,4.69a5.78,5.78,0,0,0-1.48-.16,5.31,5.31,0,0,0-3.73,1.23,4.45,4.45,0,0,0-1.33,3.44v9.33h-5V887.86h3.78l.74,3.08h.25a6.85,6.85,0,0,1,2.3-2.48A5.68,5.68,0,0,1,623.59,887.52Z" transform="translate(0)"/><path class="cls-1" d="M638.8,887.52a5.92,5.92,0,0,1,5.08,2.53,11.57,11.57,0,0,1,1.84,6.94q0,4.54-1.89,7a6.15,6.15,0,0,1-5.16,2.49,6.08,6.08,0,0,1-5.07-2.35h-.34l-.84,2H628.6V880.68h5v5.94c0,.75-.06,2-.19,3.62h.19A5.78,5.78,0,0,1,638.8,887.52Zm-1.61,4a3.15,3.15,0,0,0-2.7,1.14,6.5,6.5,0,0,0-.89,3.76V897a7.75,7.75,0,0,0,.88,4.23,3.13,3.13,0,0,0,2.78,1.28,2.78,2.78,0,0,0,2.45-1.42,7.63,7.63,0,0,0,.91-4.12,7.28,7.28,0,0,0-.92-4.06A2.88,2.88,0,0,0,637.19,891.52Z" transform="translate(0)"/><path class="cls-1" d="M660.08,887.52a8.76,8.76,0,0,1,1.69.14l-.38,4.69a5.64,5.64,0,0,0-1.47-.16,5.29,5.29,0,0,0-3.73,1.23,4.45,4.45,0,0,0-1.34,3.44v9.33h-5V887.86h3.79l.74,3.08h.24a7,7,0,0,1,2.3-2.48A5.68,5.68,0,0,1,660.08,887.52Z" transform="translate(0)"/><path class="cls-1" d="M664.88,883.12c0-1.62.91-2.44,2.73-2.44s2.72.82,2.72,2.44a2.38,2.38,0,0,1-.68,1.81,2.84,2.84,0,0,1-2,.65Q664.88,885.58,664.88,883.12Zm5.22,23.07h-5V887.86h5Z" transform="translate(0)"/><path class="cls-1" d="M692.26,906.19h-5V895.48a5.13,5.13,0,0,0-.7-3,2.57,2.57,0,0,0-2.25-1,3.35,3.35,0,0,0-3,1.4,8.7,8.7,0,0,0-.94,4.65v8.62h-5V887.86h3.82l.68,2.35h.28a5.18,5.18,0,0,1,2.3-2,7.74,7.74,0,0,1,3.33-.68,6.4,6.4,0,0,1,4.86,1.73,6.94,6.94,0,0,1,1.65,5Z" transform="translate(0)"/><path class="cls-1" d="M713.36,887.86v2.54l-2.87.74a5,5,0,0,1,.79,2.75,5.54,5.54,0,0,1-2.06,4.6,8.88,8.88,0,0,1-5.71,1.65l-.9,0-.74-.08a1.67,1.67,0,0,0-.77,1.31c0,.72.92,1.08,2.75,1.08H707a7.08,7.08,0,0,1,4.6,1.3,4.63,4.63,0,0,1,1.58,3.8,5.65,5.65,0,0,1-2.68,5c-1.79,1.18-4.35,1.77-7.7,1.77a10.65,10.65,0,0,1-5.86-1.34,4.24,4.24,0,0,1-2-3.75,3.93,3.93,0,0,1,1-2.77,5.92,5.92,0,0,1,3-1.59,3.32,3.32,0,0,1-1.34-1.07,2.62,2.62,0,0,1,0-3.33A7,7,0,0,1,699.4,899a4.84,4.84,0,0,1-2.29-2,6,6,0,0,1-.85-3.24,5.72,5.72,0,0,1,2-4.64,8.42,8.42,0,0,1,5.58-1.64,13.22,13.22,0,0,1,1.83.14c.7.09,1.15.16,1.35.2Zm-14.15,20.92a1.79,1.79,0,0,0,1,1.62A5.37,5.37,0,0,0,703,911a9.89,9.89,0,0,0,4.21-.73,2.25,2.25,0,0,0,1.52-2,1.44,1.44,0,0,0-.9-1.43,7.45,7.45,0,0,0-2.79-.39h-2.59a4,4,0,0,0-2.3.65A2,2,0,0,0,699.21,908.78ZM701,893.86a3.74,3.74,0,0,0,.68,2.36,2.49,2.49,0,0,0,2.08.87,2.4,2.4,0,0,0,2.06-.87,3.8,3.8,0,0,0,.66-2.36q0-3.32-2.72-3.31T701,893.86Z" transform="translate(0)"/><path class="cls-1" d="M724.68,906.52a9.48,9.48,0,0,1-6.92-2.44,9.27,9.27,0,0,1-2.49-6.92c0-3.07.76-5.45,2.3-7.13a8.22,8.22,0,0,1,6.37-2.51,8.07,8.07,0,0,1,6,2.21,8.39,8.39,0,0,1,2.16,6.12v2.42H720.33a4.88,4.88,0,0,0,1.26,3.33,4.45,4.45,0,0,0,3.32,1.2,13.77,13.77,0,0,0,3.13-.35,15.29,15.29,0,0,0,3.08-1.1v3.87a11.62,11.62,0,0,1-2.8,1A18,18,0,0,1,724.68,906.52ZM724,891.07a3.17,3.17,0,0,0-2.49,1,4.63,4.63,0,0,0-1,2.86h7a4.17,4.17,0,0,0-1-2.86A3.31,3.31,0,0,0,724,891.07Z" transform="translate(0)"/><path class="cls-1" d="M753.14,906.19h-5V895.48a5.12,5.12,0,0,0-.71-3,2.56,2.56,0,0,0-2.24-1,3.38,3.38,0,0,0-3,1.4,8.71,8.71,0,0,0-.93,4.65v8.62h-5V887.86H740l.67,2.35H741a5.23,5.23,0,0,1,2.3-2,7.76,7.76,0,0,1,3.34-.68,6.37,6.37,0,0,1,4.85,1.73,6.94,6.94,0,0,1,1.66,5Z" transform="translate(0)"/><path class="cls-1" d="M397.57,528.74a5,5,0,0,1-2,4.29,9.69,9.69,0,0,1-5.86,1.48,18.47,18.47,0,0,1-3.41-.27,12.88,12.88,0,0,1-2.64-.8v-4.13a17.74,17.74,0,0,0,3.14,1.1,13,13,0,0,0,3.08.44c1.81,0,2.72-.52,2.72-1.57a1.3,1.3,0,0,0-.36-1,5.09,5.09,0,0,0-1.25-.84c-.59-.31-1.38-.67-2.36-1.09a15,15,0,0,1-3.11-1.64,4.6,4.6,0,0,1-1.44-1.73,5.71,5.71,0,0,1-.45-2.4,4.36,4.36,0,0,1,1.89-3.78,9.27,9.27,0,0,1,5.37-1.33,15.3,15.3,0,0,1,6.45,1.44l-1.51,3.6q-1.38-.59-2.58-1a8.08,8.08,0,0,0-2.44-.38c-1.47,0-2.21.4-2.21,1.2a1.41,1.41,0,0,0,.71,1.16,19.17,19.17,0,0,0,3.12,1.46,14.59,14.59,0,0,1,3.15,1.62,4.93,4.93,0,0,1,1.48,1.74A5.47,5.47,0,0,1,397.57,528.74Z" transform="translate(0)"/><path class="cls-1" d="M406.28,524.21l2.18-2.79,5.13-5.57h5.64L412,523.8l7.72,10.38H413.9l-5.28-7.43-2.15,1.72v5.71h-5V508.67h5v11.38l-.26,4.16Z" transform="translate(0)"/><path class="cls-1" d="M419.67,515.85h5.48l3.46,10.31a14.76,14.76,0,0,1,.6,3.18h.1a14.16,14.16,0,0,1,.71-3.18l3.39-10.31h5.36L431,536.52a9,9,0,0,1-3,4.3,7.7,7.7,0,0,1-4.62,1.42,12,12,0,0,1-2.54-.27v-4a8.69,8.69,0,0,0,2,.21,3.57,3.57,0,0,0,2.32-.81,5.35,5.35,0,0,0,1.55-2.45l.29-.9Z" transform="translate(0)"/><path class="cls-1" d="M451.46,534.51a6.05,6.05,0,0,1-5.06-2.35h-.27c.18,1.53.27,2.42.27,2.66v7.42h-5V515.85h4.06l.71,2.38h.23a5.76,5.76,0,0,1,5.19-2.72,5.93,5.93,0,0,1,5.08,2.5,11.59,11.59,0,0,1,1.84,7,13.82,13.82,0,0,1-.86,5.1,7.18,7.18,0,0,1-2.45,3.3A6.32,6.32,0,0,1,451.46,534.51Zm-1.47-15a3.16,3.16,0,0,0-2.71,1.14,6.49,6.49,0,0,0-.88,3.76V525a7.76,7.76,0,0,0,.87,4.23,3.14,3.14,0,0,0,2.78,1.28q3.36,0,3.36-5.54a7.82,7.82,0,0,0-.83-4.06A2.81,2.81,0,0,0,450,519.51Z" transform="translate(0)"/><path class="cls-1" d="M470.94,534.51a9.46,9.46,0,0,1-6.92-2.45,9.23,9.23,0,0,1-2.49-6.91c0-3.08.77-5.45,2.3-7.13a8.2,8.2,0,0,1,6.37-2.51,8.05,8.05,0,0,1,6.05,2.21,8.36,8.36,0,0,1,2.16,6.11v2.43H466.59a4.84,4.84,0,0,0,1.27,3.33,4.42,4.42,0,0,0,3.31,1.2,13.71,13.71,0,0,0,3.13-.35,15.29,15.29,0,0,0,3.08-1.1v3.87a11.91,11.91,0,0,1-2.8,1A18,18,0,0,1,470.94,534.51Zm-.71-15.45a3.17,3.17,0,0,0-2.49,1,4.69,4.69,0,0,0-1,2.86h7a4.23,4.23,0,0,0-1-2.86A3.29,3.29,0,0,0,470.23,519.06Z" transform="translate(0)"/><path class="cls-1" d="M499.4,534.18h-5V523.47a5.12,5.12,0,0,0-.71-3,2.55,2.55,0,0,0-2.24-1,3.35,3.35,0,0,0-3,1.4,8.6,8.6,0,0,0-.94,4.65v8.62h-5V515.85h3.82l.67,2.34h.28a5.33,5.33,0,0,1,2.3-2,7.76,7.76,0,0,1,3.34-.68,6.41,6.41,0,0,1,4.85,1.72,6.94,6.94,0,0,1,1.66,5Z" transform="translate(0)"/><path class="cls-1" d="M509.45,530.65a50.63,50.63,0,0,1-2.89,7.86H503q1.07-4.37,1.65-8.23h4.59Z" transform="translate(0)"/><path class="cls-1" d="M348.59,570.81a10.86,10.86,0,0,0,3.15-.57V574a11.14,11.14,0,0,1-4.59.84,5.62,5.62,0,0,1-4.37-1.52,6.62,6.62,0,0,1-1.37-4.55V559.9H339v-2.12l2.75-1.67,1.45-3.87h3.19v3.9h5.13v3.76h-5.13v8.83a2,2,0,0,0,.6,1.58A2.36,2.36,0,0,0,348.59,570.81Z" transform="translate(0)"/><path class="cls-1" d="M363.74,574.8a9.51,9.51,0,0,1-6.92-2.44,9.27,9.27,0,0,1-2.49-6.92q0-4.61,2.31-7.13A8.2,8.2,0,0,1,363,555.8a8,8,0,0,1,6.05,2.21,8.34,8.34,0,0,1,2.17,6.11v2.43H359.4a4.79,4.79,0,0,0,1.26,3.33,4.44,4.44,0,0,0,3.31,1.2,13.64,13.64,0,0,0,3.13-.35,15.37,15.37,0,0,0,3.09-1.1v3.87a11.55,11.55,0,0,1-2.81,1A17.88,17.88,0,0,1,363.74,574.8Zm-.7-15.45a3.17,3.17,0,0,0-2.49,1,4.64,4.64,0,0,0-1,2.86h7a4.13,4.13,0,0,0-1-2.86A3.27,3.27,0,0,0,363,559.35Z" transform="translate(0)"/><path class="cls-1" d="M380.28,574.47h-5V549h5Z" transform="translate(0)"/><path class="cls-1" d="M393.83,574.8a9.5,9.5,0,0,1-6.92-2.44,9.27,9.27,0,0,1-2.49-6.92c0-3.07.76-5.45,2.3-7.13a8.22,8.22,0,0,1,6.37-2.51,8.05,8.05,0,0,1,6.05,2.21,8.38,8.38,0,0,1,2.16,6.11v2.43H389.48a4.88,4.88,0,0,0,1.26,3.33,4.46,4.46,0,0,0,3.32,1.2,13.77,13.77,0,0,0,3.13-.35,15.29,15.29,0,0,0,3.08-1.1v3.87a11.47,11.47,0,0,1-2.8,1A18,18,0,0,1,393.83,574.8Zm-.71-15.45a3.17,3.17,0,0,0-2.49,1,4.63,4.63,0,0,0-1,2.86h7a4.17,4.17,0,0,0-1-2.86A3.31,3.31,0,0,0,393.12,559.35Z" transform="translate(0)"/><path class="cls-1" d="M415.5,559.9h-4.33v14.57h-5V559.9h-2.75v-2.41l2.75-1.35V554.8a6,6,0,0,1,1.54-4.58c1-1,2.67-1.44,4.94-1.44a12.9,12.9,0,0,1,4.6.77L416,553.22a9.58,9.58,0,0,0-2.79-.47,1.8,1.8,0,0,0-1.54.63,2.59,2.59,0,0,0-.48,1.61v1.15h4.33Z" transform="translate(0)"/><path class="cls-1" d="M435,565.27a9.85,9.85,0,0,1-2.36,7,8.56,8.56,0,0,1-6.58,2.53,9.17,9.17,0,0,1-4.65-1.16,7.61,7.61,0,0,1-3.1-3.32,11.15,11.15,0,0,1-1.09-5.05,9.81,9.81,0,0,1,2.35-7,8.61,8.61,0,0,1,6.59-2.49,9.33,9.33,0,0,1,4.66,1.14,7.71,7.71,0,0,1,3.09,3.3A10.93,10.93,0,0,1,435,565.27Zm-12.68,0a7.66,7.66,0,0,0,.9,4.12,3.18,3.18,0,0,0,2.91,1.39A3.13,3.13,0,0,0,429,569.4a7.78,7.78,0,0,0,.88-4.13,7.59,7.59,0,0,0-.88-4.08,3.77,3.77,0,0,0-5.79,0A7.57,7.57,0,0,0,422.35,565.27Z" transform="translate(0)"/><path class="cls-1" d="M456.08,574.47h-5V563.76a5.12,5.12,0,0,0-.71-3,2.57,2.57,0,0,0-2.25-1,3.38,3.38,0,0,0-3,1.4,8.71,8.71,0,0,0-.93,4.65v8.62h-5V556.14H443l.67,2.35h.28a5.23,5.23,0,0,1,2.3-2,7.76,7.76,0,0,1,3.34-.68,6.37,6.37,0,0,1,4.85,1.73,6.94,6.94,0,0,1,1.66,5Z" transform="translate(0)"/><path class="cls-1" d="M461,551.4c0-1.63.91-2.44,2.72-2.44s2.72.81,2.72,2.44a2.35,2.35,0,0,1-.68,1.81,2.81,2.81,0,0,1-2,.65C461.92,553.86,461,553,461,551.4Zm5.21,23.07h-5V556.14h5Z" transform="translate(0)"/><path class="cls-1" d="M479.77,574.8a9.5,9.5,0,0,1-6.92-2.44,9.27,9.27,0,0,1-2.49-6.92c0-3.07.76-5.45,2.3-7.13A8.22,8.22,0,0,1,479,555.8a8.05,8.05,0,0,1,6.05,2.21,8.38,8.38,0,0,1,2.16,6.11v2.43H475.42a4.88,4.88,0,0,0,1.26,3.33,4.46,4.46,0,0,0,3.32,1.2,13.77,13.77,0,0,0,3.13-.35,15.29,15.29,0,0,0,3.08-1.1v3.87a11.62,11.62,0,0,1-2.8,1A18,18,0,0,1,479.77,574.8Zm-.71-15.45a3.17,3.17,0,0,0-2.49,1,4.63,4.63,0,0,0-1,2.86h7a4.17,4.17,0,0,0-1-2.86A3.31,3.31,0,0,0,479.06,559.35Z" transform="translate(0)"/><path class="cls-1" d="M501.54,555.8a8.76,8.76,0,0,1,1.69.14l-.38,4.69a5.72,5.72,0,0,0-1.48-.16,5.33,5.33,0,0,0-3.73,1.23,4.45,4.45,0,0,0-1.33,3.44v9.33h-5V556.14h3.79l.73,3.08h.25a7,7,0,0,1,2.3-2.48A5.68,5.68,0,0,1,501.54,555.8Z" transform="translate(0)"/><path class="cls-1" d="M514.85,574.8a9.5,9.5,0,0,1-6.92-2.44,9.27,9.27,0,0,1-2.49-6.92q0-4.61,2.3-7.13a8.23,8.23,0,0,1,6.37-2.51,8.05,8.05,0,0,1,6,2.21,8.34,8.34,0,0,1,2.17,6.11v2.43H510.51a4.79,4.79,0,0,0,1.26,3.33,4.44,4.44,0,0,0,3.31,1.2,13.71,13.71,0,0,0,3.13-.35,15.08,15.08,0,0,0,3.08-1.1v3.87a11.47,11.47,0,0,1-2.8,1A17.88,17.88,0,0,1,514.85,574.8Zm-.7-15.45a3.2,3.2,0,0,0-2.5,1,4.69,4.69,0,0,0-1,2.86h7a4.18,4.18,0,0,0-1-2.86A3.27,3.27,0,0,0,514.15,559.35Z" transform="translate(0)"/><path class="cls-1" d="M543.31,574.47h-5V563.76a5.13,5.13,0,0,0-.7-3,2.57,2.57,0,0,0-2.25-1,3.35,3.35,0,0,0-3,1.4,8.6,8.6,0,0,0-.94,4.65v8.62h-5V556.14h3.82l.67,2.35h.28a5.26,5.26,0,0,1,2.31-2,7.71,7.71,0,0,1,3.33-.68,6.41,6.41,0,0,1,4.86,1.73,6.94,6.94,0,0,1,1.65,5Z" transform="translate(0)"/><path class="cls-1" d="M553.36,571a51.83,51.83,0,0,1-2.88,7.85h-3.61q1.07-4.37,1.65-8.23h4.6Z" transform="translate(0)"/><path class="cls-1" d="M391.65,615.09q-8.56,0-8.56-9.39c0-3.12.77-5.5,2.33-7.14a8.7,8.7,0,0,1,6.67-2.47,12.7,12.7,0,0,1,5.7,1.24l-1.47,3.87c-.79-.31-1.52-.57-2.2-.78a7.13,7.13,0,0,0-2-.3q-3.9,0-3.9,5.54,0,5.39,3.9,5.38a8.79,8.79,0,0,0,2.67-.39,9.3,9.3,0,0,0,2.46-1.2v4.28a8,8,0,0,1-2.45,1.06A13.61,13.61,0,0,1,391.65,615.09Z" transform="translate(0)"/><path class="cls-1" d="M418.39,614.76h-5v-10.7q0-4-3-4a3.36,3.36,0,0,0-3,1.42,8.8,8.8,0,0,0-.93,4.63v8.62h-5V589.25h5v5.2q0,.6-.12,2.85l-.11,1.48h.26a5.77,5.77,0,0,1,5.31-2.69,6.48,6.48,0,0,1,4.9,1.74,6.87,6.87,0,0,1,1.68,5Z" transform="translate(0)"/><path class="cls-1" d="M435.17,614.76l-1-2.49h-.13a7.45,7.45,0,0,1-2.6,2.2,8.42,8.42,0,0,1-3.49.62,5.6,5.6,0,0,1-4.15-1.51,5.79,5.79,0,0,1-1.52-4.29,4.85,4.85,0,0,1,2-4.31,11.87,11.87,0,0,1,6.16-1.53l3.18-.1v-.8q0-2.79-2.85-2.79a12.94,12.94,0,0,0-5.17,1.33L424,597.71a15,15,0,0,1,7-1.65,8.75,8.75,0,0,1,5.66,1.6,6,6,0,0,1,2,4.89v12.21Zm-1.47-8.49-1.94.06a6.25,6.25,0,0,0-3.24.79,2.47,2.47,0,0,0-1.07,2.2c0,1.41.81,2.11,2.43,2.11a3.84,3.84,0,0,0,2.78-1,3.51,3.51,0,0,0,1-2.65Z" transform="translate(0)"/><path class="cls-1" d="M451.54,611.11a10.92,10.92,0,0,0,3.14-.58v3.72a11.14,11.14,0,0,1-4.59.84,5.64,5.64,0,0,1-4.37-1.52,6.6,6.6,0,0,1-1.37-4.55v-8.83H442v-2.12l2.76-1.67,1.44-3.87h3.19v3.9h5.14v3.76h-5.14V609a2,2,0,0,0,.6,1.58A2.37,2.37,0,0,0,451.54,611.11Z" transform="translate(0)"/><path class="cls-1" d="M466.11,611.11a11,11,0,0,0,3.15-.58v3.72a11.2,11.2,0,0,1-4.59.84,5.62,5.62,0,0,1-4.37-1.52,6.6,6.6,0,0,1-1.37-4.55v-8.83h-2.39v-2.12l2.75-1.67,1.44-3.87h3.2v3.9h5.13v3.76h-5.13V609a2,2,0,0,0,.6,1.58A2.34,2.34,0,0,0,466.11,611.11Z" transform="translate(0)"/><path class="cls-1" d="M481.26,615.09a9.46,9.46,0,0,1-6.92-2.44,9.27,9.27,0,0,1-2.49-6.92q0-4.61,2.3-7.13a8.23,8.23,0,0,1,6.37-2.51,8.09,8.09,0,0,1,6.05,2.21,8.4,8.4,0,0,1,2.16,6.12v2.42H476.91a4.84,4.84,0,0,0,1.27,3.33,4.42,4.42,0,0,0,3.31,1.2,13.71,13.71,0,0,0,3.13-.35,15.87,15.87,0,0,0,3.08-1.09v3.86a11.47,11.47,0,0,1-2.8,1A18,18,0,0,1,481.26,615.09Zm-.71-15.44a3.17,3.17,0,0,0-2.49,1,4.72,4.72,0,0,0-1,2.87h7a4.25,4.25,0,0,0-1-2.87A3.28,3.28,0,0,0,480.55,599.65Z" transform="translate(0)"/><path class="cls-1" d="M509.72,614.76h-5v-10.7a5.14,5.14,0,0,0-.71-3,2.55,2.55,0,0,0-2.24-1,3.38,3.38,0,0,0-3,1.4,8.6,8.6,0,0,0-.94,4.65v8.62h-5V596.43h3.82l.67,2.35h.28a5.29,5.29,0,0,1,2.3-2,7.91,7.91,0,0,1,3.34-.68,6.41,6.41,0,0,1,4.85,1.73,6.91,6.91,0,0,1,1.66,5Z" transform="translate(0)"/><path class="cls-1" d="M200,696.19h-5V685.48a5.39,5.39,0,0,0-.67-3,2.33,2.33,0,0,0-2.09-1,3,3,0,0,0-2.79,1.41,9.24,9.24,0,0,0-.86,4.64v8.62h-5V677.86h3.82l.68,2.35h.28a5,5,0,0,1,2.13-2,6.84,6.84,0,0,1,3.19-.71c2.75,0,4.6.89,5.58,2.69h.44a4.94,4.94,0,0,1,2.17-2,7.27,7.27,0,0,1,3.24-.7,6.35,6.35,0,0,1,4.71,1.6q1.6,1.59,1.6,5.12v12h-5V685.48a5.39,5.39,0,0,0-.67-3,2.33,2.33,0,0,0-2.09-1,3.09,3.09,0,0,0-2.74,1.31A7.39,7.39,0,0,0,200,687Z" transform="translate(0)"/><path class="cls-1" d="M216.29,673.12c0-1.63.91-2.44,2.72-2.44s2.72.81,2.72,2.44a2.38,2.38,0,0,1-.68,1.82,2.85,2.85,0,0,1-2,.64C217.2,675.58,216.29,674.76,216.29,673.12Zm5.21,23.07h-5V677.86h5Z" transform="translate(0)"/><path class="cls-1" d="M234.19,696.52q-8.55,0-8.55-9.4,0-4.67,2.32-7.14a8.77,8.77,0,0,1,6.68-2.46,12.7,12.7,0,0,1,5.7,1.24l-1.47,3.87c-.79-.31-1.52-.57-2.2-.78a7.18,7.18,0,0,0-2-.3c-2.6,0-3.91,1.85-3.91,5.54s1.31,5.38,3.91,5.38a8.79,8.79,0,0,0,2.67-.39,9.3,9.3,0,0,0,2.46-1.2v4.28a8,8,0,0,1-2.45,1.06A13.64,13.64,0,0,1,234.19,696.52Z" transform="translate(0)"/><path class="cls-1" d="M260.93,696.19h-5V685.48q0-4-3-4a3.34,3.34,0,0,0-3,1.42,8.77,8.77,0,0,0-.93,4.63v8.62h-5V670.68h5v5.2q0,.6-.12,2.85l-.11,1.48h.26a5.77,5.77,0,0,1,5.31-2.69,6.52,6.52,0,0,1,4.9,1.73,6.89,6.89,0,0,1,1.67,5Z" transform="translate(0)"/><path class="cls-1" d="M283.1,696.52a9.5,9.5,0,0,1-6.92-2.44,9.27,9.27,0,0,1-2.49-6.92q0-4.6,2.3-7.13a8.23,8.23,0,0,1,6.37-2.51,8.05,8.05,0,0,1,6.05,2.21,8.39,8.39,0,0,1,2.17,6.12v2.42H278.75A4.84,4.84,0,0,0,280,691.6a4.42,4.42,0,0,0,3.31,1.2,13.71,13.71,0,0,0,3.13-.35,15.29,15.29,0,0,0,3.08-1.1v3.87a11.47,11.47,0,0,1-2.8,1A18,18,0,0,1,283.1,696.52Zm-.71-15.45a3.17,3.17,0,0,0-2.49,1,4.69,4.69,0,0,0-1,2.86h7a4.23,4.23,0,0,0-1-2.86A3.29,3.29,0,0,0,282.39,681.07Z" transform="translate(0)"/><path class="cls-1" d="M311.56,696.19h-5V685.48a5.12,5.12,0,0,0-.71-3,2.54,2.54,0,0,0-2.24-1,3.35,3.35,0,0,0-3,1.4,8.6,8.6,0,0,0-.94,4.65v8.62h-5V677.86h3.82l.67,2.35h.28a5.26,5.26,0,0,1,2.31-2,7.71,7.71,0,0,1,3.33-.68,6.37,6.37,0,0,1,4.85,1.73,6.9,6.9,0,0,1,1.66,5Z" transform="translate(0)"/><path class="cls-1" d="M332.66,677.86v2.54l-2.87.74a5,5,0,0,1,.79,2.75,5.57,5.57,0,0,1-2.06,4.6,8.9,8.9,0,0,1-5.71,1.65l-.9,0-.74-.08a1.64,1.64,0,0,0-.77,1.31c0,.72.91,1.08,2.75,1.08h3.12a7,7,0,0,1,4.59,1.3,4.61,4.61,0,0,1,1.59,3.8,5.67,5.67,0,0,1-2.68,5q-2.68,1.77-7.7,1.77a10.65,10.65,0,0,1-5.86-1.34,4.25,4.25,0,0,1-2-3.75,3.94,3.94,0,0,1,1-2.77,5.88,5.88,0,0,1,3-1.59,3.42,3.42,0,0,1-1.35-1.07,2.64,2.64,0,0,1,0-3.33,7.15,7.15,0,0,1,1.75-1.37,4.93,4.93,0,0,1-2.29-2,6.11,6.11,0,0,1-.84-3.24,5.72,5.72,0,0,1,1.95-4.64,8.41,8.41,0,0,1,5.58-1.64,13,13,0,0,1,1.82.14c.71.09,1.16.16,1.36.2Zm-14.15,20.92a1.8,1.8,0,0,0,1,1.62,5.4,5.4,0,0,0,2.78.59,9.94,9.94,0,0,0,4.22-.73,2.27,2.27,0,0,0,1.52-2,1.44,1.44,0,0,0-.9-1.43,7.45,7.45,0,0,0-2.79-.39h-2.59a3.93,3.93,0,0,0-2.3.65A2,2,0,0,0,318.51,698.78Zm1.82-14.92a3.74,3.74,0,0,0,.68,2.36,2.48,2.48,0,0,0,2.08.87,2.41,2.41,0,0,0,2.06-.87,3.8,3.8,0,0,0,.66-2.36q0-3.32-2.72-3.31T320.33,683.86Z" transform="translate(0)"/><path class="cls-1" d="M347.32,696.19l-1-2.49h-.13a7.37,7.37,0,0,1-2.6,2.2,8.37,8.37,0,0,1-3.48.62A5.62,5.62,0,0,1,336,695a5.81,5.81,0,0,1-1.52-4.3,4.83,4.83,0,0,1,2-4.3,11.93,11.93,0,0,1,6.16-1.53l3.18-.1V684q0-2.79-2.85-2.79a12.94,12.94,0,0,0-5.17,1.33l-1.65-3.38a15,15,0,0,1,7-1.66,8.74,8.74,0,0,1,5.65,1.61,6,6,0,0,1,2,4.89v12.21Zm-1.48-8.49-1.93.06a6.26,6.26,0,0,0-3.25.79,2.47,2.47,0,0,0-1.06,2.2c0,1.41.8,2.11,2.42,2.11a3.82,3.82,0,0,0,2.78-1,3.51,3.51,0,0,0,1-2.65Z" transform="translate(0)"/><path class="cls-1" d="M371.91,677.86v2.54l-2.87.74a5,5,0,0,1,.79,2.75,5.57,5.57,0,0,1-2.06,4.6,8.9,8.9,0,0,1-5.71,1.65l-.91,0-.73-.08a1.64,1.64,0,0,0-.77,1.31c0,.72.91,1.08,2.75,1.08h3.12a7,7,0,0,1,4.59,1.3,4.61,4.61,0,0,1,1.59,3.8,5.67,5.67,0,0,1-2.68,5q-2.68,1.77-7.7,1.77a10.65,10.65,0,0,1-5.86-1.34,4.25,4.25,0,0,1-2-3.75,3.94,3.94,0,0,1,1-2.77,5.84,5.84,0,0,1,3-1.59,3.35,3.35,0,0,1-1.35-1.07,2.64,2.64,0,0,1,0-3.33,7.15,7.15,0,0,1,1.75-1.37,4.93,4.93,0,0,1-2.29-2,6.11,6.11,0,0,1-.84-3.24,5.72,5.72,0,0,1,1.95-4.64,8.39,8.39,0,0,1,5.57-1.64,13,13,0,0,1,1.83.14c.71.09,1.16.16,1.36.2Zm-14.15,20.92a1.8,1.8,0,0,0,1,1.62,5.4,5.4,0,0,0,2.78.59,9.85,9.85,0,0,0,4.21-.73,2.26,2.26,0,0,0,1.53-2,1.44,1.44,0,0,0-.9-1.43,7.45,7.45,0,0,0-2.79-.39H361a3.9,3.9,0,0,0-2.3.65A2,2,0,0,0,357.76,698.78Zm1.82-14.92a3.74,3.74,0,0,0,.68,2.36,2.47,2.47,0,0,0,2.07.87,2.43,2.43,0,0,0,2.07-.87,3.8,3.8,0,0,0,.66-2.36q0-3.32-2.73-3.31T359.58,683.86Z" transform="translate(0)"/><path class="cls-1" d="M374.71,673.12c0-1.63.91-2.44,2.72-2.44s2.73.81,2.73,2.44a2.42,2.42,0,0,1-.68,1.82,2.9,2.9,0,0,1-2.05.64C375.62,675.58,374.71,674.76,374.71,673.12Zm5.22,23.07h-5V677.86h5Z" transform="translate(0)"/><path class="cls-1" d="M393.47,696.52a9.5,9.5,0,0,1-6.92-2.44,9.27,9.27,0,0,1-2.49-6.92q0-4.6,2.3-7.13a8.23,8.23,0,0,1,6.37-2.51,8.05,8.05,0,0,1,6,2.21,8.39,8.39,0,0,1,2.16,6.12v2.42H389.12a4.84,4.84,0,0,0,1.27,3.33,4.42,4.42,0,0,0,3.31,1.2,13.71,13.71,0,0,0,3.13-.35,15.29,15.29,0,0,0,3.08-1.1v3.87a11.47,11.47,0,0,1-2.8,1A18,18,0,0,1,393.47,696.52Zm-.71-15.45a3.17,3.17,0,0,0-2.49,1,4.69,4.69,0,0,0-1,2.86h7a4.23,4.23,0,0,0-1-2.86A3.29,3.29,0,0,0,392.76,681.07Z" transform="translate(0)"/><path class="cls-1" d="M415.24,677.52a8.76,8.76,0,0,1,1.69.14l-.38,4.69a5.64,5.64,0,0,0-1.47-.16,5.29,5.29,0,0,0-3.73,1.23,4.45,4.45,0,0,0-1.34,3.44v9.33h-5V677.86h3.79l.73,3.08h.25a7,7,0,0,1,2.3-2.48A5.68,5.68,0,0,1,415.24,677.52Z" transform="translate(0)"/><path class="cls-1" d="M428.55,696.52a9.51,9.51,0,0,1-6.92-2.44,9.27,9.27,0,0,1-2.49-6.92q0-4.6,2.31-7.13a8.2,8.2,0,0,1,6.36-2.51,8,8,0,0,1,6.05,2.21,8.35,8.35,0,0,1,2.17,6.12v2.42H424.21a4.79,4.79,0,0,0,1.26,3.33,4.44,4.44,0,0,0,3.31,1.2,13.64,13.64,0,0,0,3.13-.35,15.37,15.37,0,0,0,3.09-1.1v3.87a11.55,11.55,0,0,1-2.81,1A17.88,17.88,0,0,1,428.55,696.52Zm-.7-15.45a3.17,3.17,0,0,0-2.49,1,4.64,4.64,0,0,0-1,2.86h7a4.13,4.13,0,0,0-1-2.86A3.27,3.27,0,0,0,427.85,681.07Z" transform="translate(0)"/><path class="cls-1" d="M457,696.19h-5V685.48a5.13,5.13,0,0,0-.7-3,2.57,2.57,0,0,0-2.25-1,3.35,3.35,0,0,0-3,1.4,8.7,8.7,0,0,0-.94,4.65v8.62h-5V677.86h3.82l.68,2.35h.28a5.18,5.18,0,0,1,2.3-2,7.74,7.74,0,0,1,3.33-.68,6.4,6.4,0,0,1,4.86,1.73,6.94,6.94,0,0,1,1.65,5Z" transform="translate(0)"/><path class="cls-1" d="M467.06,692.67a51.83,51.83,0,0,1-2.88,7.85h-3.61q1.06-4.37,1.66-8.23h4.59Z" transform="translate(0)"/><path class="cls-1" d="M211.18,736.48l-1-2.49h-.13a7.26,7.26,0,0,1-2.6,2.2,8.37,8.37,0,0,1-3.48.62,5.62,5.62,0,0,1-4.16-1.51,5.79,5.79,0,0,1-1.52-4.29,4.85,4.85,0,0,1,2-4.31,11.9,11.9,0,0,1,6.16-1.53l3.18-.1v-.8q0-2.79-2.85-2.79a12.94,12.94,0,0,0-5.17,1.33L200,719.43a14.94,14.94,0,0,1,7-1.65,8.75,8.75,0,0,1,5.66,1.6,6,6,0,0,1,2,4.89v12.21ZM209.7,728l-1.93.07a6.17,6.17,0,0,0-3.25.78,2.48,2.48,0,0,0-1.07,2.2c0,1.41.81,2.11,2.43,2.11a3.82,3.82,0,0,0,2.78-1,3.51,3.51,0,0,0,1-2.65Z" transform="translate(0)"/><path class="cls-1" d="M236.74,736.48h-5v-10.7a5.14,5.14,0,0,0-.7-3,2.57,2.57,0,0,0-2.25-1,3.38,3.38,0,0,0-3,1.4,8.74,8.74,0,0,0-.93,4.65v8.62h-5V718.15h3.82l.67,2.35h.28a5.18,5.18,0,0,1,2.3-2,7.91,7.91,0,0,1,3.34-.68,6.41,6.41,0,0,1,4.85,1.73,7,7,0,0,1,1.66,5Z" transform="translate(0)"/><path class="cls-1" d="M247.69,736.81a6,6,0,0,1-5.08-2.51,11.52,11.52,0,0,1-1.84-6.95c0-3,.62-5.35,1.88-7a6.08,6.08,0,0,1,5.17-2.52,6,6,0,0,1,5.28,2.69h.16a20.68,20.68,0,0,1-.38-3.66V711h5v25.51h-3.84l-1-2.38h-.22A5.7,5.7,0,0,1,247.69,736.81Zm1.75-4a3.39,3.39,0,0,0,2.81-1.12,6.47,6.47,0,0,0,1-3.79v-.54a7.58,7.58,0,0,0-.91-4.23,3.39,3.39,0,0,0-3-1.28,3,3,0,0,0-2.6,1.42,7.56,7.56,0,0,0-.93,4.13,7.17,7.17,0,0,0,.94,4.05A3,3,0,0,0,249.44,732.83Z" transform="translate(0)"/><path class="cls-1" d="M271.43,736.81a9.46,9.46,0,0,1-6.92-2.44,9.27,9.27,0,0,1-2.49-6.92c0-3.07.76-5.45,2.3-7.12a8.19,8.19,0,0,1,6.37-2.52,8.09,8.09,0,0,1,6.05,2.21,8.4,8.4,0,0,1,2.16,6.12v2.42H267.08a4.88,4.88,0,0,0,1.26,3.33,4.45,4.45,0,0,0,3.32,1.2,13.77,13.77,0,0,0,3.13-.35,15.87,15.87,0,0,0,3.08-1.09v3.86a11.62,11.62,0,0,1-2.8,1A18,18,0,0,1,271.43,736.81Zm-.71-15.44a3.17,3.17,0,0,0-2.49,1,4.66,4.66,0,0,0-1,2.87h7a4.2,4.2,0,0,0-1-2.87A3.3,3.3,0,0,0,270.72,721.37Z" transform="translate(0)"/><path class="cls-1" d="M293.2,717.81a8,8,0,0,1,1.69.15l-.38,4.69a5.74,5.74,0,0,0-1.48-.17,5.31,5.31,0,0,0-3.73,1.23,4.45,4.45,0,0,0-1.33,3.44v9.33h-5V718.15h3.78l.74,3.08h.25a6.93,6.93,0,0,1,2.3-2.48A5.68,5.68,0,0,1,293.2,717.81Z" transform="translate(0)"/><path class="cls-1" d="M306.51,736.81a9.46,9.46,0,0,1-6.92-2.44,9.27,9.27,0,0,1-2.49-6.92c0-3.07.77-5.45,2.3-7.12a8.2,8.2,0,0,1,6.37-2.52,8.09,8.09,0,0,1,6.05,2.21,8.37,8.37,0,0,1,2.17,6.12v2.42H302.17a4.79,4.79,0,0,0,1.26,3.33,4.44,4.44,0,0,0,3.31,1.2,13.71,13.71,0,0,0,3.13-.35,15.87,15.87,0,0,0,3.08-1.09v3.86a11.47,11.47,0,0,1-2.8,1A17.88,17.88,0,0,1,306.51,736.81Zm-.7-15.44a3.19,3.19,0,0,0-2.5,1,4.72,4.72,0,0,0-1,2.87h7a4.2,4.2,0,0,0-1-2.87A3.26,3.26,0,0,0,305.81,721.37Z" transform="translate(0)"/><path class="cls-1" d="M335,736.48h-5v-10.7a5.14,5.14,0,0,0-.7-3,2.57,2.57,0,0,0-2.25-1,3.38,3.38,0,0,0-3,1.4,8.63,8.63,0,0,0-.94,4.65v8.62h-5V718.15h3.82l.67,2.35h.28a5.26,5.26,0,0,1,2.31-2,7.86,7.86,0,0,1,3.33-.68,6.45,6.45,0,0,1,4.86,1.73,7,7,0,0,1,1.65,5Z" transform="translate(0)"/><path class="cls-1" d="M365.76,736.48h-5v-10.7q0-4-2.95-4a3.34,3.34,0,0,0-3,1.42,8.69,8.69,0,0,0-.94,4.63v8.62h-5V711h5v5.2c0,.4,0,1.35-.11,2.85l-.12,1.48h.26a5.79,5.79,0,0,1,5.32-2.69,6.5,6.5,0,0,1,4.9,1.74,6.92,6.92,0,0,1,1.67,5Z" transform="translate(0)"/><path class="cls-1" d="M379.2,736.81a9.43,9.43,0,0,1-6.91-2.44,9.23,9.23,0,0,1-2.5-6.92c0-3.07.77-5.45,2.31-7.12a9.35,9.35,0,0,1,12.42-.31,8.4,8.4,0,0,1,2.16,6.12v2.42H374.86a4.79,4.79,0,0,0,1.26,3.33,4.44,4.44,0,0,0,3.31,1.2,13.64,13.64,0,0,0,3.13-.35,15.72,15.72,0,0,0,3.09-1.09v3.86a11.55,11.55,0,0,1-2.81,1A17.81,17.81,0,0,1,379.2,736.81Zm-.7-15.44a3.17,3.17,0,0,0-2.49,1,4.73,4.73,0,0,0-1,2.87h7a4.16,4.16,0,0,0-1-2.87A3.26,3.26,0,0,0,378.5,721.37Z" transform="translate(0)"/><path class="cls-1" d="M395.75,736.48h-5V711h5Z" transform="translate(0)"/><path class="cls-1" d="M411.12,721.91H406.8v14.57h-5V721.91H399V719.5l2.75-1.35v-1.34a6,6,0,0,1,1.55-4.58c1-1,2.67-1.44,4.93-1.44a13,13,0,0,1,4.61.77l-1.28,3.67a9.58,9.58,0,0,0-2.79-.47,1.81,1.81,0,0,0-1.54.63,2.6,2.6,0,0,0-.47,1.62v1.14h4.32Z" transform="translate(0)"/><path class="cls-1" d="M422.29,736.81a9.46,9.46,0,0,1-6.92-2.44,9.27,9.27,0,0,1-2.49-6.92c0-3.07.77-5.45,2.3-7.12a8.2,8.2,0,0,1,6.37-2.52A8.09,8.09,0,0,1,427.6,720a8.4,8.4,0,0,1,2.16,6.12v2.42H417.94a4.84,4.84,0,0,0,1.27,3.33,4.42,4.42,0,0,0,3.31,1.2,13.71,13.71,0,0,0,3.13-.35,15.87,15.87,0,0,0,3.08-1.09v3.86a11.47,11.47,0,0,1-2.8,1A18,18,0,0,1,422.29,736.81Zm-.71-15.44a3.17,3.17,0,0,0-2.49,1,4.72,4.72,0,0,0-1,2.87h7a4.25,4.25,0,0,0-1-2.87A3.28,3.28,0,0,0,421.58,721.37Z" transform="translate(0)"/><path class="cls-1" d="M450.75,736.48h-5v-10.7a5.14,5.14,0,0,0-.71-3,2.55,2.55,0,0,0-2.24-1,3.38,3.38,0,0,0-3,1.4,8.63,8.63,0,0,0-.94,4.65v8.62h-5V718.15h3.82l.67,2.35h.28a5.29,5.29,0,0,1,2.3-2,7.91,7.91,0,0,1,3.34-.68,6.41,6.41,0,0,1,4.85,1.73,6.91,6.91,0,0,1,1.66,5Z" transform="translate(0)"/><path class="cls-1" d="M613.8,425.52l-1.74-5.7h-8.74l-1.74,5.7h-5.47l8.45-24.06h6.22l8.49,24.06Zm-3-10c-1.6-5.17-2.51-8.09-2.71-8.77s-.35-1.21-.43-1.6q-.54,2.1-3.1,10.37Z" transform="translate(0)"/><path class="cls-1" d="M634.88,425.52l-.67-2.34h-.27a5.22,5.22,0,0,1-2.27,2,7.75,7.75,0,0,1-3.37.7,6.39,6.39,0,0,1-4.86-1.73,6.92,6.92,0,0,1-1.64-5v-12h5V417.9a5.13,5.13,0,0,0,.7,3,2.55,2.55,0,0,0,2.25,1,3.36,3.36,0,0,0,3-1.41,8.7,8.7,0,0,0,.93-4.64v-8.63h5v18.33Z" transform="translate(0)"/><path class="cls-1" d="M654.09,411h-4.33v14.57h-5V411H642v-2.41l2.75-1.35v-1.34a6,6,0,0,1,1.55-4.58c1-1,2.67-1.44,4.93-1.44a13,13,0,0,1,4.61.77l-1.28,3.67a9.58,9.58,0,0,0-2.79-.47,1.81,1.81,0,0,0-1.54.63,2.6,2.6,0,0,0-.48,1.62v1.14h4.33Z" transform="translate(0)"/><path class="cls-1" d="M667.19,406.85a8,8,0,0,1,1.69.15l-.38,4.69a5.6,5.6,0,0,0-1.47-.17,5.29,5.29,0,0,0-3.73,1.23,4.45,4.45,0,0,0-1.34,3.44v9.33h-5V407.19h3.79l.74,3.09h.24a6.91,6.91,0,0,1,2.31-2.49A5.64,5.64,0,0,1,667.19,406.85Z" transform="translate(0)"/><path class="cls-1" d="M683.85,425.52l-1-2.49h-.13a7.4,7.4,0,0,1-2.6,2.21,8.39,8.39,0,0,1-3.48.61,5.62,5.62,0,0,1-4.16-1.51,5.78,5.78,0,0,1-1.51-4.29,4.85,4.85,0,0,1,2-4.31,11.86,11.86,0,0,1,6.15-1.53l3.18-.1v-.8q0-2.79-2.85-2.79a12.9,12.9,0,0,0-5.16,1.33l-1.66-3.38a15,15,0,0,1,7-1.65,8.72,8.72,0,0,1,5.65,1.6,5.92,5.92,0,0,1,2,4.89v12.21Zm-9.59-23a2.13,2.13,0,0,1,.61-1.64,2.37,2.37,0,0,1,1.67-.58,2.32,2.32,0,0,1,1.69.61,2.17,2.17,0,0,1,.62,1.61,2.12,2.12,0,0,1-.62,1.58,2.69,2.69,0,0,1-3.36,0A2.07,2.07,0,0,1,674.26,402.49ZM682.37,417l-1.93.07a6.2,6.2,0,0,0-3.25.78,2.48,2.48,0,0,0-1.06,2.2c0,1.41.81,2.11,2.42,2.11a3.82,3.82,0,0,0,2.78-1,3.47,3.47,0,0,0,1-2.65Zm-1.5-14.54a2,2,0,0,1,.66-1.68,2.52,2.52,0,0,1,1.65-.54,2.34,2.34,0,0,1,1.69.6,2.1,2.1,0,0,1,.63,1.62,2.08,2.08,0,0,1-.63,1.59,2.42,2.42,0,0,1-1.69.59,2.57,2.57,0,0,1-1.65-.53A2,2,0,0,1,680.87,402.49Z" transform="translate(0)"/><path class="cls-1" d="M705.47,425.52l-.67-2.34h-.26a5.3,5.3,0,0,1-2.28,2,7.68,7.68,0,0,1-3.36.7,6.41,6.41,0,0,1-4.87-1.73,7,7,0,0,1-1.64-5v-12h5V417.9a5.12,5.12,0,0,0,.71,3,2.53,2.53,0,0,0,2.24,1,3.39,3.39,0,0,0,3-1.41,8.7,8.7,0,0,0,.93-4.64v-8.63h5v18.33Z" transform="translate(0)"/><path class="cls-1" d="M731,425.52h-5v-10.7a5.32,5.32,0,0,0-.67-3,2.33,2.33,0,0,0-2.09-1,3,3,0,0,0-2.78,1.41,9.25,9.25,0,0,0-.87,4.64v8.62h-5V407.19h3.82l.67,2.35h.28a5.11,5.11,0,0,1,2.13-2,7,7,0,0,1,3.2-.71q4.11,0,5.57,2.69h.44a5,5,0,0,1,2.17-2,7.27,7.27,0,0,1,3.24-.7,6.39,6.39,0,0,1,4.72,1.6q1.59,1.59,1.59,5.12v11.95h-5v-10.7a5.32,5.32,0,0,0-.67-3,2.33,2.33,0,0,0-2.09-1,3.11,3.11,0,0,0-2.74,1.31,7.43,7.43,0,0,0-.91,4.17Z" transform="translate(0)"/><path class="cls-1" d="M755.82,425.85a9.46,9.46,0,0,1-6.92-2.44,9.27,9.27,0,0,1-2.49-6.92c0-3.07.77-5.45,2.3-7.12a8.2,8.2,0,0,1,6.37-2.52,8.09,8.09,0,0,1,6,2.21,8.37,8.37,0,0,1,2.17,6.12v2.42H751.48a4.79,4.79,0,0,0,1.26,3.33,4.44,4.44,0,0,0,3.31,1.2,13.71,13.71,0,0,0,3.13-.35,15.3,15.3,0,0,0,3.09-1.09v3.87a12,12,0,0,1-2.81,1A17.88,17.88,0,0,1,755.82,425.85Zm-.7-15.44a3.18,3.18,0,0,0-2.5,1,4.67,4.67,0,0,0-1,2.86h7a4.16,4.16,0,0,0-1-2.86A3.23,3.23,0,0,0,755.12,410.41Z" transform="translate(0)"/><path class="cls-1" d="M784.28,425.52h-5v-10.7a5.14,5.14,0,0,0-.7-3,2.57,2.57,0,0,0-2.25-1,3.38,3.38,0,0,0-3,1.4,8.63,8.63,0,0,0-.94,4.65v8.62h-5V407.19h3.82l.68,2.35h.27a5.26,5.26,0,0,1,2.31-2,7.89,7.89,0,0,1,3.33-.68,6.44,6.44,0,0,1,4.86,1.73,7,7,0,0,1,1.65,5Z" transform="translate(0)"/><path class="cls-1" d="M811.14,425.52l-.68-2.34h-.26a5.19,5.19,0,0,1-2.28,2,7.68,7.68,0,0,1-3.36.7,6.43,6.43,0,0,1-4.87-1.73,7,7,0,0,1-1.64-5v-12h5V417.9a5.12,5.12,0,0,0,.71,3,2.55,2.55,0,0,0,2.25,1,3.37,3.37,0,0,0,3-1.41,8.7,8.7,0,0,0,.93-4.64v-8.63h5v18.33Z" transform="translate(0)"/><path class="cls-1" d="M837.14,425.52h-5v-10.7a5.14,5.14,0,0,0-.71-3,2.56,2.56,0,0,0-2.24-1,3.41,3.41,0,0,0-3,1.4,8.74,8.74,0,0,0-.93,4.65v8.62h-5V407.19H824l.67,2.35H825a5.29,5.29,0,0,1,2.3-2,7.91,7.91,0,0,1,3.34-.68,6.41,6.41,0,0,1,4.85,1.73,6.91,6.91,0,0,1,1.66,5Z" transform="translate(0)"/><path class="cls-1" d="M848.09,425.85a6,6,0,0,1-5.07-2.51,14,14,0,0,1,0-14,6.1,6.1,0,0,1,5.17-2.52,6,6,0,0,1,5.28,2.69h.17a19.78,19.78,0,0,1-.38-3.66V400h5v25.51h-3.83l-1-2.37h-.21A5.73,5.73,0,0,1,848.09,425.85Zm1.75-4a3.39,3.39,0,0,0,2.82-1.12,6.48,6.48,0,0,0,1-3.79v-.54a7.5,7.5,0,0,0-.91-4.23,3.37,3.37,0,0,0-3-1.27,2.92,2.92,0,0,0-2.59,1.41,7.56,7.56,0,0,0-.93,4.13,7.17,7.17,0,0,0,.93,4.05A3.05,3.05,0,0,0,849.84,421.87Z" transform="translate(0)"/><path class="cls-1" d="M649.22,447.14a8,8,0,0,1,1.69.15l-.37,4.69a5.74,5.74,0,0,0-1.48-.17,5.29,5.29,0,0,0-3.73,1.23,4.46,4.46,0,0,0-1.34,3.45v9.32h-5V447.48h3.79l.74,3.09h.24a6.91,6.91,0,0,1,2.31-2.49A5.75,5.75,0,0,1,649.22,447.14Z" transform="translate(0)"/><path class="cls-1" d="M662.54,466.14a9.46,9.46,0,0,1-6.92-2.44,9.27,9.27,0,0,1-2.49-6.92c0-3.07.76-5.45,2.3-7.12a8.19,8.19,0,0,1,6.37-2.52,8.09,8.09,0,0,1,6.05,2.21,8.4,8.4,0,0,1,2.16,6.12v2.43H658.19a4.83,4.83,0,0,0,1.26,3.32,4.46,4.46,0,0,0,3.32,1.2,13.78,13.78,0,0,0,3.13-.34A15.93,15.93,0,0,0,669,461v3.87a12,12,0,0,1-2.8,1A17.26,17.26,0,0,1,662.54,466.14Zm-.71-15.44a3.14,3.14,0,0,0-2.49,1,4.61,4.61,0,0,0-1,2.86h7a4.16,4.16,0,0,0-1-2.86A3.27,3.27,0,0,0,661.83,450.7Z" transform="translate(0)"/><path class="cls-1" d="M691,465.81h-5v-10.7a5.16,5.16,0,0,0-.71-3,2.56,2.56,0,0,0-2.24-1,3.41,3.41,0,0,0-3,1.4,8.76,8.76,0,0,0-.93,4.65v8.62h-5V447.48h3.82l.67,2.35h.28a5.23,5.23,0,0,1,2.3-2,7.91,7.91,0,0,1,3.34-.68,6.41,6.41,0,0,1,4.85,1.73,6.91,6.91,0,0,1,1.66,5Z" transform="translate(0)"/><path class="cls-1" d="M712.8,456.62a9.84,9.84,0,0,1-2.36,7,8.55,8.55,0,0,1-6.57,2.52,9.23,9.23,0,0,1-4.66-1.15,7.72,7.72,0,0,1-3.1-3.32,11.21,11.21,0,0,1-1.08-5.05,9.81,9.81,0,0,1,2.34-7,8.63,8.63,0,0,1,6.6-2.49,9.16,9.16,0,0,1,4.65,1.15,7.59,7.59,0,0,1,3.1,3.29A11.11,11.11,0,0,1,712.8,456.62Zm-12.67,0a7.74,7.74,0,0,0,.89,4.11,3.2,3.2,0,0,0,2.91,1.39,3.14,3.14,0,0,0,2.88-1.38,7.84,7.84,0,0,0,.88-4.12,7.59,7.59,0,0,0-.89-4.09,3.76,3.76,0,0,0-5.79,0A7.55,7.55,0,0,0,700.13,456.62Z" transform="translate(0)"/><path class="cls-1" d="M721.29,465.81l-7-18.33h5.23l3.54,10.45a18.25,18.25,0,0,1,.74,3.75h.1a15.88,15.88,0,0,1,.74-3.75l3.52-10.45h5.23l-7,18.33Z" transform="translate(0)"/><path class="cls-1" d="M735.82,442.75c0-1.63.91-2.45,2.72-2.45s2.72.82,2.72,2.45a2.36,2.36,0,0,1-.68,1.81,2.85,2.85,0,0,1-2,.65C736.73,445.21,735.82,444.39,735.82,442.75ZM741,465.81h-5V447.48h5Z" transform="translate(0)"/><path class="cls-1" d="M754.58,466.14a9.44,9.44,0,0,1-6.92-2.44,9.27,9.27,0,0,1-2.49-6.92c0-3.07.76-5.45,2.3-7.12a8.19,8.19,0,0,1,6.37-2.52,8.09,8.09,0,0,1,6,2.21,8.4,8.4,0,0,1,2.16,6.12v2.43H750.23a4.83,4.83,0,0,0,1.26,3.32,4.44,4.44,0,0,0,3.31,1.2,13.8,13.8,0,0,0,3.14-.34A15.93,15.93,0,0,0,761,461v3.87a12,12,0,0,1-2.81,1A17.09,17.09,0,0,1,754.58,466.14Zm-.71-15.44a3.14,3.14,0,0,0-2.49,1,4.61,4.61,0,0,0-1,2.86h7a4.11,4.11,0,0,0-1-2.86A3.23,3.23,0,0,0,753.87,450.7Z" transform="translate(0)"/><path class="cls-1" d="M776.35,447.14a8,8,0,0,1,1.69.15l-.38,4.69a5.74,5.74,0,0,0-1.48-.17,5.31,5.31,0,0,0-3.73,1.23,4.45,4.45,0,0,0-1.33,3.45v9.32h-5V447.48h3.78l.74,3.09h.25a6.88,6.88,0,0,1,2.3-2.49A5.76,5.76,0,0,1,776.35,447.14Z" transform="translate(0)"/><path class="cls-1" d="M789.66,466.14a9.46,9.46,0,0,1-6.92-2.44,9.27,9.27,0,0,1-2.49-6.92c0-3.07.77-5.45,2.3-7.12a8.2,8.2,0,0,1,6.37-2.52,8.09,8.09,0,0,1,6.05,2.21,8.37,8.37,0,0,1,2.17,6.12v2.43H785.32a4.74,4.74,0,0,0,1.26,3.32,4.44,4.44,0,0,0,3.31,1.2,13.71,13.71,0,0,0,3.13-.34,15.93,15.93,0,0,0,3.08-1.1v3.87a11.89,11.89,0,0,1-2.8,1A17.26,17.26,0,0,1,789.66,466.14ZM789,450.7a3.15,3.15,0,0,0-2.5,1,4.67,4.67,0,0,0-1,2.86h7a4.21,4.21,0,0,0-1-2.86A3.25,3.25,0,0,0,789,450.7Z" transform="translate(0)"/><path class="cls-1" d="M818.12,465.81h-5v-10.7a5.16,5.16,0,0,0-.7-3,2.57,2.57,0,0,0-2.25-1,3.38,3.38,0,0,0-3,1.4,8.65,8.65,0,0,0-.94,4.65v8.62h-5V447.48H805l.67,2.35H806a5.26,5.26,0,0,1,2.31-2,7.86,7.86,0,0,1,3.33-.68,6.45,6.45,0,0,1,4.86,1.73,7,7,0,0,1,1.65,5Z" transform="translate(0)"/><path class="cls-1" d="M1279,847.35a6.19,6.19,0,0,1-2.33,5.12,10.2,10.2,0,0,1-6.5,1.87,15.17,15.17,0,0,1-6.79-1.45v-4.72a29,29,0,0,0,4.11,1.53,12.34,12.34,0,0,0,3.07.44,4.36,4.36,0,0,0,2.57-.64,2.2,2.2,0,0,0,.89-1.9,2.14,2.14,0,0,0-.39-1.26,4.47,4.47,0,0,0-1.16-1.05,30.67,30.67,0,0,0-3.1-1.63,14.44,14.44,0,0,1-3.3-2,7.31,7.31,0,0,1-1.75-2.21,6.32,6.32,0,0,1-.66-3,6.18,6.18,0,0,1,2.16-5,8.9,8.9,0,0,1,6-1.82,13.84,13.84,0,0,1,3.56.44,24.35,24.35,0,0,1,3.55,1.24l-1.64,4a23.66,23.66,0,0,0-3.17-1.09,10.13,10.13,0,0,0-2.47-.31,3.24,3.24,0,0,0-2.21.67,2.19,2.19,0,0,0-.77,1.75,2.13,2.13,0,0,0,.31,1.17,3.39,3.39,0,0,0,1,1,31.23,31.23,0,0,0,3.22,1.68,12.9,12.9,0,0,1,4.61,3.22A6.3,6.3,0,0,1,1279,847.35Z" transform="translate(0)"/><path class="cls-1" d="M1290.4,854.34q-8.57,0-8.56-9.4,0-4.66,2.33-7.14a8.75,8.75,0,0,1,6.67-2.47,12.77,12.77,0,0,1,5.71,1.25l-1.48,3.87c-.78-.32-1.52-.58-2.19-.78a7.2,7.2,0,0,0-2-.3q-3.9,0-3.9,5.54,0,5.39,3.9,5.38a8.79,8.79,0,0,0,2.67-.39,9.62,9.62,0,0,0,2.46-1.2V853a8.17,8.17,0,0,1-2.45,1.06A13.49,13.49,0,0,1,1290.4,854.34Z" transform="translate(0)"/><path class="cls-1" d="M1317.14,854h-5V843.3q0-4-3-4a3.37,3.37,0,0,0-3,1.42,8.73,8.73,0,0,0-.93,4.62V854h-5V828.5h5v5.2c0,.4,0,1.35-.11,2.85L1305,838h.26a5.81,5.81,0,0,1,5.31-2.69,6.55,6.55,0,0,1,4.91,1.74,6.93,6.93,0,0,1,1.67,5Z" transform="translate(0)"/><path class="cls-1" d="M1327.29,854h-5V828.5h5Z" transform="translate(0)"/><path class="cls-1" d="M1344.17,854l-1-2.49h-.13a7.45,7.45,0,0,1-2.6,2.2,8.39,8.39,0,0,1-3.49.62,5.64,5.64,0,0,1-4.15-1.51,5.81,5.81,0,0,1-1.52-4.3,4.83,4.83,0,0,1,2-4.3,11.78,11.78,0,0,1,6.16-1.53l3.18-.1v-.81c0-1.85-1-2.78-2.85-2.78a12.94,12.94,0,0,0-5.17,1.33L1333,837a14.8,14.8,0,0,1,7-1.66,8.75,8.75,0,0,1,5.66,1.61,5.94,5.94,0,0,1,2,4.88V854Zm-1.47-8.49-1.94.06a6.25,6.25,0,0,0-3.24.79,2.47,2.47,0,0,0-1.07,2.2c0,1.41.81,2.11,2.43,2.11a3.84,3.84,0,0,0,2.78-1,3.53,3.53,0,0,0,1-2.66Z" transform="translate(0)"/><path class="cls-1" d="M1363,839.43h-4.33V854h-5V839.43h-2.76V837l2.76-1.34v-1.35a6,6,0,0,1,1.54-4.57q1.54-1.44,4.93-1.44a12.91,12.91,0,0,1,4.61.77l-1.28,3.67a9.16,9.16,0,0,0-2.79-.47,1.81,1.81,0,0,0-1.54.63,2.65,2.65,0,0,0-.47,1.61v1.15H1363Z" transform="translate(0)"/><path class="cls-1" d="M1374.11,854.34a9.46,9.46,0,0,1-6.92-2.45,9.23,9.23,0,0,1-2.49-6.91c0-3.08.77-5.45,2.3-7.13a8.2,8.2,0,0,1,6.37-2.52,8.06,8.06,0,0,1,6.05,2.22,8.33,8.33,0,0,1,2.17,6.11v2.43h-11.82a4.79,4.79,0,0,0,1.26,3.33,4.44,4.44,0,0,0,3.31,1.2,13.71,13.71,0,0,0,3.13-.35,15.7,15.7,0,0,0,3.08-1.1V853a11.75,11.75,0,0,1-2.8,1A17.88,17.88,0,0,1,1374.11,854.34Zm-.7-15.45a3.21,3.21,0,0,0-2.5,1,4.69,4.69,0,0,0-1,2.86h7a4.18,4.18,0,0,0-1-2.86A3.27,3.27,0,0,0,1373.41,838.89Z" transform="translate(0)"/><path class="cls-1" d="M1402.57,854h-5V843.3a5.13,5.13,0,0,0-.7-3,2.57,2.57,0,0,0-2.25-1,3.35,3.35,0,0,0-3,1.4,8.59,8.59,0,0,0-.94,4.64V854h-5V835.68h3.82l.68,2.34h.27a5.3,5.3,0,0,1,2.31-2,7.75,7.75,0,0,1,3.33-.69,6.4,6.4,0,0,1,4.86,1.74,6.94,6.94,0,0,1,1.65,5Z" transform="translate(0)"/><path class="cls-1" d="M1133.52,676.74a6.2,6.2,0,0,1-2.34,5.12,10.1,10.1,0,0,1-6.5,1.87,15.23,15.23,0,0,1-6.78-1.44v-4.73a27.31,27.31,0,0,0,4.1,1.53,12.41,12.41,0,0,0,3.08.44,4.32,4.32,0,0,0,2.56-.64,2.17,2.17,0,0,0,.9-1.9,2.09,2.09,0,0,0-.4-1.25,4.42,4.42,0,0,0-1.15-1.06,29.69,29.69,0,0,0-3.11-1.62,14.87,14.87,0,0,1-3.3-2,7.47,7.47,0,0,1-1.75-2.21,6.29,6.29,0,0,1-.66-3,6.18,6.18,0,0,1,2.16-5,8.92,8.92,0,0,1,6-1.82,13.91,13.91,0,0,1,3.57.44,24.87,24.87,0,0,1,3.55,1.25l-1.64,4a23.51,23.51,0,0,0-3.18-1.1,10.05,10.05,0,0,0-2.46-.31,3.27,3.27,0,0,0-2.22.67,2.22,2.22,0,0,0-.77,1.75,2.28,2.28,0,0,0,.31,1.18,3.42,3.42,0,0,0,1,1,30.13,30.13,0,0,0,3.22,1.68,12.85,12.85,0,0,1,4.6,3.22A6.31,6.31,0,0,1,1133.52,676.74Z" transform="translate(0)"/><path class="cls-1" d="M1145.77,683.73a9.5,9.5,0,0,1-6.92-2.44,9.27,9.27,0,0,1-2.49-6.92c0-3.07.76-5.45,2.3-7.13a8.23,8.23,0,0,1,6.37-2.51,8.05,8.05,0,0,1,6,2.21,8.39,8.39,0,0,1,2.16,6.12v2.42h-11.82a4.88,4.88,0,0,0,1.26,3.33A4.46,4.46,0,0,0,1146,680a13.77,13.77,0,0,0,3.13-.35,15.29,15.29,0,0,0,3.08-1.1v3.87a11.62,11.62,0,0,1-2.8,1A18,18,0,0,1,1145.77,683.73Zm-.71-15.45a3.17,3.17,0,0,0-2.49,1,4.63,4.63,0,0,0-1,2.86h7a4.17,4.17,0,0,0-1-2.86A3.31,3.31,0,0,0,1145.06,668.28Z" transform="translate(0)"/><path class="cls-1" d="M1167.54,664.73a8.76,8.76,0,0,1,1.69.14l-.38,4.69a5.69,5.69,0,0,0-1.47-.16,5.29,5.29,0,0,0-3.73,1.23,4.42,4.42,0,0,0-1.34,3.44v9.33h-5V665.07h3.79l.73,3.08h.25a7,7,0,0,1,2.3-2.48A5.68,5.68,0,0,1,1167.54,664.73Z" transform="translate(0)"/><path class="cls-1" d="M1172.34,660.33c0-1.63.91-2.44,2.72-2.44s2.73.81,2.73,2.44a2.42,2.42,0,0,1-.68,1.82,2.9,2.9,0,0,1-2,.64C1173.25,662.79,1172.34,662,1172.34,660.33Zm5.22,23.07h-5V665.07h5Z" transform="translate(0)"/><path class="cls-1" d="M1191.1,683.73a9.5,9.5,0,0,1-6.92-2.44,9.27,9.27,0,0,1-2.49-6.92q0-4.61,2.3-7.13a8.23,8.23,0,0,1,6.37-2.51,8.05,8.05,0,0,1,6.05,2.21,8.39,8.39,0,0,1,2.16,6.12v2.42h-11.82a4.84,4.84,0,0,0,1.27,3.33,4.42,4.42,0,0,0,3.31,1.2,13.71,13.71,0,0,0,3.13-.35,15.29,15.29,0,0,0,3.08-1.1v3.87a11.47,11.47,0,0,1-2.8,1A18,18,0,0,1,1191.1,683.73Zm-.71-15.45a3.17,3.17,0,0,0-2.49,1,4.69,4.69,0,0,0-1,2.86h7a4.23,4.23,0,0,0-1-2.86A3.31,3.31,0,0,0,1190.39,668.28Z" transform="translate(0)"/><path class="cls-1" d="M1219.56,683.4h-5V672.69a5.12,5.12,0,0,0-.71-3,2.55,2.55,0,0,0-2.24-1,3.35,3.35,0,0,0-3,1.4,8.6,8.6,0,0,0-.94,4.65v8.62h-5V665.07h3.82l.67,2.35h.28a5.29,5.29,0,0,1,2.3-2,7.79,7.79,0,0,1,3.34-.68,6.37,6.37,0,0,1,4.85,1.73,6.9,6.9,0,0,1,1.66,5Z" transform="translate(0)"/><path class="cls-1" d="M1114.49,718.25a5,5,0,0,1-2,4.29q-2,1.49-5.87,1.48a18.47,18.47,0,0,1-3.41-.27,12.88,12.88,0,0,1-2.64-.8v-4.13a17,17,0,0,0,3.14,1.1,12.51,12.51,0,0,0,3.08.44c1.81,0,2.72-.52,2.72-1.57a1.33,1.33,0,0,0-.36-1A5.39,5.39,0,0,0,1108,717c-.59-.31-1.37-.67-2.36-1.09a14.89,14.89,0,0,1-3.1-1.63,4.61,4.61,0,0,1-1.45-1.73,5.76,5.76,0,0,1-.45-2.41,4.35,4.35,0,0,1,1.9-3.78,9.21,9.21,0,0,1,5.36-1.33,15.3,15.3,0,0,1,6.45,1.44l-1.51,3.61a25.76,25.76,0,0,0-2.58-1,8.08,8.08,0,0,0-2.44-.38c-1.47,0-2.21.4-2.21,1.2a1.4,1.4,0,0,0,.71,1.16,19,19,0,0,0,3.13,1.46,14,14,0,0,1,3.14,1.63,4.82,4.82,0,0,1,1.48,1.73A5.47,5.47,0,0,1,1114.49,718.25Z" transform="translate(0)"/><path class="cls-1" d="M1125.84,724q-8.56,0-8.56-9.39,0-4.68,2.33-7.14a8.7,8.7,0,0,1,6.67-2.47,12.77,12.77,0,0,1,5.71,1.24l-1.48,3.87c-.79-.31-1.52-.57-2.2-.78a7.08,7.08,0,0,0-2-.3q-3.9,0-3.9,5.54,0,5.38,3.9,5.38a8.79,8.79,0,0,0,2.67-.39,9.3,9.3,0,0,0,2.46-1.2v4.28a7.92,7.92,0,0,1-2.45,1.06A13.49,13.49,0,0,1,1125.84,724Z" transform="translate(0)"/><path class="cls-1" d="M1152.58,723.69h-5V713c0-2.65-1-4-2.95-4a3.37,3.37,0,0,0-3,1.42,8.8,8.8,0,0,0-.93,4.63v8.62h-5V698.18h5v5.2q0,.6-.12,2.85l-.11,1.48h.26A5.79,5.79,0,0,1,1146,705a6.51,6.51,0,0,1,4.91,1.74,6.92,6.92,0,0,1,1.67,5Z" transform="translate(0)"/><path class="cls-1" d="M1169.37,723.69l-1-2.49h-.13a7.26,7.26,0,0,1-2.6,2.2,8.37,8.37,0,0,1-3.48.62,5.62,5.62,0,0,1-4.16-1.51,5.79,5.79,0,0,1-1.52-4.29,4.85,4.85,0,0,1,2-4.31,11.93,11.93,0,0,1,6.16-1.53l3.18-.1v-.8q0-2.79-2.85-2.79a12.94,12.94,0,0,0-5.17,1.33l-1.65-3.38a15,15,0,0,1,7-1.65,8.74,8.74,0,0,1,5.65,1.6,6,6,0,0,1,2,4.89v12.21Zm-1.48-8.49-1.93.07a6.17,6.17,0,0,0-3.25.78,2.48,2.48,0,0,0-1.07,2.2c0,1.41.81,2.11,2.43,2.11a3.82,3.82,0,0,0,2.78-1,3.51,3.51,0,0,0,1-2.65Z" transform="translate(0)"/><path class="cls-1" d="M1191,723.69l-.67-2.34h-.26a5.3,5.3,0,0,1-2.28,2,7.74,7.74,0,0,1-3.36.7,6.4,6.4,0,0,1-4.87-1.73,7,7,0,0,1-1.64-5V705.36h5v10.71a5.13,5.13,0,0,0,.7,3,2.55,2.55,0,0,0,2.25,1,3.36,3.36,0,0,0,3-1.41,8.59,8.59,0,0,0,.94-4.64v-8.63h5v18.33Z" transform="translate(0)"/><path class="cls-1" d="M1208.37,724a9.46,9.46,0,0,1-6.92-2.44,9.27,9.27,0,0,1-2.49-6.92c0-3.07.77-5.45,2.3-7.12a8.2,8.2,0,0,1,6.37-2.52,8.09,8.09,0,0,1,6,2.21,8.41,8.41,0,0,1,2.17,6.12v2.42H1204a4.79,4.79,0,0,0,1.26,3.33,4.44,4.44,0,0,0,3.31,1.2,13.71,13.71,0,0,0,3.13-.35,15.87,15.87,0,0,0,3.08-1.09v3.86a11.47,11.47,0,0,1-2.8,1A18,18,0,0,1,1208.37,724Zm-.7-15.44a3.18,3.18,0,0,0-2.5,1,4.72,4.72,0,0,0-1,2.87h7a4.25,4.25,0,0,0-1-2.87A3.28,3.28,0,0,0,1207.67,708.58Z" transform="translate(0)"/><path class="cls-1" d="M1236.83,723.69h-5V713a5.14,5.14,0,0,0-.7-3,2.57,2.57,0,0,0-2.25-1,3.38,3.38,0,0,0-3,1.4,8.6,8.6,0,0,0-.94,4.65v8.62h-5V705.36h3.82l.67,2.35h.28a5.26,5.26,0,0,1,2.31-2,7.86,7.86,0,0,1,3.33-.68,6.45,6.45,0,0,1,4.86,1.73,7,7,0,0,1,1.65,5Z" transform="translate(0)"/></g></svg>