<svg xmlns="http://www.w3.org/2000/svg" viewBox="0 0 1500 1500"><defs><style>.cls-1,.cls-5{fill:#fff;}.cls-2{opacity:0.5;}.cls-3,.cls-4{fill:#cce70b;}.cls-4,.cls-5{fill-rule:evenodd;}</style></defs><title>map</title><g id="Layer_4" data-name="Layer 4"><rect class="cls-1" width="1500" height="1500"/></g><g id="Layer_6" data-name="Layer 6"><g class="cls-2"><polygon class="cls-3" points="622.27 439.37 596 440.6 576.74 396.08 605.88 413.69 618.53 416.36 622.27 439.37"/><path class="cls-1" d="M593.32,444.91l-25.6-59.17,39.72,24,14.76,3.11,4.94,30.46Zm-7.55-38.5,12.92,29.88,18.71-.88-2.53-15.56-10.55-2.22Z" transform="translate(0)"/></g><g class="cls-2"><polygon class="cls-4" points="1031.16 498.44 1038.08 465.68 1058.65 457.78 1078.08 447.08 1096.51 473.91 1095.2 480.33 1111.66 487.08 1099.81 510.79 1079.72 501.4 1046.8 499.92 1039.72 507 1031.16 498.44"/><path class="cls-1" d="M1101.72,516.29l-23-10.75-30.26-1.36-8.73,8.73-13.11-13.12,7.85-37.19,22.43-8.62,22.49-12.38L1101,473l-1,4.77,17.43,7.14Zm-56.57-20.62,35.59,1.6,17.15,8,8-16-15.5-6.36,1.65-8.07-15.28-22.25-16.63,9.12-18.46,7.09-6,28.32,4,4Z" transform="translate(0)"/></g><g class="cls-2"><polygon class="cls-3" points="962.24 796.19 795.86 674.34 886.1 438.4 958.29 475.19 959.77 586.8 1059.53 635.69 1062.74 670.73 955.33 693.47 962.24 796.19"/><path class="cls-1" d="M967,804.86l-176.2-129,93-243.26,78.59,40,1.48,111.57L1063.48,633l3.76,41.08-107.5,22.76Zm-166.12-132L957.47,787.52l-6.55-97.39,107.32-22.72-2.65-29-100-49-1.48-111.65-65.81-33.54Z" transform="translate(0)"/></g><g class="cls-2"><polygon class="cls-3" points="681.25 97.39 812.12 212.95 812.12 338.39 783.97 377.9 751.81 360.6 751.57 329.49 756.5 300.13 691.32 328.91 618.53 287.52 584.45 110.23 681.25 97.39"/><path class="cls-1" d="M785.23,383.32l-37.58-20.21-.26-34,3.71-22.07-60,26.5-76.29-43.37-.37-1.9-34.9-181.64L682.58,93,816.29,211.07V339.73ZM756,358.09l26.73,14.39,25.24-35.42V214.84l-128-113.06-90.52,12,32.87,171.06,69.29,39.39,70.36-31.06-6.17,36.64Z" transform="translate(0)"/></g><g class="cls-2"><polygon class="cls-3" points="983.48 202.09 812.12 274.19 812.12 338.39 783.97 377.9 859.19 424.69 943.98 377.9 1031.39 411.48 1115.34 348.76 1180.53 389.75 1141.02 241.6 983.48 202.09"/><path class="cls-1" d="M859.06,429.54,778,379.1l30-42.05V271.42l175.2-73.72,161.28,40.44L1187.3,399l-71.76-45.12L1032,416.21l-87.75-33.72ZM790,376.7l69.36,43.15,84.35-46.55,87.07,33.45,84.41-63.05,58.61,36.86-36.13-135.51L983.81,206.48,816.29,277v62.77Z" transform="translate(0)"/></g><g class="cls-2"><polygon class="cls-3" points="978.54 917.18 1248.18 802.61 1269.42 696.93 1232.38 673.72 1066.45 711.25 1062.74 670.73 955.33 693.47 962.25 796.19 998.3 796.19 915.82 879.16 978.54 917.18"/><path class="cls-1" d="M978.21,921.86,909.12,880l79.14-79.61H958.34l-7.42-110.24,115.55-24.46,3.71,40.45,163-36.86,40.94,25.66-22.23,110.67Zm-55.68-43.52,56.35,34.16,265.64-112.87,20.24-100.7-33.14-20.76-168.9,38.2L1059,675.79l-99.26,21,6.4,95.2h42.19Z" transform="translate(0)"/></g><g class="cls-2"><polygon class="cls-3" points="710.88 848.54 744.46 754.82 708.18 720.84 789.89 690.01 795.86 674.34 962.25 796.19 998.3 796.19 915.82 879.16 795.86 925.58 710.88 848.54"/><path class="cls-1" d="M795,930.4l-89-80.64L739.6,756,700.42,719.3l86.24-32.53,7.24-19L963.61,792h44.73l-90.18,90.72Zm-79.21-83.08,81,73.43,116.74-45.17,74.77-75.21H960.88L797.81,681l-4.68,12.31-77.2,29.12,33.39,31.26Z" transform="translate(0)"/></g><g class="cls-2"><polygon class="cls-3" points="661 941.88 609.14 944.35 615.56 1054.97 538.03 1050.52 534.57 959.16 484.69 964.59 576.06 726.56 662.88 674.34 681.25 731 708.18 720.84 744.46 754.82 710.88 848.54 728.65 864.65 661 941.88"/><path class="cls-1" d="M620,1059.41l-86-4.94-3.43-90.67-52.23,5.68,94.33-245.76,92.57-55.67,18.63,57.5L709.14,716l40.18,37.63-33.57,93.68,18.76,17L663,946l-49.41,2.36Zm-78-12.84,69.06,4-6.39-110.15L659,937.79,722.81,865,706,849.76,739.6,756l-32.38-30.32-28.6,10.79-18.09-55.83L579.44,729.4,491,959.7l47.54-5.18Z" transform="translate(0)"/></g><g class="cls-2"><polygon class="cls-3" points="323.7 889.53 270.86 764.58 294.07 623.84 409.13 566.06 618.03 535.93 662.88 674.34 576.06 726.56 538.59 824.17 323.7 889.53"/><path class="cls-1" d="M321.32,894.62,266.54,765.1l23.75-144,117.57-59,.68-.1,212.38-30.63,47,144.92L579.44,729.4l-37.68,98.18ZM275.18,764.07l50.9,120.37,209.34-63.67,37.25-97,85.22-51.25-42.75-131.9L410.4,570.09,297.84,626.61Z" transform="translate(0)"/></g><g class="cls-2"><polygon class="cls-3" points="515.31 1135.96 417.04 1094.97 413.58 1023.85 311.35 1023.85 287.65 925.58 323.7 889.53 538.59 824.17 484.69 964.59 534.57 959.16 538.03 1050.52 515.31 1135.96"/><path class="cls-1" d="M518.12,1141.65,413,1097.81,409.6,1028H308.06L283,924.28l38.44-38.44,1-.31,223.07-67.84L491,959.7l47.54-5.18,3.65,96.47Zm-97-49.52,91.42,38.13,21.33-80.21-3.26-86.25-52.23,5.68,53.29-138.82L325.91,893.22l-33.65,33.65,22.38,92.81H417.56Z" transform="translate(0)"/></g><g class="cls-2"><polygon class="cls-3" points="683.22 1001.14 773.1 1178.92 718.28 1238.68 728.16 1359.67 669.89 1378.44 551.36 1342.39 547.41 1378.44 421.48 1375.47 471.36 1189.79 515.31 1135.96 538.03 1050.52 615.56 1054.97 648.16 1001.14 683.22 1001.14"/><path class="cls-1" d="M669.92,1382.82l-114.95-35-3.82,34.86-135.08-3.18,51.49-191.69L511.51,1134l23.36-87.87,78.42,4.5L645.8,997h40l1.16,2.29,91.18,180.37-55.53,60.54,10,122.47Zm-243-11.4,116.78,2.75,4.08-37.25,122.09,37.14,53.88-17.35L714,1237.2l54.1-59-87.42-172.92H650.51l-32.67,54-76.65-4.39-22.07,83-44,53.84Z" transform="translate(0)"/></g><g class="cls-2"><polygon class="cls-3" points="1032.37 1069.78 1149.91 1147.32 1149.91 1213 1039.29 1288.56 1080.28 1364.12 1062.99 1395.72 974.59 1355.72 841.75 1410.05 769.43 1380.91 743.97 1429.8 669.89 1378.44 728.16 1359.67 718.28 1238.68 773.1 1178.92 683.22 1001.14 648.16 1001.14 615.56 1054.97 609.14 944.35 661 941.88 728.65 864.65 795.86 925.58 915.82 879.16 978.54 917.18 1032.37 1069.78"/><path class="cls-1" d="M745.48,1435.93l-84.92-58.88,63.17-20.34L714,1237.2l54.1-59-87.42-172.92H650.51l-38.34,63.32-7.44-128.25L659,937.79l69.3-79.08,68.43,62,119.48-46.23L982,914.39l.49,1.4,53.37,151.28,118.24,78v70.13l-109.33,74.68,40.27,74.24-20.23,37-90.29-40.86-132.75,54.28-70.38-28.35Zm-66.27-56.11,63.24,43.85,25-48.05,74.26,29.91,132.95-54.36,86.51,39.15,14.33-26.21-41.7-76.88,111.91-76.44v-61.22L1028.9,1072.5l-.47-1.33L975.1,920,915.42,883.8,795,930.4l-66-59.8L663,946l-49.41,2.36,5.39,93L645.8,997h40l1.16,2.29,91.18,180.37-55.53,60.54,10,122.47Z" transform="translate(0)"/></g><g class="cls-2"><polygon class="cls-3" points="350.62 1093.16 311.27 1023.86 413.5 1023.86 416.96 1094.97 350.62 1093.16"/><path class="cls-1" d="M421.35,1099.27l-73.2-2-44-77.59H417.48Zm-68.26-10.22,59.48,1.62L409.52,1028H318.44Z" transform="translate(0)"/></g><g class="cls-2"><path class="cls-3" d="M859.19,424.69,784,377.9l-32.16-17.3-48.44-7.16-12-24.53-72.79-41.39-187.67,32.6L409.13,566.06,618,535.93,681.25,731l108.64-41L886.1,438.4ZM596,440.6l-19.26-44.52,29.14,17.61,12.65,2.67,3.74,23Z" transform="translate(0)"/><path class="cls-1" d="M678.62,736.46,615.14,540.57,404.51,570.94,427,316.55l192.31-33.4,75.21,42.76,11.65,23.72,47,6.94L786,374.22l75.3,46.83,30.09,15.33L793.12,693.26Zm-57.7-205.17,63,194.26,102.79-38.78,94.19-246.35L857,428.24l-75.22-46.79-31.28-16.83-49.89-7.37-12.46-25.34-70.37-40-183,31.78-21,237.49Zm-27.6-86.38-25.6-59.17,39.72,24,14.76,3.11,4.94,30.46Zm-7.55-38.5,12.92,29.88,18.71-.88-2.53-15.56-10.55-2.22Z" transform="translate(0)"/></g><g class="cls-2"><polygon class="cls-3" points="691.32 328.91 756.5 300.13 751.57 329.49 751.81 360.6 703.37 353.44 691.32 328.91"/><path class="cls-1" d="M756,365.44l-55.44-8.19-14.94-30.4,76.26-33.67-6.17,36.64Zm-49.88-15.81,41.45,6.12-.21-26.6,3.71-22.07L697,331Z" transform="translate(0)"/></g><path class="cls-5" d="M909.8,1309.24a8.4,8.4,0,1,1-8.4-8.4,8.4,8.4,0,0,1,8.4,8.4" transform="translate(0)"/><path class="cls-5" d="M642.71,1189.79a8.4,8.4,0,1,1-8.4-8.4,8.4,8.4,0,0,1,8.4,8.4" transform="translate(0)"/><path class="cls-5" d="M514.81,980.18a8.4,8.4,0,1,1-8.4-8.4,8.4,8.4,0,0,1,8.4,8.4" transform="translate(0)"/><path class="cls-5" d="M521.5,941.33a8.4,8.4,0,1,1-8.4-8.39,8.4,8.4,0,0,1,8.4,8.39" transform="translate(0)"/><path class="cls-5" d="M379.35,1069.8a8.4,8.4,0,1,1-8.4-8.4,8.4,8.4,0,0,1,8.4,8.4" transform="translate(0)"/><path class="cls-5" d="M367.43,736.24a8.4,8.4,0,1,1-8.4-8.4,8.41,8.41,0,0,1,8.4,8.4" transform="translate(0)"/><path class="cls-5" d="M828.22,794a8.4,8.4,0,1,1-8.4-8.4,8.4,8.4,0,0,1,8.4,8.4" transform="translate(0)"/><path class="cls-5" d="M714.6,530a8.4,8.4,0,1,1-8.4-8.39,8.4,8.4,0,0,1,8.4,8.39" transform="translate(0)"/><path class="cls-5" d="M736.91,198.67a8.4,8.4,0,1,1-8.4-8.4,8.4,8.4,0,0,1,8.4,8.4" transform="translate(0)"/><path class="cls-5" d="M736.91,335.57a8.4,8.4,0,1,1-8.4-8.4,8.4,8.4,0,0,1,8.4,8.4" transform="translate(0)"/><path class="cls-5" d="M614.56,427.54a8.4,8.4,0,1,1-8.4-8.4,8.4,8.4,0,0,1,8.4,8.4" transform="translate(0)"/><path class="cls-5" d="M1043.37,531.26a8.4,8.4,0,1,1-8.4-8.4,8.4,8.4,0,0,1,8.4,8.4" transform="translate(0)"/><path class="cls-5" d="M912.93,583.61a8.4,8.4,0,1,1-8.4-8.4,8.4,8.4,0,0,1,8.4,8.4" transform="translate(0)"/><path class="cls-5" d="M878.86,318.57a8.4,8.4,0,1,1-8.4-8.4,8.4,8.4,0,0,1,8.4,8.4" transform="translate(0)"/><path class="cls-5" d="M1133.93,756.65a8.4,8.4,0,1,1-8.4-8.4,8.4,8.4,0,0,1,8.4,8.4" transform="translate(0)"/><g class="cls-2"><path class="cls-3" d="M1205.71,493.46l-48.89-48.4,23.71-55.31-65.19-41-83.95,62.72L944,377.9l-84.78,46.79,99.11,50.5,1.48,111.61,99.75,48.89,6.92,75.56,165.93-37.53Zm-105.9,17.33-20.09-9.39-32.92-1.48-7.08,7.08-8.56-8.56,6.92-32.76,20.57-7.9,19.43-10.7,18.43,26.83-1.31,6.42,16.46,6.75Z" transform="translate(0)"/><path class="cls-1" d="M1062.72,716.37l-7.13-78-99.95-49-1.49-111.66L850.28,424.84l93.38-51.54,87.07,33.45,84.41-63.05,70.63,44.41-24,56,47.86,47.38.21,1.38,27.23,184.08Zm-98.8-132.19L1063.48,633l6.7,73.15,157.5-35.63-25.9-175L1151.87,446l23.41-54.64-59.74-37.57L1032,416.21l-87.75-33.72L868.1,424.55l94.34,48.06Zm137.8-67.89-23-10.75-30.26-1.36-8.73,8.73-13.11-13.12,7.85-37.19,22.43-8.62,22.49-12.38L1101,473l-1,4.77,17.43,7.14Zm-56.57-20.62,35.59,1.6,17.15,8,8-16-15.5-6.36,1.66-8.07-15.29-22.25-16.63,9.12-18.46,7.09-6,28.32,4,4Z" transform="translate(0)"/></g><path class="cls-5" d="M1077.72,479.3a8.4,8.4,0,1,1-8.4-8.4,8.4,8.4,0,0,1,8.4,8.4" transform="translate(0)"/></g></svg>